/* XPM */
static char *Screenshot_2025_05_20_at_17_41_35_1_png_2_1747756849[] = {
/* columns rows colors chars-per-pixel */
"80 80 256 2 ",
"   c #340902",
".  c #192301",
"X  c #293502",
"o  c #363802",
"O  c #4F0F02",
"+  c #6E0B02",
"@  c #532B03",
"#  c #6F3203",
"$  c #3A4803",
"%  c #464904",
"&  c #4E500E",
"*  c #555906",
"=  c #734C07",
"-  c #5A6310",
";  c #686910",
":  c #5A5A2D",
">  c #70572C",
",  c #707032",
"<  c #7B2A68",
"1  c #665A59",
"2  c #76764A",
"3  c #8F0D03",
"4  c #B01405",
"5  c #903407",
"6  c #B03707",
"7  c #9B0731",
"8  c #D42122",
"9  c #884605",
"0  c #985607",
"q  c #91520F",
"w  c #AC560D",
"e  c #926810",
"r  c #A96518",
"t  c #B26C13",
"y  c #91572A",
"u  c #B25432",
"i  c #956B30",
"p  c #A86727",
"a  c #B87629",
"s  c #A96A36",
"d  c #AE7130",
"f  c #B77638",
"g  c #D05209",
"h  c #F55607",
"j  c #D2670B",
"k  c #F46D0B",
"l  c #DD6527",
"z  c #CA7133",
"x  c #A31D60",
"c  c #D3275A",
"v  c #8E774E",
"b  c #A97946",
"n  c #AC704F",
"m  c #B87A47",
"M  c #BA7A53",
"N  c #A27167",
"B  c #C47B48",
"V  c #C47C54",
"C  c #D67451",
"Z  c #E26058",
"A  c #D17565",
"S  c #EA6E70",
"D  c #758338",
"F  c #7D834F",
"G  c #7E8468",
"H  c #8C8431",
"J  c #B4862E",
"K  c #BA843A",
"L  c #E8861C",
"P  c #C88A3B",
"I  c #868957",
"U  c #928E53",
"Y  c #AB854A",
"T  c #B98548",
"R  c #A98857",
"E  c #B88756",
"W  c #BA9258",
"Q  c #BCA043",
"!  c #888A67",
"~  c #969968",
"^  c #918B70",
"/  c #969677",
"(  c #B98A66",
")  c #A8926F",
"_  c #B89568",
"`  c #B99A78",
"'  c #9BA374",
"]  c #A7A477",
"[  c #B7A576",
"{  c #C5874A",
"}  c #C78758",
"|  c #CF9151",
" . c #C99658",
".. c #E2A059",
"X. c #C98B65",
"o. c #D58A67",
"O. c #C89667",
"+. c #CC936B",
"@. c #D3966A",
"#. c #CA8B74",
"$. c #C99877",
"%. c #D39573",
"&. c #D39B74",
"*. c #D49B7C",
"=. c #D8987A",
"-. c #ED9073",
";. c #CBA267",
":. c #D6A76A",
">. c #C9A379",
",. c #D6A67A",
"<. c #D5B27D",
"1. c #745D96",
"2. c #A96884",
"3. c #8C6FB5",
"4. c #D44699",
"5. c #DA689D",
"6. c #9473CF",
"7. c #9679C8",
"8. c #A07ED6",
"9. c #7F8492",
"0. c #958F8C",
"q. c #989598",
"w. c #B2978D",
"e. c #A59B98",
"r. c #9EA192",
"t. c #A8A886",
"y. c #B7A688",
"u. c #ADAC91",
"i. c #B6A895",
"p. c #B8B598",
"a. c #9990AD",
"s. c #AB99A9",
"d. c #A79AB6",
"f. c #B8A7A9",
"g. c #BBB6A9",
"h. c #ACA7B3",
"j. c #B8A6B8",
"k. c #CA9B85",
"l. c #D49C82",
"z. c #DA9D82",
"x. c #D99D8B",
"c. c #CD8E92",
"v. c #DA9B95",
"b. c #E7998C",
"n. c #C9A588",
"m. c #D6A787",
"M. c #DAA284",
"N. c #D4A48C",
"B. c #DBA48C",
"V. c #D8B48A",
"C. c #C8A998",
"Z. c #D4A493",
"A. c #DBA593",
"S. c #D7A897",
"D. c #DCAA94",
"F. c #D3AC9A",
"G. c #DCAC9B",
"H. c #C8B49A",
"J. c #D8B49B",
"K. c #E4A58A",
"L. c #E4A898",
"P. c #E2AD9B",
"I. c #E6B697",
"U. c #CB97B2",
"Y. c #EC90AB",
"T. c #C8ABA5",
"R. c #D6ACA6",
"E. c #DDACA3",
"W. c #CAB7A7",
"Q. c #DCB3A4",
"!. c #D6B8A6",
"~. c #D3B5AB",
"^. c #DCB4AB",
"/. c #DCBBAC",
"(. c #CAAAB7",
"). c #CAB8B6",
"_. c #D7B6B6",
"`. c #D3BDB4",
"'. c #DBBCB3",
"]. c #DBBCBB",
"[. c #E2ADA3",
"{. c #E7ACA9",
"}. c #F3AEAC",
"|. c #E2B2A4",
" X c #E3B4AB",
".X c #E8B7AB",
"XX c #E7B5B3",
"oX c #E4BBB3",
"OX c #EABBB4",
"+X c #E6BCBB",
"@X c #EBBDBC",
"#X c #F1B7B8",
"$X c #BEC3A6",
"%X c #E9C198",
"&X c #CEC8AF",
"*X c #CAC8B8",
"=X c #D7C4B8",
"-X c #DCC2BC",
";X c #E3C3B5",
":X c #E9C5B0",
">X c #E4C2BC",
",X c #EAC1BE",
"<X c #9B88CA",
"1X c #AC90C9",
"2X c #A998C9",
"3X c #A68AD6",
"4X c #AC95D7",
"5X c #B39BDA",
"6X c #B6A7CA",
"7X c #B5ADCE",
"8X c #BAB4C6",
"9X c #B9A7D7",
"0X c #BAA4DD",
"qX c #B59CE1",
"wX c #BAA4E3",
"eX c #BEABE3",
"rX c #CC90CC",
"tX c #CAB8C7",
"yX c #D8BAC4",
"uX c #C8ADD1",
"iX c #C6B7D9",
"pX c #EFB7C7",
"aX c #E5BEC3",
"sX c #ECBEC1",
"dX c #C2ADE5",
"fX c #C7B4E7",
"gX c #CBBBE4",
"hX c #CCBBEA",
"jX c #D1BEE9",
"kX c #CCC9C6",
"lX c #DCC5C3",
"zX c #D8C8C7",
"xX c #D7D4CA",
"cX c #CBC5D8",
"vX c #D9CAD8",
"bX c #DCD5D5",
"nX c #E3C5C2",
"mX c #EBC1C2",
"MX c #E7C7C9",
"NX c #E5CACC",
"BX c #F1C4C7",
"VX c #E6CCD4",
"CX c #EECFD1",
"ZX c #E4D6D8",
"AX c #EDE3DC",
"SX c #CCC2E7",
"DX c #D7C8E6",
"FX c #D3C3EB",
"GX c #DDD3E7",
"HX c #DCD0F2",
"JX c #E4D7E7",
"KX c #ECD5EA",
"LX c #E4DAEB",
"PX c #EFE6E8",
"IX c #ECE4F3",
"UX c #F4E9F6",
/* pixels */
"vXJXKXBX}...j j j j L ..Q <.$XxXDXPXPXPXPXPXAXPXAX[ u.2X<XiX/ BXPX:X] y.&X` [ y.Y _ >.T f ;.;.;.| |  .<.J.;.;.<.T p u s q @ % D u.- $ $ * - - % % $ ; H ( R * = ",
").VXCXBXI...k h j L Q ....<.*XxXGXIXPXPXPXPXPXAXAXxXq.e.d.j.yXKXCXBXZXH.] _ ) $.n.C._ W J W W  .;.:.:.:.J.J.;.:.,.$.:.| @ - F $ D * - - * $ $ * $ ; - X % ( n i ",
"tXpXCXCXpX}...h j L Q Q ~ t.*XxXvXZXAXAXAXAXAXAXAXbXe.q.<X7XjXHXKXCX=XR _ _ n.O.>.>.>._ T d p Q ;. .<.<.V.:XV.;.V.D.:X%XP U D * * $ - *X$X$ $ $ $ X X $ % E R i ",
"0XjXFXFXHXHXY.k k L  .] ' r.*XkXkXbXGXbX=XxXAXAXAXZXu.r.<X2XpXKXKXF.Y ) ) Y >.$.V.V.H.V.n. . .;.;.Q V.<.J.V.J.O.>.V.J.J.%X:.; * $ $ ~ &Xy.' - $ $ $ - - $ & $ ! ",
"qXqXdXfXhXFXFXY.L k ..I.$Xh.*XcXcXSXcX8XH.=XbXZXZXGX9X4X2Xd.yXDXC.U cXDX_ ` H.W.n.R ( W K  .;. .K  .:.:.<.<.:.:.>.V.<.:X!.V.J H * F $X] $X$X*X' 2 : v $ . $ o ! ",
"3XqXdXdXeXdXjXjX-.h L -.%XkX7XSXGXHXHXGXbXzXxXcXiXiXfXiXr.u.8XR b _ H.&X_ ~.=Xn.) _ E { K P { { P | .. .;.:.<.<.W V.V.>X:X>XV.i ' $X$X$X*X*X*X&Xg.g.R * $ X - t.",
"2XdX0X5X3XqXfXFXb.h h k -.}.SXHXIXIXIXIXIXGXcX6X9XfXiX9X7XtX) R ` n.$.Q.=XW.` ( W W W K t J J K | K J P { ..Q <.;.| &X:.:X:X:XV.*X&X*X$X*XxX*XbXbXw.f.t.$ $ , D ",
"1X9X9X<X7.4XfXFXS h h h L >XHXIXIXIXUXUXIXIXGX4X<X2X0X0X9X` _ K  .Y = ) ( W.>.` n.Y J t t K a { J a | P | P :.{ :.;.:.%X%X:X:X:X&X*X*XxXxXxX*XxXbXxX&Xv % , 2Xh.",
"3X1X6XuX3XwXhXFXb.k k k b.pXKXKXIXIXIXUXUXUXJXfX<X7.3XwX` R J K Y $.` y.n.n.O.` f Y a e b O.a W K J t P |  .@.@.:.;.{ ;.:.%X%X%X%X:X*XxXbXxXkX*X*XxX).0.h.s.h./ ",
"3X5XU.rX0XhXhXFX#X-.L L }.KXHXHXIXIXUXIXUXIXIXcX0.N 4X( [ R b  .>.H.C.W.F.C._ E b Y K r m K m d f t z J K r K  .E  .P  .| :.%X<.%X%XxXxXbXbXp.] u.t.j.g.).f.2 9X",
"3X4XuXrXjXFXFXFXjXpX5.S XXDXFXFXGXLXLXIXIXIXLXSXw.7.j.( d K W >.<.C.H.!.W.T._.R E R O.f b a E s 0 K O.+.;.b d b T p 0 a P ..:...<.<.=X*X*Xp.R [ _ ] kXf.f.f.2 h.",
"wXeXiXiXFXjXhXfXhXfXfXv.w.aXjXiXiXDXDXDXHXHXHXHXU.8.[ R i R ;.H.`.m.n.` !.~.( C.` k.n.b W a X.#.K n.m.O.,.m V B m { p t 0 J ..V.Q <.%XH.] [ [ W.xX*XkXu.tX)./ tX",
"FXHXFXhXeXfXhXfXfXfXeXh.^ T.).tXuX6X2XfXDXDXKXDXVX1X$.R W H.V.&X>.W C.T.!.T.C.).C.R.R.b w.N.+.$.m !.]. XP.z.L.B.I.=.o.t 0 r t | P <.<.&.;X^.=XNXxX:XxXAXkXbXG r.",
"FXHXHXFXeXwXfXhXhXhXgX8X^ ! w.i.w.j.uXhXDXDXHXHXDXtXvXR _ V._ >.O.n.=X].^.~.T.T.T.].T.y F.'.R.nX$.+XnXD.B.z.P..X}.}.I.o.t a 0 P { :.,.,XPXAXNXVXxXxXbXbXbXt.D u.",
"eXeXFXhXeXwXeXFXFXFXSX8XI 2 ~ ] t.f.yXjXDXHXHXKXDXi.k._ O.;.T W >.~.C.(.`.T.~.C.w.(.~.C.T.^.].S.Z.].nXnX=.L.[.OX,X,X,XI.@.z t 9 z V.,.KXUXUXPXi.$XxXxXbXxXF F $X",
"<X<XqXqXwXwXeXHXFXhXFX8X~ i.tXtXT.T.yXuXpXDXGXHXyX` ` _ R W ;.>.W.>.H.~.C.$.yXk.k.yX_.T._.+XyXR.G.E.nX>XL.[..XOXOX,X#XOX{.| r t w ..<.L.UXUXUXj.h.$XxXxXxXD ' t.",
"6.6.<X3XwXwXeXHXFXSXSXiX8XtXDXvXT.t.i.c.U.yXuXY.i.b E e t W >.` n.C.].`.W.k.zXtX).].^._.aX_.$.Q.lXMXnX X|..XOX@X@X@X@X@XOXL.B p 0 t ,. XKXUX(.(.s.2 t.xX*XI u.F ",
"<X3.3XqXqXwXeXeXhXSXeXeXSXDXvXyX) ! ~ U N c.4.A _ i e d J _ >._ C.).`.F.F.F.Z.#.T.].l.(.nX_.l.Z.B.aXoXP. X+X@X@X@X@X@X@XOX.X=.{ 0 { :.I.CXUXKX(.(.) *XkX*X; ~ ~ ",
"<X<X<X3XwXeXwXqXeXSXSXeXfXgXtX/ F F 2 , : v y.( e K $.T Y K Y ` ~.C.F.=Xn.Q.~._.XXyX#.R.yX XS.].+XoX X XXX@XaXsXsX@X@XsX@X+X{.@.d 0 @.;XBXKXBXaX(.e.*XbX*X; / t.",
"2X3X<X<XqXeXfXeXwXeXeX0X7XeX7X! ! 2 : - - ) R d Y &.+.9 a E C.n.k.W.!.Z.m.K.R.x.aX'.v.].>XE.*.G.].'. XXX@X+X@X@XsXnXsXsXsX@X+XK.| y  .J.,XPXKX^.g.g.kXkXr., r.*X",
"eXwX3X8.3XeXFXFXwX4XqX5X7XfXeXg./ : - - * w.R _ O.,.G.N.$.O.` _ C.W./.!.D.$.R. X_.F.Z._.R.%.G.XX X XXX+X@X+XsXaX+XmX@X,XsXsXaX|.} m f /.J.CXaXVX$Xg.u.r.2 2 ^ (.",
"eXeX3X<X3XqXeXhXeXwXwXqXqXSXSXeXr.: $ - ; ] [ b l.%.[.^.O.P _ >.k.F.J.D.*.B.|.'.E.x.A.^.Z.x.P.^. X+XsX+XnX+X,X+XmX>XmXmXsXmX@X+Xl.} +.J.zXvXd.h.h.u.^ / & 2 0.f.",
"eXeXqX<X6.3XwXhXeXeXeXeXwXfXSX8X^ X * D I ` ` ` F.T.o.K.+._ O.C.C. .m.S.B E.|.E.z.l.C.x.} M =.}  XXX+X@X@X+X@XmX,XmXmX>XsX+X@X+XA.{ O.Q.`.xX).2Xf.! h.^ - j.j.h.",
"<XqXqX3X6.3XqXeXeXiXcXSXFXSXvX*XI * U ' I >.R i j |.=.,.@.n.C.O.m.<.m.*.N.[.R.Q.z.F.l.+.z.o.V M V m M c.XXaX@XsXmX,X@XsXnXmX@X>X X} k.H.=XkX8X2Xj.).0.r.* j.q.0.",
"1 a.4X<X<X3XqXwXwXcXbXGXGXbXZXzXp.] p.t.] >.R W P.K.j m &.C.O.m.>.V.z.%.G.^.Q.G.^.G.Z.=.|..X[.A.B s s p M Q.OX;X,XmX,X,X,XnX@X>XOX@.O.F.xXZXkXd.j.xXs.^ ; r.g.' ",
", G r.a.4X3X4XqX7XcXxXbXZXZXbXNX=X&X$X] [ ~ R n. Xz w } H.O.+.>.>.N.N.G.]./.^.E.B.-.o.,.K.K.K.M.A.Z.X.s s } L.OX>X,X,X+X>X@XmXMX,XB.O.!.xXZXxXh.kXbXvX/ ; / kXu.",
"D F G h.0X4X2X7XcXvXvXxX=X=X&X=XxX=X&X[ p.H.H.%.P.p C n. .&.>.$.N.N.E.^.Q.l.oXD.K.o.C S C C o.C o.K.z.l.} M E.+X+X@XoX X'.oXoX+X,XS.T ,.).kX*X).bXbXZX; 2 W.p.I ",
"- - D 2XeX4X4XiXDXGXVXlXH.W Y _ &XxX*X<.&X=Xn.=.K. .O.+.O.Z.| F.Z./.!.D.D.].E.K.=.A @ 5 6 + q u z C %.z.l.Z.^.'.,X>XoXG.B n p +.N.D.+.O.).d.kXxXZXbXZXt.u.bX] - ",
", : 2 7XfXwX0XgXvXvXzX=X` = @ Y /.>XzX;.&X&XH.=.*.| P X.$.O.W.F.,.;XB.G.R.^.M.K.L.b.Z u 5 1 1.1 9 0 t =.z.G.oXoXmX@X|.#.M s q p r } M $.8XcXj.cXLXPXbXp.~ &XU D ",
"F ~ y.tXbXSXFXcXyX&X=X`.y.b i ` =XxXzX_ &XW.n.=.,.@.+.m n.+.m.m.D.B.z.M.oXK.P.{.{.L.-.Z c d.= @ =XN 9 } N. XoX+X>X XA.+.X.X.%.=.{ r m O.C.8Xg.^ GXLXcX/ ' ' ] ' ",
"I _ $.[ kXJXvXcX=XW.zXlX`.H.W.=XxXCXxX_ `.W.H.V.:.@.M.X.N.+.z m.Q.G.&.;XI..XsX#X}.{.L.v.*.y C w.>Xu +  .A.XXnXmXmXQ.%.@.o.o.=.=.K.f m ;.Z.6Xh.s.u.8Xg.F t.' D G ",
"i B } >.ZXZXbX).).&X*XlXzXkX=XzXbXxXxXT =XC.~.Q.@.-.K.D.m.N.>.J.G.,.M.|.b.BXpXsX}.}.}.b.b.x.A C C A m B.{.@XsXmXmXM.V { z C l | *.{ E @.m.d.d.e.h.r.r.; ~ F r.7X",
"S.o.%.J.ZXJXvXkX).&X&X=XzXlXzXxXzXxXzXY ~.H.W.Q.K.I.UX,X*.@.,.M.D.%.G.M.I.sXBXpXpX}.}.}.L.L.v.v.v.v.v.{.#X,XBXBX,X=.p 1 1.s.@ 5 o.T a zX~.f.d.0.h.h.e.; 2 F h.7X",
"oXB X.=XxX=X!.W.g.W.W.$X).kXxX*X*X$XW.>.H.].n.b K.OX.Xz *.&.@.*.D.%.>X=.P.@XmXBXsX#X#X}.}.}.{.}.}.XXXX#X#XBXBXCXOXo.> O   kXW.  d b f D.N.N.a.q.a.3.^ , F - h.7X",
"n.f W J.!.' R ` i.u.] p.g.W.H.t.~ ] H.`./.~.`.E 9 K.K.I.z } } %.N.*.'.=.L.,XmXsXBXsX#X#X}.XXXX#X#X#X#XsXpXBXBXBXmXL.A n c.nXB u { B f &.N.N.2X2Xa.0.d.* - G G 6X",
"y._ W [ U , ; v ! I U ~ ' ] ~ H H ' H.H.lX!.*Xq 9 ZXIX/.f T { J.B.,.Q.B.P.#XsXBX#XBX,X#X#X#X#X#X#X#X@XpXBXpXBXCXBX.Xv.V u C C A } n.} Q.].i.(.2Xw.f.2X0.G 2Xq.a.",
"!.p.U U ; * * % @ * ; H H H H D 2 H.=X=XNXF.n.y = V.yXN.0 r } +.S.M.-X*.P.:XmXmXBX#X,X,X#X#X@X@X@X@X#XsXsX@XpXCXBXXX{.E.z.=.L.[. .k.Z./.NX_._.6X6X6X7X2Xd.e.q.0.",
"=X*X) ; * - * * $ * ; D ; ; ; , y.y.C./.nX~.b b y Y q $.O.} V &.,.M.D.,.L.OX@XmXBX,XBX#X,X#X@X#X.X.X.X@XXX#XsXCXCXXXsX#X}.{.}.OX} n.R.F.MX].].7X7XuX9X2X2 r.d.2X",
"&X&Xt.F : - - - * , ) U 2 * , I ~ =X!.=XnXW.b # E E i +.@.m.} &.l.M.D.M.D.@XmXmXBXBX,X,X,X,XOXOX.XL.XX}.}.@X@XBXBX.X#XBXsXsX@XOXX.m.R.(.nXMX].uX7X7X7X7Xd.r.d.2X",
"[ t.t.! 2 q.* & R k./.W.0.^ ! i.T.&XnX/.-XQ.v 9 O.y _ +.$.N.} #.*.m.B.B.M.XXmXmX,X,X,X#X,XOXXX X.X{.}.mX@XXX@X#XBXP.#XsX@X#X:X}.`.F.R.6XT.MX^.tX(.h.^ q.a.7X7X7X",
"I ~ t.8XgXFX2X6X^.@XaXQ.W.T.f.` zX`.;X-X-Xk.= X.$.b # k.*.m.X.*.M.B.,.,.M..X@X@X,X,X@X@XOXOXXXoX XL.[.K.5 =.L.K.L.K..X:X#X:X#X}._.iXiX8Xd.'.MXtXq.G , q.d.6X6Xd.",
"I ' cXHXDXjXdXFXGXmX'.n.C.y.C.`.].lXnX;XnX!._ m _ ( b T &.N.M *.B.B.&.M.M.P.,XMXmX,XOX@XOXOX+XXXXXP.v.L.*.%.o.%.o.K.}.:XOX#X.XI.(.7XtX).^ (.NX].).G F 0.q.2Xe.d.",
"~ , cXgXeXiXgXFXjXiX-X<.R _ H.zX~.=XnX'.VXQ.Q.p y.n p } %.Z.+.+.M.B.,.B.,.P.+XmX,X@X,XOXOX+X@XOX+XXX X_.Z.%.M z .XP.|..XOXOX.X>.tXiX~.tX^ e.aX_.T.2 F 9.q.2 6Xa.",
"' w.gX0X7X7XhXhXhXvXxX&X] n.)./.lX=X;X-XNX,.H.q n.@ q m %.Z.B.X.%.B. .J.M.P.@X@X,X@X,X,X@X@X+XOXnXXXoXXX[.Q. XXX+X|..X}..XOXP.` (.iXf.d.s.j.nX].(.2 / a.a.q.2Xa.",
"R 0.rXrX6X1X5XdXSX*X*X$XH.`.=X~.=X:X>XNX=X+.m.9 $.@ = n *.B.A.X.+.*.@.M.&.I.OXmXmX,X,XOXoX|..XOXOXP.{.{.XXXX+XaXmX@X.XOX:XOXn.y.w.c.j.(.e.tX_._.H.G 0.a.a.e.2X6X",
"w.N qXrXrX8.3XdXcX$Xp.p.W.`.`.=X/.=XnX>X;X>.O.= i @ n m l.N.D.B.B +.@.M.K..X;X,X,X,X+X|.x.B -.5.S C l C {.}.+X+XnX@X+XOX.XA.{.(.N > 0.c.e.i.D.W.).G 0.a.a.2X9XiX",
"f.v.4.4.c 4.rXfXg.U t.C.`.~.!./.=X>XG./.Q.} ,.9 @ @ # m =.D.G.D.%.B X.@.B.OXOX@X,X+X.XP.l.u + 3 3 3 4 6 g u o.XX@XOXoXoX{.C.uXuX0.v w.U.k.n.F.C.i.0.a.a.d.6X2X5X",
"uX5.4.c 4.5.5.rXN ` p.J.&XW.-X^.=XNXnX'.V.} >.e O @ 9 } *.S.|.P.G.X.} } M.OX:XOX:XOXoX X[.[.5.l 8 4 4 i + 4 g |..XoX+XoXv.R.Y.uXv U.uX(.e.O.n.k.0.N q.2X6X2X7X7X",
"{.Z c c 4.5.S 5.b.w.W.`.~.-X~.-X=XNXNXNX;. .N.q O i 9 { *.G.|.^.L.z.{ } ,.|.OX;X>XOX+XXXXX X[.=.5.Z c 8 8 4 6 m .XOXoXN.x.S g c.N U.d.q.w.n.n.( q = = 0.G 7X6X8X",
"rX5.8 4 c 5.S Y.{.B.`.].=X/.!./.=X;X%XNXO.z N.d p = 9 } M.J.|.oX|.x.+.z o.D..XOX,X,X+X+X X{.[.A.o.l l Z 8 S A =.|.oX X/.A j g C w.G e.R O.n.T.T.i = # ; G h.a.0.",
"rX4.8 4 8 4.5.v.b._.].`.!.'.nX'.>XNXMXNXO.T m.Y O # t o.M.G. X X XG.=.} f %.B.OX@X,XnX@XOX X|.|.M.X.C C l A G.P..XoXG.^.| J w w 6 9 i - >.>.h.0.H ; 9 ; r.0.a.q.",
"3XrXc c 8 c S z.b._.=X-X'./.=X;XnX>XMX|.,.{ F.X.# + d o.M.G.|.oXoXP.B.%.{ B #.A. X+XaX@X@X@X:X}.OX}.{.L.G.G.|.|.P.&./.'.J J w 6 4 + % W _ T.f.! F e t * = a.q.g.",
"6.rX5.c c c c #.v.=X/.=X=X=XJ.>X>XnXNXJ.B.f T.X.  O f %.x.P.^.oX X[.D.*.@.} { %.D.oXOX@XOX,XOX,X@XBXMX;XOX X[.G.VX+.].MXt t 5 4 5 a W _ E E ) r.I e FXd.! d.i t.",
"6.1X5.4.c S S v.].lXlX=X'.=X>XQ.Q.;X=X>.,.E N.X.O 0 B %.B.|. XoXoX|.L.B.*.%.o.{ @.D.|.+X,XOX,X#X@XmXBXmX;X.X[.B CX@.CX;Xj w w 5 0 T n.Q.yX(.s.hXSXiXFX4XdXv ^ T.",
"6.1X2.Z N c 5._.lXlX=X!.=X-X;XnXMXNX'.M.D.X.k.( O r } =.L.Q. X+XoX|.P.D.B.=.%.X.{ } M.I.OXOXOXOX@XOX,XOXOX/.p { ;XnXMX+Xx.5 w 5 9 e n.+XiXuXiXgXDXFXeXhXFXN 0.f.",
"7.3.1 & > u A ) ].=XlXV.Q.>X-XJ.MX=XM.G.>.$.$.y # f X.l.D.|.oXoX+X|.|.G.B.M.=.@.o.B B %.K.P..X|..X.X.X.X|.5 0 m B.VX|.CXmXs 9 3 + { _ E.).6X7XiXFXDXfXgXfXs.v ^ ",
"<X1 1 @ @ 2 ) H.zX`.-XlX-XQ./.NXNXQ.J.Q.} J.# @ 0 } @.B.D.|.|.+XoX X|.G.D.B.M.*.%.X.{ a } %.=.B.B.K.M.B.# 9 0 f V.NX.XNX;X'.V t + w M j._.tX6XFXhXjXdXdXdXfXhXqX",
"3X1.X . . o 2 v `.~.=X/.;X-XlXNXnX=XQ.O.f `.s   f } =.B.P.G.oXoX;XoX|.J.G.A.B.l.*.@.} z f z X.X.X.X.} a # a 5 m S.CX;XMXNXnXA.V w z u 5XuX6X9X9XqXfX1X4XjXhXhXhX",
"<X1.o X . 2 & N ].W.zX/.J.>X;XMXNX;XG.$.*.R # # B o.z.B.P.P. XoXoX X|.Q.D.D.A.N.N.&.+.} { { %.r 0 r w r 5 0 w W N.CXnX/.MX>XMXR.y V A 9XC.6X9XFXfXfXtXgXgXKXfXhX",
"<X1 o X & & ^ C.`.=XlXlX/.=XnXNX XQ.B.^.yXyX> m V %.M.B.P.|. XoX XoX|.G.G.G.A.D.B.B.=.@. .o.m r d r t 9 9 5 a X./.nX/.o.MX;X>X_._.> ( ) c.2XfXfXqXdXf.f.JXKX3XdX",
"<X* $ $ , ! 0.v =X].-X-X!.=XlXnXnXm.F.x.vXGXGXM X.%.=.K.P.[. X|. X X X|.G.G.G.G.D.A.M.*.=.,.9 w a f 0 r 0 5 K a J.oX$.J.S.oX;XNXMX) v v 2.5X9XuX6.6.qXfXdXKX3XqX",
"h.F : & > I t.C.p.W.!.nXJ.%X;X/.Q.F.>.= ZXIXGXLXyXX.%.z.A.P.^.|.|.|.|.|.Q.P.P.Q.D.D.M.l.=.M.9 0 a a r t t 9 m &.F.Q.^.+.V.oXnXnXyXyXo v & d.6X5XdXdXdXdXwXqXqXdX",
"' ~ _ R E v , i.T.W.=X=XJ.Q.Q.J.m.~.} T O vXGXLXGXJXM #.x.P.J. X/.|.|.J.Q.P.P.G.G.D.B.M.M.*.5 0 t { z r a 9 X.T *.Q.+XM Q.J.;X>XVXaX^ v ^ N 0X0XdXqXdXuX4X6.5X5X",
"] _ W ;.&.m._ C.T.i.~./.V.V./.J.m.m.0 +   } +.~.IXLXLXGX=.D.P.Q.Q.|.|.P.|.P.P.G.J.D.B.B.B.%.9 w t X.} z f 5 a M.*.!.MXE X.+.;X>XMXNXk.w.> @ 5XdX5X3X3X3XqX4XwX4X",
"W W } m X.M.Q.y.) w.W.].D.J.!.m.F.X.p + m %.%.$.oXF.IXIXDXB.S.E.R.|.|.G.G.P.L.D.B.B.B.m.M.X.# 0 t { ,.@.{ z m /.X.E yXF.m Q.M.;XNX6XM u s.d.8.uX5X<X3.qXeX0XdXdX",
";.W T f m X.*.y.v H.C.=X>.m.m.&.T E 0 O +.$.*.*.*.%.VXZXUXIX*.Z.E.G.G.D.D.D.A.B.B.M.z.,.,.u y a t P ,.D.%.} r G.r x./.aX*.6X4XoX2X(.1Xw.3X3XdX3X4Xv 7.wXhX5X5X8.",
"_ Y H w s X.x.n./ N W.=Xm.&.>.+.z = # X.$.*.l.l.l.z.B.B.LXIXHXvXS.G.G.Z.N.B.N.m.z.,.z.z.=.y (.s a } P.P.J.l.f } +.E n MXR.2X6XuX4X6X1X9XrX3X3X5XdX6X3XdXqX4XwX3X",
"T ' R t g l l C.R v F.`.V. .:.} p O #.$.l.N.l.x.l.B.B.G.} LXUXIXl.x.Z.v.l.*.=.*.l.l.l.M.l.r i ( { %.D.V.oXoXF.X.S.b X.k.MX5XfXgXfX0X7.9XwXdX8.6.3.f.GX0XfXhXdX8.",
"g z Q p j g g X.y > ).=XJ.n.{ B 0 } k.k.Z.N.A.B.D.G.G.G.L.R.JXJXLXT.GXGXLXk.%.*.=.*.z.B.%.f C.JXX.{ M.+X|.:X;XX.%.} m $.R.VXfXiXgXfXqX5X5XqX4X3X3.CXw.JXKXdXdXwX",
"U l g g j k @.F.q ) zX/.!.m.z f m k.Z.v.Z.A.A.A.P.[.G.E.P.A.} V VXJXLXJXvXJXl.l.*.*.x.D.#.m y _.O d J.,XM.B.Q.oXX.} n s Z.uXfXfXgXfXwX<X8.3X7.3XjXZX5XZX3XqXwXwX",
"U [ k 6 j L P { w.R NX=X=X+.a s n.Z.S.A.A.A.[.E.E.^.E.E.A.x.l.#.GXJXZXJXJXDX=.k.=.l.v.A.%.V _.IXVX# d A.M.:./.Q.{ l.q M 0XeXdXgXfXhXiX1.3X8.6.3X4XdXMXgX8.qX3X6.",
"U [ j l t w | j R _.lXH.~. .f n.Z.G.S.G.G.E.[.[. X[.E.G.A.v.k.( LXVXZXJXJXJXLXl.=.z.L.B.=.m yXJX_.e f M.,.X.%.=.Q.} p iXi.iXfXjXfX4Xh.@ 4X6.8.4XqX3X5XqX3X3.+ 7 ",
"H | P g g w j g $.lX-X~.!.&.C.C.C.Z.Z.Z.G.[.R.{.[.E.E.E.v.v.k.n HXLXIXZXJXJXJX=.z.v.P.v.o.q JXIXvXw O P.M.f } &.A.M $.p dXdXhXgX0X5XdX1X1.6.8.6.8.3X4X4X8.7 + 7 ",
"P ..h j l w j %.-XlX~.lXH.F.F.Z.Z.v.v.Z.v.v.E.[.[.E.[.G.A.v.k.s VXLXJXZXzXLXGX~.z.K.A.$.M GXJXGXn 0 s b %.d ,.%.,.E.#.( ( 1X3X7.1X5X5XeX> 3.3.1.N 3X8.6.8.<     ",
"g h 4 C g g #.].].].T./.H.F.F.n.n.k.x.S.Z.G.E.S.A.A.E.G.x.k.( s vXlXJXGXJXJXvXGXyXK.v.M VXHXIXJXs p d # J.m M +.,.@.F.s m s 2X9X5X5X0X0X7.1.* 3.c x x 6.6.qX< x ",
"g 3 w l z +._.lX].n.`.F.F.C.R.].GXHXJX7XgXHXE.v.[.L.v.G.v.k.V N GXIXbXLXGXIXIX].LXGXyXvXGXIXLX%.o.V } 0 N.&.y M.B.B.R.N.q <XiXdX5XeXeX2X7.3.1.1.U.6.qX4XqX8.1.x ",
"o.6 g z B G.].nXW.C.F.~._.GXGXXXOXXX X X_.aXHXvXXXXX+XXXE.E.k.n zXyXLX_.DXGXs k.VXvXKXJXJXMXz.L.L.K.#.f S.l.@ o.B.D.B.^.s 6X0X9X6XwXeXqX3X<X3.: - I eX6.1.1.8.O ",
"n.6 l o.$.Z.yXlXn.F.~.IXvX;X+X+XoX^._.{.{.XX XGXuXMXBXBXaXsXXX[.c.n yXyXVXX.V s r k._.Q.aX%.[.{.{.P.A.X.( R.9 E M./.*.^.k.0 +.b.iX0X3X3.1X/ 3.d.2X6.hX4XwX1.< rX",
"~ I &.o.n.~.lXk.H./.IX'.oXoX|.E.R.{.{.{.R.{.[.R.vXiXpXBXpXVXpXMX_.E.v.vXm M X.#.#.V X.o.%.v.{.XX+X{. XA.s l.q y @.o.$.*.c.q m P.j.fX3.VXD p.Z.5.wXqXfXqXwX1X7.n ",
"0 e _ C.C.~.W.k.^.IX`././.S.G.E.E.^._.{.{.E.G.G.E.VXgXCXBXBXMXpXpXXX^.S.x.=.=.=.=.l.%.z.v.G.E.XXsXXX[.l.#.=.9 p } { } X.M = 0 %.!.>XNXnXnXF F.4XwXqXSXfXqX3.7.x "
};
