/* XPM */
static char *Screenshot_2025_05_20_at_18_43_00_1_png1747759420[] = {
/* columns rows colors chars-per-pixel */
"80 80 256 2 ",
"   c #130101",
".  c #1C0202",
"X  c #240302",
"o  c #2B0502",
"O  c #260C04",
"+  c #2C0B03",
"@  c #330B03",
"#  c #390A03",
"$  c #2B1405",
"%  c #3D1402",
"&  c #371805",
"*  c #361A12",
"=  c #3A2307",
"-  c #3B2413",
";  c #440A02",
":  c #520F07",
">  c #451604",
",  c #431B03",
"<  c #4B1C02",
"1  c #541C02",
"2  c #6D0D01",
"3  c #472607",
"4  c #4B2303",
"5  c #532403",
"6  c #542B03",
"7  c #5B2C03",
"8  c #592907",
"9  c #5A3309",
"0  c #462815",
"q  c #4E3214",
"w  c #593716",
"e  c #662A04",
"r  c #683808",
"t  c #773806",
"y  c #73330F",
"u  c #663B15",
"i  c #563B25",
"p  c #55392E",
"a  c #663D23",
"s  c #594F11",
"d  c #7A4409",
"f  c #6A4D15",
"g  c #674618",
"h  c #784718",
"j  c #626916",
"k  c #5B482A",
"l  c #684627",
"z  c #774A25",
"x  c #695627",
"c  c #785529",
"v  c #684A35",
"b  c #724C35",
"n  c #785538",
"m  c #6D6F2D",
"M  c #6C7837",
"N  c #727C36",
"B  c #775848",
"V  c #6E5F57",
"C  c #705850",
"Z  c #737B47",
"A  c #786851",
"S  c #9F2004",
"D  c #863B08",
"F  c #C4320A",
"G  c #874607",
"H  c #854918",
"J  c #935211",
"K  c #AD5613",
"L  c #94680D",
"P  c #AA6A11",
"I  c #884B26",
"U  c #895528",
"Y  c #995826",
"T  c #8D4D30",
"R  c #885638",
"E  c #965936",
"W  c #AA5A2C",
"Q  c #926B31",
"!  c #966538",
"~  c #A9672A",
"^  c #A86739",
"/  c #B66936",
"(  c #B47232",
")  c #D24C13",
"_  c #D65330",
"`  c #D06322",
"'  c #CA7332",
"]  c #8B5B4B",
"[  c #A95E40",
"{  c #876347",
"}  c #986847",
"|  c #886757",
" . c #996956",
".. c #947654",
"X. c #A96847",
"o. c #B46A48",
"O. c #A87449",
"+. c #B87648",
"@. c #A86A56",
"#. c #B66D54",
"$. c #A67758",
"%. c #B97758",
"&. c #906F68",
"*. c #9A7568",
"=. c #A56E64",
"-. c #A77866",
";. c #B87B66",
":. c #C87947",
">. c #D2744F",
",. c #C57A57",
"<. c #E5704F",
"1. c #EA605B",
"2. c #C47D65",
"3. c #D17B64",
"4. c #71831F",
"5. c #768829",
"6. c #768C31",
"7. c #778638",
"8. c #798947",
"9. c #7D924E",
"0. c #7C8B52",
"q. c #859538",
"w. c #8F903A",
"e. c #B09B27",
"r. c #AF9034",
"t. c #D0833D",
"y. c #8E904D",
"u. c #879849",
"i. c #879757",
"p. c #949D57",
"a. c #B08F53",
"s. c #95A74A",
"d. c #8FA553",
"f. c #97A658",
"g. c #ABAD57",
"h. c #848F60",
"j. c #8C9A65",
"k. c #959C68",
"l. c #989D73",
"z. c #B58E6E",
"x. c #97A568",
"c. c #95A868",
"v. c #9BA777",
"b. c #A6AA69",
"n. c #B1AE6E",
"m. c #A4AB73",
"M. c #A7AC79",
"N. c #A9B479",
"B. c #B5B87A",
"V. c #CE894F",
"C. c #C88557",
"Z. c #D59459",
"A. c #CA8767",
"S. c #D38A68",
"D. c #D69866",
"F. c #C88A75",
"G. c #D58D76",
"H. c #C99473",
"J. c #D79578",
"K. c #E88B6F",
"L. c #D0AA62",
"P. c #CFAA71",
"I. c #DAA577",
"U. c #B5C277",
"Y. c #C6C57E",
"T. c #AE7C83",
"R. c #9C9681",
"E. c #BA8E8F",
"W. c #A6AC83",
"Q. c #B3AF8E",
"!. c #ABB383",
"~. c #AAB785",
"^. c #ACB48B",
"/. c #B7B988",
"(. c #B8BB96",
"). c #BABCA3",
"_. c #CD968F",
"`. c #D89A86",
"'. c #E19F8B",
"]. c #DDA38C",
"[. c #DCA888",
"{. c #CDB38A",
"}. c #DCA795",
"|. c #C5BD97",
" X c #DCB498",
".X c #E3A58C",
"XX c #E7B389",
"oX c #E3A593",
"OX c #E2AA94",
"+X c #E5A79B",
"@X c #E4AC9B",
"#X c #E3B39A",
"$X c #CA9CA7",
"%X c #D9A9A7",
"&X c #D4ADAB",
"*X c #DAB4B9",
"=X c #E6ADA6",
"-X c #E5B2A3",
";X c #E5B4AD",
":X c #E9B5A8",
">X c #E5B5B2",
",X c #ECB7B1",
"<X c #E6BAB3",
"1X c #E8B9B8",
"2X c #EABCBC",
"3X c #BBC28A",
"4X c #BCC493",
"5X c #BBC398",
"6X c #BEC2A5",
"7X c #C5C68A",
"8X c #C4C494",
"9X c #C8C897",
"0X c #C3C49C",
"qX c #CFCD9A",
"wX c #CCCB9C",
"eX c #C5C6A7",
"rX c #CBCBA4",
"tX c #CDCBAB",
"yX c #D4CBA6",
"uX c #D1CCAC",
"iX c #CDD1AD",
"pX c #D4D2AA",
"aX c #CAC9B6",
"sX c #D2CDB3",
"dX c #D5CCBB",
"fX c #D5D2B4",
"gX c #D5D2BC",
"hX c #DAD7B8",
"jX c #D9D4BC",
"kX c #EEC5B7",
"lX c #E9C2BC",
"zX c #DBBCC5",
"xX c #E6BDC3",
"cX c #D6CCC4",
"vX c #DBD4C3",
"bX c #DDD9C4",
"nX c #D7D3CE",
"mX c #DAD6C8",
"MX c #DDD5CA",
"NX c #ECC3C4",
"BX c #EAC7CA",
"VX c #F2CAC9",
"CX c #E0D9C8",
"ZX c #E1DBCC",
"AX c #ECCCD4",
"SX c #F3CFD2",
"DX c #E3DBD3",
"FX c #E9D6D8",
"GX c #E5DCD9",
"HX c #F3D6D9",
"JX c #E4E0CA",
"KX c #E7E2D8",
"LX c #ECDAE3",
"PX c #F3DBE5",
"IX c #ECE3E4",
"UX c #F6E2ED",
/* pixels */
"n x c x x s s 3 s = s k x x f s s j 4.M 4.j M M Z Z M M N N N m z.{.%X%X}.%XxXBXUXPXPXAXzXzXl._.zXzX&X<XE.8.h.9.8.0.8.0.h.i.i.p.c.d.f.f.g.s.s.g.U.~.5X~.v.f.d.g.",
"m x f x f g s 9 9 s s f g s s s s M j 4.M 6.M M Z 8.Z M M m y.H.%X%X$X*XAXPXAXHXxXxX_.$X$XxXAXzXLXxXxXcXSXAX&Xz.h.i.i.h.j.i.i.d.d.d.d.s.s.s.s.c.N.~.~.~.N.v.f.s.",
"n x f x f s j s s f s g s s s s j M 7.8.4.M 6.8.8.V Z Z m z._.;.kXoX>XxXHXAXxX*X$XF.>X%XAXAXAXxXUXxX2XBXAXHXLXLX<XM.i.i.i.i.i.u.9.6.s.q.6.s.s.s.c.W.~.5X3X~.N.s.",
"M x x s g c N { Z x m j x s s s k 8.0.0.6.M M M Z Z 8.M z.;.%.=.VX%X%XAXUX$XxX>XxXPXxX$X$XzXzXzXLXxX*X2XAXLXzXAXLXNXz.i.h.8.9.7.6.5.5.6.6.6.6.9.j.v.3X3X3X/.B.N.",
"B c c l x m Z ..0.c.c.6.M s s j M Z 0.0.8.N Z Z M 8.} z.H.`._._.$X$X*X$XxX1XxXAXAXzX%X$X%XzXLXAXUXUXPXxXxXUXLXzXPXUXlX} N 7.7.7.5.5.5.4.4.5.5.q.d.m././.|./.0X0X",
"Z Z N c U y.g.x.^.3XU.d.6.M j k M 8.0.0.8.8.7.7.Z Z ;.H.z._.z._.'.$X_.T.xX1XxXUX$XAXzXxXxXzXnX$X$XzXUXxXxXLXUXUXBXPXBXJ.H.4.5.7.5.5.4.4.5.5.5.5.q.x.M.B.9XrX0X0X",
"k.l.l.Q.7XqX7XqX5X~.3XU.9.6.s s m M 9.9.9.8.7.N ..F.$.@.E } _.oXF.xX%X_.AX>XHXAXPXE.$XLXUXUXAXzXE.xXHXPXzXLXLXUXIXFXHX_.].y.N 7.4.4.4.5.4.q.q.q.q.b.b./.8XtX0XrX",
"M.|.tXdXpXhXhXpX5X6X5X~.9.4.s s j M 0.9.9.9.7.a.z.F.! z %.%.`._.HXxXPXxXxXSXxX*XAX%XzXLXAX$X$X .`._.F.xX*XxXE.$XPXUXHXHXAXH.w.6.q.q.q.q.4.q.u.q.w.f.b.m.N./.0XyX",
"5XgXnXJXJXJXJXbXgX6X5Xc.c.9.0.0.m m 8.0.i.9.Q V.;.T O.5 / '.`.oX1X`.xXAXHXPX=XPXxXzX$XAXE.$X-. .;.@.2.G._._._.}._.>XPXNX1X,XC.s.q.s.q.q.d.f.g.c.p.p.p.x.b.M./.wX",
"5XmXJXKXKXJXJXJXbX6X6X~.~.9.l.0.Z N 8.8.8.Q / +.D.z > I S.'.,.G.K.+XxXxXSXxX1X>XAX&X$XE._.T.-.-. .@.] @.%.G.2.;.}.F.xXxX%X$X-Xa.a.s.s.s.f.g.f.b.p.s.y.y.p.x./.8X",
"N.iXJXJXJXKXJXJXhXiX3X9.v.v.R.0.Z 7.7.N 8.( K Y t t :.J.,.J.#XXXI.,X,XSXVXVXSXPX&XT.E.;. . .|  . .@. .[ A.3.3.2.2.2.'.NX`._.1XH.n.b.b.b.b.b.b.g.w.w.q.q.u.u.f.(.",
"5X5X5XiXiXJXKXJXhXiXN.N.v.~.^.W.i.y.q.N a.~ K t t G ' J..X+X,XVXkXkXSXHXSX2XxX=X_.F.F.-.=.=.=.&.] #. .;.@.2.`.#.2.2.#.`.G.`.=X`.n.n.b.n.B.M.b.x.q.q.4.N 7.q.f.B.",
"5X6X~.~.wXbXJXJXiX5X~.~.~.~.~.~.v.9.7.q.J ' t t D / oX:X,XVXVXSXVXHXHXUXSXkXkXoX_.2.;.-.=.;. .=.| =.=.=.=.] ,.G.#.G.#.2.#.`.G.3.} n.n.m.n.N.b.x.q.m 4.6.9.i.d.m.",
"^.^.5X5XiXiXiXJXKXnXiX6X6X5X~.~.v.x.i.a.` D t y C.&X2XNXSXSXVXHXSXHXPXHXkXVXVX+X2.#.F.R | z.&.] | =.T =.T #.3.=.#.3.G.3.E o.G.G.G.n.m.M.M.M.m.p.q.5.5.7.9.d.i.u.",
"W.^.3X3X4XwXbXmXKXnXnXnX6X5X5X5X(.N.n.t.D t e ' &XNXNXSXVXSXVXVXSXHXHXHXVXNXNX+XG.o.%. .*.;.| &.| ] =.=.=.;.F.2.%.#.3.#.,.3.,.2.A.a.M.M.M.N.!.p.u.9.8.i.i.9.d.i.",
"M 9.c.U.3XiXiXnXKXKXnXaX6X5X~.5X^.~.a.' e G :.`.lXNXVXVXkX2XVXSXHXHXHXkXSXlXNX+X+X2.#.@.=. . .&.| &.=.=.| ;.@.E %.#.[ 2.#.o.G.2.S.#.b.W.W.!.!.x.j.i.i.i.j.j.i.9.",
"W.^.^.5XtXfXfXmXJXKXmXiX~.~.~.~.~.~.~ J G D _.lXlXNXBXNXlXlXxXVXVXVXVXSXxXxXxX;X,Xo.#.%. .} ] T.V &.=.=.C ;.=.#.#.2.2.3.z.T 3.#.3.%.a.!.W.Q.!.v.x.j.j.j.c.c.j.u.",
"Q.(.^.).gXMXmXaX5XwX5X3XN.c.U.~.~.~.~ G J V.;XlXxXlX2X2X1X2XlXNXVXxXNXxXxXxXxX,XS.:.%.z. . .] *.&.&.] =.&.B =.] ;.[ [ #.X.X.o.[ o.,.h W.W.W.!.N.l.x.c.c.c.d.9.9.",
"Q.).^.aXmXmXmX5X4XiXiX5X3X~.3X~.~.U.m e G A.dX2XlX2XkX<X<X<X1X2X2X2X2X2X2XxXxX,X'.A.2.;. .] R &.C &.&.=.T.-.] } %.T %.X.@.X.o.#.^ o.W M.!.!.Q.!.M.x.x.p.j.i.8.8.",
"l.l.W.).gXcXgX5XwX4X3X4X~.~.~.~.~.9.s t S./ <X2X1X<X<X<X<X<X<X<X>X,X,X,X2X2X2X>XoX,.,.@.-.R z C V &.] &.&. .@.;.R @.;.#.X.[ T o.T ,.,.a.!.W.!.^.!.v.p.i.9.9.8.0.",
"Q.W.h.j.(.eX(.~.5X5X5X4X~.~.5X^.N.9 r G }.lX;XlX<X<X<X<X<X;X;X<X;X;X;X>X1X1X1X>X`.,.#.T ] h h B C C &.B &.p -.R ] E X.a ^ ^ T E o.o.:.J M.!.N.!.M.x.i.9.9.8.0.0.",
"nXcX|.l.v.v.M.~.5X6XiX5XN.~.9.9.v.d r y D <X<X<XlX<X<X<X;X<X;X;X;X;X>X:X<X2X>X>X}.A.+.E O.U u k V C C a *.p n R I T F.;.^ X.X.o.C.o.^ P b.M.m.x.c.p.8.7.7.8.0.0.",
"cXdXeXk.x.v.M.^.5XaX6X5XN.c.W.~.N.).d r.}.<XlXlXlX;X<X;X:X;X;X>X>X;X;X>X<X>X>X;X}.2.C.z U y w v C &.p b ] v p a T o.] T I I R ;.o.^ +.K r.k.j.x.j.i.8.8.8.8.0.0.",
"cXaXQ.j.v.(.vXDXKXnXiX5X~.N.W.~.~.k.G a.<X*X<X*X<X;X;X;X;X;X<X;X>X:X>X>X,X>X>X;X+XG.+.I h u 6 w p *.v b v k w 9 ! T } T W e z X.o.o.^ ( ~ i.i.u.8.7.7.8.8.0.0.0.",
"l.h.h.v.^.mXKXIXKXDXgX3X~.~.~.~.(.y.t %.J.A.F.H.-X@X#X-X:X:X;X<X>X<X>X<X>X1X>X;X=X`.^ / U y 6 3 i A 0 u { 3 q & 7 U E T @.^ h X.R X.,.~ P i.h.i.9.6.6.9.9.9.9.9.",
"j.j.k.Q.eXJXKXIXIXKXaX~.~.~.^.^.W.m.h ;XOXA.X.Y O.F.].@X-X:X;X:X:X-X;X>X<X>X>X>X%X].2.Y :.d 6 $ $ B p 3 = = & @ 8 t h R #.e H } y T / W ~ b.m.x.c.c.c.c.s.s.9.9.",
"v.k.l./.iXJXKXIXKXbX3Xc.W.W.^.^.W.k.d #X>X-X`.3.+.~ :.J.@X-X-X-X-X@X-X@X=X=X;X>X=X=XF.+.V.t < & q v s $ = $ & > 9 y ^ y } y H T z 2.+.J K b.l.x.U.N.U.U.U.s.9.6.",
"aXQ.l.8XpXJXJXJXhX6XN.c.c.R.W.W.M.Q  X#XOX].[.`.S.C.C.G.OX#X@XOX].J.A.A.2.F._._.%X%X`.W e e e & $ = = = ..$ $ o u 5 y 5 } h e I T [ Y ( ( a.k.x.c.N.U.U.U.d.9.9.",
"FXFXGXnXZXJXbXhXhXiX).^.l.j.l.v.R.U -XK z.%.J `.J.G.J.J.[.#X@X].J.A.C./ J W Y } F.F.G.X.~ G < O $ = k $ * + X X % @ > h z ^ t > @.E Y / d r.c.9.d.c.U.3X5X5Xv.9.",
"LXIXUXIXIXJXbXhXaX6X).(.R.j.k.l.m.Q ].n K z.h e A.F.D.J.OX#XOXJ.S.S.C.C.>.A.G.`.3.,.#.Y W e 8 u $ g 3 O O o X O o > > 4 T X.e e T O./ / r a.c.9.9.N.U.4X5X5X5XiX",
"IXIXIXIXIXDXhXgXmXaX6X^.v.v.v.R.l.<X}.^ }.&X6 o t >.S.[.#X-X].J.G.A.A.J.H.[.+XoX'.].`.o.:.5 @ > O g 3 O p X X + o 5 J % u X.t r o.X.^ ~ P a.c.9.c.d.U.U.5X5XiXiX",
"DXLXIXLXKXDXbXvXcX6X(.W.Q.).(.Q.l.lXNX}.}.&Xd e e :.F.J.1X>XoXJ.J.A.G.A.A.F W `.+X'.'.J.D e u O 0 & & . X X X 0 X 1 r , % ^ D 5 I I I ~ ~ V.N.~.5X5XU.U.U.4X4XqX",
"cXcXMXnXcXaXfXaXcXmXnXnXcX6XaXaXU VXxX'.G.,.`._.E C.J.+XNXxX+XG.J.A.S./ D e t a.,.S.`.S.Y t > * o u , X O X o * o o r h > ^ G t C.I ^ Y ( V.(.6X6XaX6X~.d.N.4XiX",
"cXcXaX).^.5XeXaXMXDXKXGXnXcXcX6X,XVXNX,X'.>.>.3.`.J.oX1XAXxXoX'.`.H.S K $XV 8 0 ( W K S.Y K % # . 3 - o o o o o o @ 5 r u y t y I y ( o.( a.eXjXMXbXaX5Xj.!.0XgX",
"6XcX).^.~.N.3X5XbXMXGXnXcX6X6X6XVXNX,X,X=X=X+X=X+X+X1XAXAX;X}.}.}.`.W o.*XT.e 8 2 t I >.~ ~ < 3 X 3 @ o o o o X X o 4 > 9 S.t I H Y ^ ^ ~ H.fXbXJXbXgX6X~.(.aXvX",
"6X6XvXmXbXgX5X3XiXMXnXnX6X6X).6XNXlX:X=X=X+X+X-X=X>XAXxXAX=XoX%X;X}.>.3.`.`.T.e _.o.Y e J Y > @ X i + o o o o o X > > z R #.P E t Y H W ( Z.iXbXbXbXgX6X^.m.6XaX",
"nXnXGXGXDXDXgX3X~.~.~.W.R.~.^.6X,X,X-X+X+XoX+X@X=X,XAXAX2XoXoX=XxX=X%X1.>.3.3.S.3.>.o.>.Y U < + . 0 + o o o X X X l 9 E u T K E d J ^ / ( Z.0XdXgXfXtX6X3Xm.~.eX",
"6XnXnXGXKXZXgX5XN.j.j.v.v.W.W.(.:X#X+XoXoXoXoX@X;XAXAXBX=XoX].=X=X1X=X=X%X'.`.3.3.'.`.`.Y H e + i l 0 @ o X o o o , & r b h ~ I e t ^ H J a.(.0X5X6X0X3X~.c.~.5X",
"6XaXaXaXZXmXhX6X6XW.l.v.j.j.v. X:XoXoX.XoXoXoX@XxXVXVX1XoX`.`.+X>X=X,X,X,XxX1X,X>X=X=X}.E h Y * + 3 O @ o X X o o > q > & J G G ~ Y o.Y Y a./.(.5XiXbXvXtX~.!.0X",
"9.i.l.).aXhXbXKXKXcX~.9.j.j.v.&X+XoX.XoX.XoXoX@XAXxXBX=X'.J.J.oX=X>X,X,X,X,XxXxX,X=X=X+XI h r o 0 b X @ X o X o o o & > , 1 K H 7 U Y D G g.~./.fXMXDXvXfX^.N.8X",
"j.v.W.6XcXmXIXIXKXnX^.9.i.j.c. X@XOX.X.XoX'.oX;XNX,X;X'.G.J.G.`.=X=X=X,X,X,X,X,X,X,X+X+XT y 9 > @ B X o X @ X X X > $ < w e G G 5 H < J P P.~.5XgXMXDXnXaXp.p.!.",
"W.W.W.6XaXDXIXIXIXnXc.p.v.m.v.{.OX.X.X].`.'..X:X#XXX`.S.S.J.G.G.+X=X=X,X:X:X,X=X=X+X+X'.9 u 7 % q * o X . X X X X 3 = 3 u e ' t d H e ~ J B./.eXtXvXmX|.y.q.u.v.",
"^.W.W.W.6XJXKXKXGX6X~.rX9X9X4X{.OX.X}..X]..X[.OXI.K.V.' V.S.G.S.'.=X=X,X:X+X+X:X+X'.'.`.9 u 4 o 3 o * o . O X X O & 0 $ z e J D t H ~ G Q uXsXvXfX(.N.b.W.|.(.Q.",
"W.W.v.9.c.6XbXnXaX^.6XmXZXhXfXqX#X.X.X].[..X.X.XZ.<.J S ` Z.S.3.oX=X=X:X:X:X:X+X+X'.'.#.& 9 @ @ b + o . X . O X o w w & T t ~ e d h J ~ Q fXMXMXbXeXW.(.cXcXcXdX",
"x.i.i.0.j.3X5X6XW.(.cXmXJXJXbXbX#X}.XX[.OXOX#X].D.D.' K 2 >.>.>.+X:X:X:X-X+X+X+XoX'.G.r > r . O n + o . . * o . $ & l 0 z D J e d J d Q a.aXMXnXdXeXv.eXnXnXnXnX",
"i.y.8.7.8.c.N.^.~.^.aXvXbXhXCXZXyX X[.OXOX@X-X-X].' V.V.' K W +X:X=X:X@X:X:X+X+X'.'.G.8 < 4 o u . . O . & X O O 0 & q q X e 1 e 7 6 t ~ a.aXaXdXaXQ.W.6XaXnXnXaX",
"aXQ.i.q.5.p.x.N./.~./.aXjXjXbXMXP. XOXOX}.;X<X;X-XA.J.J.G.`.+XxX:X=X:X-X@X:XXX.X'.K.3.r + & & a X .   * $ $ $ & v $ 0 v X K e d , U J a.k.).6XeX5X5X(.6X6X).^.W.",
"MXdX5Xx.f.B.8X4XB.~.^.vXZXDXMXdX..-X#X[. X X<XlX>X`.}.}.+X%X=X>X;X:X#X:X@X+XoX.X'.3.Y < & 5 o l & .   O O n $ & - k l ] % t H d z U G z.a.|.eXtXuXgX6X(.^.N.c.d.",
"MXCXaX0X3XrXfXbXiX0XaXmXGXGXDXcXL  X}.OX[.#XI.<.<.K.<.=X=X=X>X=X=X-X#X#X@XOX.X.XJ.S.4 & 3 6 @ q o   X $ * V * k 0 k | { 3 e t 7 r d J P.g.|.rXfXfXhXyX4XN.f.s.q.",
"ZXZXjXtXrXbXJXZXvXMXMXKXIXGXDXcXw.a. X].D.' <.<.` ) _ _ K.=X=X=X@X@X@XOXOX].].J.G.o., @ ; 8 q w . O O i V V - V V v { 0 4 d 7 r f r Q p.n.eXdXjXhXqX7XN.g.b.c.s.",
"bXbXbXsXgXhXCXJXDXGXGXnXnXnXnXaXa.U  X[.J.:.<.S S F F ) ) ` `._.].}.OX}.].].`.J.S.t 5 % > 8 b = X $   i C $ C &.v 0 &.k e e 5 g 6 J ~ y.B.rXdXjXbX8Xn.g.b./.(.0X",
"hXCXZXZXbXbXhXbXDXGXGXnXnXcXaXaXg.d [.XXI.[.1.1.1.F S S 2 2 S ` Z.`.[.].].].J.G.%.= . o 9 6 w X $   i A V O C V A v C = d 3 6 h r ( P.n./.rXfXjXgXiXuX0XwXsXjXjX",
"pXbXDXDXJXbXiXpXnXnXnXcX6X6XaX6Xy.e r [.[.@XK.<.1.1.1.1.1.1._ F W `.OX}.]._.H.S.H % @ e 5 w w $ - $ C p C k &.&.| | l 9 H , h 4 t J ..y.(.tXpXfXvXMXMXvXgXjXCXCX",
"iXbXDXKXIXJXrX4X6XcX6X).6X6X6X^.r.9 , [.[.XXXXt.) _ _ _ _ ) >.3.`.'.}.}.].`.A.U & , < X 8 l & O i q V k = C | p | n - q r 6 6 6 ~ Q 9XyXyXpXyXfXbXDXDXZXbXsXCXCX",
"qXrXJXKXKXMXgXeX6X).^.^.^.^.(.b.L 4 , e XX XI.I.K.Z._ <.>.V.V.J.].].[.I.G.A.%.7 @ > 1 7 q s $ $ - k V - p V &.p | z.z t 3 3 & h E P.y.qXyXpXwXfXCXGXFXMXjXjXjXfX",
"9XiXMXKXGXDXbXfX6X^.W.v.W.W.M.g.f % < 5 XX XOXP.Z.t.t.t.:.>.K.J.J.`.J.J.Z.C.e o o e ;   n q & - $ k i - A C V i v l 5 z < 6 6 Y O.P.qX7X9X9X8XrXbXZXDXnXdXsXhXpX",
"rXbXbXZXJXbXJXpX4XB.v.N.~.m.v.r.4 1 > 1 Y #X#X-X[.J.S.Z.S.`.`.[.[.J.J.C.:.H < + e ;   w n , = * k C O | C 0 q { B R u u # 9 r X.U U.w.Y.Y.7X8X|.sXAXZXMXsXhXCXCX",
"JXmXDXhX5XiXpXpXU.b.v.3X3X~.v.Q % > # t t  X#X<X-X}..XOX@X X}.].I.A.C.' ' 8 @ > # # X n 3 q = v v * p C C | B  ...9 U 5 4 & r a.^ w.g.g.U.Y.0XdXmXnXnXmXuXuXjXCX",
"bXbXbX3XU.3XY.Y.U.g.3X0X0X/.b.U # > 5 < ^ (  X#X-X#X#X@X@X}.].[.`.A.C.~ 7 , % : ; o 9 z 9 O - 0 v 0 &.B B B R b z 6 4 8 6 9 Y O.n.{.n.(./.9XjXCXZXDXMXjXrXwXhXvX",
"bXjXhXU.3XqX7XU.U.U.~.0XrX8Xa.6 # 1 < 1 cX3 XX[.XXOXOXOX.X[.`.P.A.C.~ G e > : # e 4 & l 6 O v k $ A A &.] *.w  .{ 7 9 4 g u U {.z.z.vX|.8XsXCXDXDXMXjXuX8X|.0XtX",
"rXwXqXqXqXqXqXqXB.B./.(.8X{.d 4 ; 8 7 }.z.' y I.I.I.I.D.K.Z.V.t.' P K e e G @ y ; 8 n 6 & 0 p v v b | |  .z -.l R 4 r 3 9 H A.a.uXuXtX|.eXeXjXJXbXhXhXqX7X7XyXvX",
"rXiXpXpXiXwXqXU.n.b.m./.B.a.d 5 < 1 e +.}.H.1 D Z.D.Z.t.t.' ` ` ) P J G K 7 K D ; 4 ! = q A * 3 & B *. .n g c & g h + q r ! a.p._.vXeXeXwX8XwXpXpXpXpX7Xg./.fXDX",
"JXhXpXrX4X9X7XU.g.c.v.N.g.P e 5 < 5 < e & a.e 1 1 K Z.t.t.t.Z.t.t.t.J D ~ e ` 1 & z 3 0 & A l 3 q k n ..r { 3 w r + 9 w z a.! {.Q.rX0X0X8X7X7X7X7XqXY.g.s.g.jXDX",
"IXKXhX4XN./.B.N.n././.P.( ~ e > > e > : ; # # : < 7 t kXyXD.XXV.Z.t.~ V.K P 1 1 h h 9 u w g & X } z  .u q ! ! h w 3 & h ! a.O./.|.0X0X8XB.3X7X7X7XY.B.Y.{.yXyXhX",
"IXIXMXeX!./.0XvXvXtX|.P.L J t # h e : ; ; # # > ; e 7 [.kX[.XX XZ.V.K 7 Z.K t d U g , + n < X z R ! } , R 3 g 6 $ z r u ! w.r.w.M.{.B.b.g.n./.U.B.B.Q.|.tXgXhXsX",
"GXIXGXdX!.(.MXFXZXdX&X( ` r.D < e e 1 # : # o # > 4 7 :XXXI.I.D.a.C.V.t., P 6 7 d & o 9 0 & r w w a.I a.R O.r $ & 6 U U a.Q 9X/.Q.!.M.f.g.g.n.N.B.!.|.uXjXvXhXCX",
"GXGXDXvX(.eXCXFXMXgX|.K yXJ D o 5 e ; # o ; o > ; > 1 XXkX#XZ.D.I. Xh V.V.G d r w > < & 9 e & l n & w I c u 0 ! 5 6 +.{.8XwXvXyXyX|.m.s.w.g.n.N.n.N./.sXjXvXvXDX",
"tXvXvXtXb./.vXDXnXaXZ.P.uXG e # 1 e 1 > o o ; # # 1 1 -XyXkXI.P.XXI.( C.Y d U 4 X o 9 7 r , R } e } E a., g U w r g a.z.z.7X|.CXjXdX(.y.s.n./.7XB.N./.9XtXtXdXGX",
"7XqXqXU.g.|.jXvXfX|.J P.{.G e > > 1 e > o o @ o @ 5 e D.D.D.Z.Z.I.r.C.8 ~ Y d > X 0 6 9 9 } R  .u z U u U h 6 4 d g P.a.Q.CXBXZXCXjX(.B./.(.|./.m.m.M.(.eX9XsXFX",
"7XwX7X7XrXjXvXCXhX~ P a.P.G e 5 t e 8 # o o 8 > % < e L.D.L.D.I.V.D.Z.:.U ! 5 o X < 7 & 3 { ..l z z 8 g g f r r z U |.qX XMXDXZXMXuX|.|.8X0X|.M.x.k.p.m.(.(.sXCX",
"qXqXyXpXjXCXDXCXdXP r.n.C.G e > e e 8 @ % @ + & + < 7 D.L.I.L.I.D.D.a.! Q G % o & 4 u u { { { E E U 6 7 H 9 h O.a.g.B.B.uXjXjXjXuX|.|.0XrXrX(.M.k.p.u.s.B./.yXCX",
"qXpXyXsXCXZXDXCXyXP jXa.r.G e 4 1 1 8 o 0 a g 6 @ 5 e D.D.I.I.I.I..XE ! 6 % o & 8 3 l ] n -...} 8 u 9 r u h {.y.{.P.P.a.8X9X|.8X|.wXwXyXtXeX|.B.x.x.f.N.{.0XrXfX",
"yXfXhXhXCXCXCXhXP.Y.qXL.P G t e e 5 + o % i l s 6 4 8 I.Z.L.I.I.I.O.O.d 7 @ X u u w z.i b R } } 3 8 z r d  XQ a.L.B.7X3X/.B.{.7X8XqXyXuXfXiXtX0X/.N.3XwXhXvXCXhX",
"pXjXCXbXhXhXhXhXL qXqXe.P G e 7 d 4 % @ 4 q g 9 6 4 5 I.Z.D.I.I.X.O.U 6 6 O 6 & n w -.b b ..@.5 4 c h ~ h &X{.g.e.pXyX9X3X{.U.7XqXpXfXhXjXiXfXtX4X8XiXjXCXDXCXCX",
"jXCXCXhXfXqXyXqXt.Y.7Xg.P L 1 < 5 7 % 3 z w l z 9 r ( I.Z.Z.+.a.! f 7 4 3 & z l B l z.A R  .c f h c Y d H.+.,.7XqXjXCXCXsX7X7XyXfXhXhXfXhXhXuXrX4XrXpXjXZXDXCXZX",
"pXhXvXpXqX7XqX9Xe.JXe.e.P G 5 7 r 3 q 0 ..k 0 g 9 z.a.I.Z.D.I.U 9 3 d 3 6 g = { a n $.n $. .7 w U Y ~ H %.z.lXL.yXCXCXCXfX9XqXsXhXhXfXyXrX0X8X3X8XtXhXjXdXsXhXjX",
"pXpXqXqX9X9X9X7Xe.Y.e.e.P d r 7 6 w 9 q n l v { 9 *X}.D.A.#XY r 6 e 9 r ! w { a u z. .n -.z 8 h U Y Y :.}.%X#X#XyXlXCXjXyX9X7XqXyXrX7X/.7X0XrXwXrXfXfXsXsXuXuXpX",
"hXpXyXqXwXqXwX9XL.qXe.L.L d & d w g k { l w R R ^ H.*X-X}.O.7 7 r f g & 3 0 n { z ] z.n u c r X.O.C.z.A.z.`.%X-X[.yXyXyX7X{./.!.b.f.s.q.n.0XuXfXuXpXfXfXuXtXsXyX",
"DXhXhXhXCXCXpXwXL.qXe.g.G t 5 Q 3 l w | l g { z.a.[.D.I.J.r 7 7 9 q w g c -.l l $.{ z.i $.u O.A.A.H.J.J.'.+X:X-XHXyXqX9X/.{./.B.b.f.w.q.s.(.sXdXjXjXpXyXjXCXDXZX",
"ZXhXhXZXGXKXDXsXe.qXqXe.L r 6 l c v a.A z l g +.`.&X`.a.d 9 6 h } q } R $.-.] b { } -.} u X.`.%X}.}.}.+X.XkXHXkX:XGXXX7X9XqXtXtX0X!.b.b.N./.0XuXsXtX9X7XpXZXGXGX"
};
