/* XPM */
static char *Screenshot_2025_05_20_at_18_30_20_1_png1747758779[] = {
/* columns rows colors chars-per-pixel */
"80 80 256 2 ",
"   c #1B1501",
".  c #351101",
"X  c #342B02",
"o  c #530801",
"O  c #690501",
"+  c #790603",
"@  c #7A1202",
"#  c #513202",
"$  c #6D3107",
"%  c #783907",
"&  c #762433",
"*  c #3C460B",
"=  c #524E05",
"-  c #6D4C0A",
";  c #784608",
":  c #7A4A18",
">  c #7B581B",
",  c #5B6605",
"<  c #696B0F",
"1  c #775526",
"2  c #75692E",
"3  c #7B744A",
"4  c #840503",
"5  c #8C0503",
"6  c #8A0903",
"7  c #940603",
"8  c #9C0602",
"9  c #940903",
"0  c #9B0902",
"q  c #901502",
"w  c #A40501",
"e  c #AB0601",
"r  c #A40903",
"t  c #AC0902",
"y  c #B50602",
"u  c #BB0603",
"i  c #B30903",
"p  c #BC0904",
"a  c #B80C08",
"s  c #B61704",
"d  c #893409",
"f  c #9A3906",
"g  c #B52C0A",
"h  c #A83804",
"j  c #B93804",
"k  c #8E3A2F",
"l  c #C30A05",
"z  c #C70805",
"x  c #CB0A05",
"c  c #D30505",
"v  c #D80905",
"b  c #C81705",
"n  c #D81706",
"m  c #E20C04",
"M  c #F10200",
"N  c #E61905",
"B  c #C92A03",
"V  c #D72803",
"C  c #C93803",
"Z  c #D83605",
"A  c #D33D16",
"S  c #E92906",
"D  c #EF2F0D",
"F  c #E83606",
"G  c #F43806",
"H  c #D33326",
"J  c #884508",
"K  c #984805",
"L  c #905313",
"P  c #A74807",
"I  c #B74707",
"U  c #B85807",
"Y  c #B74715",
"T  c #AC5513",
"R  c #8D6A0F",
"E  c #AF6717",
"W  c #865827",
"Q  c #8F5431",
"!  c #AC552A",
"~  c #86632A",
"^  c #956527",
"/  c #8E762B",
"(  c #8A6735",
")  c #976938",
"_  c #997839",
"`  c #B86A26",
"'  c #AC702F",
"]  c #A76835",
"[  c #B76837",
"{  c #B9763A",
"}  c #C84807",
"|  c #D74706",
" . c #D95508",
".. c #CA4F11",
"X. c #D75817",
"o. c #E94705",
"O. c #F54606",
"+. c #E75706",
"@. c #F35510",
"#. c #CF6813",
"$. c #EE6D09",
"%. c #CF5330",
"&. c #EA5632",
"*. c #D06C2E",
"=. c #C8752B",
"-. c #C77A37",
";. c #D97938",
":. c #EC6D2E",
">. c #953A55",
",. c #9C5149",
"<. c #AA514A",
"1. c #8E714D",
"2. c #987747",
"3. c #A87749",
"4. c #B87947",
"5. c #B07150",
"6. c #AE5467",
"7. c #927D65",
"8. c #B07567",
"9. c #D25644",
"0. c #E6564B",
"q. c #D96849",
"w. c #C87646",
"e. c #CE704D",
"r. c #D77758",
"t. c #EB6E50",
"y. c #CC7269",
"u. c #E86966",
"i. c #EC7870",
"p. c #788633",
"a. c #7C8752",
"s. c #948C0E",
"d. c #949131",
"f. c #AC9532",
"g. c #D79009",
"h. c #EA8918",
"j. c #CE8439",
"k. c #8D8A51",
"l. c #998757",
"z. c #A78457",
"x. c #AF8E50",
"c. c #BA8758",
"v. c #A3A659",
"b. c #928F6F",
"n. c #97996A",
"m. c #A98967",
"M. c #B78B65",
"N. c #B89769",
"B. c #AA9271",
"V. c #B99876",
"C. c #93A26A",
"Z. c #9AA777",
"A. c #A8A879",
"S. c #B0AB72",
"D. c #B7A67A",
"F. c #C88547",
"G. c #CC8C4C",
"H. c #D78849",
"J. c #D19549",
"K. c #C88957",
"L. c #D58B56",
"P. c #CC9358",
"I. c #D6955C",
"U. c #E98D52",
"Y. c #D2A05E",
"T. c #C88C65",
"R. c #D4896D",
"E. c #CC9463",
"W. c #CB9669",
"Q. c #D69666",
"!. c #D39A64",
"~. c #D39C6B",
"^. c #DB9B6B",
"/. c #CB9974",
"(. c #D29D74",
"). c #D89974",
"_. c #EB926F",
"`. c #D9A26D",
"'. c #C9A874",
"]. c #D6A274",
"[. c #DBA474",
"{. c #D7A57C",
"}. c #DCA97D",
"|. c #EBA371",
" X c #E3A579",
".X c #D26F81",
"XX c #ED7885",
"oX c #959686",
"OX c #AB968A",
"+X c #98A889",
"@X c #A6A989",
"#X c #B5A988",
"$X c #AAB688",
"%X c #B8B587",
"&X c #A9AB97",
"*X c #B8AA93",
"=X c #ABB797",
"-X c #B6B996",
";X c #B6BAA6",
":X c #B3B5A9",
">X c #D09989",
",X c #ED908C",
"<X c #D7A685",
"1X c #DCAB84",
"2X c #DBAC8B",
"3X c #D9AB95",
"4X c #CAB090",
"5X c #DBB399",
"6X c #E3AD84",
"7X c #E7AC88",
"8X c #E3B28B",
"9X c #E6B28A",
"0X c #ECA895",
"qX c #E5B696",
"wX c #CD98B5",
"eX c #EE9BA4",
"rX c #C9B7A6",
"tX c #D7B7A8",
"yX c #CDAEB0",
"uX c #D6BAB8",
"iX c #ECABAE",
"pX c #EAB9A4",
"aX c #BBC29A",
"sX c #BAC3A9",
"dX c #BCC5B2",
"fX c #D1C597",
"gX c #C5C6A9",
"hX c #C8C9B7",
"jX c #D9C5BB",
"kX c #CCD1BB",
"lX c #D6D1B3",
"zX c #EBC4AF",
"xX c #BCAFCD",
"cX c #CAB7CE",
"vX c #D6BDC4",
"bX c #EDB5C6",
"nX c #CAC8C8",
"mX c #DBC4CB",
"MX c #DAC8C8",
"NX c #CDD2C6",
"BX c #D5D6C8",
"VX c #D5D6CB",
"CX c #D8C6D3",
"ZX c #DDCAD4",
"AX c #DBDAD5",
"SX c #E4C9CA",
"DX c #E8D6CA",
"FX c #E3CDD3",
"GX c #E6CED7",
"HX c #E5D4D8",
"JX c #E6E3DA",
"KX c #DDD2E3",
"LX c #E6D8E3",
"PX c #E8DDF1",
"IX c #EAE4E7",
"UX c #F2E8EF",
/* pixels */
"k.Z.=XsX=X+XZ.$XaXgXNXBXBXkXBXv.2.~ ~ > / M.z.( ) z.m.uX3XV.8.MXCX) ) } L Q A W % f 9.,.$ 1 ,.Q Q 7.b.Z.xXAXAXnXxX1.*X*X*XnXx.( R.1.B.6.6.7.1.a.:XOXOXM.B.m.'.x.",
"a.C.=XdXdXaXaXaXkXkXBXAXBXBXlXaX2 > > ~ ) _ ( ) _ 3.HXHXFXM.*XLXHXPX2.^ ( ....f <.Y k 1 cX8.Q W Q b.:Xb.:X:X&X+X&Xb.oX:X;X5XM.1 8.8.y.OXQ k b.7.3XyX8.5.1.,.5.r.",
"a.C.=XdXdXsXgXkXkXBXBXBXAXkXdXsXz.2.~ ~ ( ( > ( V.4XHXLXLXPXGXGXGXHXPX....s b t s V %.GXGXGXGXQ KX1 1.b.oX3 3 7.oXoX&XOXK.9.8.5.! %.e.) 8.V.l.8.: T.,X-X8.m.y.5.",
"Z.Z.$XaXsXdXkXBXBXAXAXNXNXgXaXaXz.D.> ( 2.~ _ 4XyXZXGXGXGXLXGXeXeX,XA s e 0 r 9 7 t b C ..iXLXLXLX,.1.b.7.oXoXoXoX&XxXOX_.&Xw.H %.<.] 1.1.> Z.u.q.t.R.^ m.e.&.0.",
"$XaXaXZ.aXsXsXkXAXnXAXNXdX=X+X$X2.m.> > ) z.N.>XMXFXHXGXHXGX0X,Xg r 7 + 5 5 t i + 9 t b G u.iXbXSX#X1.,.1.3 3 3 7.OXb.8.y.<.) | 5.%.8.&X).6.1.8.:X-X@XsX:X*X*X3.",
"$XaXaX$XaXaXaXaXdXdXdXdXsXaXaX=X2.( ( > ~ z./.4XMXFXGXGXSXiX} r w 4 5 4 4 9 7 r 4 4 4 c m _.O.D B KXR.1.1 2 >.8.7.8.8.y.[ ! r.( 1.Q 1.OXy.W 8.b.b.=XOXB.:XNX;XhX",
"aXaX$XZ.$XA.Z.C.+X+X+XdX=XsXsXsX2 ~ > > ( x.N.mXZXFXSXuX;.0 9 r 7 e t t r t y y 0 + t x m G O._.D S F U.7.1.- 7.7.1.,.7.] 5.3.1.2.3.3.OXq.%.r.t.B.c.5./.).*X&X:X",
"aXsXsXaXA.Z.C.C.Z.+X=X=XsX:XdXsX2.M.2 > ~ ~ V.MXMXtX>X| s 9 0 0 7 4 5 i w w w a a x t x M m m D D b p S &.3 2 * 7.OXOXoXOX8.1.b.7.b.3.B.9.9.M.T.:Xm.5.t.V.3.l.8.",
"aXkXkXdXaXZ.C.a.C.Z.$X=XsXdXdXsX2.B.2.> ^ _ 3.MXjXtX%.5 r w z t y t y 8 i 0 w l v @.i.c v M m G S c v V B :.oX+X5.7.OX&X>X5.b.oXoXoX+X+XoXy.r.e.Z.OXr.>X4X2.&XBX",
"kXBXBXNXsXaXC.a.Z.=XaXsXdXdXsXsXZ.W W > ( ZXGXuXSX} C 0 a 4 4 7 y l u u 9 7 i a l F ,X@.c v m c N z l n S X.$XB.y.%.4.1.1.7.7.oXb.b.oXoXB.r.M.W ! 3.q.W.t.m.V.>X",
"kXBXBXBXNXdXaXaXaXdXsXdXkXdXdXdXZ.2.~ > ~ FXHXMXX.0 r y y i 7 z l x l l e 0 w x z D U.:.O.a x n G D u y B G ;X;X&XV.m.%.W 2 7.5.oXb.m.y.OXi.e.1.3.b.3.L - : ( z.",
"kXBXAXJXBXkXVXNXNXNXkXdXdXdXdXdX+Xm.z.~ ~ FXmXMX*.0 5 r t p a r m i y z w t D n r b N _.:.i n x N m z x n O.4X;Xz.Y [ m.b.oX1.1.1.&X&X:XOX8.1 -.e.7.S.X $ J J 3.",
"gXkXBXAXNXVXJXAXVXBXNXdXsX=XdXdX&X2.2.~ 1 2.ZXtXg 5 w w e u n x p x x p l n n B B B  .X.X.B @.F v S D N N G O.W.8.h X.^ 1.b.= ) a.] z.2.9.1 Q $ r.<.L 1 L T ,X<.",
"aXaXkXBXBXAXAXAXAXBXNXsX=X=XsXdX;Xz._ W > ^ uX} g 4 7 8 l a 0 z x l l v v b B | ..X.$.t.*.+.+.@.V 0 G m D N G @.-XdXdX&Xm.M.&.&.- ; K.B.! f ! <.<.! 8.i.0.f %.>X",
"+X=XsXkXBXAXAXAXJXAXNXaX=X#XdXdX;X7.m.V.~ ` X.6 0 7 w u z l n x l v c x v F  .*.j.H.H.L.U.U.U.:.+.V N N N S n :.H.NXNXnXjXu.t.*.V.` Z b.k.$ W Q 6.<.Q ! $ %.0.( ",
"Z.$X=XdXkXNXAXAXAXNXgX&X;X:XdXNX:X~ B.#X^ W 5 9 w w t u e z x N x x S F | #.j.H.I.U.L._. X|._._.U.X.F S S S S S t.hXkXt.R.O.%.- 2 = X     # Q y.J 8.d d ! g A # ",
"a.$X=X-XhXhXNXBXdXsXaXdX&XnXnXhX;XT.1.M.~ : 5 w 8 7 0 l x z n c x Z V V +.j.H.I.Q.^.|. X7X|.7X|._.U.+.F D G S V F %.) f e.I X # ! %.$   X R.Q $ 8..Xk L Q %.! # ",
"a.Z.3.*X$XgXdXgXdX:X-XdX@X:XV.4XrXq.8.3.) E 5 4 8 5 r v t n l x n n +.o.:.U.I.^.^.^.[.|.7X0X7X0X|._.U.O.O.G D F z %...>X/.2 = X # P X # d 5.V.: 8.<.,.d $ %.# # ",
"/ 2 Z.n.l.4.D.*X=X+X+X=XdX=XV.l.#XY w.4.X.L s 4 8 9 8 l l u p p V F U.@.`.|.|.[. X X X9X7X9X9X9X7X7X_.@.O.O.G D V %.5.*.E ` = = # % K Q # 4.>X3X,.Q 1 1 $ P : # ",
"2 k.n.A.A.] 3.n.a.+X+XaXsXoX@XB.:Xq.%.] &.X.g 8 7 8 u y e l l V F j.o.|.^.[.}.}.}. X X|.7X7X9XqX0X9X7X:.@.G G p S &.j k 2.1.X X % I R.M.y.0XeX5.: 7.,.Q W ! J - ",
"1 a.) A.] ! 2.I @X=X$XZ.sXsX+XsXNX2.P X.0.| e 7 0 t e e w i s | :.!.:.I.}.6X8X8X8X6X6X6X9X9X6X9X9X9X9X7X@.:.O.O.F u.$ # ~ S./.J ] K.iX'.V.W.R.y.5.7.1.% l.b.Q 8.",
"3 k.1.l.^ z.] T l.gXNXNXsXNXsXhXnX-X8.! &.| y 8 5 0 w 8 w i $.X.I.o.U.|.}.6X6X8X8X8X6X6X6X6X6X9X9X7X0X|.@.:.O.G V B . S.) <X'.4X[ K.'.<XT.#Xy.$ $ : 2 8.m.7.: ] ",
"a.b.Z.L [ ..P z.l.sXkXkXBXBXNXNXdXrXT w.%.&.w 7 9 5 r p V  .+.$.U.+.^. X2X6X8X2X8X6X6X6X6X6X6X6X7X9X0X7XU.@.@.O.Z %.W z.: ! 2.L.{ &...5.m.B.A.~ 2.1 1 : Q & 1 @X",
"k.m.$XB.3.z.T [ h S.aXBXAXAXVXkXkXN.P %.&.} 7 0 9 9 i a C +.U.|.:.U.[.1X6X2X6X6X2X8X6X8X6X8X6X8X|.9X7X7X|.&.O.O.Z ..L 1 : W 1.f.P.Y T ] 1 gXi.Q y.<.<.6.5.6.6..X",
"$XaXC.D.z.' [ ' T ^ _ kXAXJXVXVX4.>XP Y 0.C B i 9 9 0 s C H.U.X.#.^.<X<X<X[.`.].Q.6X6X8X8X8X8X XY.=.#.j.:.@.:.G Z j ) K $ e.% f ^ ` [ *.-X2XeX9.d ,.>.1.V.M.<.>.",
"dXdX-XsX;X#X! K ) n.n.lXVXJXIXAXhX'.! | I U.0 4 + 9 w } +.+.;.j.I.j.#.#.*.U #.` =.j.^.5XqX8X8X`.=.j.;.*.j.O.:.O.F } #.Y ! $ 2.d./ x.W BXE.c.L <.% J L '.SXtXL.>.",
"hX4XgXhXkXz.Y P 3 1.-XhXAXIXIXIX/.*.I C T F #.h.7 4 0 } ;.j.^.H.[.6X8X1X X`.`.P.!.~.[.8XqXqX8X[.`.I.I.^.|.|.U.D :.L.q.U `.m.K.' k.^ l.F.%.9.*.g ( 2.4XfXSXDXrX& ",
"S.rXhXT.n.D.@Xl.k.n.gX*XhXfXgXjX).*.h d j a U.#.Z 8 r C +.H.^.[.}.}.[.^.I.G.K.P.!.`.}.6XqXqX5X`.P.H.H.j.H.|.@.@.o.@.X.' $XS.D.l.A.fXgX_ H.,XiX,X3XN.8XlXlXHXrXy.",
"4XlX-X%XBXsXsXB.) 3.B.4XsXBXAXc.w.4X' C B s $.s B  .j } P.`.`.`.^.Q.P.F.. d $ $ J.`. X1XqXqX8X!.G.. o m.. ..o.@.F U.*.[ #XN.S.-XA.: ; L eXeXiXiXiXeX).fXfXlX<Xd ",
"gXVXVXkXNXNXaXZ.Z.l.-X*X;XBXJXVX! X.} C b t P U.:.h. .U L.`.^.^.Q.G.; o . 3X. rXo F.`.1X5XqX[.J.z.; - uXqX=.I.|.+.o.I.-.) _ R k.: W d r.i.eX,XbXiXeXt.[.jXMX5.Y ",
"BXAXAXNXkXhX=X+X=X;X4.gX4XgXJXJX(.` | B b 7 U `...h.#.} I.^.Q.I.I.w.I $ - . rXT.d F.].1X8XqX}.G.O ^ D.K...;. XqX$.+.h.^ L d Q ~ W d 6 ,X,XbX,XeXbXiXeXiX3Xm.OXQ ",
"x.AXVXAXD.BXl.N.m.[ R.{ kXhXAXJXJX*.X.Z p 8 =.U.#.j.=.} P.I.Q.^.I.^.-.=.=.#.=.#.-.P.].{.8XpX}.Q.H.;.*.;.H.I.0XpX$.$.:.X.f H H $ % k f ,Xi.,XbXeXeXeXeXeXXX2 5.2.",
"%XhXgXAXAXgXm.} j I T 2.%XD.x.P.-.BX| Z l s =.j.#.`.j.U L.I.I.^._.^.Q.L.L.I.L.L.^.^.~.).6X8X6X).^.Q.Q.|. X X0XpX@.$.$.J.P H q o k q d f eXr.eXGXiX,XXXXX0.& :X@X",
"K x.x.%XgX%XC X.T j *.^ sXhX4.I -.W.;.n z p U.|.I.h J.K G.I.Q.^.^.^.^.^._.^.[.^.).^.^.~.).8X<X6X|. X^. X7X7X0XpXo.g.$.I $ $ %.; $ o k @ ).bXeXXXeXXX0.0.XX>.& B.",
"K d J L %XgX4X=.x.{ J 2.] &X-X-.*XAX=.p l y 7 j.J.U...E G.I.!.^.|.[.[.^.|.^. X X).[.).I.).7X7X8X X X X X|.9XpXqXx g.+.C h C I Z J $ $ d ! iXiXbXbXeX0.0.XX9.y.<.",
"R / R L l.4XS.D._ 4XE ] 2.D.K.x.rXT | b v y 8 *.I.J.J.j.{ L.^.`.[.|. X|. X X X X}.<XQ.K.Q.6X7X2X X X6X X7X9XpXb p g.g S | Z K &.$ g 9.u.9.% ] f ,XGXGXXX.Xu.%.: ",
"n.` W d._ d.J _ / S.x.4X%.%.` fX*.F.Z p z y 0 8 I.I.I.=.{ G.`.[.[. X X X X X6X X}.W.K.L.^.[.8X}. X}.9X9X9XqXzXu y n j } h d f f Y u.XXi.u.9.% >XbXFXGXGXXXu.e.$ ",
"k.rXl.A.kXlXc.gX%X' R aXS.%Xx.BX` ` V b x y 7 w Y '.K #.{ G.!.[.<X6X6X6X6X6X6X1X[.F.I.Q.).6XqX6X}.9X9XqXqXzXpXb V n J P B g d ..XXi.XXXXu.u.Y uXFXHXDXHXeXu.b.% ",
"k.-XgXkXBX%Xx.S.%XE R { D.A.f.NX4X..| z u e 8 w t 2XP.O { G.~.]. X8X8X9X6X6X6X6X[.G.!.T I.`.8X6X}.8XqXqXpXzXDXp o.c #.% g q 9.0.XXXXi.9.u.u.r.SXjXDXHXDXHXeXl.7.",
"C.k.$XA.gXd.x.x.P.h K.J _ A.l.j.lX#.b n l p 7 7 i IXFXO P F.P.].<X2X8X6XqX8X8X1X}.~.P.I.!.`.!.).}.9XqXpXzXzXs p x v S % d C u.u.XX,Xj g u.H L.jXpXFXGXjXDXSX>X3 ",
"d.gXS.aXT rXd.L c.BXlX4Xx./ R B.F. .V l z c y w u g :.4 I j.P.].{.2X8X8X8XfX6X6X[.`.`.!.`.`.].6XfXqXqXpXpX).w e x x i.X.f.:.q.i.0.t.6 %.XX%.T.tXzXSXSXmXuXSX8.% ",
"gXfXv.S.%Xd./ ^ d.D.D.AX/ v.^ K N.1XV v y c l l l 4 4 O O ` F.~.{.1X3X8X5X8X8X}.}.}.W.!.!.!.<X2X9XqXqXpXzX5 w e x v D :.5Xt.t.u.u.0.f 0.u.u.e.yXuX5XuX1XjXbX7.% ",
"kXgXv.P.%Xx.4Xx.kXaXHXNXrX*X^ T | F u c l v z c x 8 5 O o U F.!.].}.6X2X8X8X8X8X}.~.P. . .X.*.1XqXqXpXzXpX4 5 w x v D :.U.q.0.u.&.B j 0.u.&.( 4Xk.N.>XrX3X>X: $ ",
"^ R S.BXv.S.aXgXgX-XBXBXhXgX%XU B C u c x u v z l 8 4 + O #.` J.~.{.1X2X8X1X1X1X!.#.j j j C C X.`.qXqXzXe 6 4 w x c N F :.r.t.0.j 9.0.q.i.q.W 1.7.k Q 7.J k % d ",
"x.S.x.S.gXS.S.x.D.sXm.kXVXNXj.:.| u a y z 8 v z p t 9 + + #.` ` I.].{.}.1X1X1X[.@ q 9 4 q q q h J.8XqXpX8 0 4 0 t x v S C ..J X h &.q.e.r.! 1.>.5.,.1.7.1 5.>.,.",
"T / S.kX%XP S.S.'.VXsXAXAXkXJ.I.V e u y w 8 l v e e 5 5 O =.j.U -.!.].{.}.}.}.`.P.I C j C C X.%.}.8XqXe.t 8 5 7 0 x v m @.C C J # I i.r.<.W 1 2 1 3 b.OXC.% Q ,.",
"L K M.hXP.; x.N...V.{.NXVX2X;.+.u e u u y t x u t e p 6 o ;.j.j.E j.W.].].}.}.}.`.P.*. .|  .;.}.8X8X9Xr 8 r w 9 t y x v S o.U | - # = 1 > = 1 1 2 a.a.8.Q : : W ",
"$ ~ w.v.U T / *.E jXrXU.N.X.+.l u y a u 7 y y u t a 6 w o =.F.j.j.` G.Y.].}.[.}.}.].~.P.j.P. XqXqX8X0 p 5 w 8 y 0 l x c N V &.h ^ = K ] X : 1 5.) l.( 6.W : f <.",
"x.3.4.{ [ K ` w.3.4X(.AX4XqX| l l l u p w l z + w 7 8 w O =.G.H.j.f.` F.!.'.[.[.}.}.}. X}.6X8XqX8X}.9 t i e t p y l c c v G d } = ; 4.% # A.W L ; W - $ : > 1.,.",
"T.d T ) ' w.Z Y ] ^ 5XjX{.+.n l l x a y y x N t 4 t e r } =.F.G.J.j.j.j.j.!.`.'.}.}.}.}.}.6XqX8X}.s 9 6 y t y 8 y y z c c S I ; = = R d.D.z.; > ( > $ ; Q ; W K ",
"Q ! ..! J W.] w.! K W.X.| o.V x z c l e u n 6 O 6 + r O I -.F.J.L.G.G.J.j.j.P.Y.`.`. X[.[. X7X|.7 8 r 4 y v a l l l l c v S H.P , , BXJXgXJ ; _ L ; > ~ : 3.b.8.",
"[ <.9.%.5.M.4XY [ r.4X| X.a a x z c z y l x 0 + + 9 + 9.3X-.j.G.P.P.P.P.G.G.G.j.J.I.^.I.I.Y.L.r.w u p w w z l y t p p m v m U.=.fXlXfXfXfXk.= - _ ; l.~ z.vX:X-X",
"eXi.,X%.5.M.HX5XmXSXL. . .Z l l u e l y S O O 4 6 + o 5.wX-.F.G.P.P.P.J.P.J.P.G.G.j.J.G.=.FXSX).9 y y p 6 r u a u a e m m v J.9XJXJXDX%X> hXrX#X( gX#XV.M.MXMX,.",
"q.r._.eXy.>XtX/.[ HX-.#.} b u y i t e l e + 4 O o o 5.>X3X4.{ G.G.P.P.J.J.P.G.G.j.J.G.FXFXSXiX).4 w p l e + 7 x y 4 w m c m Y.DXJXJXlXfX#Xl.m.hXVXnX2.#X*XAXBXIX",
"i.*.h r.,X! 5.5.MXIX5XX.q.V y e r jXjXMXMXs O o d ! 8.yXvXuXE -.F.G.G.P.G.G.G.F.F.w.FXFXSXbXtXR.q 7 x p y o 7 l l y e c v m $.h.fXJXlXv.l.AXMX'.E.! *XMXLXIXMXLX",
"r.%.d d q.Y 2.f jXMXUX5X} ;.y 8 0 uXZXyX4XuXtXMX>X5.U T yXyX3X` j.j.F.F.F.j.' /.SXSXSXSXSXuX3Xr.7 4 y x z 4 O 7 z y e c v m V +.DXDXDXS.Y.JXVXgXLXw.4XrXIXUXAXjX",
"i.i.K q.0.! q.[ e.y.HXSX| #.p 7 6 yXFXFXDXHXHXFXMXMXjXMX2.yXMXK R ` ` ` E uXuXuXMXSXuXuXuX5XP o 4 + 8 x l u O y p l w v c m :.DX[.1X'.4XNXVXnXuX<XBXB.5.jXHXLXIX",
"r.! 0.%.u.q.9.q.q.3./.HXlXG.w 8 4 >XHXHXFXHXHXDXFXDXFXMXmXDXFXMXuXuXuXFXHXAXFXHXFXGXSXSX3X#.h o O O 5 y x x + 4 8 l w v v N :.U.mX[.F.f x.c.4X%XrXKXJXIXhXhXIXUX",
"w.V.W.%.%.%.%.*.j h nXVXJXB w 5 8 4 FXBXSXDXFXSXMXMXMXjXjXSXjXMXZXDXHXGXvXFXHXFXSXmXLXHXZX..P o r + w e c z y + e x i v m m O.IXJX_.P 4.4X4.J HXIXAXm.c.rXuXjXUX",
"w.*.q.%.Y Y I f j 9.! ! S.5XC + + O O { MXMXMXMXjXjXMXMXMXuXjXHX4XHXHXMXHXHXHXZXZXHXHXHX-.#.P 6 0 8 t t z m z O 8 w x v c m |.DXHXT.3.4.h T ` <XHXBXnX/.;XAXAXUX",
"w.P _...j %.h h h A f ! 5.[ -.w.c.T K T R T L K K J J HXyXMXjXZXd MXHXHXMXCXFXMXMXFXHXHX` #.P f ..t 0 y p m v 4 8 r c z c c D 0XT.-.T.rX4.T /.JXUXR.jXmXrX*XAXgX",
"e.K r.A h 9.T /.3X>X<XR.K.K.c.F.w.F.G.P.I.I.I.P.P.G.F.c.tXSXuXZX4XjXZXK ZXtXZXmXZXFXHXFX=.#.P f 0 b 7 y i v m y 0 p x u c c m t.tX5XtXz.- - ; ` hXjXBXkXM.rX- s.",
"r.` g d % K /.T.R.).<XQ.K.P.K.K.K.K.L.E.!.{.].{.(.(.W.K.F.vXmXuXZXMXMXFX' ` uXMXZXHXFXZX=.T P f r o.0 e p m l c 9 e 0 u p l m pX| U I $ = X $ ..c.J ' z.K P (.s.",
"R K f O c.T./.W./.R.T.T.K.T.y.K.W.P.E.E.~.(.{.].~.`.~.!.uXmXuXmXAXyXmXmX{ -.` ` ` ` =.=.` #.#.U .._.e e n c c v 7 9 w c c v v G @.U I X $ # X # - $.0 o.M.5.3X2.",
"s.g.s.; E./.W.W.).).R.K.K.T.W.T.W.E.W.W.{.(.].].].(.(.E.yXyXmXMXmXyXuXMXZXw.w.{ E ` { -.H.H.*.#.*.0Xl l l v v c w 9 t c x i c v G _.@.J X # f ^ $.$.o.O.p @.U.) ",
"s.d.R E.~.'./.).>X<X<X<XW.T.T.(.(.(.~.(.(.(.].{.].(.W.T.mXuXuXyXmXuXMXmXZXF.F.w.{ -.-.w.F.F.w.X.U.bXz x c v l x p 4 t 6 u c z c D :.t.DX) # % 4.$.O.G Z $.@.G b ",
"s.d.c.(.).>X3X3X2X2X3X3X<X).T./.<X).(.(.(.~.!.`./.W.W.K.ZXSXmXMXGXuXMXSXZXc.w.F.F.K.G.F.r.G.L.;.SX:.y c N v 9 y x w 7 i N z y c M @._._.iX0X$.U.$.$.g.U g.O.O.O.",
"R R P.'.<X3X3X3X3X5X0X5X3X<X)././.].(./.~.W.W.E.E.P.K.c.mXvXvXSXmXvXuXmXZX>Xc.F.K.K.L.K.L.Q._.GXSXZ u v v c r p x 0 5 i e l x y v S t._.7XpX$.h.+.g.#.g.g.g.@.O.",
"E R W.(.2X3X5XtX5X5XqXqX3X2X<X(.(./.(././.!.W.W.E.K.K.c.uXcXGXmXGXvXvXvXZXZXuX{ w.w.K.K.K.R.PXSX}  .z v c x a y z 5 w 0 p x m x v N t. Xb n b O.F $.q C s g.o.o.",
"K M./.{.<X5XpX5X5X5X5X5X8X<X<X{.(.].(.(.W.W.P.E.E.K.c.K.ZXZXCXmXCXvXvXvXZXCX/.KXuXAXmXvXSXGX5X=.0X;.y x x x t a x 5 7 i <.%.l x * S.3X9 e $.G @.+.S 7 U g.V V Z ",
"; P./.<X2X0X5X5X5X2X2X2X2X<X<X'.(.].(.W.~.E.E.M.c.K.M.4.CXCXGXmXvXvXvXmXZXCX{ E E P 4X{.=.*.G.zXpXU.B p p p y r y u 4 t s 2 u x < v.f.*.n $.$.h.n i F F o.F Z V ",
"X N.(.<X<X5X5X5X5X2X1X1X{.{.].(.~.(.W.W.W.!.P.T.K.c.T.4.vXZXvXvXuXvXvXmXZXZX4.4.K.K.G.K.T.<X0XiXiX|. .l z a l 7 y y 6 9 7 p.z ; v.f.s.s.V @.$.h.8 F V O.$.$.o.V ",
"x.W.<X<X2X5X5X2X3X2X1X1X{.{.~.`.~./.~./.E.P.E.P.T.c.K.c.vXuXZXuXvXvXvXCXmXCX{ { 4.c.K.L.R.).7XpXpX_.:.y z z w a p z 6 8 w w =.T fX, 2 < C F R h.h.$.r Z $.h.@.F ",
"P.].{.2X2X5X5X2X2X1X{.{.].`.`.W.~.~.!.Y.E.W.P.c.P.c.c.5.uXcXcXyXCXvXvXmXCXCX4.4.w.c.r.T.E.R.).6X0X|.;.b e y u u i 4 p + 7 w a.x < n k.o.Z B d.Z zX$.O.G 0Xg C O.",
"E.(.4X2X5X5X5X2X<X1X1X'.'.`.Y.!.E.Y.~.P.W.E.P.K.c.K.c.>XcXuXuXCXyXuXvXmXCXCX4.{ 4.K.K.T.Q.).~.)._.I.H.+.w u l y w u z w + 7 Z.a.= n , p.#.%X|.zXDX@.F G /.;.w | ",
"/.<X2X3X5X5X2X1X<X}.}.].].~.W.!.Y.W.P.`.P.P.K.K.K.c.K.vXCXCXCXCX) uXvXmXCXCX{ 3.c.K.T.T.~.R.R.E.K.G.H.q.g 8 7 x p 0 r x b + d.A.a.k.d.N R [.|.0XDXb + p +.S b n ",
"/.<X2X3X2X5X2X1X'.1X].].~.P.~.!.!.P.!.P.P.K.K.c.4.4.4.CXvXmXZXCX] vXvXcXCXCX] 3.{ 5.K.T.W.R.T.T.K.K.w.L.*.w 8 8 z u t 9 p y < A.k., d.S %X! O.pXzX&.o.r a @.= X ",
"(.<X3X2X2X2X8X4X{.{.].~.~.].!.!.!.E.!.I.P.F.4.{ { x.8.ZXZXZXcXKXL CXCXCXCXCXyXuXyXB.5.5.c.T.c.e.K.r.T.y.%.0.a 8 0 u i i 7 l x.Z.k.< d.@.-X# S O.zXSX$.b R = * = ",
"{.<X2X3X5X2X2X{.{.{.{.(.~.~.!.W.!.E.P.P.K.F.4.nXxXxXxXKXAXcXvXcXwXcXCXCXCXnXyXcXcXCXCXcXcXcXOXyXwXxXcXxXcXwXx 7 0 0 x p 7 7 y C.p.a.d.O.D.^ v G |.zX@.o.2 , , Z ",
"{.<X2X3X2X2X2X1X1X'.].`.!.~.P.!.E.E.!.P.K.CXKXvXcXKXKXKXvXCXmXmX:XCXCXCXCXCXyXvXcXcXcXnXcXcXuXvXOXwXwXxXcX:Xb.b.Z.Z.4 i y 5 + S.p.a.p.S M.v v m G pXF , , < , v."
};
