/* XPM */
static char *_c51f2a3f4a1446fca2b500af21e49e4cvfIZC2DYcmCTqOS[] = {
/* columns rows colors chars-per-pixel */
"64 64 254 2 ",
"   c #070604",
".  c #080704",
"X  c #060A03",
"o  c #090906",
"O  c #0B0E08",
"+  c #061706",
"@  c #0A1406",
"#  c #0A1B07",
"$  c #0A1408",
"%  c #0B1D0A",
"&  c #151A0A",
"*  c #0F1916",
"=  c #281E0A",
"-  c #0D2308",
";  c #0E220C",
":  c #12240D",
">  c #1C220B",
",  c #142A0E",
"<  c #1A2A0F",
"1  c #0F2410",
"2  c #132512",
"3  c #1B2513",
"4  c #162A12",
"5  c #1B2B13",
"6  c #1D2C19",
"7  c #1E3115",
"8  c #1F3119",
"9  c #24240B",
"0  c #2A2408",
"q  c #362608",
"w  c #332B0C",
"e  c #3D2C0C",
"r  c #212F15",
"t  c #292915",
"y  c #222E1B",
"u  c #362B15",
"i  c #223216",
"p  c #24321B",
"a  c #2A361D",
"s  c #27381E",
"d  c #2A391E",
"f  c #3C3318",
"g  c #19272F",
"h  c #263321",
"j  c #2B3623",
"k  c #2D3A23",
"l  c #2C382B",
"z  c #323C24",
"x  c #343D2A",
"c  c #383B28",
"v  c #302F32",
"b  c #432D0C",
"n  c #492B09",
"m  c #432F15",
"M  c #493517",
"N  c #57381A",
"B  c #643416",
"V  c #5C282C",
"C  c #483A27",
"Z  c #573D29",
"A  c #47373D",
"S  c #6A3B29",
"D  c #38422B",
"F  c #3C4335",
"G  c #50401F",
"H  c #4B4731",
"J  c #464836",
"K  c #594536",
"L  c #6C4C35",
"P  c #1A2949",
"I  c #2A2D48",
"U  c #333D77",
"Y  c #473A4E",
"T  c #712C5D",
"R  c #2B576E",
"E  c #534F51",
"W  c #775748",
"Q  c #71584F",
"!  c #746150",
"~  c #55536B",
"^  c #635072",
"/  c #6D6E6D",
"(  c #90633E",
")  c #983C7D",
"_  c #8C5848",
"`  c #A14C56",
"'  c #886658",
"]  c #926C57",
"[  c #AB695C",
"{  c #8F726D",
"}  c #A9776B",
"|  c #A6787A",
" . c #D95964",
".. c #7C8373",
"X. c #F9B93A",
"o. c #959075",
"O. c #D59575",
"+. c #713CA2",
"@. c #2D6297",
"#. c #514C92",
"$. c #6C528A",
"%. c #776688",
"&. c #6D6B95",
"*. c #4651B1",
"=. c #734AA5",
"-. c #5175A6",
";. c #706EAD",
":. c #7252D4",
">. c #696FEE",
",. c #967C87",
"<. c #A96F90",
"1. c #8650B0",
"2. c #8B77B0",
"3. c #A969B1",
"4. c #ED6F86",
"5. c #D26EB1",
"6. c #F967B2",
"7. c #BA3AE4",
"8. c #C23DE0",
"9. c #9377CF",
"0. c #B475D2",
"q. c #9C4CE5",
"w. c #8F73ED",
"e. c #B979E6",
"r. c #D479D5",
"t. c #D64BE5",
"y. c #D271F6",
"u. c #688DAC",
"i. c #3E81F8",
"p. c #68A2DC",
"a. c #7492F7",
"s. c #59A1E3",
"d. c #75ACF6",
"f. c #77CCFE",
"g. c #9B8C90",
"h. c #AB8D8C",
"j. c #B98B8A",
"k. c #B2A49E",
"l. c #948CB2",
"z. c #AB91AD",
"x. c #B6AEB6",
"c. c #CB8E91",
"v. c #C89996",
"b. c #C5B094",
"n. c #E0A096",
"m. c #CF92A4",
"M. c #C99DA7",
"N. c #E590AA",
"B. c #CDA5AF",
"V. c #D5A6AA",
"C. c #CBA9B6",
"Z. c #D7AAB5",
"A. c #DAB4B9",
"S. c #E8B1B1",
"D. c #CDC1AE",
"F. c #E9C7BD",
"G. c #8F92D2",
"H. c #B291D0",
"J. c #9BABCE",
"K. c #B1ADD1",
"L. c #B5B6D6",
"P. c #948DEE",
"I. c #B38EED",
"U. c #A79BE7",
"Y. c #BB98F8",
"T. c #92B0F9",
"R. c #A7A8EC",
"E. c #AFA9ED",
"W. c #A9BBE9",
"Q. c #B7A8FC",
"!. c #A9B9F8",
"~. c #BAB6FB",
"^. c #D192D5",
"/. c #F390D5",
"(. c #DCBBC6",
"). c #CDABD2",
"_. c #C6B5D9",
"`. c #D6B9D4",
"'. c #E9ABCB",
"]. c #E2BCC4",
"[. c #E3BBCD",
"{. c #D18EED",
"}. c #C695E6",
"|. c #D69BE8",
" X c #C78CF6",
".X c #D796F9",
"XX c #E399EA",
"oX c #EA9AF3",
"OX c #C8A8EB",
"+X c #D8AAE9",
"@X c #C3B7E7",
"#X c #D6B6E7",
"$X c #C9A9F9",
"%X c #D7A6F9",
"&X c #C8B8F9",
"*X c #D4B7F9",
"=X c #E4A5EB",
"-X c #E7A8F8",
";X c #E8B8F8",
":X c #F0B6F4",
">X c #B4C5DC",
",X c #8BC9FD",
"<X c #8DD0FB",
"1X c #AFCEF3",
"2X c #A8C5FB",
"3X c #B7CDF7",
"4X c #88E3FC",
"5X c #98E9FE",
"6X c #A6EBFD",
"7X c #AFF1FD",
"8X c #DBC5C7",
"9X c #D5CACB",
"0X c #E4C5CA",
"qX c #F2D4C1",
"wX c #E2C4D3",
"eX c #E6C9D8",
"rX c #E5CCDB",
"tX c #E7D3DD",
"yX c #F5E3D1",
"uX c #CAC7E6",
"iX c #D8C6E5",
"pX c #C7D7EA",
"aX c #D7D7EA",
"sX c #C7C8FA",
"dX c #D8C9FA",
"fX c #CCD6FA",
"gX c #D8D5FA",
"hX c #DCDBFD",
"jX c #E8CAE4",
"kX c #E6D4E4",
"lX c #E8D5E2",
"zX c #E5DAEC",
"xX c #E8D9E9",
"cX c #E6C7FA",
"vX c #F1C1FD",
"bX c #E3DBFC",
"nX c #E9D8F9",
"mX c #CDEBF8",
"MX c #DAE4FA",
"NX c #DBF2FD",
"BX c #E6E9EB",
"VX c #E7E6F7",
"CX c #E4E3FC",
"ZX c #E4ECFC",
"AX c #EAEBFD",
"SX c #F3E9F9",
"DX c #E4F4FD",
"FX c #EAF5FE",
"GX c #E6F8FA",
"HX c #EBF9FE",
"JX c #F5F7F3",
"KX c #F3F3FC",
"LX c #F2FAFC",
"PX c #FAFDFC",
/* pixels */
"    . . . o . . . . . . . . . o . o . o . o . . o o o o . o     . o o o o o o o o o o o . . . . o o o . . . . o o o o o o o . . ",
". . .   . . . . . . . . o . . . . . o . o . . . . . * m M ' & W W @ . o o o o o o o . o o o . . o o o o . . o o o o o o o . . . ",
". . . o . . . . o . . . . . . . . . . o .   o o . 9 i.= u C Z ' * u t   . . o o . . . . o o o o o o o o o o o o o o o o o o o . ",
". . . . . . . . . . . . . . . o . o o o o o . O w w q M = C ' e N e q @ . . o o o . . . o o o o o o o o o o o o o o o . o o o o ",
". .   . o .   . . . . . . . . . o   o o o . o & w 0 b ' Q { Z u L K L 0   o o o o o o . . . o o o o o o . o o . o . . o . . o o ",
". . . . . o . . . . . . . o o o . o o . . o $ w _ h.} ' w | ! M M L [ M 9 o o o o o o o . . o o o . o o . . . . o o . o o o o o ",
". . o   . . o . . . . . . o o o . o o . o   $ q N ' b u C (.q N [ ] _ q 9 o o o o o o o o o . o .   . o o o o . o o o o . o o o ",
"o   . . . . . . . . . o o . . . o o o o . & @ L M N j.].A.`.v.{ S B N e 0 O . o o o o o .   . o . o   . o . . o o O O O o O O O ",
"o . .   . . .   o   . . . . . o . o o o o $ 9 e q B rXkXzXzXzX[ n b n e 9 @ O o . o o .     . .   .   o o o O O o o O O O O O O ",
". . . .   . . . o o o . . o o o . o o o o O 9 0 0 | rXkXzXzXzXrXB b b b b $   . . . . . . . o o o o o o o O O O O O O o O O O O ",
".   . . . . . . . . . o o o . . . . o . o O 0 9 0 Z.rXjXzXzXzXkXrXn b e N & . . . . . . . o o o O o O O O O O o O O O O O O O O ",
". . . . . o o o . . . o o o . . . o o o o > e q q M.A.} wXkXB.wX].v.L w W q O . o o . o o o O o O O O O O O O O O O O O O O O O ",
". . o . o . o . . o . . o o . o o o . . . 9 0 0 b m 3 SXA.xXM.2 iX].A.N b m @ o o . o o o O O o o O o O O O O O O O O O O O O O ",
". . . o .   o . . o o o o o . o o o   o . @ = 0 Q ].c.Z.(.zXkXB.B.rXV.eXM ' @ # O O O O O O o o O O O O O o O O O O O O $ O O $ ",
". o o o . .   o o o . o o o . o o o o o . & & t $ Z.eXjX(.kXjXjXjX[.c.>.e ' 3 % O O O O O O O O O O O O O O O O O O O O O O O O ",
"o . . o o . . . o o o o o o . o . o o o o : M h.J.| [.xXM.AXrXjXjXwXj.& H W u @ O O O O O O O O O O O O O O O O O O O O O O $ $ ",
"o . o . o . . . o . . o o o . . o o o     $ ' ! u C Z.xXn _ xXxXrX(.%.g * ,.Q @ o O O O O O O O O O O O O O O O O O O O O O $ $ ",
". o . o o .     o . o o . . . o o . . .   y ' M E $ h.[.c.N.N.Z.jXB.I g y c Q : O o O O O O O O O O O O O O O O O O O O O O O O ",
"o o o .   o . . . . o o o o o o o o .   O C m L t g O C.W  .Z.rX(.D.0 I w > C & # O O O O O O O O O O o O O O O O o O $ O O O O ",
"o o o o o o . o .   o o o o o o o o o . 0 w K Z N M @ t (.eXrXeX] tXS.@ & 9 K # $ O O O o O O o O O O O O O O O O $ $ $ $ O $ O ",
"o o . . o o . o o o o o o o . o o o . o 9 0 M C m M 0 @ w j.O.L 0XeX0XV.z.zXnX5.T X O O O O O O O O O $ $ $ O $ $ $ @ $ $ O $ $ ",
"o o o . o . . o o o o o o o o o o o   o > > w C H M b e @ { ! 0X0X`.'.(.U.2XFXLXt.6.+ @ $ $ @ $ $ $ $ $ @ @ $ $ $ $ @ @ $ $ $ @ ",
"o . . . & . . . $ . o o o o f o o o o o 0 9 q 9 H ' M e & _ A.0XFXFXAXm.&XFXFX,X-X6./ X O $ O $ O O $ $ $ $ $ $ $ $ $ $ $ @ $ $ ",
".               . o . o . . . o .   .   > t C ! 9 K Z b w v.A.LX-X:XrXJ.6X5X5X5X6XI.4.@ $ @ $ $ $ $ $ $ @ @ $ @ @ @ @ @ @ @ @ $ ",
".       .       . . o o o . o . o o . O c Q L ' f f ! N ,.j.FXVXCXVXwXPXsX7X4X4X4Xy.4._ $ @ $ $ $ $ @ @ @ $ $ $ @ $ @ $ $ @ $ @ ",
". .   .   . . . . . . . o o o o o o . O # L j.M ! u K { aXy.%XsXCX=XXX7.e.T.,X5X7Xd.:X .$ $ @ @ @ $ $ $ @ $ @ $ $ $ $ $ $ $ $ @ ",
"  . . .   .   . . o . o o o o o o . O $ m L } f G { W L VX+XT.ZX;X<X#Xr.-XMX!.<X4Xy.PX` @ $ $ @ @ $ $ $ @ $ $ $ $ $ @ $ $ @ $ @ ",
".     . . . . . . o o o o o o o o o $ t 0XA.L H ( c { m.!.KXNXZXhX3X#X<XHXDX.X6X X,XFX=.@ $ $ $ $ $ @ @ @ $ $ $ $ $ $ @ $ $ $ @ ",
"  . . . o o . o o . o o o o o . o v.SXlXlXVXA.FX#.LXX.I T.T.ZX:.mXCX;X6X<XCXY.T.fXQ.2X` $ $ @ @ $ $ @ $ @ @ @ @ @ $ @ @ $ $ @ # ",
"  . .   . o o o o o o o o o o . O tX} 0XkXkXB `.u.K.PXaXPXgX+.a.Q.y.;XKX!.aXd.t.nX5XmX) @ $ @ $ @ @ $ $ @ @ @ @ @ @ @ # @ $ % % ",
". .   O         o o o o o o o   O A.].tXS SXA.g E H.] _.9XVXr.w.fX|.dX6XbXiXfXnX!.6XcXN.# @ # # @ $ @ @ @ @ @ # @ @ @ $ @ @ % 2 ",
".   . o     $           O   o O O 0XS.S.<.A ^ l R e.h.VXaXJX^.VX*XH.hX7XbXaXMX;X3X6X7.:X+ + @ @ @ @ @ # @ # # % @ @ @ @ # % % % ",
"      @ @ @ @ @ ,     @ O   O % $ V.A.} pX~ 4XR DX}.pXP.J.MXo.LXaXSXZX7XZXZXVXy.4XmX8.6...; 2 % @ $ % # % # 2 % % @ % % % % % ; ",
".   O O   o % @ @ # @ # @ @ @ # 2 { 9X~ K #.R p.dXPXHX9X&Xb.8XBXHXJ.uXhX*XMXjXVXP.<Xq.nX2 5 1 1 ; % ; ; % % % % @ % ; % % % % % ",
"@ @   # $ $ $ # # # 2 % % % ; % C o.P n.F I.~ l.w.>XLXaXx.PX(.HXx.a.T.HXAXuXFX|.Y R /.S.2 1 % % 2 3 2 2 2 4 % ; 2 2 ; 1 % ; ; % ",
"    @ $ # @ % % % % % : # % - + : g.F g *.9X%.#X|.iX;XPXLXGXLXH.U.MXsX5XCXAXK.`.kXiX4. .2 2 # ; 4 : 2 ; ; % 2 ; % % % % ; % % ; ",
"o O @ @ # @ % # % % % # # # # # # K.U P E g h 3X&.d.u.NXmXJXxXzXHXw.ZX>XsXxXC.eXlXlXwX] 1 ; ; ; 2 2 2 2 2 2 ; ; ; % % % % % 2 % ",
"@ # @ # # # @ # @ @ # # # # # % % ! *.~ ,.I g.NX&.u.z.ZXKX2XL.FX=.BXzXmXdXCXC.0XtXlXwXc % ; % 1 2 2 2 % 2 2 2 2 1 2 1 % % % % 2 ",
"@ @ # # # # @ @ @ @ # # # # # @ % t U E h ~ $.2.DX2.J.:.1.H.!.H.1.cXR.7XCXr.yX(.rXtXwX+ % % 1 1 ; ; ; 2 2 5 ; ; 1 2 1 ; % % 2 % ",
"# # @ @ @ @ @ @ # # # # # # # @ # % P g -.E &.H.dXR.g.=.).fXMXcX'.k.a.FXmXNXV qXeXrXwX3 5 5 6 x 2 % 2 ; ; % 2 1 ; 1 2 ; ; 2 ; ; ",
"% % ; % 3 ; 2 ; ; : 2 2 2 2 6 5 6 6 z K.J.^ ;.@XR LXz.;.2XaXPXiX^ E.<XNX5XfX<.S.0XrX(.x j j k F 5 ; % 2 ; ; ; ; ; % 1 ; ; ; ; ; ",
"2 6 6 6 6 5 5 5 6 5 5 2 5 2 6 6 2 2 3 f J n.l.%.u.l.#.=.uXHX8XJX}.3X5X5Xf.fXuXV.0XeX(.j j k x x 6 6 6 6 6 6 5 6 y 6 6 2 % % ; 2 ",
"2 ; 2 y 6 y 2 2 1 2 5 2 2 2 j 6 p 6 2 t L L.Y 0.x.GX&.:.PXs.HX;.BX6X5Xf.VXnXV.0XeXeXA.x l D l l p 3 6 p 6 y y y y y y y y y y p ",
"4 6 6 h 2 2 2 2 2 2 1 2 2 p h h 6 6 p 9 / K F.'./ d.,Xw.LX-.sXE.*.s.p.jX'.A.0XeXrXrXZ.l h h h 5 6 - , , h y y h h h p y h y 2 1 ",
"p p 6 5 y y 6 5 5 y 6 6 5 5 5 h 6 5 6 < > [.V.[ dXa.@.9.%XFX:.G.>.s.n.rX].rXkXrX0X].V.: # % ; 1 - : - - , : p p p p y 5 6 p p p ",
"5 6 6 5 2 2 2 2 ; ; 2 5 2 2 4 2 2 % % 2 > A.].[ kXl.JX-.H.PXOXq.I.I.(.rXlXkXwX(.V.v.' : 4 1 ; 2 , ; ; , 2 : : 5 3 3 , : p p 5 p ",
"# @ @ + # X X % @ $ ; + + % % % - - ; - : t eX` A.zXz.l.FXHX:.Y.B.eXlXlXrX(.Z.v.' : 4 i ; 5 5 p : 7 p : , 1 ; 2 2 ; 2 : 4 ; , < ",
"# 5 : 3 k : < 3 p p : % ; , , % ; ; ; ; ; % A.rX8XzXaX#.9.fX_.rXlXkXrX(.V.j.! v 5 5 a p i p 5 5 5 p 4 : 3 6 1 p - 7 3 - , 4 , ; ",
"z : : 5 5 3 5 5 p 5 2 : 3 : 7 < < % : : ;.* K M.A.rXkXSXC.8XlXlXrX(.M.h.OXv E %.$X4 5 5 3 p 5 , 8 2 , : 3 , : : , 3 5 - , - ; : ",
"p 3 - # + # # # - : 3 z : : : : - % ; * z.2.2 Q v.A.lXtXxXlX0XA.j.| v iXbXU.E.3XLX3 3 a p i i 7 p : 5 , , ; 4 4 , , , 4 - - ; : ",
"5 : 5 p p 4 a 6 k a a p 3 : - % : % - SXL.l.l.j A c.].eXA.v.| t vX;XcXcX`.;X9.~.sX5.r 3 y 7 k i 4 : 4 ; - ; ; 7 : 4 - 4 , , ; , ",
"i , : : y 3 5 2 : - - # : : % % : - ^.$.;XvX_.+XA v | g.K T vX+XAX-X;XMXnXMX}.{.%X&X6 6 4 5 4 , 3 3 5 : - - ; 5 , , i , , 4 ; , ",
"# % - % - - : - % # : y a r 5 3 7 u.e.=XnXl.#X;X_.^ A $.;X-XCX=XXXZX-XiXCXFXFXPX.XLX$X; i , , , p i 5 4 p 7 5 7 3 4 5 , , , - : ",
"# # - # # # # # : : 5 5 3 r i a p +X~ ;XcXuX&X&XOXnX#XH.cXOXFXcXXXGX+XbXnX-X%XOX XZXQ.D 7 d z p 7 , 5 D , 7 k x p 7 r 4 7 , 5 , ",
"< : % p % : + # # # # - ; ; 2 2 K.=.cXOXJ.hXdXW.FXcXFXOXFX9.AXGXXXbX).nXvXXX-X;X XKX~.Y.p d 5 5 4 p 3 d , 5 3 a 4 : i < 7 s 7 5 ",
"c z c z k p p : p 5 2 j 5 3 6 G.+X>X3XfX3XY.hXsXdXL.uXG.uXSXAXvX-X-X|.K.;X+X;XGXVX*X0.Q.5 8 , 7 5 p 4 p : d p 5 i 7 i p 5 , i a ",
"5 k z z a a 5 p 5 5 5 3 - % % P.~ MX0.$XFXZXe.FXZXW.&X1XgX}.gX-XvX-XXXH.nX).cXFXH.*XY. XI.z 5 4 J i i p 7 p i 5 : : , , , 5 D 5 ",
", - : , < 3 , a r y d a 2 % v pX2XsX{.*X|.CXLXMXDXFXdXFX3.ZX).=XcXoXoX_.;X+XcXGXH.H.&X XFXd p 5 4 5 5 i k p d k z p 5 a 5 , s k ",
"7 < i z : 3 a k z x z 5 : 2 I.2.hXr..XFX^.LXDXFXGX*XFXHX0.HXdX#XcX|.oXHX^.XXDXFX;XE.&X.XgXr 7 z 5 p F 5 , p s 7 k D k 5 : - , p ",
"# % r < - - 3 x c r y % : E sX{.cX3.*XdX%XFXMXHXY.*X%XHXH.FXHX_.dX)._.HXx.|.ZXFXbXL.*X{.FX=X7 4 5 k 7 7 - i , , z a D a : - , ; ",
": < - : : k y a c D k p 3 <..XgX%X{.FX{.dXsXfX&X~.dXhXLX|.FXFX_.gXK.L.FXJ.).FXFXFXl.DX^.pXFXj p d k , d , d : 7 d i i 7 p a E E ",
"i k x J J J z J p z c z z %X XhXY.~.gX}.bXMXsXLXR.FXcXHX*XHXAX>XMXL.>XHXJ.L.GXFXZX;XHX^.GXGXD z p a D 5 i k ; < - 3 p , < p a a ",
"J c H J J F F D c x D c A hX3XQ.~.3XdX$XH.HXfXhXW.ZXe.ZXdX*XhXsXfX3X!.FXR.W.CXFXFXcXZX^.l.jXuX5 J J d s p J c J H c z F J J D a ",
"F J J J c D c D x x x y Q.1.CXR.1.FX$XdXU.FXsXfXFX!.I.sXdXe.dX&XsXsXQ.ZXY.!.gXFXhX#XH.'.l.jXeXp p J D k D F k J c p J c z J ! J "
};
