/* XPM */
static char *chuu_star_combined1747930853[] = {
/* columns rows colors chars-per-pixel */
"64 64 240 2 ",
"   c #1D1315",
".  c #170E0F",
"X  c #27150D",
"o  c #2B1D1C",
"O  c #261817",
"+  c #331D1C",
"@  c #371C16",
"#  c #260F0D",
"$  c #38231D",
"%  c #2A201E",
"&  c #271E22",
"*  c #3B1F20",
"=  c #2C2224",
"-  c #2B272A",
";  c #332524",
":  c #362926",
">  c #3B2A24",
",  c #31262A",
"<  c #332A2C",
"1  c #3C2C2B",
"2  c #3B2423",
"3  c #342D32",
"4  c #3C2C32",
"5  c #3B3335",
"6  c #373239",
"7  c #352E2F",
"8  c #181E2E",
"9  c #422C25",
"0  c #442D2C",
"q  c #482A26",
"w  c #43312D",
"e  c #4B332C",
"r  c #54332D",
"t  c #5A332B",
"y  c #443434",
"u  c #4A3432",
"i  c #423A3C",
"p  c #4B3A3A",
"a  c #483737",
"s  c #533A35",
"d  c #5B3B34",
"f  c #543C3A",
"g  c #5A3D3C",
"h  c #533535",
"j  c #4D2F2E",
"k  c #633D34",
"l  c #673F3A",
"z  c #59423B",
"x  c #4F4038",
"c  c #63423D",
"v  c #69423A",
"b  c #75463D",
"n  c #3C3A42",
"m  c #443B42",
"M  c #483B44",
"N  c #553F42",
"B  c #4A4347",
"V  c #5B4344",
"C  c #5C4A4B",
"Z  c #564647",
"A  c #594D53",
"S  c #595258",
"D  c #565052",
"F  c #634543",
"G  c #6B4B44",
"H  c #644D4A",
"J  c #664945",
"K  c #734C44",
"L  c #734E49",
"P  c #764844",
"I  c #795249",
"U  c #635354",
"Y  c #6B5453",
"T  c #6D5B5C",
"R  c #675659",
"E  c #785857",
"W  c #6B4E4F",
"Q  c #5A5967",
"!  c #6C5D63",
"~  c #665C66",
"^  c #795D62",
"/  c #69636A",
"(  c #786669",
")  c #6B6A78",
"_  c #776873",
"`  c #7A7279",
"'  c #85584F",
"]  c #825553",
"[  c #855B54",
"{  c #825C5B",
"}  c #8A5A57",
"|  c #8B5755",
" . c #89635C",
".. c #95635D",
"X. c #8A604F",
"o. c #8A5E60",
"O. c #876768",
"+. c #966766",
"@. c #8C7869",
"#. c #93766B",
"$. c #886B76",
"%. c #956D75",
"&. c #8A737B",
"*. c #997877",
"=. c #A57978",
"-. c #A26D75",
";. c #39FD4B",
":. c #66F071",
">. c #9A8577",
",. c #96826F",
"<. c #A5887B",
"1. c #747289",
"2. c #897A86",
"3. c #9A7C84",
"4. c #A37A88",
"5. c #EF7AAA",
"6. c #E43FFF",
"7. c #FB5CFF",
"8. c #7C809A",
"9. c #9B8587",
"0. c #988395",
"q. c #888697",
"w. c #A68887",
"e. c #B38485",
"r. c #A99587",
"t. c #A38794",
"y. c #B58C93",
"u. c #A79896",
"i. c #B69B97",
"p. c #B39489",
"a. c #BCA59D",
"s. c #B0A499",
"d. c #968CA5",
"f. c #9597B9",
"g. c #AA95A6",
"h. c #B89CA3",
"j. c #AD9CB3",
"k. c #9EA3B8",
"l. c #BAA6A4",
"z. c #B5A6B7",
"x. c #B0A7AA",
"c. c #D08DA4",
"v. c #F297BA",
"b. c #EF89AE",
"n. c #C6A9A8",
"m. c #CDB2AB",
"M. c #C8AAB4",
"N. c #CAB2B9",
"B. c #D6B9B9",
"V. c #D6ADAE",
"C. c #E8B7AF",
"Z. c #CA9E94",
"A. c #E1C2BC",
"S. c #B28AD3",
"D. c #A9A9C6",
"F. c #B6B1C7",
"G. c #AAB2DB",
"H. c #B7BBD8",
"J. c #B5A7C2",
"K. c #B591F7",
"L. c #A3AAFF",
"P. c #D998CF",
"I. c #F39DC8",
"U. c #CAB8C5",
"Y. c #D7BCC5",
"T. c #CFB8D9",
"R. c #F4ADC9",
"E. c #E5B0C8",
"W. c #CE94F2",
"Q. c #F596F2",
"!. c #D0B6EC",
"~. c #F6ABEE",
"^. c #BCC3E4",
"/. c #CAC3D8",
"(. c #D7C9D5",
"). c #DCD4DC",
"_. c #D6C4C8",
"`. c #E4C6C9",
"'. c #E3CAD4",
"]. c #EBCAD4",
"[. c #E5CCDB",
"{. c #EBCDDA",
"}. c #E5C4D5",
"|. c #F4CDD9",
" X c #EDD2DC",
".X c #E7D3DD",
"XX c #F3D3DD",
"oX c #FFD7DE",
"OX c #F8D3CE",
"+X c #C4CAE5",
"@X c #C7C9E5",
"#X c #CDD4EB",
"$X c #CCD5E8",
"%X c #D2D5EA",
"&X c #D5DBED",
"*X c #DBDDED",
"=X c #D7D5E5",
"-X c #DADEF1",
";X c #D5D9F5",
":X c #CDCEF0",
">X c #E9CEE2",
",X c #F4C9E5",
"<X c #EDD3E3",
"1X c #E2DBE9",
"2X c #F4D5E3",
"3X c #F6D9E5",
"4X c #F9D9E5",
"5X c #F6DCEA",
"6X c #FADCEA",
"7X c #F7D6E6",
"8X c #E2DDF5",
"9X c #F5D5FB",
"0X c #DDE1EE",
"qX c #DDE3F3",
"wX c #DBE3F5",
"eX c #E4E2ED",
"rX c #EAE5EB",
"tX c #F6E1ED",
"yX c #FAE3EE",
"uX c #F5EAE8",
"iX c #E4E5F3",
"pX c #E9E5F3",
"aX c #E6E9F4",
"sX c #EBECF5",
"dX c #E5EBFA",
"fX c #ECEDFA",
"gX c #E3E3FB",
"hX c #F1EEF5",
"jX c #F1EEFC",
"kX c #FEE7F6",
"lX c #EFF1F7",
"zX c #EFF1FA",
"xX c #EEFFFF",
"cX c #F2F2F6",
"vX c #F5F4FA",
"bX c #F8F6FC",
"nX c #F6F9FD",
"mX c #FCFCFD",
"MX c #F9F3F7",
"NX c None",
/* pixels */
"NXNXNXNXNXNXNXNXNXNXNXNXNXNXNXNXNXNXNXNXNXNXNXNXNXNXNXNXNXNXNXNXNXNX=.] ] { 9.NXNXNXNXNXNXNXNXNXNXNXNXNXNXNXNXNXNXNXNXNXNXNXNXNX",
"NXNXNXNXNXNXNXNXNXNXNXNXNXNXNXNXNXNXNXNXNXNXNXNXNXNXNXNXNXNXNXNX[ [ =.I E ( T ) ` Y O.=.NXNXNXNXNXNXNXNXNXNXNXNXNXNXNXNXNXNXNXNX",
"NXNXNXNXNXNXNXNXNXNXNXNXNXNXNXNXNXNXNXNXNXNXNXNXNXNXNXNXNXNXL P K z ^ z W ! A S ~ R U K  .e.NXNXNXNXNXNXNXNXNXNXNXNXNXNXNXNXNXNX",
"NXNXNXNX$XNXNXNXNXNXNXNXNXNXNXNXNXNXNXNXNXNXNXNXNXNXNXNXNXI K h e E ' g p Z A C A U C V I K y.NXNXNXNXNXNXNXNXNXNXNXNXNXNXNXNXNX",
"NXNXNXNX~.NXNXNXNXNXNXNXNXNXNXNXNXNXNXNXNXNXNXNXNXNXNX~.I.h h F } G g h C N h N Y f F F d P +.NXNXNXNX6.NXNXNXNXNXNXNXNXNXNXNXNX",
"NXNXNXNXNXNXNXNXNXNXNXNXNXNXNXNXNXNXNXNXNXNXNXNXNXNXNXNXl j P 4.+.v  .W g l F J G s V g E ' } 4...NXNXNXNXNXNXP.W.NXNXNXNXNXNXNX",
"NXNXNXNXNXNXNXNXNXNXNXNXNXNXNXNXNXNXNXNXNXNXNXNXNXNXNX@.2 I $.$.I *.K v L L {  .K d G L c { { } y.0.NXNXNXNXNXK.xXK.NXNXNXNXNXNX",
"NXNXNXNXNXNXNXNXL.S.NXNXNXNXNXNXNXNXNXNXNXQ.NXNXNXNXNXG t E 3.+.+.w.$.P ......y.[ k K P v { o.P  ...NXNXNXNXNXNXK.NXNXNXNXNXNXNX",
"NXNXNXNXNXNXNXNXK.S.NXNXNXNXNXNXNXNXNXNXW.Q.!.NXNXNXJ c q ^ 3.%.y.t.h.o.-.-.-.h. .l | | ] L $.2.[ b NXNXNXNXNXNXNXNXNXNXNXNXNXNX",
"NXNXNXNXNXNXNXNXNXNXNXNXNXNXNXNXNXNXNXNXQ.Q.W.NXNXNXf d u L #.X.h.{ g.g.h.U.c.M.O.] ..-.4.*.2.$.[ ] E NXNXNXNXNXNXNXNXNXNXNXNXNX",
"NXNXNXNXNXNXNXNXNXNXNXNXNXNX7.NXNXNXNXNXNXNXNXNXNXNXT o v k K #.#.i.E +.i.Y.M.M.t.+.-.4.3.w.$.T G ] +.NXNXNXNXNXNXNXNXNXNXNXNXNX",
"NXNXNXNXNXNXNXNXNXNXNXNXNXNXNXNXNXNXNXNXNXNXNXNXNX_ a f k L v =...Y.K +.y.E.M.*.} } %.%.w.*.E  .v P ..NXNXNXNXNXNXNXNXNXNXNXNXNX",
"NXNXNXNXNXNXNXNXNXNXNXNXNXNXNXNXNXNXNXNXNXNXNXNX:.u., s r @.#.d Y.Y.L i.y.,X{.-.=.I P =.=.E b c r ' ..NXNXNXNXNXNXNXNXNXNXNXNXNX",
"NXNXNXNXNXNXNXNXNXNXNXNXNXNXNXNXNXNXNXNXNXNXNXNXNX<.4 k T H z E =.t.z n.n.].{.e.n.E X.e.[ v v G L E E NXNXNXNXNXNXNXNXNXNXNXNXNX",
"NXNXNXNXNXNXNXNXNXNXNXNXNXNXNXNXNXNXNXNXNXNXNXNXNXn.d V x.9.Y.B.XXY.n.B.M.XX`.i.M.E r r. .v b b d Y ^ NXNXNXNXNXNXNXNXNXNXNXNXNX",
"NXNXNXNXNXNXNXNXNXNXNXNXNXNXNXNXNXNXNXNXNXNXNXNXNX`.E ( U.B.Y.V.C.>X}.E.|.3X4X'.Y.n.O.G E E G b v / ) NXNXNXNXNXNXNXNXNXNXNXNXNX",
"NXNXNXNXNXNXNXNXNXNXNXNXNXNXNXNX~.NXNXNXNXNXNXNXNX{.V x._.'.w._ S 8 Y.[.{.4X2X'.`.}.[..X].*.c t 9 i.uXNXNXNXNXNXNXNXNXNXNXNXNXNX",
"NXNXNXNXNXNXNXNXNXNXNXNXNXNXNXNXNXNXNXNXNXNXNXNXNXa.9.z.>X<X2XN.z.u.(.{.|.6X4X(.].R 8 9.XXY.O.t V i.C.NXNXNXNXNXNXNXNXNXNXNXNXNX",
"NXNXNXNXNXNXNXNXNXNXNXNXNXNXNXNXNXNXNXNXNXNXNXNX( C @./.<X7X6X5X5X<X<X3X2XtX6X|.gXQ / ` *. Xi.j >.n.NXNXNXNXNXNXE.Q.NXNXNXNXNXNX",
"NXNXNXNXNX4X~.~.NXNXNXNXNXNXNXNXNXNXNXNXNXNXu U Q 7 >./.2X4XtXtXyXyX5X4X4XyX6X6X[.U.E.{.2X4X}.*.V.yXNXNXNXNXNXNXI.NXNXNXNXNXNXNX",
"NXNXNXNXNXQ.~.NXNXNXNXNXNXNXNXNXNXNXNXNXNXa a 5 Q - < ).,X7X5XkXyXyXyX3XyXyXyX6X5X5X5X5X6X6X<X`.Z.NXNXNXNXNXNXNXNXNXNXNXNXNXNXNX",
"NXNXNXNXNX,XNXNXNXNXNXNXNXNXNXNXNXNXNXNX5 w = - n - 6 (.>X4X5XyXyX6X7XXXyXyXyXyXtXtXyX5X7XkXU.Y.`.NXNXNXNXNXNXNXNXNXNXNXNXNXNXNX",
"NXNXNXNXNXNXNXNXNXNXNXNXL.W.NXNXNXNXNXC < = 6 B - 3 6 U.[.7X4X4X].,X2X|.yXyX6X7X6XyXtXtX4X6X X*.' ..NXNXNXNXNXNXNXNXNXNXNXNXNXNX",
"NXNXNXNXNXNXNXNXNXNXNXNXNXNXNXNXNXNXNXB : - = < 6 B x 2.>X<XXX(.<X5Xl.w.{.].4XXX2X6XtX6X4XbX2.X $ [ =.NXNXNXNXNXNXNXNXNXNXNXNXNX",
"NXNXNXNXNXNXNXNXNXNXNXNXNXNXNXNXNXNXNXz < - - 5 S A 3 i .X.X[.N.].3XoX6Xl.].XX4XXXXX4X7XkX&.- 3 , r +.<.NXNXNXNXNXNXNXNXNXNXNXNX",
"NXNXNXNXNXNXNXNXNXNXNXNXNXNXNXNXNXNXp = & - & < M n < < .X.X4XXXy e.c.v.R.,X4X2X2XN.`.>XkX/ & 3 - S O.4.NXNXNXNXNXNXNXNXNXNXNXNX",
"NXNXNXNXNXNXNXNXNXNXNXNXNXNXNXNXNXNXu : O - 4 5 3 3 & 6 u.(.XX Xb.R.3XtX}.V.m., L B.'.yX/ . y B 3 3 i z X.NXNXNXNXNXNXNXNXNXNXNX",
"NXNXNXNX;.NXNXNXNXNXNXNXNXNXNXNXNXNXu 5 - , , - . B fX/.u._..X X[.5.5.v.R.b.5.R. XOX.XuX! O a ~ B 3 i 1 e NXNXNXNXNXNXNXNXNXNXNX",
"NXNXNXNXNXNXNXNXNXNXNXNXNXNXNXNXNXNXz < , < 6 O n ;X%X8.s.>./..X2X}.b.b.I.v.E.6XXX'. XU . : w a B 6 = x x NXNXNXNXNXNXNXNXNXNXNX",
"NXNXNXNXNXNXNXNXNXNXNXNX~.NXNXNXNXNXNXy 1 = , < / ;XQ 8.l.r.r.(.3X4X4X].|.XXoXyX.X'.( %   $ w > S S = : 0 NXNXNXNXNXNXNXNXNXNXNX",
"NXNXNXNXNXNXNXNXNXNXNXQ.9XNXNXNXNXNXNXa < y y S xXaX=X>.B.l.,._..X6XyXyX4XtX4X.X(.B : ;   = > w z ` R > p NXNXOX>XNXNXNXNXNXNXNX",
"NXNXNXNXNXNXNXNXNXNXNXQ.jXP.NXNXNXNXNXy M u _ dXlXfXuXp.A.B.<.,.U. X6X6XyXoX.Xr.$XB B B . ; w w e T / z H NXNXNXNXNXNXNXNXNXNXNX",
"NXNXNXNXNXNXNXNXNXNXNXNXNXNXNXNXNXNXV R q.%XlXnXcXzXcX.XA.`.m.,.#.>.m.).[.a.s.@.*XD i i o ; > 9 e g ( 2.T NXNXNXNXNXNXNXNXNXNXNX",
"NXNXNXNXNXNXNXNXNXNXNXNXNXNXNXNXNXNXk.mXMXmXnXMXnXcXmXMXB.OX`.a.>.@.,.<.r.r.<.z *X/ # i g 2 & w 9 w z $.9.NXNXNXNXNXNXNXNXNXNXNX",
"NXNXNXNXNXI.NXNXNXNXNXNXNXNXNXbXmXMXcXMXmXmXMXmXbXcXmXmXMX'.].A.a.<.,.<.<.<.r.c _.wX! a f j > 0 $ x L e NXNXNXNXNXNXNXNXNXNXNXNX",
"NXNXNXNXNXNXNXNXNXNXNXNXNXsXmXcXnXbXnXmXmXmXbXnXnXmXmXmXmXmX[.`.m.n.s.p.s.a.>.uXfXnX$.0 0 F Y ( T H ( b NXNXNXNXNXNXNXNXNXNXNXNX",
"NXNXNXNXNXNXNXNXNXNXhXmXcXMXbXbXbXbXmXbXbXbXmXmXbXmXmXmXmXmXmXmXB.m.n.n.n.a.<.uXbXpX;X~ j _ / N D ( H s.zXNXNXNXNXNXNXNXNXNXNXNX",
"NXNXNXNXNXNXNXNXnXmXcXbXMXbXbXmXmXmXmXmXmXmXbXmXmXmXmXmXmXmXmXmXmXB.m.m.m.p.uXmXbXiXjX9.h N _ ~ x z ! v 9.mXpXNXNXNXNXNXNXNXNXNX",
"NXNXNXNXNXNXNXqXmXbXbXbXmXbXmXmXmXmXmXmXmXmXmXmXMXmXmXmXmXmXmXmXmXmXB.m.m.rXmXmXmX1X5X:X_ W _ M : = 5 T &.z.mXbXNXNXNXNXNXNXNXNX",
"NXNXNXNXNXNXNXfXmXmXmXbXmXmXmXmXmXmXmXmXmXmXmXmXmXmXmXmXmXmXmXmXmXmXmX'.MXmXmXmXjXfXfXbX3.M S A 5 1 $ 5 2.z.F.mXcXNXNXNXNXNXNXNX",
"NXNXNXNXNXNXdXbXeXnXmXmXmXmXmXmXmXmXmXmXmXmXmXmXmXmXmXmXmXmXmXmXmXmXmXMXbX&XbXmXcXbXsXbX/.$.R Z : o = 4 1 ^ J.z.mXcXNXNXNXNXNXNX",
"NXNXNXNXNXNXgXvXcXpXcXmXmXmXmXmXmXmXmXmXmXmXmXmXmXMXrXmXmXmXmXmXmXmXeXnXmXbX/.sXnXbXcXbX8X$.p M : = = = O Z U.>XmXcXNXNXNXNXNXNX",
"NXNXNXNXNX*XdXaXbXsXbXmXmXmXmXmXmXmXbXMXmXmXmXmXmXmXbXmXmXmXmXmXmXmXmXmXbXcXaX/.pXmXcXMXnX&.W / < ; ; = , u 2.U.mXcXNXNXNXNXNXNX",
"NXNXNXNXNX&XdXaXcXcXMXbXmXmXmXmXbXbXmXmXmXmXmXmXmXmXmXbXmXmXmXmXmXMXmXhXsXvXnXpXH.iXmXhXbXt.V 1.~ , = , : ; y 3.mXmXcXNXNXNXNXNX",
"NXNXNXNXNX&XdXaXcXbXcXbXmXmXmXmXmXMXmXmXmXmXmXmXbXmXmXbXmXmXmXmXbXmXmXmXmXbXMXmX=X@XhXhXmXt.u ` ) n , = 2 # T jX1XnXcXNXNXNXNXNX",
"NXNXNXNX&XwX&XpXcXbXiXcXmXmXMXmXmXmXbXmXmXbXmXmXmXmXmXmXbX=XmXmXsXcXbXmXbXbXmXmXmXMXsXhXmX9.q c U Q m & , @ ( vXeXmXhXNXNXNXNXNX",
"NXNXNXNX%X&XaXfXsXbXpXcXmXmXnXMXmXMXmXmXmXmXmXmXmXmXmXbXmXbXbXeXbXmXmXmXmXbXbXbXbXMXbXhXmX9.$ r H ) S 5 + a x.pXeXmXfXNXNXNXNXNX",
"NXNXNXNX&XwXcXpXsXMXcXcXmXmXmXMXMXmXMXmXbXmXmXMXmXmXmXbXmXmXnXmXmXmXmXmXbXbXbXbXbXbXvXhXmXw.q r H / / Q & T mX1XpXsXnXpXNXNXNXNX",
"NXNXNXNX%XwXnXpXsXbXcXvXmXmXbXbXbXmXbXbXbXmXmXbXmXmXmXbXmXbXmXmXmXmXmXmXmXbXnXbXbXbXcXhXmX3.+ j z Z y D Z $.mXpXpXpXzXpXNXNXNXNX",
"NXNXNXwX-X&XhXfXiXcXMXhXMXbXbXbXbXbXbXmXmXbXbXmXmXmXbXmXmXmXbXmXmXmXmXmXbXbXbXbXbXvXcXmXj.m q h w 1 y C ^ 0.vX*XpXsXvXaXNXNXNXNX",
"NXNXNX&X-XjXcXsXpXhXnXfXcXbXmXnXbXbXnXbXnXbXbXbXbXmXmXmXnXbXbXmXbXmXmXmXbXbXbXbXbXhXhXmXh.j * t q ; 0 r 3.nXrX*XaXpXvXaXNXNXNXNX",
"NXNXNX&X-XsXbXcXiXsXhXeXpXnXbXbXbXbXbXbXbXbXbXbXMXmXbXcXmXmXbXmXmXmXmXmXbXbXbXbXcXbXpXmX*.# u j + e s q ( qXeX8XpX0XaXzXdXNXNXNX",
"NXNX&XwX$XzXfXhXsXsXMXeXpXMXbXnXbXbXbXbXbXbXbXbXmXnXmXMXmXnXbXbXbXmXmXmXbXbXbXbXcXnXpXmX$.@ + + t s a 0 _ gXrXeX%XaXiXzXdXNXNXNX",
"NXNX&X&X&XsXbXsXeXaXMXaXiXsXMXcXcXbXbXbXbXcXbXbXnXMXbXbXbXnXbXbXbXmXmXmXbXbXbXcXcXvXjXpXO.* * 2 r l g H g.iX8X;XaXiX0XzXaXNXNXNX",
"NXNX$X-X&XsXcXhXeXaXeX0XiXaXlXcXhXnXnXcXcXbXnXbXnXnXnXbXbXbXbXbXbXmXmXmXbXcXbXcXcXhXvX=X$.N 1 * d F C M u 2.gX1XeXaXiXaXdXiXNXNX",
"NX:X#X&X%XpXcXhXsXeXpX8X*XaXsXsXsXcXbXbXbXbXcXzXMXcXbXbXMXnXbXbXbXmXmXmXnXbXvXcXcXhXfX8X$.^ R r s g R M + F g.fXeXiXgXiXdXiXNXNX",
"NX:X&XqX&XiXcXsXaXiXhX=X=XaXsXsXaXsXcXnXbXbXbXcXcXcXbXbXbXbXbXnXnXmXmXmXbXbXlXcXcXcXsXvX$.d.2.@ H E _ S O N h $.vX*XiXqXdXqXNXNX",
"NX#X:X*XiXiXfXzXsXeXsX@X@XsXiXiXaXaXsXcXcXcXbXlXcXcXlXbXbXbXbXnXcXbXbXnXmXcXlXcXcXcXaXnX$.g.F.F u 4 w > ; o 0 C d.=X0XiXqXaXqXNX",
"#X&X#XqX-X*XsXzXpXiXiX@X%XiXaXiXlXaXaXcXnXcXbXbXcXcXcXcXcXbXnXcXcXMXmXmXbXzXzXlXzXzXiXmX%.$.^.1.C T d > f U & o 5 J.-X8XaXaXiXNX",
"$XwX-XqXqX*XfXzXsXiXiX+X+XqXsXaXsXaXiXpXfXcXcXcXcXcXlXlXlXbXcXcXnXcXbXmXmXcXcXzXlXcXsXsX*XF.T.^.~ r V > @ a q.D.d.Q ;X-XqXfXqXwX",
"#XwXqXqXiXdXfXfXsXdX*X-XG.+XpXsXsXsXsXaXpXsXcXlXnXcXlXlXzXcXcXcXnXcXnXmXmXcXcXzXfXfXsXpXvXj.j.;X0.0 o + ; O D f.q.) &XaXaXaXqXqX",
"#XwXqXaXfXaXaXsXsXsXaX*X^.@XiXaXaXaXiXqXaXpXsXcXcXzXcXsXfXcXcXcXcXlXmXMXbXcXzXzXhXfXsXfXaXvXH.F.+XQ 9 g O & 1.D.f.G.&XaXqXdXqXwX",
"$X0XqXqXaXzXzXvXiXiXdX#X^.H.%XsXaXaXaXsXaXpXpXsXsXsXzXfXfXpXlXcXcXcXnXbXnXsXzXfXzXdXaXsXdXsXcXH.G.1.@ w @ n G.+X^.H.0XwXdXaXNXNX",
"$X$XqXqXqXaXsXaXiX-XwXH.H.+X#XiXqXiXaXqXiXiXeXsXsXsXaXzXsXaXiXsXlXsXbXbXbXsXlXsXaXaXaXiXiXaXdXwX^.1.X ; . S :X+X$X$XqXqXu.NXNXNX"
};
