/* XPM */
static char *starry_1_png_15_1747937788[] = {
/* columns rows colors chars-per-pixel */
"64 64 221 2 ",
"   c black",
".  c #1C191C",
"X  c #251B1C",
"o  c #2C1E1E",
"O  c #261617",
"+  c #321D1B",
"@  c #2E211E",
"#  c #32211D",
"$  c #3A251E",
"%  c #2D1E21",
"&  c #271E20",
"*  c #2C2224",
"=  c #2A242A",
"-  c #342423",
";  c #3A2623",
":  c #362926",
">  c #3C2A25",
",  c #33262A",
"<  c #372B2B",
"1  c #3C2C2A",
"2  c #3A2729",
"3  c #3C2E31",
"4  c #342934",
"5  c #3E3338",
"6  c #432C2A",
"7  c #4C2D2B",
"8  c #462824",
"9  c #45322C",
"0  c #4B342D",
"q  c #53332D",
"w  c #5C342D",
"e  c #443432",
"r  c #4C3634",
"t  c #44393D",
"y  c #4D3B3B",
"u  c #483938",
"i  c #543431",
"p  c #543932",
"a  c #5B3A34",
"s  c #553C3A",
"d  c #5B3D3B",
"f  c #583730",
"g  c #4D2C2F",
"h  c #613E3A",
"j  c #623D36",
"k  c #52413C",
"l  c #5B413B",
"z  c #64433F",
"x  c #6C423B",
"c  c #6A493E",
"v  c #71473C",
"b  c #473E45",
"n  c #543F44",
"m  c #693943",
"M  c #494249",
"N  c #5C4443",
"B  c #564648",
"V  c #4B4657",
"C  c #5A4B56",
"Z  c #5D525A",
"A  c #595259",
"S  c #624645",
"D  c #6B4A44",
"F  c #644B4D",
"G  c #6B4B4B",
"H  c #674747",
"J  c #734B44",
"K  c #754947",
"L  c #6D544B",
"P  c #77534B",
"I  c #684E54",
"U  c #6E5353",
"Y  c #6B595D",
"T  c #68555A",
"R  c #735452",
"E  c #7A5554",
"W  c #7A5B54",
"Q  c #785A5C",
"!  c #704D58",
"~  c #76615E",
"^  c #5A5869",
"/  c #6A5F63",
"(  c #655862",
")  c #745965",
"_  c #625D70",
"`  c #5E606E",
"'  c #65626A",
"]  c #6A656D",
"[  c #786768",
"{  c #7B6A77",
"}  c #7A727B",
"|  c #636672",
" . c #885C58",
".. c #8C5453",
"X. c #8A625F",
"o. c #89666A",
"O. c #976B66",
"+. c #9A736D",
"@. c #987678",
"#. c #9E6C70",
"$. c #A47C7A",
"%. c #A17372",
"&. c #4CFD5F",
"*. c #5BFF6D",
"=. c #7E7984",
"-. c #837B8A",
";. c #867682",
":. c #987C87",
">. c #8F6E81",
",. c #A27A83",
"<. c #FE5E82",
"1. c #EC6084",
"2. c #F77ABB",
"3. c #E96CBA",
"4. c #E43FFF",
"5. c #F775CB",
"6. c #EC6BC2",
"7. c #6EB7FD",
"8. c #79C7FF",
"9. c #968087",
"0. c #A08898",
"q. c #A99B98",
"w. c #BC9999",
"e. c #AC8B86",
"r. c #9593A5",
"t. c #999BB9",
"y. c #8F97B8",
"u. c #A79AA6",
"i. c #B899A7",
"p. c #AF9FB5",
"a. c #B3A3B6",
"s. c #FB979A",
"d. c #DBAE9C",
"f. c #FFA69E",
"g. c #DC80AC",
"h. c #F28BB0",
"j. c #CAA7A6",
"k. c #D7BCBB",
"l. c #CFA6B3",
"z. c #F6A3BC",
"x. c #E4A5AC",
"c. c #F9C69F",
"v. c #B187D0",
"b. c #9EA2CA",
"n. c #9FABD5",
"m. c #A8A7C6",
"M. c #B6A9C3",
"N. c #A4AED5",
"B. c #B5B7DA",
"V. c #B8AFD4",
"C. c #9385F3",
"Z. c #BB99ED",
"A. c #BC86F6",
"S. c #A998F8",
"D. c #B69BF7",
"F. c #A392E4",
"G. c #A4AAF8",
"H. c #D597C2",
"J. c #D89AD7",
"K. c #CA90CC",
"L. c #F093CB",
"P. c #D5B9DB",
"I. c #CDB0CF",
"U. c #E7ACC8",
"Y. c #FBACD6",
"T. c #F3B1D3",
"R. c #C999FC",
"E. c #DB94F7",
"W. c #D08DEB",
"Q. c #FB8CE8",
"!. c #FA9EE7",
"~. c #E78DF3",
"^. c #F98BFF",
"/. c #FD9CFE",
"(. c #FA96FB",
"). c #CEAFEF",
"_. c #D7A9FB",
"`. c #D4B1FB",
"'. c #F5A3EF",
"]. c #F6B8E3",
"[. c #ECAAF4",
"{. c #F9A4F8",
"}. c #ECB8F0",
"|. c #B2C2E6",
" X c #BEFFFF",
".X c #CCC6DD",
"XX c #D9C7D5",
"oX c #F5C8D7",
"OX c #F0D1D6",
"+X c #C8C8E5",
"@X c #D1CEE5",
"#X c #CBD1EB",
"$X c #CFD5E0",
"%X c #D2D2E5",
"&X c #DDDBEB",
"*X c #D8D6EB",
"=X c #DDDFF1",
"-X c #E7D7E6",
";X c #FADBEA",
":X c #F5D8E7",
">X c #F1D6F4",
",X c #DCE3F2",
"<X c #D7E1F2",
"1X c #DFE1EE",
"2X c #E2E2EE",
"3X c #E9E2ED",
"4X c #E3E5F3",
"5X c #EAE6F3",
"6X c #E7E9F4",
"7X c #EAEAF5",
"8X c #EDEEF8",
"9X c #F2EDF6",
"0X c #F3EEFA",
"qX c #F4EBF5",
"wX c #EEF5FA",
"eX c #F2F1F6",
"rX c #F3F3F9",
"tX c #F9F4FC",
"yX c #FAF8FD",
"uX c #F6E0EC",
"iX c None",
/* pixels */
"                                                                                                                                ",
"O.                                                                                                                              ",
"P +.#.                                                                                                                          ",
"x P P i.%X                                                                                                                      ",
"l j .. .].                                            !.{.                                            4.                        ",
"h o.J #.O.                                                                                                    W.W.              ",
"D H o.P #.0.                                                                                                  W.wXA.            ",
"x J o. .L  .    G.v.                      {.                                                                    D.              ",
"..E ! -. .J     S.v.                    E.!.P.                XXU.                                                              ",
":.:.@.@.o.P E                           !.^.R.                                    s.                                            ",
",.:.:.) E x X.              iX                                                  g.1.5.            [.                            ",
"#.e.o. .E i ..                                                                    5.              {.                            ",
"$.#.J D d a X.                                  &.                                                                              ",
"$.v x x L G R                                                                                                                   ",
"w.x J v x l Q                                                                                                                   ",
"L W R x v B ]                                                                                                                   ",
"OXk.R z w B OX                  iX                                                                                              ",
"j.OXw.d a [ d.                                                                /.                                                ",
"[ w.-XR h q.                                                                                                    U.{.            ",
"-X:X:Xl.O.OXiXiX                                                  ^.}.                                          L.              ",
";X;X;XXXj.{.[.                                                                                                                  ",
"uX;X;Xu.k.                                    2.                                        Q.!.Q.                                  ",
";X;X:Xk.c  .            iXR.                  6.                                                                                ",
";X;X-X9 # q +.                                                                                                                  ",
";X:X< 5 @ 3 c $.                                                                                                                ",
":X-XX 5 . b ' ~                                                                                     ;X                          ",
"-X= * t M = M 1 W                                                                                                               ",
"XX* 1 B ' = M : 0                                                                                                               ",
"X O 1 e k M = < k                                                                                                               ",
"X X > 9 9 ' 5 @ >       [.                                R.                (.                                                  ",
"X X # 1 0 Y } > r     ^.>X                              W.8.C.                                                OX                ",
"X O 1 9 0 k { k N     ~.tXH.                            D.v.3.                                                                  ",
"@ * : $ 9 0 L } [                                                                                                               ",
"M q @ : k > S F :.                                                                                                              ",
"l i 9 : 6 $ F p                                                                             P.).                                ",
"u 6 U W [ l ~ L                             E.                                                                                  ",
"r S { I M / Q L &X                                                                                                              ",
"U s C } B y T W L 5X0X                                                                                                          ",
"V.m { A e * < B o.r.3XrX        {.                                    c.                                                        ",
"7XF B A y 3 : < ( a.p.yXrX                                          h.<.L.                                                      ",
"0Xp.T ( e - X < 3 l a.u.rX8X                                        5.3.H.                                                      ",
"8XP.N M 3 * % * X ; a.&X8XrX                      _.                                                      (.s.                  ",
"rX*Xm { b * , % 1 ; [ p.9XeX                      F.S.                                  E.                '.`.                  ",
"rX3XU / =.t = * : : 6 ) 0XeXeX                  E.G.A.                                                    L.Z.                  ",
"9X9XG F -.V 4 * - + > -X-X8XrX                                                                                                  ",
"yX9Xd k S ^ A - - ; 0 3X2X8X0X                                                                                                  ",
"eX9Xq 0 f ] ` 5 : - 9.-X6X7X8X                                                                                                  ",
"tXtXz 0 f ' ] | t - 5X5X7X7XwX8X  [.                                                                                  Y.        ",
"tXtXi 6 q B y b ( s 7X8X5X7X5X8X  ~.                                      /.                                          Q.        ",
"9X{ 2 7 g 2 6 k ) { 4X2X2XrX4X6X                                                                                                ",
"qXo.2 8 q ; 8 r J 4X7X1X2X4X5X6X                                                                                                ",
"5Xi + h $ 8 r i a +X5X-X7X2X6X6X6X                                                oXY.                                          ",
"qX8 ; + 8 a y u d @X,X6X%X6X6X2X6X                            J.                                                                ",
"P.i ; o 7 w h b @.%X4X=X4X5X2X6X6X                          XXT.P.                                                              ",
"M.! n + 7 h F B 5 T *X-X2X4X4X6X6X,X                         X}.^.                                      {.L._.                  ",
"P.G } i d i S Z X i >.2X6X4X4X4X6X,X                                                                      _.Q.                  ",
"-Xm B.y r Q Y } X y l F 4X-X4X,X6X,X          z.                              H.                                                ",
",X! #Xo.s 3 6 6 $ o > s -.+X,X4X<X6X<X      f.z.H.                          S.7.|.                                              ",
"8Xm M.b.F Y z 9 > Y : + % r.&X,X6X,X6X      x.J.x.                          D.S.R.              ].                              ",
"7X%XM.@Xt.9 F 8 $ $ -.t.m.C #X=X,X8X,X<X                                      J.                                  *.            ",
"8X4X:.#XB.F # + # * 4 y.r._ .X7X6X6X,X,X                                                                                        ",
"7X6X0Xt.#Xy.> l ; O V m.t.N.%X6X6X,X,X,X                                                                                        ",
"8X4X8X4Xb.N.6 1 > X t.|.+X|.*X,X4X4X                                                                                            ",
"4X4X7X4X%Xn.- # O # B.#X#X#X<X,Xu.                                                                                              "
};
