/* XPM */
static char *starry_1_png_13_1747937610[] = {
/* columns rows colors chars-per-pixel */
"64 64 228 2 ",
"   c black",
".  c #1C191C",
"X  c #251517",
"o  c #251B1C",
"O  c #2C1E1E",
"+  c #311D1C",
"@  c #2D211E",
"#  c #32211D",
"$  c #3A251E",
"%  c #2A1E21",
"&  c #2C2223",
"*  c #2A242A",
"=  c #342423",
"-  c #3A2623",
";  c #3C2A25",
":  c #362929",
">  c #3C2C2A",
",  c #202535",
"<  c #382C34",
"1  c #3D3539",
"2  c #482A27",
"3  c #432D2A",
"4  c #522E2C",
"5  c #45322C",
"6  c #4B332D",
"7  c #53322D",
"8  c #5D352A",
"9  c #452D31",
"0  c #4C3533",
"q  c #473838",
"w  c #553533",
"e  c #543933",
"r  c #5B3B34",
"t  c #543B3B",
"y  c #5A3C3A",
"u  c #623D35",
"i  c #623E3B",
"p  c #5B4137",
"a  c #52413C",
"s  c #5C413D",
"d  c #66453B",
"f  c #64433F",
"g  c #6B433B",
"h  c #6E4B3D",
"j  c #303241",
"k  c #473E45",
"l  c #533E42",
"z  c #693943",
"x  c #4A4348",
"c  c #5D4443",
"v  c #584748",
"b  c #514D54",
"n  c #5A4B55",
"m  c #5C535A",
"M  c #634542",
"N  c #654944",
"B  c #6C4944",
"V  c #694649",
"C  c #644B4D",
"Z  c #6B4C4B",
"A  c #734B44",
"S  c #734846",
"D  c #7A4D43",
"F  c #6A524C",
"G  c #74534B",
"H  c #7B5448",
"J  c #7A524C",
"K  c #644E53",
"L  c #704D58",
"P  c #6E5354",
"I  c #67565B",
"U  c #735453",
"Y  c #795A58",
"T  c #75615E",
"R  c #5D5B68",
"E  c #675C62",
"W  c #775A63",
"Q  c #5E606E",
"!  c #69656C",
"~  c #786669",
"^  c #726F77",
"/  c #7B6A77",
"(  c #844E4B",
")  c #865B57",
"_  c #8A5B54",
"`  c #925D5C",
"'  c #8A625E",
"]  c #876668",
"[  c #8E6F6D",
"{  c #976869",
"}  c #96756C",
"|  c #996C73",
" . c #997777",
".. c #A16A75",
"X. c #A37573",
"o. c #A47B7A",
"O. c #4CFD5F",
"+. c #5BFF6D",
"@. c #94816E",
"#. c #9B8473",
"$. c #9A8A7E",
"%. c #A5887C",
"&. c #A3907D",
"*. c #7E7A86",
"=. c #717692",
"-. c #8F6E81",
";. c #857886",
":. c #997C87",
">. c #A27A83",
",. c #FE5E82",
"<. c #EC6084",
"1. c #E67CA5",
"2. c #F276B5",
"3. c #E43FFF",
"4. c #F372C8",
"5. c #7C829C",
"6. c #6EB7FD",
"7. c #9B8584",
"8. c #9E968B",
"9. c #A98989",
"0. c #B38789",
"q. c #A89486",
"w. c #A18696",
"e. c #A69796",
"r. c #B69190",
"t. c #B89B98",
"y. c #AEA49C",
"u. c #B9A399",
"i. c #9394AB",
"p. c #999BB9",
"a. c #A997A5",
"s. c #B79BA7",
"d. c #BC9DA0",
"f. c #AF9FB5",
"g. c #BAA4A8",
"h. c #B3A8B3",
"j. c #CE8CA9",
"k. c #EA86AD",
"l. c #F692B5",
"z. c #C6A9A6",
"x. c #D5ACAE",
"c. c #CEB3AC",
"v. c #C8ABB5",
"b. c #C8B5B8",
"n. c #D6B9B8",
"m. c #D4BBBC",
"M. c #E8A9A6",
"N. c #F9C69F",
"B. c #DAC0BB",
"V. c #E0C0B9",
"C. c #9B83DD",
"Z. c #9EA5CE",
"A. c #A9ABCF",
"S. c #B6A9C3",
"D. c #B7B9DA",
"F. c #B890F4",
"G. c #B69BF7",
"H. c #D096C2",
"J. c #CE8DD4",
"K. c #F195C9",
"L. c #C8BBC5",
"P. c #D5BAC3",
"I. c #D9BBC6",
"U. c #CDAFD5",
"Y. c #F0AFCA",
"T. c #CB94F1",
"R. c #FB8CE8",
"E. c #FE99FF",
"W. c #CFB0F4",
"Q. c #F5A3EF",
"!. c #F3AFF0",
"~. c #B2C2E6",
"^. c #DBC4CC",
"/. c #CCC5DA",
"(. c #D4CED6",
"). c #DAC8D6",
"_. c #E6C7CA",
"`. c #FFD7CF",
"'. c #EAC6D3",
"]. c #E4C9D5",
"[. c #E9CDD5",
"{. c #E4CCDC",
"}. c #EBCEDB",
"|. c #F4CAD7",
" X c #EBD1D7",
".X c #ECD1DC",
"XX c #F2D2DC",
"oX c #C8C8E5",
"OX c #D1CEE6",
"+X c #CBD0EB",
"@X c #D3D3E5",
"#X c #D8D6EA",
"$X c #DDDBEB",
"%X c #DDDFF1",
"&X c #EBCFE2",
"*X c #F7CFE3",
"=X c #EED3E2",
"-X c #E5D9E8",
";X c #F4D5E3",
":X c #F6D6E6",
">X c #F5D9E5",
",X c #F9D9E4",
"<X c #F5DBE9",
"1X c #FADCEB",
"2X c #F0D6F1",
"3X c #DFE1EE",
"4X c #D7E1F2",
"5X c #DCE3F2",
"6X c #E3E1EE",
"7X c #E9E4EE",
"8X c #F7E1ED",
"9X c #FAE2ED",
"0X c #E4E5F3",
"qX c #EAE7F3",
"wX c #E7E9F4",
"eX c #EBEBF5",
"rX c #EDEEF8",
"tX c #F1EDF6",
"yX c #F9E8F3",
"uX c #F1EEF9",
"iX c #EFF1F7",
"pX c #EFF0F9",
"aX c #EEFFFF",
"sX c #F1F2F6",
"dX c #F5F5FA",
"fX c #F8F6FC",
"gX c #F7F8FB",
"hX c #FCFCFE",
/* pixels */
"              X.J ) ]  .                                                                                                        ",
"          _ )  .D Y ~ E ^ ! F [ {                                                                                               ",
"      G A D d W y L E n m E I F H } |                                                                                           ",
"    G A r 6 U U t l v n v m K c M J J s.                                                                                        ",
"    e e N ` B y w v l 0 c F t C y u ) `               Q.Q.                                            3.                        ",
"  y 6 Z :.) g ] Z y f M B N 0 c i ' A } |                                                                     J.T.              ",
"] ; D ] [ (  .A M J J ' ) g y G B Z { U X.w.                                                                  F.aXF.            ",
"s 8 U :.| { 9.] g { ` { r.D u J u A ] ) A `                                                                     T.              ",
"B 3 U :.| 9.w.a.) X.| o.t.D D _ ( ) L ;.W J U.                ).Y.                                                              ",
"r 0 A [ ) d.) s.a.s.v.s.j.Y ( { >. .:.[ [ S J                                     l.                                            ",
"O d p A  .} t.J | z.I.v.v.:.{ >.>.:.:.Y L u ]                                   k.<.2.            !.                            ",
"r r A d o.' P.S X.r.!.u.{ _ ] .. .0.] ) ) 7 _                                     4.              E.                            ",
"e 4 '  .r P.P.B j.r.:XI.{ >.u ` o.} D A y y `   O.                                                                              ",
"7 T F a _ >.9.i v.z.XXI.>.z.u X.o.h u h G Z U                                                                                   ",
"q y.7.m.n.|.P.z.b.n.;X_.t.g.u S t.g A A g p Y                                                                                   ",
"~ b.P.P.x.n.}.'._. X,X;X].m.t.U G Y G f g v !                                                                                   ",
"8.L.).9.^ I , ].]..X,X=X_.^.'.&XXXn.U i 8 v [.                                                                                  ",
"h.&X=X<Xv.g.e.(.'.XX1X:X{.I.j j z..Xt.M r ~ M.                                E.                                                ",
"D.{.:X1X<X2X=X=X:X;X9X:X|.+X1 *.~ t.;XU f t.                                                                    Y.E.            ",
"^.=X,X1X9X8X9X1X1X1X9X1X<X).P.'.{.:X:Xv.{  X                      E.!.                                          K.              ",
"/.*X<X<XyX9X9X9X;X9X9X9X9X9X<X<X,X1X1X(.z.                                                                                      ",
"L.&X:X1X9X9X1X;X:X9X9X1X8X9X9X8X1X1X>Xa.B.    2.                                        K.Q.R.                                  ",
"h.&X:X:X:X[.XX;XXX9X9X1X,X1X9X9X8X1X<XB.h '   4.                                                                                ",
"^ ).&X;X].;X:Xt.q.XX[.:XXX:X1X1X1X1X=X3 @ 7 {                                                                                   ",
"< ).{.}.b.[.;XXX<Xg.XXXXXXXXXX1X1X<X< 1 o 1 h #.                                                                                ",
"o ).{.,XXX6 r.1.l.Y.XX9XXX[.c.=X=X&X% 1 . k ! Y                                                     2X                          ",
"< 8.).;XXXk.Y.>X1XY.x.t.X ..^.].&X* & q x * x > H                                                                               ",
"+Xe.L..XXX'.2.k.K.Y.l.1._.XXXX{.).& > x ! * x * 6                                                                               ",
"5.y.$.(. X<X].k.l.l.l. X,XXX(.^.o o > 5 a x & > a                                                                               ",
"=.g.q.&.(.,X,XXXXXXXXX9X,X XB.a o O ; 5 5 ! 1 @ >         G.                E.                                                  ",
"$.c.g.@.L..X1X9X9X9X1X,X XS.@ a . o @ > 6 I *.; 5       T.6.C.                                                `.                ",
"r.m.B.&.@.m.=X1X9X9XXX).q.oX@ Q O X ; 5 6 a / a c       G.J.J.                                                                  ",
"-XV._.c.#.} %.b..X{.u.q.@.#XO m = O : = 5 0 I / ~                                                                               ",
"hXB. XV.u.@.} @.&.q.q.&.N wX& > l 6 @ ; a $ h F :.                                                                              ",
"hXhX]._.m.u.%.#.#.&.&.%.v iXoXe c 6 5 ; 3 # B e                                             Y.W.                                ",
"hXhXhX}._.n.u.t.e.u.u.&.gXeXqXl q 3 G T ~ p T F                                                                                 ",
"hXhXhXhXhXn.c.z.z.z.u.&.hXsX0X~.0 M / K v E T F $X                                                                              ",
"hXhXhXhXhXhXn.c.z.z.u.hXgXfX0X-XP t n *.v q K T F eXuX                                                                          ",
"hXhXhXhXhXhXhXn.c.m.yXhXhXfX$XqXD.v / n 9 & * v ] a.7XdX              N.                                                        ",
"hXhXhXhXhXhXhXhX^.hXhXhXfXiXiXuX2XV v n q 1 : : E f.f.fXdX          k.,.K.                                                      ",
"hXhXhXhXhXhXhXhXsXgX@XhXfXsXdXiXuXf.L E 9 & o > > a S.a.uXdX        4.2.H.                                                      ",
"hXhXhXhXhXhXhX6XfXhXsX/.gXdXdXdXdXU.M k < = * & O - g.#XeXdX                                              R.M.                  ",
"hXhXhXhXhXhXhXhXhXgXtX0XU.gXgXdXfX#XV ^ k & : % : = ] f.tXiX                            T.                Q.W.                  ",
"hXhXhXhXhXhXgXhXeXeXfXdX5XD.dXgXdX-XP E *.q * & : = > W tXdXiX                                            K.F.                  ",
"fXfXhXhXhXfXhXhXhXfXfXfXfXOX@XfXtXtXZ n ;.x < * = # 3 -X6XwXdX                                                                  ",
"fXfX$XhXhXeXsXdXhXfXhXhXfXhXtXeXfXtXi y C R b & = = 6 6X7XiXrX                                                                  ",
"fXhXfXhX6XhXhXhXhXfXdXhXfXfXdXfXuXtX7 6 r ! Q q : = :.-X7XeXiX                                                                  ",
"fXhXfXfXfXhXhXhXhXfXfXfXfXfXfXfXhXyXi 6 e ! ! Q q = 0XqXqXtXiX0X                                                      !.        ",
"hXgXhXgXhXhXhXhXhXhXhXfXgXdXdXdXuXyXt 3 7 v q x E l wXtXqXwXwXiX          E.                                          R.        ",
"gXhXhXgXhXhXhXhXhXfXfXfXfXfXdXdX2X*.: 4 0 > > t I ] qX0X7XiXqXeX                                                                ",
"hXgXhXfXfXfXhXhXhXfXfXfXfXdXeXdXtX] 2 2 4 - 2 w A 0XqX-X7X0XwXwX                                                                ",
"dXgXhXfXfXhXhXhXhXfXfXfXfXsXdXtXyXw X u + 2 0 0 r oX0X%XeX6XwXwXrX                *XY.                                          ",
"hXdXfXfXfXfXhXhXhXdXfXfXdXdXdXeXtX2 - X 2 r q q y OX0XqX+X0XwX0XwX                                                              ",
"dXhXfXfXfXfXhXhXhXfXdXdXfXdXfXrX/.7 - + 2 8 i l -.@XqX#X7XqX6X0X0X                                                              ",
"dXdXfXfXfXfXhXhXhXfXdXdXiXdXdXwXU.P l + 4 i C x 0 I @X$X0X0X0X0XwX0X                                    Q.K.W.                  ",
"dXhXdXhXfXgXhXhXhXgXdXdXiXsXsXrXU.Z / 0 y w C I @ e -.0X0X0X0X0X5X0X                                      W.R.                  ",
"fXdXfXdXgXgXhXfXhXfXdXiXsXsXsXeX-XV D.0 w Y I ^ o q c V qX5X0X5X0X5X          H.                                                ",
"dXgXfXgXdXsXgXgXgXhXiXiXsXsXsXwX-XL OX/ t < 9 3 $ O - t ;./.3X0X4X0X5X      G.6.~.                                              ",
"sXdXdXdXdXiXdXhXhXfXiXiXrXrXiXwXqXz S.Z.C E M 6 ; I : % % i.$X5XwX5XwX      G.G.W.              !.                              ",
"sXsXdXsXsXdXiXhXhXfXsXdXiXiXdXwXuXOXS.oXp.0 V 3 $ $ *.p.S.n +X5X5XrX5X5X      D.                                  +.            ",
"rXiXsXdXiXgXdXhXhXfXdXiXrXrXrXwXrX0X:.+XD.c + + # O < i.i.! /.wXwXwX0X4X                                                        ",
"iXrXdXiXdXsXiXgXdXfXiXiXiXrXeXeXrXrXwXp.OXp.; r - X b Z.p.A.@XwX0XwX5X4X                                                        ",
"eXrX0XrXiXsXdXfXgXdXeXiXiXrXrXwXrXwXpX0XZ.Z.3 > > % p.~.~.~.%X5XwX5X                                                            ",
"pXeXwX7XeXrXrXgXdXfXwXrXrXwXwXwX5XwXwX5X%XZ.= + o % D.+X+X+X4X5Xa.                                                              "
};
