/* XPM */
static char *chuu_classic_1_png1747762827[] = {
/* columns rows colors chars-per-pixel */
"62 64 231 2 ",
"   c #1D191B",
".  c #251C1C",
"X  c #2C1E1E",
"o  c #251517",
"O  c #311D1C",
"+  c #2D211E",
"@  c #32211D",
"#  c #3A251E",
"$  c #1F1A20",
"%  c #281E21",
"&  c #2C2224",
"*  c #2C252A",
"=  c #282528",
"-  c #342424",
";  c #3A2623",
":  c #342826",
">  c #3C2A25",
",  c #322629",
"<  c #352B2B",
"1  c #3C2C2B",
"2  c #3A2729",
"3  c #292732",
"4  c #3B2E31",
"5  c #362C36",
"6  c #3B353A",
"7  c #3A3337",
"8  c #3E312E",
"9  c #432D2A",
"0  c #482A27",
"q  c #45322D",
"w  c #4B332D",
"e  c #53322D",
"r  c #5D352A",
"t  c #442D30",
"y  c #443433",
"u  c #4C3533",
"i  c #43353A",
"p  c #44393D",
"a  c #4D3B3B",
"s  c #4A3938",
"d  c #533A33",
"f  c #5B3B34",
"g  c #543C3B",
"h  c #5A3D3B",
"j  c #553533",
"k  c #522E2C",
"l  c #623D35",
"z  c #623E3B",
"x  c #52413C",
"c  c #5B423D",
"v  c #5B4137",
"b  c #64433F",
"n  c #6B433B",
"m  c #66453B",
"M  c #6E4B3D",
"N  c #303241",
"B  c #463D45",
"V  c #533E42",
"C  c #693943",
"Z  c #494348",
"A  c #5D4444",
"S  c #5B4C4B",
"D  c #564648",
"F  c #4C4855",
"G  c #594B54",
"H  c #5B535B",
"J  c #5E5C4E",
"K  c #634542",
"L  c #654944",
"P  c #6C4944",
"I  c #644A4D",
"U  c #6B4C4B",
"Y  c #694649",
"T  c #734B44",
"R  c #7A4D43",
"E  c #734846",
"W  c #6B534D",
"Q  c #69514B",
"!  c #74534B",
"~  c #7A524C",
"^  c #7B5448",
"/  c #644E53",
"(  c #6E5354",
")  c #68575B",
"_  c #735453",
"`  c #795A58",
"'  c #704D58",
"]  c #75615E",
"[  c #5A5B69",
"{  c #675C62",
"}  c #785B62",
"|  c #625D70",
" . c #6A656C",
".. c #786669",
"X. c #7A6A76",
"o. c #706E77",
"O. c #5E606E",
"+. c #844E4B",
"@. c #8A5B54",
"#. c #865B57",
"$. c #925D5C",
"%. c #8A625E",
"&. c #92645F",
"*. c #876767",
"=. c #976869",
"-. c #96756C",
";. c #996C73",
":. c #997777",
">. c #8E716B",
",. c #A47B7A",
"<. c #A37573",
"1. c #A16A75",
"2. c #94816E",
"3. c #9B8473",
"4. c #9A8A7E",
"5. c #A5887B",
"6. c #A3907D",
"7. c #7E7A86",
"8. c #717692",
"9. c #857886",
"0. c #997C87",
"q. c #8F6E81",
"w. c #A27A83",
"e. c #EA7AA5",
"r. c #7C829C",
"t. c #9C8785",
"y. c #9E968B",
"u. c #A98989",
"i. c #A89486",
"p. c #A18696",
"a. c #A79796",
"s. c #B79B98",
"d. c #B58E8E",
"f. c #B9A399",
"g. c #AEA49C",
"h. c #999BB9",
"j. c #9394AB",
"k. c #A997A5",
"l. c #BC9DA0",
"z. c #B79BA7",
"x. c #AF9FB5",
"c. c #BBA5A8",
"v. c #B3A8B3",
"b. c #EF87B3",
"n. c #F18FB3",
"m. c #C6A9A6",
"M. c #CEB3AC",
"N. c #C8ABB5",
"B. c #C8B5B8",
"V. c #D4BBBD",
"C. c #D6B9B8",
"Z. c #D5ACAE",
"A. c #D4A9AA",
"S. c #DAC0BB",
"D. c #E0C0B9",
"F. c #9EA5CE",
"G. c #B6A9C3",
"H. c #A4ADD6",
"J. c #B8B9DA",
"K. c #ADACCD",
"L. c #B4BEE0",
"P. c #F89DC1",
"I. c #C8BBC5",
"U. c #D5BAC3",
"Y. c #D9BBC6",
"T. c #C3B1D1",
"R. c #EFB0C7",
"E. c #C0BDE0",
"W. c #BAC2DB",
"Q. c #BCC2E3",
"!. c #DBC4CC",
"~. c #C9C4DB",
"^. c #DAC8D6",
"/. c #D4CED6",
"(. c #E6C7CA",
"). c #EAC6D3",
"_. c #E4C9D5",
"`. c #E9CDD5",
"'. c #E4CCDC",
"]. c #EBCEDB",
"[. c #ECD2DC",
"{. c #EBD1D7",
"}. c #F2D2DC",
"|. c #F1CFD7",
" X c #C4C9E4",
".X c #C9CAE7",
"XX c #D1CEE6",
"oX c #CCD4EB",
"OX c #CCD5E9",
"+X c #D3D3E5",
"@X c #D3D6EB",
"#X c #D4DAEC",
"$X c #DBDCED",
"%X c #DCD4EA",
"&X c #DBDEF1",
"*X c #D5DEF0",
"=X c #EBCFE2",
"-X c #F7CFE3",
";X c #EED3E2",
":X c #E5D9E8",
">X c #F4D5E3",
",X c #F5D9E5",
"<X c #F9D9E4",
"1X c #F5DBE9",
"2X c #FADCEB",
"3X c #F6D6E6",
"4X c #E6DFF1",
"5X c #DCE0EF",
"6X c #DDE3F2",
"7X c #D7E1F2",
"8X c #E2E2EE",
"9X c #E9E4EE",
"0X c #F7E1ED",
"qX c #FAE2ED",
"wX c #E3E5F3",
"eX c #E9E7F3",
"rX c #E6E9F4",
"tX c #EBEBF5",
"yX c #EDEEF8",
"uX c #E4EBF9",
"iX c #F1EEF6",
"pX c #F1EEF9",
"aX c #F9E8F3",
"sX c #EFF1F7",
"dX c #EFF0F9",
"fX c #F1F2F6",
"gX c #F5F5FA",
"hX c #F8F6FC",
"jX c #F7F8FB",
"kX c #FCFCFD",
"lX c None",
/* pixels */
"lXlXlXlXlXlXlXlXlXlXlXlXlXlXlXlXlXlXlXlXlXlXlXlXlXlXlXlXlXlXlXlXlX,.~ #.#.:.lXlXlXlXlXlXlXlXlXlXlXlXlXlXlXlXlXlXlXlXlXlXlXlX",
"lXlXlXlXlXlXlXlXlXlXlXlXlXlXlXlXlXlXlXlXlXlXlXlXlXlXlXlXlXlXlX@.#.:.R ` ..[ o.o.W =.=.lXlXlXlXlXlXlXlXlXlXlXlXlXlXlXlXlXlXlX",
"lXlXlXlXlXlXlXlXlXlXlXlXlXlXlXlXlXlXlXlXlXlXlXlXlXlXlXlXlX! E E l ..h ' { G H  .) / R -.;.lXlXlXlXlXlXlXlXlXlXlXlXlXlXlXlXlX",
"lXlXlXlXlXlXlXlXlXlXlXlXlXlXlXlXlXlXlXlXlXlXlXlXlXlXlXlX! T f t _ ~ h V S S D S / K K ~ ~ l.lXlXlXlXlXlXlXlXlXlXlXlXlXlXlXlX",
"lXlXlXlXlXlXlXlXlXlXlXlXlXlXlXlXlXlXlXlXlXlXlXlXlXlXlXlXd d K $.P f g D V d A / a U h l #.$.lXlXlXlXlXlXlXlXlXlXlXlXlXlXlXlX",
"lXlXlXlXlXlXlXlXlXlXlXlXlXlXlXlXlXlXlXlXlXlXlXlXlXlXlXf w P 0.$.n *.U f b K P K j A z *.E :.=.lXlXlXlXlXlXlXlXlXlXlXlXlXlXlX",
"lXlXlXlXlXlXlXlXlXlXlXlXlXlXlXlXlXlXlXlXlXlXlXlXlXlX>.9 R *.*.+.:.P b ~ ^ %.#.M f ! L U $.~ <.0.lXlXlXlXlXlXlXlXlXlXlXlXlXlX",
"lXlXlXlXlXlXlXlXlXlXlXlXlXlXlXlXlXlXlXlXlXlXlXlXlXlXx r _ 0.;.;.u.>.E &.$.=.d.M m ~ n E *.#.U @.lXlXlXlXlXlXlXlXlXlXlXlXlXlX",
"lXlXlXlXlXlXlXlXlXlXlXlXlXlXlXlXlXlXlXlXlXlXlXlXlXh L 9 ' t.;.d.w.z.#.<.1.<.d.~ R $.+.+.' 9.#.E lXlXlXlXlXlXlXlXlXlXlXlXlXlX",
"lXlXlXlXlXlXlXlXlXlXlXlXlXlXlXlXlXlXlXlXlXlXlXlXlXg f w E >.#.f.} z.k.z.T.z.m.+.+.=.w.0.:.9.;.U _ lXlXlXlXlXlXlXlXlXlXlXlXlX",
"lXlXlXlXlXlXlXlXlXlXlXlXlXlXlXlXlXlXlXlXlXlXlXlXlX) + m b T -.-.s.~ ;.l.^.N.N.0.=.w.w.0.0.} ` m *.lXlXlXlXlXlXlXlXlXlXlXlXlX",
"lXlXlXlXlXlXlXlXlXlXlXlXlXlXlXlXlXlXlXlXlXlXlXlX..x f f T l :.%.Y.E 1.s.R.l.=.$.*.<.;.u.*.#.~ e @.lXlXlXlXlXlXlXlXlXlXlXlXlX",
"lXlXlXlXlXlXlXlXlXlXlXlXlXlXlXlXlXlXlXlXlXlXlXlXk.4 u e *.:.d U.U.E l.s.-XY.=.5.l @.,.-.E E h f $.lXlXlXlXlXlXlXlXlXlXlXlXlX",
"lXlXlXlXlXlXlXlXlXlXlXlXlXlXlXlXlXlXlXlXlXlXlXlX5.a e ] Q h #.5.u.z N.l.-XY.w.m.z <.,.T n n ! P _ lXlXlXlXlXlXlXlXlXlXlXlXlX",
"lXlXlXlXlXlXlXlXlXlXlXlXlXlXlXlXlXlXlXlXlXlXlXlXc.W d g.t.V.C.}.U.m.C.C.3XY.s.m.z Y s.n M T n c ` lXlXlXlXlXlXlXlXlXlXlXlXlX",
"lXlXlXlXlXlXlXlXlXlXlXlXlXlXlXlXlXlXlXlXlXlXlXlXS.*.) I.U.Y.Z.C.].).Y.}.2X-X).V.s._ ! ~ ~ M n D  .lXlXlXlXlXlXlXlXlXlXlXlXlX",
"lXlXlXlXlXlXlXlXlXlXlXlXlXlXlXlXlXlXlXlXlXlXlXlX[./ a.!.^.u.o.W 3 ).'.{.3X;X(.(.'.].}.C._ l r S {.lXlXlXlXlXlXlXlXlXlXlXlXlX",
"lXlXlXlXlXlXlXlXlXlXlXlXlXlXlXlXlXlXlXlXlXlXlXlXa.i.v.'.;X;XN.v.p./.`.}.2X-X'.Y.7 N m.;Xf.z f ..A.lXlXlXlXlXlXlXlXlXlXlXlXlX",
"lXlXlXlXlXlXlXlXlXlXlXlXlXlXlXlXlXlXlXlXlXlXlX} S ] I.].3X2X1X3X:X;X3X3XqX1X}.oX6 7...s.>X_ b a.lXlXlXlXlXlXlXlXlXlXlXlXlXlX",
"lXlXlXlXlXlXlXlXlXlXlXlXlXlXlXlXlXlXlXlXlXt x  .: >.E.>X<X0XaX0X0X1X3X2XqX3X3X^.U.].`.>X3XN.-.|.lXlXlXlXlXlXlXlXlXlXlXlXlXlX",
"lXlXlXlXlXlXlXlXlXlXlXlXlXlXlXlXlXlXlXlX< a 4 H 6   W.;X1X1XaXqXaX2X3XqXqXqXqXqX;X3X3X2X<X^.m.lXlXlXlXlXlXlXlXlXlXlXlXlXlXlX",
"lXlXlXlXlXlXlXlXlXlXlXlXlXlXlXlXlXlXlX: q , = 6 7 = ~.{.3X1XqXqX2X3X>XqXqXqXqXqX0X0X0X2X1Xk.D.lXlXlXlXlXlXlXlXlXlXlXlXlXlXlX",
"lXlXlXlXlXlXlXlXlXlXlXlXlXlXlXlXlXlXc y : 3 F & 5 < v.=X3X2X3X).;X>X}.qXqX2X3X0XqXqX2X2X1XV.M #.lXlXlXlXlXlXlXlXlXlXlXlXlXlX",
"lXlXlXlXlXlXlXlXlXlXlXlXlXlXlXlXlXlXZ q = & & 7 Z p X.^.;X-X_.>X3Xl.u.>X).<X-X3X2X2X2X2X;X8 + w <.lXlXlXlXlXlXlXlXlXlXlXlXlX",
"lXlXlXlXlXlXlXlXlXlXlXlXlXlXlXlXlXlXx 4 * * < F S 6 < ^.;X'.B.`.>X>X2Xc.>X}.}.[.}.2X2X;X4 6 + 8 M ,.lXlXlXlXlXlXlXlXlXlXlXlX",
"lXlXlXlXlXlXlXlXlXlXlXlXlXlXlXlXlXx : % = & = B B 7 . ^.[.<X|.t d.b.n.R.-X<X<X{.N.[.>X=X& 6   Z  .] lXlXlXlXlXlXlXlXlXlXlXlX",
"lXlXlXlXlXlXlXlXlXlXlXlXlXlXlXlXlX< q   , , i 3 5 % 5 y.^.>X{.n.R.<X<X).A.c.o ;.(._.'.= & p Z = Z > +.lXlXlXlXlXlXlXlXlXlXlX",
"lXlXlXlXlXlXlXlXlXlXlXlXlXlXlXlXlX4 y , * - 3   = &XOXa.I.'.}.'.e.e.P.R.b.e.R.}.}.[.^.+ 1 D  .= Z : w lXlXlXlXlXlXlXlXlXlXlX",
"lXlXlXlXlXlXlXlXlXlXlXlXlXlXlXlXlXc 1 < , 6 & % W.$Xr.g.6./.[.,X(.n.n.P.n.{.1X[.`.!.+ . 1 q x Z & < s lXlXlXlXlXlXlXlXlXlXlX",
"lXlXlXlXlXlXlXlXlXlXlXlXlXlXlXlXlXlX1 4 , X 7 i 6Xo.8.c.6.4.^.,X<X}.|.}.3X<X<X{.S.Z   . > q q  .7 + 1 lXlXlXlXlXlXlXlXlXlXlX",
"lXlXlXlXlXlXlXlXlXlXlXlXlXlXlXlXlXlXy 7 < D 1 rXrXrXt.M.c.2.S.'.2X2XqX<XqX0X'.B.+ y   . @ 8 w ) 7.> y lXlXlXlXlXlXlXlXlXlXlX",
"lXlXlXlXlXlXlXlXlXlXlXlXlXlXlXlXlXlX: s i A OXjXrXkXd.S.S.i.2.I.>X2XqXqX}.!.a. X. [ + o > q w x ..x L lXlXlXlXlXlXlXlXlXlXlX",
"lXlXlXlXlXlXlXlXlXlXlXlXlXlXlXlXlXa I X.W.fXgXhXtXjX[.D.(.M.3.-.3.N._._.g.i.2.$XX H & X 2 - q w W :. .lXlXlXlXlXlXlXlXlXlXlX",
"lXlXlXlXlXlXlXlXlXlXlXlXlXlXlXlXlX[ dXhXkXhXhXjXdXkXkXV.{.S.m.3.>.3.6.i.i.6.M tX& 2 D k + : u > m / t.lXlXlXlXlXlXlXlXlXlXlX",
"lXlXlXlXlXlXlXlXlXlXlXlXlXlXlXgXjXfXgXgXkXjXjXgXdXkXkXkX(.{.V.f.5.2.3.6.i.5.J rX Xj A e 0 : 9 # L d lXlXlXlXlXlXlXlXlXlXlXlX",
"lXlXlXlXlXlXlXlXlXlXlXlXlXfXgXfXhXjXkXkXkXkXhXgXkXkXkXkXkX_.(.C.f.f.s.f.f.6.gXrXwXV i t _ ( ..L ] Q lXlXlXlXlXlXlXlXlXlXlXlX",
"lXlXlXlXlXlXlXlXlXlXiXfXfXgXhXhXjXkXjXhXjXjXkXhXkXkXkXkXkXkXkXD.M.m.m.m.s.6.kXfXwXL.u A >.G D { ] ! %XlXlXlXlXlXlXlXlXlXlXlX",
"lXlXlXlXlXlXlXlXgXfXgXgXgXjXhXkXkXkXjXkXkXkXkXkXkXkXkXkXkXkXkXkXM.M.m.m.f.hXkXhXwX4X' h H X.D s / ] ( tXpXlXlXlXlXlXlXlXlXlX",
"lXlXlXlXlXlXlXwXhXhXhXhXkXkXkXkXkXkXkXkXkXkXkXgXkXkXkXkXkXkXkXkXkXC.M.C.iXkXkXgX%XeXJ.V X.H t = : S *.j.4XgXlXlXlXlXlXlXlXlX",
"lXlXlXlXlXlXlXuXjXkXkXjXkXkXkXkXkXkXkXkXkXkXjXkXkXkXkXkXkXkXkXkXkXkX(.kXkXkXkXfXyXpX0XY G G a 7 : < ) v.x.kXfXlXlXlXlXlXlXlX",
"lXlXlXlXlXlXrXrXeXkXkXkXkXkXkXkXkXkXkXkXkXkXkXkXkXkXkXkXkXkXkXkXkXkXgXgX%XkXjXfXhXfXpXx.' { 4 - . < 1 c G.k.gXgXlXlXlXlXlXlX",
"lXlXlXlXlXlXrXrXgX9XkXkXjXkXkXkXkXkXkXkXkXkXkXkXkX8XkXkXkXkXkXkXkX8XkXkXiX XgXgXhXfXgXT.b B 4 - & & + ; z.%XtXfXlXlXlXlXlXlX",
"lXlXlXlXlX&X6XeXgX9XkXkXkXkXkXkXkXhXjXkXkXkXkXkXkXjXkXkXkXkXkXkXkXkXkXjXfX8XE.gXhXgXhX%XK o.B & , & < - ..z.iXfXlXlXlXlXlXlX",
"lXlXlXlXlX*X$XtXgXgXgXkXkXjXkXkXhXkXkXkXkXkXkXkXkXjXkXkXkXkXkXkXjXkXtXfXhXgX:XJ.gXgXgX4X!  .7.i & & < , t } iXfXfXlXlXlXlXlX",
"lXlXlXlXlX#X7XtXfXhXgXkXkXkXkXhXkXhXkXkXkXkXkXkXkXkXhXkXkXkXkXjXkXkXkXkXhXhXjXXX%XhXaXpXU / 9.F 5 + , O 0 %X8XrXgXlXlXlXlXlX",
"lXlXlXlX$X#X%XpXfXhX8XkXkXhXkXkXhXjXkXkXjXhXkXkXkXkXhXkX%XkXkXtXfXgXkXhXjXkXhXhXiXtXhXiXh h L [ H = , # w 8X9XsXpXlXlXlXlXlX",
"lXlXlXlX#XOXtXtXfXfX9XkXkXfXhXkXkXhXkXkXkXkXkXkXkXkXjXkXkXhX:XkXkXkXkXjXhXkXhXkXgXhXfXfXj e f  .O.s : - 0.:XeXiXyXlXlXlXlXlX",
"lXlXlXlX#X#XgXrXfXhX9XkXkXkXjXhXkXkXgXkXkXkXjXkXkXkXhXkXkXhXhXkXkXkXkXkXhXgXhXhXhXgXhXaXh w j {  .| p - eXeXeXtXdXrXlXlXlXlX",
"lXlXlXlX@X*XhXwXfXgXgXgXkXkXhXjXkXkXhXhXkXkXkXkXkXkXhXkXhXkXkXkXkXkXkXkXhXhXhXhXhXpXhXaXg 9 e D s Z ) g tXiXeXrXtXtXlXlXlXlX",
"lXlXlX6X@X$XgXwXeXhXgXiXhXhXhXkXjXjXhXjXkXjXjXkXkXkXkXhXkXkXkXhXkXkXkXhXhXhXjXhXhXpXpXX.2 0 e 2 1 x } X.wX8XwXiXrXtXlXlXlXlX",
"lXlXlX#X$XfXfXeXrXgXgXtXgXhXhXhXjXhXhXhXhXhXkXhXkXkXjXhXkXhXkXhXkXkXkXhXhXhXhXgXiXpXiX*.2 0 r ; 9 e E wXtX:X9XrXrXrXlXlXlXlX",
"lXlXlX#X#XsXgXyX8XfXeX8XiXhXkXhXhXhXjXhXhXgXhXhXhXhXgXhXkXjXhXkXkXkXkXhXhXhXhXfXgXpXiXk X l O 0 u u f  XwX8XrX5XeXrXuXlXlXlX",
"lXlX*X#X@XgXiXgXrXiXgX8XsXgXhXgXhXhXhXgXhXhXhXhXjXkXkXhXhXkXkXgXkXkXkXhXgXhXgXgXgXyXpX0 ; o 0 j s y g XX8XrX+XwXrXwXrXlXlXlX",
"lXlX#X#X$XsXgXwX9XtXfX5XeXiXjXgXhXhXgXhXgXjXhXhXjXjXhXhXjXhXhXhXkXkXkXhXgXgXgXgXgXpXE.k 0 O k r b g q.+XeX$X9XrX8XrXrXlXlXlX",
"lXlXOX#X@XfXfXyX8XrX8X$XrXeXfXiXgXgXhXhXgXgXjXjXgXhXjXhXkXhXkXgXkXkXkXhXgXhXfXfXgXpXT.E V O k z / D y ) @X4XwXwXwXwXuXwXlXlX",
"lXoX.X#X@XrXfXiXtX4XyX$X8XrXtXyXpXgXgXgXgXgXfXjXgXhXgXhXgXhXhXgXkXkXkXjXgXgXfXgXpXaXE.E X.u g j I H X e q.4XwXwXwXwXwXwXlXlX",
"lXoXoXwX#XrXpXyX9X6XrXXX8XrXyXrXrXgXfXgXjXhXgXfXgXjXgXhXjXgXjXjXkXkXkXjXgXfXfXfXfXtX$XY J.u k } ) o.. a D Y eX4X6X6XwX6XlXlX",
"lXoXoX&XwXwXyXyXrXwXwX~.#XeX9XrXrXrXfXgXfXhXfXfXfXfXhXjXjXjXgXfXkXhXjXkXdXfXfXsXgXrX8XE XXX.h 5 t 9 # + ; g 9.~.wXwX7XwX7XlX",
"oX*XoXwX&X$XyXfX9XwX5X.X$XrXwXtXyXwXsXgXfXgXgXfXfXfXfXgXgXgXfXfXgXkXkXkXdXyXdXdXpXeXtXC K.F.Y { P w > ) 2 O X j.$X&XrXwXuXlX",
"OX*X*XwX6X$XyXpXtXwX6XJ.@XrXrXrXrXwXrXyXgXsXfXfXfXyXfXfXhXfXdXjXfXkXkXhXsXgXsXsXfXrXtX+XG.XXh.k U 9 # @ 9.h.K.F oX&XwXuXwX6X",
"OX6XuX*XeXuXyXyXyXeX@X*XH.wXrXuXrXyXwXrXrXfXfXgXfXsXtXdXfXfXfXjXfXkXkXkXfXsXyXyXpXrXyXeX0.XXJ.I + O @ + 5 j.j.| .XtXrXuX6X*X",
"OX6XwXuXuXuXrXyXeXuXwX#XL.#XeXrXrXrX8XrXrXrXsXfXdXgXdXtXfXfXfXfXsXkXgXhXfXdXsXyXyXuXyXrXyXh..Xj.2 v # o F F.h.H.+XuXrX6XuX7X",
"oX7X7XwXrXfXyXfXwXrXwX.X XL.wXrXrXrXrXrXrXtXtXtXtXgXtXyXrXyXfXsXfXhXjXgXtXdXyXdXuXeXuXrXyXwXF.H.9 > > . h.Q. XQ.#X5XuXwXlXlX",
"OX.X5XwX6XyXuXwXrX*X#XK. X X*XwX6XrXwXwXwX9XrXeXeXrXyXyXrXrXtXtXgXhXhXjXrXyXyXrXrXeXwXrXuXwX@XH.@ @ . + J..XOXoX7X6Xa.lXlXlX"
};
