/* XPM */
static char *purple_cloud_1_png_1_1747774273[] = {
/* columns rows colors chars-per-pixel */
"64 64 220 2 ",
"   c #220036",
".  c #230037",
"X  c #250038",
"o  c #2D073F",
"O  c #270541",
"+  c #2E0C45",
"@  c #340E47",
"#  c #340F47",
"$  c #3A154B",
"%  c #3C184D",
"&  c #442254",
"*  c #452355",
"=  c #462456",
"-  c #39FD4B",
";  c #4CFD5F",
":  c #5BFF6D",
">  c #432C8A",
",  c #48318F",
"<  c #543F93",
"1  c #543F94",
"2  c #6B59B8",
"3  c #6E5CB9",
"4  c #7262BC",
"5  c #7765BD",
"6  c #7866BE",
"7  c #7C6CBF",
"8  c #6276BE",
"9  c #7F6EC1",
"0  c #7F70C1",
"q  c #8161A7",
"w  c #8465A9",
"e  c #8567AA",
"r  c #FF5680",
"t  c #FE5E82",
"y  c #EC6084",
"u  c #EF7AA1",
"i  c #F275A3",
"p  c #E96CBA",
"a  c #FA63B7",
"s  c #F879B6",
"d  c #F67CBF",
"f  c #E33CFF",
"g  c #E43FFF",
"h  c #8172C2",
"j  c #8273C3",
"k  c #EC6BC2",
"l  c #F370C7",
"z  c #FB7ACE",
"x  c #FB5CFF",
"c  c #6B87D2",
"v  c #758ED4",
"b  c #758ED5",
"n  c #7B93D6",
"m  c #7E96D8",
"M  c #6EB7FD",
"N  c #79C7FF",
"B  c #FB979A",
"V  c #FFA69E",
"C  c #DC80AC",
"Z  c #E381AE",
"A  c #F595A4",
"S  c #E68DBD",
"D  c #FF8BBE",
"F  c #DBADA0",
"G  c #DCA1B3",
"H  c #E4A5AC",
"J  c #F4A1B9",
"K  c #F8A5BE",
"L  c #FDA6BF",
"P  c #FFBCB2",
"I  c #F9C69F",
"U  c #8098D8",
"Y  c #8198D8",
"T  c #8299D9",
"R  c #B083CA",
"E  c #AF8DD3",
"W  c #B486D3",
"Q  c #BAA5C0",
"!  c #AAA4DB",
"~  c #AFAADD",
"^  c #B0A8DB",
"/  c #B4AFDF",
"(  c #8682F0",
")  c #9F88F6",
"_  c #A392E4",
"`  c #BB95EE",
"'  c #BA9DEB",
"]  c #B88AF2",
"[  c #BC88F6",
"{  c #BF81FB",
"}  c #AD91F1",
"|  c #A697FC",
" . c #A79FFC",
".. c #B89EF2",
"X. c #BB9AF5",
"o. c #B499F9",
"O. c #B19BFD",
"+. c #A4AAF8",
"@. c #A3AAFF",
"#. c #C883CB",
"$. c #CC9DCC",
"%. c #D092C0",
"&. c #D695C5",
"*. c #D09BC4",
"=. c #DF9AC0",
"-. c #DA9CCB",
";. c #D594D7",
":. c #DC9ED0",
">. c #DE9FD3",
",. c #D396DE",
"<. c #ED83C1",
"1. c #F384C8",
"2. c #ED9CC7",
"3. c #E691CC",
"4. c #F19FCD",
"5. c #FF9CC9",
"6. c #EE89D5",
"7. c #FA8DDD",
"8. c #E690DB",
"9. c #F49DD0",
"0. c #F194D8",
"q. c #C4B0CA",
"w. c #C7A4D7",
"e. c #CCA9D0",
"r. c #DCAAD2",
"t. c #CDBCD2",
"y. c #D2B7D7",
"u. c #D8BADE",
"i. c #EDADC5",
"p. c #E0AACA",
"a. c #F7AAD7",
"s. c #FFAED4",
"d. c #F3B1D3",
"f. c #DF8FE6",
"g. c #C497E3",
"h. c #CC81F9",
"j. c #C69EF7",
"k. c #CC93FF",
"l. c #C999FF",
"z. c #D59AF1",
"x. c #DD91F9",
"c. c #DF91FC",
"v. c #FF8DE2",
"b. c #F68DEA",
"n. c #FB89ED",
"m. c #E599E9",
"M. c #F79EE5",
"N. c #FD9EE3",
"B. c #FF9DE6",
"V. c #FB9DEE",
"C. c #E68DF3",
"Z. c #E18CF5",
"A. c #EF8EF2",
"S. c #E88CF7",
"D. c #F58AF3",
"F. c #F48AFF",
"G. c #F68AFF",
"H. c #FF8BFF",
"J. c #FA8EFF",
"K. c #F191F5",
"L. c #F198F3",
"P. c #FF94FF",
"I. c #FF96FF",
"U. c #FF98FF",
"Y. c #FD9EFD",
"T. c #FC9FFF",
"R. c #CEAFEF",
"E. c #CFACF7",
"W. c #DEADF7",
"Q. c #D4A2FF",
"!. c #D3ADFB",
"~. c #D9B6FF",
"^. c #E9A5E6",
"/. c #FDA6E1",
"(. c #FAAEE1",
"). c #F0A2EF",
"_. c #FBA3EF",
"`. c #E3B9EF",
"'. c #F3B5E0",
"]. c #FABAE5",
"[. c #ECA7F5",
"{. c #EAAEF2",
"}. c #EEAAF5",
"|. c #F7A0F2",
" X c #F3A5F6",
".X c #FAA0F9",
"XX c #FFAAFF",
"oX c #F2B2F0",
"OX c #F4B7F0",
"+X c #F8B7F5",
"@X c #F4BDFF",
"#X c #ABC4EB",
"$X c #BEFFFF",
"%X c #DEC8D1",
"&X c #D5C3D8",
"*X c #DBCADF",
"=X c #FFD7CF",
"-X c #E2C1DC",
";X c #FAC9D6",
":X c #FFC9D5",
">X c #FAC0D9",
",X c #FFCFDA",
"<X c #FFD7DE",
"1X c #DDCDE1",
"2X c #DDCEE1",
"3X c #DECEE2",
"4X c #CFD5E0",
"5X c #DFD0E3",
"6X c #FBC1ED",
"7X c #E0D1E3",
"8X c #F5CEF1",
"9X c #F5D9F3",
"0X c #F5D5FB",
"qX c #F9D7FD",
"wX c #F6EEFF",
"eX c #EEFFFF",
"rX c #FAF8FB",
"tX c #FFF8F9",
"yX c white",
"uX c None",
/* pixels */
"uXuXuXuXuXuXuXuXuXuXuXuXuXuXuXuXuXuXuXuXuXuXuXuXuXuXuXuXuXuXuXuXuXuXuXuXuXuXuXuXuXuXuXuXuXuXuXuXuXuXuXuXuXuXuXuXuXuXuXuXuXuXuXuX",
"uXuXuXuXuXuXuXuXuXuXuXuXuXuXuXuXuXuXuXuXuXuXuXuXuXuXuXuXuXuXuXuXuXuXuXuXuXuXuXuXuXuXuXuXuXuXuXuXuXuXuXuXuXuXuXuXuXuXuXuXuXuXuXuX",
"uXuXuXuXuXuXuXuXuXuXuXuXuXuXuXuXuXuXuXuXuXuXuXuXuXuXuXuXuXuXuXuXuXuXuXuXuXuXuXuXuXuXuXuXuXuXuXuXuXuXuXuXuXuXuXuXuXuXuXuXuXuXuXuX",
"uXuXuXuX4XuXuXuXuXuXuXuXuXuXuXuXuXuXuXuXuXuXuXuXuXuXuXuXuXuXuXuXuXuXuXuXuXuXuXuXuXuXuXuXuXuXuXuXuXuXuXuXuXuXuXuXuXuXuXuXuXuXuXuX",
"uXuXuXuX'.uXuXuXuXuXuXuXuXuXuXuXuXuXuXuXuXuXuXuXuXuXuXN._.uXuXuXuXuXuXuXuXuXuXuXuXuXuXuXuXuXuXuXuXuXuXg uXuXuXuXuXuXuXuXuXuXuXuX",
"uXuXuXuXuXuXuXuXuXuXuXuXuXuXuXuXuXuXuXuXuXuXuXuXuXuXuXuXuXuXuXuXuXuXuXuXuXuXuXuXuXuXuXuXuXuXuXuXuXuXuXuXuXuXuX,.g.uXuXuXuXuXuXuX",
"uXuXuXuXuXuXuXuXuXuXuXuXuXuXuXuXuXuXuXuXuXuXuXuXuXuXuXuXuXuXuXuXuXuXuXuXuXuXuXuXuXuXuXuXuXuXuXuXuXuXuXuXuXuXuX{ eX[ uXuXuXuXuXuX",
"uXuXuXuXuXuXuXuX .E uXuXuXuXuXuXuXuXuXuXuX.XuXuXuXuXuXuXuXuXuXuXuXuXuXuXuXuXuXuXuXuXuXuXuXuXuXuXuXuXuXuXuXuXuXuXX.uXuXuXuXuXuXuX",
"uXuXuXuXuXuXuXuX} W uXuXuXuXuXuXuXuXuXuXf.L.u.uXuXuXuXuXuXuXuX&Xi.uXuXuXuXuXuXuXuXuXuXuXuXuXuXuXuXuXuXuXuXuXuXuXuXuXuXuXuXuXuXuX",
"uXuXuXuXuXuXuXuXuXuXuXuXuXuXuXuXuXuXuXuXV.J.k.uXuXuXuXuXuXuXuXuXuXuXuXuXuXuXuXuX3.A 6.uXuXuXuXuXuXuXuXuXuXuXuXuXuXuXuXuXuXuXuXuX",
"uXuXuXuXuXuXuXuXuXuXuXuXuXuXx uXuXuXuXuXuXuXuXuXuXuXuXuXuXuXuXuXuXuXuXuXuXuXuXuXC y d uXuXuXuXuXuX[.uXuXuXuXuXuXuXuXuXuXuXuXuXuX",
"uXuXuXuXuXuXuXuXuXuXuXuXuXuXuXuXuXuXuXuXuXuXuXuXuXuXuXuXuXuXuXuXuXuXuXuXuXuXuXuXuXl uXuXuXuXuXuXuXT.uXuXuXuXuXuXuXuXuXuXuXuXuXuX",
"uXuXuXuXuXuXuXuXuXuXuXuXuXuXuXuXuXuXuXuXuXuXuXuX; uXuXuXuXuXuXuXuXuXuXuXuXuXuXuXuXuXuXuXuXuXuXuXuXuXuXuXuXuXuXuXuXuXuXuXuXuXuXuX",
"uXuXuXuXuXuXuXuXuXuXuXuXuXuXuXuXuXuXuXuXuXuXuXuXuXuX. . . . . . uXuXuXuXuXuXuXuXuXuXuXuXuXuXuXuXuXuXuXuXuXuXuXuXuXuXuXuXuXuXuXuX",
"uXuXuXuXuXuXuXuXuXuXuXuXuXuXuXuXuXuXuXuXuXuXuXuXuX. . . . . . . . . uXuXuXuXuXuXuXuXuXuXuXuXuXuXuXuXuXuXuXuXuXuXuXuXuXuXuXuXuXuX",
"uXuXuXuXuXuXuXuXuXuXuXuXuXuXuXuXuXuXuXuXuXuXuX. . . :X:X:X:XyXyX. . . . . . . . . uXuXuXuXuXuXuXuXuXuXuXuXuXuXuXuXuXuXuXuXuXuXuX",
"uXuXuXuXuXuXuXuXuXuXuXuXuXuXuXuX(.uXuXuXuXuXuX. . . :XyXyXyXyXyX. . . . . . . . . uXuXuXuXuXuXuXuXuXuXuXuXuXuXuXuXuXuXuXuXuXuXuX",
"uXuXuXuXuXuXuXuXuXuXuXuXuXuXuXuXuXuXuXuXuXuXuX. yXyXyXyXyXyXyXyXyXyXyX. . . . P.. . uXuXuXuXuXuXuXuXuXuXuXuXuXuXuXuXuXuXuXuXuXuX",
"uXuXuXuXuXuXuXuXuXuXuXuXuXuXuXuXuXuXuXuXuXuX. *XyXyXyXyXyXyXyXyXyX*X*Xc ! *XyXyXyXyX. . uXuXuXuXuXuXuXuXuXuXuXuXp.T.uXuXuXuXuXuX",
"uXuXuXuXuX<X@X/.uXuXuXuXuXuXuXuXuX. . uXuXuX. *X*X*XyXyXyXyXyXyX*XG.OX! ! *X*X*XyXyX. * % uXuXuXuXuXuXuXuXuXuXuX2.uXuXuXuXuXuXuX",
"uXuXuXuXuX|.W.uXuXuXuXuXuXuXuXuX. . . . . . > *X*X*XyXyXyXyXyX5X*X*X*X! ! ~ *X*X5X5Xt.Q o >.uXuXuXuXuXuXuXuXuXuXuXuXuXuXuXuXuXuX",
"uXuXuXuXuX6XuXuXuXuXuXuXuXuX. . . ! ! . > > a s *X*XyXyXyXyXyX*X*X*X*XyX! ! *X*X*X1X1Xq.8.M.v.uXuXuXuXuXuXuXuXuXuXuXuXuXuXuXuXuX",
"uXuXuXuXuXuXuXuXuXuXuXuX@.l.. ! ! ! ! > > yXF k yXyXyXyXyXyXyXyX! ! yXyXyX! ! ! 7XT c 8 B.D.P uXuXuXuXuXuXuXuXuXuXuXuXuXuXuXuXuX",
"uXuXuXuXuXuXuXuXuXuX. . . *XyXyXyXyX*X! . . *X1XyXyXyXyXyXyXyXyX! ! yXyX! c c T c . . . . . uXuXuXuXuXuXuXuXuXuXuXuXuXuXuXuXuXuX",
"uXuXuXuXuXuXuXuXuX. *X*X*XyXyXyXyXyX! ! . ! *X*X*X*XyX*XyXyXyXyXyX! ! ! ! c . . * yXyXyXyX. . uXuXuXuXuXuXuXuXuXuXuXuXuXuXuXuXuX",
"uXuXuXuXuXuXuXuXuX. *X*X*XyXyXyXyXyX! ! ! ! *X*X*X*XyX*XyXyXyXyXyX! ! ! ! n . . . yXyXyXyX. . uXuXuX8X^.uXuXuXuXuXuXuXuXuXuXuXuX",
"uXuXuXuXuXuXuXuXuX. :X,XyXyXyXyXyXyXyX:X:X:X! *X*X*X1X*X*XyXyXyXyX! ! c Y m yXyXyXyXyXyXyXyXc . . . . . . . uXuXuXuXuXuXuXuXuXuX",
"uXuXuXuX- uXuXuXuX. :X:X:X:XyXyXyXyXyX*XrXyX! ! ! ! ! ~ ! ! ! ! ! ! yXc Y # yXyXyXyXyXrX*XyXc c c . . . . . . . uXuXuXuXuXuXuXuX",
"uXuXuXuXuXuXuXuX. :XyXtX:X:XyXyXyXyX*X*X*X*X! ! ! ! ! c v ! ! c yXyXyXc c yXyXyXyXyXyXyXyX*XyXc c *X*XyXyXyXyX. . . uXuXuXuXuXuX",
"uXuXuXuXuXuXuXuX. yXyXyX}.yXyX*X*X*X*X*X*X*XyXc c c c c c ' c yXyXyXyXc c *XI.yX*XyXyXyXyX*X*Xc c *X*XyXyXyXyXyX. . uXuXuXuXuXuX",
"uXuXuXuXuXuXuXuX. yXyXG.0XyXyX*X*X*X*X*X*X*Xc c c c c c h.N ( c c c c c c *XyXyX*XyXyXyXyX*X*Xc c *X*XyXyXyXyX=X-X. uXuXuXuXuXuX",
"uXuXuXuXuXuXuXuX. yXyXC.wX=.yXyXyX*X*X*X*X*Xc c *X*X*X*X..R #.c c c c c *X*XyXyXyXyXyXyXyX*X*X! ! ! *XyXyXyXyX*X*X*X. uXuXuXuXuX",
"uXuXuXuXuXuX. . yXyX:X,XyXc c c c c c c c c c *XyXyXyXyXyX*X*X*Xc c c *X*X*XyXyXyXyX*X5XyX*X! ! :X! *X*XrXyX*X*X:X:X:X. . uXuXuX",
"uXuXuX. . . . c c yX:X;X*X*X! ! ! c c ! ! ! *X*X*X*X*X! ! ! ! *X*Xc c c ! *X*X*X*X*X*X*X*X*X! ! :X! ! *X*X*X*X*X:X:X:X! ! . . uX",
"uXuX. . . 9.. c c yX:X;X*X*X! ! ! c c c ! ! yXyXyX*XyXyXyXyX! ! *X*Xv c ! *X*X*X*X*X*X*X*X*Xr.R.:X! ! *X:X*X*X*X*X*X:X! ! q . . ",
"uX. . w yXyX*X*Xc yXc rX*X! c c c c c yX/ ! x.yXyXyXyXyXyXyX! ! *X*X*Xc c c c *X*X*X*X*X*X! ! :X:X! ! *X:X:X:X:X:Xc c ! 2 q . . ",
". . q yXyXyXyX*Xc c c c c c c c c c c *X*X*X*XyXyXyXyXyXyXyXyXyXyX*X*X2 c c c c ! ! ! ! ! ! c 2 2 ! ! c c c c c c c c 9 . . . uX",
". q ! yX*XyXyXyX! *X*X! c c c *Xc c c c yXyXyXyXyXh = 3 2 yXyXyXyX*X*X*X2 2 c c c c c c c c c 2 2 2 2 ! ! c c c c h h $ . . uXuX",
". . ! ! ! ! *XyX*X*Xc c c c *X*XXX*Xc c c c yXyX2 5 . . 2 *XyX*X*X*X*XI 2 2 c c c c c c c c 2 2 2 . 2 ! 4 c c c 2 h . . . uXuXuX",
"uX. q q q *X*X*X*Xq q q q *XyXyXyX*X*X*X*Xc c c c c . . 2 *X*X*X*X*XZ t 5.c c 5 2 2 2 2 2 2 2 2 2 . 2 ! 4 2 2 h 7 2 . . uXuXuXuX",
"uX. . . q q q q e q 4.+ q q q yXyXyXyXyXyX*Xc c c . . . . > > > *X> z p *.c 2 . 1 > > , 2 2 > > > . 2 2 2 2 h 2 . . . uXuXuXuXuX",
"uXuXuX. . . . . . K.+X0.. q q q *XyXyXyXyXyX*Xh . !.. . . . . > > > c 2 > . . . . < > > > > > . . . . . . D.B . . uXuXuXuXuXuXuX",
"uXuXuXuXuXuXuXuXuXoXe.uX. . . . *X*X*X*Xe 5 h . . _ ) uX. . . . 2 2 2 . . . . . . . # O z.> > . . . . . . ).~.uXuXuXuXuXuXuXuXuX",
"uXuXuXuXuXuXuXuXuXuXuXuXuXuX. . . . h h w *X. . c.+.] uXuXuXuX. . . . . . . uXuXuX. . . . . . . . . uXuXuX<.` uXuXuXuXuXuXuXuXuX",
"uXuXuXuXuXuXuXuXuXuXuXuXuXuXuX. . . . . .   . . . uXuXuXuXuXuXuXuX. . . uXuXuXuXuXuXuX. . . . . . uXuXuXuXuXuXuXuXuXuXuXuXuXuXuX",
"uXuXuXuXuXuXuXuXuXuXuXuXuXuXuXuXuXuX. . . . . uXuXuXuXuXuXuXuXuXuXuXuXuXuXuXuXuXuXuXuXuXuXuXuXuXuXuXuXuXuXuXuXuXuXuXuXuXuXuXuXuX",
"uXuXuXuXuXuXuXuXuXuXuXuXuXuXuXuXuXuXuXuXuXuXuXuXuXuXuXuXuXuXuXuXuXuXuXuXuXuXuXuXuXuXuXuXuXuXuXuXuXuXuXuXuXuXuXuXuXuXuXuXuXuXuXuX",
"uXuXuXuXuXuXuXuXuXuXuXuXuXuXuXuXuX{.uXuXuXuXuXuXuXuXuXuXuXuXuXuXuXuXuXuXuXuXuXuXuXuXuXuXuXuXuXuXuXuXuXuXuXuXuXuXuXuXuXa.uXuXuXuX",
"uXuXuXuXuXuXuXuXuXuXuXuXuXuXuXuXuXZ.uXuXuXuXuXuXuXuXuXuXuXuXuXuXuXuXuXuXuXU.uXuXuXuXuXuXuXuXuXuXuXuXuXuXuXuXuXuXuXuXuXn.uXuXuXuX",
"uXuXuXuXuXuXL uXuXuXuXuXuXuXuXuXuXuXuXuXuXuXuXuXuXuXuXuXuXuXuXuXuXuXuXuXuXuXuXuXuXuXuXuXuXuXuXuXuXuXuXuXuXuXuXuXuXuXuXuXuXuXuXuX",
"uXuXuXuXuXS r 1.uXuXuXuXuXuXuXuXuXuXuXuXuXuXuXuXuXuXuXuXuXuXuXuXuXuXuXuXuXuXuXuXuXuXuXuXuXuXuXuXuXuXuXuXuXuXuXuXuXuXuXuXuXuXuXuX",
"uXuXuXuXuX-.u i uXuXuXuXuXuXuXuXuXuXuXuXuXuXuXuXuXuXuXuXuXuXuXuXuXuXuXuXuXuXuXuXuX>Xs.uXuXuXuXuXuXuXuXuXuXuXuXuXuXuXuXuXuXuXuXuX",
"uXuXuXuXuXuXuXuXuXuXuXuXuXuXuXuXuXuXuXuXuXuXuXuXuXuXuXuXuXuXuX>.uXuXuXuXuXuXuXuXuXuXuXuXuXuXuXuXuXuXuXuXuXuXuXuXuXuXuXuXuXuXuXuX",
"uXuXuXuXuXuXuXuXuXuXuXuXuXuXuXuXuXuXuXuXuXuXuXuXuXuXuXuXuXuX%Xd.y.uXuXuXuXuXuXuXuXuXuXuXuXuXuXuXuXuXuXuXuXuXuXuXuXuXuXuXuXuXuXuX",
"uXuXuXuXuXuXuXuXuXuXuXuXuXuXuXuXuXuXuXuXuXuXuXuXuXuXuXuXuXuX$X`.H.uXuXuXuXuXuXuXuXuXuXuXuXuXuXuXuXuXuXuX XD E.uXuXuXuXuXuXuXuXuX",
"uXuXuXuXuXuXuXuXuXuXuXS.uXuXuXuXuXuXuXuXuXuXuXuXuXuXuXuXuXuXuXuXuXuXuXuXuXuXuXuXuXuXuXuXuXuXuXuXuXuXuXuXuXQ.b.uXuXuXuXuXuXuXuXuX",
"uXuXuXuXuXuXuXuXuXuX7.9X;.uXuXuXuXuXuXuXuXuXuXK uXuXuXuXuXuXuXuXuXuXuXuXuXuXuX%.uXuXuXuXuXuXuXuXuXuXuXuXuXuXuXuXuXuXuXuXuXuXuXuX",
"uXuXuXuXuXuXuXuXuXuXm.qXuXuXuXuXuXuXuXuXuXuXV J &.uXuXuXuXuXuXuXuXuXuXuXuXuX| M #XuXuXuXuXuXuXuXuXuXuXuXuXuXuXuXuXuXuXuXuXuXuXuX",
"uXuXuXuXuXuXuXuXuXuXuXuXuXuXuXuXuXuXuXuXuXuXH $.G uXuXuXuXuXuXuXuXuXuXuXuXuXo.O.j.uXuXuXuXuXuXuX].uXuXuXuXuXuXuXuXuXuXuXuXuXuXuX",
"uXuXuXuXuXuXuXuXuXuXuXuXuXuXuXuXuXuXuXuXuXuXuXuXuXuXuXuXuXuXuXuXuXuXuXuXuXuXuXw.uXuXuXuXuXuXuXuXuXuXuXuXuXuXuXuXuX: uXuXuXuXuXuX",
"uXuXuXuXuXf uXuXuXuXuXuXuXuXuXuXuXuXuXuXuXuXuXuXuXuXuXuXuXuXuXuXuXuXuXuXuXuXuXuXuXuXuXuXuXuXuXuXuXuXuXuXuXuXuXuXuXuXuXuXuXuXuXuX",
"uXuXuXuXuXuXuXuXuXuXuXuXuXuXuXuXuXuXuXuXuXuXuXuXuXuXuXuXuXuXuXuXuXuXuXuXuXuXuXuXuXuXuXuXuXuXuXuXuXuXuXuXuXuXuXuXuXuXuXuXuXuXuXuX",
"uXuXuXuXuXuXuXuXuXuXuXuXuXuXuXuXuXuXuXuXuXuXuXuXuXuXuXuXuXuXuXuXuXuXuXuXuXuXuXuXuXuXuXuXuXuXuXuXuXuXuXuXuXuXuXuXuXuXuXuXuXuXuXuX",
"uXuXuXuXuXuXuXuXuXuXuXuXuXuXuXuXuXuXuXuXuXuXuXuXuXuXuXuXuXuXuXuXuXuXuXuXuXuXuXuXuXuXuXuXuXuXuXuXuXuXuXuXuXuXuXuXuXuXuXuXuXuXuXuX"
};
