/* XPM */
static char *Screenshot_2025_05_20_at_22_00_31_1_png1747771388[] = {
/* columns rows colors chars-per-pixel */
"64 64 247 2 ",
"   c #613D38",
".  c #744435",
"X  c #3C424F",
"o  c #6B5349",
"O  c #775649",
"+  c #73544C",
"@  c #585C6A",
"#  c #5C6574",
"$  c #67686C",
"%  c #787B7A",
"&  c #706F6E",
"*  c #4E5153",
"=  c #A15E3E",
"-  c #AA623E",
";  c #9A693E",
":  c #8B5B4C",
">  c #855847",
",  c #975D47",
"<  c #935F50",
"1  c #865F51",
"2  c #A05E46",
"3  c #95644D",
"4  c #9B664A",
"5  c #8A6657",
"6  c #946554",
"7  c #9C6B53",
"8  c #9A6C5A",
"9  c #976955",
"0  c #9D745B",
"q  c #99745A",
"w  c #8C7359",
"e  c #A46C4D",
"r  c #A76745",
"t  c #AB734B",
"y  c #B47C4B",
"u  c #B67A49",
"i  c #A36F54",
"p  c #AF6E57",
"a  c #A37254",
"s  c #AB7553",
"d  c #AD7A55",
"f  c #A3745A",
"g  c #A37B5B",
"h  c #AC7B5B",
"j  c #A77758",
"k  c #B47D55",
"l  c #B17955",
"z  c #8F6E61",
"x  c #897468",
"c  c #987565",
"v  c #857B74",
"b  c #A57A64",
"n  c #AD825B",
"m  c #AD855A",
"M  c #B58354",
"N  c #BA8555",
"B  c #B3845C",
"V  c #BA845A",
"C  c #B4895E",
"Z  c #BC8B5C",
"A  c #BF8B52",
"S  c #BC915E",
"D  c #BD804A",
"F  c #998876",
"G  c #938C7C",
"H  c #AB8566",
"J  c #B38462",
"K  c #B58A63",
"L  c #BB8C63",
"P  c #B88B69",
"I  c #BD9165",
"U  c #BD936A",
"Y  c #BA966B",
"T  c #A78B78",
"R  c #A7947B",
"E  c #B59679",
"W  c #B48F70",
"Q  c #C3844D",
"!  c #C28D5A",
"~  c #C28955",
"^  c #C2925C",
"/  c #C9985B",
"(  c #D09555",
")  c #C49464",
"_  c #C69964",
"`  c #CB9C63",
"'  c #C29469",
"]  c #C49A6C",
"[  c #CB9D6B",
"{  c #C89661",
"}  c #D19C63",
"|  c #D09E6C",
" . c #C39D71",
".. c #CA9E72",
"X. c #C39770",
"o. c #C28C61",
"O. c #CEA165",
"+. c #CDA26D",
"@. c #CAA66A",
"#. c #D3A364",
"$. c #D2A36C",
"%. c #D4AA6D",
"&. c #DAAB6D",
"*. c #DAAC67",
"=. c #C5A275",
"-. c #CDA473",
";. c #CCA579",
":. c #CDAB7C",
">. c #C8A778",
",. c #D1A572",
"<. c #D4AB74",
"1. c #DAAE75",
"2. c #D3AD7B",
"3. c #DAAD7B",
"4. c #D0A679",
"5. c #D5B176",
"6. c #D5B27C",
"7. c #DBB37C",
"8. c #DBB679",
"9. c #E5B77C",
"0. c #717A8D",
"q. c #5D6E84",
"w. c #7E838D",
"e. c #868687",
"r. c #989588",
"t. c #848B9B",
"y. c #979B98",
"u. c #8A9193",
"i. c #A49784",
"p. c #B39983",
"a. c #9EA29A",
"s. c #A6A28C",
"d. c #B6A88B",
"f. c #A9A79C",
"g. c #B6A997",
"h. c #979BA2",
"j. c #8D96A7",
"k. c #9DA4AF",
"l. c #AAABA6",
"z. c #B3AEA3",
"x. c #AFB1AB",
"c. c #B4B3AB",
"v. c #BBB7A9",
"b. c #BBBCB3",
"n. c #BEBDBC",
"m. c #B4B5B4",
"M. c #A6AAB3",
"N. c #C9AB84",
"B. c #D2AC82",
"V. c #CDB28C",
"C. c #D5B483",
"Z. c #DAB583",
"A. c #DBBA85",
"S. c #D6BA8B",
"D. c #DBBC8B",
"F. c #D8B688",
"G. c #C6AE97",
"H. c #C8B697",
"J. c #DCBE92",
"K. c #D5BB98",
"L. c #E1BB81",
"P. c #E2BD8B",
"I. c #E4BD91",
"U. c #C3BCAC",
"Y. c #C4B9A5",
"T. c #D3BBA7",
"R. c #C2BEB3",
"E. c #C1BCB8",
"W. c #C29F8A",
"Q. c #BCC0B9",
"!. c #DDC18E",
"~. c #DBC187",
"^. c #DEC393",
"/. c #DEC59B",
"(. c #DCC89D",
"). c #E1C38D",
"_. c #E3C182",
"`. c #E1C493",
"'. c #E1C995",
"]. c #E3C899",
"[. c #E3C69A",
"{. c #C6C1AC",
"}. c #D6C6A8",
"|. c #C4C2B4",
" X c #C4C4BB",
".X c #CBC5BA",
"XX c #CECBBC",
"oX c #C7C7B7",
"OX c #D3CCBB",
"+X c #D7C8B4",
"@X c #DBD2BD",
"#X c #D3D2BE",
"$X c #E2CCA2",
"%X c #E5CCAD",
"&X c #E9D5BB",
"*X c #E7CBB4",
"=X c #B7BBC5",
"-X c #C3C4C2",
";X c #CDCCC3",
":X c #CCCBCB",
">X c #C8C9C3",
",X c #D3CEC2",
"<X c #DBCDC5",
"1X c #D4D2C4",
"2X c #DBD4C4",
"3X c #D4D3CB",
"4X c #DAD6CC",
"5X c #DCDACC",
"6X c #DBD9C4",
"7X c #D4D4D2",
"8X c #DAD7D2",
"9X c #DDDCD3",
"0X c #DDDEDA",
"qX c #D7D9D6",
"wX c #CDCFD0",
"eX c #E3DCCC",
"rX c #EBDCCB",
"tX c #E4D8C5",
"yX c #F3DEC8",
"uX c #E2DDD3",
"iX c #E2DFDA",
"pX c #F3DFD4",
"aX c #DEE0DD",
"sX c #DDE2CB",
"dX c #E4E1D5",
"fX c #EAE3D4",
"gX c #E4E3DB",
"hX c #E9E5DC",
"jX c #ECE9DD",
"kX c #E9E8D7",
"lX c #F2EADC",
"zX c #F8E8D6",
"xX c #F0E1C9",
"cX c #E5E5E2",
"vX c #EAE6E3",
"bX c #ECEBE3",
"nX c #EDECEB",
"mX c #E7EAE3",
"MX c #F1EDE4",
"NX c #F2EFEA",
"BX c #EFF0EA",
"VX c #F4F1E5",
"CX c #F2F1EB",
"ZX c #F9F4E6",
"AX c #F3F2F2",
"SX c #F1EFF1",
"DX c None",
/* pixels */
"1.<.$.#./ } | ` [ [ +...] _ ' S L DXDXDXDXDXDXDXDXDXDXDXDXDXDXDXDXDXDXDXDXDXDXDXDXDXDXDXDXDXDXDXDXDXDXP =.C.F.D.^.`.^./.'.`.`.].",
"$.` ` / ` _ { Z ) ` ) ) I Z C DXDXDXDXDXDXDXDXDXDXDXDXDXDXDXDXDXDXDXDXDXDXDXDXDXDXDXDXDXDXDXDXDXDXDX` %.6.J./.$X$X(.$X[.'.'.!.P.",
"7.1.$./ _ { ^ ! Z Z Z L K DXDXDXDXDXDXw d.+XF Q.oXtXDXDXDXDXDXDXDXDXDXDXDXDXDXDXDXDXDXDXDXDXDXDX{ [ <.A.`.[.}.$X$X$X/.[.D.S.C.Z.",
"D.Z.<.} { ! N N k k DXDXDXDXc T.@X@X#Xs.1XsXR sXZX5XzXq l DXDXy s d n L S { [ [ _ _ S M y M M ! %.<.A.D./.}.].[.].^.J.J.S.C.6.6.",
"`.P.7.{ ~ y t t DXDXDXc }.zXY.eX{.#XoXlXoXQ. Xc.VXkXzXY #./ / u / ` <.<.<.C.Z.6.6.+.O.^ ^ ^ ` 1.8.A.F.J.`.^.I.J.J.J.S.S.S.F.N.2.",
"!.^.`.P.DXDXDXDXDX+XrX|.XX1X,XbXdXCXhXuXkXaXaXBXsXoXZX}.5.5.O./ / <.A.A.S.^.S.A.8.6.%.<.*.` O.<.1.<.C.C.F.C.Z.F.B.2.B.4.B.B.2.-.",
"`.[.`.`.P.k . }.lXMXjXXXtXv.lXfXz.kX5XXXgXgXsXgXsXVX4XrXS.1.O.#.O.6.A.A.A.!.S.6.6.6.+.^ A N V ! _ ,.4.4.4.-...' ' [ ) L ' ' ' ' ",
"!.!.].'.].I.4 &XZXgXdX8X9XgXhXbXz.5XdXQ.5XkXz.kX XMXqXjX!.1./ } #.&.5.5.6.6.<.5.<.,.[ ^ S C ;. .) [ ..[ ' L o.k k k p u l s t s ",
"J.).`.[.^.`.[.J.d.lX5XVXoXv.#XkXVXjX6X6X#X+X@X&Xs.kXzX&X` O.( #./ #.$.| $.$.,.| | ,.,.<.4.[.G.>.DXDXDXDXl u l r r e 2 , 2 4 DXDX",
"D.D.D.D.`.D.`.).(.ZXhXNXlXfX2XXX5XbXuX1X6Xd.d.yXR lXjXzX~ ( Q Q u Q u Q Q Q Q u u DXDXDXDXDXDXDXDXDXDXDXDXDXDXDXDXDXDX> DXDXDXk ",
"D.Z.D.P.`.].[.[.J.tXfXvXMXfXOX}.eXDXDX&X}.V.DXDXDXDXDXDXDXDXDXDXDX- - - - r = 2 DXDXDXDXDXDXDXDXDXDXDXDXDXDXDXDXDXDXDXDXDXDXDXP.",
"Z.3.<.7.Z.A.D.).^.>.%XxXDXDXDXDXDXDXDXDXDXDXDX<.8.5.<.DXDXDXDXDXDXDXDXDXDXDXDXDXDXDXDXF v uXuXiXDXDXDXDXDXDXDXDXDXDXDXDXDX@.^.S.",
"1.$.[ [ [ $.,.<.7.1._ P L 4.C.J./.].^.D.7.1.%.&.%.~.~.).'.'.'.).).DXDXL.L.L.L.7.1...b w o 8X4XvXhXDXDXDXDXDXDXDXDXDXDX5XyX'.'.[.",
"$.[ [ [ +.+.-.,.N.N. . .-.:.C.C.C.A.A.A.1.&.} &.%.-.8.~.^.^.'.'.'.`.)._.L.L.5.&.L.L.F.K.OXfXiX.XhX1XCXE.hX3XCXcXfXeXeXgXfX}./.J.",
"[ [ +.-.=.=.=.>.;.:.>.>.;.4.4.<.6.<.5.3.7.7.6.8.8.8.6.A.`.^.].`.`.P.).L.8.&.*.#.3.J.F.V.eXhXhXhXuX8Xe.$ cXnXbXMXoX}.xX4XeXJ.S.S.",
"<.-.-.-.=.=.=.Y  .=.=. .] ] ] =.-.+.@.+.+.%.%.5.5.6.5.A.D.!.D.D.A.A.A.8.&.#.&.*.3.).K.@X.XdXuXhXdX3X9XiXf.<X.X,XeXZXtX.X&X/.N.C.",
",.4.-.=.] I U P K P L L L U L L  .' I I S N k M M Z O.-.5.6.2.7.5.6.7.1.O.~ } ` 7.B.&X.X4XdXaX6X6X;XbXXXv.U.g.4X4XR.XX2XV.S.:.N.",
",.,.-.] I n h h h d s h k h k B B K P J L B B M d L S @.@.=.-.[ ,.+.,.$.} ~ } / @.C.R g.2X1X|.{.,X5Xb.bXCXlXg.VX8XhX5XjXN.=.;.=.",
"6.2.-.=.Y B e 3 5 DX  . < 9 i i j l d h n m C K I _ ' I I ' ' ) ' _ I ^ ! u y ! { -.=.R OXoXb.y.3XaXQ.Q.bXMXVXgXNXCXbXH.H.>.Y Y ",
"6.2.,.<.-.) k : DXDXDXDXDXDXDXDXDX1 8 0 0 0 0 0 q h n m C C B C Z V N N N V N V DXDXDXDXY.U.l.w.Q.f.v.G 4XhX|.jXMXeX4XrXH.X.L J ",
"Z.3.2.6.A.A.B.g DXDXDXDXDXDXDXDXDXDXDXDXo o + O O > O 1 > 5 8 DXDXDXDXDXDXDXDXDXDXDXDXDXf H T 5 R G G i.dXfXlXi.@XOX@XY.N.J b c ",
"3.Z.F.D.).^.!.S.V.. DXDXDXDXDXDXDXDXDXDXDXDXDXDXDXDXDXDXDXDXDXDXDXDXDXDXDXDXDXDXDXDXDXDX: < > . . T F kXz.oX2XrXi.Y.eXG.DXDXDXDX",
") | 3.A.^.^.!.!.`.J.S.DXDXDXDXDXDXDXDXDXDXDXDXDXDXDXDXDXDXDXDXDXDXDXDXDXDXDXDXDXDXDXDXDX: : 3 9 q q R tXxXi.1XrXY.@XrXDXDXDXDXDX",
"o.k I -.C.D.P.D.^.^.J.!.DXDXDXDXDXDXDXDXDXDXDXDXDXDXDXDXDXDXDXDXDXDXDXDXDXDXDXDXDXDXDXDXC g g g K C C E p.E R i.rXDXDXDXDXDXDXDX",
"' ' ' P ..2.C.D.D.D.^.D.^.D.A.N.DXDXDXDXDXDXDXDXDXDXDXDXDXDXDXDXDXDXDXMXCXlXtX}./.] ,.[ L K J J K n J h W E E DXDXDXDXDXDXDXDXDX",
"' Y Y P I U ..:.C.F.J.^.!.!.^.~.A.(.DXDXDXDXDXDXDXDXDXDXDXDX1XbXSXnX5XXX{.{.+XV.;.<.^ ) S N M V n n H g f q DXDXDXDXDXDXDXDXDXDX",
"K U W P K K I Y ] ;.6.C.A.C.A.L.A.}.+XOXU.jXMXVXhX1X;XvXgXbXMXnXCXbX3XhX.X}.K.4.1.` { ! N C h j f 0 c + DXDXDXDXDXDXDXDXDXDXDXJ.",
"K J J J n n K W I ] @.=.2.6.7.1.S K.}.}.eXCXnXSXAXSXqXbXnXBXmXnXnXbX3XbX<XOXK.2.&.} Z ! B g yXrXG.DXDXDXDXDXDXDXDXDXDXDXDX+XV.!.",
"DXDXDXDXDXDXDXh M B C ' ] [ -.,.6.(.Y.VXMXSXBXmXnXBXbXnXnXnXvXCXSXnXgXCXhXiXrXyX$X .Y J G.@Xf.c.DXDXDXDXDXDXDXDXDXDXDXDX&X .,._ ",
"DXDXDXDXDXDXDXDXDXDXn B B B L ) 2.}.iXbXbXMXSXBXNXCXsXhXvXnX8XhXbXbXCXCXiXfXOX+X@X&XMXhX5Xb.wX:Xl.DXDXDXDXDXDXDXDXDXDXDXk V ^ S ",
"2.DXDXDXDXDXDXDXDXDXDXDXh h s t B m H.MX.XhXnXVXbXhXU.v.vXbXmXbXcXgXmXbXbX1XoXOXv..XSXcXE.:Xb.-XDXDXDXDXDXDXDXDXDXDX5 e s d V ` ",
";.DXDXDXDXDXDXDXDXDXDXDXDXj f 4 , > d.Y.Y.U.|.v.v.vXbXhXCX:XnXmXmXbXhX9Xf..XOX|..Xl.cXnX:X7XDXDXDXDXDXDXDXDXDXDXDX5 7 i i a k d ",
";.2.A.DXDXDXDXDXDXDXDXDXDXDXDXDXa 9 > g.H.v.{.U.,X9XMXhXgXCXbX5XbXgX6Xf.z.|.Q.1Xb.r.b.9X-XDXDXDXDXDXDXDXDXDXDXDXDX4 7 7 i a j j ",
"] 4.D.^.DXDXDXDXDXDXDXDXDXDXDXDXDXDXa c Y.1XuXiXhXhXvXvXvXqX.XOXuXR.f.c.3X;X.XCXcX0X XwX>XDXDXDXDXDXDXDXDXDXDXDX: 7 6 3 7 a h f ",
"B ] 2.Z.D.!.DXDXDXDXDXDXDXDXDXDXDXDXDX3 p.Y.aX|.8X8XgXdX5XiXbX5X{.& f.oX5XdX7XAXAX:X8XDXDXDXDXDXDXDXDXDXDXDXDX: e r i : < f f i ",
"P ' -.-.C.S.A.Z.DXDXDXDXDXDXDXDXDXDXDXDXDXY.dXv.hXhX3XXXgX;X<X+ x s.sXjXmX9X9XBXnXaXDXDXDXDXDXDXDXDXDXDX:XhXpX6 4 i 4 f 3 8 8 c ",
"b P ' ' +.$.@.6.~.%.DXDXDXDXDXDXDXDXDXDXDXDXDXDXDXDXdX3X5XuXT > O f.3XnXSXvXqXc.7XDXDXDXDXDXDXDXDXDXDX8X9X3X.X+ T.yXT.b 6 8 c DX",
"8 f B L L M ^ L M %.5./ DXDXDXDXDXDXDXDXDXDXDXDXDXDXDXr.R.R.1 : > + <X4XmX7XoXDXDXDXDXDXDXDXDXDXDXnXgX4XhX8X6Xv.g.z.r.T.*Xx DXDX",
"c 8 0 b h h t 4 t M M %.@.DXDXDXDXDXDXDXDXDXDXDXDXDXDXDXDXDXDX5 < < 6 1 F DXDXDXDXDXDXDXDXDXDXDXnX0X9XiX8X3X6XoXc.E.R.z..Xe.DXDX",
"+ x c 8 7 0 J [ ' 4 o.^ { <.7.Z.DXDXDXDXDXDXDXDXDXDXDXDXDXDXDXDXDXDXDXDXDXDXDXDXDXDXDXDXDXDXBX:XgX0XqXqX;XqXwX>X>XE.x.m.z.DXDXDX",
"DXDXDXDXc 9 6 g n L M ! $.<.7.Z.1.N.v u.DXDXDXDXDXDXDXDXDXDXDXDXDXDXDXDXDXDXDXDXDXDXDXDX9XBXSXnXgXuX:X=XaXwXy.u.x.m.=Xm.DXDXDXDX",
"DXDXDXDXDX8 3 : f B M ] _ @.$.-.8.7.N.x & # @ DXDXDXDXDXDXDXDXDXDXDXDXDXDXDXDXDXDXDXDXNX7XbXnXqX>XgXqXh.j.j.k.q.# =X=XDXDXDXDXDX",
"DXDXDXDXDXDXDX9 < 9 d o.o.) ) <.3.7.7.F.F 0.& r.e.DXDXDXDXDXDXDXDXDXDXDXDXDXDXDXDXDXcX3X:X:X:X3X7X XqXw.t.w.0.q.# =XDXDXDXDXDXDX",
"DXDXDXDXDXDXDXDX9 8 i h d Z Z ` ,.2.6.7.Z.p.c.f.u.f.DXDXDXDXDXDXDXDXDXDXDXDXDXDXDX0XaXn.b.l.m.;XnXSXqX0.M.t.# 0.t.DXDXDXDXDXDXDX",
"DXDXDXDXDXDXDXDXDXz 6 7 e r V V { ` B.S.F.K.zX9XQ.Q.5XDXDXDXDXDXDXDXDXDXDXDXDXDXCXmXaXqX-Xm.x.b.3XnXwXj.0.:XM.DXDXDXDXDXDXDXDXDX",
"DXDXDXDXDXDXDXDXDXDXx z 8 p s k V I E T.+XG.v.dXMXv.dX9X3X% DXDXDXDXDXDXDXDXDXDXDXnXcXgX3X>Xm.x.:X7Xt.j.M.h.DXDXDXDXDXDXDXDXDXDX",
"DXDXDXDXDXDXDXDXDXDXDXDX& 9 0 f h J rXuXgXXXhXvXvXjXgXgXe.u.DXDXDXDXDXDXDXDXDXDXDX=XmX8XmXqXwX-Xn.8X$ =Xk.DXDXDXDXDXDXDXDXDXDXDX",
"DXDXDXDXDXDXDXDXDXDXDXDXDXDXz 8 f b Y.iXmXhXhXjXvXgX6XsX9XQ.DXDXDXDXDXDXDXDXDXDXDXDXy.mXcXcXaXQ.n.:Xx.=XDXDXDXDXDXDXDXDXDXDXDXDX",
"DXDXDXDXDXDXDXDXDXDXDXDXDXDXDXDXx x r.uXeXuXuXeX5XfXfX9XMXgXgXDXDXDXDXDXDXDXDXDXDXDXDX* l.m.gX8X:X8XwXDXDXDXDXDXDXDXDXDXDXDXDXDX",
"DXDXDXDXDXDXDXDXDXDXDXDXDXDXDXDXDXw.a.G uX4XeX5Xz.eX4XkXgX5Xy.DXDXDXDXDXDXDXDXDXDXDXDXX k.$ w.=X3XwX0.DXDXDXDXDXDXDXDXDXDXDXDXDX",
"DXDXDXDXDXDXDXDXDXDXDXDXDXDXDXDXDXu.y.aX8XhX5X1X4X2XjXkXdXaXl.DXDXDXDXDXDXDXDXDXDXDXDXDXDXDXDXDXDX-XDXDXDXDXDXDXDXDXDXDXDXDXDXDX",
"DXDXDXDXDXDXDXDXDXDXDXDXDXDXDXDXDX& |.sX;XOXuXfX2XfX5X5XiX9X0XDXDXDXDXDXDXDXDXDXDXDXDXDXDXDXDXDXDXDXDXDXDXDXDXDXDXDXDXDXDXDXDXDX",
"DXDXDXDXDXDXDXDXDXDXDXDXDXDXDXDXDXDXDX>X;X5X1X6X#XeX6XuXuXeXDXDXDXDXDXDXDXDXDXDXDXDXDXDXDXDXDXDXDXDXDXDXDXDXDXDXDXDXDXDXDXDXDXDX",
"DXDXDXDXDXDXDXDXDXDXDXDXDXDXDXDXDXDXDXDXDX1X#X1X#X|.XX3X>XDXDXDXDXDXDXDXDXDXDXDXDXDXDXDXDXDXDXDXDXDXDXDXDXDXDXDXDXDXDXDXDXDXDXDX",
"DXDXDXDXDXDXDXDXDXDXDXDXDXDXDXDXDXDXDXDXDXDX1Xb.5X3XwXy.DXDXDXDXDXDXDXDXDXDXDXDXDXDXDXDXDXDXDXDXDXDXDXDXDXDXDXDXDXDXDXDXDXDXDXDX",
"DXDXDXDXDXDXDXDXDXDXDXDXDXDXDXDXDXDXDXDXDXDXDXDXDXDXDXDXDXDXDXDXDXDXDXDXDXDXDXDXDXDXDXDXDXDXDXDXDXDXDXDXDXDXDXDXDXDXDXDXDXDXDXDX",
"DXDXDXDXDXDXDXDXDXDXDXDXDXDXDXDXDXDXDXDXDXDXDXDXDXDXDXDXDXDXDXDXDXDXDXDXDXDXDXDXDXDXDXDXDXDXDXDXDXDXDXDXDXDXDXDXDXDXDXDXDXDXDXDX",
"DXDXDXDXDXDXDXDXDXDXDXDXDXDXDXDXDXDXDXDXDXDXDXDXDXDXDXDXDXDXDXDXDXDXDXDXDXDXDXDXDXDXDXDXDXDXDXDXDXDXDXDXDXDXDXDXDXDXDXDXDXDXDXDX",
"DXDXDXDXDXDXDXDXDXDXDXDXDXDXDXDXDXDXDXDXDXDXDXDXDXDXDXDXDXDXDXDXDXDXDXDXDXDXDXDXDXDXDXDXDXDXDXDXDXDXDXDXDXDXDXDXDXDXDXDXDXDXDXDX",
"DXDXDXDXDXDXDXDXDXDXDXDXDXDXDXDXDXDXDXDXDXDXDXDXDXDXDXDXDXDXDXDXDXDXDXDXDXDXDXDXDXDXDXDXDXDXDXDXDXDXDXDXDXDXDXDXDXDXDXDXDXDXDXDX",
"DXDXDXDXDXDXDXDXDXDXDXDXDXDXDXDXDXDXDXDXDXDXDXDXDXDXDXDXDXDXDXDXDXDXDXDXDXDXDXDXDXDXDXDXDXDXDXDXDXDXDXDXDXDXDXDXDXDXDXDXDXDXDXDX",
"DXDXDXDXDXDXDXDXDXDXDXDXDXDXDXDXDXDXDXDXDXDXDXDXDXDXDXDXDXDXDXDXDXDXDXDXDXDXDXDXDXDXDXDXDXDXDXDXDXDXDXDXDXDXDXDXDXDXDXDXDXDXDXDX",
"DXDXDXDXDXDXDXDXDXDXDXDXDXDXDXDXDXDXDXDXDXDXDXDXDXDXDXDXDXDXDXDXDXDXDXDXDXDXDXDXDXDXDXDXDXDXDXDXDXDXDXDXDXDXDXDXDXDXDXDXDXDXDXDX",
"DXDXDXDXDXDXDXDXDXDXDXDXDXDXDXDXDXDXDXDXDXDXDXDXDXDXDXDXDXDXDXDXDXDXDXDXDXDXDXDXDXDXDXDXDXDXDXDXDXDXDXDXDXDXDXDXDXDXDXDXDXDXDXDX"
};
