/* XPM */
static char *Screenshot_2025_05_20_at_22_05_13_1_png1747772043[] = {
/* columns rows colors chars-per-pixel */
"64 64 249 2 ",
"   c #160203",
".  c #2D0307",
"X  c #3B0401",
"o  c #460200",
"O  c #4C0402",
"+  c #570500",
"@  c #5B0201",
"#  c #5A1600",
"$  c #640401",
"%  c #6B0402",
"&  c #6C0A02",
"*  c #680805",
"=  c #740403",
"-  c #7C0503",
";  c #750A02",
":  c #7B0A03",
">  c #7D0409",
",  c #7D0C08",
"<  c #771704",
"1  c #830403",
"2  c #8B0503",
"3  c #830A03",
"4  c #8D0A04",
"5  c #830508",
"6  c #870909",
"7  c #940503",
"8  c #9B0502",
"9  c #940904",
"0  c #9B0902",
"q  c #970909",
"w  c #841402",
"e  c #8D1503",
"r  c #8D1A04",
"t  c #951605",
"y  c #8A1715",
"u  c #A40501",
"i  c #AB0602",
"p  c #A40A03",
"a  c #AB0A03",
"s  c #A20809",
"d  c #B30502",
"f  c #BB0502",
"g  c #B40B02",
"h  c #BB0B03",
"j  c #B5070A",
"k  c #AA1706",
"l  c #B51400",
"z  c #BD1302",
"x  c #BD1B03",
"c  c #BB170A",
"v  c #8C2706",
"b  c #962605",
"n  c #A82805",
"m  c #B82506",
"M  c #A53407",
"N  c #C60705",
"B  c #C30B04",
"V  c #CB0B04",
"C  c #D10A05",
"Z  c #C31403",
"A  c #CD1303",
"S  c #C51C02",
"D  c #CB1C03",
"F  c #C81809",
"G  c #D31403",
"H  c #D31C03",
"J  c #D81B07",
"K  c #C61A11",
"L  c #C42202",
"P  c #CC2302",
"I  c #C52B01",
"U  c #CC2A02",
"Y  c #CB250B",
"T  c #D32302",
"R  c #DB2503",
"E  c #D42C03",
"W  c #DB2D02",
"Q  c #DB260A",
"!  c #D42B09",
"~  c #CC3802",
"^  c #D53402",
"/  c #DC3403",
"(  c #D43A03",
")  c #DB3B03",
"_  c #DB3709",
"`  c #E22C03",
"'  c #E32908",
"]  c #E43404",
"[  c #E33B03",
"{  c #E93B04",
"}  c #E63608",
"|  c #E53A0A",
" . c #F63D03",
".. c #F0300E",
"X. c #AA4206",
"o. c #BA4D10",
"O. c #DC4203",
"+. c #DB4C02",
"@. c #D94708",
"#. c #CC550A",
"$. c #DD540B",
"%. c #E44404",
"&. c #EC4406",
"*. c #E44B04",
"=. c #EB4B03",
"-. c #E44409",
";. c #EC450A",
":. c #E44C0C",
">. c #EB4B0A",
",. c #F24804",
"<. c #F24D0A",
"1. c #E45404",
"2. c #EB5404",
"3. c #EB5A04",
"4. c #EB550C",
"5. c #E45A09",
"6. c #ED5B0A",
"7. c #F15306",
"8. c #FB5404",
"9. c #F25B04",
"0. c #F15409",
"q. c #F25C0C",
"w. c #FA4511",
"e. c #E95616",
"r. c #EC5C13",
"t. c #F25D13",
"y. c #EC6305",
"u. c #EC6A07",
"i. c #EC630B",
"p. c #ED6B0A",
"a. c #F3640B",
"s. c #F66608",
"d. c #FB650E",
"f. c #F3720C",
"g. c #EC6415",
"h. c #EA6719",
"j. c #EB6D1C",
"k. c #F36414",
"l. c #F46B15",
"z. c #FA6D13",
"x. c #F3651A",
"c. c #F16B1B",
"v. c #FB6919",
"b. c #EC7418",
"n. c #F47216",
"m. c #F3731A",
"M. c #FC761A",
"N. c #F37B1D",
"B. c #E85F2A",
"V. c #E96926",
"C. c #F66D23",
"Z. c #EA7322",
"A. c #EB7B26",
"S. c #EC732C",
"D. c #ED7A2A",
"F. c #FB7324",
"G. c #F37A23",
"H. c #F2732B",
"J. c #F37D2C",
"K. c #F87928",
"L. c #EC6E39",
"P. c #EC7B33",
"I. c #EA7837",
"U. c #F37933",
"Y. c #DD6849",
"T. c #EA7447",
"R. c #E8794A",
"E. c #D97E6E",
"W. c #EA8112",
"Q. c #EE842B",
"!. c #EC832C",
"~. c #F38325",
"^. c #F2832D",
"/. c #FB872C",
"(. c #ED8435",
"). c #E78936",
"_. c #EB8C35",
"`. c #EC843B",
"'. c #ED8A3B",
"]. c #F68835",
"[. c #F08E3D",
"{. c #EF903A",
"}. c #EB8B43",
"|. c #E88846",
" X c #F68B46",
".X c #EB9244",
"XX c #EF954D",
"oX c #F2944B",
"OX c #E98755",
"+X c #F28B51",
"@X c #EA9755",
"#X c #F79756",
"$X c #DF886E",
"%X c #E98765",
"&X c #EB9B66",
"*X c #E28E78",
"=X c #E79C76",
"-X c #F0A66A",
";X c #E8A37A",
":X c #EAA97D",
">X c #DF9184",
",X c #E59884",
"<X c #E69793",
"1X c #DCA692",
"2X c #E7A789",
"3X c #E1AC8B",
"4X c #EDB185",
"5X c #E5A89A",
"6X c #EAB59A",
"7X c #D7ADA8",
"8X c #D8B5A9",
"9X c #DBBFBB",
"0X c #E1ADAD",
"qX c #E5B6A9",
"wX c #E2B8B5",
"eX c #E3BBB8",
"rX c #DBC7BF",
"tX c #E5C2BE",
"yX c #DFB9C0",
"uX c #E1B9C0",
"iX c #DCC4C5",
"pX c #DDCAC3",
"aX c #DEC5C9",
"sX c #DEC9CC",
"dX c #DCC6D2",
"fX c #D9C7D6",
"gX c #DEC9D4",
"hX c #DECCD8",
"jX c #DDD2DA",
"kX c #E3C8C5",
"lX c #E1C6CC",
"zX c #E1CACE",
"xX c #E5C9D2",
"cX c #E2CCD3",
"vX c #E1CDD9",
"bX c #E4D1D5",
"nX c #E9D4D6",
"mX c #E5D3DB",
"MX c #E9D5DC",
"NX c #E7D8DF",
"BX c #E9D8DF",
"VX c #E3CCE1",
"CX c #E6D6E1",
"ZX c #E9D7E2",
"AX c #E6D9E4",
"SX c #EAD9E4",
"DX c #E7DBE8",
"FX c #EBDDE9",
"GX c #EBE0ED",
/* pixels */
"mXhXhXvXjXmXCXZXZXSXZXCXZXSXAXFXFXMXZXZXMXZXSXSXSXSXFXSXFXFXvXvXvXvXhXhXgXvXxXgXgXvXdXgXfXfXxXdXfXfXgXfXgXgXgXgXgXdXdXdXdXdXdXdX",
"mXhXhXmXmXCXCXAXFXSXZXmXZXSXZXFXSXmXMXMXZXSXZXSXSXSXZXSXFXFXgXgXgXgXxXhXgXgXgXgXgXgXgXxXfXxXdXgXxXgXgXgXgXgXgXdXgXdXgXdXdXfXdXdX",
"jXhXhXmXNXZXZXFXSXZXmXZXSXSXFXSXMXmXMXMXZXZXZXSXZXFXSXFXFXFXfXfXgXgXgXxXgXdXgXgXgXgXgXgXxXgXdXdXdXgXgXgXdXgXhXdXfXgXdXdXdXdXdXdX",
"gXgXhXCXZXSXSXBXNXmXZXCXNXSXFXSXmXmXMXZXMXZXSXSXZXSXSXSXFXVXvXxXxXgXdXdXdXdXdXgXxXgXgXgXfXdXxXfXgXdXgXgXgXhXdXhXgXdXdXdXfXdXdXdX",
"gXvXmXCXSXSXZXBXMXmXNXCXZXFXFXNXMXmXMXMXMXNXSXZXSXSXSXFXFXmXxXfXgXgXgXlXiXsXdXgXgXgXgXgXdXdXgXgXvXdXgXgXgXgXfXfXdXfXdXdXdXfXyXfX",
"gXmXNXFXFXSXCXmXMXMXmXCXZXZXSXmXMXMXMXVXMXZXSXSXSXZXSXSXGXuXxXxXgXfXwX2X.X;XrXdXfXsXgXdXgXvXdXgXgXgXgXgXfXgXhXhXdXdXdXdXiXfXdXfX",
"gXNXSXSXZXnXmXnXmXmXMXZXZXFXMXMXMXMXMXMXZXMXSXSXZXGXFXSXGXuXxXfXfX%XZ.|.'.'.|.B.9XdXsXdXdXgXdXgXvXgXvXgXvXgXfXVXdXdXdXdXiXdXdXdX",
"jXFXFXBXnXmXbXbXmXmXMXZXFXNXMXMXMXMXZXMXZXSXSXSXZXuX>X<X>X{ Y.<Xe.e.j.S.S.S.V.@.$.h.V.R.5XyXdXdXdXgXgXgXgXgXvXyXyXdXdXfXfXdXdXfX",
"BXGXNXbXbXgXmXmXmXZXNXSXSXmXmXMXCXNXNXZXMXZXaXE.R.I.L.h.e.( ~ I ( } t.&.=.7.F.~ ~ @.3.Z.P.(.=X=X5XdXgXvXgXgXxXfXfXfXgXgXgXgXfXdX",
"CXmXbXcXzXcXmXnXZXCXFXFXbXnXmXmXmXCXMXMXcXOXI.$.@.e.e.) ^ ( $.k.S E [ ` / q.#XO.L ^ r.j.(.Q.Z.+.j.=XhXgXgXgXvXgXfXfXgXgXhXfXgXfX",
"mXbXjXcXbXmXnXNXZXFXMXcXvXnXmXmXnXmXjXmX%XU.H.U.I ( C.$.m =.) 2.L Z q.) D &.<.) g | %.q.l.n.O.5.(.D.2XfXvXvXgXgXgXgXgXgXgXgXgXgX",
"mXmXmXmXnXNXBXAXSXmXmXbXvXnXmXnXmX7XS.h.I.H.x.&.! x r.M.P /.k.Z g ! a.6.l.T T L z T W ] [ *._ 2.p.A.(.uXvXhXgXhXjXgXgXgXgXgXvXgX",
"AXNXNXNXNXSXBXCXmXbXmXbXnXnXVXmX8Xh.e.) 4.;.;.W P u :.l.E { &.8 2.-.z.[ a.P k.l g P T T / ! P [ 2.m.J.OX>X0XsXgXgXhXhXhXvXgXvXvX",
"AXZXZXBXZXBXnXbXbXnXmXmXmXmXmXmXV.r.%._ E T W 2.M.t.-.0.H f D k.U A ] H h ` s.2.u =.I g _ _ F / >.6.k.~ @.h.=XsXhXhXhXhXgXvXgXgX",
"FXCXSXNXbXcXbXbXmXmXmXbXmXAXjX,X%.-.! U D Z B 7.9.H J J C f ! ) d.d H d.i G &.,.8 W I Z z.d.d E &.s.) m @.h. XqXgXhXhXhXhXvXcXgX",
"NXnXbXbXbXbXbXnXmXmXmXmXvXyX0XB.-._ U @.@.Y z d.7.H f C C N i G f g h J d f C R 7 G p g 9.l d f ] &.x L ^ 5.H.=XgXmXhXmXgXgXgXvX",
"bXbXbXbXbXbXbXnXMXMXMXxX*XH.V.O.( ^ L ( 5.7.M.R ' C f N C N j B f g u d ..d N w.7 h Y E q.l g f F D u x ^ +.5.tXbXgXmXgXhXvXvXgX",
"cXbXnXbXnXnXnXnXMXMXnX5XS.h.:.^ ) ) ^ x -.[ ` V C C N N B C u h d 0 0 a d 8 g h 7 B ;.) &.x u D ] i P >.J.P.P.%XdXcXgXvXvXgXhXvX",
"cXnXnXnXnXnXnXNXMXMXMXR.r.*.[ b.Z.j.F.W 8.] N N V V V h d u 7 i u 9 9 8 i u u p 0 N B H z.m 9 D ) d ` >.h.A.!.(.=XcXgXvXmXvXvXvX",
"bXbXnXnXBXBXnXBXBXBXSX>X:./ x.C.+.6.l./ H V N f f B f 8 q 9 5 1 2 4 5 4 2 2 2 9 i ' h A  .0 8 <.l f W ) g.P.D.H.~.cXcXvXvXvXvXvX",
"cXbXnXmXBXNXBXBXZXMXFXwX) W F.C.k.q.&.] h d B f % d 4 > 2 - - q 4 2 7 2 = 4 2 9 f i a B } k i 8.7 g D >.k.r.O.+.<XsXhXhXmXvXhXvX",
"cXbXbXmXnXnXNXBXFXFXVXB.) P W [ >.W F. .V f h u 8 0 1 0 3 : > k 1 2 5 > 4 2 4 7 B 4 0 d T 9 &.k 8 g E ^ I l ~ h.sXgXmXCXmXmXmXvX",
"bXbXmXmXmXmXBXBXCXjXT.) I g Z [ z.] G N V B d 7 7 9 t e 4 1 = = n = 1 r = n 2 1 7 5 H u 0 a h | q.T >.%.+.U O.$.A.eXmXmXCXmXvXvX",
"bXbXmXnXmXnXNXNXhXR.g.( L g 0.%.` F B h f d 8 9 2 m n - = % % = = * $ % = 3 3 > 4 - p q ..p i [ S T ;.C.}.{.$.i.(. XwXCXmXmXvXmX",
"GXNXmXjXCXmXCXCX$Xe.O.I V.K.] Z B j d g u 2 7 2 1 t = > = = * * % ; , ; ; - % % > 1 0 h D q ` u d T ) t.{.oX^.$.b.U.#XvXmXnXvXvX",
"GXGXFXAXCXCXhXfXI.h./ U &.4.] } | h a p 4 1 2 = = 3 > = = = * , & b * = e : m : 4 2 B u 5 8 i c %.d ! 2.].#XA.+.$.h. XzXmXvXnXbX",
"nXNXDXFXDXDXAX%X+XH.>./ 0.F.;.Z h f d a 7 > 5 w ; 1 3 % 3 + O + + o ; X 3 = ; % 2 2 9 5 p x u R u P +.6.~./.+.n.P.2XtXcXmXmXmXVX",
"pXjXbXmXZXCXdXh.Z.k._ E T ! F B j d d a 2 1 1 n r = % & & ; O # < v v % 3 = $ 4 7 9 2 S ! { Y 8 S %.z././.O.+.!.@XbXvXcXnXmXMXZX",
"pXrXpXrXpXrX`.V.*._ ) q.E -.R f J F u u 4 1 9 , = = b & o X       o #.% $ ; t = 4 1 s D i L 2 p H ^ 3././.$.u.)..XtXbXcXvXmXmXnX",
"pXpXpXpXrX3X`.V.*./ U S ) d.;.J f f a p 0 2 3 t e % r v + X   . o M v e ; $ = = 2 7 Z 7 8 1 s V &.l.%.M.M.) u.Q.).'.tXcXvXbXvXnX",
"pXpXsXpXpXrXZ.#.@.].F.=._ W T h g d u i 6 2 k & y * @ b & O # < X.M ; $ e , = % 2 8 p 0 a 9 h R 9.U ! q.6.@.i.~.Q..X4XcXbXbXvXmX",
"pXpXsXpXiX7Xh.+.S :.e.t.%.! Z E i u u 0 > - 0 $ & n @ w w M #.& v M t = - % % 7 1 1 1 f ,.u p g d f / =.E @.1.5.p..X4XxXvXvXbXmX",
"pXpXbXsXzX1XS.g.*.I x l i u x Z ] Q a u 7 = 0 - < < w % e = r : b - ; % @ % 1 : 2 i h i u Z 8 i C ` 7.M.4.^ ) 1.u.^.qXbXbXmXcXmX",
"bXbXbXbXbXiXP.j.*.^ 5.%.>.E L %.Y a p 0 0 1 0 o.w , ; 3 < t : r 3 , % k 3 5 k 0 8 g  .p j } j B G ' ,.z.f.^ 2.b.!.-XvXbXbXbXbXcX",
"nXbXbXbXbXbX|.H.:.E S t.K.7.[ L E g a u u 0 0 = 4 = = ; : % 1 @ % @ % = k - 0 s 1 p j x P a h V J ] 0.a.+.^ 6.Q..XgXbXbXbXmXbXcX",
"bXnXnXmXnXbX=Xg.O./ S l P S u S u u U d d 8 a 9 9 m : @ , 6 3 % X : % > 2 h 0 2 p q T F h d h G ' { =.q.^ %.i.Q.@XbXbXcXcXcXbXbX",
"nXnXnXNXMXMXbXxXkX,XD h d d ^ &.Y i S a p 2 6 0 2 5 t % - k - % 5 ; - 9 7 d ` l <.7 0 / <.h V R ] ,.7.) ) 1.n.].-XcXnXbXnXbXbXbX",
"bXnXnXNXMXMXnXmXeX[ W W P T z.D u ` p 8 8 0 1 5 4 0 1 9 7 2 % 3 > - = > 1 Z L 8 0 8 f j f % 7 V C 8 V [ %.g. X6XbXbXcXcXcXbXbXvX",
"nXnXmXNXMXMXmXNXY.4.*.[ W P =.E d E W z u 7 9 0 9 0 2 2 3 3 2 5 K 2 9 i 7 u 0 Z z h { ] N A V 8 | [ C n.[.[.eXnXnXbXbXcXcXcXbXnX",
"nXNXnXNXmXmXMXxXg.H.g.>.^ Z [ W T S h L W D D a 0 p i 7 1 a 0 1 4 2 Z z l A G u d F ] 7.[ 7 ] 7.q.q.*.y.eXnXnXbXbXcXcXbXcXcXvXxX",
"mXmXmXMXMXmXMXeXD.(.H.4.-.*.G.a./ { <.] / c S Z 0 h u u 1 4 1 f g 7 g 7 2 H 8.d B R v.#X=.T [ 3.N._.D.n.eXeXMXbXcXcXzXbXcXcXbXbX",
"BXmXMXmXnXmXbXwX(.`.`.H.4.U.#XK.&.R g 2 q u p l 8 7 z u g u 2 8 i h T 7 d d f N V G ;. X) E &.9.N.m.:X].[.eXbXzXcXcXbXcXbXbXbXcX",
"nXNXmXMXmXbXmXzX3X8XI.+X,Xh. Xv.^ z u 8 -./ u i D H g E ! h 4 d ' ] l i ] Q C G ` ] ..8 [ 7 2.y.3X:X:X6X[.eXcXzXzXbXcXbXcXbXvXbX",
"mXnXMXMXMXMXmXbXmXcXP.lX] [ / T D h i ] ] l W T 4.k 0 7 [ D 5 S 8.i h g 9.W G } { 7.z.T ) 2.u.b.!. X:Xy.:XeXbXzXbXzXbXzXvXvXbXcX",
"nXmXnXmXmXmXmXmXbXzXqX<Xr.4.%.&.} Y [ 9.E ! 4.W h g u 8 { d 8 d B V J z f N ] 0.a.l.].) %.9.M. X{.[.y.[.eXeXcXcXbXzXzXbXcXcXbXvX",
"mXmXmXbXnXbXnXnXnXzXxXOXP.S.j.i._ P W H h f f / &.] d u | d V G J ] ] F B P W a.N.].].) &.y.~.[.{.[.[.eXeXbXzXcXcXcXbXcXbXcXbXcX",
"nXnXbXmXnXbXcXzXcXzXbX=X|.}.}.q.) ;./ W W J W a.z.z h f A V ] { | 0.0.h H ` ] P P G.y.*.2.u.^.n.y.[.eXcXbXsXbXzXzXbXbXcXcXbXcXvX",
"nXvXnXcXzXzXzXzXcXcXbXqX.X|.A.3.b.*.[ >.{ &.| E Z f J H J H ,.v.z.K.4.Z D ;.3.L.#X&.2.y.n.}.{.[.3XcXcXcXzXcXzXcXzXcXcXcXbXgXbXcX",
"lXcXzXzXgXsXsXgXcXbXcXzX;XA.b.).b.^ 2.J.k.z.%.z Z R { { { [ d.~.]./.[ [ ) *.m.U y.[.[.;X_.2Xn.n.zXzXzXzXzXcXzXzXbXzXbXcXcXbXxXvX",
"xXlXsXsXsXsXsXsXcXcXcXcXzX:X).b.3.2.i.@X'.m.E | ] &.k.q.q.q.9.t.M.*.) y.u.u.N.|.[.a.n.~.y.[.[.zXzXzXzXcXcXzXcXcXcXbXcXcXbXcXcXcX",
"gXsXsXsXsXiXiXsXzXcXbXcXcXzXpX(.~.N.l._.`.1.3.q.=.r.].].^.J.n.~ / [ +.p.~.W.b.:XsXlX:Xn.y.:XzXsXzXcXzXzXcXzXcXcXzXxXcXcXcXcXvXcX",
"sXsXsXiXsXiXsXsXcXbXcXbXbXjXdX=X(.(.'.6X2XN.Q.^.G.3.H.}.XXXXg.) *.2.y.f.&X@X:XiXzXcXzXeXeXzXzXsXcXsXcXsXzXcXcXcXnXcXcXvXvXcXcXcX",
"iXsXiXsXiXsXsXsXzXvXcXcXcXzXbXfX4X2XkXzXkX@X{.'._.3.2.a.XX&X*.3.3.f.f.].iXsXaXsXlXsXzXzXzXzXzXcXsXsXzXzXzXcXbXbXxXcXcXcXcXvXzXzX",
"sXiXsXsXiXiXiXsXzXcXbXcXcXvXbXzXbXxXxXcXzX8X{.{.Q.m.c.U.lXvX2Xn.f.!.~.qXsXzXsXlXlXzXsXzXsXcXsXzXzXzXsXsXzXcXvXxXcXdXcXcXcXsXcXzX",
"iXsXsXsXsXiXsXiXzXzXcXcXxXnXcXcXbXcXxXbXbXzX@X.X.XoX&XkXvXvXvXwX3X3XwXpXlXaXzXlXlXzXzXzXzXsXcXsXzXsXpXkXzXcXxXlXlXvXvXcXcXxXzXzX",
"iXsXgXsXiXiXiXiXzXcXzXcXcXcXxXcXxXxXbXxXbXxXkX3X-X6XkXzXzXzXcXzXlXaXkXzXlXaXkXaXlXaXsXzXzXzXsXzXsXcXsXsXzXzXzXzXlXxXlXcXlXzXzXzX",
"sXvXbXsXcXiXiXaXzXzXcXcXbXxXbXxXcXbXxXxXcXnXxXbXkXzXzXzXzXxXlXaXlXaXlXlXlXlXyXlXaXaXlXzXzXzXzXzXzXsXiXaXaXlXzXzXcXlXlXxXcXcXlXlX",
"cXsXsXcXcXsXsXsXzXzXcXzXxXbXxXbXbXcXvXbXxXvXcXbXbXxXzXzXzXzXlXlXlXiXlXlXiXlXlXaXlXsXlXzXzXsXzXsXzXcXsXsXiXlXlXzXxXlXlXcXlXlXcXlX",
"zXzXbXgXgXbXbXzXcXcXcXcXcXcXbXxXcXcXcXvXvXvXcXcXcXzXzXxXcXzXlXiXaXlXiXiXaXiXlXiXyXsXaXlXzXzXzXcXzXsXzXzXiXyXaXlXcXlXcXzXvXlXlXcX",
"zXzXsXgXzXsXsXzXzXcXcXcXcXcXbXbXcXcXcXcXxXcXcXcXcXxXxXzXzXzXaXaXaXiXlXiXaXaXuXlXaXiXaXiXzXsXzXsXcXzXsXgXiXiXaXlXlXcXlXxXlXlXlXlX",
"gXzXgXgXsXzXzXzXcXgXcXcXcXbXcXcXxXvXvXxXvXxXcXvXcXcXlXcXcXlXaXaXiXaXlXiXaXaXaXlXlXiXiXlXsXcXzXzXsXsXzXzXiXaXlXzXlXdXdXxXlXlXlXxX",
"cXcXcXzXgXcXgXcXsXcXcXcXcXxXbXcXlXcXcXcXgXvXlXlXlXxXzXlXlXaXiXlXlXlXiXlXlXlXlXiXlXaXlXlXzXsXzXsXzXzXzXsXzXlXlXzXgXxXxXgXhXvXxXhX",
"lXcXcXzXsXcXcXgXcXcXcXvXcXvXvXxXvXcXcXvXzXcXcXcXxXxXlXcXaXaXaXsXcXcXlXzXzXcXzXlXlXaXaXsXzXzXsXcXzXsXsXvXvXvXvXlXxXgXdXxXxXxXhXvX",
"vXlXcXgXgXgXsXcXcXcXcXcXcXcXcXcXxXcXlXxXlXcXdXgXxXlXlXlXcXcXcXcXcXcXvXnXvXxXzXlXlXlXzXzXcXsXzXzXzXzXsXsXsXgXlXgXxXvXvXvXfXvXvXgX"
};
