/* XPM */
static char *hyunjin_classic_1_png1747767714[] = {
/* columns rows colors chars-per-pixel */
"64 64 226 2 ",
"   c #0D151C",
".  c #0E181C",
"X  c #11151A",
"o  c #11191D",
"O  c #0B1A21",
"+  c #131C24",
"@  c #191D22",
"#  c #151E29",
"$  c #191E29",
"%  c #152127",
"&  c #16222B",
"*  c #1A242D",
"=  c #1C292F",
"-  c #16282F",
";  c #1C2731",
":  c #1D2A33",
">  c #1D2D3A",
",  c #172731",
"<  c #1F3038",
"1  c #24282D",
"2  c #212D35",
"3  c #232F39",
"4  c #233036",
"5  c #24333B",
"6  c #2A353D",
"7  c #27363C",
"8  c #34373A",
"9  c #413D37",
"0  c #4B423B",
"q  c #1F2C45",
"w  c #253542",
"e  c #293641",
"r  c #263943",
"t  c #2C3A43",
"y  c #2D3E4A",
"u  c #27364C",
"i  c #323D44",
"p  c #343B48",
"a  c #313F54",
"s  c #2E3E52",
"d  c #2E414D",
"f  c #2D4047",
"g  c #34434C",
"h  c #39454D",
"j  c #384549",
"k  c #344552",
"l  c #3A4652",
"z  c #364953",
"x  c #3A4B54",
"c  c #3C4C5B",
"v  c #36475C",
"b  c #3E515C",
"n  c #3D4C67",
"m  c #3F5060",
"M  c #434749",
"N  c #414E55",
"B  c #454E57",
"V  c #43535C",
"C  c #485559",
"Z  c #56585C",
"A  c #595348",
"S  c #62584C",
"D  c #675A51",
"F  c #746557",
"G  c #404E62",
"H  c #435563",
"J  c #445966",
"K  c #4A5B65",
"L  c #4B5D6B",
"P  c #465B6D",
"I  c #515E68",
"U  c #4C5C72",
"Y  c #495979",
"T  c #535F74",
"R  c #4E606C",
"E  c #516269",
"W  c #4E6272",
"Q  c #4C6078",
"!  c #536573",
"~  c #566876",
"^  c #53637B",
"/  c #556A7B",
"(  c #5A6D7C",
")  c #5B6D75",
"_  c #5E707D",
"`  c #6B6867",
"'  c #656E79",
"]  c #687576",
"[  c #747170",
"{  c #857367",
"}  c #8C7277",
"|  c #897E78",
" . c #846E61",
".. c #988478",
"X. c #84817C",
"o. c #515D87",
"O. c #596C82",
"+. c #5D6C8B",
"@. c #576A85",
"#. c #5B7287",
"$. c #5C7392",
"%. c #627584",
"&. c #63768C",
"*. c #6A7D8C",
"=. c #69788A",
"-. c #697D93",
";. c #6E7E9D",
":. c #677694",
">. c #696F8C",
",. c #6B7CA4",
"<. c #897D88",
"1. c #ED7C9C",
"2. c #798586",
"3. c #6D8399",
"4. c #718495",
"5. c #72869B",
"6. c #748A98",
"7. c #748997",
"8. c #7687A9",
"9. c #7D90A3",
"0. c #7889B7",
"q. c #7C90B3",
"w. c #888785",
"e. c #988D84",
"r. c #9A9798",
"t. c #93938B",
"y. c #A79A95",
"u. c #B1918E",
"i. c #B5A29D",
"p. c #ABA19C",
"a. c #8397A9",
"s. c #8696B9",
"d. c #8084B3",
"f. c #A99EAC",
"g. c #98A3BA",
"h. c #B8A7A5",
"j. c #A2AFB2",
"k. c #B6ABB0",
"l. c #F585A9",
"z. c #F095AE",
"x. c #C6ADAD",
"c. c #D2ADB6",
"v. c #C9B7B8",
"b. c #D6BBBD",
"n. c #C3AFAD",
"m. c #F6A3BD",
"M. c #8B9BC5",
"N. c #989FC3",
"B. c #8EA1C7",
"V. c #96A7C7",
"C. c #98A8D3",
"Z. c #9AB6D4",
"A. c #A0ABCD",
"S. c #A8B4CC",
"D. c #ABBBDD",
"F. c #A9B6D8",
"G. c #B1B8D9",
"H. c #A3ACD3",
"J. c #AEBEE2",
"K. c #B9BEE0",
"L. c #CABAC2",
"P. c #D7BCC2",
"I. c #CFBFD0",
"U. c #F2B3CA",
"Y. c #E4BCC4",
"T. c #BCC1DC",
"R. c #B8C2D8",
"E. c #B5C3E2",
"W. c #BCC8E4",
"Q. c #DAC2C9",
"!. c #C6C7D8",
"~. c #DBC8D4",
"^. c #E8C7C9",
"/. c #ECCDDC",
"(. c #E6C9D5",
"). c #F4CAD6",
"_. c #E9D1DE",
"`. c #F5D3DC",
"'. c #F9D1DD",
"]. c #F5D1D5",
"[. c #F1C9CB",
"{. c #C3CBE5",
"}. c #C4CFEA",
"|. c #C1C5E7",
" X c #C4D2ED",
".X c #CBD4EB",
"XX c #D5DBED",
"oX c #DADDEB",
"OX c #D4D5E6",
"+X c #CDDBF2",
"@X c #C9D5F3",
"#X c #D7DDF4",
"$X c #C9CFED",
"%X c #EECFE1",
"&X c #F4CFE1",
"*X c #EAD6E5",
"=X c #F4D4E4",
"-X c #F9D5E3",
";X c #F5D9E6",
":X c #FAD9E5",
">X c #F7DAE9",
",X c #FADDEA",
"<X c #F2D7EA",
"1X c #DEE2EE",
"2X c #DDE0E4",
"3X c #DDE3F4",
"4X c #D8E3F7",
"5X c #E4E4EA",
"6X c #FAE4EE",
"7X c #F7E3EF",
"8X c #E3E6F3",
"9X c #E6E9F5",
"0X c #EBEDF5",
"qX c #EBEEF8",
"wX c #E6E8F8",
"eX c #FBE6F0",
"rX c #FBEBF3",
"tX c #F0EFF6",
"yX c #EEF1F8",
"uX c #F2F3F6",
"iX c #FDF2F6",
"pX c #F4F5FA",
"aX c #FAF7FB",
"sX c #F7F9FD",
"dX c #FCFDFE",
"fX c None",
/* pixels */
"fXfXfXfXfXfXfXfXfXfXfXfXfXfXfXfXfXfXfXfXfXfXfXfXfXfXfXfXfXfXh g / t / fXfXfXfXfXfXfXfXfXfXfXfXfXfXfXfXfXfXfXfXfXfXfXfXfXfXfXfXfX",
"fXfXfXfXfXfXfXfXfXfXfXfXfXfXfXfXfXfXfXfXfXfXfXfXfXfXfXfX( c R -._ ~ R %.a.R U fXfXfXfXfXfXfXfXfXfXfXfXfXfXfXfXfXfXfXfXfXfXfXfXfX",
"fXfXfXfXfXfXfXfXfXfXfXfXfXfXfXfXfXfXfXfXfXfXfXfXfXfXN z #.K =.W f L H V t t x J g.fXfXfXfXfXfXfXfXfXfXfXfXfXfXfXfXfXfXfXfXfXfXfX",
"fXfXfXfXfXfXfXfXfXfXfXfXfXfXfXfXfXfXfXfXfXfXfXfXfXfXN O.x z H k K t z x Z 7 t ~ ! fXfXfXfXfXfXfXfXfXfXfXfXfXfXfXfXfXfXfXfXfXfXfX",
"fXfXfXfXfXfXfXfXfXfXfXfXfXfXfXfXfXfXfXfXfXfXfXfXfXl L p O.#.&.z x g z 2.) 7 g t ( 4.fXfXfXfXfXfXfXfXfXfXfXfXfXfXfXfXfXfXfXfXfXfX",
"fXfXfXfXfXfXfXfXfXfXfXfXfXfXfXfXfXfXfXfXfXfXfXfXt y x J 3.3.O./ x z C ] 2.t g g c -.~ fXfXfXfXfXfXfXfXfXfXfXfXfXfXfXfXfXfXfXfXfX",
"fXfXfXfXfXfXfXfXfXfXfXfXfXfXfXfXfXfXfXfXfXfXfXfX2 ~ l P 8.$.#.c b b C j.E 7 5 7 U ! 5.fXfXfXfXfXfXfXfXfXfXfXfXfXfXfXfXfXfXfXfXfX",
"fXfXfXfXfXfXfXfXfXfXfXfXfXfXfXfXfXfXfXfXfXfXfX; g 5 k Q $./ W b M ] [ j.2.g t b ~ a.( ! fXfXfXfXfXfXfXfXfXfXfXfXfXfXfXfXfXfXfXfX",
"fXfXfXfXfXfXfXfXfXfXfXfXfXfXfXfXfXfXfXfXfXfXfX4 *.t w R R j M e.y.L.h.v.t.B z H 3.! W K P fXfXfXfXfXfXfXfXfXfXfXfXfXfXfXfXfXfXfX",
"fXfXfXfXfXfXfXfXfXfXfXfXfXfXfXfXfXfXfXfXfXfXV 5 7 - > k 5 X.v.^.`.].;X`.x.` 1 %.#.9./ *.=.fXfXfXfXfXfXfXfXfXfXfXfXfXfXfXfXfXfXfX",
"fXfXfXfXfXfXfXfXfXfXfXfXfXfXfXfXfXfXfXfXfXfX4 t 4 : < k Z (.`.=X6X6XtX6X'.n.A s 4.-.5.&.! fXfXfXfXfXfXfXfXfXfXfXfXfXfXfXfXfXfXfX",
"fXfXfXfXfXfXfXfXfXfXfXfXfXfXfXfXfXfXfXfXfXfX6 g ; - ; t v./.:X6X6XrXiXeX>X/.p.1 K O.J b / fXfXfXfXfXfXfXfXfXfXfXfXfXfXfXfXfXfXfX",
"fXfXfXfXfXfXfXfXfXfXfXfXfXfXfXfXfXfXfXfXfX8 ' 5 - * * p ~.=X,XeXrXrXiXrX6X`.^.0 z ~ k L W W fXfXfXfXfXfXfXfXfXfXfXfXfXfXfXfXfXfX",
"fXfXfXfXfXfXfXfXfXfXfXfXfXfXfXfXfXfXfXfXfX2 g 5 * = : f./.,X6XeXrXrXiXiXrX6X-X| x t x v 5.L fXfXfXfXfXfXfXfXfXfXfXfXfXfXfXfXfXfX",
"fXfXfXfXfXfXfXfXfXfXfXfXfXfXfXfXfXfXfXfXN l 6 = 3 & : Q.*X6XeXrXiXrXiXiXrXeX6Xk.g 2 k ! 9.V fXfXfXfXfXfXfXfXfXfXfXfXfXfXfXfXfXfX",
"fXfXfXfXfXfXfXfXfXfXfXfXfXfXfXfXfXfXfXfXg 2 : * > & > ~.;X7X7XrXrXrXiXiXiXrX6X~.h : t g I b %.fXfXfXfXfXfXfXfXfXfXfXfXfXfXfXfXfX",
"fXfXfXfXfXfXfXfXfXfXfXfXfXfXfXfXfXfXfXfXl 6 1 * * = Z } } c.:X6XrXrXeXY.c.} } } M 5 6 f g h L fXfXfXfXfXfXfXfXfXfXfXfXfXfXfXfXfX",
"fXfXfXfXfXfXfXfXfXfXfXfXfXfXfXfXfXfXfXfX7 f : * $ * P./.,X).).,X6XeX:X'.,X,XeX,X[ g t 6 l K E fXfXfXfXfXfXfXfXfXfXfXfXfXfXfXfXfX",
"fXfXfXfXfXfXfXfXfXfXfXfXfXfXfXfXfXfXfXfX2 t = $ $ 1 M p p &X).-XrX6X'.).` <.c.).r.l 6 5 t g C fXfXfXfXfXfXfXfXfXfXfXfXfXfXfXfXfX",
"fXfXfXfXfXfXfXfXfXfXfXfXfXfXfXfXfXfXfXfXh t = # 1 } <.dXp <.).-XiXeX).dXp >.} h.i.g 6 j 5 6 K fXfXfXfXfXfXfXfXfXfXfXfXfXfXfXfXfX",
"fXfXfXfXfXfXfXfXfXfXfXfXfXfXfXfXfXfXfXfX6 4 6 = 3 /.%X/.&X=X'.-XaXrX-X-X,X&X'.,XL.C p t C t N fXfXfXfXfXfXfXfXfXfXfXfXfXfXfXfXfX",
"fXfXfXfXfXfXfXfXfXfXfXfXfXfXfXfXfXfXfX6 1 < * 4 e =X,X6XrX7X-X;XrXiXrXrXrXrXeXeX'.w.5 t g t N fXfXfXfXfXfXfXfXfXfXfXfXfXfXfXfXfX",
"fXfXfXfXfXfXfXfXfXfXfXfXfXfXfXfXfXfXfX1 L 4 : - f.-XeXrXiXrX%X,XiXrXiXiXaXaXiXrX,Xw.g 4 f g 4 fXfXfXfXfXfXfXfXfXfXfXfXfXfXfXfXfX",
"fXfXfXfXfXfXfXfXfXfXfXfXfXfXfXfXfXfXfX6 *.t 5 * r.&X7XrXrX6X(.eXiXeXeXrXiXiXiXrX;Xi 4 y j 4 z fXfXfXfXfXfXfXfXfXfXfXfXfXfXfXfXfX",
"fXfXfXfXfXfXfXfXfXfXfXfXfXfXfXfXfXfXfX6 _ 7 % + r.(.,XrXeX;X;X6XrXiXeXeXiXrXiXeX%XO O l > 6 t fXfXfXfXfXfXfXfXfXfXfXfXfXfXfXfXfX",
"fXfXfXfXfXfXfXfXfXfXfXfXfXfXfXfXfXfX) % ( * - & w.!.<X6X6X;Xp.Y.`.c.iXeXrXrXeX,XQ.  + : b t : ) fXfXfXfXfXfXfXfXfXfXfXfXfXfXfXfX",
"fXfXfXfXfXfXfXfXfXfXfXfXfXfXfXfXfXfXR 1 2 : y N Z ~.%X,X:X,X,XeX6XrXrXeX7XeXeX,Xi 8 * : g 2 l h fXfXfXfXfXfXfXfXfXfXfXfXfXfXfXfX",
"fXfXfXfXfXfXfXfXfXfXfXfXfXfXfXfXfXfX7.4 * * / E . k._.,XeXeXz.m.U.,XeX6X6X6X,X=X; 4 * L ) 5 4 x fXfXfXfXfXfXfXfXfXfXfXfXfXfXfXfX",
"fXfXfXfXfXfXfXfXfXfXfXfXfXfXfXfXfXfX7.E 4 < c z . ` L.:X,X1.1.l.l.l.1.:X6X6X>XC h = t J k 2 = g fXfXfXfXfXfXfXfXfXfXfXfXfXfXfXfX",
"fXfXfXfXfXfXfXfXfXfXfXfXfXfXfXfXfXfX3.R % R x y + . e./.%X(.z.l.m.U.6XrX6X:Xv.$ V : ~ x g : * C fXfXfXfXfXfXfXfXfXfXfXfXfXfXfXfX",
"fXfXfXfXfXfXfXfXfXfXfXfXfXfXfXfXfXfX4.7 - ! K 9.e @ o y.~.*X-X-X,X6XrX6X:Xv.o e : ; z ( - g * g fXfXfXfXfXfXfXfXfXfXfXfXfXfXfXfX",
"fXfXfXfXfXfXfXfXfXfXfXfXfXfXfXfXfXV.3.K z J & ( g = @ 9 k.%X6XeXrXrX6X7Xb.y.* 6   B H l f g 2 V fXfXfXfXfXfXfXfXfXfXfXfXfXfXfXfX",
"fXfXfXfXfXfXfXfXfXfXfXfXfXfXfXfXfXV.R ) #.g # V % % 1 9 A L.:X6X6X6X6Xn.n.t.7 M 6 5 K N *.: 2 d fXfXfXfXfXfXfXfXfXfXfXfXfXfXfXfX",
"fXfXfXfXfXfXfXfXfXfXfXfXfXfXfXfXfXa.r _ 4.6 o + % 1 8 0 S D ~.-X<X(...b.^.h.S.4 + t x V ! y < b fXfXfXfXfXfXfXfXfXfXfXfXfXfXfXfX",
"fXfXfXfXfXfXfXfXfXfXfXfXfXfXfXfXs.j r U r * + * $ 8.[ D D F { | ..y.Y.].^.n.2Xg t 3 t > H x t W fXfXfXfXfXfXfXfXfXfXfXfXfXfXfXfX",
"fXfXfXfXfXfXfXfXfXfXfXfXfXfXfXfXE b P _ 4 + p # U q.dX..{ F  ...i.P.].:X[.sXXX5.3 i ( y ' W t J fXfXfXfXfXfXfXfXfXfXfXfXfXfXfXfX",
"fXfXfXfXfXfXfXfXfXfXfXfXfXfXfXK z < z f % % # y Y W.pXdXh.i.i.x.Q.'.:X'.dXsXtXJ.2 p c ! % R m k fXfXfXfXfXfXfXfXfXfXfXfXfXfXfXfX",
"fXfXfXfXfXfXfXfXfXfXfXfXfXfXfX: 4 - 4.W t ; g ,.M.wXdXdXdXb.b.[.].'.:XdXdXdXqXV.p 3 ~ b ; k W R fXfXfXfXfXfXfXfXfXfXfXfXfXfXfXfX",
"fXfXfXfXfXfXfXfXfXfXfXfXfXfX# 2 6 7 x 4.K r +.C.W.1XsXdXdXdX`.'.:X:XdXdXdXdX8X8.5 * 7.d V f d H fXfXfXfXfXfXfXfXfXfXfXfXfXfXfXfX",
"fXfXfXfXfXfXfXfXfXfXfXfXfXfXo % = * 5 ( d k Y W.3X8XdXdXdXdXdXaXsXdXdXdXdXsXoXF.* * z w V r r z fXfXfXfXfXfXfXfXfXfXfXfXfXfXfXfX",
"fXfXfXfXfXfXfXfXfXfXfXfXfX# % + + 1 N 2 * M.D..XyX9XpXdXdXdXuXaXdXdXdXdXdXuXuXT.2 2 g l g % b < fXfXfXfXfXfXfXfXfXfXfXfXfXfXfXfX",
"fXfXfXfXfXfXfXfXfXfXfXfX2 +   + o : : & = A.T.N.tX9XuXsXdXdXaXaXdXdXdXdXsXpXpXL : + + y 3 + : k a.fXfXfXfXfXfXfXfXfXfXfXfXfXfXfX",
"fXfXfXfXfXfXfXfXfXfXfX X* + + . * 5 6 # O $  XsX#X0XdXdXdXdXsXdXdXOXdXdXdXdX2Xu ; * + * 6 % - y > fXfXfXfXfXfXfXfXfXfXfXfXfXfXfX",
"fXfXfXfXfXfXfXfXfXfXsX#X; 4 : % & K 5 4 1 T V.dX9XoXdXdX5XdXdXdXdXOXdXdXdXdXuXl ; + : % 2 2 t 4 g !.dXfXfXfXfXfXfXfXfXfXfXfXfXfX",
"fXfXfXfXfXfXfXfXfXdXsXXX~ e I * g 6 + 2 ; {.G 8XuX0XdXdXdXdXdXdXdXdXOXdXdXaX1X^ 5 ; @ + O ; t g r 8XqXuXfXfXfXfXfXfXfXfXfXfXfXfX",
"fXfXfXfXfXfXfXfXsXoXpXpX> y H P l ; # 2 w N.V.G.dXdXdXdXdXdXdXdXdXdXdXaXdXdXaXs.: ; * * 2 X * c 5 ^ .XsXfXfXfXfXfXfXfXfXfXfXfXfX",
"fXfXfXfXfXfXfXuXsXaXsXaX5 L 5 t   * ; $ c XX!.;.dXdXdXdXdXdXdXdXdXdXdXdXdXpXuXS.G * * * $ 6   - ~ w j.wXuXfXfXfXfXfXfXfXfXfXfXfX",
"fXfXfXfXfXfXfXuXtXdXdXpXq k * * O + $ * T $XpX:.dXdXdXdXdXdXdXdXdXdXdXdXaXsXpXtX:.u + * : *   ; k w v oXdXfXfXfXfXfXfXfXfXfXfXfX",
"fXfXfXfXfXfXsXyX9XdXuXdXE.5 3 & + X * # c wXoX%.0XaXsXdXdXdXdXdXdXdXdXdXsXsXuX0XT.:.# + * : ; : ; H : k OXfXfXfXfXfXfXfXfXfXfXfX",
"fXfXfXfXfXfXwXyXaXaXpXdX3X5 ; * # o + w 3 wXdXS.sXaXaXdXdXdXdXdXdXdXdXaXaXdXuXpX8X;.: # 4 : H d y x t e k 0XfXfXfXfXfXfXfXfXfXfX",
"fXfXfXfXfXfX!.pXuXpXpXaX Xr + + $ + + ! u wXiXY dXdXdXdXdXdXdXdXdXdXdXpXsXdXpXaXtXE.: * : , g w d g ; ; -.G.fXfXfXfXfXfXfXfXfXfX",
"fXfXfXfXfX3XwXsXpXoXpXpXD.: + , % * 2 Y +.pXsX8XdXdXdXdXdXdXdXdXdXdXaXaXdXdXpXpX0X5X+.# * L r d P 5 + - 3 s.fXfXfXfXfXfXfXfXfXfX",
"fXfXfXfXfX3XqXsXuXuXuX8X3 > g 2 ; ; > U oXuXaXsXdXdXdXdXdXuXdXdXdXsXtXdXdXaXsXpXaXpX4X+ : 4 > r m f + % g 3.fXfXfXfXfXfXfXfXfXfX",
"fXfXfXfX+X#X0XpXqXpX8XO.m k y 4 3 2 :.^ pXuX$XaXdXdXdXdXdXdXdXdXdXpXaXsXsXdXaXsXdXpX*Xn r < y L 7 r + # y q.fXfXfXfXfXfXfXfXfXfX",
"fXfXfXfXXXXX0X0XqXOXv H b ~ k @.m * s.$XsXuX:.aXdXdXdXdXdXdXdXdXsXpXsXdXdXdXdXdXaXsX9Xs.> < d d k w % % P n fXfXfXfXfXfXfXfXfXfX",
"fXfXfXfX1X3XuX{.W.; < z - r < m J I :.sX0XaXuXdXdXsXsXsXdXdXdXdXpXdXdXdXdXdXdXdXdXsXdX{.k > k m x 4 - % s.W.fXfXfXfXfXfXfXfXfXfX",
"fXfXfX XqX4X3Xn u a = o o + ; B.s.u A.aX5Xd.sXsXsXsXsXdXdXdXdXdXdXdXdXdXdXdXdXdXdXdXdXdXXXk r z m : 4 + ^ XXfXfXfXfXfXfXfXfXfXfX",
"fXfXfX XqXS.J.Y 8.# 5 o o o a +.,.e 5XpXpXpXuXsXdXdXdXaXdXpXdXdXdXsXdXdXdXdXaXdXdXdXdXaXyX/ b R m : r . x 9XfXfXfXfXfXfXfXfXfXfX",
"fXfXZ. X3XM.E.B.5 * o X o # 8.D.@.+.0XaX|.sXaXdXdXdXdXdXdXpXdXdXsXsXsXdXsXdXsXdXdXdXdXdXtX@.k x k r r & o.5XpXfXfXfXfXfXfXfXfXfX",
"fXfXV.+XD.W.8.B.g U + o + M.@XK.;.M.uXG.sXpXsXdXsXdXdXdXdXdXdXdXsXdXdXsXdXdXdXdXdXdXdXdX0X^ < < g r , , #XqXpXfXfXfXfXfXfXfXfXfX",
"fXfX X XZ. XD.M.t v o o + ,.$X4XM.H.K.uXdXdXdXsXdXsXdXdXdXdXdXdXdXsXsXsXsXdXdXdXdXdXdXdXpXm t : J z v d 3XqXpXfXfXfXfXfXfXfXfXfX",
"fXfX+X+X X3X{.F.3.a.o % # 0.G.T.0.s.8XtXdXdXdXdXsXdXsXaXdXdXdXdXsXsXdXdXdXdXdXdXdXdXdXdXqXc : r J 7 b B.1XwXtXfXfXfXfXfXfXfXfXfX",
"fXfX+X4X4X3X#XE.C.v : = > C.V.@X0.H.!.pXaXsXdXaXsXdXsXsXdXdXdXdXsXdXaXdXdXaXdXdXdXdXdXsX@Xn : 7 w w k @.wX*XpXfXfXfXfXfXfXfXfXfX",
"fXfX+X4X3X9XyX3XJ.+.> g > 8.8.T.#X#X8.pXaXaXdXdXsXsXsXdXdXdXdXsXsXsXdXdXdXdXaXdXsXdXdX4X0.w : ; : > y 8.wX0XtXfXfXfXfXfXfXfXfXfX"
};
