/* XPM */
static char *Screenshot_2025_05_20_at_21_52_22_1_png1747771046[] = {
/* columns rows colors chars-per-pixel */
"64 64 107 2 ",
"   c #BE9ECD",
".  c #BE9ED2",
"X  c #B4A4C6",
"o  c #B6ABC5",
"O  c #BAAEC5",
"+  c #B6A4CC",
"@  c #BAA5CD",
"#  c #B5ABC9",
"$  c #BCACCB",
"%  c #B7B2C2",
"&  c #BDB3C6",
"*  c #BFB9C2",
"=  c #BEB1CA",
"-  c #BCA4D1",
";  c #BEAAD1",
":  c #C79FD4",
">  c #CC9DD6",
",  c #D29FDB",
"<  c #DB9FDB",
"1  c #E29EDD",
"2  c #C2A6CF",
"3  c #C1AECD",
"4  c #C2B6C7",
"5  c #C4BBC6",
"6  c #CABEC6",
"7  c #C3B4CC",
"8  c #C8B6CE",
"9  c #C5BACA",
"0  c #CCBDCC",
"q  c #D0BECE",
"w  c #C3A5D5",
"e  c #CBA5D6",
"r  c #C4ABD4",
"t  c #C9ACD6",
"y  c #C7A4D9",
"u  c #CCA3DA",
"i  c #C7ADD8",
"p  c #CCACD9",
"a  c #D3A4DC",
"s  c #DAA2DE",
"d  c #D4ACDD",
"f  c #D9ADDE",
"g  c #C6B3D1",
"h  c #CBB4D4",
"j  c #C6BDD1",
"k  c #CDBBD3",
"l  c #CEB4D9",
"z  c #CFBADA",
"x  c #D0B6D6",
"c  c #D1BDD3",
"v  c #D3B4DD",
"b  c #D1BBDA",
"n  c #EBA2DF",
"m  c #E59FE0",
"M  c #E99FE0",
"N  c #DCA5E0",
"B  c #D6ADE1",
"V  c #DCACE2",
"C  c #DDAFE8",
"Z  c #D6B4E1",
"A  c #DBB3E3",
"S  c #D5B9E1",
"D  c #DEB3E9",
"F  c #E4A4E3",
"G  c #ECA4E4",
"H  c #E4ACE5",
"J  c #EAAAE6",
"K  c #E5AEE8",
"L  c #ECADE9",
"P  c #F3A4E7",
"I  c #F3ABE7",
"U  c #F8ACE7",
"Y  c #F4A6E9",
"T  c #F8A6EA",
"R  c #F4ACEA",
"E  c #F8ADEB",
"W  c #E2B3E6",
"Q  c #EFB2E7",
"!  c #E9B9E7",
"~  c #E4B3EA",
"^  c #ECB3EC",
"/  c #E6B9ED",
"(  c #EBB9EC",
")  c #F3B0E7",
"_  c #F3B3EC",
"`  c #F8B3ED",
"'  c #F3B8EE",
"]  c #E6B3F0",
"[  c #ECB6F1",
"{  c #ECB9F0",
"}  c #F2B5F0",
"|  c #F3B9F1",
" . c #C7C0C2",
".. c #CCC3C6",
"X. c #C7C1CA",
"o. c #CDC2CA",
"O. c #CEC8C9",
"+. c #D0C5C7",
"@. c #D1C4CB",
"#. c #D4CACB",
"$. c #D9CDCD",
"%. c #D7D1CB",
"&. c #D9D0CE",
"*. c #C6C0D5",
"=. c #CEC2D0",
"-. c #D2C0D1",
";. c #D4CBD0",
/* pixels */
"n Y Y T T P T T U P P P P T R P P P U R T ` R ` ) U I ) ) ) ) ) I _ ` ) _ ` ` ` _ ` _ _ _ _ _ ' _ ' ` ' _ ' ' Q ( ' _ ( ' ' Q ( ",
"n T P T T T P U P P P P P E T P P P U R R R T ` I I I ` ` I ` ` ) _ ` ` ' ` ` _ _ _ ` _ ` _ _ _ ' _ ' ' _ ' ' ' ( ' ( ' ' ' ' ' ",
"P P P T P P T P T P P Y P R T P P P R R R R P R U T U U U ` ` I ) _ ) _ ` _ ` _ } R R _ ' ` _ ' ' ' ` _ ' ' _ ' _ ' ( ' } } ^ ' ",
"P P P P T P P P Y P P P P P P U R P P R P R R E R R U I U ) I I ` I _ ` ) _ _ ' _ _ _ _ ` ` _ _ ` ) ` ' ' Q _ ' ' ) _ ' ' ' ^ _ ",
"P P P P P P P T Y P Y Y P P P Y R P P P R Y E R R R R E ` U ` ` ` ) ` _ _ _ R ) ) ` R R ` _ ` _ ) _ _ ) _ ' Q ' ' _ ' ' | ' [ _ ",
"P P P P P P T P T Y Y Y P P P T Y P P P R R R T E R R U _ ` I _ ) ) ` R ` ` ` _ ` ` _ _ _ _ ` _ ) _ _ ) ) _ ' _ _ _ ^ ' ^ | } } ",
"P P P P P P P P P Y Y T I R T U R P P P R R R R T E E } R _ _ ) ` ) _ ^ ` ` ` I ` R _ _ ` Q _ _ _ _ _ ) Q ) Q Q ' ( | ^ _ ' [ ^ ",
"P P P P P P P P P P Y Y G P R P P R P R P R G R R R U R R ) ` I ` _ _ _ _ R _ _ } } } _ ` ` _ _ ) ' _ ' _ ' ( ' _ ' _ ' ^ ^ | { ",
"P T P Y T T T M P Y Y T P R P R R R R Y R P R P R R R } R _ Q _ Q _ _ ` _ ^ R L R _ } ` ` _ _ _ _ _ ' _ ' ` } _ | ' _ ' | [ | ( ",
"m Y M T T M Y Y P P Y R P P Y Y P R R R L R R R R } ` R } R _ R I R Q R _ ` _ _ ` _ ) _ _ _ ' ' ' ' _ ' _ | ^ } } } [ | } | ( ^ ",
"F T M T G Y Y P G P P T G Y Y J P G L P P R P G R I R L R R Y R ` L L I L _ } R R _ _ Q _ L _ ^ Q ^ Q Q Q | [ ^ } } } [ _ ( | { ",
"m m M M Y G M G G P G P G G Y G L P P R L P R R P L R R } L } } R ` J _ R R L } } _ L L _ } Q _ ^ ^ ( Q _ ^ } _ ^ [ ^ | [ { ^ { ",
"m M M M M Y M Y G G G G Y G G Y M P R L L L G R L R L R _ L L R ^ R L J U _ ` _ L } } L Q ^ ^ _ Q ^ L [ ^ } ^ } ^ ^ ^ Q ^ ( / ] ",
"s m P M m P M P m Y G G G J J L L L J J L G J G G L J J R L R L L L _ L J J L ^ L L _ ^ ^ Q ^ _ ^ ^ L [ } [ [ ^ ^ / [ ~ / ( ( ! ",
"N m m G m m F G G K G G F G L G G J L J L G G L R J J L L L Q L L R Q L _ J _ L _ } ^ [ [ [ R ^ ^ ^ L [ ~ L ^ ~ [ / ( ( ( [ ( / ",
"< m m m m F F m G G G G K G K G L L L G F J J J J J J J L L L L L ^ ^ ^ J Q J Q L L ^ L L ^ [ L ^ L ^ ^ ^ Q ^ ^ ^ / / ] ] [ ~ / ",
"< m m m m F m F F F J J J F F F J L F J F F J J J J L J L L W L L J L ^ ^ L L Q ^ L ^ ^ ^ ^ K ^ ^ ^ ] ^ ~ L / ~ ^ ~ ~ ^ ( ~ { / ",
"< N N m m N F F F F F F F L L L J F L F J L J F J J J J K H L J K K ^ J L ~ ^ L ~ K ^ L K ~ ^ ~ ~ K K ~ [ ~ ^ ( ~ / / ~ / / / / ",
"< < N 1 N N F N N F F H F F F K F K K H H J J J F J J J K W L L J K J H K ~ W J K ~ ^ ~ ~ ~ ~ ~ ~ V / ~ ^ / W / ~ ~ ( ~ ~ / ~ ~ ",
", < s N F F N F H F N F N F F F L F F K H H K H H H H K J K J W K J K ~ J W W H K K K W K ~ W ~ K W ~ K W W / W / ~ / / ] ] D / ",
", , a a N N N N N N N V N H s H H N C V N C H H H H V K H J H H K K H W H W H W W W H ~ ~ C ~ W ~ ~ ~ W W / D ~ / / D D D D D ] ",
", , , N a a a N N N N N V s N V f ~ N N V H N f V H V H V V A H V W W V V H W W W W ~ W ~ C W H ~ ~ W W ! A ~ W D / D D D D D D ",
": > , , N , N u a a a a N N N N N V N V V N V V C V V V C V H A V H V V C W C H V V V ~ W W W A A D ~ W A / W W D A D D D D D D ",
": > u u u u , N B a a a a d f d d B B V V f f A V V f V V A A A A V A A A C A A A C A A W A D A A A A A W A A A A ~ D D D D D D ",
". : y > u u u u a u u d d d u d d a d B B f B N V B B f f A V W V V A V f W A f Z V A A A V A V A A A A A W W A D A A D D D A D ",
". y y y y u u u u u u B a d a a a d p a d f d d B d d f d v f f d A f V A v v A A A Z A A A A Z d A A A A A S A A Z D S S A S D ",
". - y . y y . y w p y p w p d p p d d d d d d d d d d A f f d f Z B v A A v A v Z Z Z Z v Z Z d v A v A v A v W A S S A A S S A ",
". y - w w y y y w y y p p e p p p p p d d d v d d d d v v d v v v Z Z d A v A A d A v A A v Z Z A A A A v A S A A A A A A A S A ",
"- - . - - y r y y y y r y i t p p p p p p p d p v d d v v d v d d v v v v d v f Z A v Z A v A A v S A A W A S A A A S Z S Z D Z ",
"- - - - - - y y r r r w y r r r y p t p p p p v p l p d d l l d v v d v v p v v v v v v v v v v Z v S v v v A v S v A A S A Z S ",
"+ + - - - - - y @ ; w r g r y y y y g t p t l i t l p l p v v p p v p l l v v v l v v v S v v v A S S S v S S S S v Z Z S v Z S ",
"+ + - + - - - ; r ; w ; y r 3 r r i t t t l y h t i i p x p p x x v l v v l z v v v b v v v v b v v v S S v S S v v S S z v Z S ",
"X + @ + @ - - ; w @ @ ; 2 w r r r i r r g i i g r r t p t l p l p l l l l v z l v v l v v v z l z v S z v S z l Z S S v S S S S ",
"  + - + @ @ @ @ @ ; ; r r r $ w y r r ; r i r r i h h h g t l t l h v l l t l x h l l l z h l h v z v z l z z S z v v v z l v S ",
"X + + @ r @ ; ; @ @ ; ; @ $ ; r g ; r r r r g r h l t h p g l h h l h l l l l l x z z z l z v v z z h z v h c v v l v z b z S z ",
"X + + $ + + @ $ @ $ $ r ; ; r $ g $ g r r g r r r l g t l l g l l i l i h z l v h l h v l b h h h b v z z c v x z b b z z z S z ",
"X # X # X + + $ ; ; $ $ $ $ r 3 $ $ ; g ; g g g g r 3 g g g g g h h h h l h l l z k h h h x l c h c x b v k x x b b h b b z k -.",
"o # o $ $ $ 3 o # $ ; = $ $ 7 3 r g g 7 = g g r 7 g g g g g h h h h h h h h x h h h x h c x x v h v h z h c b b x c b b z z z z ",
"= $ $ o O $ o $ = ; = ; $ O 7 $ $ = 7 $ g g 7 7 7 3 7 h j 8 g 8 h h k h 8 h 8 h k h h k h h k k k z k k c b h k c c k z b *.z z ",
"o $ O O o $ 3 $ 7 = = g $ 3 $ 3 3 g 7 g = r g g h h g g h g g 8 8 h 8 h h k h h h k h h k h k h k k k k b k k k c x b z b z z -.",
"# % O = 7 $ $ 7 $ $ 7 $ 7 = 3 3 7 7 7 g 7 3 7 g g g 8 8 8 8 8 g 8 h 8 & j k h j k k k h h h k k k k k k b k k k c k -.z k b -.b ",
"o O $ 7 = 7 7 O 7 = $ 7 3 7 3 7 3 7 7 7 7 $ 7 8 7 8 g h h 8 h j h 8 8 h 8 8 h k h h k j k k j k k k b c k k b c c b k k b -.-.b ",
"O % 7 $ 3 7 3 7 = 7 = = = 7 8 4 7 7 g 7 7 = 8 g 7 8 g j 8 7 8 8 8 8 h j h k 8 8 8 0 h 8 h k k k k b b b b k c b c b c b z b S z ",
"% = O 7 4 3 4 3 7 7 4 j 7 4 7 7 7 4 7 j 7 j 7 8 8 8 8 0 9 9 8 0 9 0 h k 8 0 8 8 j 8 h 0 0 8 k 0 0 c 0 c 0 c k x h c k c -.-.S *.",
"% = = g 4 4 7 7 = j = = 7 7 4 8 j 7 7 7 j 7 = j 7 9 7 8 8 0 8 k 8 0 8 c 8 0 k 8 8 0 c h 0 k 0 c k k k =.k k c c b c -.k z -.z z ",
"% & = * 7 4 4 4 7 * 9 9 9 7 7 9 9 7 9 9 9 0 9 9 0 7 8 0 0 8 0 8 8 k h k 0 -.k h k k c 0 c k h 0 c k k c c 0 0 0 0 b =.c -.z -.z ",
"4 4 = 9 7 7 8 9 9 9 * 9 0 7 4 7 4 9 0 9 9 9 9 9 9 9 8 0 8 0 0 0 0 0 c 0 k 0 c c 0 k c q 0 h q c 0 k -.b c q k -.c 0 -.0 -.b *.*.",
"% 7 j * 9 * 7 8 7 9 8 9 *.9 4 4 9 9 9 9 9 9 9 0 9 0 0 0 c 0 k 0 0 8 8 q c 0 0 0 0 k 8 0 0 c q c c @.b o.c c c -.c -.-.q b -.-.-.",
"9 9 9 * 9 9 0 5 5 9 9 4 8 9 0 9 9 9 9 0 9 5 8 6 0 0 0 0 c 0 0 0 k 0 0 q c 0 0 q 0 0 0 0 c 0 c q q q c c c c c q c -.c -.c @.c -.",
"* 9 9 7 5 8 8 8 9 0 9 5 0 5 9 0 0 9 5 5 0 0 6 8 0 0 9 0 0 0 q 0 q q 0 0 q q q q q 0 c q @.q c 0 q q q @.0 q q q k q 0 @.c -.q q ",
"5 9 9 5 9 9 0 8 0 9 0 0 0 0 X.0 0 ..0 ..5 6 6 0 0 0 0 =.-.@.0 q q 0 @.q @.q @.q q @.0 0 c q @.c @.@.0 q c c c q q c q c 0 c q c ",
"5 5 X.0 9 ..6 5 5 ..9 o.X.X.0 0 0 6 0 0 o.0 q 6 0 0 0 X.q 0 @.c 0 o.6 q q @.q 0 q q q @.q q k @.q 0 q q @.q q q q 0 -.0 -.q q 0 ",
"X.X.5 5 o.X.X.0 0 6 6 q 0 o.X.0 0  .o.....0 q q @.@.@.@.@.q ..X.@.o.@.k @.@.q @.q @.q @.@.q @.o.@.c q 0 @.0 q q -.q o.0 o.0 q @.",
"* 5 ..5 X.o.9 ..O.o.6 q o.o.X.6 ..o.o.o.6 o...@.c o.@.0 q @.k ;.@.-.@.@.@.@.q @.@.@.q q q q -.q o.o.-.q 0 q q q 0 0 c c c @.0 -.",
"* 0  .6 0 ..X.0 0 o.0 @.@.0 @.@...@.@.6 @.o...@.@.O.o.@.@.@.@.o.@.@.@.@.@.@.-.@.q @.@.q -.@.-.o.o.=.o.0 @...6 q q @.c @.8 0 c 0 ",
"5  ...0  .o.....0 o.0 O.o. .o.@...@.@...+.@.@.+.@.#.@.O.@.....;.@.#.@.@.#.@.#.@.@.@.@.@.@.o.;.;.@.0 q @.0 q @.q 0 0 0 0 0 0 0 0 ",
"9 ..o. ..... .0  .o.@.o.#.o.@...+.@.@.@.@.+.@.#.#.+.@.#.@.@.+.#.@.@.@.#.@.@.@.@.@.;.o.@.;.o.@.@...q 0 @.+.q q q 6 q 0 j k 8 0 9 ",
"5 o. .X.o.O.@. .@.o.....O...+.#...O.#.+.@.+.+.@.#.+.q +.@.+.@.#.@.#.@.#.@.$.@.$.@.o.@.o.;.@.;.o.o.o.o.@.q 6 6 ..0 0 0 0 0 5 0 5 ",
"6 ....O.o.o.O...@.@...+.+.+.@.#.+.#.#.#.+.@.+...+.+.#.+.$.+.+.#.$.#.@.@.$.@.$.@.#.#.#.#.#.#.@.o.o.o.o.0 q 6  .8 6 6 0 9 9 9 4 5 ",
"....O...o.O. .O.@.@.@.+.#...@.#.#.#.O.#.#.#.#.#.#.+.#.+.#.#.$.+.@.#.#.@.@.$.-.#.#.#.@.@.o.o.#.o.@.@.@.@.@.6 0 0 9 9 9 9 9 4 4 4 ",
" ...@...O...O.+.@.#.+...@...#.#.#.O.#.#.%.+.#.#.$.#.#.+.#.#.$.+.#.#.#.$.$.#.@.$.#.#.#.#.@.O.O.@.@.@...o...0 9 9 9 j 9 9 9 & 9 = ",
" .+...O.......+.....#.+.#.#.#.#.#.#.O.#.#.+.%.#.#.$.$.$.$.#.#.$.#.#.#.#.@.$.#.#.#.$.#.@.#.#.@.@.@.O.o.o.....6 X.X.j * * & & % # ",
" ...O.O.O.%.+.#.O.#.+.#.#.O.#.O.+.$.#.#.%.%.+.$.$.$.+.$.$.+.$.#.$.$.%.#.$.#.$.$.&.#.#.;.#.#.#.O.O.O.@.o.o.0 0 5 9 5 7 = & % O # ",
" .O...O...+.+.+.#.+.#.#.#.%.O.%.$.#.#.%.#.%.%.$.+.$.%.%.$.$.$.$.$.$.$.#.$.$.$.$.$.$.#.;.#.#.@.#.@.@.@.o.o. .5 5 5 5 * * & % o # "
};
