/* XPM */
static char *pipi_1_png_2_1747776215[] = {
/* columns rows colors chars-per-pixel */
"64 64 97 2 ",
"   c black",
".  c #7CA9ED",
"X  c #7EACF4",
"o  c #77A9FC",
"O  c #7CABFA",
"+  c #79C9EE",
"@  c #7FC7F6",
"#  c #7ECBF5",
"$  c #7ECCFA",
"%  c #7BD1F7",
"&  c #80A8EF",
"*  c #9FBCEF",
"=  c #81ABF5",
"-  c #80ABF9",
";  c #97AAF6",
":  c #96ABFD",
">  c #99ABFD",
",  c #9DBEF1",
"<  c #94BDFF",
"1  c #98BBFC",
"2  c #A9A0F7",
"3  c #FA8FC2",
"4  c #EE96C3",
"5  c #E79BC1",
"6  c #F193C1",
"7  c #FD91C2",
"8  c #F79FC7",
"9  c #FB9EC9",
"0  c #F3A2C7",
"q  c #F5A4CA",
"w  c #FEAFD3",
"e  c #F4A1DC",
"r  c #F9A1DE",
"t  c #F3B4D2",
"y  c #FBB5D6",
"u  c #F4B8D3",
"i  c #FBB8D5",
"p  c #FEB5D9",
"a  c #FBB8D9",
"s  c #F9A2E0",
"d  c #F6BDFB",
"f  c #FBBDFD",
"g  c #9FC1EA",
"h  c #82C6F4",
"j  c #81C9F3",
"k  c #82CCFA",
"l  c #88C9FB",
"z  c #9FC1F2",
"x  c #99C4FB",
"c  c #86DDFF",
"v  c #8BDDFF",
"b  c #96D6FC",
"n  c #99D6FA",
"m  c #93DBFD",
"M  c #9BDAFD",
"N  c #A4C0EF",
"B  c #A4C1F5",
"V  c #A5C3FC",
"C  c #B7C7FF",
"Z  c #B9C7FE",
"A  c #B5C8FF",
"S  c #A1DCFD",
"D  c #B6E6FE",
"F  c #B9E5FF",
"G  c #FBC5DC",
"H  c #FDE9D5",
"J  c #FEEADB",
"K  c #FECAE6",
"L  c #FFC6E9",
"P  c #FFDAE6",
"I  c #FFDAEC",
"U  c #F9C1F7",
"Y  c #F6C0FF",
"T  c #FBC0FD",
"R  c #FEDBF1",
"E  c #FDD6FE",
"W  c #FCD8FD",
"Q  c #DDEAFE",
"!  c #FBEDE2",
"~  c #FEF7EB",
"^  c #FEF8E8",
"/  c #E2EBF7",
"(  c #E9EBF6",
")  c #E5E6FE",
"_  c #E8E6FE",
"`  c #E2EAFD",
"'  c #E9EBFD",
"]  c #F1E6FD",
"[  c #E1F2FE",
"{  c #EEF7FE",
"}  c #E6FFFF",
"|  c #EDF9FE",
" . c #F2FAF2",
".. c #FAF9F2",
"X. c #F4F6FE",
"o. c #F8F6FF",
"O. c #F3F9FE",
/* pixels */
"                                                                                                                                ",
"                                                                                                                                ",
"                                                                                                                                ",
"                                                                                                                                ",
"                                                                                                                                ",
"                                                                                                                                ",
"                                                                                                                                ",
"                                                                ~                                                               ",
"                                                              0 ~ 9                                                             ",
"                                                            q | | O.                                                            ",
"                                                            q O.O.o.8                                                           ",
"                                                          t O.O.o.O.o.7                                                         ",
"                                                          u o.O.O.I O.0                                                         ",
"                                                        u O.o.J O.d o.|                                                         ",
"                                                        t o.H J X.d U { 4                                                       ",
"                                                      y o.O.H H X.d f X.o.4                                                     ",
"                                                      t X.X.H ~ X.E f O.| 5                                                     ",
"                                                    y { X.H J ~ O.W T f o.O.3                                                   ",
"                                                    t X.X.H ~ ~ X.W E d O.| 7                                                   ",
"                                                  t X.X.J H ~ ~ { W E f d { X.6                                                 ",
"                                                  y o.X.J ~ ~ ^ { W E W f | O.3                                                 ",
"                                                  O.X.J J ~ ~ ~ { E E W f f { } K                                               ",
"                                                y O.J ! ! ..~ ~ { W E E E f T O.e K                                             ",
"                                                o.] ! ~ ..~ ~ ~ { W E W E E f o.O.s K                                           ",
"                                            G K O.O.J ~ ~ ~ ~ ~ { W E W W E f o.o.K K K                                         ",
"                                          K O.O.| o.J J ~ ~ ~ ~ { W E W W Y f o.O.O.| K K                                       ",
"                                        o.O.O.y y { O.H ~ ~ ~ ^ { W W W E f o. .> >  .O.K K                                     ",
"                                    O.| o.y y u w p X.J J ~ ~ ^ X.W E W T f O.> > : > > O.K K                                   ",
"                              K K o.O.O.y y y p p p O.| J J ~ ~ X.E E d f .. .; : : : > : o.K K K                               ",
"                            K { o.X.I I R I I i a y y | o.! ~ ^ | E E d O.O.> : ; ; Z A C = = O.K K                             ",
"                        K O.X.O.I I I I I I I I I i y y o.O.H J o.d d o.o.> : > Z Z Z Z Z Z = ~ ~ K K K                         ",
"                    L I | o.I I I I I I I I I I P I p p y O.O.J o.d X.X.: : : Z Z Z Z Z Z Z Z = > = O.K K K                     ",
"                  K ^ o.o.o.o.o.o.o.o.O.o.o.o.O.o.o.o.o.o.o.o.o.o.o.o.o.o.o.o.o.o.o.o.o.o.o.o.o.o.o.o.o.O.~ K                   ",
"                    B o.o.# l k k k k k k # k k k k k k k j o.o.o.o.o.o.. = X - o.o.o.o.o.o.X X X . O.O.K K                     ",
"                      N V o.Q [ k % k m v v m v v l k k k n O.S o.j o.o.X = X = < < < < < < = X = O.) K                         ",
"                            B ` ` _ % k v v v v v k k j M O.S D o.M j o.k = = = < < < 1 < = o o.` K                             ",
"                                g ` ` ` j # c c v $ k k o.S S D o.S S j O.& = = < < < O = ~ ' o.K                               ",
"                                    B ` ] % k $ % # k O.o.S D D o.S S S o.o.X = = O . ~ ~ ~ o.r                                 ",
"                                      z ) ] _ l % k o.S S D D D o.S S S j O.X = X X ~ ~ s r                                     ",
"                                        * V ) ( / $ o.n F D D D o.S S S S j o.^ ~ ~ ~ r                                         ",
"                                            B x ` ` S D D F F D o.S S S S j j o.~ r r                                           ",
"                                              B ) o.S D F F D D o.S S S S S j ~ r                                               ",
"                                                B ` S M D D D D o.S S S S @ h ^ r                                               ",
"                                                z ' ) v M D D D o.S S S @ $ ) o.r                                               ",
"                                                  B ` ) b D D D o.S S S @ _ o.r                                                 ",
"                                                    , ' b b D D o.S S h + ) o.r                                                 ",
"                                                      B ` M F D o.S S @ _ o.e                                                   ",
"                                                        ` m b D o.S h h ` o.r                                                   ",
"                                                        B ' M D o.M h ( o.r                                                     ",
"                                                          o.b M o.j j o.o.r                                                     ",
"                                                          B O.m o.h j o.r                                                       ",
"                                                            ) m o.h [ r                                                         ",
"                                                            2 Q o.o.~                                                           ",
"                                                              2 ^ ~                                                             ",
"                                                                ~ K                                                             ",
"                                                                ~                                                               ",
"                                                                                                                                ",
"                                                                                                                                ",
"                                                                                                                                ",
"                                                                                                                                ",
"                                                                                                                                ",
"                                                                                                                                ",
"                                                                                                                                ",
"                                                                                                                                "
};
