/* XPM */
static char *starry_1_png1747774661[] = {
/* columns rows colors chars-per-pixel */
"64 64 162 2 ",
"   c #39FD4B",
".  c #4CFD5F",
"X  c #5BFF6D",
"o  c #FF5680",
"O  c #FE5E82",
"+  c #EC6084",
"@  c #EF7AA1",
"#  c #F275A3",
"$  c #E96CBA",
"%  c #FA63B7",
"&  c #F879B6",
"*  c #F67CBF",
"=  c #E33CFF",
"-  c #E43FFF",
";  c #EC6BC2",
":  c #F370C7",
">  c #FB7ACE",
",  c #FB5CFF",
"<  c #6EB7FD",
"1  c #79C7FF",
"2  c #FB979A",
"3  c #FFA69E",
"4  c #DC80AC",
"5  c #E381AE",
"6  c #F595A4",
"7  c #E68DBD",
"8  c #FF8BBE",
"9  c #DBADA0",
"0  c #DCA1B3",
"q  c #E4A5AC",
"w  c #F4A1B9",
"e  c #F8A5BE",
"r  c #FDA6BF",
"t  c #FFBCB2",
"y  c #F9C69F",
"u  c #B083CA",
"i  c #AF8DD3",
"p  c #B486D3",
"a  c #8682F0",
"s  c #9F88F6",
"d  c #A392E4",
"f  c #BB95EE",
"g  c #BA9DEB",
"h  c #B88AF2",
"j  c #BC88F6",
"k  c #BF81FB",
"l  c #AD91F1",
"z  c #A697FC",
"x  c #A79FFC",
"c  c #B89EF2",
"v  c #BB9AF5",
"b  c #B499F9",
"n  c #B19BFD",
"m  c #A4AAF8",
"M  c #A3AAFF",
"N  c #C883CB",
"B  c #CC9DCC",
"V  c #D092C0",
"C  c #D695C5",
"Z  c #D09BC4",
"A  c #DF9AC0",
"S  c #DA9CCB",
"D  c #D594D7",
"F  c #DC9ED0",
"G  c #DE9FD3",
"H  c #D396DE",
"J  c #ED83C1",
"K  c #F384C8",
"L  c #ED9CC7",
"P  c #E691CC",
"I  c #F19FCD",
"U  c #FF9CC9",
"Y  c #EE89D5",
"T  c #FA8DDD",
"R  c #E690DB",
"E  c #F49DD0",
"W  c #F194D8",
"Q  c #C7A4D7",
"!  c #CCA9D0",
"~  c #DCAAD2",
"^  c #D2B7D7",
"/  c #D8BADE",
"(  c #EDADC5",
")  c #E0AACA",
"_  c #F7AAD7",
"`  c #FFAED4",
"'  c #F3B1D3",
"]  c #DF8FE6",
"[  c #C497E3",
"{  c #CC81F9",
"}  c #C69EF7",
"|  c #CC93FF",
" . c #C999FF",
".. c #D59AF1",
"X. c #DD91F9",
"o. c #DF91FC",
"O. c #FF8DE2",
"+. c #F68DEA",
"@. c #FB89ED",
"#. c #E599E9",
"$. c #F79EE5",
"%. c #FD9EE3",
"&. c #FF9DE6",
"*. c #FB9DEE",
"=. c #E68DF3",
"-. c #E18CF5",
";. c #EF8EF2",
":. c #E88CF7",
">. c #F58AF3",
",. c #F48AFF",
"<. c #F68AFF",
"1. c #FF8BFF",
"2. c #FA8EFF",
"3. c #F191F5",
"4. c #F198F3",
"5. c #FF94FF",
"6. c #FF96FF",
"7. c #FF98FF",
"8. c #FD9EFD",
"9. c #FC9FFF",
"0. c #CEAFEF",
"q. c #CFACF7",
"w. c #DEADF7",
"e. c #D4A2FF",
"r. c #D3ADFB",
"t. c #D9B6FF",
"y. c #E9A5E6",
"u. c #FDA6E1",
"i. c #FAAEE1",
"p. c #F0A2EF",
"a. c #FBA3EF",
"s. c #E3B9EF",
"d. c #F3B5E0",
"f. c #FABAE5",
"g. c #ECA7F5",
"h. c #EAAEF2",
"j. c #EEAAF5",
"k. c #F7A0F2",
"l. c #F3A5F6",
"z. c #FAA0F9",
"x. c #FFAAFF",
"c. c #F2B2F0",
"v. c #F4B7F0",
"b. c #F8B7F5",
"n. c #F4BDFF",
"m. c #ABC4EB",
"M. c #BEFFFF",
"N. c #DEC8D1",
"B. c #D5C3D8",
"V. c #FFD7CF",
"C. c #E2C1DC",
"Z. c #FAC0D9",
"A. c #FFD7DE",
"S. c #CFD5E0",
"D. c #FBC1ED",
"F. c #F5CEF1",
"G. c #F5D9F3",
"H. c #F5D5FB",
"J. c #F9D7FD",
"K. c #F6EEFF",
"L. c #EEFFFF",
"P. c None",
/* pixels */
"P.P.P.P.P.P.P.P.P.P.P.P.P.P.P.P.P.P.P.P.P.P.P.P.P.P.P.P.P.P.P.P.P.P.P.P.P.P.P.P.P.P.P.P.P.P.P.P.P.P.P.P.P.P.P.P.P.P.P.P.P.P.P.P.",
"P.P.P.P.P.P.P.P.P.P.P.P.P.P.P.P.P.P.P.P.P.P.P.P.P.P.P.P.P.P.P.P.P.P.P.P.P.P.P.P.P.P.P.P.P.P.P.P.P.P.P.P.P.P.P.P.P.P.P.P.P.P.P.P.",
"P.P.P.P.P.P.P.P.P.P.P.P.P.P.P.P.P.P.P.P.P.P.P.P.P.P.P.P.P.P.P.P.P.P.P.P.P.P.P.P.P.P.P.P.P.P.P.P.P.P.P.P.P.P.P.P.P.P.P.P.P.P.P.P.",
"P.P.P.P.S.P.P.P.P.P.P.P.P.P.P.P.P.P.P.P.P.P.P.P.P.P.P.P.P.P.P.P.P.P.P.P.P.P.P.P.P.P.P.P.P.P.P.P.P.P.P.P.P.P.P.P.P.P.P.P.P.P.P.P.",
"P.P.P.P.d.P.P.P.P.P.P.P.P.P.P.P.P.P.P.P.P.P.P.P.P.P.P.%.a.P.P.P.P.P.P.P.P.P.P.P.P.P.P.P.P.P.P.P.P.P.P.- P.P.P.P.P.P.P.P.P.P.P.P.",
"P.P.P.P.P.P.P.P.P.P.P.P.P.P.P.P.P.P.P.P.P.P.P.P.P.P.P.P.P.P.P.P.P.P.P.P.P.P.P.P.P.P.P.P.P.P.P.P.P.P.P.P.P.P.P.H [ P.P.P.P.P.P.P.",
"P.P.P.P.P.P.P.P.P.P.P.P.P.P.P.P.P.P.P.P.P.P.P.P.P.P.P.P.P.P.P.P.P.P.P.P.P.P.P.P.P.P.P.P.P.P.P.P.P.P.P.P.P.P.P.k L.j P.P.P.P.P.P.",
"P.P.P.P.P.P.P.P.x i P.P.P.P.P.P.P.P.P.P.P.z.P.P.P.P.P.P.P.P.P.P.P.P.P.P.P.P.P.P.P.P.P.P.P.P.P.P.P.P.P.P.P.P.P.P.v P.P.P.P.P.P.P.",
"P.P.P.P.P.P.P.P.l p P.P.P.P.P.P.P.P.P.P.] 4./ P.P.P.P.P.P.P.P.B.( P.P.P.P.P.P.P.P.P.P.P.P.P.P.P.P.P.P.P.P.P.P.P.P.P.P.P.P.P.P.P.",
"P.P.P.P.P.P.P.P.P.P.P.P.P.P.P.P.P.P.P.P.*.2.| P.P.P.P.P.P.P.P.P.P.P.P.P.P.P.P.P.P 6 Y P.P.P.P.P.P.P.P.P.P.P.P.P.P.P.P.P.P.P.P.P.",
"P.P.P.P.P.P.P.P.P.P.P.P.P.P., P.P.P.P.P.P.P.P.P.P.P.P.P.P.P.P.P.P.P.P.P.P.P.P.P.4 + * P.P.P.P.P.P.g.P.P.P.P.P.P.P.P.P.P.P.P.P.P.",
"P.P.P.P.P.P.P.P.P.P.P.P.P.P.P.P.P.P.P.P.P.P.P.P.P.P.P.P.P.P.P.P.P.P.P.P.P.P.P.P.P.: P.P.P.P.P.P.P.9.P.P.P.P.P.P.P.P.P.P.P.P.P.P.",
"P.P.P.P.P.P.P.P.P.P.P.P.P.P.P.P.P.P.P.P.P.P.P.P.. P.P.P.P.P.P.P.P.P.P.P.P.P.P.P.P.P.P.P.P.P.P.P.P.P.P.P.P.P.P.P.P.P.P.P.P.P.P.P.",
"P.P.P.P.P.P.P.P.P.P.P.P.P.P.P.P.P.P.P.P.P.P.P.P.P.P.P.P.P.P.P.P.P.P.P.P.P.P.P.P.P.P.P.P.P.P.P.P.P.P.P.P.P.P.P.P.P.P.P.P.P.P.P.P.",
"P.P.P.P.P.P.P.P.P.P.P.P.P.P.P.P.P.P.P.P.P.P.P.P.P.P.P.P.P.P.P.P.P.P.P.P.P.P.P.P.P.P.P.P.P.P.P.P.P.P.P.P.P.P.P.P.P.P.P.P.P.P.P.P.",
"P.P.P.P.P.P.P.P.P.P.P.P.P.P.P.P.P.P.P.P.P.P.P.P.P.P.P.P.P.P.P.P.P.P.P.P.P.P.P.P.P.P.P.P.P.P.P.P.P.P.P.P.P.P.P.P.P.P.P.P.P.P.P.P.",
"P.P.P.P.P.P.P.P.P.P.P.P.P.P.P.P.i.P.P.P.P.P.P.P.P.P.P.P.P.P.P.P.P.P.P.P.P.P.P.P.P.P.P.P.P.P.P.P.P.P.P.P.P.P.P.P.P.P.P.P.P.P.P.P.",
"P.P.P.P.P.P.P.P.P.P.P.P.P.P.P.P.P.P.P.P.P.P.P.P.P.P.P.P.P.P.P.P.P.P.P.P.P.P.P.5.P.P.P.P.P.P.P.P.P.P.P.P.P.P.P.P.P.P.P.P.P.P.P.P.",
"P.P.P.P.P.P.P.P.P.P.P.P.P.P.P.P.P.P.P.P.P.P.P.P.P.P.P.P.P.P.P.P.P.P.P.P.P.P.P.P.P.P.P.P.P.P.P.P.P.P.P.P.P.P.P.P.) 9.P.P.P.P.P.P.",
"P.P.P.P.P.A.n.u.P.P.P.P.P.P.P.P.P.P.P.P.P.P.P.P.P.P.P.P.P.P.P.P.P.<.v.P.P.P.P.P.P.P.P.P.P.P.P.P.P.P.P.P.P.P.P.P.L P.P.P.P.P.P.P.",
"P.P.P.P.P.k.w.P.P.P.P.P.P.P.P.P.P.P.P.P.P.P.P.P.P.P.P.P.P.P.P.P.P.P.P.P.P.P.P.P.P.P.P.P.P.G P.P.P.P.P.P.P.P.P.P.P.P.P.P.P.P.P.P.",
"P.P.P.P.P.D.P.P.P.P.P.P.P.P.P.P.P.P.P.P.P.P.% & P.P.P.P.P.P.P.P.P.P.P.P.P.P.P.P.P.P.P.P.R $.O.P.P.P.P.P.P.P.P.P.P.P.P.P.P.P.P.P.",
"P.P.P.P.P.P.P.P.P.P.P.P.M  .P.P.P.P.P.P.P.P.9 ; P.P.P.P.P.P.P.P.P.P.P.P.P.P.P.P.P.P.P.P.&.>.t P.P.P.P.P.P.P.P.P.P.P.P.P.P.P.P.P.",
"P.P.P.P.P.P.P.P.P.P.P.P.P.P.P.P.P.P.P.P.P.P.P.P.P.P.P.P.P.P.P.P.P.P.P.P.P.P.P.P.P.P.P.P.P.P.P.P.P.P.P.P.P.P.P.P.P.P.P.P.P.P.P.P.",
"P.P.P.P.P.P.P.P.P.P.P.P.P.P.P.P.P.P.P.P.P.P.P.P.P.P.P.P.P.P.P.P.P.P.P.P.P.P.P.P.P.P.P.P.P.P.P.P.P.P.P.P.P.P.P.P.P.P.P.P.P.P.P.P.",
"P.P.P.P.P.P.P.P.P.P.P.P.P.P.P.P.P.P.P.P.P.P.P.P.P.P.P.P.P.P.P.P.P.P.P.P.P.P.P.P.P.P.P.P.P.P.P.P.P.P.F.y.P.P.P.P.P.P.P.P.P.P.P.P.",
"P.P.P.P.P.P.P.P.P.P.P.P.P.P.P.P.P.P.P.P.P.P.P.P.P.P.P.P.P.P.P.P.P.P.P.P.P.P.P.P.P.P.P.P.P.P.P.P.P.P.P.P.P.P.P.P.P.P.P.P.P.P.P.P.",
"P.P.P.P.  P.P.P.P.P.P.P.P.P.P.P.P.P.P.P.P.P.P.P.P.P.P.P.P.P.P.P.P.P.P.P.P.P.P.P.P.P.P.P.P.P.P.P.P.P.P.P.P.P.P.P.P.P.P.P.P.P.P.P.",
"P.P.P.P.P.P.P.P.P.P.P.P.P.P.P.P.P.P.P.P.P.P.P.P.P.P.P.P.P.P.P.P.P.P.P.P.P.P.P.P.P.P.P.P.P.P.P.P.P.P.P.P.P.P.P.P.P.P.P.P.P.P.P.P.",
"P.P.P.P.P.P.P.P.P.P.P.P.j.P.P.P.P.P.P.P.P.P.P.P.P.P.P.P.P.g P.P.P.P.P.P.P.P.5.P.P.P.P.P.P.P.P.P.P.P.P.P.P.P.P.P.P.P.P.P.P.P.P.P.",
"P.P.P.P.P.P.P.P.P.P.P.<.H.P.P.P.P.P.P.P.P.P.P.P.P.P.P.P.{ 1 a P.P.P.P.P.P.P.P.P.P.P.P.P.P.P.P.P.P.P.P.P.P.P.P.V.C.P.P.P.P.P.P.P.",
"P.P.P.P.P.P.P.P.P.P.P.=.K.A P.P.P.P.P.P.P.P.P.P.P.P.P.P.c u N P.P.P.P.P.P.P.P.P.P.P.P.P.P.P.P.P.P.P.P.P.P.P.P.P.P.P.P.P.P.P.P.P.",
"P.P.P.P.P.P.P.P.P.P.P.P.P.P.P.P.P.P.P.P.P.P.P.P.P.P.P.P.P.P.P.P.P.P.P.P.P.P.P.P.P.P.P.P.P.P.P.P.P.P.P.P.P.P.P.P.P.P.P.P.P.P.P.P.",
"P.P.P.P.P.P.P.P.P.P.P.P.P.P.P.P.P.P.P.P.P.P.P.P.P.P.P.P.P.P.P.P.P.P.P.P.P.P.P.P.P.P.P.P.P.P.P.P.P.P.P.P.P.P.P.P.P.P.P.P.P.P.P.P.",
"P.P.P.P.P.E P.P.P.P.P.P.P.P.P.P.P.P.P.P.P.P.P.P.P.P.P.P.P.P.P.P.P.P.P.P.P.P.P.P.P.P.P.P.P.P.~ 0.P.P.P.P.P.P.P.P.P.P.P.P.P.P.P.P.",
"P.P.P.P.P.P.P.P.P.P.P.P.P.P.P.P.P.P.P.P.P.P.X.P.P.P.P.P.P.P.P.P.P.P.P.P.P.P.P.P.P.P.P.P.P.P.P.P.P.P.P.P.P.P.P.P.P.P.P.P.P.P.P.P.",
"P.P.P.P.P.P.P.P.P.P.P.P.P.P.P.P.P.P.P.P.P.P.P.P.P.P.P.P.P.P.P.P.P.P.P.P.P.P.P.P.P.P.P.P.P.P.P.P.P.P.P.P.P.P.P.P.P.P.P.P.P.P.P.P.",
"P.P.P.P.P.P.P.P.P.P.P.P.P.P.P.P.P.P.P.P.P.P.P.P.P.P.P.P.P.P.P.P.P.P.P.P.P.P.P.P.P.P.P.P.P.P.P.P.P.P.P.P.P.P.P.P.P.P.P.P.P.P.P.P.",
"P.P.P.P.P.P.P.P.P.P.P.P.P.P.P.P.x.P.P.P.P.P.P.P.P.P.P.P.P.P.P.P.P.P.P.y P.P.P.P.P.P.P.P.P.P.P.P.P.P.P.P.P.P.P.P.P.P.P.P.P.P.P.P.",
"P.P.P.P.P.P.P.P.P.P.P.P.P.P.P.P.P.P.P.P.P.P.P.P.P.P.P.P.P.P.P.P.P.P.5 O U P.P.P.P.P.P.P.P.P.P.P.P.P.P.P.P.P.P.P.P.P.P.P.P.P.P.P.",
"P.P.P.P.P.P.P.P.P.P.I P.P.P.P.P.P.P.P.P.P.P.P.P.P.P.P.P.P.P.P.P.P.P.> $ Z P.P.P.P.P.P.P.P.P.P.P.P.P.P.P.P.P.P.P.P.P.P.P.P.P.P.P.",
"P.P.P.P.P.P.P.P.P.3.b.W P.P.P.P.P.P.P.P.P.P.P.P.P.r.P.P.P.P.P.P.P.P.P.P.P.P.P.P.P.P.P.P.P.P.P.P.P.P.P.P.P.;.2 P.P.P.P.P.P.P.P.P.",
"P.P.P.P.P.P.P.P.P.c.! P.P.P.P.P.P.P.P.P.P.P.P.P.P.d s P.P.P.P.P.P.P.P.P.P.P.P.P.P.P.P.P...P.P.P.P.P.P.P.P.p.t.P.P.P.P.P.P.P.P.P.",
"P.P.P.P.P.P.P.P.P.P.P.P.P.P.P.P.P.P.P.P.P.P.P.P.o.m h P.P.P.P.P.P.P.P.P.P.P.P.P.P.P.P.P.P.P.P.P.P.P.P.P.P.J f P.P.P.P.P.P.P.P.P.",
"P.P.P.P.P.P.P.P.P.P.P.P.P.P.P.P.P.P.P.P.P.P.P.P.P.P.P.P.P.P.P.P.P.P.P.P.P.P.P.P.P.P.P.P.P.P.P.P.P.P.P.P.P.P.P.P.P.P.P.P.P.P.P.P.",
"P.P.P.P.P.P.P.P.P.P.P.P.P.P.P.P.P.P.P.P.P.P.P.P.P.P.P.P.P.P.P.P.P.P.P.P.P.P.P.P.P.P.P.P.P.P.P.P.P.P.P.P.P.P.P.P.P.P.P.P.P.P.P.P.",
"P.P.P.P.P.P.P.P.P.P.P.P.P.P.P.P.P.P.P.P.P.P.P.P.P.P.P.P.P.P.P.P.P.P.P.P.P.P.P.P.P.P.P.P.P.P.P.P.P.P.P.P.P.P.P.P.P.P.P.P.P.P.P.P.",
"P.P.P.P.P.P.P.P.P.P.P.P.P.P.P.P.P.h.P.P.P.P.P.P.P.P.P.P.P.P.P.P.P.P.P.P.P.P.P.P.P.P.P.P.P.P.P.P.P.P.P.P.P.P.P.P.P.P.P._ P.P.P.P.",
"P.P.P.P.P.P.P.P.P.P.P.P.P.P.P.P.P.-.P.P.P.P.P.P.P.P.P.P.P.P.P.P.P.P.P.P.P.7.P.P.P.P.P.P.P.P.P.P.P.P.P.P.P.P.P.P.P.P.P.@.P.P.P.P.",
"P.P.P.P.P.P.r P.P.P.P.P.P.P.P.P.P.P.P.P.P.P.P.P.P.P.P.P.P.P.P.P.P.P.P.P.P.P.P.P.P.P.P.P.P.P.P.P.P.P.P.P.P.P.P.P.P.P.P.P.P.P.P.P.",
"P.P.P.P.P.7 o K P.P.P.P.P.P.P.P.P.P.P.P.P.P.P.P.P.P.P.P.P.P.P.P.P.P.P.P.P.P.P.P.P.P.P.P.P.P.P.P.P.P.P.P.P.P.P.P.P.P.P.P.P.P.P.P.",
"P.P.P.P.P.S @ # P.P.P.P.P.P.P.P.P.P.P.P.P.P.P.P.P.P.P.P.P.P.P.P.P.P.P.P.P.P.P.P.P.Z.` P.P.P.P.P.P.P.P.P.P.P.P.P.P.P.P.P.P.P.P.P.",
"P.P.P.P.P.P.P.P.P.P.P.P.P.P.P.P.P.P.P.P.P.P.P.P.P.P.P.P.P.P.P.G P.P.P.P.P.P.P.P.P.P.P.P.P.P.P.P.P.P.P.P.P.P.P.P.P.P.P.P.P.P.P.P.",
"P.P.P.P.P.P.P.P.P.P.P.P.P.P.P.P.P.P.P.P.P.P.P.P.P.P.P.P.P.P.N.' ^ P.P.P.P.P.P.P.P.P.P.P.P.P.P.P.P.P.P.P.P.P.P.P.P.P.P.P.P.P.P.P.",
"P.P.P.P.P.P.P.P.P.P.P.P.P.P.P.P.P.P.P.P.P.P.P.P.P.P.P.P.P.P.M.s.1.P.P.P.P.P.P.P.P.P.P.P.P.P.P.P.P.P.P.P.l.8 q.P.P.P.P.P.P.P.P.P.",
"P.P.P.P.P.P.P.P.P.P.P.:.P.P.P.P.P.P.P.P.P.P.P.P.P.P.P.P.P.P.P.P.P.P.P.P.P.P.P.P.P.P.P.P.P.P.P.P.P.P.P.P.P.e.+.P.P.P.P.P.P.P.P.P.",
"P.P.P.P.P.P.P.P.P.P.T G.D P.P.P.P.P.P.P.P.P.P.e P.P.P.P.P.P.P.P.P.P.P.P.P.P.P.V P.P.P.P.P.P.P.P.P.P.P.P.P.P.P.P.P.P.P.P.P.P.P.P.",
"P.P.P.P.P.P.P.P.P.P.#.J.P.P.P.P.P.P.P.P.P.P.3 w C P.P.P.P.P.P.P.P.P.P.P.P.P.z < m.P.P.P.P.P.P.P.P.P.P.P.P.P.P.P.P.P.P.P.P.P.P.P.",
"P.P.P.P.P.P.P.P.P.P.P.P.P.P.P.P.P.P.P.P.P.P.q B 0 P.P.P.P.P.P.P.P.P.P.P.P.P.b n } P.P.P.P.P.P.P.f.P.P.P.P.P.P.P.P.P.P.P.P.P.P.P.",
"P.P.P.P.P.P.P.P.P.P.P.P.P.P.P.P.P.P.P.P.P.P.P.P.P.P.P.P.P.P.P.P.P.P.P.P.P.P.P.Q P.P.P.P.P.P.P.P.P.P.P.P.P.P.P.P.P.X P.P.P.P.P.P.",
"P.P.P.P.P.= P.P.P.P.P.P.P.P.P.P.P.P.P.P.P.P.P.P.P.P.P.P.P.P.P.P.P.P.P.P.P.P.P.P.P.P.P.P.P.P.P.P.P.P.P.P.P.P.P.P.P.P.P.P.P.P.P.P.",
"P.P.P.P.P.P.P.P.P.P.P.P.P.P.P.P.P.P.P.P.P.P.P.P.P.P.P.P.P.P.P.P.P.P.P.P.P.P.P.P.P.P.P.P.P.P.P.P.P.P.P.P.P.P.P.P.P.P.P.P.P.P.P.P.",
"P.P.P.P.P.P.P.P.P.P.P.P.P.P.P.P.P.P.P.P.P.P.P.P.P.P.P.P.P.P.P.P.P.P.P.P.P.P.P.P.P.P.P.P.P.P.P.P.P.P.P.P.P.P.P.P.P.P.P.P.P.P.P.P.",
"P.P.P.P.P.P.P.P.P.P.P.P.P.P.P.P.P.P.P.P.P.P.P.P.P.P.P.P.P.P.P.P.P.P.P.P.P.P.P.P.P.P.P.P.P.P.P.P.P.P.P.P.P.P.P.P.P.P.P.P.P.P.P.P."
};
