/* XPM */
static char *starry_1_png_3_1747777670[] = {
/* columns rows colors chars-per-pixel */
"64 64 242 2 ",
"   c #000000",
".  c #05060A",
"X  c #08070C",
"o  c #0B0B0E",
"O  c #130D0E",
"+  c #14100F",
"@  c #0D0D12",
"#  c #110F12",
"$  c #160C18",
"%  c #0E1015",
"&  c #131115",
"*  c #1A1515",
"=  c #1C1917",
"-  c #15141A",
";  c #1B161A",
":  c #1C191C",
">  c #211817",
",  c #211619",
"<  c #241819",
"1  c #231C1C",
"2  c #31171E",
"3  c #2B221E",
"4  c #34211D",
"5  c #1D1B22",
"6  c #191A27",
"7  c #241D23",
"8  c #271E29",
"9  c #211934",
"0  c #242124",
"q  c #2B2324",
"w  c #24222A",
"e  c #2C242C",
"r  c #2B2A2C",
"t  c #302523",
"y  c #322824",
"u  c #332B2B",
"i  c #382828",
"p  c #382C2B",
"a  c #282532",
"s  c #2C2B32",
"d  c #342C32",
"f  c #372D38",
"g  c #343135",
"h  c #363234",
"j  c #3C3335",
"k  c #34333C",
"l  c #3B353C",
"z  c #3D393D",
"x  c #4D1E2E",
"c  c #43322D",
"v  c #443735",
"b  c #433A35",
"n  c #443A3B",
"m  c #4A3A39",
"M  c #513E37",
"N  c #4A423F",
"B  c #54453C",
"V  c #302F46",
"C  c #363541",
"Z  c #3B3542",
"A  c #3D3B43",
"S  c #3B3D4A",
"D  c #423B43",
"F  c #443A47",
"G  c #4A3E43",
"H  c #483E55",
"J  c #484348",
"K  c #4A434A",
"L  c #574846",
"P  c #53454A",
"I  c #4A4856",
"U  c #544B56",
"Y  c #585358",
"T  c #634C4A",
"R  c #68534E",
"E  c #645455",
"W  c #65585A",
"Q  c #6B5B5A",
"!  c #725B57",
"~  c #6F6059",
"^  c #494A67",
"/  c #4E4F6C",
"(  c #5A4C64",
")  c #585666",
"_  c #5D5B69",
"`  c #575975",
"'  c #645B65",
"]  c #655E7B",
"[  c #5B6677",
"{  c #68636A",
"}  c #746465",
"|  c #72636B",
" . c #7C6B6C",
".. c #636274",
"X. c #6A6878",
"o. c #766B76",
"O. c #73717D",
"+. c #E93B69",
"@. c #9B5163",
"#. c #8C696E",
"$. c #85726C",
"%. c #836E73",
"&. c #867171",
"*. c #8A7574",
"=. c #88767B",
"-. c #947D7D",
";. c #D14D71",
":. c #39FD4B",
">. c #5BFF6D",
",. c #5C6D88",
"<. c #656885",
"1. c #766D8E",
"2. c #6C7487",
"3. c #7A7586",
"4. c #75748C",
"5. c #757895",
"6. c #897687",
"7. c #847886",
"8. c #847895",
"9. c #EC6992",
"0. c #E43FFF",
"q. c #FB5CFF",
"w. c #7A869D",
"e. c #7D86A7",
"r. c #98868B",
"t. c #878598",
"y. c #9A8C94",
"u. c #AD8C8E",
"i. c #A89698",
"p. c #B79B9A",
"a. c #B9A29D",
"s. c #8189AB",
"d. c #8888A9",
"f. c #938AA8",
"g. c #9F94AB",
"h. c #8B91B2",
"j. c #8B93B6",
"k. c #9598BC",
"l. c #A99AA4",
"z. c #AD9BB2",
"x. c #9DA2BD",
"c. c #B7A4A8",
"v. c #B8A5B5",
"b. c #F08C9C",
"n. c #DB8FA7",
"m. c #F288AD",
"M. c #CAADAB",
"N. c #C6AEB5",
"B. c #CBB2B7",
"V. c #D7B7B7",
"C. c #D6BABB",
"Z. c #DCBDBC",
"A. c #F4A4BC",
"S. c #E8B4BA",
"D. c #DCC6BB",
"F. c #979DC4",
"G. c #A59DC3",
"H. c #B28AD3",
"J. c #9CA3CA",
"K. c #9EA4D0",
"L. c #A7A6CB",
"P. c #B9ABC5",
"I. c #A4A7D4",
"U. c #A6ABD4",
"Y. c #AAACD4",
"T. c #B6AED3",
"R. c #ADB3D9",
"E. c #BBB4D5",
"W. c #B3B5DB",
"Q. c #BBBDDE",
"!. c #B691F6",
"~. c #B9BEE2",
"^. c #A3AAFF",
"/. c #D999CE",
"(. c #ED93CD",
"). c #C8B3C3",
"_. c #D5BAC4",
"`. c #CAB4D1",
"'. c #F0ABD0",
"]. c #CF95ED",
"[. c #F793F3",
"{. c #CFB6EE",
"}. c #F8A7E6",
"|. c #F3ABF3",
" X c #BEC1E2",
".X c #D8C2CF",
"XX c #C6C2DB",
"oX c #CAC4DC",
"OX c #D9C5D8",
"+X c #E3C4C5",
"@X c #EAC6C6",
"#X c #EBCBCC",
"$X c #F1C7CD",
"%X c #F2CBCD",
"&X c #F6D3CE",
"*X c #E7CBD7",
"=X c #F2CDD4",
"-X c #F8CFDA",
";X c #F5D2D4",
":X c #F9D3D5",
">X c #F4D3DB",
",X c #FAD5DB",
"<X c #F6D8DC",
"1X c #FBDADC",
"2X c #C3C4E2",
"3X c #C6C7E5",
"4X c #CCCBE4",
"5X c #CDCCE9",
"6X c #D3CBE7",
"7X c #D7D5E7",
"8X c #D3D1E9",
"9X c #D4D4EA",
"0X c #DBD4EB",
"qX c #DBDAEE",
"wX c #DAD9F1",
"eX c #E5DBEA",
"rX c #E2DEEE",
"tX c #F6D6E2",
"yX c #FBDCE3",
"uX c #FBDDEA",
"iX c #E4DAF3",
"pX c #F5D2F6",
"aX c #DDE2F3",
"sX c #E3E1EE",
"dX c #E9E4EE",
"fX c #EDEAEE",
"gX c #FBE1E7",
"hX c #FBE3ED",
"jX c #E4E4F2",
"kX c #E9E6F2",
"lX c #EDEBF4",
"zX c #EDECF9",
"xX c #FBE7F2",
"cX c #F0EEF6",
"vX c #FCEBF3",
"bX c #F2EEFA",
"nX c #EEFFFF",
"mX c #F2F1F6",
"MX c #F5F4FA",
"NX c #FBF4F9",
"BX c #F6F9FE",
"VX c #FCFCFE",
/* pixels */
"                                                        B  .b B y k X.l.                                                        ",
"                                                    ..3. .w.| I g z k n W w.                                                    ",
"                                                J 3.) _ { Y J g S w g g P W t.                                                  ",
"        7X                                    R k O.) _ U U I z k S w A J P  .f.                                                ",
"        }.                                    z D g s k U r l Y o.Y g g u G X.7.                      q.                        ",
"                                              } J w a n I Y -.c.c.B.i.! n K O.O.'                             ].].              ",
"                                              Y X.s A U | l.C.+X#X%X%X%X-.*.| X.6.l.                          ].nX!.            ",
"                ^.H.                      |.b z S 5 r O.l.N.#X;X:X:X:X:X&Xp.6.o.7.=.                            !.              ",
"                !.H.                    ].i 1 : 5 5 v 7.B._.=X:X<XuXxXuXyX=Xp.=.=.r..                                           ",
"                                        B y g k e * E l.C.#X=XyXhXvXVXNXvXhXM.p.$.6.y.                                          ",
"                            q.          p } 0 l 5 = E c.Z.=X,XtXhXvXNXVXvXhXyX_.#. .i.            |.                            ",
"                                        j i 0 k 0 0 ! B.@X=X,XtXhXNXvXVXNXxXyX$Xp.*.y.          . [.                            ",
"                                        0 n & l u j Q &.n ! &.C.tXuXvXxX,Xv.$.F ' ! r.                                          ",
"                                        0 b 0 d q R E c.+X*X=X*X-XyXhXgXtXtXuX,X:XT =.                                          ",
"                                      b v u . y ; Q -.M.+X9 -XuX,X:XhX1X<X$XN.9 ;XT &.N.                                        ",
"                                      p j 3 X r 1 } p.#.9 I VX1.>X%XxXyX@X9 5.VX9 ! ~ t.                                        ",
"                                }.    * y - . u 2 %.C.B.p.6.'.yXuXZ.hXgXuX$X>XA.=X_.Q 6.                                        ",
"                                    j = v X o r e #._.-XtXuXuXuX:XZ.uXgXuXuXuXhXuX=XU %.                                        ",
"                                    L % u o . : e R _.-XuXxXvXvX$XV.yXhXuXxXhXhXhXuXm 6.                        '.|.            ",
"          gX|.}.                  2.L & r X X : F G B.-XuXvXvXxX@XM.1XgXyXhXhXNXhXgXm 6.                        /.              ",
"          |.|.                    ' ; l - X X q P P c.=XyXhXuX:XV.Z.1XgX,X-X,XhXhXyXJ %..                                       ",
"                                  N = v & . . 5 P G i._.,XyX,X:Xu.@.@X$X:XyX$X:XgXtX8 %.(.}.[.                                  ",
"                        ^.].      p - J @ . . 8 U n -.B.=X%X$X$X#X&X>XyXyX,X#X$X,Xf e =.                                        ",
"                          .       b - 7 % . o 8 ..U *.+X:X1Xx @.;.9.m.m.b.9 >X:X:X5 e =.                                        ",
"                                _ r u 5 @ @ @ 5 _ .  .B.;X1XS.;.VXVXVXVXn.,X1X1X_.k v %.                                        ",
"                                Y : N o @ - @ w ( o y i.Z.&X&XA.+.9.'.m.A.gX1X&X- C F =.            pX                          ",
"                                N s = - @ X 5 r ' 6 3 } c.D.#X#X+Xb.b.;XgX1X:X$ 7 f G =.                                        ",
"        :.                      N L 0 w % . C d { 0 4 v  .i.C.:X;X,XtXuXhX1XG . e F m  .                                        ",
"                                y p = r % . C l ' d t m B E u.+X:X,XvXhXgXO.5 X n D } &.R                                       ",
"                        |.      N 3 & & - . C J W J 4 m B L L a.+X,XyXyXi.F & d d u  .&.m                                       ",
"                      [.pX      p = u % % % o u F V m c M M M T -.B.M.a.T e a 0 q G  .*.j                     :X                ",
"                      [.bX/.    y + - . % % k d U T.fXL B T ! u.+X+Xc.u.4 5.H e q L  .$.v                                       ",
"                                : 6 S % @ - . Z ' T.8XkXbXu.M.D.&XC.a.R 2 8X..U w P $.$.r L                                     ",
"                              > r o X % @ 7 - a | oX0XrXkXMXgX@X@XV.$.x eX1.5.F K E Q ! p 4                                     ",
"          (.                n w 6 - % s % o - a o.6X8XdXfXbXBXVXVXc.mXdXbX6X4.F U Y $.R q b `.{.                                ",
"          .                 : s % o 6 6 k @ @ I | qXoXkXbXmXMXVXVXVXVXVXT.iX` U 5 } } L q > B                                   ",
"                          5 5 6 6 6 : 6 @ - @ % 7.eXjXlXzXmXMXMXmXVXVXNXE.G.{.C 6 E W c u r b                                   ",
"                        F 0X6X`.^ 6 - s . @ @ @ ' eXlXbXmXmXmXmXVXVXVXVX0XK.<...* W E c t - 3 Q                                 ",
"                      7XdXeXlX8X2.0 - 5 X @ @ s ' qX`.BXmXmXmXNXmXVXVXVXlX3X1.( 6 E N i p = o K                                 ",
"                    jXcXcXbXrXk.0 w w . @ o @ - =.kX3XY.zXmXVXVXVXVXVXVXbX`.Y.X.w L L p y % * j                                 ",
"                  jXlXcXBXdXsX..0 : o X o @ @ & | eXbX4XoX7XVXVXVXVXVXVXVX0X6X] 8 | $ < 3 & - *                                 ",
"                  kXMXlXsXmXXXd 5 & % - @ X o : %.eXbXdXlXVXVXVXVXVXVXNXNX6XG.8.v W * < 1 = o - > H       [.b.                  ",
"                  sXMXzXkXjXf A : o 5 % @ X % @ L eXMXbXmXVXVXVXmXVXVXVXNXT.T.8.H v & > 1 * & @ o m       |.{..                 ",
"                qXrXMXqXrXE.7 e = - : @ @ @ 6 @ M iXMXMXBXNXVXBXVXVXVXVXVX`.6Xf.4.4 # > = * = : : = Q lX  (.!.                  ",
"              qXqXzXlXMXXXw.p k.: 5 # % & @ - & c 6XbXNXNXBXVXMXNXmXVXVXVXOX0XG.t.q & = , & : 1 # # 3 oX                        ",
"              jXoXBX9XlXk.U t.x.: : 5 5 - @ 5 # e / NXNXMXBXMXmXMXVXVXVXVXeXiXE.3.= & * * * + - : % > ) MX                      ",
"              sX9XVXjX3XJ.e w.h.- * - - : - - @ 1 ] cXMXMXVXVXmXVXVXVXVXVXdXeXT.7.8 # q * * * + * X o b NX                      ",
"            ^ jXkXlXlXI.L.l t.U.D : - - - & % X # d 6XbXMXBXVXVXVXVXVXMXVXVX`.F.] e $ * * o O o + : = p 8.VX          '.        ",
"            / sXBXqXjXJ.k._ ) k.w.* # - & - X & & D G.mXlXMXBXBXMXMXlXVXVXBX0XL.L.f @ : * o $ = + = = @ ' bX          [.        ",
"            x.jXVXqX9XW.~.' 7.j.w.- - # & & # - & ; F bXMXMXMXmXmXmXbXMXBXNXT.h.4Xl & 3 O o O O : : * 5 i kX                    ",
"            9XaXVXjX2XR.3XY w.s.w.= % * - * o : * - l 2XMXMXMXMXMXMXMXVXVXVXzXf.rXH * = * + & * = = = 5 l jXsX                  ",
"          /.4X9XMXlXQ.2X2X{ w.h.e.> ; & . O ; d 7 I w ' zXMXBXMXBXMXBXNXVXBXMXoXbX( - * * - * * * = = 0 w 8.mX                  ",
"            9X9XlXlX~.2XQ.O.e.w.w.> 1 = o O F , C 8 8 H `.BXBXVXBXBXBXBXVXMXMXOXkXU $ ; * # * * ; & 2.: 6 ) zXmX                ",
"            wX9XqXMX3X3X~.X.h.2._ , g ; * * Z A ' ^ A a s.bXBXVXVXBXBXVXVXVXVXoXMX3.: : > * * O * * C ; F G zXmX                ",
"            wX7XsXcX4X4XY.O.s.s.S 3 g - : * : s.I f.<.I ^ iXbXNXVXVXVXVXVXVXBXcXwXP 8 8 1 & ; $ * * u w I D MXBX                ",
"            wX9XlXjXrX3XY.' e.j.Y u q ) : ; 8 L.<.j.F...` j.kXVXBXVXVXBXVXVXBXNX5XF D X.i < 7 # ; - k d S Y mXBX                ",
"            qX5XbXcXzXXXU.N j.j.Y s r w : ; < 4.4Xk.R.U.Y.E.mXBXVXVXVXBXVXVXVXMXG.J d.j.J < u 7 : a S P V { MXVX                ",
"            9X3X8XMXmXW.K.j h.J.I A k I 7 y d <.L.L.4XrXkXmXBXBXBXBXVXBXBXVXVXfXl.f.Y.W.L l j Z e s I ..^ 4.zX`.                ",
"            aXaXaXVXVX4XR.I e.K.2.` I z k q t ..I.4XsXjXlXzXMXBXBXBXBXVXVXVXBXzXqX4XsX4Xo.' F F Z S ^ | O. ._.0X                ",
"            9XqXaXVXVXjXY.h.s.U.e.4.{ I <.) l 1. X7XsXaXlXmXMXBXBXMXBXBXBXVXVXMXMXMXzX7XL.4.W 4.` 2.e.r.l.r.*XOX  >.            ",
"            aXwXjXVXBXkX5XL.U.W.K.[ I s.w.J.^ R.2XjXlXsXkXMXBXMXBXMXzXMXVXVXVXVXBXMXMXrX8XXX8XQ.j.j.L.i.v.`.OX6X                ",
"                z.P.VXmX0X~.~. Xj.,.[ h.K.R. X XQ.9XaXaXsXMXMXMXBXBXMXmXMXVXVXVXBXMXMXfXzXmXkX9XY.8XjX3.)._.*XOX                ",
"                y.y.l.l.g.9X8X5X,.,.e.J.R.R.~.4X3X3XjXaXzXMXMXmXMXBXBXzXlXVXVXVXBXMXMXMXMXMXzXkXmXjXjXz.).`..XOX                ",
"                i.c.v.N.N.).).v.[ ,.k.k.R.~.~.3X X3XqXsXmXmXmXmXmXBXBXMXzXMXVXVXVXMXmXzXmXMXmXmXzXzXjX).)._.OXOX                "
};
