/* XPM */
static char *starry_1_png_1_1747776884[] = {
/* columns rows colors chars-per-pixel */
"64 64 143 2 ",
"   c black",
".  c #39FD4B",
"X  c #4CFD5F",
"o  c #5BFF6D",
"O  c #FF5680",
"+  c #FE5E82",
"@  c #EC6084",
"#  c #EF7AA1",
"$  c #F275A3",
"%  c #E96CBA",
"&  c #F879B6",
"*  c #F67CBF",
"=  c #E43FFF",
"-  c #EC6BC2",
";  c #F370C7",
":  c #FB7ACE",
">  c #FB5CFF",
",  c #6EB7FD",
"<  c #79C7FF",
"1  c #FB979A",
"2  c #FFA69E",
"3  c #DC80AC",
"4  c #E381AE",
"5  c #F595A4",
"6  c #FF8BBE",
"7  c #DCA1B3",
"8  c #E4A5AC",
"9  c #F4A1B9",
"0  c #F8A5BE",
"q  c #FDA6BF",
"w  c #F9C69F",
"e  c #B083CA",
"r  c #AF8DD3",
"t  c #B486D3",
"y  c #8682F0",
"u  c #9F88F6",
"i  c #A392E4",
"p  c #BB95EE",
"a  c #BA9DEB",
"s  c #B88AF2",
"d  c #BC88F6",
"f  c #BF81FB",
"g  c #AD91F1",
"h  c #A697FC",
"j  c #A79FFC",
"k  c #B89EF2",
"l  c #BB9AF5",
"z  c #B499F9",
"x  c #B19BFD",
"c  c #A4AAF8",
"v  c #A3AAFF",
"b  c #C883CB",
"n  c #CC9DCC",
"m  c #D092C0",
"M  c #D695C5",
"N  c #D09BC4",
"B  c #DF9AC0",
"V  c #DA9CCB",
"C  c #D594D7",
"Z  c #DC9ED0",
"A  c #D396DE",
"S  c #ED83C1",
"D  c #F384C8",
"F  c #ED9CC7",
"G  c #F19FCD",
"H  c #FF9CC9",
"J  c #FA8DDD",
"K  c #E690DB",
"L  c #F49DD0",
"P  c #F194D8",
"I  c #C7A4D7",
"U  c #CCA9D0",
"Y  c #DCAAD2",
"T  c #D2B7D7",
"R  c #D8BADE",
"E  c #EDADC5",
"W  c #E0AACA",
"Q  c #F7AAD7",
"!  c #FFAED4",
"~  c #F3B1D3",
"^  c #DF8FE6",
"/  c #C497E3",
"(  c #CC81F9",
")  c #C69EF7",
"_  c #CC93FF",
"`  c #C999FF",
"'  c #D59AF1",
"]  c #DD91F9",
"[  c #DF91FC",
"{  c #FF8DE2",
"}  c #F68DEA",
"|  c #FB89ED",
" . c #F79EE5",
".. c #FD9EE3",
"X. c #FB9DEE",
"o. c #E68DF3",
"O. c #E18CF5",
"+. c #EF8EF2",
"@. c #F68AFF",
"#. c #FF8BFF",
"$. c #FA8EFF",
"%. c #F191F5",
"&. c #F198F3",
"*. c #FF94FF",
"=. c #FF98FF",
"-. c #FC9FFF",
";. c #CEAFEF",
":. c #CFACF7",
">. c #DEADF7",
",. c #D4A2FF",
"<. c #D3ADFB",
"1. c #D9B6FF",
"2. c #FDA6E1",
"3. c #FAAEE1",
"4. c #F0A2EF",
"5. c #FBA3EF",
"6. c #E3B9EF",
"7. c #F3B5E0",
"8. c #FABAE5",
"9. c #ECA7F5",
"0. c #EAAEF2",
"q. c #EEAAF5",
"w. c #F7A0F2",
"e. c #F3A5F6",
"r. c #FAA0F9",
"t. c #FFAAFF",
"y. c #F2B2F0",
"u. c #F4B7F0",
"i. c #F8B7F5",
"p. c #F4BDFF",
"a. c #ABC4EB",
"s. c #BEFFFF",
"d. c #DEC8D1",
"f. c #D5C3D8",
"g. c #FFD7CF",
"h. c #FAC0D9",
"j. c #FFD7DE",
"k. c #CFD5E0",
"l. c #F5CEF1",
"z. c #F5D9F3",
"x. c #F5D5FB",
"c. c #F6EEFF",
"v. c #EEFFFF",
/* pixels */
"                                                                                                                                ",
"                                                                                                                                ",
"                                                                                                                                ",
"        k.                                                                                                                      ",
"        7.                                            ..5.                                            =                         ",
"                                                                                                              A /               ",
"                                                                                                              f v.d             ",
"                j r                       r.                                                                    l               ",
"                g t                     ^ &.R                 f.E                                                               ",
"                                        X.$._                                     5                                             ",
"                            >                                                   3 @ *             9.                            ",
"                                                                                  ;               -.                            ",
"                                                X                                                                               ",
"                                                                                                                                ",
"                                                                                                                                ",
"                                                                                                                                ",
"                                3.                                                                                              ",
"                                                                              *.                                                ",
"                                                                                                                W -.            ",
"          j.p.2.                                                  @.u.                                          F               ",
"          w.>.                                                                                                                  ",
"                                              &                                         K  .{                                   ",
"                        v `                   -                                                                                 ",
"                                                                                                                                ",
"                                                                                                                                ",
"                                                                                                    l.                          ",
"                                                                                                                                ",
"        .                                                                                                                       ",
"                                                                                                                                ",
"                        q.                                a                 *.                                                  ",
"                      @.x.                              ( < y                                                 g.                ",
"                      o.c.B                             k e b                                                                   ",
"                                                                                                                                ",
"                                                                                                                                ",
"          L                                                                                 Y ;.                                ",
"                                            ]                                                                                   ",
"                                                                                                                                ",
"                                                                                                                                ",
"                                t.                                    w                                                         ",
"                                                                    4 + H                                                       ",
"                    G                                               : % N                                                       ",
"                  %.i.P                           <.                                                      +.1                   ",
"                  y.U                             i u                                   '                 4.1.                  ",
"                                                [ c s                                                     S p                   ",
"                                                                                                                                ",
"                                                                                                                                ",
"                                                                                                                                ",
"                                  0.                                                                                  Q         ",
"                                  O.                                      =.                                          |         ",
"            q                                                                                                                   ",
"            O D                                                                                                                 ",
"          V # $                                                                   h.!                                           ",
"                                                              Z                                                                 ",
"                                                            d.~ T                                                               ",
"                                                            s.6.#.                                      e.6 :.                  ",
"                                                                                                          ,.}                   ",
"                    J z.C                     0                               m                                                 ",
"                                            2 9 M                           h , a.                                              ",
"                                            8 n 7                           z x )               8.                              ",
"                                                                              I                                   o             ",
"                                                                                                                                ",
"                                                                                                                                ",
"                                                                                                                                ",
"                                                                                                                                "
};
