/* XPM */
static char *starry_1_png_4_1747931456[] = {
/* columns rows colors chars-per-pixel */
"64 64 242 2 ",
"   c #000000",
".  c #05060A",
"X  c #08070C",
"o  c #0B0B0E",
"O  c #130D0E",
"+  c #14100F",
"@  c #0D0D12",
"#  c #110F12",
"$  c #160C18",
"%  c #0E1015",
"&  c #131115",
"*  c #1A1515",
"=  c #1C1917",
"-  c #15141A",
";  c #1B161A",
":  c #1C191C",
">  c #211817",
",  c #211619",
"<  c #241819",
"1  c #231C1C",
"2  c #31171E",
"3  c #2B221E",
"4  c #34211D",
"5  c #1D1B22",
"6  c #191A27",
"7  c #241D23",
"8  c #271E29",
"9  c #211934",
"0  c #242124",
"q  c #2B2324",
"w  c #24222A",
"e  c #2C242C",
"r  c #2B2A2C",
"t  c #302523",
"y  c #322824",
"u  c #332B2B",
"i  c #382828",
"p  c #382C2B",
"a  c #282532",
"s  c #2C2B32",
"d  c #342C32",
"f  c #372D38",
"g  c #343135",
"h  c #363234",
"j  c #3C3335",
"k  c #34333C",
"l  c #3B353C",
"z  c #3D393D",
"x  c #4D1E2E",
"c  c #43322D",
"v  c #443735",
"b  c #433A35",
"n  c #443A3B",
"m  c #4A3A39",
"M  c #513E37",
"N  c #4A423F",
"B  c #54453C",
"V  c #302F46",
"C  c #363541",
"Z  c #3B3542",
"A  c #3D3B43",
"S  c #3B3D4A",
"D  c #423B43",
"F  c #443A47",
"G  c #4A3E43",
"H  c #483E55",
"J  c #484348",
"K  c #4A434A",
"L  c #574846",
"P  c #53454A",
"I  c #494757",
"U  c #4D4A53",
"Y  c #544B56",
"T  c #585358",
"R  c #634C4A",
"E  c #68534E",
"W  c #645455",
"Q  c #65585A",
"!  c #6B5B5A",
"~  c #725B57",
"^  c #494A67",
"/  c #4E4F6C",
"(  c #5A4C64",
")  c #585666",
"_  c #5D5B69",
"`  c #575975",
"'  c #645B65",
"]  c #655E7B",
"[  c #5B6677",
"{  c #68636A",
"}  c #746465",
"|  c #72636B",
" . c #7C6B6C",
".. c #636274",
"X. c #6A6878",
"o. c #766B76",
"O. c #73717D",
"+. c #E93B69",
"@. c #9B5163",
"#. c #8C696E",
"$. c #85726C",
"%. c #836E73",
"&. c #867171",
"*. c #8A7574",
"=. c #88767B",
"-. c #947D7D",
";. c #D14D71",
":. c #39FD4B",
">. c #5BFF6D",
",. c #5C6D88",
"<. c #656885",
"1. c #766D8E",
"2. c #6C7487",
"3. c #7A7586",
"4. c #75748C",
"5. c #757895",
"6. c #897687",
"7. c #847886",
"8. c #847895",
"9. c #EC6992",
"0. c #E43FFF",
"q. c #FB5CFF",
"w. c #7A869D",
"e. c #7D86A7",
"r. c #98868B",
"t. c #878598",
"y. c #9A8C94",
"u. c #AD8C8E",
"i. c #A89698",
"p. c #B79B9A",
"a. c #B9A29D",
"s. c #8189AB",
"d. c #8888A9",
"f. c #938AA8",
"g. c #9F94AB",
"h. c #8B91B2",
"j. c #8B93B6",
"k. c #9598BC",
"l. c #A99AA4",
"z. c #AD9BB2",
"x. c #9DA2BD",
"c. c #B7A4A8",
"v. c #B8A5B5",
"b. c #F08C9C",
"n. c #DB8FA7",
"m. c #F288AD",
"M. c #C6AAA9",
"N. c #D0B3AF",
"B. c #C6AEB5",
"V. c #CBB2B7",
"C. c #D6BABB",
"Z. c #DABABA",
"A. c #F4A4BC",
"S. c #E8B4BA",
"D. c #DCC6BB",
"F. c #979DC4",
"G. c #A59DC3",
"H. c #B28AD3",
"J. c #9CA3CA",
"K. c #9EA4D0",
"L. c #A7A6CB",
"P. c #B9ABC5",
"I. c #A4A7D4",
"U. c #A6ABD4",
"Y. c #AAACD4",
"T. c #B6AED3",
"R. c #ADB3D9",
"E. c #BBB4D5",
"W. c #B3B5DB",
"Q. c #BBBDDE",
"!. c #B691F6",
"~. c #B9BEE2",
"^. c #A3AAFF",
"/. c #D999CE",
"(. c #ED93CD",
"). c #C8B3C3",
"_. c #D6BBC3",
"`. c #CAB5D7",
"'. c #F0ABD0",
"]. c #CF95ED",
"[. c #F793F3",
"{. c #CFB6EE",
"}. c #F8A7E6",
"|. c #F3ABF3",
" X c #BEC1E2",
".X c #D8C2CF",
"XX c #C6C2DB",
"oX c #CAC4DC",
"OX c #D9C5D8",
"+X c #E3C4C5",
"@X c #EAC6C6",
"#X c #EBCBCC",
"$X c #F0C7CE",
"%X c #F2CBCD",
"&X c #F6D3CE",
"*X c #E7CBD7",
"=X c #F2CDD4",
"-X c #F8CFDA",
";X c #F5D2D3",
":X c #F9D3D5",
">X c #F4D3DB",
",X c #FAD5DB",
"<X c #F6D8DC",
"1X c #FBDADC",
"2X c #C3C4E2",
"3X c #C6C7E5",
"4X c #CCCBE4",
"5X c #CDCCE9",
"6X c #D3CBE7",
"7X c #D7D5E7",
"8X c #D3D1E9",
"9X c #D4D4EA",
"0X c #DBD4EB",
"qX c #DBDAEE",
"wX c #DAD9F1",
"eX c #E5DBEA",
"rX c #E2DEEE",
"tX c #F6D6E2",
"yX c #FBDCE3",
"uX c #FBDDEA",
"iX c #E4DAF3",
"pX c #F5D2F6",
"aX c #DDE2F3",
"sX c #E3E1EE",
"dX c #E9E4EE",
"fX c #EDEAEE",
"gX c #FBE1E7",
"hX c #FBE3ED",
"jX c #E4E4F2",
"kX c #E9E6F2",
"lX c #EDEBF4",
"zX c #EDECF9",
"xX c #FBE7F2",
"cX c #F0EEF6",
"vX c #FCEBF3",
"bX c #F2EEFA",
"nX c #EEFFFF",
"mX c #F2F1F6",
"MX c #F5F4FA",
"NX c #FBF4F9",
"BX c #F6F9FE",
"VX c #FCFCFE",
/* pixels */
"                                                        B $.z B y k X.l.                                                        ",
"                                                    ..4.O.3.| U k z z z Q e.                                                    ",
"                                                J 3._ _ { Q J j S w g g P Q t.                                                  ",
"        7X                                    R k O.) _ U U U z k S w z n P  .f.                                                ",
"        }.                                    z z g s k Y r z T o.T l g d G X.7.                      0.                        ",
"                                              } J w a z Y T -.c.c.N.i.! n J o.3.{                             ].].              ",
"                                              T X.s A Y | l.C.+X#X%X%X#X-.*.X.X.6.l.                          ].nX!.            ",
"                ^.H.                      |.b z S 5 u O.l.v.#X;X;X-X:X:X&Xp.=.%.7.=.                            !.              ",
"                !.H.                    ].i 1 : 5 5 v 7.V._.=X,X,XuXvXuXuX&Xp.=.%.r.                                            ",
"                                        B y j k r * W l.C.#X=X1XhXxXBXNXvXuXN.p. .r.y.                                          ",
"                            q.          p } 7 k 5 = W c.Z.=X,XtXhXvXBXVXvXhXyXC.#. .i.            |.                            ",
"                                        v p 7 k 0 0 ~ V.@X=X>XtXhXvXvXVXNXxXuX$Xp.*.y.          . [.                            ",
"                                        0 n * l u j ! &.F ~ $._.yXuXxXxX,Xz.&.F ..~ r.                                          ",
"                                        0 b 5 d q E W c.+X=X>X#X=X1XhXhXyXyXuX:X;XR *.                                          ",
"                                      b v u . r ; ~ -.N.$X_.>XuXyX:XhX1X<X$X$X_.Z.R &.B.                                        ",
"                                      p b 1 . u 1 } i.#.9 I VX1.>X%XvX1X@X9 5.VX9 ~ ! t.                                        ",
"                                }.    * y - . u t %.C.B.p.9.'.yX1X+XhXgXyX$X>XA.=X_.! 6.                                        ",
"                                    j = v X o r 8 #._.-XeXeXuXuX:XZ.uXgXuXuXuXhXuX=XY %.                                        ",
"                                    L % u o . : e E _.-XyXhXNXvX%XZ.uXhXuXvXxXhXhXuXm 6.                        '.|.            ",
"          gX|.}.                  2.L & r X X : F G V.-XuXvXvXhX_.N.1XgXtXhXhXvXhXgXm 6.                        /.              ",
"          |.|.                    ' ; l - X X q P P c.=XtXvXhX:XS.S.:XyX<X:X,XhXhXyXJ %..                                       ",
"                                  N = v & . . 5 P G i._.,X1X1X&Xu.#.@X$X:XyX$X,XhXtX8 %.(.}.[.                                  ",
"                        ^.].      p - J @ . . 8 Y n -.N.=X%X'.%X#X;X;XyXtX,X$X@X,Xf e =.                                        ",
"                          .       b - 7 % . o 8 ..Y =.+X:X1Xx @.;.9.m.m.b.9 <X:X,X; e =.                                        ",
"                                _ r u 5 @ @ @ 5 _ .  .V.;X1XS.;.VXVXVXVXn.,X,X1X_.k v %.                                        ",
"                                T : N o @ - @ w ( o y i.D.&X&XA.+.9.'.m.A.gX1X&X- C F =.            pX                          ",
"                                N s = - @ X 5 r ' 6 3 } c.D.#X#XD.b.b.;XgX1X:X$ 7 f G =.                                        ",
"        :.                      N L 0 w % . C d { 0 4 v  .i.C.:X,X,XtXuXgX1XF X e F m  .                                        ",
"                                y p = r % . C l ' d t m B W u.+X:X,XvXuXgXO.5 X n D } &.E                                       ",
"                        |.      N 3 & & - . C J Q J 4 m B L L a.+X<XyX<Xi.J # d d u  .&.m                                       ",
"                      [.pX      p = u % % % o u F V m c M M M R -.V.M.c.R 8 a 8 q G  .*.j                     :X                ",
"                      [.bX/.    y + - . % % k d Y T.fXL B R ~ u.+X+XM.u.4 5.I e q L  .$.v                                       ",
"                                = 6 S % @ - X Z ' T.9XkXMXu.M.D.&XC.a.~ 2 0X..Y w P $.$.u B                                     ",
"                              * r X X % @ 7 - a | oX0XiXkXMXhX@X@XZ.#.4 eX1.5.A K W ! ! p y                                     ",
"          (.                b w 6 - % s % o ; a o.6X9XdXfXbXMXVXVXc.mXdXvX6X1.F U T  .E q b /.{.                                ",
"                            : s @ @ 6 6 k @ X I | qXoXkXcXmXMXVXVXVXVXVXE.eX` ^ :  .} L q < N                                   ",
"                          5 5 6 6 6 5 6 @ - @ % 3.eXkXlXcXmXMXMXmXVXVXNXE.G.{.Z 5 Q ! c p r b                                   ",
"                        F 0X6X`.^ 5 - r . @ @ @ ' eXlXmXmXmXmXcXVXVXVXBX0XK.<...- W W c q - 3 Q                                 ",
"                      qXdXeXlX8X2.0 - 6 X @ @ s { 9X`.MXmXmXmXNXmXVXVXVXfX{.1.( - Q B i p = o J                                 ",
"                    sXcXbXcXeXk.0 w w X @ @ X - =.kX4XY.cXmXVXVXVXVXVXVXmXXXL.X.w P L u u & & j                                 ",
"                  jXlXcXBXdXsX..0 : X X @ @ @ % | rXbX4XoX7XVXVXVXVXVXVXVX0X6X] 8 | $ < 3 & - =                                 ",
"                  kXMXlXsXmXXXd 5 & & % @ o @ ; #.eXcXkXkXVXVXVXVXVXVXNXNX6XG.6.D W * < 1 * X = > H       [.b.                  ",
"                  sXmXzXkXjXf A : o 5 % X @ % @ L eXBXbXNXVXVXVXmXVXVXVXMXT.T.8.H v # = 1 = & o @ b       |.{..                 ",
"                qXrXMXaXrXE.7 e = - : % @ @ 5 @ M iXMXNXMXNXVXVXVXVXVXVXVX`.6Xf.3.t # < > * = : : = Q zX. m.!.                  ",
"              qXwXcXlXmXXXw.p x.1 5 % - % % $ - c 6XbXMXNXBXVXMXNXmXVXVXVXOX0XG.t.3 & = > # : 1 # % 3 oX                        ",
"              kXoXVX9XlXk.Y t.x.: ; 5 - - # 5 @ e / MXMXMXBXMXmXMXVXVXVXVXsX0XE.3.= & ; * * & - : & > ( BX                      ",
"              jX8XBXdX3XJ.e 5.j.- - % : 5 & - @ , ] cXMXMXVXVXMXVXVXVXVXVXdXeXT.7.8 $ q * * * O = o o b BX                      ",
"            ^ jXkXlXkXU.L.Z t.U.J - - - - & & X $ d 7XbXMXMXVXVXVXVXVXmXVXVX`.G.] 8 * - * O # o + = = u 8.BX          '.        ",
"            / sXBXqXjXJ.k.) ' k.w.* % - & - o & & n G.mXlXMXBXMXMXmXlXVXVXBXiXG.L.f # = = X * > o : = @ ' mX          [.        ",
"            x.jXVXqX9XW. X_ 3.j.w.* - @ & & & - & ; F bXMXMXMXMXmXmXbXMXBXMXT.h.4XZ & 1 + X O # = 3 & 5 i lX                    ",
"            wXaXVXsX2XR.3XT t.e.w.: & & * * @ : - * Z 2XbXMXMXMXMXMXMXVXVXVXbXf.iXH - * = & * # = = = 5 l iXsX                  ",
"          /.3X9XMXzXQ.2X X..w.h.e.< = & . o - d 7 I w ' bXMXBXBXBXBXBXNXVXBXMX2XbX( * * * * ; ; # = : 0 w 8.mX                  ",
"            9X9XlXlX2X X XO.e.w.w.> : = @ O F ; l 8 6 I `.VXBXBXBXBXBXBXVXMXmXOXkXY $ - * + * * ; * 4.: 6 ( cXcX                ",
"            qX9XqXmXoX3X XX.h.2._ < j - * * Z A ) ^ Z e s.bXBXVXVXVXVXBXVXVXVXoXMX3.5 = * * * O = * Z - J J cXmX                ",
"            wX9XaXcX4X4XU.O.e.h.S 3 d - ; * 1 s.P d.<.I ^ iXbXBXVXVXVXBXVXVXVXkX0XY 8 8 < + ; # * * d w S J MXBX                ",
"            qX9XzXjXsX3XU.' e.h.T u q ) 1 - 7 L.<.k.F.<.` f.kXVXBXVXBXVXVXVXVXVX5XF n X.i < 8 # * - k u S T cXBX                ",
"            qX5XlXcXzXXXU.n j.j.) s e w = = < 5.oXJ.R.U.U.Q.MXBXVXVXVXBXVXVXVXMXG.H t.j.J < u 7 : a F J V { zXMX                ",
"            9X3X9XMXmXW.U.j j.J.I A g I 7 y u <.L.L.oXsXdXmXMXBXBXBXVXBXBXVXVXfXl.f.R.W.L d f F r a I ../ 2.kX6X                ",
"            aXaXaXVXVX4XR.U e.K.2._ I l Z q q ..I.4XsXjXlXcXMXBXBXBXBXVXVXVXBXzXqX4XsX5XO.' F F Z S ^ | O. .OX*X                ",
"            9XqXaXVXVXjXY.j.e.U.e.4...U <.) l 1.~.7XaXaXlXmXMXBXBXMXBXBXBXVXVXMXMXMXcX0XL.3.Q 4...2.e.r.l.y.*XOX  >.            ",
"            aXqXjXVXVXkX5XU.Y.W.U.[ ) e.s.J.^ R.2XjXkXaXjXMXBXMXBXMXcXMXVXVXVXVXBXMXMXsX8XXX9XQ.j.j.L.l.v.).6X*X                ",
"                z.P.VXmX8X~.Q.2Xe.,.[ s.J.R.~.2XQ.9XjXjXkXMXMXMXBXBXmXzXMXVXVXVXBXMXMXkXzXcXfX9XY.4XjX3.)._.*X`.                ",
"                y.y.l.l.g.8X5X5X,.,.e.J.R.R.~.4X2X2XjXaXcXmXMXmXMXBXBXcXzXVXVXVXBXMXMXmXmXMXzXkXzXjXaXz.).`..XOX                ",
"                i.c.v.B.B.).).v.[ ,.k.k.R.~.~.3X2X4XqXaXmXmXmXcXcXBXBXMXcXMXVXVXVXMXmXmXMXmXmXmXcXzXsX).)._.OXOX                "
};
