/* XPM */
static char *starry_1_png_6_1747936555[] = {
/* columns rows colors chars-per-pixel */
"64 64 229 2 ",
"   c #000000",
".  c #05060A",
"X  c #0B0B0E",
"o  c #08070C",
"O  c #130D0E",
"+  c #0D0D12",
"@  c #110F12",
"#  c #160C18",
"$  c #0E1015",
"%  c #131115",
"&  c #1A1515",
"*  c #15141A",
"=  c #1B161A",
"-  c #1C191C",
";  c #1C1917",
":  c #14100F",
">  c #231C1C",
",  c #221818",
"<  c #31171E",
"1  c #2B221E",
"2  c #34211D",
"3  c #1D1B22",
"4  c #191A27",
"5  c #241D23",
"6  c #271F29",
"7  c #211934",
"8  c #242124",
"9  c #2B2324",
"0  c #24222A",
"q  c #2C242C",
"w  c #2B2A2C",
"e  c #332B2B",
"r  c #352827",
"t  c #2C2B32",
"y  c #282532",
"u  c #342C32",
"i  c #362D39",
"p  c #3C3335",
"a  c #34333C",
"s  c #3B353C",
"d  c #383539",
"f  c #363234",
"g  c #433A35",
"h  c #443A3B",
"j  c #483937",
"k  c #47352F",
"l  c #4D1E2E",
"z  c #54453C",
"x  c #4A423F",
"c  c #3D3B43",
"v  c #393744",
"b  c #302F46",
"n  c #423B43",
"m  c #4A3E43",
"M  c #433946",
"N  c #483E55",
"B  c #61326C",
"V  c #494349",
"C  c #574847",
"Z  c #4B4756",
"A  c #544B56",
"S  c #585358",
"D  c #645455",
"F  c #6B5B5A",
"G  c #65585A",
"H  c #725C58",
"J  c #654F4B",
"K  c #494A67",
"L  c #5A4C64",
"P  c #5A5867",
"I  c #525370",
"U  c #645B65",
"Y  c #68557A",
"T  c #5B6677",
"R  c #68636A",
"E  c #7C6B6C",
"W  c #736468",
"Q  c #676576",
"!  c #766B76",
"~  c #73717D",
"^  c #6F6059",
"/  c #E6752F",
"(  c #E67530",
")  c #A41250",
"_  c #C7274C",
"`  c #C72A4E",
"'  c #F13644",
"]  c #E93B69",
"[  c #85726C",
"{  c #887477",
"}  c #947D7D",
"|  c #896C72",
" . c #995164",
".. c #E5545C",
"X. c #6F974C",
"o. c #39FD4B",
"O. c #6AEA71",
"+. c #E3B33E",
"@. c #E78142",
"#. c #A0CE55",
"$. c #BAF06E",
"%. c #F7E375",
"&. c #284081",
"*. c #1C7391",
"=. c #5C6D88",
"-. c #646785",
";. c #6C7487",
":. c #787488",
">. c #767894",
",. c #776C8B",
"<. c #62588C",
"1. c #847886",
"2. c #86778F",
"3. c #EC6992",
"4. c #E43FFF",
"5. c #1BAFBC",
"6. c #7A869D",
"7. c #7D86A7",
"8. c #4595B6",
"9. c #2EC985",
"0. c #50EF9E",
"q. c #65EBAF",
"w. c #1AC7D1",
"e. c #57CAC7",
"r. c #64CDCA",
"t. c #878598",
"y. c #9A8C94",
"u. c #98868B",
"i. c #A89798",
"p. c #B69B9A",
"a. c #AD8C8E",
"s. c #B9A29D",
"d. c #8589AA",
"f. c #9F94AB",
"g. c #8B93B6",
"h. c #9598BC",
"j. c #8E8EAF",
"k. c #A99AA4",
"l. c #AD9BB2",
"z. c #9DA2BD",
"x. c #B7A4A8",
"c. c #B8A5B5",
"v. c #F08C9C",
"b. c #F288AD",
"n. c #C8AEB5",
"m. c #CCB2B7",
"M. c #D8BABA",
"N. c #C9ACAB",
"B. c #F0A9BB",
"V. c #DB8FA7",
"C. c #DCC6BB",
"Z. c #979DC4",
"A. c #A59DC3",
"S. c #B28AD3",
"D. c #9CA3CA",
"F. c #9EA4D0",
"G. c #A7A6CB",
"H. c #A7ABD4",
"J. c #B6AED3",
"K. c #ADB3D9",
"L. c #B8B7DA",
"P. c #B9ABC5",
"I. c #B691F6",
"U. c #B9BEE2",
"Y. c #D999CE",
"T. c #ED93CD",
"R. c #C8B3C3",
"E. c #D5B8C2",
"W. c #CAB5D7",
"Q. c #F0ABD0",
"!. c #CF95ED",
"~. c #F793F3",
"^. c #CFB6EE",
"/. c #F2A7F1",
"(. c #BEC1E2",
"). c #81E8C3",
"_. c #C9C3DC",
"`. c #D9C5D8",
"'. c #D8C2CF",
"]. c #E3C4C5",
"[. c #EBCBCC",
"{. c #EAC6C6",
"}. c #F2CACD",
"|. c #F6D3CE",
" X c #E7CBD7",
".X c #F4CDD5",
"XX c #F5D2D3",
"oX c #F9D3D5",
"OX c #F4D3DB",
"+X c #FAD5DB",
"@X c #FBDADC",
"#X c #F6D8DC",
"$X c #C3C4E2",
"%X c #CCCBE4",
"&X c #C9C9E7",
"*X c #D3CBE7",
"=X c #D4D4EA",
"-X c #DBD4EB",
";X c #DBDAEE",
":X c #D7D5E7",
">X c #DAD9F1",
",X c #D3D1E9",
"<X c #E2DEEE",
"1X c #E5DBEA",
"2X c #FBDCE3",
"3X c #FBDDEA",
"4X c #F8D6E3",
"5X c #EBD6F4",
"6X c #DDE2F3",
"7X c #E3E1EE",
"8X c #EAE4ED",
"9X c #EDEAEE",
"0X c #FBE3ED",
"qX c #FBE1E7",
"wX c #E4E4F2",
"eX c #E9E6F2",
"rX c #EDEBF4",
"tX c #EDECF9",
"yX c #F0EEF6",
"uX c #FCEBF3",
"iX c #F2EEFA",
"pX c #FBE7F2",
"aX c #F2F1F6",
"sX c #F5F4FA",
"dX c #F6F9FE",
"fX c #FCFCFE",
"gX c #FBF4F9",
"hX c #EEFFFF",
"jX c None",
/* pixels */
"                                                        C | v z r a ! f.                                                        ",
"                                                    R :.,.X.W Z a a f c S t.                                                    ",
"                                                C ;.I U R P V d c 0 a d V G t.                                                  ",
"        ,X                                    J a ~ P P A A Z s a c 0 c h V E f.                                                ",
"        Q..                                   s c t t a Z t d S ! S d f u m ! 1.                      4.                        ",
"                                              W V 0 y s S S } x.x.m.i.F h V ! :.U                             !.!.              ",
"                                              S Q t c C R i.E.].[.}.}.{.} { Q ! 1.k.                          !.hXI.            ",
"                I.S.                    . /.g s c 0 e :.k.n.[.XXOXoXoXoX}.p.} ! :.}                             I.              ",
"                I.S.                    !.e > - 3 3 g 1.n.].}.+X+X3XpX0X2XXXp.{ { u.                                            ",
"              e.          0.            z r f a q & D k.M.[.OX@X0XpXfXuXuX0XN.p.E u.y.                                          ",
"          0.9.0.9.9.    9.9.w.5.        p W 1 d 3 ; D x.M..XOX4X0XuXdXfXuX0X2XE.| E i.            /.                            ",
"      . o q.r.9.X.$.    0.0.w.5.*.      p r 5 a 8 1 F m.]..X#X4X0XuXuXfXgXpX3X[.p.{ y.          . /.                            ",
"        e.e.8.).#.$.X.X.#.0.5.5.5.*.    8 h * d e f F [ h H | E.4XqXuXpXOXc.| h U C u.                                          ",
"        8.*.X.+.( ( +.%.#.O.5.*.&.&.    8 g 5 u q J D x.{..XOX[.oX@X0XqX@X4X3X+XoXJ {                                           ",
"          &. .( ( ( +.+.+.*.*.&.<.    g g r . e 3 H } } i.E.m.0X4XoX0X@X#X}.m.M.i.J [ n.                                        ",
"        . &.` ( ( ( +.( ( X.*.&.&.    e p 1 . e > H i.| 8X<.7 i.OX}.uXqXE.0X-.7 | 1.H u.                                        ",
"          &.B ' ' _ ( ( ` ` 1.B jX    & r * . u 6 | M.n.p.3.B.3X2X].0XqX3X}.XXT..Xp.C 2.                                        ",
"            B ) ' ' ' ' ' ] B B     p - g . X w < } E..X1X1X3X3XoXM.3XqX0X3XqX0X4XM.} 1.                                        ",
"            B B ` ` ' ' ` Y B       C @ e X . - q J E.+X2X0XuXuX}.M.2X0X3XpX0X0X0Xm.k.|                         Q./.            ",
"          @XjXjX) ' ' ..` B .     ;.z & q o . = M m m..X3XgXuXpXQ.N.@X2X2X0X0XgX0XE.E 1.                        T.              ",
"          /./.  _ ' ' _ '         G ; s * o X 9 C C x..X4X0X0X@XM.M.oX@X+XoX+X0X0Xm.j |                                         ",
"                  ` ' ' _         V ; p % . . 3 A m y.E.+X2X+XoXa.[ {.}..X2X}.oX3XE.J { T./.~.                                  ",
"                    ) ) jX!.      e - m + . . 6 Z h } m.XX}.{.[.[.|.oX2X2X@X X{.+Xp.q {                                         ",
"                          .       g * 5 $ . X 6 Q A { ].XX@Xl  ...3.b.b.v.7 oXoX+XE.q {                                         ",
"                                T r e - + + X 3 P . E m.|.@XB.] fXfXfXfXV.+X+X@XE.a h |                                         ",
"                                S & V + + * + 0 P X r i.M.|.|.B.] 3.Q.b.B.3X@X|.* v M {             5X                          ",
"                                x e & % + o 5 w U 3 > W x.C.[.[.E.v.v.XX2X@X|.# > i m {                                         ",
"        o.                      x C 8 0 $ . v u U 8 2 k E i.C.@X@XoX3X3X0X@Xm o q c m E                                         ",
"                                e r * w $ . a d R u 2 j z D y.C.oX2XuX0XqX~ 4 o h m W [ H                                       ",
"                      . /.      x 1 : % * X v V U V r k z C z s.].oX@X#Xi.V @ u i e | [ k                                       ",
"                      ~.5X      r ; w $ $ $ X w m b j k k j z J 1.m.N.x.J 6 y 5 5 j E { p                     oX                ",
"                      ~.gXY.    r ; * . $ + a f A J.yXm z J  .a.].{.N.a.< >.Z q r V E [ g                                       ",
"                                - 4 v $ + $ . c U J.-XeXiXa.N.C.|.M.s.H < -XY A q C [ E e z                                     ",
"                              ; w o + $ $ 5 % y W _.-X<X8XfXqX{.{.M.[ 2 1X,.>.M V S F F e r                                     ",
"          T.                g 0 4 * $ t $ + - y ! *X:XwXeXsXsXfXfXx.aX9XgX*X:.M Z G E J 9 g Q.^.                                ",
"                            - t + X 4 4 a + X Z W >X_.eXyXyXsXfXfXfXfXgXJ.1XI K - E W z 9 , g                                   ",
"                          3 3 4 4 4 3 4 + * + + :.1XeXrXyXaXsXsXyXfXfXsXL.h.^.v 4 D F k e w g                                   ",
"                        M -X*XW.K 4 * w . + + + U 1XrXiXyXyXaXyXfXfXfXfX1XF.<.Q % D G k r * 1 G                                 ",
"                      -X8X1XrX*X;.8 * 3 o $ + t W -XW.sXyXsXsXsXaXfXfXfXrX$X,.P 4 G z r r ; : V                                 ",
"                    7XyXiXyX7Xh.8 0 0 o X + X = ~ eX%XH.rXsXfXfXfXfXfXfXsXW.G.! 0 C C e r $ * p                                 ",
"                  eXrXyXgX7X<XQ 8 - X o + + X * W 1XiX%X_.-XfXfXfXfXfXfXfX-X*XY q W & , 1 % % &                                 ",
"                  rXsXrX7XaX_.t 3 % $ * + o + * | :XiXeX9XfXfXfXfXfXfXgXgX*XA.2.s G & , > & X % , N       ~.v.                  ",
"                  7XaXaXrXwXu n > X 3 $ o + $ + J 1XsXsXsXfXfXfXaXfXfXfXgXJ.J.2.M j @ , > ; % + X g       /.^..                 ",
"                >X>XsX;X<XL.5 q ; $ - + + + 3 + j <XsXsXsXsXfXfXfXfXfXfXgXW.*Xj.:.9 @ , , & ; - - ; F rX  T.I.                  ",
"              ;X;XyXtXaX_.>.p z.- 3 + * $ + % % p *XyXgXsXsXfXdXgXaXfXfXfX`.-XA.t.9 % ; ; @ > - % + 1 _.                        ",
"              eX_.dX:XrXZ.A t.z.- - 3 * * % 4 $ q I gXsXsXgXsXaXsXfXfXfXfX7X-XL.:.> % ; & & % % - % , P sX                      ",
"              wX=XfXwX$XD.5 >.g.* & @ 3 3 * * + > Y rXsXfXfXfXaXfXfXfXfXfX8X1XJ.1.9 % q & & & O & o X g gX.                     ",
"            K wXeXrXrXH.G.c t.H.V * * * * @ @ X # u :XiXsXsXfXfXfXfXfXaXfXfXW.A.Y q @ * & O @ X : - ; r 2.gX          Q.        ",
"            I ;XfX:XwXF.Z.P U h.6.& % * % * X $ % h A.aXtXsXdXdXdXaXrXfXfXgX5XA.G.i % - ; X % , : & ; + U iX          ~.        ",
"            z.wXfX;X=XL.U.P :.g.6.* % % @ % @ * % = M iXsXsXaXaXaXaXaXsXdXsXJ.j.%Xc @ > : X O @ - > & 3 q rX                    ",
"            >X6XfX7X$XK.$XS t.7.6.3 $ % % % % - * * s &XsXsXdXsXsXsXsXfXfXfXrXj.<XN & ; & % @ % ; > ; 3 s wX7X                  ",
"          Y.&X=XdXrXL.$X(.R 6.g.6., ; % . O = u 5 Z 6 U tXsXdXsXdXsXdXsXfXfXfX$XiXL % & & & = , $ & > 8 0 2.aX                  ",
"            =X=XrXtX(.L.(.Q 7.6.6., > ; + O c , a 6 5 Z W.sXdXdXdXdXdXdXfXsXaX`.eXZ * = & @ : & & & ;.- 0 S tXyX                ",
"            >X:X;XaX&X&X(.~ g.;.P , d & % # M v U K v q d.iXdXfXfXfXfXdXfXfXfX_.uX:.- - & , , X & & v * M m yXyX                ",
"            >X=X7XyX%X%XH.~ d.d.c 9 u * - & - d.Z j.-.Z K 5XiXfXfXfXfXdXfXfXgXrX1XA 6 6 > : , @ * % e 0 N V hXdX                ",
"            ;X=XtXwX6X&XK.U 6.g.S r 0 P > = 5 G.-.g.Z.Q I h.wXgXdXfXdXfXfXfXfXgX&XM n Q r > 5 @ ; % s f v S tXdX                ",
"            =X,XrXyXaX$XH.h g.g.L a q 0 - ; > >.%XZ.K.H.H.L.aXdXfXfXdXdXfXfXfXsXz.N t.g.m , r 6 - y M C b R tXsX                ",
"            =X&X=XaXtXL.G.d g.D.Z c t Z 5 r u Q A.G.%X<XrXyXdXdXdXdXfXdXdXfXfX9Xk.j.K.L.C i i c t y Z T K ;.tX`.                ",
"            6X6X6XfXfX%XK.Z 7.F.;.P Z s a 8 9 Q H.%X7XwXrXaXsXhXdXdXdXfXfXfXfXtX-X*X7X%X,.U m M a c K W ~ E '. X                ",
"            =X;X6XfXfXwXH.g.d.H.7.;.Q Z ;.P s ,.U.:X6XwXeXaXsXsXdXaXdXfXdXfXfXdXsXsXaX;XA.:.G :.T ;.7.u.k.y.1X`.  O.            ",
"            6X;XwXfXdXrX&XH.H.L.K.T K 7.6.Z.K K._.wXwXwXtXaXdXsXdXdXyXsXfXfXfXfXdXdXaX;X,X_.,XU.g.g.A.k.c.W. X`.                ",
"                l.P.dXtX-XU.L.(.7.T T g.F.K.&X(.(.=XwX6XeXaXsXsXdXdXaXtXaXfXfXfXdXdXsXrXtXaX9X,XH.*XeX,.c.'.`.`.                ",
"                y.y.k.k.f.,X,X&X=.=.7.Z.K.K.(.(.&X$XwX6XaXaXsXaXaXdXdXaXtXfXfXfXdXaXdXaXaXaXtXrXyXwXwXl.R.'.`.`.                ",
"                i.x.n.c.m.R.R.c.T =.Z.Z.K.(.(.&X(.$X;XwXaXaXaXyXyXdXfXaXyXaXfXfXfXaXaXaXaXsXaXaXtXtXwXR.c.'.`.`.                "
};
