/* XPM */
static char *starry_1_png_9_1747937101[] = {
/* columns rows colors chars-per-pixel */
"64 64 225 2 ",
"   c #000000",
".  c #05060A",
"X  c #0A0A0E",
"o  c #08070C",
"O  c #130D0E",
"+  c #0D0C12",
"@  c #120E12",
"#  c #160C18",
"$  c #0E1015",
"%  c #131115",
"&  c #1A1515",
"*  c #15141A",
"=  c #1B161A",
"-  c #1B191C",
";  c #1C1917",
":  c #14100F",
">  c #231C1C",
",  c #221818",
"<  c #31171E",
"1  c #2D221D",
"2  c #1D1B22",
"3  c #191A27",
"4  c #251E26",
"5  c #211934",
"6  c #242124",
"7  c #2B2324",
"8  c #24222A",
"9  c #2C242C",
"0  c #2C2A2B",
"q  c #322B2B",
"w  c #342727",
"e  c #2C2B33",
"r  c #282532",
"t  c #342C32",
"y  c #362D39",
"u  c #3C3335",
"i  c #34333C",
"p  c #3B353C",
"a  c #393539",
"s  c #363234",
"d  c #443A3B",
"f  c #463937",
"g  c #4A3733",
"h  c #4D1E2E",
"j  c #54443C",
"k  c #4B413F",
"l  c #3D3B43",
"z  c #393744",
"x  c #302F46",
"c  c #423B43",
"v  c #463B45",
"b  c #483E55",
"n  c #61326C",
"m  c #494349",
"M  c #574747",
"N  c #4B4756",
"B  c #544B56",
"V  c #585358",
"C  c #645455",
"Z  c #695A5A",
"A  c #6A5350",
"S  c #494A67",
"D  c #5A4C64",
"F  c #5A5867",
"G  c #525370",
"H  c #645B65",
"J  c #6C4D7A",
"K  c #5B6677",
"L  c #68636A",
"P  c #7C6B6C",
"I  c #736469",
"U  c #676576",
"Y  c #766B76",
"T  c #73717D",
"R  c #6F6059",
"E  c #E6752F",
"W  c #E77B39",
"Q  c #A41250",
"!  c #A4134F",
"~  c #C7274C",
"^  c #C72A4E",
"/  c #D52B48",
"(  c #F13644",
")  c #E93B69",
"_  c #945568",
"`  c #85726C",
"'  c #887477",
"]  c #947D7D",
"[  c #896C72",
"{  c #AB435B",
"}  c #F14754",
"|  c #D04C6E",
" . c #F25561",
".. c #E77F40",
"X. c #6F974C",
"o. c #39FD4B",
"O. c #78D474",
"+. c #5BFF6D",
"@. c #E3B33E",
"#. c #F88C39",
"$. c #F08A44",
"%. c #F4A559",
"&. c #A0CE55",
"*. c #BAF06E",
"=. c #9FCE55",
"-. c #F7E375",
";. c #284081",
":. c #1C7391",
">. c #1C768F",
",. c #646785",
"<. c #6C7487",
"1. c #787488",
"2. c #767894",
"3. c #776C8B",
"4. c #5B618C",
"5. c #847886",
"6. c #86778F",
"7. c #EC6992",
"8. c #E43FFF",
"9. c #1BAFBC",
"0. c #7A869D",
"q. c #4595B6",
"w. c #4A93AF",
"e. c #7D86A7",
"r. c #58A4BE",
"t. c #2EC985",
"y. c #50EF9E",
"u. c #6BE9B4",
"i. c #1AC7D1",
"p. c #57CAC7",
"a. c #64CDCA",
"s. c #878598",
"d. c #99898F",
"f. c #A89798",
"g. c #B69B9A",
"h. c #AD8C8E",
"j. c #B9A29D",
"k. c #8589AA",
"l. c #8B93B6",
"z. c #9598BC",
"x. c #9390AD",
"c. c #A99AA4",
"v. c #AD9BB2",
"b. c #9DA2BD",
"n. c #B7A4A8",
"m. c #B8A5B5",
"M. c #F08C9C",
"N. c #F288AD",
"B. c #C8AEB5",
"V. c #CCB2B7",
"C. c #D8BABA",
"Z. c #C9ACAB",
"A. c #F0A9BB",
"S. c #DB8FA7",
"D. c #979DC4",
"F. c #A997C9",
"G. c #9CA3CA",
"H. c #9EA4D0",
"J. c #A7A6CB",
"K. c #A7ABD4",
"L. c #B8B7DA",
"P. c #B3AFD1",
"I. c #B691F6",
"U. c #B9BEE2",
"Y. c #D999CE",
"T. c #ED93CD",
"R. c #C8B3C3",
"E. c #D5B8C2",
"W. c #CAB5D7",
"Q. c #F0ABD0",
"!. c #CF95ED",
"~. c #F793F3",
"^. c #CFB8EE",
"/. c #F2A7F1",
"(. c #BEC1E2",
"). c #81E8C3",
"_. c #C9C3DC",
"`. c #D9C5D8",
"'. c #D8C2CF",
"]. c #E8C7C8",
"[. c #F2CACD",
"{. c #E7CBD7",
"}. c #F4CDD5",
"|. c #F5D2D3",
" X c #F9D3D5",
".X c #FAD5DB",
"XX c #FBDADC",
"oX c #F5D3DB",
"OX c #F3D2CE",
"+X c #C3C4E2",
"@X c #CCCBE4",
"#X c #C9C9E7",
"$X c #D3CBE7",
"%X c #D4D4EA",
"&X c #DBD4EB",
"*X c #DBDAEE",
"=X c #D7D5E7",
"-X c #DAD9F1",
";X c #D3D1E9",
":X c #E2DEEE",
">X c #E5DBEA",
",X c #FBDCE3",
"<X c #FBDDEA",
"1X c #F8D6E3",
"2X c #EBD6F4",
"3X c #DDE2F3",
"4X c #E7E3EE",
"5X c #FBE3ED",
"6X c #FBE1E7",
"7X c #E4E4F2",
"8X c #E9E6F2",
"9X c #EDEBF4",
"0X c #EDECF9",
"qX c #F0EEF6",
"wX c #FCEBF3",
"eX c #F2EEFA",
"rX c #FBE7F2",
"tX c #F2F1F6",
"yX c #F5F4FA",
"uX c #F6F9FE",
"iX c #FCFCFE",
"pX c #FBF4F9",
"aX c #EEFFFF",
"sX c #DCC6BB",
"dX c None",
/* pixels */
"                                                        j P d j 0 a U c..                                                       ",
"                                                    L 1.I 0.I N i a s l V s.                                                    ",
"                                              . M 1.F F L Z m a l 8 i s M H s.                                                  ",
"        ;X                                    M i T F F B N B a a l 8 l f M P x.                                                ",
"        Q..                                   d l e e i V 8 l V Y V s s e v Y s.                      8.                        ",
"                                              I m 8 r l B V ' n.n.V.f.Z d m Y Y H                             !.!.              ",
"                                              V U e l M L c.C.].].[.OX[.] ' U Y 5.c.                          !.aXI.            ",
"                I.F.                    . /.f p l 3 q 1.c.B.].oX X.X X XOXg.' Y 5.'                             I.              ",
"                I.F.                    !.q > - 2 - f 5.B.'.}. X.X<XrX5X,X|.g.' ' d.                                            ",
"              p.  .       y.            j w s i 0 * C c.C.].}.XX5XwXiXwXwX5XZ.g.P d.d.                                          ",
"          y.t.y.t.t.    t.t.i.9.        u I 1 i 2 ; A n.C.}..X,X5XwXuXiXwX5X,XE.[ P f.            /.                            ",
"      . . u.a.t.X.*.    y.y.i.9.:.      u w 4 s 6 6 Z V.].}.oX1X5XwXwXiXpXwX<X].g.' d.          . /.                            ",
"        p.p.q.).&.*.X.X.&.y.9.9.9.:.    6 f * p t q Z ` d Z [ E.,X6XwXrXoXv.[ c U j h.                                          ",
"        q.:.X.@.E E @.-.&.O.9.:.;.;.    6 f 4 q 7 A C n.].}.}.[.oX.X5X5X,X,X<X X|.A '                                           ",
"          ;._ E E ..@.@.@.:.:.;.4.    f u q . 0 > R ] ] g.E.V.<X.X X5XXX.X[.Z.E.f.M ` R.                                        ",
"          ;.^ E E E @.E E X.:.;.;.    q u 1 . w 4 Z g.[ >X,.5 f.oX[.wX,X].4X,.5 [ ] R 6.                                        ",
"          ;.n ( ( ~ E $.~ ~ 5.n dX    & w * . q 7 [ C.V.g.6.Q.<X,X].5X6X6XQ.oXA.}.g.M 6.                                        ",
"            n Q ( ( ( ( ( } n n     u - f . X 0 7 ' E.}.1X1X<X<X XC.,X6X5X<X<X5X1XC.] 5.                                        ",
"            n n ~ ~ ( ( ^ 4.n       M $ t X . - < A E..X<XrXwXwX[.C.,X5X5XwX5XrX5XV.c.[                         Q./.            ",
"          XXdXdXQ ( (  .^ n       <.j % 0 o . - v b B.}.<XwXwXrXQ.Z.,X,XXX5X<XpX5XE.P 5.                        T.              ",
"          /./.  ~ ( ( ~ (         Z ; p % o X 4 M M n.[.1X5X6X.XC.sX X6X.X XXX5X5XV.g '                                         ",
"                  ^ ( ( ~         m ; f % . . 2 B v f.E..X,XXXoXh._ ].[.|.XX[. X<XE.M [ T./.~.                                  ",
"                    Q Q dX!.      t * d + . . 6 N c ] B.|.[.].[.OXOX|.XX.X.X{.]..Xg.t ]                                         ",
"                          .       f * 4 * . + 4 U M ' ].oXXXh { | 7.N.N.N.5  X XXXE.4 '                                         ",
"                                F 0 q 2 + + + 2 F . P V.|.XXA.| iXiXiXiXS..X.XXXC.z y '                                         ",
"                                V - j + + * + 8 F X w f.C.|.OXA. .7.Q.N.A.<XXXOX& z c '             2X                          ",
"                            y.. k y.* % + o 2 e H 3 > R n.sXOX].E.M.7.|.6XXX X% 4 y c '                     y.      y.          ",
"        o.                ).y.>.t.t.9.8 # . i t H 6 w g P f.C.OX XoXrX5X5XXXv o 9 c d [                 y.t.y.:.  t.t.i.9.      ",
"                        q.q.@.-.=.t.9.;.$ . i u L t 7 g j C h.]. X1XpX5X6XY 3 X d v I ` A             p.p.r.&.&.X.&.y.9.9.      ",
"                      . /.n E $.-.X.4.% * . z m Z m < g j M M g.]. XXXXXg.l % t y q P ` f             q.:.X.%.*.-.&.O.9.;.w.    ",
"                      ~.2Xn ( E $.! ;.: + + + e v x d g j j j A ] B.Z.g.M 9 r 6 7 d P ' u               ;._ #...@.@.:.:.;.      ",
"                      ~.eXY.~ ( ( J & . $ $ i t B P.rXM j j R h.].].Z.h.w 2.b 9 7 M P ` f               ;.( ( ( W E _ n ;.      ",
"                              ~ ^ 3 z $ + + . l H P.;X8XqXh.Z.sXOXC.j.A < $XU B 9 m ` ` t j               n ( #.( }  .n         ",
"                              & e o + $ $ 4 * r I _.&X:X8XyX6X[.].V.` w <X3.2.c m C Z R q w                 ^ ( (  .J _         ",
"          T.                f 8 2 * $ e $ o * r Y ;X=X8X8XtXyXiXiXn.tX4XwX$X3.v B V P O.t.f Y.t.i.          ! ( ( ~ n           ",
"                            - e $ X 3 3 i $ + N I -X_.8XqXtXyXiXiXiXiXiXL.2XG S - I p.r.&.&.O.y.9.9.          | ( ^             ",
"                          2 2 3 3 3 2 3 + * + $ 5.>X7X9X0XtXyXyXtXiXiXyXP.F.W.z 3 C q.X.E *.@.O.>.;.            Q               ",
"                        v &X$XW.S 3 * 0 . + + + H 2X9XqXyXtXtXqXiXiXiXiX&XJ.,.K % Z ;.~ E $.-.X.;.;.                            ",
"                      *X4X>X8X$X<.6 * 3 . $ o 0 L &XW.yXqXtXtXyXtXiXiXiX9X+X3.G - Z m n ( E W ~ n                               ",
"                    7X9XqXqX7Xz.6 6 6 . + o + 3 ' 9X_.K.qXyXiXiXiXiXiXiXeXW.K.Y 5 M M n / ( Q J                                 ",
"                  7X9XqXpX4X:XU 6 2 o o + + + * I >XeX@X_.>XiXiXiXiXiXiXiX&X$XU 4 I & , ~ ( / n                                 ",
"                  8XyX9X7XtX_.t 2 % % $ + o + * [ >XeX8X8XiXiXiXiXiXiXpXpX$XF.5.c C & , > ! ~ = , b       ~.M.                  ",
"                  7XtX0X8X7Xy l ; X 2 * + + $ + M >XyXeXtXiXiXiXtXiXiXiXyXP.F.k.b g % , > & % + O f       /.^..                 ",
"                *X:XyX3X:XL.> 9 ; * - + + + - + d >XuXpXyXpXiXiXiXiXiXiXpXW.&Xx.1.1 @ , ; & ; ; - ; Z 9X  T.I.                  ",
"              *X*XqX9XyX_.2.s z.> 2 $ $ + $ * % g $XeXyXpXuXiXyXpXtXiXiXiX`.&XF.s.4 % ; , @ - > + $ 1 _.                        ",
"              9X_.iX%X9Xz.B s.b.- - 3 - * + 2 # 9 S eXpXyXuXyXtXyXiXiXiXiX>X&XW.1., % = & & % % - % , D uX                      ",
"              7X=XuX7X@XG.9 0.x.* % % - 2 % * + 4 K qXyXyXiXuXyXiXiXiXiXiX4X>XP.5.4 # 7 & & & % ; X X f uX                      ",
"            S 7X8X9X8XK.G.z s.K.m = * * * % + o % y `.eXyXuXiXuXiXiXiXyXiXiXW.D.U 4 % = = O O X : ; ; q 6.pX          Q.        ",
"            S 3XiX=X7XH.D.F F z.0.& # * % * X $ : d J.qX9XyXuXuXyXyX0XiXiXuX-XF.J.y % * ; o & ; : ; ; $ H tX          ~.        ",
"            b.9XiX*X#XL.U.F 5.l.0.& * $ % % % * % = v eXyXtXyXyXtXqXtXyXuXyXP.x.@Xl % > : X O O * > : 2 9 9X                    ",
"            -X3XiX7X_.L.+XV 0.k.0.2 % % % % O = % * p ^.eXuXuXyXyXyXyXiXpXiX9Xx.:Xb & = ; O % % ; - ; 6 a 2X7X                  ",
"          Y.@X%XuX0XL.(.(.L 0.l.0.; - % . O - t 6 N 6 F 0XyXuXuXuXuXiXyXiXiXiX+XeXD * & & & & , % ; ; 6 8 6.qX                  ",
"            %X%XqX8X+XL.(.U k.0.0., ; ; X O v , p 6 3 N W.uXyXiXuXuXuXuXiXyXtX`.8XN # & , O & & ; % <.- 3 D tXtX                ",
"            *X%X*XtX#X#XU.T l.<.F , a ; % # z z F S l 8 k.yXiXiXiXuXuXiXiXiXiX_.pX1.- > & & & X ; & z = m m 0XtX                ",
"            *X%X3XqX@X@XK.T 0.l.l 7 t * > & > k.B x.,.N S 2XeXiXiXiXiXiXiXiXpX9X>XB 4 4 > # , @ & % q 8 m m aXuX                ",
"            -X%X0X7X3X#XP.F 0.l.V w 8 F > = 4 G.,.l.D.U G z.:XpXuXiXiXuXiXiXiXpX#Xv d ,.w , 4 @ & * p t x V qXuX                ",
"            %X@X0XqXqX+XK.d l.l.F i 0 8 * , > 2.@XD.P.K.K.L.yXuXiXuXuXuXiXiXiXyXb.b s.D.c = w 4 3 8 c N x L eXyX                ",
"            %X#X=XyXtXL.K.u l.G.N c t N 4 7 t U D.J.@X*X9XqXyXuXuXuXiXuXuXiXiX9Xc.x.P.L.M y u z 9 r N L S <.9X$X                ",
"            3X3X3XiXiX_.P.N e.H.,.G N p z 6 7 U K.@X4X7X9XtXyXyXuXuXiXiXiXiXiX9X&X@X7X@XY H v c p b S I T P `.`.                ",
"            %X*X3XiXiX7XK.l.e.K.e.1.L N <.D p 1.+X=X3X7X9XtXaXyXuXyXuXuXuXiXiXuXyXyXtX=XJ.3.Z 2.F <.k.d.c.d.{.`.  +.            ",
"            *X3X4XiXiX9X#XK.K.L.H.K B k.0.G.S K.+X7X0X7X7XyXyXuXuXyXqXyXiXiXiXiXuXyXyX3X;X_.;XL.l.l.G.c.m.W.{.`.                ",
"                v.P.iXtX%X(.U.(.r.K K l.H.K.#X(.L.%X7X3X9XyXyXyXuXuXtXqXyXiXiXiXuXyXyX8X0XtX9X;XK.;X7X1.R.E.`.`.                ",
"                d.f.c.c.x.;X;X#X4.<.e.D.K.U.U.#X#X+X7X3X0XtXyXtXyXuXuXqX9XiXiXiXuXyXuXtXtXyX9X9XqX7X7Xv.R.W.`.`.                ",
"                f.c.m.B.V.R.R.m.K <.D.b.K.U.U.#X(.+X*X7XtXtXtXqXqXuXuXyXqXyXiXiXuXyXtXtXtXyXtXtXtX9X7XR.B.E.`.`.                "
};
