/* XPM */
static char *starry_1_png_10_1747937251[] = {
/* columns rows colors chars-per-pixel */
"64 64 222 2 ",
"   c #000000",
".  c #05060A",
"X  c #0A0A0E",
"o  c #08070C",
"O  c #0D0C12",
"+  c #120E12",
"@  c #160C18",
"#  c #0E1015",
"$  c #131115",
"%  c #1A1515",
"&  c #15141A",
"*  c #1B161A",
"=  c #1B191C",
"-  c #1C1917",
";  c #130E0E",
":  c #231C1C",
">  c #221818",
",  c #31171E",
"<  c #2D221D",
"1  c #1D1B22",
"2  c #191A27",
"3  c #251E26",
"4  c #211934",
"5  c #242124",
"6  c #2B2324",
"7  c #24222A",
"8  c #2C242C",
"9  c #2C2A2B",
"0  c #322B2B",
"q  c #342727",
"w  c #2C2B33",
"e  c #282532",
"r  c #342C32",
"t  c #362D39",
"y  c #3C3335",
"u  c #34333C",
"i  c #3B353C",
"p  c #393539",
"a  c #363234",
"s  c #443A3B",
"d  c #463937",
"f  c #4A3733",
"g  c #4D1E2E",
"h  c #54443C",
"j  c #4B413F",
"k  c #3D3B43",
"l  c #393744",
"z  c #302F46",
"x  c #423B43",
"c  c #463B45",
"v  c #483E55",
"b  c #61326C",
"n  c #494349",
"m  c #574747",
"M  c #4B4756",
"N  c #544B56",
"B  c #585358",
"V  c #645455",
"C  c #695A5A",
"Z  c #6A5350",
"A  c #5A5867",
"S  c #514F6A",
"D  c #645B65",
"F  c #6C4D7A",
"G  c #5B6677",
"H  c #68636A",
"J  c #7C6B6C",
"K  c #736469",
"L  c #676576",
"P  c #766B76",
"I  c #73717D",
"U  c #6F6059",
"Y  c #E6752F",
"T  c #E77B39",
"R  c #A41250",
"E  c #A4134F",
"W  c #C7274C",
"Q  c #C72A4E",
"!  c #D52B48",
"~  c #F13644",
"^  c #E93B69",
"/  c #945568",
"(  c #85726C",
")  c #887477",
"_  c #947D7D",
"`  c #896C72",
"'  c #AB435B",
"]  c #F14754",
"[  c #D04C6E",
"{  c #F25561",
"}  c #E77F40",
"|  c #6F974C",
" . c #39FD4B",
".. c #78D474",
"X. c #5BFF6D",
"o. c #F88C39",
"O. c #E3B33E",
"+. c #F08A44",
"@. c #F4A559",
"#. c #A0CE55",
"$. c #BAF06E",
"%. c #9FCE55",
"&. c #F7E375",
"*. c #284081",
"=. c #1C7391",
"-. c #1C768F",
";. c #646785",
":. c #6C7487",
">. c #787488",
",. c #767894",
"<. c #776C8B",
"1. c #5B618C",
"2. c #847886",
"3. c #86778F",
"4. c #EC6992",
"5. c #E43FFF",
"6. c #1BAFBC",
"7. c #7A869D",
"8. c #4595B6",
"9. c #4A93AF",
"0. c #7D86A7",
"q. c #58A4BE",
"w. c #2EC985",
"e. c #50EF9E",
"r. c #6BE9B4",
"t. c #1AC7D1",
"y. c #57CAC7",
"u. c #64CDCA",
"i. c #878598",
"p. c #99898F",
"a. c #A89798",
"s. c #B69B9A",
"d. c #AD8C8E",
"f. c #B9A29D",
"g. c #8589AA",
"h. c #8B93B6",
"j. c #9598BC",
"k. c #9390AD",
"l. c #A99AA4",
"z. c #AD9BB2",
"x. c #9DA2BD",
"c. c #B7A4A8",
"v. c #B8A5B5",
"b. c #F08C9C",
"n. c #F288AD",
"m. c #C8AEB5",
"M. c #CCB2B7",
"N. c #D8BABA",
"B. c #C9ACAB",
"V. c #F0A9BB",
"C. c #DB8FA7",
"Z. c #979DC4",
"A. c #A997C9",
"S. c #9CA3CA",
"D. c #9EA4D0",
"F. c #A7A6CB",
"G. c #A7ABD4",
"H. c #B8B7DA",
"J. c #B3AFD1",
"K. c #B691F6",
"L. c #B9BEE2",
"P. c #D999CE",
"I. c #ED93CD",
"U. c #C8B3C3",
"Y. c #D5B8C2",
"T. c #CAB5D7",
"R. c #F0ABD0",
"E. c #CF95ED",
"W. c #F793F3",
"Q. c #CFB8EE",
"!. c #F2A7F1",
"~. c #81E8C3",
"^. c #BEC1E2",
"/. c #C9C3DC",
"(. c #D9C5D8",
"). c #D8C2CF",
"_. c #E8C7C8",
"`. c #F2CACD",
"'. c #E7CBD7",
"]. c #F4CDD5",
"[. c #F5D2D3",
"{. c #F9D3D5",
"}. c #FAD5DB",
"|. c #FBDADC",
" X c #F5D3DB",
".X c #F3D2CE",
"XX c #C3C4E2",
"oX c #CCCBE4",
"OX c #C9C9E7",
"+X c #D3CBE7",
"@X c #D4D4EA",
"#X c #DBD4EB",
"$X c #DBDAEE",
"%X c #D7D5E7",
"&X c #DAD9F1",
"*X c #D3D1E9",
"=X c #E2DEEE",
"-X c #E5DBEA",
";X c #FBDCE3",
":X c #FBDDEA",
">X c #F8D6E3",
",X c #EBD6F4",
"<X c #DDE2F3",
"1X c #E7E3EE",
"2X c #FBE3ED",
"3X c #FBE1E7",
"4X c #E4E4F2",
"5X c #E9E6F2",
"6X c #EDEBF4",
"7X c #EDECF9",
"8X c #F0EEF6",
"9X c #FCEBF3",
"0X c #F2EEFA",
"qX c #FBE7F2",
"wX c #F2F1F6",
"eX c #F5F4FA",
"rX c #F6F9FE",
"tX c #FCFCFE",
"yX c #FBF4F9",
"uX c #EEFFFF",
"iX c #DCC6BB",
"pX c None",
/* pixels */
"                                                        h J s h 0 p L l..                                                       ",
"                                                    H >.K 7.K M u p u p B i.                                                    ",
"                                                n >.A A H D n p k 9 u a n C i.                                                  ",
"        *X                                    V u I A A N n N k u k 7 k j m J k.                                                ",
"        R..                                   i k a w u N 9 p B J B p r r c L i.                      5.                        ",
"                                              K n 7 9 i M B ) c.c.M.a.U s n P P D                             E.E.              ",
"                                              B L w k N K l.N._._.].`._._ ) P L 2.l.                          E.uXK.            ",
"                K.A.                    . !.d i k 2 0 >.l.m._. X].}.{.{..Xs._ P 2._                             K.              ",
"                K.A.                    E.q : = 1 1 s 2.m._.`.{. X:XqX2X:X.Xs.) ) p.                                            ",
"              y.  .       e.            h q a u 8 % V a.Y._. X>X2X9XtX9X9X3XB.s.( 3.a.                                          ",
"          e.w.e.w.w.    w.w.t.6.        y K 6 u 1 - Z c.N.]. X;X2X9XrXtX9X2X;XY.( J a.            !.      e.  e.t.              ",
"      . . r.u.w.| $.    e.e.t.6.=.      y q 3 a 5 6 C M._.'.}.}.2X9X9XtXyX9X:X_.s.) p.          . !.    y.~.%.%.6.=.            ",
"        y.y.8.~.#.$.| | #.e.6.6.6.=.    5 s $ i 0 0 C ( s U ` Y.;X3X9XqX}.z.` c H m p.                  *.Y o.O.=.*.            ",
"        8.=.| O.Y Y O.&.#...6.=.*.*.    5 s 1 r 9 V Z c._.].].`. X}.2X2X;X;X:X{.].Z )                     R o.] b               ",
"          *./ Y Y } O.O.O.=.=.*.1.    d d q . q 3 U _ _ a.Y.M.2X}.{.2X|. X`.B.Y.a.m ` M.                    ~ W                 ",
"          *.Q Y Y Y O.Y Y | =.*.*.    0 d : . q : U a.` 5X1.4 a. X`.9X;X_.1X;.4 ` _ U 3.                    R                   ",
"          *.b ~ ~ W Y +.W W 2.b pX    % q & . 0 3 ` N.M.s.4.V.:X|._.2X3X3XR. XV.].s.m 3.                                        ",
"            b R ~ ~ ~ ~ ~ ] b b     y = d . X 9 q ) Y.].-X-X:X:X{.N.:X3X2X:X:X2X>XN._ 2.                                        ",
"            b b W W ~ ~ Q 1.b       m # r X . = , Z Y.].;XqX9X9X`.N.;X2X3X9X2X2X2XM.l.`                         R.!.            ",
"          |.pXpXR ~ ~ { Q b       :.h $ 9 o . = c c U.].:X9X9XqXR.B.|.3X;X2X2XyX2XY.J 2.                        I.              ",
"          !.!.  W ~ ~ W ~         C - i $ o X 3 m m c.].>XqX2X}.N.iX{.3X}.{.}.2X2XM.f )                                         ",
"                  Q ~ ~ W         n - d $ . . 1 N s a.Y.}.;X}.{.d./ _.`.{.|.`. X:XY.m ` I.!.W.                                  ",
"                    R R pXE.      r & s O . . 5 M s _ m.[.`._.`..X.X[.|.}.}.'._.}.s.r _                                         ",
"                          .       d & 3 & . O 3 L N ) _.[.|.g ' [ 4.n.n.n.4 {.{.|.Y.3 )                                         ",
"                                A 9 0 1 O O O 2 D . J M..X;XV.[ tXtXtXtXC.}.|.}.N.l i `                                         ",
"                                B = h O O & O 7 A o q a.N.[..XV.{ 4.R.n.V.3X|..X@ l x )             ,X                          ",
"                            e.. j e.& $ O o 1 w D 1 : K c.iX_.`.Y.b.4.[.3X|.{.@ 3 t c )                     e.      e.          ",
"         .                ~.e.-.w.w.6.7 + . u r D 5 < f J a.iX.X].}.qX2X2X|.c o 9 x s `                 e.w.e.=.  w.w.t.6.      ",
"                        8.8.O.&.%.w.6.*.# . u y H r q f h V d._.{.|.yX2X3XI 2 o s c K ( Z             y.y.q.#.#.| #.e.6.6.      ",
"                      . !.b Y +.&.| 1.# & o l n C n : f h m m s._.}. X|.s.k $ 0 t 0 J ( d             8.=.| @.$.&.#...6.*.9.    ",
"                      W.,Xb ~ Y o.Q *.# # # o w c z s f f f h Z _ m.B.f.V 3 w 3 6 s J ) y               *./ o.} O.O.=.=.*.      ",
"                      W.0XP.W ~ ~ b & . # # z t N J.qXm h Z U d._._.B.d., ,.v 8 6 m J ( d               *.~ ~ ~ T Y / b *.      ",
"                              W Q 2 l # O # . k D J.@X6X8Xd.B.iX_.iXf.Z , #XH N 8 m ( ( 0 m               b ~ o.~ ] { b         ",
"                              - w o O # # 3 & e K /.#X=X6XeX2X`.iXN.` q ,X<.3.l n B C C y <                 W ~ ~ { F /         ",
"          I.                d 6 1 & # w # o & e P +X*X1X1XwXeXtXtXc.yX1X9X+X,.l M V J ..w.d P.w.t.          E ~ ~ W b           ",
"                            1 w O X 2 2 u # O M K &X/.5X8XwXwXtXtXtXtXtXH.,XS S 1 K y.q.#.#...e.6.6.          [ ~ W             ",
"                          * 2 2 2 2 = 2 O & O # 2.-X5X6X8XeXeXrXwXtXtXyXJ.j.Q.l 2 Z 8.| T $.O...-.*.            R               ",
"                        c &X+XT.S 2 & 9 . O O O D -X6X0X8X8X8X8XtXtXtXtX#XG.1.L & V *.W Y +.&.| *.*.                            ",
"                      $X1X-X6X*X:.5 & 2 o # O w H #XT.eXwXwXwXyXwXtXtXtX6XXX<.A 2 V n b ~ Y T W b                               ",
"                    4X6X8X8X=Xj.5 7 7 . o O o & ) 5XOXG.8XwXtXtXtXtXtXtX0XT.F.P 3 m m b ! ~ R F                                 ",
"                  4X6X8XeX1X1XL 5 = X o O O O # K -X0XoX/.#XtXtXtXtXtXtXtX%X+XF 8 K % : W ~ ! b                                 ",
"                  6XeX6X1XwXT.w 1 $ # & O o O = ` -X0X5X6XtXtXtXtXtXtXyXyX+XF.2.i V % > : E W % > v       W.b..                 ",
"                  4XwXwX5X5Xt x - X 1 # O O O O m -XrX0XwXtXtXtXwXtXtXtXyXJ.A.g.n f ; > : % $ $ X d       !.Q..                 ",
"                $X$XeX$X=XH.1 8 = $ = O O O 1 O s -XeXeXyXtXtXyXtXtXtXtXyXT.#Xk.:.q O > - % - = = - C 6X  I.K.                  ",
"              $X&XwX7XeX^.,.y j.= 1 O & O + & $ g @X0XeXyXrXtXeXyXwXtXtXtX(.#XA.i.6 $ - > $ = = $ ; 6 /.                        ",
"              5X/.tX%X5Xx.N i.x.= = 1 & & O 1 # 8 S eXeXeXrXeXwXeXtXtXtXtX-X#XT.<.: $ * % % ; & = # : B eX                      ",
"              4X%XrX1XXXS.6 7.k.& % + 1 1 & & O : L 8XeXeXtXtXeXtXtXtXtXtX1X-XJ.2.3 @ 6 % % % + - . X d rX                      ",
"            S 5X5X6X6XG.D.l i.G.c = & & & + O X + r +X0XeXrXrXtXtXtXtXeXtXtXT.Z.L 3 $ * % X ; ; ; - = 0 3.yX        . R.        ",
"            S <XtX%X<XD.h.A V j.7.% + & $ & X # $ x A.wX6XeXeXrXeXeX6XtXtXyX#XF.F.t $ = % X % - ; - - # D wX          W.        ",
"            x.4XtX$X*XH.^.G >.h.7.* & + + $ ; & $ - c wXeXeXeXeXwX0XwXeXrXyXJ.k.oXl $ : ; X ; + = : $ 1 q 6X                    ",
"            @X<XtX4XXXH.OXN i.0.7.= $ # & % + * * $ i XXeXeXeXeXeXeXwXtXtXtX6Xg.-Xv % - - ; $ $ - - - 1 p ,X4X                  ",
"          P.oX@XrX6XH.XX^.L 7.h.7.- = $ . X * t 3 M 7 D 7XeXtXeXrXrXtXyXtXrXtXXX6XA & % % % % > $ % : 5 7 3.wX                  ",
"            @X@X6X6X^.^.^.I 0.7.7.> : - X ; c > u 3 3 M T.eXrXtXrXrXrXrXtXeXwX(.5XN @ * - + % % - % :.= 2 A 6XwX                ",
"            &X@X$XeXXXOX^.L h.:.A > p - & @ l l A S l 8 g.eXrXtXtXrXtXrXtXtXtX/.yX<.= * % % % X % % l & n c 8XwX                ",
"            $X%X=XwXoXoXG.I g.g.k 6 a $ : % = g.M g.L M S ,X0XrXtXtXtXrXtXtXtX8X-XN 3 3 , + * + & $ r 6 n c uXrX                ",
"            &X@X7X4X4XoXG.A 7.h.B q 7 A : % 3 F.;.j.Z.;.S h.4XrXrXtXrXtXtXtXrXyXOXc s ;.q > 3 + % & p r l B 7XrX                ",
"            @XoX6XwX8XXXG.j h.h.S u 9 7 & - > ,.oXZ.H.G.G.H.8XrXtXtXtXrXtXtXtXeXx.v i.h.c : q 3 = 4 c M z H 0XrX                ",
"            @XOX@XeXwXJ.D.y h.S.M k t M : q t L S.F./.$X6XwXrXrXrXrXrXtXrXtXtX6Xl.k.J.H.m t t s 0 e M H S :.6X(.                ",
"            <X<X<XtXtXOXJ.M 0.D.:.A M i l 6 6 L G.oX4X4X6X6XrXrXrXrXrXrXtXtXtX6X#XoX1XoX<.D c x l k M L I J ).+X                ",
"            @X$X<XtXtX5XG.h.0.G.0.>.L M ;.A i :.T.%X<X4X5XwXwXrXrXeXrXtXrXtXtXrXrXeX6X$XS.I D 3.G :.0.p.l.p.'.'.  X.            ",
"            <X&X1XtXrX5XOXG.G.H.S.G N g.7.S.S G.^.4X7X<X4XeXrXrXrXwXwXeXtXtXtXtXrXrXwX$XoX/.@XH.h.h.F.l.v.T.(.(.                ",
"                z.J.tXuX&X^.H.^.0.G G g.D.G.^.^.^.@X<X<X5XeXrXwXrXrXwX7XeXtXtXtXrXeXeX6X8XwX6X*XG.oX5X<.U.Y.(.(.                ",
"                p.a.l.l.k.*XOXOX1.9.0.Z.H.G.^.oXOX^.4X<X8XwXeX6XeXrXrXwX6XtXtXtXrXeXrXwXeXeX7X6X6X4X4Xz.U.T.).(.                ",
"                a.l.m.v.M.Y.U.v.G :.Z.h.L.^.L.^.XXoX$X4XwXwXwXwXwXrXrXeXwXeXtXtXrXeXwX8XwXeXwXwX8X6X4XU.U.Y.(.(.                "
};
