/* XPM */
static char *starry_1_png_7_1747936711[] = {
/* columns rows colors chars-per-pixel */
"64 64 227 2 ",
"   c #000000",
".  c #05060A",
"X  c #0B0B0E",
"o  c #08070C",
"O  c #130D0E",
"+  c #0D0D12",
"@  c #110F12",
"#  c #160C18",
"$  c #0E1015",
"%  c #131115",
"&  c #1A1515",
"*  c #15141A",
"=  c #1B161A",
"-  c #1C191C",
";  c #1C1917",
":  c #14100F",
">  c #231C1C",
",  c #221818",
"<  c #31171E",
"1  c #2B221E",
"2  c #34211D",
"3  c #1D1B22",
"4  c #191A27",
"5  c #241D23",
"6  c #271F29",
"7  c #211934",
"8  c #242124",
"9  c #2B2324",
"0  c #24222A",
"q  c #2C242C",
"w  c #2B2A2C",
"e  c #332B2B",
"r  c #352827",
"t  c #2C2B32",
"y  c #282532",
"u  c #342C32",
"i  c #362D39",
"p  c #3C3335",
"a  c #34333C",
"s  c #3B353C",
"d  c #383539",
"f  c #363234",
"g  c #433A35",
"h  c #443A3B",
"j  c #483937",
"k  c #47352F",
"l  c #4D1E2E",
"z  c #54453C",
"x  c #4A423F",
"c  c #3D3B43",
"v  c #393744",
"b  c #302F46",
"n  c #423B43",
"m  c #463B45",
"M  c #483E55",
"N  c #61326C",
"B  c #494349",
"V  c #574847",
"C  c #4B4756",
"Z  c #544B56",
"A  c #585358",
"S  c #645455",
"D  c #68595A",
"F  c #6A5350",
"G  c #494A67",
"H  c #5A4C64",
"J  c #5A5867",
"K  c #525370",
"L  c #645B65",
"P  c #6A517A",
"I  c #5B6677",
"U  c #68636A",
"Y  c #7C6B6C",
"T  c #736468",
"R  c #676576",
"E  c #766B76",
"W  c #73717D",
"Q  c #6F6059",
"!  c #E6752F",
"~  c #E77B39",
"^  c #A41250",
"/  c #A4134F",
"(  c #C7274C",
")  c #C72A4E",
"_  c #F13644",
"`  c #E93B69",
"'  c #945568",
"]  c #85726C",
"[  c #887477",
"{  c #947D7D",
"}  c #896C72",
"|  c #AB435B",
" . c #F14754",
".. c #D04C6E",
"X. c #F25561",
"o. c #E77F40",
"O. c #6F974C",
"+. c #39FD4B",
"@. c #6EE272",
"#. c #E3B33E",
"$. c #F88C39",
"%. c #EE934E",
"&. c #A0CE55",
"*. c #BAF06E",
"=. c #F7E375",
"-. c #284081",
";. c #1C7391",
":. c #1C768F",
">. c #646785",
",. c #6C7487",
"<. c #787488",
"1. c #767894",
"2. c #776C8B",
"3. c #5F628A",
"4. c #847886",
"5. c #86778F",
"6. c #EC6992",
"7. c #E43FFF",
"8. c #1BAFBC",
"9. c #7A869D",
"0. c #4794B3",
"q. c #7D86A7",
"w. c #2EC985",
"e. c #50EF9E",
"r. c #65EBAF",
"t. c #1AC7D1",
"y. c #57CAC7",
"u. c #64CDCA",
"i. c #878598",
"p. c #9A8C94",
"a. c #98868B",
"s. c #A89798",
"d. c #B69B9A",
"f. c #AD8C8E",
"g. c #B9A29D",
"h. c #8589AA",
"j. c #9F94AB",
"k. c #8B93B6",
"l. c #9598BC",
"z. c #8E8EAF",
"x. c #A99AA4",
"c. c #AD9BB2",
"v. c #9DA2BD",
"b. c #B7A4A8",
"n. c #B8A5B5",
"m. c #F08C9C",
"M. c #F288AD",
"N. c #C8AEB5",
"B. c #CCB2B7",
"V. c #D8BABA",
"C. c #C9ACAB",
"Z. c #F0A9BB",
"A. c #DB8FA7",
"S. c #DCC6BB",
"D. c #979DC4",
"F. c #A997C9",
"G. c #9CA3CA",
"H. c #9EA4D0",
"J. c #A7A6CB",
"K. c #A7ABD4",
"L. c #B6AED3",
"P. c #B8B7DA",
"I. c #B2B0D0",
"U. c #B691F6",
"Y. c #B9BEE2",
"T. c #D999CE",
"R. c #ED93CD",
"E. c #C8B3C3",
"W. c #D5B8C2",
"Q. c #CAB5D7",
"!. c #F0ABD0",
"~. c #CF95ED",
"^. c #F793F3",
"/. c #CFB6EE",
"(. c #F2A7F1",
"). c #BEC1E2",
"_. c #81E8C3",
"`. c #C9C3DC",
"'. c #D9C5D8",
"]. c #D8C2CF",
"[. c #E8C7C8",
"{. c #F2CACD",
"}. c #E7CBD7",
"|. c #F4CDD5",
" X c #F5D2D3",
".X c #F9D3D5",
"XX c #FAD5DB",
"oX c #FBDADC",
"OX c #F5D3DB",
"+X c #F3D2CE",
"@X c #C3C4E2",
"#X c #CCCBE4",
"$X c #C9C9E7",
"%X c #D3CBE7",
"&X c #D4D4EA",
"*X c #DBD4EB",
"=X c #DBDAEE",
"-X c #D7D5E7",
";X c #DAD9F1",
":X c #D3D1E9",
">X c #E2DEEE",
",X c #E5DBEA",
"<X c #FBDCE3",
"1X c #FBDDEA",
"2X c #F8D6E3",
"3X c #EBD6F4",
"4X c #DDE2F3",
"5X c #E3E1EE",
"6X c #EAE4ED",
"7X c #EDEAEE",
"8X c #FBE3ED",
"9X c #FBE1E7",
"0X c #E4E4F2",
"qX c #E9E6F2",
"wX c #EDEBF4",
"eX c #EDECF9",
"rX c #F0EEF6",
"tX c #FCEBF3",
"yX c #F2EEFA",
"uX c #FBE7F2",
"iX c #F2F1F6",
"pX c #F5F4FA",
"aX c #F6F9FE",
"sX c #FCFCFE",
"dX c #FBF4F9",
"fX c #EEFFFF",
"gX c None",
/* pixels */
"                                                        x ] g z r a R j..                                                       ",
"                                                    U <.E i.T C a a f c S 9.                                                    ",
"                                                B <.J J U A B d c w a f B D i.                                                  ",
"        :X                                    S a W J J Z C Z s a c 0 c x B Y j.                                                ",
"        !..                                   s c f t a Z w d A E D d f u m R 4.                      7.                        ",
"                                              T B 0 w s C A { b.b.B.s.D h B W W L                             ~.~.              ",
"                                              A R t c Z T x.S.[.[.{.{.[.{ [ E E 4.x.                          ~.fXU.            ",
"                U.F.                    . (.g s c 4 e <.x.n.[. X X|..X.X{.d.{ E 4.[                             U.              ",
"                U.F.                    ~.r > - 3 3 g 4.N.[.{..XXX1XuX8X1X+Xd.[ [ f.                                            ",
"              y.  .       e.            z r p a q & S x.V.[.OX2X8XtXsXyXtX8XC.d.] 5.p.                                          ",
"          e.w.e.w.w.    w.w.t.8.        p T 5 d 3 - S b.W.{.OX<XuXtXdXsXtX8X2XW.] Y s.            (.                            ",
"      . o r.u.w.O.*.    e.e.t.8.;.      p r 5 a 8 1 D B.[.|.OX2X8XtXtXsXdXuX<X{.d.} p.          . (.                            ",
"        y.y.0._.&.*.O.O.&.e.8.8.8.;.    8 h * d e e D ] h Q } W.2X9XtXuXOXn.} n R V a.                                          ",
"        0.;.O.#.! ! #.=.&.@.8.;.-.-.    8 g 5 u 9 S D b.[.|.|.{..XoX8X9X2X2X1X.X{.F [                                           ",
"          -.' ! ! o.#.#.#.;.;.-.3.    h g r . w , Q { { s.W.B.8X2X.X8XoXoX[.B.V.s.V ] E.                                        ",
"        . -.( ! ! ! #.! ! O.;.-.-.    r g > . r 5 D d.} 6X3.7 s.OX{.tX<X[.6X>.7 } { Q a.                                        ",
"          -.N _ _ ( ! %.( ( 2.N gX    & r % o e 9 } V.B.d.6.Z.1XoX[.8X9X9X!.OXZ.|.d.V 5.                                        ",
"            N ^ _ _ _ _  ._ N N     p - p o + w 9 [ W.|.2X=X1X1X.XV.1X9XtX1X1X8X2XV.{ 4.                                        ",
"            N N ( ( _ _ ) P N       V % e X o - < S W.|.1X8XtXtX{.V.<X8X9XuX8X8X8XB.x.}                         !.(.            ",
"          oXgXgX^ _ _ X.( N       ,.z % w o . = m m E.|.1XiXtXuX!.C.oX9X<X9X8XdX8XW.Y 4.                        R.              ",
"          (.(.  ( _ _ ( _         L , s * o X 6 V V c.{.2XuX8XXXV.S..X9XXX.XXX8X8XB.j }                                         ",
"                  ) _ _ (         x - g % . . - V m s.[.XX<XXX.Xf.' [.{..X2X[.XX1XW.V [ R.(.^.                                  ",
"                    ^ ^ gX~.      e * m + . o 8 C h { N. X{.[.{.+X+X X<XoXXX{.[.|.d.r 4.                                        ",
"                          .       g * 5 $ . + 6 R Z [ [. XoXl | ..6.M.M.M.7 OX.XXXV.q {                                         ",
"                                U w e 3 + + + 3 J . Y B. XoXZ...sXsXsXsXA.XXXXoXW.s s [                                         ",
"                                A * x + + * + 0 H + r s.V.+X+XZ.X.6.!.M.Z.9XoX+X# v n [             1X                          ",
"                                x t = % + o 3 w L 3 1 Q b.S.[.+XW.m.6. X9XoX.X# 5 i h {                     e..     e.          ",
"        +.                      x V 8 0 + . v u L 0 1 j Y s.S..X|.XXuX8X9XoXm o 9 c m Y                 e.w.e.;.  w.w.t.8.      ",
"                                e r ; w $ . a d U u 9 j z F s.S..X2XdX8X9XW 4 o h m T ] D             y.y.0.&.&.O.&.e.8.8.      ",
"                      . (.      x 1 : % * o v B L B 1 k z V V g.[. XoXoXd.c @ f i e ] } g             0.;.O.%.X =.&.@.8.-.0.    ",
"                      ^.3X      r 1 w $ $ $ X w m b j k j k z z { N.C.d.F y y 8 6 j ] ] p               -.' $.o.#.#.;.;.-.      ",
"                      ^.dXT.    r : % . $ $ a f Z L.uXV z F ' f.S.[.C.f.< 1.M q q B Y ] g               -._ _ _ ~ ! ' N -.      ",
"                                = 4 v $ + * . c L L.&XqXyXf.C.S.+XV.g.F < *XR Z 0 V ] ] e z               N _ $._  .X.N         ",
"                              & w + o * + 3 * y T `.*X>X7XdX9X[.[.V.] r 3X2.2.n B S D D p r                 ( _ _ X.P '         ",
"          R.                g 0 4 * $ t $ o - y E %X&X6XqXpXaXsXsXb.iX6XdX%X2.M Z A Y F 1 g T./.            / _ _ ( N           ",
"                            - t $ X 4 4 a + o C T ;X`.qXrXrXpXaXsXsXsXsXP.,XK C ; T T V 9 , x                 .._ )             ",
"                          3 3 4 4 4 - 4 + * + + 4.,XqXqXeXiXpXpXiXsXsXpXL.F./.v 4 S D k w w g                   ^               ",
"                        m &X%XQ.G 4 * t . + + + L >XwXyXiXiXiXiXsXsXsXsX*XH.3.R * S S k r = 1 D                                 ",
"                      =X6X,XwX%X,.8 * 3 o % + t L &XQ.aXiXiXiXdXiXsXsXsXeXQ.,.H 4 S z r r ; O x                                 ",
"                    5XrXeXtX>Xl.8 0 0 o + o o 4 [ qX#XK.eXpXsXsXsXsXsXsXpX`.J.E 0 V V e e $ % p                                 ",
"                  0XwXrXdX6X5XR 8 - X o X + + $ T 6XeX%X`.*XsXsXsXsXsXsXsX%X%XP q T & , 1 @ * ;                                 ",
"                  qXpXwX5XiX`.t - % % $ $ o + - } ,XyX6XqXsXsXsXsXsXsXdXdX%XJ.4.s D & , > ; X * , M       ^.m.                  ",
"                  0XiXeXqX0Xi n > X 3 $ o + + + V ,XpXyXiXaXsXsXiXsXsXsXdXL.L.i.m j : , > & % + X j       (./..                 ",
"                =X>XpX>X5XP.3 q * * - $ + + 3 + h >XpXdXaXdXsXsXsXsXsXsXdXQ.%Xh.<.9 + , , & - ; - - D wX  R.U.                  ",
"              >X4XeXwXpX`.1.p l.- 3 $ $ $ + * @ k %XyXdXdXaXaXpXdXiXsXsXsX'.3XF.i.9 % ; = % - > % @ 1 `.                        ",
"              0X`.aX-XqXD.Z i.v.= 3 3 - * % 3 $ q G dXyXpXaXdXpXpXsXsXsXsX,X*XP.<.> % = & & % % ; % ; H pX                      ",
"              0X-XsX0X@XG.9 9.z.* % % - 3 % * + > R rXpXpXsXaXdXsXsXsXsXsX6X,XL.4.6 # 9 & & & : ; X O g dX.                     ",
"            G 0X0XrXqXK.J.v i.K.m - * * * * @ o % u %XpXpXpXaXaXsXsXsXpXsXsXQ.D.R q # % & O O X O = ; e 5.dX          !.        ",
"            K 5XaX-X4XH.D.J L l.9.& @ * % * X % % h F.iXwXpXaXaXpXpXwXsXsXaX*XF.J.i * ; & X @ ; : ; ; $ L yX          ^.        ",
"            v.0XsX=X:XP.Y.J <.k.9.* * @ % @ @ * % = n pXpXpXpXpXiXiXiXaXaXdXL.z.#Xc @ > : X : @ * > : 3 q qX                    ",
"            ;X>XsX5X@XI.@XA i.q.9.3 % % * % @ = * * s @XpXpXaXpXpXpXpXsXsXsXeXz.>XM = & & % % & ; - ; 8 d 0X5X                  ",
"          T.$X&XaXwXY.@X).U 9.k.9., ; % . O = u 5 C q J eXpXaXpXaXaXaXdXsXaXsX@XyXH % & & & = , % ; ; 8 0 5.pX                  ",
"            &X&XrX0X).Y.).R q.9.9., - ; o O M , a 6 4 C Q.pXaXsXaXaXaXaXsXpXiX'.qXC # = & : & & ; & ,.- 4 H rXiX                ",
"            =X&X=XiX#X$X).W k.,.J - d ; & @ s v L G c q h.pXpXsXsXaXsXaXsXsXsX`.yX4.- = & & & X ; % v & B B iXiX                ",
"            ;X&X>XiX#X:XK.W h.h.c 1 u * - & - h.C h.>.C G 3XyXaXsXsXsXsXsXsXdXwX,XZ 6 6 > : = # & % u 0 B B aXaX                ",
"            ;X&XwX0X4X$XK.L 9.k.A r q J > - 5 J.>.l.D.R K l.6XdXsXsXaXaXsXsXaXdX$Xm n R r , 9 @ & * d u b A eXaX                ",
"            &X#XeXiXiX@XK.h k.k.J a 9 0 - ; - 1.$XD.I.K.I.P.iXaXaXsXsXaXsXsXsXpXF.m h.k.B ; r 5 - 7 n V b U yXpX                ",
"            &X$X:XpXeXP.H.p k.G.C c f C 5 9 f R D.J.#X>X0XiXpXfXaXaXaXsXaXsXsX7Xx.z.I.P.V i f s u y C I G ,.eX'.                ",
"            4X4X4XsXsX#XK.C h.G.,.K C s v 9 9 R K.%X>X0XwXiXpXaXaXaXaXaXsXsXaXeX*X#X5X#XW L m M v c G T W Y ].}.  . .           ",
"            &X=X4XsXsX0XK.k.q.K.q.<.U C >.J s 2.).-X4X0XwXiXpXaXaXpXaXsXaXsXsXaXaXpXiX-XJ.2.D <.I ,.q.a.x.p.*X'.  @.            ",
"            =X4X5XdXsX0X&XK.K.P.K.I A q.9.G.K K.@X0X0X0XqXpXaXpXaXpXiXpXsXsXsXsXaXpXpX5X&X`.&XP.k.k.J.x.n.W.}.'.                ",
"                c.I.sXfX*XY.P.).0.I I z.H.K.).).).&X4X>X0XpXpXpXaXaXiXwXpXsXsXsXaXpXpXqXeXiXqX&XK.#XqXW L.W.'.'.                ",
"                p.s.x.x.j.:X:X$X3.3.q.G.I.Y.Y.#X$X).0X4XeXpXpXrXpXaXaXiXwXsXsXsXaXpXpXiXiXpXwXqXeX0X0Xc.E.].'.'.                ",
"                s.x.N.n.B.E.E.n.I 9.l.l.K.Y.Y.$X).$X=X0XrXiXiXrXiXaXaXpXiXpXsXsXsXpXiXiXiXpXpXiXeXeX0XE.n.].'.'.                "
};
