/* XPM */
static char *Screenshot_2025_05_20_at_16_46_54_1_png_1_1747752765[] = {
/* columns rows colors chars-per-pixel */
"64 64 47 1 ",
"  c #070704",
". c #080704",
"X c #070A05",
"o c #0A0B06",
"O c #070F08",
"+ c #0B0E08",
"@ c #071205",
"# c #0A1406",
"$ c #071907",
"% c #0A1A07",
"& c #0A1308",
"* c #071C08",
"= c #0B1D0A",
"- c #131B07",
"; c #0D2307",
": c #0E220C",
"> c #0F280B",
", c #12250C",
"< c #14290D",
"1 c #192C0E",
"2 c #0F2410",
"3 c #132512",
"4 c #182712",
"5 c #162A12",
"6 c #1B2B14",
"7 c #1E2C19",
"8 c #1D3114",
"9 c #1D3118",
"0 c #212E16",
"q c #222E1C",
"w c #223216",
"e c #24321C",
"r c #2A341D",
"t c #2A381D",
"y c #263321",
"u c #2A3422",
"i c #2D3A23",
"p c #2D3A29",
"a c #323C25",
"s c #333D32",
"d c #354125",
"f c #3D452C",
"g c #464E37",
"h c #D6A737",
"j c #FEAD3E",
"k c #F6C99B",
"l c #FAD9B8",
/* pixels */
".o..oo  ooo ooooo....ooooo.o..oo ooo  ooooooo.oooooooooooooooooo",
".oo. ooo oooooo ..o.o..ooooo..oooooo  o oooooooooo ooo oo o  oo ",
" o.ooo ooo  o  oo....o..oo.oo...oooo o ooooo..ooo o oooo  oooooo",
"o oo ooooo  ooo ..ooo.oooo.o.o.. oo oooooooooooooooo  oooo oo oo",
"oo ooooo o.ooooooo.o.oo.ooo....oooooooo oo.oooooo oo    ooo  o o",
"..oooooo ooo .oo.oo.o..oo...+o.ooo o ooo+.....o.ooooooo  o  oooo",
"o.oo  oo.ooooo.ooooo.oooo..ooo.. o...   ...oo.o.oooooooo o ooooo",
"o  .o  .........oooooooo..o.ooo.oo.ooooo...o.oooooooo ooooooooo ",
".o...ooo..oo.oooo+ooo+ooo+ooooooooooo.oo.o.o..oooooo..o.oooooooo",
".......o.oooooooo++++++o++o++ooo ooooo...o..o.oo.oooooo.  o. oo ",
"...oo.o+ooooooo+o+o+o++o++++++++++oo+oooooooo.o.o .o....oo.o.ooo",
".oooooooo+++o+o+++++++-o++++++++o+++++++ooooo.oo.o......  o ...o",
".ooo+o+o+o++++++++-++++o+++++++++++++o++o++++ooo.oooo......o.o..",
"ooo+oo++++++++++++oo+++-++++o+++++++++++++++o+++ooo+oooo.....oo.",
"+o+oo+o+o+++o+++o+++o++++++++++++++++++++++++-.ooo+ooo+.oo..oooo",
"+o+oo++o+++o++++++++++++++++++++++++++++++++++oo++o++oooo..ooooo",
"ooo+++++++oo+o++o++++++++#+++++++++++++o+++++#++++++o+oooo+ooooo",
"o+++o++o+oo+#o+o+++++#+++++++++++++++++++++++++++o++++o+o+o+oo.o",
"++++o+++++o+++o+++o+++#+++++++++++++++++++++++++++++++++o+oo+ooo",
"o++o++o+#o+o+o+oo+++++++++#+++++-++++++++++++++++++++++++++++++o",
"o++oo++++o+++++o+++o+++++++#&++&o+++#+++++++++++++++++o##o+++#o#",
"o++++oooo+o++o+o++o++#+++++++++++o++#o+++++++&++++++&+&+++++oo++",
"+++o#o++++++@o&&++++#o+#++++++++++#+++++++++o##++++++&+&++++++++",
"+o+o+++o@+o+#&@&+-#+##+##+o&++o#++#++#++++#-##@#+++&++++&@##++#o",
"++++o&&o##o#%&&&####&&#&@#+#&&&###-###@+#-##%h%@&&#lo+#+ojk@+&o@",
"#####&#&##+###&&4o##&&&+&&#+o&ooo#++ooo+o+oooooo+oooo..o..  .   ",
"#+++o&&%&##&&####o##@&##&+++&o+oooo+oo+&o+o+#o&+++o+oo+ooooo.o..",
"+###@&@@#####@#######@####++o++++++o++o+++++ooo#+oo+#ooooooo....",
"##&&&##$##%%@&$&###&#$######+#o&+o++o+o+o++o+++ooo+oo+o+oo#oo.o ",
"##%%#@#&##&&O%&&##&@#&&&#####&#o##+o&+o++o+++o++++o+++o+o+oooooo",
"#####&#&#&&&&&&&#&&%#$#$#######-###&++++++++++#++o++o+++#o+ooooo",
"####&&&&#&&%&&&$&%&&&#&&###########o#+#o++o+o+o+oo&ooo++++oo@ooo",
"$&&#&#@%&&O&&&@%&&&&&OO&&%&&%o%&##&&@#+o&++++oo+o+oo.oo&+++++o+o",
"&#@#&&&&&@%@@%O&##$&%%%%%@%&&%&&##&%#@o#@&o#+oo####+%X%o#%@&oooo",
"*&&#&&&@%&@%%&%@$$@&&=*=:@%&%&%%&&&%###%%#&oooo+&o%,&oO###%&%&=,",
"&&$#&$&%&%%%##&@@%%&==&=:%%@%$%#-:%&####@%o&&o&&+&%#%*&&%,#%:=:-",
"%&%%%&%%&%%%$&%%@&%&=*32=%=&&======&%%%&&&&%&&&O#%==&==#=3=%43::",
"$$%%&%%&%=&#=&&%%%==%232=:==2====:=$-,%%=%**&&==%====$&$&2,:::3=",
"=3=%&%===%=*=2&=%=====2==*:22%=%%%=2==3=====:*==-===:%22%3:==%2%",
"43=322===&2=*&=*3====%===*=2=======2===:*:*=::=*2=%==32=:=;%====",
"===3332223233432:=====2%&==3=*=*=$=======:========23223==%=%==2=",
"2*2377423222733*:=4==2==23=22=%==:=%=*========22333327==%&2%=*=&",
"==23724====2*2====:=*22-===2==2===%*======2-==2=37432==%%%:%===$",
"=2=3737333322*=2:===3==222222=%===*%====22===2:27373%22%&=2%%:&%",
"2=22223233323332=2=&=223=2=--===2==%=2222===22=223=3:2=%&=%=:==%",
"==22**332433=33=3===3=2=222=2222==23=22%*====&%%&=&==%=%&===3%=&",
"23332=23=23332233=22==222=2===&=2===2====2====%==:====*==$==2=%%",
"y3s7:2=22=2=2=223222=232====32222=2:=====*%==:2:==:=::====%===%%",
"pss4222323==2*2=22=:=2=2==2343q777773443744=3=:=**:332-,==&%%=3=",
"pss747777774qq777==22347qyqqqqqqqqqqy7qq7777777747742%&:44747777",
"sppu37qe77y7qqyq7qqqqqyyqyqq777yqqqqq7q7q77777777477y307q7747744",
"yyyp:<71uy9yyqq7y7yyqy74qqqyy7y7qqqqqqqqqqqqqqqqy77744qqyqq77q47",
"2=>;,;>>e667yyqqe7uy49477quuy434y3777quqqq7ueqy732qq04qq77-,4qqq",
",::::<;><,57qy77,447yy7qqypyyy7qyqq77yqyeyyy7qu7eqqqq7q0q77qyqeq",
"2=:3:3><2;,,4553,47e345527u779y7quuurureqw7:44,,4urq6eqqrqr00q0q",
":47,6:5355<5:2:455<253>>233,:3:5,7qqur0,,,7,%,40wr0eq6wer0060000",
"r60568<559>25<5,>;:5>5ii,5,<,;<;,,,0,0,1,00r0061w1w,,<11,%,<;,,%",
"05;469:;<:54,:65:>5,5<p<<;18;,,<,4t,,1%1,6,1,,,;,;1;;,,,w<;1;;,,",
"104ew5<>3<<;5<,<>5>>>1>;<9w6951,6,6,5,115<;<,;,,,-;-,1<>6;11,1;,",
"r006w,55<15<9:><9<>><>>:<<5,<<69614,,<,-,;;:*;%;,,%;,11w;1f1tw;1",
"w00eww:3>:>99>6<<5<>>>5<*;<,685;,;;:,:;:1;;;<;;*%,0,1<w1881dw1a1",
",<<<w<5:>;;:6<<5<8<85>>6,<t;;31*=<=,:;;5*==;i<;;,;td818t1dww1g1;",
"5t<0t65<e9<5519<>5<5>>81<,*>5=;;:<:<<><=%;,,1w8w4,11w188;w1d1;>;",
"6ew1591yw<pdwt6e888:95>6,5e<>>;<<<:><55a10661r,wi16,1>w1t;t;>%,8"
};
