/* XPM */
static char *Screenshot_2025_05_20_at_17_11_42_1_png_2_1747754144[] = {
/* columns rows colors chars-per-pixel */
"64 64 249 2 ",
"   c #0B1806",
".  c #0E170D",
"X  c #0E1B0D",
"o  c #151C07",
"O  c #12160D",
"+  c #121D0D",
"@  c #1A1D0C",
"#  c #0D1714",
"$  c #0E1B11",
"%  c #0E1A18",
"&  c #111711",
"*  c #121C12",
"=  c #1B1E11",
"-  c #141C19",
";  c #231E0A",
":  c #391909",
">  c #2A1B18",
",  c #371C16",
"<  c #0E210E",
"1  c #09270D",
"2  c #192305",
"3  c #1D2B06",
"4  c #14210D",
"5  c #1B230D",
"6  c #152B0D",
"7  c #1D2B0D",
"8  c #0D2212",
"9  c #0B2C13",
"0  c #0A251A",
"q  c #142212",
"w  c #1B2412",
"e  c #142B14",
"r  c #1D2A13",
"t  c #122419",
"y  c #1A241C",
"u  c #152C1A",
"i  c #1C2C1A",
"p  c #0F3315",
"a  c #173417",
"s  c #1D321C",
"d  c #252606",
"f  c #23250D",
"g  c #2B250C",
"h  c #232B0D",
"j  c #2C2B0C",
"k  c #36270D",
"l  c #27340D",
"z  c #35360C",
"x  c #222513",
"c  c #2B2513",
"v  c #242A14",
"b  c #292B15",
"n  c #25261A",
"m  c #2C241A",
"M  c #242B1A",
"N  c #292B19",
"B  c #332412",
"V  c #372717",
"C  c #32241A",
"Z  c #243213",
"A  c #2B3216",
"S  c #263B16",
"D  c #24331B",
"F  c #2C331A",
"G  c #243A1D",
"H  c #2C3B1C",
"J  c #333315",
"K  c #32351C",
"L  c #323A1C",
"P  c #393818",
"I  c #3B3B1C",
"U  c #291923",
"Y  c #371B25",
"T  c #092F2E",
"R  c #142927",
"E  c #1E3323",
"W  c #173826",
"Q  c #2C2922",
"!  c #372526",
"~  c #243522",
"^  c #2A3522",
"/  c #243B23",
"(  c #2B3C22",
")  c #2C3B29",
"_  c #343B23",
"`  c #353926",
"'  c #393C23",
"]  c #2D3735",
"[  c #50120D",
"{  c #491817",
"}  c #571A13",
"|  c #67180A",
" . c #710F16",
".. c #49250C",
"X. c #552109",
"o. c #462517",
"O. c #523412",
"+. c #7E2C0D",
"@. c #652719",
"#. c #762A15",
"$. c #460C21",
"%. c #52152C",
"&. c #6B0A2A",
"*. c #4D2525",
"=. c #712837",
"-. c #0F411A",
";. c #2C451D",
":. c #384718",
">. c #35531A",
",. c #0B4D28",
"<. c #1C4629",
"1. c #0B4936",
"2. c #174632",
"3. c #0A553C",
"4. c #2A4427",
"5. c #3B4223",
"6. c #34432B",
"7. c #364629",
"8. c #3C442B",
"9. c #28582A",
"0. c #365726",
"q. c #284833",
"w. c #3A4934",
"e. c #395637",
"r. c #396B36",
"t. c #4B4710",
"y. c #70500F",
"u. c #796712",
"i. c #43492A",
"p. c #434C33",
"a. c #424D38",
"s. c #4D5432",
"d. c #465538",
"f. c #4A533E",
"g. c #576437",
"h. c #4C7032",
"j. c #08384F",
"k. c #7F1858",
"l. c #10564E",
"z. c #2A534B",
"x. c #395947",
"c. c #0A6F56",
"v. c #306C50",
"b. c #055174",
"n. c #166569",
"m. c #31746A",
"M. c #475645",
"N. c #4C5A44",
"B. c #525D49",
"V. c #475A52",
"C. c #525C56",
"Z. c #7B4857",
"A. c #556747",
"S. c #4B6E50",
"D. c #576757",
"F. c #656A47",
"G. c #677552",
"H. c #466A68",
"J. c #536C6B",
"K. c #587367",
"L. c #4A7876",
"P. c #597876",
"I. c #66756C",
"U. c #667473",
"Y. c #B0121C",
"T. c #8B2C16",
"R. c #851427",
"E. c #A70D35",
"W. c #95312F",
"Q. c #A6372D",
"!. c #AC6216",
"~. c #9C4531",
"^. c #B3552F",
"/. c #937038",
"(. c #892954",
"). c #A32E49",
"_. c #A31B63",
"`. c #904674",
"'. c #B0526C",
"]. c #946F61",
"[. c #D1504F",
"{. c #DD5965",
"}. c #508338",
"|. c #3A875B",
" X c #338E74",
".X c #6E8E52",
"XX c #498A75",
"oX c #588779",
"OX c #4E9270",
"+X c #6B876E",
"@X c #65A16F",
"#X c #9F9964",
"$X c #C68867",
"%X c #D8A569",
"&X c #137F89",
"*X c #587C87",
"=X c #AE1E88",
"-X c #8A268A",
";X c #A061A4",
":X c #C97190",
">X c #D96EAA",
",X c #C477C9",
"<X c #1F9898",
"1X c #2D9C9C",
"2X c #568987",
"3X c #529687",
"4X c #598994",
"5X c #709493",
"6X c #58A58E",
"7X c #70AF8D",
"8X c #6E9BAC",
"9X c #72B1BB",
"0X c #73C69C",
"qX c #77C7A3",
"wX c #2AAAC8",
"eX c #4FC0DA",
"rX c #7ACDEE",
"tX c #91A88F",
"yX c #A1A796",
"uX c #ED8591",
"iX c #E89EB5",
"pX c #A8C78F",
"aX c #A3CFA5",
"sX c #CDC282",
"dX c #F1CA8E",
"fX c #F8F8B7",
"gX c #B0A4D0",
"hX c #F1A5DA",
"jX c #C6BAF4",
"kX c #EBB0F2",
"lX c #92CAD1",
"zX c #B7CCCA",
"xX c #B3E9D7",
"cX c #8FECFB",
"vX c #BAFBFF",
"bX c #FBC4DE",
"nX c #CBEAD6",
"mX c #F8F7D0",
"MX c #D5CEFC",
"NX c #F3D0ED",
"BX c #D2F5E4",
"VX c #CAFFFC",
"CX c #DBFAFA",
"ZX c #E6F4E8",
"AX c #E6E7FF",
"SX c #F8EBF3",
"DX c #EBFDFA",
"FX c #F9F9FB",
"GX c #FCFDFE",
/* pixels */
"& + & * * * $ $ * 8 q $ $ $ $ * $ $ * - $ % * $ * * t * & = - - = - * * * - q * 8 q $ $ q $ 1 X 8 q * 4 + X + X 4 + q + 4 4 4 * ",
"& & & = * * * * . * $ * $ * * & . # * % % - * $ $ % $ - - - - & - & * * * * q $ * * 8 q q $ X X X < q + + o X + + * 4 * + + + 4 ",
"& & & = * * $ $ X * $ $ $ & & $ $ # # # % % * . $ $ $ * & - % # - * * - * $ * 8 X 8 8 * $ 4 X 4 8 X < X < < X 4 + * * + X + $ + ",
"+ . # $ $ * . & * $ $ . . $ . . # # # # # # # # $ $ $ t - - - # - - - - * * * * 8 $ $ $ $ X < X X 8 X < < < <   X * + O + * + X ",
". . . $ $ & $ $ X # $ $ $ $ . $ $ # # # # $ $ X $ 8 0 0 R T j.j.j.j.R 0 0 0 t 8 8 * t 8 $ 8 8 $ 1 + < + X 4 < < < + 4 X + + < X ",
". . . . $ * & #   X $ $ $ . . $ $ # # # $ $ . $ 0 0 9 0 T l.&Xb.j.l.T 0 T 0 t q q 8 $ t q * 8 q $ X + < < < < < < X X X X + X + ",
". . O & & & # $ #     # X $ $ $ . $ $ $ $ 8 9 e W T ,.3.b.wXrXrXeX&X1.W T e u u t t t t t - * $ * X X X X < X X   4 X + + X + X ",
"$ $ $ & $ & & & # # # X X X X X 8 8 8 u u a s H <.,.l.c.<XcXCXDXvX1Xl.q.W a ~ ~ E i t t t q q q q 4 q < < < < < X < 4 X 4 & + + ",
"# . . $ & & $ $ # X # X X X X 1 < e s s / 4.4.7.9.2.1.c.6XCXCXZXVX1Xz.' M S ( ( / D M i q q q q 8 q < 4 < 4 <   4 X 4 X + + X X ",
". . # . # # % # X $ X # 1 $ 8 q s s G / ( 4.6.6.w.q.1.l.5XZXDXDXVX3Xe.:.S ;.H ( ( ( ( G D e 8 q 8 < 8 < < < < < < 4 X 4 4 X + X ",
". . # # $ # # # $ X X X X q i i D ( ( ( _ _ 6._ ] q.,.,.+XxXZXCXxX.Xi.i.K K :.L ;.7.w.7.;.r 8 1 q 8 8 < < < < <   < + X + X + X ",
"& $ & & & $ % # X # X X q M D S G ( ( ) ( ( ( / ^ ~ -.<.}.pXBXnXaXh.:.P ` A H H K 5.8.w.w.( s e 1 8 8 $ 1   < < < X X X X + + X ",
"& + & O # # $ $ . X * 4 r D H H ( ( ( ^ ^ ^ F N Q ^ M S >..XpXpX.Xh.P K ^ ( A A F F 6.i.d.p.4.4.9 8 q $ < < < < + + + X $ + . $ ",
". $ O # & $ # . . * 4 r D F H L H H H F M N M C M Q C P O.u.u.u.u.t.I F v Z h A Z h A ' d.g.S.e.W q 8 $ + < X X X X X O . . + . ",
"& & . & + & & . $ q r b F K K L F F A N M n N c n N b P ~.!.!.!.y.t.z J v F h Z h 2 h A 5.A.A.A.e.W q 8   < X X X   X . . . . O ",
"O & + & + + + X + w v K J L J F F M M n n m c j v M E O.^.%XdXdX%Xy.o.J c n 5 r 5 5 v v F s.F.G.A.q.p e < < + X X X O . O . O . ",
"& O . + & + . . q v A K I K L J A n n n x x f g ; x A *.$XfXmXmXdX/.O.P h v 7 r r r M r x ` F.G.G.e.q.p 1 + $ X . . O + . O O . ",
"O O O . + . O O w N F K P K K A N v w n x x f c r f b O.$XfXmXmXdX/.t.O.c Z Z h 7 r r v x n i.s.A.A.e.<.u 0 8 X X X + . . . . . ",
"O . . + + & O + r F K I K J F b v w w v x f f r r c j l #X%XsXsX#Xy.z I h j l h v 7 7 r N 5 N L g.A.d.7.E u q 8 $ . $ . O . . + ",
"& O O O & & + + n ^ K J P J b n i x n n N x x g r M b k k | y.y.O.O.O.j v c Z r r v v v r r e s i.g.g.d.6.~ r < 8 $ . . o X . . ",
"& O O O & & O q F ^ ` ` K J b n n w w x n n v v v 5 g g [ [  . .[ X.k j j h h v 7 v v h h r e w S i.s.s.7.4.i 4 X * . .   . O o ",
"& & O = O O O w A L K K K b v i w r y y M w v 5 7 d g B $.[ &.&.[ k k j v x j h Z 7 v v v 7 x 5 h ;.i.e.w.4.Z 6 4 $ O     O O   ",
"& O O O O O @ v F L F K F b x w w q y w w w w 5 v h > , [  .&.&.[ B d h N Q f v 7 v v 7 r r h 5 5 r G 6.8.7.S 6 < < . .     . . ",
"O & O O O O q v A F F F n x w w q = * q w q q x w w x $.k.=X=X=X_.k.o.B c f f f r 7 h v 5 r 5 7 r q r G ;.( G r 4 <   O   O   . ",
"O & O O O O ; N A Z Z v x q @ * * * * = = q q = = n > %.>XkXkXkX,X`.=.%., f f 5 5 5 f f 5 5 5 4 4 w y ~ D ~ S u 6 1 . X +   . . ",
"& O O O & = w v N h v r r 4 4 * - * * - q - y 5 o w *.(.hXSXSXSXMX:X).#.: d 5 2 2 5 5 5 5 w 4 4 @ w y E / D s r q + + X + . .   ",
"O O O O + + 7 r h r w q * * * = = = & q w w w q - U Y ).bXSXFXGXNX:X~.R.$.f @ 5 4 q w w 5 2 5 @ 4 w e M E W s i q 4 + . .   X   ",
"O O O O + 4 r v v w q q * q + O * 4 * * q r w w U U %.E.iXGXGXFXNX:XQ.| : 2 x 4 q + = @ + 4 5 5 5 4 e i D E i e q * X X X X . . ",
"O O O @ @ = r r r * * * + + = + X X + q r v r r > U $.E.>XmXNXbXiX[.T.| : r x w q q = = = 5 5 5 5 5 w i E ~ ~ M 4 + X X X   X + ",
"O O O O O = r Z r + * $ $ O + O + + 4 5 r h c x > Y Y R.[.>XuX:X'.~.#.} : Q A r e w = ; @ + o 5 w q w r ~ ^ ~ y q X O + X X   X ",
"; O O O @ 5 r Z w $ * * & + O O @ @ 5 f c j J c , > > { Y.Q.Q.W.=.@.o.Y C ! K D s r = ; = @ @ 4 q 5 q w M ~ ~ i w * X   X X + X ",
"O O O O + w 7 r q $ $ $ $ O O @ O 5 @ d b j J x > > n m { X.X...o...! > m J P H D M = @ O @ + @ @ 5 q w x ~ ~ ~ w 4 X + X   + + ",
"O O O + 4 6 3 a e $ 8 $ * + O + o 4 2 f b J C c v c V N V ....o.V V , ! m J P L F r r @ @ @ @ @ @ 5 5 r i D ~ ~ q * * X X < X X ",
"O O O + 4 3 a 7 e 8 8 8 $ & + X <   2 7 b A A k h h C ! o.} } *.{ o.V Y Y J P L S v w @ @ @ + @ @ @ = r v E E i q q < + * 4 4 X ",
"O O . X 4 3 3 a e q $ $ q X + o o < 2 5 h h h c v B o.*.#.=.(.W.=.! ! ! B j P J F b x = ; @ @ @ @ = w w s s ~ E i q 6 4 $ $ X 4 ",
"O O . . 2 4 3 p u q 8 . $ +   X + 2 < 5 5 v x Z Z Q ] %._.;X;X;X`.=.*.*.V V J J A v ; ; O @ + @ + w w x M ~ / E i q X X 8 + 8 X ",
"; & O . < 2 6 6 9 9 1 < + + O + < < 4 4 4 5 f 7 d n %.k.,XjXMXjXgXZ.@.} , m c c v x x @ @ + @ @ 5 x x v D / ) ~ i q 4 < X X X X ",
"O O . . < 2 6 6 9 6 q 4 + + + X + 4 < o 2 4 5 5 x B %.-XjXFXFXAXjX].#.| : > c x x w @ @ @ o 5 w 5 f v Z F ) q./ u q X X 8 X X X ",
". . . #   6 6 p e e q 4 + X X + + < X X o + o o = ; %.;XAXSXSXAXgX].+.| , w f x x = @ @ + @ 5 5 5 v v F ( 6.q./ s q 8 8 1 X 1   ",
"O O # . 4 2 6 a e e q q + + q + < X 4 4 o o o + 5 > $.`.NXFXSXNXgX].+.| : > x ; w * o @ @ o r 5 v A K H 6.w.6.E u t $ X X X X X ",
"o O & O + 4 u a p p 9 q w q q q * 4 q + o o @ < d , $.R.>XSXbXiX{.~.+.X.B m x f q @ = @ @ 5 x h N L ' 8.w.e.7.G a q $ 8 X X X 1 ",
"  . O O o o s <.,.T W w q q q q 4 q q @ q @ @ 2 o ; k | Y.[.{.[.~.+.X...: h f x 5 x w x w x v A F ' 8.e.M.M.q.G e 8 $ $   1 X   ",
". . O = o o S e.l.,./ h 1 9 w 4 w f w = 5 5 2 o @ ; c o.R.Y.Q.Q.#.| ..: B V c f f f f r r M A b P 5.a.M.V.M.6.s 4 $ $ $ < X X X ",
"X X + & O + 7 q.|.c.3.-.r a w r 7 5 f w r 5 2 h f d B V X.| | X...k g c h Z b v f 5 f x r N A F :.d.N.S.V.x.) r 4 8 $ 0 < X X 1 ",
"X X X + + + 5 ^ v. X Xv.-.p a 7 3 3 7 7 5 h d 6 3 d d b b k B C c c B b j c b c x v v c A A ( _ p.N.D.C.M.] ^ 4 + $ $ $   1 X X ",
"+ + + + + + + r e.OX X Xv.-.p p e r r 4 r h d 7 3 3 3 h b B k k c g c B g b x v x v b F A F 7.*.M.D.D.C.x.) v + X * 8 q X X X + ",
"+ 4 X X q 4 + + ;.}.OX6X3Xc.-.9 e 7 7 7 7 7 2 3 3 3 3 f B k g d d d c h x x x h v b A K J ^ i.p.A.D.D.N.w.M 4 X X X 4 X + X X + ",
"X + + X 8 4 X < a e.OX7XqX@Xv.2.p 9 7 r r h 2 7 3 3 h g g g h f f v b v h r b b b K K K ^ P i.a.D.D.B.p.K w + X X + < 4   X 4 X ",
"+ + X + 4 q + 8 * ` N.@XaX0X6Xv.2.e r N 7 3 3 7 l h j j h 3 x h f x C b Z Z N J K ` ' ' ` ' p.f.F.F.N.*.j 4   $ $ X X 4 X 4 X X ",
"4 8 $ + + * q 8 8 w _ +X0X0X0X6Xv.p u Z 7 r G a ;.' ;.l l a N h j z l S Z A *.' P I I L ' 8.f.N.D.B.p.G 5 $ X X X X * X + < < X ",
"4 8 4 + + = + 8 8 q r d.@X7X0X6XOXx.W R s G ;.4.8.p.s.A.+X+XI.K.g.i.:.;.;.J I :.I ' ' 5.8.w.f.N.B.a.6.v 5 4 + + + X 4 4 4 < o X ",
"q < 4 q q 4 4 < $ 1 X i B.+X@X6XoXm.z.2.W ;.;.4.0.d.F.#XaXnXzXyX+XF.g.0.;.:.5.:.i.i.8.i.d.a.f.M.a.6.D r w 4 * + + 4 * 4 + X o < ",
"4 q q 4 w 4 + < $ $ 8 4 m p.S.@XXX Xm.z.q.<.4.<.9.h.F.pXBXDXAXnX#XG.g.0.>.:.7.i.p.f.M.a.M.N.f.a.6.^ e w w w @ 4 * @ @ * o + + X ",
"4 4 4 4 q 4 4 < 1 $ q + o 5 ` D.OXXX2Xm.H.x.2.9.0.r.}.aXFXGXDXZXtXG.g.0.0.7.e.f.B.D.C.C.B.M.w.6.^ D M i w w w = w w q = * 5 4 + ",
"w q q 4 w 5 * 4 8 $ * X 1 X > 4.x.OX2XoXP.H.v.x.r.h.}.#XSXGXGXnXyXG.A.r.r.d.D.D.I.I.D.D.B.w.) ^ M M M M i x f r x w = w = @ o + ",
"q 5 4 q 5 q q 5 q 1 X + X + + r ) x.K.oXoX*XL.H.v.|.|.7XZXFXGXnXtX+XK.S.S.D.U.U.U.U.D.C.w.6.D D i M Z n n v x v x x x n w w w q ",
"q q 4 q q q q q @ 4 4 q = = 0 $ w Q w.x.L.L.P.*Xm. XXXyXDXGXDXzXtX5X*XP.J.U.U.U.I.D.C.f.` D M v M N n N b v v v n N n x n w w w ",
"+ + q + + @ q + @ + @ w q @ + X X 1 u E q.x.J.U.4X4X4XzXFXDXVXlX9X8X*X*XP.U.D.D.N.d.7.( M M n v v M b v v v N N b b N x c x x x ",
"+ q * 4 @ q = 4 5 + * w q q q X X X X 8 < E ] V.m.*X4XzXFXGXvXlX8X5X*XJ.D.C.f.w.6.( F M n w n n M N N b v n v n n v n N N x n w ",
"q 5 5 q + = q + + 5 4 q w q q q + 4 $ . X + q 0 T z.n.2XlXxX9X4XL.J.C.V.w.) N ~ M i w w w y M v N N N v N b m b b N b v x v x M ",
"5 = q @ @ * 5 + @ 4 4 q q w q 4 + + 4 + * * = q % R T T l.m.l.] ] ] N x n X @ 5 = = w n n v v b v N b n n b N N b n v N N v v M ",
"= 5 + 4 * @ + = q q 5 w 5 w 4 q 4 + q 4 5 = = q & = R 0 t R y x x 7 2 @ @ @ o @ = x n x v x b v b b b v v b v N b b b N N v v v ",
"5 @ 5 = 5 = = = w w r n x r r r r r w r x x x g g @ w w 5 r f f f f f 7 f x x v v v b v c N c b b v v n n b N v M N N N n v v x ",
"w x @ w = w = w x x x w v v v x x v v v v b c f b d c m > m x w x B m M v N N b b b A b A b b b N b b b N x b N b N N M N v v x "
};
