/* XPM */
static char *Screenshot_2025_05_20_at_20_31_47_1_png1747766766[] = {
/* columns rows colors chars-per-pixel */
"64 64 237 2 ",
"   c #0E1217",
".  c #131519",
"X  c #151A1C",
"o  c #1A1D1E",
"O  c #111517",
"+  c #0C0F14",
"@  c #1B1E21",
"#  c #151B21",
"$  c #1E2223",
"%  c #232424",
"&  c #2A2A26",
"*  c #242629",
"=  c #252A2B",
"-  c #2B2C2C",
";  c #272927",
":  c #312E2C",
">  c #302F26",
",  c #2D302D",
"<  c #32322E",
"1  c #3C382D",
"2  c #2B2E31",
"3  c #262C32",
"4  c #2D3233",
"5  c #2C353B",
"6  c #333433",
"7  c #393533",
"8  c #3B3A35",
"9  c #333639",
"0  c #353A3B",
"q  c #3B3B3B",
"w  c #373738",
"e  c #332F30",
"r  c #1E201F",
"t  c #433E37",
"y  c #423E3A",
"u  c #3E423F",
"i  c #44423C",
"p  c #4A453D",
"a  c #494638",
"s  c #534F3E",
"d  c #353C41",
"f  c #3A3E42",
"g  c #403F44",
"h  c #3C4244",
"j  c #3C4549",
"k  c #3F4551",
"l  c #434443",
"z  c #494643",
"x  c #464945",
"c  c #4C4A44",
"v  c #43454B",
"b  c #454A4C",
"n  c #4B4C4C",
"m  c #514C43",
"M  c #524E4B",
"N  c #4D504E",
"B  c #5B5443",
"V  c #53524C",
"C  c #59554C",
"Z  c #585647",
"A  c #444D53",
"S  c #4B4D51",
"D  c #474855",
"F  c #4C5154",
"G  c #4C545A",
"H  c #485357",
"J  c #545453",
"K  c #5C5B54",
"L  c #53555B",
"P  c #545A5C",
"I  c #5B5D5B",
"U  c #595757",
"Y  c #645A48",
"T  c #625D56",
"R  c #7F5654",
"E  c #5C615B",
"W  c #6A614D",
"Q  c #656152",
"!  c #64635C",
"~  c #6A685A",
"^  c #766B5A",
"/  c #75705E",
"(  c #4C5A62",
")  c #5B5D63",
"_  c #525A64",
"`  c #4A4961",
"'  c #5C6363",
"]  c #5C646C",
"[  c #56666C",
"{  c #5A6B73",
"}  c #636463",
"|  c #6B6963",
" . c #636669",
".. c #646B6C",
"X. c #6B6C6A",
"o. c #666963",
"O. c #766D66",
"+. c #74736B",
"@. c #787367",
"#. c #656C74",
"$. c #6C7377",
"%. c #737573",
"&. c #797978",
"*. c #6A716E",
"=. c #675C60",
"-. c #857769",
";. c #867E77",
":. c #947B72",
">. c #AC6168",
",. c #816857",
"<. c #87837C",
"1. c #99857B",
"2. c #A1867A",
"3. c #6B7687",
"4. c #777D82",
"5. c #6D7C91",
"6. c #6E7296",
"7. c #D66C81",
"8. c #FF6F94",
"9. c #798387",
"0. c #798695",
"q. c #778C95",
"w. c #7C89A7",
"e. c #868887",
"r. c #998D85",
"t. c #93938D",
"y. c #858B96",
"u. c #999999",
"i. c #889197",
"p. c #A8968C",
"a. c #A69A97",
"s. c #B3969A",
"d. c #B49B98",
"f. c #A38A83",
"g. c #B6A39A",
"h. c #AAA19E",
"j. c #828EA8",
"k. c #8998A9",
"l. c #949BAA",
"z. c #8B97B7",
"x. c #939BB9",
"c. c #95A7BA",
"v. c #8FA2AF",
"b. c #AAA6A5",
"n. c #B6AAA7",
"m. c #BBB3B8",
"M. c #ABAEB6",
"N. c #AA9FA1",
"B. c #F58AB1",
"V. c #C5A9A7",
"C. c #C9B8BA",
"Z. c #D4B9B9",
"A. c #CCB2B0",
"S. c #E2B5BA",
"D. c #F2BDAE",
"F. c #E0B09E",
"G. c #D4C2BB",
"H. c #98A9C5",
"J. c #9DA8D3",
"K. c #9EB2CD",
"L. c #A6AECD",
"P. c #B9B8C3",
"I. c #A3ACD8",
"U. c #A6B6D4",
"Y. c #B3BBD7",
"T. c #A9B7E5",
"R. c #B7BCE7",
"E. c #B7BEF0",
"W. c #8E9FC1",
"Q. c #CBBBC4",
"!. c #DBBEC4",
"~. c #D4BEC5",
"^. c #FDB5D8",
"/. c #FBBBD7",
"(. c #E1BDC3",
"). c #BAC1D6",
"_. c #B8C2EB",
"`. c #BAC7F8",
"'. c #DBC3C4",
"]. c #DBC4CB",
"[. c #D8C5C6",
"{. c #DCC4D3",
"}. c #D9C7D6",
"|. c #CEC4CF",
" X c #E2C5CB",
".X c #E5CACD",
"XX c #E5C3C6",
"oX c #E5CBD4",
"OX c #EBCDD4",
"+X c #E2C7D9",
"@X c #E4CCDB",
"#X c #EACDDC",
"$X c #E3C7D4",
"%X c #F1CED8",
"&X c #EDD1D5",
"*X c #EDD1DA",
"=X c #E4D0DF",
"-X c #F2D4DC",
";X c #F6D6D9",
":X c #F5CCCD",
">X c #C3CBF8",
",X c #CBD4FD",
"<X c #C8D4FB",
"1X c #D4DBFD",
"2X c #DBDEFD",
"3X c #D5D6F9",
"4X c #CDCDE7",
"5X c #E8CEE0",
"6X c #EDD3E3",
"7X c #E7D5E5",
"8X c #F3D4E3",
"9X c #F9D6E4",
"0X c #FBDAE5",
"qX c #F5DAEB",
"wX c #FCDCEC",
"eX c #F7D7EA",
"rX c #FBDDF2",
"tX c #F7DDF4",
"yX c #EFDFF6",
"uX c #DCE3FE",
"iX c #D7E0FE",
"pX c #FEE0EE",
"aX c #E3E5FD",
"sX c #E6EAFE",
"dX c #ECEDFD",
"fX c #E9E9F7",
"gX c #FDE2F4",
"hX c #FDE4FA",
"jX c #FDE9FD",
"kX c #F1EDFE",
"lX c #EFF0FE",
"zX c #F3F4FE",
"xX c #F6F8FE",
"cX c #FCFDFE",
"vX c #F8F7FE",
"bX c #E7E7EF",
"nX c None",
/* pixels */
"nXnXnXnXnXnXnXnXnXnXnXnXnXnXnXnXnXnXnXnXnXnXnXnXnXnXnXnXnXnXnXnXnXnXnXnXnXnXnXnXnXnXnXnXnXnXnXnXnXnXnXnXnXnXnXnXnXnXnXnXnXnXnXnX",
"nXnXnXnXnXnXnXnXnXnXnXnXnXnXnXnXnXnXnXnXnXnXnXnXnXnXnXnXnXnXnXnXnXnXnXnXnXnXnXnXnXnXnXnXnXnXnXnXnXnXnXnXnXnXnXnXnXnXnXnXnXnXnXnX",
"nXnXnXnXnXnXnXnXnXnXnXnXnXnXnXnXnXnXnXnXnXnXnXnXnXnXnXnXnXnXnXnXnXnXnXnXnXnXnXnXnXnXnXnXnXnXnXnXnXnXnXnXnXnXnXnXnXnXnXnXnXnXnXnX",
"nXnXnXnXnXnXnXnXnXnXnXnXnXnXnXnXnXnXnXnXnXnXnXnXnXnXnXnXnXnXnXnXnXnXnXnXnXnXnXnXnXnXnXnXnXnXnXnXnXnXnXnXnXnXnXnXnXnXnXnXnXnXnXnX",
"nXnXnXnXnXnXnXnXnXnXnXnXnXnXnXnXnXnXnXnXnXnXnXnXnXnXnXk.b 7 l c 9.' x { nXnXnXnXnXnXnXnXnXnXnXnXnXnXnXnXnXnXnXnXnXnXnXnXnXnXnXnX",
"nXnXnXnXnXnXnXnXnXnXnXnXnXnXnXnXnXnXnXnXnXnXnXnXnXi.E ~ x u E 0 V J q.N e.%.*.&.nXnXnXnXnXnXnXnXnXnXnXnXnXnXnXnXnXnXnXnXnXnXnXnX",
"nXnXnXnXnXnXnXnXnXnXnXnXnXnXnXnXnXnXnXnXnXnXnXnX} ' h , o.x 4 N J ..c.E  .U T K K nXnXnXnXnXnXnXnXnXnXnXnXnXnXnXnXnXnXnXnXnXnXnX",
"nXnXnXnXnXnXnXnXnXnXnXnXnXnXnXnXnXnXnXnXnXnXnX..P F i ; E G %.E F i.).E V ..} @.J a nXnXnXnXnXnXnXnXnXnXnXnXnXnXnXnXnXnXnXnXnXnX",
"nXnXnXnXnXnXnXnXnXnXnXnXnXnXnXnXnXnXnXnXnXnXq.G i = i u...F l t.u._.+.j %.} o.K c / nXnXnXnXnXnXnXnXnXnXnXnXnXnXnXnXnXnXnXnXnXnX",
"nXnXnXnXnXnXnXnXnXnXnXnXnXnXnXnXnXnXnXnXk.v.[ 0 ~ O.s V &.F P e.k.u.! *.U I 4 V x z E %.nXnXnXnXnXnXnXnXnXnXnXnXnXnXnXnXnXnXnXnX",
"nXnXnXnXnXnXnXnXnXnXnXnXnXnXnXnXnXnXI f j $.<.@.a i x F b n t.t.t.E Z ~ | T +.C K j F $./ nXnXnXnXnXnXnXnXnXnXnXnXnXnXnXnXnXnXnX",
"nXnXnXnXnXnXnXnXnXnXnXnXnXnXnXnXJ h L d = / K C q I ~ &.u.G.Q.Q.n.@.a./ Y O.Y | | V J [ x nX[ nXnXnXnXnXnXnXnXnXnXnXnXnXnXnXnXnX",
"nXnXnXnXnXnXnXnXnXnXnXnXnXnXnX] 9 d 2 X @.s e.} 4.n.C.Q.].].@X{.].7Xa.O.O.T O.;.&.V x G k 4 $.3.nXnXnXnXnXnXnXnXnXnXnXnXnXnXnXnX",
"nXnXnXnXnXnXnXnXnXnXnXnXnXnXnXd { $.d H.B e.T <.h.C.].{.+X*X8X5XoX=X}.d.a.:.;.O.r.~ c G ( = $ , ; - nXnXnXnXnXnXnXnXnXnXnXnXnXnX",
"nXnXnXnXnXnXnXnXnXnXnXnXnXnXh H h A @ K Z -.e.b.Q.{.+X@X6X8X8XrXgXyX~.{.Q.u.a.p.;.<.+.H k k.o o $ 4 nXnXnXnXnXnXnXnXnXnXnXnXnXnX",
"nXnXnXnXnXnXnXnXnXnXnXnXnXO.M v w 0 M B q ;.u.Q.Q.}.6X8X6XeXrXtXhXjXtX7XC.g.a.a.;.t.%.J H [ nXnX3 $ - nXnXnXnXnXnXnXnXnXnXnXnXnX",
"nXnXnXnXnXnXnXnXnXnXnXnXnXJ 0 q 6 $ 8 z x ^ M.C.}.@X6XqXeXrXgXhXhXhXtX{.Z.g.C.a.<.g.+.%.0 ' nXnXh l 0 N nXnXnXnXnXnXnXnXnXnXnXnX",
"nXnXnXnXnXnXnXnXnXnXnXnXI } l 8 6 % % m V Y m.|.=X@X7XqXwXtXtXhXjXjXhXyX].p.p.G..Xg.&.} 0 K nXnXi j l 8 @.nXnXnXnXnXnXnXnXnXnXnX",
"nXnXnXnXnXnXnXnXnXnXnXnX6 4 7 < 2 $ 4 q O.~ |.u.s.m.5XeXqXtXgXtXyXyX|.7X}.|.f.1.A.[.o.E 0 S nXnX& h b I &.nXnXnXnXnXnXnXnXnXnXnX",
"nXnXnXnXnXnXnXnXnXnXnXnX7 % 7 6 $ # t 9 <.Q d.n.s.a.d.+X6XtXtX XZ.N.s.s.s.1.f.g.A.G.t.E 0 n nXnX9 v - 6 & -.nXnXnXnXnXnXnXnXnXnX",
"nXnXnXnXnXnXnXnXnXnXnX~ b 2 7 % @ X t q u.y C.!.OX%X(.!.6XqXwXOX(.OX9XrXwXwXp.r.1..Xt.V Z Z.l.J 0 4 - I z Y nXnXnXnXnXnXnXnXnXnX",
"nXnXnXnXnXnXnXnXnXnXnX/ b 2 e < X $ & z t.b.O.O . . !.Z.@XtXeX(.Z.. . . s.;X8X2.g.;X<.1.Z.F.9.1 = j y  .C p nXnXnXnXnXnXnXnXnXnX",
"nXnXnXnXnXnXnXnXnXnXnXW V % & 2 $ $ 6 p l.P.. cX# 3.O A.{.gXrX!.:.cX. y.O s.0XpXqX:.<.n.S.D.X.- 5 h 7 &.W p nXnXnXnXnXnXnXnXnXnX",
"nXnXnXnXnXnXnXnXnXnXnXs +.- 6 & - # - q m.Q.Q.A.(.hX~.[.}.jXhX#XS.S.A.rX.XwXgXpXpX&X~ n.V.F.q d b 6 8 | ~ a nXnXnXnXnXnXnXnXnXnX",
"nXnXnXnXnXnXnXnXnXnXnXt T e - < % - % r P.~.5X!.!.6X6X~.S.hXhXhX5X+X+X9XrXhXhXgXwX;X;.wXV.Z.9 S S t z C r.T nXnXnXnXnXnXnXnXnXnX",
"nXnXnXnXnXnXnXnXnXnXt < ~ 7 & t ; = 7 X m.5XeXtXtXtX6Xs.qXhXjXjXtXrXrXhXhXhXhXgXwXOXd..XA.o.g _ q X.t Y y.~ nXnXnXnXnXnXnXnXnXnX",
"nXnXnXnXnXnXnXnXnXnX% 8 %.= 8 6 h F % @ m.+XwXrXtXtX5X(.eXhXhXhXtXtXtXhXhXhXhXgX0X'.g.:X;Xc n e i U < p | C nXnXnXnXnXnXnXnXnXnX",
"nXnXnXnXnXnXnXnXnXa % Z M 6 7 w f 9 o X t.!.9XrXtXtX~.+XwXrXrXeXrXrXtXhXhXhXgXpX;XG.;X:X@.- q - - ; % t O.Q nXnXnXnXnXnXnXnXnXnX",
"nXnXnXnXnXnXnXnXnX< Y c x 6 t l 0 = @ o o ~.-XwXtXhXS.+XwXrXeXS.6X9XrXgXjXhXgXwX0Xn.b.Z.; 0 2 : $ % 8 % C ~ nXnXnXnXnXnXnXnXnXnX",
"nXnXnXnXnXnXnXnXm > 8 i x , 8 7 0 3 X X o m.{.qXrX6Xs.s.$XOX,.%XrX#XeXwXrXgXwX0X;Xc.c.k.% 0 w - X & q & y &.nXnXnXnXnXnXnXnXnXnX",
"nXnXnXnXnXnXnXnXZ s > c h 0 l 6 v 2 @ X @ b.m.+XeX+X+Xs.s.@XtXhXhX6X8XwXwXwXwX0X&Xc.0.l.* f 2 2 - % 7 p 7 V nXnXnXnXnXnXnXnXnXnX",
"nXnXnXnXnXnXnXnXQ a | F 0 l 8 q _ d @ @ @ ;.n.Q.#X+X6X+XtX@XhXjXhXtX$XwXwXwX0X0X].v.k.0.9 w 4 - - - l M o.s @.nXnXnXnXnXnXnXnXnX",
"nXnXnXnXnXnXnXnXT Z ! = d l & L S h = X r X b.|.@XrX^.>.7.^.^.^.B.. >.0XrXwX0X;XM.c.i.q.p ; - % - ; A 0 J Q Y nXnXnXnXnXnXnXnXnX",
"nXnXnXnXnXnXnXnXh m a 9 &.0 2 #.9 @ # X o   > n.*X^.>.. cXcXcXcXB.>.#XwXgXwX-X[.M.c.9.[ $ , = % 0 2 v 2 u +.@.nXnXnXnXnXnXnXnXnX",
"nXnXnXnXnXnXnXnXZ a 8 q v 2 3 ) 2 $ @ X X +   t.Q.}.B.7.8.B.B.^./.wXwX0X0X-X X[.K.H.k.9.; = , 4 4 k 5 - X u Y -.nXnXnXnXnXnXnXnX",
"nXnXnXnXnXnXnXnXx i 8 6 w * H ) < 2 = $ X +     u.|.}.C.V.^.^.0XwXgXgXqX-X XC.[.).c.v.6 % = 4 0 $ _ 0 5 j $ Z Y nXnXnXnXnXnXnXnX",
"nXnXnXnXnXnXnXm a 6 1 r = % 4 b 7 0 * @   +   O u m.}.-X8X8XeXrXgXgXpX;X XA..X[.).H.k.> & 2 * S r H 0  .4 = a Z nXnXnXnXnXnXnXnX",
"nXnXnXnXnXnXnXn i - 8 i % 4 2 l v j # $ # X X h H t.C.8X9XwXhXhXgXpX&XG.Z..X&X[.! K.H.u e b q 0 o 3 f 0 f d m B nXnXnXnXnXnXnXnX",
"nXnXnXnXnXnXnXa m 8 - u 6 f } %. .0 $ 3 $ 4 3 ( [ { h.@X8X9XgXpXpX[.g.G.&X&X&X[.W uXK.4.q b 0 L X 0 F 4 q 9 < a nXnXnXnXnXnXnXnX",
"nXnXnXnXnXnXnX1 K x 4 ] b * n l y 6 0 * 0 $ ( ( [ 9.1 r.!.6X-XOXp.g.[.&X&X&XoXG.4XuXK.k.0 y S ) < $ , l 2 = 8 s ! nXnXnXnXnXnXnX",
"nXnXnXnXnXnXnXW n n d S G & = q $ g < & 9 0 { [ { w.i.Y ^ -.:.1.p.G..X&X&X-XOXZ.zXsX`.c.6 m 9 z < X 4 U N u l s } nXnXnXnXnXnXnX",
"nXnXnXnXnXnXa 6 K V l p 9 7 < w % G - S A { { [ 5.k.H.Y ,.-.:.p.A.XX&X&X*X&X.Xd.cXsXuXH.x M l y & $ P P n 8 V Z x nXnXnXnXnXnXnX",
"nXnXnXnXnXnXa a z I p t o 6 7 i % z e d A { { [ 0.z.K.U.,.2.n.V.Z.'..X&X&XOXOX=.xXlXlXq.$ i z g < 9 0 9.u Z E Q : nXnXnXnXnXnXnX",
"nXnXnXnXnXW 8 i ! 7 8 < # @ i : 2 8 * - w.{ [ { w.H.R.,X7Xn.!.!..X XoXOX*XOX'.cXxXlXaX3.% x i 0 ; % , P i ' V ! C nXnXnXnXnXnXnX",
"nXnXnXnXnXs , o.P V p q v = C n 2 : %.] W.T.w.w.H.T.<XuXxXZ.OX-X*X*X*X-X-XoXcXcXxXxXzX_.$ *.w J - $ x x i p u Y.~ 8 nXnXnXnXnXnX",
"nXnXnXnXnX} p K l 0 8 ] A o S z 6 j n U ,X>XT.J.T.`.uXsXlXcX8X-X*X*XOX-X-XkXcXcXcXxXuX<XG ' : x X , = } 8 < r { ..m &.nXnXnXnXnX",
"nXnXnXnXN 7 B V V v 8 q.9.$ ) g h H._ n z.1X<Xx.1X<XdXdXlXxXcXpX0X8X-X&XkXcXcXcXcXxXlX`.$.O.0 S O = l < - i i V q.n V nXnXnXnXnX",
"nXnXnXnXi a c w [ } x w.q.J J v % >X>X8 , sX<X_.iX<XdXlXlXcXcXcXgXwXqXcXcXcXcXcXcXxXuXI.9.) 0 * . % % i < 8 : & U.V U nXnXnXnXnX",
"nXnXnXK x a 8 $ H 8 ] z.5.c M P * 9 _.k.* I.,XzXuX1XdXlXlXxXcXcXcXkXcXcXcXcXcXcXcXcXdXz...' L % r - - 6 o % X.n } V i nXnXnXnXnX",
"nXnXnXZ o.i ; ; 0 $ <X`.5.V z 8 * e 2XaX) 4 aXzX2XsXlXlXlXxXcXcXcXcX2XcXcXcXcXcXcXvX2X9.) &.b 2 $ . = %.X 7 l l z p 8 nXnXnXnXnX",
"nXnXnXm / q , 4 - 2 `.,Xl < 6 $ @ L k.kXE.9 dXzXU.lXlXlXzXzXcXcXcXxXlXvXcXcXcXcXcXcX,Xe.I 4 * 7 $ $ ; 4.% J x x v | n T nXnXnXnX",
"nXnXnXs | 0 , $ 2 >XaX`.l e l o : L k.dXx.S jXcXsXlXxXlXzXxXcXcXlXcXcXzXzXcXcXcXcXzXE.e.S l b q $ 3 $ b l g n _ = i i m nXnXnXnX",
"nXnXnXE -.E h m J.iXaXU.t y z & e ) v aXl 1XcXxXzX`.zXzXzXxXcXcXcXcXcXcX3XvXcXcXcXzX>X&.h j ] n r 9 0 b 6 J n 3.o.h z n nXnXnXnX",
"nXnXnX<.J J X.F sXuX,XU.l p I 2 - y L ) x.zXcXcXzXsXdXxXxXcXvXcXcXcXxXcXkX3XcXcXcXzXR.0...A k 0 = & , F , N F R.q.> I m nXnXnXnX",
"nXnXnX! u o.{ 1XzXzX,X,Xp  .) * 2 S %.$.1XvXcXxXvXdXuXzXxXzXxXcXcXcXcXcXcXaX>XcXvXzX2Xl.L X L 0 $ ; 0.k $ 4 b >Xk.- t nXnXnXnXnX",
"nXnXl.m E J &.sXzXzXuXY.T S S @ 9 L 3.2XaXvXcXcXzXdXcXdXvXcXzXzXvXcXcXcXcXcX3XzXcXjXaXL.) 6 H = ] ; * h ; 4 { <Xj.l y nXnXnXnXnX",
"nXnXp u x G ,XdXdXzXdX`. .' *.4 U c fX1XzXcXcXcXvXkXcXdXcXcXcXfXxXaXdXcXvXcXzXcXcXzXdXaXZ % A f { X 7 9 2 - ] j.0.x J nXnXnXnXnX",
"nXnX8 I d { >XdXzXzXdX`.e.F f 5  .R.zX1XvXcXcXcXxXzXcXcXcXcXcXcXcXcXzXcXcXcXvXcXcXvXzXlXL.S X v E.g - S $ -  .L.y.*.F nXnXnXnXnX",
"nXnX| ..2 T.uXlXzXzXxX_.9.] A f * zXaXzXvXcXcXcXvXzXcXcXcXcXcXcXcXvXcXcXcXzXcXcXcXzXzXdX2Xy 2 S L  .d X f - w z.$.S T nXnXnXnXnX",
"nXnX6 v G E.lX,XvXzXzX_.U 4 0 R.] xX1XxXcXvXcXvXzXzXcXcXvXcXcXcXcXcXcXcXcXlXcXcXcXzXzXdXaX2 - @ % v 4 X 9 e v H y.g L.nXnXnXnXnX",
"nXnXN G L >XdXkX3XvXkXx._ _ 6 E.v.aXsXvXxXcXcXcXvXzXcXcXxXvXcXxXcXcXcXcXcXzXcXcXcXzXkXaXaX) - 2 o X @ o % 7 >X0 &.6 R.nXnXnXnXnX",
"nXnXs b M.>X,XzXzXaX3Xz >X0.) >X1X3XvXcXxXcXxXcXvXzXcXcXcXvXcXcXcXcXcXcXcXzXcXcXvXzXzXdXI.4.- j.@ @ X o % 0 <XY...x 2XnXnXnXnXnX",
"nXnXnXk l.aXaX2XzXzXU.y 1XI sXaX`.6.zXcXxXxXcXxXxXzXcXcXcXxXcXcXcXcXcXcXxXcXvXcXvXzXkXR.Q.9 I.v * % _ o q r 6.1X%.S sXU.nXnXnXnX",
"nXnXnXn X.aXsXdXsX1XR._ z.$.sXdX1XzXzXbXxXxXxXcXvXvXcXcXvXvXcXcXcXcXxXcXcXcXcXvXvXkXR.y.y ` >Xe % 9 - % % : g 2XJ : ` 2XnXnXnXnX"
};
