/* XPM */
static char *starry_1_png_12_1747937541[] = {
/* columns rows colors chars-per-pixel */
"64 64 237 2 ",
"   c black",
".  c #1D191B",
"X  c #251517",
"o  c #251C1C",
"O  c #2C1E1E",
"+  c #311D1C",
"@  c #2D211E",
"#  c #32211D",
"$  c #3A251E",
"%  c #1F1A20",
"&  c #281E21",
"*  c #2C2224",
"=  c #282528",
"-  c #2C252A",
";  c #342424",
":  c #3A2623",
">  c #342826",
",  c #3C2A25",
"<  c #322629",
"1  c #3A2729",
"2  c #352B2B",
"3  c #3C2C2B",
"4  c #3E312E",
"5  c #292732",
"6  c #362C36",
"7  c #3B2E31",
"8  c #3A3337",
"9  c #3B353A",
"0  c #482A27",
"q  c #432D2A",
"w  c #522E2C",
"e  c #45322D",
"r  c #4B332D",
"t  c #53322D",
"y  c #5D352A",
"u  c #442D30",
"i  c #443433",
"p  c #4C3533",
"a  c #43353A",
"s  c #44393D",
"d  c #4A3938",
"f  c #4D3B3B",
"g  c #553533",
"h  c #533A33",
"j  c #5B3B34",
"k  c #543C3B",
"l  c #5A3D3B",
"z  c #623D35",
"x  c #623E3B",
"c  c #5B4137",
"v  c #52413C",
"b  c #5B423D",
"n  c #66453B",
"m  c #64433F",
"M  c #6B433B",
"N  c #6E4B3D",
"B  c #303241",
"V  c #463D45",
"C  c #533E42",
"Z  c #693943",
"A  c #494348",
"S  c #5D4444",
"D  c #564648",
"F  c #5B4C4B",
"G  c #5E5C4E",
"H  c #4C4855",
"J  c #594B54",
"K  c #5B535B",
"L  c #634542",
"P  c #654944",
"I  c #6C4944",
"U  c #694649",
"Y  c #644A4D",
"T  c #6B4C4B",
"R  c #734B44",
"E  c #734846",
"W  c #7A4D43",
"Q  c #69514B",
"!  c #6B534D",
"~  c #74534B",
"^  c #7B5448",
"/  c #7A524C",
"(  c #644E53",
")  c #704D58",
"_  c #6E5354",
"`  c #68575B",
"'  c #735453",
"]  c #795A58",
"[  c #75615E",
"{  c #5A5B69",
"}  c #675C62",
"|  c #785B62",
" . c #625D70",
".. c #5E606E",
"X. c #6A656C",
"o. c #786669",
"O. c #706E77",
"+. c #7A6A76",
"@. c #844E4B",
"#. c #865B57",
"$. c #8A5B54",
"%. c #925D5C",
"&. c #8A625E",
"*. c #876767",
"=. c #976869",
"-. c #8E716B",
";. c #96756C",
":. c #996C73",
">. c #997777",
",. c #A16A75",
"<. c #A37573",
"1. c #A47B7A",
"2. c #5BFF6D",
"3. c #94816E",
"4. c #9B8473",
"5. c #9A8A7E",
"6. c #A5887B",
"7. c #A3907D",
"8. c #7E7A86",
"9. c #717692",
"0. c #8F6E81",
"q. c #857886",
"w. c #997C87",
"e. c #A27A83",
"r. c #EC6084",
"t. c #ED7BAB",
"y. c #E43FFF",
"u. c #F370C7",
"i. c #7C829C",
"p. c #9C8785",
"a. c #9E968B",
"s. c #A98989",
"d. c #B58E8E",
"f. c #A89486",
"g. c #A18696",
"h. c #A79796",
"j. c #B79B98",
"k. c #AEA49C",
"l. c #B9A399",
"z. c #9394AB",
"x. c #999BB9",
"c. c #A997A5",
"v. c #B79BA7",
"b. c #BC9DA0",
"n. c #AF9FB5",
"m. c #BBA5A8",
"M. c #B3A8B3",
"N. c #CE8CA9",
"B. c #EF87B3",
"V. c #F38FB2",
"C. c #C6A9A6",
"Z. c #D5ACAE",
"A. c #CEB3AC",
"S. c #C8ABB5",
"D. c #C8B5B8",
"F. c #D6B9B8",
"G. c #D4BBBD",
"H. c #E8A9A6",
"J. c #DAC0BB",
"K. c #E0C0B9",
"L. c #AF8DD3",
"P. c #9EA5CE",
"I. c #A9ABCF",
"U. c #B6A9C3",
"Y. c #B7B9DA",
"T. c #B691F6",
"R. c #D396DE",
"E. c #EE93C9",
"W. c #C8BBC5",
"Q. c #D5BAC3",
"!. c #D9BBC6",
"~. c #CBAED1",
"^. c #EEAFC9",
"/. c #CD99EA",
"(. c #FB8CE8",
"). c #F392F2",
"_. c #FE9AFF",
"`. c #CFB0F4",
"'. c #F3AEED",
"]. c #BAC2DB",
"[. c #B9C0E2",
"{. c #DBC4CC",
"}. c #CCC5DA",
"|. c #D4CED6",
" X c #DAC8D6",
".X c #E6C7CA",
"XX c #EAC6D3",
"oX c #E4C9D5",
"OX c #E9CDD5",
"+X c #E4CCDC",
"@X c #EBCEDB",
"#X c #EBD1D7",
"$X c #ECD2DC",
"%X c #F5D1D4",
"&X c #F2D2DC",
"*X c #C8C8E5",
"=X c #D1CEE6",
"-X c #CFD6E3",
";X c #CBD0EB",
":X c #D3D3E5",
">X c #D8D6EA",
",X c #DDDBEB",
"<X c #DDDDF1",
"1X c #EBCFE2",
"2X c #F7CFE3",
"3X c #EED3E2",
"4X c #E5D9E8",
"5X c #F4D5E3",
"6X c #F6D6E6",
"7X c #F5D9E5",
"8X c #F9D9E4",
"9X c #F5DBE9",
"0X c #FADCEB",
"qX c #EBD9F1",
"wX c #DFE1EE",
"eX c #D7E1F2",
"rX c #DCE3F2",
"tX c #E3E1ED",
"yX c #E9E4EE",
"uX c #F7E1ED",
"iX c #FAE2ED",
"pX c #E4E5F3",
"aX c #EAE7F3",
"sX c #E7E9F4",
"dX c #EBEBF5",
"fX c #EDEEF8",
"gX c #F1EDF6",
"hX c #F9E8F3",
"jX c #F1EEF9",
"kX c #EFF1F7",
"lX c #EFF0F9",
"zX c #EEFFFF",
"xX c #F1F2F6",
"cX c #F5F5FA",
"vX c #F8F6FC",
"bX c #F6F8FB",
"nX c #FCFCFD",
/* pixels */
"                                  1./ #.*.>.                                                                                    ",
"                              $.#.,.W ] o.{ O.X.Q -.=.                                                                          ",
"                          ~ R W z o.l ) ` J K X.` T ~ ;.,.                                                                      ",
"        -X              ~ R j e ' / k V F ( D ( ( S L ^ / v.                                                                    ",
"        '.              h h P #.I l k S C p S T f T l z #.$.                                          y.                        ",
"                      j r R w.&.n &.T l m L I L k S x *.E ;.=.                                                R./.              ",
"                    *.0 R *.=./ ;.E L R ^ &.#.M j E I P &./ ,.g.                                              T.zXT.            ",
"                T.L.C y ) w.=.:.s.-.E =.%.=.d.E M ~ M E *.%.T &.                                                T.              ",
"                T.A P q ' w.:.d.g.j.#.1.,.e.v./ E %.@.#.) 0.#.W ^.                                                              ",
"                  f j r R -.#.m.| v.c.v.S.N.v.@.@.=.e.>.0.q.-.W '                 V.                                            ",
"                  ` * n z N ;.;.j./ =.N.!.S.S.w.%.e.e.w.e.| ] z &.              B.r.V.            '.                            ",
"                o.v l j R z 6.&.Q.N <.v.+Xb.=.#.*.,.>.s.-.] ] t $.                u.              _.                            ",
"                j.7 p 0 *.>.h Q.~.N C.d.8X!.=.6.x %.6.=.R I j j %.                                                              ",
"                6.s y o.Q k #.6.s.x S.j.2X^.e.C.x <.1.N M N ~ I '                                                               ",
"                m.Q k k.s.!.F.OXF.C.F.F.5X.Xj.m.l I j.z R R M v ]                                                               ",
"                G.*.` D.G.!.Z.F.@XXX{.&X8X&XoXG.j.' / $.~ M N D X.                                                              ",
"                7XY h.W.+Xs.O.Q 5  X+X@X6X5X.X{.XX@X&XF.~ L y D #X                                                              ",
"                h.f.M.+X3X7XS.M.h.|.OX@X0X6XoX!.B B S.@Xj.m j o.H.            _.                                                ",
"              o.F [ W.1X6X0X9X9X3X3X6X6XuX6X@X;X9 8.o.j.3X' m h.                                                ^._.            ",
"          q k X.= -.}.3X6XuXiXiX9XuX9X0XiX0X0X XQ.XX@X6X9XS.=.%X  ).'.                                          E.              ",
"        2 f 3 K 9 . ].@X7X9XhXiXhXiX5XiXiXiXiXiX9X9X0X0X0XoXC.                                                                  ",
"      > i < = s 8 = }.#X6X0XuXuX0X2X&XhXiX0XiXiXuXuX9X0X7Xc.J.                          E.'.(.                                  ",
"    b 9 > - H * 6 2 M.1X6X0X0XXX&X&X&XhXiX0X0X0XiXiXuX0X9XG.N $.                                                                ",
"    A 4 = * = 9 A V +. X$X2XoX3X5XC.s.&XXX0X&X5X0X9X0X0X3Xe @ r :.                                                              ",
"    v 3 - - 2 H F 9 2  X1X+XD.OX5X5X7Xm.&X&X7X#X&X0X0X7X3 9 = e N 1.                                                            ",
"  v > & = * = V V 8 o  X$X8X&Xq d.t.V.^.2X6X7X#XS.&X3X1X@ 9 . A X.]                                 0X                          ",
"  > e % < < d 5 6 @ 6 a. X7X$XB.^.8X7XXXC.j.X <..XOX1X= * d A = A , @.                                                          ",
"  8 i < - ; 5 % = <X;Xh.W.+X&XoXt.V.E.^.V.B.^.&X&X+X X& 8 A ..= A * e                                                           ",
"  v 3 2 - 8 - % ].,Xi.k.5.|.3X7X.XB.V.V.E.%X&X&XOX{.@ o 3 e v v = 2 v                                                           ",
"    4 7 ; & 8 a rXO.9.m.7.5. X9X8X%X@X&X7X8XuX#XD.v o o , e r X.9 @ ,       _.                                                  ",
"    i 7 3 D 7 sXsXpXp.F.C.3.{.|.0XiX0XiXiXiX#XU.@ i . o @ 3 r ` q., r                                         %X                ",
"    > f a S -XcXsXnXf.J.J.7.;.J.&X0X0X0X&X.Xf.*X@ { @ . 3 e r v +.v F                                                           ",
"  f ( +.].xXcXvXdXbX$XK..XA.4.;.6.D.#XOXk.f.3.>Xo K ; & 2 $ r r Q +.|                                                           ",
"  { lXvXnXvXcXbXlXnXnX!.%XK.C.4.-.3.5.7.f.7.N dX* 1 C w @ 2 r $ n ` p.                                                          ",
"cXxXxXbXnXvXbXvXlXnXnXnXoX.XF.l.7.3.4.7.f.7.F dX*Xk S r q , q $ Q c                         ^.`.                                ",
"vXbXnXnXnXnXvXbXnXnXnXnXnX|..XF.l.j.j.l.l.7.bXyXpXC p e ' _ +.L [ Q                                                             ",
"bXnXvXvXbXbXnXvXnXnXnXnXnXnXnXJ.A.C.C.C.j.d.nXxXpX[.p Y *.K H } [ ! ,X                                                          ",
"nXnXbXnXnXnXvXnXnXnXnXnXnXnXnXnXA.A.C.C.l.nXnXbXpX4X_ k J +.C k G ] _ fXxX                                                      ",
"nXnXnXnXnXnXnXxXnXnXnXnXnXnXnXnXnXF.A.F.jXnXnXxX,XaXY.C +.K i * < F +.g.qXcX                                                    ",
"nXnXnXnXnXnXnXnXnXnXnXnXnXnXnXnXnXnX.XnXnXnXnXkXfXjXiXU D K d 8 : 2 } M.n.vXcX                                                  ",
"nXnXnXnXnXnXnXnXnXnXnXnXnXnXnXnXnXnXxXcX>XnXbXxXvXxXjXn.` } u * o 3 9 c U.c.jXjX                                                ",
"nXnXnXnXnXnXnXnXnXtXnXnXnXnXnXnXnXtXnXnXgX}.bXxXvXxXxX~.U V u < & * O ; v.<XjXxX                          (.H.                  ",
"nXnXbXnXnXnXnXnXnXbXnXnXnXnXnXnXnXnXnXbXkXpX~.bXcXcXvX>XU O.V & < & 2 : o.v.xXxX        /.                '.`.                  ",
"vXvXbXnXnXnXnXnXnXbXnXnXnXnXnXnXbXnXdXxXcXcX,X].vXvXhXqX_ } 8.a * * > > q | jXxXxX                        u.T.                  ",
"nXbXnXnXnXnXnXnXnXnXvXnXnXnXnXcXnXnXnXvXcXvXbX:X:XvXgXcXT J q.H 6 * ; O 0 >X4XdXcX                                              ",
"nXvXnXnXbXnXnXnXnXnXvXnX,XnXnXfXxXbXnXvXvXnXvXvXgXgXvXgXz k P { K ; > $ r yXyXfXjX                                              ",
"bXnXnXnXnXnXbXnXnXnXvXnXvXvXtXnXnXnXnXvXvXnXvXvXxXvXgXgXt p j X.{ s 2 > w.4XyXfXfX                                              ",
"nXvXbXvXnXnXnXnXnXvXvXnXnXvXnXnXnXnXnXvXvXbXvXvXvXvXvXcXz r g } X...s ; yXsXsXdXlXsX                                  '.        ",
"bXnXvXnXnXnXvXnXnXnXbXnXnXbXnXnXnXnXnXnXvXvXvXvXvXgXvXvXg q w J d V } l dXfXdXdXsXdX                                  _.        ",
"nXxXvXcXvXnXvXnXnXbXnXnXnXvXnXnXnXnXnXvXvXvXbXcXcXcXgX+.0 0 w 1 3 f | +.aXtXyXfXsXfX                                            ",
"cXvXcXnXvXvXvXvXnXnXnXbXnXnXbXvXnXnXnXnXvXvXvXbXgXvXgX*.1 0 w ; 0 p R sXaX,XpXaXsXsX                                            ",
"cXnXcXvXvXvXvXvXvXvXcXbXvXvXvXnXnXnXnXvXvXvXvXcXxXjXaXw & z $ 0 p p j }.pXtXsXwXsXsXsX                                          ",
"vXvXvXcXvXvXvXvXbXnXvXvXvXnXvXvXnXnXnXvXcXcXcXcXvXfXjX0 : X 0 j p a k =XpXpX=XyXsXpXsX                                          ",
"cXnXvXvXvXxXvXvXcXbXnXvXvXvXvXvXnXnXnXvXcXcXcXxXjXjX}.w 0 + 0 y m k >.:XpX<XpXsXpXsXsX                                          ",
"xXvXvXvXxXxXvXvXvXbXbXvXvXvXvXcXnXnXnXvXcXvXxXxXvXjX~._ C + w x Y A i } >X4XpXsXsXpXpXpX                '.E.`.                  ",
"xXvXvXxXvXvXxXcXcXcXbXvXvXvXvXvXnXnXnXbXcXcXxXxXjXsX~.T +.p l g U ` & t 0.<XsXsXrXpXpXrX                  `.u.                  ",
"dXlXcXcXvXbXcXcXcXcXcXvXcXcXvXcXnXnXnXbXcXcXxXxXgXfX<XU Y.p t | } +.o f S T pXpXpXrXpXrX                                        ",
"sXsXkXcXxXcXxXxXxXcXbXcXvXvXbXxXnXvXbXbXlXlXxXkXxXaX<XR =X+.g u u q $ O : h q.}.wXpXeXpXeX                                      ",
"dXpXfXbXxXvXcXxXxXxXxXcXcXcXcXkXcXvXnXvXlXlXlXlXjXaXfXZ U.P.( } L e , ` 1 & & z.wXrXrXrXsX      '.                              ",
"dXpXsXfXxXxXxXxXkXkXxXxXcXxXxXcXcXnXnXnXkXxXkXkXfXdXaX=XU.=Xx.u Y q $ $ q.x.U.J ;XrXrXfXpXrX                      2.            ",
"sXfXpXsXdXxXxXcXxXxXfXkXxXxXxXbXcXvXnXvXxXlXfXfXfXdXfXpXw.;XY.S # + # & 5 z.z. .*XfXsXfXpXrX                                    ",
"sXsXpXpXsXsXfXxXlXkXfXfXcXkXcXxXxXnXbXbXxXlXfXfXfXdXfXdXlXx.=Xx., j : X H P.x.I.-XfXrXrXrXpX                                    ",
"sXpXdXpXsXsXdXdXfXxXdXfXsXkXkXkXxXvXbXbXfXlXfXfXsXsXsXdXlXrXP.I.q 3 , o x.[.*X[.>XrXsXsX                                        ",
"rXsXpXpXyXsXsXdXyXpXkXdXsXpXfXkXjXcXcXcXsXfXfXsXsXsXpXsXdXsX;XP.; # o & [.;X;X;XeXeXc.                                          "
};
