/* XPM */
static char *starry_1_png_14_1747937692[] = {
/* columns rows colors chars-per-pixel */
"64 64 223 2 ",
"   c black",
".  c #1C191C",
"X  c #251B1C",
"o  c #2C1E1E",
"O  c #251517",
"+  c #321D1B",
"@  c #2D211E",
"#  c #32211D",
"$  c #3A251E",
"%  c #2A1E21",
"&  c #2C2223",
"*  c #2A242A",
"=  c #342423",
"-  c #3A2623",
";  c #362926",
":  c #3C2A25",
">  c #3C2C2A",
",  c #36282A",
"<  c #392C34",
"1  c #3D3539",
"2  c #432C2A",
"3  c #492A28",
"4  c #45322C",
"5  c #4B342D",
"6  c #53332D",
"7  c #5C342D",
"8  c #443432",
"9  c #4C3634",
"0  c #48393A",
"q  c #533433",
"w  c #5B3A34",
"e  c #543B3B",
"r  c #5B3D3B",
"t  c #553832",
"y  c #4D2C2F",
"u  c #623D38",
"i  c #52413C",
"p  c #5C413B",
"a  c #64433F",
"s  c #6B433B",
"d  c #6A493E",
"f  c #6C4D3D",
"g  c #303241",
"h  c #473E45",
"j  c #533E42",
"k  c #693943",
"l  c #4A4348",
"z  c #5D4443",
"x  c #5A4A4B",
"c  c #564647",
"v  c #4B4657",
"b  c #5A4B55",
"n  c #5D535A",
"m  c #5B545A",
"M  c #634543",
"N  c #644B4D",
"B  c #6B4C4B",
"V  c #694846",
"C  c #734B44",
"Z  c #764A46",
"A  c #6A524C",
"S  c #7A524B",
"D  c #76544A",
"F  c #644E53",
"G  c #6E5353",
"H  c #67565B",
"J  c #735452",
"K  c #795957",
"L  c #704D58",
"P  c #76615E",
"I  c #5D5B68",
"U  c #6A5E63",
"Y  c #645A62",
"T  c #6E5A68",
"R  c #5E606E",
"E  c #69656C",
"W  c #786768",
"Q  c #7B6A77",
"!  c #7A727B",
"~  c #696C73",
"^  c #8A5B55",
"/  c #865B57",
"(  c #925D5C",
")  c #864D4B",
"_  c #8A625E",
"`  c #886469",
"'  c #976867",
"]  c #9A736D",
"[  c #9B6C71",
"{  c #987579",
"}  c #A47B7A",
"|  c #A27671",
" . c #A16A75",
".. c #4CFD5F",
"X. c #5BFF6D",
"o. c #A7867C",
"O. c #A3907D",
"+. c #92836E",
"@. c #7E7A86",
"#. c #857886",
"$. c #987B88",
"%. c #8F6E81",
"&. c #A27A83",
"*. c #FE5E82",
"=. c #EC6084",
"-. c #F176B6",
";. c #E43FFF",
":. c #F775CB",
">. c #EC6BC2",
",. c #6EB7FD",
"<. c #79C7FF",
"1. c #968087",
"2. c #B38789",
"3. c #A99587",
"4. c #A08898",
"5. c #A99B98",
"6. c #B99A99",
"7. c #AE8F87",
"8. c #B7A197",
"9. c #9593A5",
"0. c #999BB9",
"q. c #8F97B8",
"w. c #B99AA5",
"e. c #AB9CAE",
"r. c #BBA2AB",
"t. c #B2A5BD",
"y. c #FB979A",
"u. c #DBAE9C",
"i. c #CE8CA9",
"p. c #F28DB4",
"a. c #C8A6A6",
"s. c #C7AAB6",
"d. c #D5BCBC",
"f. c #CAAEB4",
"g. c #F9C69F",
"h. c #9EA2CA",
"j. c #9FABD5",
"k. c #A8A7C6",
"l. c #B6A9C3",
"z. c #A4AED5",
"x. c #B7B9DA",
"c. c #B8AFD4",
"v. c #9385F3",
"b. c #BB99ED",
"n. c #BC86F6",
"m. c #B69BF7",
"M. c #A494F0",
"N. c #A4AAF8",
"B. c #B083CA",
"V. c #D096C2",
"C. c #D89AD7",
"Z. c #C883CB",
"A. c #F093CB",
"S. c #DCBCC6",
"D. c #CEB0D5",
"F. c #E7ACC8",
"G. c #E7BCC8",
"H. c #FBACD6",
"J. c #F3B1D3",
"K. c #C999FC",
"L. c #DB94F7",
"P. c #D08DEB",
"I. c #FB8CE8",
"U. c #FA9EE7",
"Y. c #FA8CFF",
"T. c #FC99FD",
"R. c #EF8EF2",
"E. c #D3A8FD",
"W. c #CEB4F1",
"Q. c #F5A3EF",
"!. c #F2AEF1",
"~. c #B2C2E6",
"^. c #BEFFFF",
"/. c #D8C4C9",
"(. c #CCC6DD",
"). c #D9C6D6",
"_. c #E4C6CC",
"`. c #E5C9D5",
"'. c #E8CCD8",
"]. c #F4CAD7",
"[. c #ECD2DB",
"{. c #EBD1D7",
"}. c #F2D2DB",
"|. c #FFD7CF",
" X c #C8C8E5",
".X c #D1CEE5",
"XX c #CBD0EB",
"oX c #D3D3E5",
"OX c #DDDBEB",
"+X c #D7D6EB",
"@X c #DDDFF1",
"#X c #EED4E1",
"$X c #E6D8E7",
"%X c #F5D6E3",
"&X c #F9D9E4",
"*X c #F5D9E8",
"=X c #FBDCEB",
"-X c #F6D9E6",
";X c #F4D4EC",
":X c #DCE3F2",
">X c #D7E1F2",
",X c #DFE1EE",
"<X c #E3E2EE",
"1X c #E9E2ED",
"2X c #FAE3ED",
"3X c #F7E1ED",
"4X c #E4E5F3",
"5X c #EAE7F3",
"6X c #E6E9F4",
"7X c #EBEBF5",
"8X c #EDEEF8",
"9X c #F1EDF6",
"0X c #F1EEF9",
"qX c #F4EBF5",
"wX c #EFF1F7",
"eX c #EFF0F9",
"rX c #EEFFFF",
"tX c #F1F2F6",
"yX c #F5F4FA",
"uX c #F8F6FB",
"iX c #FBFBFD",
"pX c #F6F8FA",
"aX c None",
/* pixels */
"` {                                                                                                                             ",
"W H ~ ~ F ' '                                                                                                                   ",
"U x H E H A D ] [                                                                                                               ",
"x F x b F z a S K 6.                                                                                                            ",
"e 0 M A 9 B p u / ^                                   Q.Q.                                            ;.                        ",
"a M V M 9 z p _ C ] '                                                                                         P.P.              ",
"D _ _ s r Z V N _ S | 4.                                                                                      P.rXn.            ",
"( ' 7.C s S s Z ` / B (                   T.                                                                    m.              ",
" .&.6.Z Z ^ ) / L #._ Z                 L.R.D.                ).J.                                                              ",
"s.w.a./ ) [ &.{ $.%.` Z K               Q.Y.K.                                    y.                                            ",
"S.s.s.%.' } &.$.$.K K u `   aX                                                  i.=.:.            !.                            ",
"J.w.[ ^ `  .] 7.` / K 6 ^                                                         :.              T.                            ",
"*XS.' &.u ^ o.] C V w w (                       ..                                                                              ",
"%XS.&.a.s | } s s V D B D                                                                                                       ",
"}./.6.a.r V 6.s f f s i K                                                                                                       ",
"&X%X_.S.6.G D / S s s c ~                                                                                                       ",
"&X%X)._.`.#X[.d.J a 6 c _.      aX                                                                                              ",
"=X%X'.S.< g a.[.8.a u W u.                                                    T.                                                ",
"2X*X].XXg @.W w.[.J a 8.                                                                                        F.T.            ",
"2X=X*X).d.].'.%X%Xf.' }.                                          Y.!.                                          A.              ",
"2X2X2X2X;X*X=X=X&X).a.                                                                                                          ",
"2X=X3X2X=X3X=X=X-Xe.d.                        -.                                        C.Q.I.                                  ",
"2X=X-X=X2X3X=X=X-Xd.V ^ aXK.                  >.                                                                                ",
"{.=X#X%X=X=X=X=X#X4 @ 6 ]                                                                                                       ",
"}.}.%X].}.=X=X;X, 1 & 4 f |                                                                                                     ",
"%X&X-X{.f.#X#X#X% 1 . h E P                                                                         ;X                          ",
"a.6.O [ _.`.[.* * 0 l * l ; S                                                                                                   ",
"p.-.G.}.{.[.).& > l R * l ; 5                                                                                                   ",
"p.[.-X{.{./.@ . 4 4 i i * , i                                                                                                   ",
"&X=X-X$Xd.i . @ > > 4 E 1 @ >                             W.                T.                                                  ",
"=X&X{.f.@ 8 . X # > 5 U @.: 0                           :.<.,.                                                |.                ",
"&X).3. X. R @ O > 4 5 i W i z                           N.B.>.                                                                  ",
"8.3.+.+X% n = o : # 4 5 m { W                                                                                                   ",
"3.O.f 7X& , j q @ $ i : z N 1.                                                                                                  ",
"3.O.x 7X X9 j 6 4 ; 5 $ A 5                                                                 D.W.                                ",
"8.O.uX4X6Xj 9 2 J G W p P A                 L.                                                                                  ",
"8.7.iXtX5Xx.9 N Q F l E P A OX                                                                                                  ",
"8.iXiXuX@X1XG j b ! c t F P A 7XtX                                                                                              ",
"0XiXiXuX+X5Xc.M W n 1 @ * x ` 4.1XyX                                  g.                                                        ",
"iXiXiXtX8X0XqXN x n 0 < ; , E t.e.iXyX                              -.*.H.                                                      ",
"+XiXiXwXpX0X0Xe.L Y < = X > > i l.e.yX0X                            :.-.V.                                                      ",
"tX XpXtXuXyXyXD.M j < = & & @ = w.+X8XeX          E.                                                      R.y.                  ",
"9X1XD.pXuXyXpX+XM ~ h = , % , = W r.qXyX          M.M.                                  L.                Q.W.                  ",
"pXyX>Xx.yXyX0X5XG U @.1 * & ; ; 2 T qX0XtX      L.N.n.                                                    A.K.                  ",
"pXpXpXoXoXuXqX0XB F #.v < & = # $ OX$X7XyX                                                                                      ",
"uXiXiXuX0X8XuXqXr e N I m & = = 6 5X5X0X8X                                                                                      ",
"uXuXuXiXyXuXyX9Xq 5 t E R 1 ; = $.OX5X7X8X                                                                                      ",
"uXuXuXuXuXuXuXqXu 5 t U E ~ 0 # 5X7X5X7XeX7X                                                                          H.        ",
"iXpXuXpXyX0XyXuXq 3 6 c 9 h Y j 7X7X5X7X5X7X                              T.                                          I.        ",
"uXuXuXuXyXyX9XQ , y y 2 2 e K Q 6X<X5X8X6X6X                                                                                    ",
"yXiXiXyX0XpXqX` - 3 6 - 3 9 Z 4X7X$X4X7X7X6X                                                                                    ",
"uXyXuXtXtX9X5Xq % u + 3 9 9 w  X4X<X5XOX4X7X6X                                    ].H.                                          ",
"yXuXyXpXyX7X5Xy = + 3 7 8 0 e .X@X5XoX4X6X4X6X                C.                                                                ",
"yXpXpXtXyX0X).6 - # 3 7 a e %.oX4X@X4X6X@X6X6X              ).J.D.                                                              ",
"yXuX0XtXtX8Xl.L j + y u F l 8 H oX$X@X6X6X6X6X6X            ^.!.Y.                                      Q.A.E.                  ",
"yXuXtXtXtX8XD.L ! q e q N H o t %.4X5X4X4X4X4X:X                                                          E.I.                  ",
"tXtXyXtX8X8XOXN x.9 q K U ! X 0 c V 1X4X@X4X4X:X                              V.                                                ",
"tXtXwXtXtX8X$XZ XX` t < 2 2 $ o : e #. X@X4X>X4X:X                          m.,.~.                                              ",
"eXeX8X8X8X6X8Xk c.h.N T M 5 - H ; # & 9.OX@X6X:X4X                          m.m.E.              !.                              ",
"tXtXeXtX8X7X5X.Xt. X0.6 V 2 - $ @.0.l.v XX@X:X8X:X:X                          D.                                  X.            ",
"tXeX8X7X8X7X8X4X$..Xx.N @ + # @ < q.9.R  X8X6X6X4X:X                                                                            ",
"yX8XeXeX8X6X8X6X8X0..Xq.: p $ O v j.0.k.XX8X:X4X:X>X                                                                            ",
"8XeX8XeX6X6X8X4X8X4Xh.j.2 : : X 0.~.(.~.+X:X:X6X                                                                                ",
"6X8X8X6X6X6X4X4X8X:X+Xj.= # X @ x.XXXXXX>X:Xe.                                                                                  "
};
