/* XPM */
static char *starry_1_png_11_1747937464[] = {
/* columns rows colors chars-per-pixel */
"64 64 234 2 ",
"   c black",
".  c #1D191B",
"X  c #251C1C",
"o  c #2C1E1E",
"O  c #251517",
"+  c #311D1C",
"@  c #2D211E",
"#  c #32211D",
"$  c #3A251E",
"%  c #1F1A20",
"&  c #281E21",
"*  c #2C2224",
"=  c #2C252A",
"-  c #282528",
";  c #342424",
":  c #342826",
">  c #3C2A25",
",  c #322629",
"<  c #352B2B",
"1  c #3C2C2B",
"2  c #3A2624",
"3  c #292732",
"4  c #3B2E31",
"5  c #362C36",
"6  c #3B353A",
"7  c #3A3337",
"8  c #3E312E",
"9  c #432D2A",
"0  c #482A27",
"q  c #45322D",
"w  c #4B332D",
"e  c #53322D",
"r  c #5D352A",
"t  c #442D30",
"y  c #443433",
"u  c #4C3533",
"i  c #43353A",
"p  c #44393D",
"a  c #4D3B3B",
"s  c #4A3938",
"d  c #533A33",
"f  c #5B3B34",
"g  c #543C3B",
"h  c #5A3D3B",
"j  c #553533",
"k  c #522E2C",
"l  c #623D35",
"z  c #623E3B",
"x  c #52413C",
"c  c #5B423D",
"v  c #5B4137",
"b  c #64433F",
"n  c #6B433B",
"m  c #66453B",
"M  c #6E4B3D",
"N  c #303241",
"B  c #463D45",
"V  c #533E42",
"C  c #693943",
"Z  c #494348",
"A  c #5D4444",
"S  c #5B4C4B",
"D  c #564648",
"F  c #4C4855",
"G  c #594B54",
"H  c #5B535B",
"J  c #5E5C4E",
"K  c #634542",
"L  c #654944",
"P  c #6C4944",
"I  c #644A4D",
"U  c #6B4C4B",
"Y  c #694649",
"T  c #734B44",
"R  c #7A4D43",
"E  c #734846",
"W  c #6A524C",
"Q  c #74534B",
"!  c #7A524C",
"~  c #7B5448",
"^  c #644E53",
"/  c #6E5354",
"(  c #68575B",
")  c #735453",
"_  c #795A58",
"`  c #704D58",
"'  c #75615E",
"]  c #5A5B69",
"[  c #675C62",
"{  c #785B62",
"}  c #625D70",
"|  c #6A656C",
" . c #786669",
".. c #7A6A76",
"X. c #706E77",
"o. c #5E606E",
"O. c #844E4B",
"+. c #8A5B54",
"@. c #865B57",
"#. c #925D5C",
"$. c #8A625E",
"%. c #92645F",
"&. c #876767",
"*. c #976869",
"=. c #96756C",
"-. c #996C73",
";. c #997777",
":. c #8E716B",
">. c #A47B7A",
",. c #A37573",
"<. c #A16A75",
"1. c #39FD4B",
"2. c #5BFF6D",
"3. c #94816E",
"4. c #9B8473",
"5. c #9A8A7E",
"6. c #A5887B",
"7. c #A3907D",
"8. c #7E7A86",
"9. c #717692",
"0. c #857886",
"q. c #997C87",
"w. c #8F6E81",
"e. c #A27A83",
"r. c #ED7BAB",
"t. c #E43FFF",
"y. c #7C829C",
"u. c #9C8785",
"i. c #9E968B",
"p. c #A98989",
"a. c #A89486",
"s. c #A18696",
"d. c #A79796",
"f. c #B79B98",
"g. c #B58E8E",
"h. c #B9A399",
"j. c #AEA49C",
"k. c #999BB9",
"l. c #9394AB",
"z. c #A997A5",
"x. c #BC9DA0",
"c. c #B79BA7",
"v. c #AF9FB5",
"b. c #BBA5A8",
"n. c #B3A8B3",
"m. c #F28CB4",
"M. c #C6A9A6",
"N. c #CEB3AC",
"B. c #C8ABB5",
"V. c #C8B5B8",
"C. c #D4BBBD",
"Z. c #D6B9B8",
"A. c #D5ACAE",
"S. c #DEA5A6",
"D. c #E0C0B9",
"F. c #DAC0BB",
"G. c #B28AD3",
"H. c #9EA5CE",
"J. c #B6A9C3",
"K. c #A4ADD6",
"L. c #B8B9DA",
"P. c #ADACCD",
"I. c #B691F6",
"U. c #B4BEE0",
"Y. c #EF95CA",
"T. c #C8BBC5",
"R. c #D7BAC5",
"E. c #CBAED1",
"W. c #EEAFCA",
"Q. c #FB8CE8",
"!. c #FD9FFE",
"~. c #F396EC",
"^. c #D1B0F5",
"/. c #F2A8EE",
"(. c #CC97E1",
"). c #BAC2DB",
"_. c #BCC2E3",
"`. c #DBC4CC",
"'. c #C9C4DB",
"]. c #DAC8D6",
"[. c #D4CED6",
"{. c #E6C7CA",
"}. c #EAC6D3",
"|. c #E4C9D5",
" X c #E9CDD5",
".X c #E4CCDC",
"XX c #EBCEDB",
"oX c #ECD2DC",
"OX c #EBD1D7",
"+X c #F2D2DC",
"@X c #FFD7DE",
"#X c #F5D1D4",
"$X c #C7C9E5",
"%X c #D1CEE6",
"&X c #CCD2E9",
"*X c #D3D3E5",
"=X c #D4D5EB",
"-X c #DCDBEC",
";X c #D8D7EA",
":X c #DDDDF1",
">X c #EBCFE2",
",X c #EED3E2",
"<X c #E5D9E8",
"1X c #F4D5E3",
"2X c #F5D9E5",
"3X c #F9D9E4",
"4X c #F5DBE9",
"5X c #FADCEB",
"6X c #F6D6E6",
"7X c #F0D5EB",
"8X c #DEE0EE",
"9X c #DDE3F2",
"0X c #D7E1F2",
"qX c #E2E2EE",
"wX c #E9E4EE",
"eX c #F7E1ED",
"rX c #FAE2ED",
"tX c #E3E5F3",
"yX c #E9E7F3",
"uX c #E7E9F4",
"iX c #EBEBF5",
"pX c #EDEEF8",
"aX c #F1EEF6",
"sX c #F1EEF9",
"dX c #F9E8F3",
"fX c #EFF1F6",
"gX c #EFF0F9",
"hX c #EEFFFF",
"jX c #F1F2F6",
"kX c #F5F5FA",
"lX c #F8F6FC",
"zX c #F7F8FB",
"xX c #FCFCFD",
"cX c None",
/* pixels */
"                                                    6.! @.&.;.                                                                  ",
"                                                $.O.,.M {  .] X.X.W *.&.                                                        ",
"                                            Q T R l &.h / [ G H ( ( W R =.-.                                                    ",
"        *X                                Q T f t ) ) g V S S S H ^ D m ! ! x.                                                  ",
"        /.                                j g I #.Y v d A V s A U s U c l +.+.                        t.                        ",
"                                        f w Y e.#.n &.U h K b L K g K h &.R =.*.                              (.(.              ",
"                                      &.9 E &.&.O.;.P b Q ! #.@.n h E U I #.! <.s.                            I.zXI.            ",
"                I.G.                  c r ) q.*.-.p.&.T %.#.*.g.E n Q n T :.@.U $.                              I.              ",
"                I.H.                A L 9 ) q.-.g.s.c.@.<.<.e.g.R M +.O._ ` w.$.E                                               ",
"                                    s f u E :.$.x._ z.z.x.E.x.c.@.O.*.e.q.;.0.&.E _                                             ",
"                            cX      _ o l m P =.=.x.O.-.x.W.B.B.q.#.e.e.q.>._ _ z $.m.            /.                            ",
"                                   .p h l T l >.$.R.n ,.f..Xx.-.#.&.,.<.g.&._ _ j #.              !.                            ",
"                                  h.4 d 0 &.;.r R.E.M x.g.7XR.*.e.l +.>.=.E P f f #.                                            ",
"                                  6.p e ' W g @.6.p.b B.x.+XW.p.M.n ,.>.M n P ! P )                                             ",
"                                  b.W d j.u.R.Z.XXZ.M.Z.Z.1XR.f.M.h Y f.l E M n h _                                             ",
"                                  C.&.( T.R.R.A.D.XX}.`.#X3X3X].R.f.Q Q @.! n n D |                                             ",
"                                cXoXI i.`.|.p.| ( 3 |.|.XX3XoX{.{.|.oXOXZ.) m r S {.                                            ",
"                                  d.a.n.*X1X4XB.n.d.[.|.oX5X1X|.R.7 N B.oXx.h f  .S.                                            ",
"                                 .S $.J.>X6X5X4X7X,X7X6X1XrX4X+X&X6 0. .f.1X! b j.                              W.!.            ",
"          3XcXcX            1 D  .3 :.'.1X3XeXrXeXrX4X6X3XrX5X4X].E.}.XX6X4XM.*.#X                              Y.              ",
"          !.^.            < B < H 6 . `.>X6X5XdXrXdXrX6XrXrXrXrX5X4X4X6X3X5X].M.                                                ",
"                        : q < & 6 5 - '.>X6X5XrX5X5X1X+XdXrX5XrXrXrX5XrX5X4Xz.`.        Y./.Q.                                  ",
"                      c y , 3 D - 5 < n..X6X5X6X}.+X+X+XrXrX5X6X5XrXeXeX5X4XC.M $.                                              ",
"                      Z 8 - - = 6 Z p ..].1X>X|.1X3Xb.p.+X X3X+X1X5X5X5X5X,Xq @ e *.                                            ",
"                      h 4 = - < F G p < ]..XXXV. X6X3X6Xx.1XoX3XoX+X5X5X4X4 6 * > M >.                                          ",
"                    x 2 & - = * Z 6 6 . [.oX3X+Xt g.m.m.W.1X6X3XOXB.oX,X>X. 6 . Z | _               7X                          ",
"                    < 1 X = , s - 5 - 5 i.].1X+Xm.W.2X,X}.S.f.. <.{. X.X- * p Z - Z > ~                                         ",
"        1.          8 y , , = 3 % * 0X&Xd.T..XoX{.r.r.W.W.m.r.W.+X+XoX].* 1 D | - Z < q                                         ",
"                    x 1 < , 7 * % ).tXy.j.5.`.oX+X`.m.m.m.m.OX3XOXOXC.@ X q q x x - < s                                         ",
"                      1 4 ; & 7 p 9X| 9.b.a.5.[.4X3X+X+X+XrX3X2XOXC.Z X X 1 q q | 6 @ 1                                         ",
"                      y 7 1 D 1 uXuXuX5.N.b.3.`.oX5XrX5XrXrX3XOXn.: s . X # 1 w ( 0.2 y                       @X                ",
"                      : a i D *XzXiXzXf.F.F.7.3.T.+X5X5XrX@X`.a.$X@ ] @ O > q q x ..x L                                         ",
"                    d I X.'.aXkXzXgXzXoXD.{.N.4.3.4.V. XOXj.d.3.=X@ H * ; 2 : w w W 0. .                                        ",
"                    ] jXkXxXlXkXzXfXzXxXF.{.{.M.3.=.3.7.a.a.7.M uX- 1 V k & : w $ m J q.                                        ",
"          Y.    jXzXaXkXzXxXkXzXzXkXxXxXxX X{.F.h.7.4.4.7.7.6.L fX'.a x e q 2 q $ W d       E.^.                                ",
"            jXjXkXlXzXxXxXxXxXkXzXzXxXxXxXxX.X{.Z.h.h.a.h.h.7.lXuX9XD u 9 ) )  .c ' W                                           ",
"      kXjXjXkXlXxXxXlXlXzXzXxXxXkXxXxXxXxXxXxXxXZ.N.N.M.M.f.a.xXsXtX_.u A ..^ F | _ W <X                                        ",
"  lXjXjXkXlXlXlXlXxXxXxXxXxXzXxXxXzXxXxXxXxXxXxXxXN.A.M.M.h.lXlXlXtX<XU V ^ ..D s ^ ' W iXsX                                    ",
"tXlXlXlXlXxXxXxXxXxXxXxXxXxXxXxXkXxXxXxXxXxXxXxXxXxXZ.N.Z.aXxXxXlX;XyXL.Y ..H y * , A ..s.yXkX                                  ",
"pXkXxXlXxXxXxXxXxXxXxXxXxXxXxXxXxXxXxXxXxXxXxXxXxXxXxX`.xXxXxXxXsXsXsXyXY V H p 7 2 < ( J.v.lXjX                                ",
"uXuXxXlXxXxXxXxXxXxXxXxXxXxXxXxXxXxXxXxXxXxXxXxXxXxXxXkXkX;XxXzXsXlXjXsXv.( ] i * X 1 4 c J.z.kXlX                              ",
"uXkXwXxXxXxXxXxXxXxXxXxXxXxXxXxXxXxXqXxXxXxXxXxXxXxXqXxXxXaX$XzXjXlXkXkXE.C B t ; & * * 2 c.;XiXkX        ~.m.                  ",
"yXkXyXxXxXxXxXxXzXxXxXzXxXxXxXxXxXxXxXxXxXxXxXxXxXxXxXxXxXjXwXE.kXlXkXkX;XK X.B * , * < ;  .c.aXdX        /.^.                  ",
"iXkXjXkXxXxXxXxXxXkXxXxXxXxXxXxXxXxXzXxXxXxXxXxXxXzXxXiXiXkXkX-XL.lXlXaXtXU [ 8.i * * ; < t { jXjXjX      Y.I.                  ",
"iXkXlXjXxXxXlXxXxXxXzXzXxXxXxXxXxXxXxXlXxXxXxXxXlXxXxXxXlXkXxXlX%X*XlXaXaXU G u.F 5 @ : # 0 -X<XiXjX                            ",
"pXaXkXqXxXxXxXxXlXzXxXxXxXxXxXxXxXxXxXlXxX;XxXxXiXjXkXxXlXxXxXlXlXaXaXlXaXz h K ] H * : $ w wXwXgXjX                            ",
"iXaXkXwXxXxXzXzXkXxXxXxXxXlXxXxXxXxXxXlXxXlXxXqXxXxXxXxXlXlXlXlXlXlXlXaXaXe e f | ] p < ; q.-XwXpXgX                            ",
"tXaXkXaXxXxXkXxXxXkXxXxXlXxXxXxXxXxXxXlXxXxXlXlXxXxXxXxXlXkXlXzXlXlXkXlXdXb w j [ | o.p ; tXwXyXiXgXuX                W.        ",
"yXjXkXjXkXxXxXlXxXxXxXxXxXlXxXxXxXxXxXzXxXxXxXxXxXxXxXxXlXlXlXzXlXkXsXlXlXg 0 e D s B [ V iXsXyXiXuXuX                Q.        ",
"yXyXkXkXjXlXlXxXlXkXkXlXkXlXkXxXxXxXxXxXlXxXkXxXxXxXxXxXlXlXlXxXlXlXsXsX8., k k 1 1 V _ &.uX<XwXsXyXuX                          ",
"yXyXsXkXiXkXxXlXlXkXxXlXlXkXxXzXlXxXlXxXxXxXkXxXxXxXxXxXlXlXlXlXkXaXsXsX@., 0 k ; 9 u E tXpX-XtXyXiXuX                          ",
"iXtXjXyXtXfXzXlXlXlXlXkXlXkXkXxXzXlXxXzXkXxXxXlXlXxXxXxXlXlXkXxXaXkXsXeXk + l $ 0 u j f $XtXtXyX:XuXuXpX                        ",
"kXyXaXjXqXiXkXlXlXkXlXlXlXlXlXkXlXzXxXlXxXlXxXlXlXxXxXxXlXlXlXkXkXkXiXsX0 2 O 0 j u u g %XqXyX%XuXuXuXuX                        ",
"tXyXiXkX-XiXaXkXkXlXlXkXlXjXkXlXlXlXzXlXlXlXlXlXlXxXxXxXxXlXkXkXjXkXkXE.k 0 + 0 r b g 0.*XyX;XtXuXqXtXuX                        ",
"iXwXtXqXqXiXuXjXaXjXlXlXlXlXkXkXzXlXlXkXzXlXlXlXlXxXxXxXkXkXkXjXjXjXsXE.` V o k h I D y ( =X<XtXtXtXuXtXtXY.^.                  ",
"aXiXqXiX;XtXuXiXiXjXkXlXlXlXkXjXkXkXlXzXlXzXlXlXxXxXxXxXzXkXkXjXjXjXuX'.U ..u h j Y H o d w.9XyXtXtXtXtX9X^.Q.                  ",
"iXtXtXyX%X8XuXiXiXiXjXkXzXzXzXkXjXkXzXzXkXzXkXlXzXxXlXxXzXkXjXjXjXjXiX-XY L.u e { ( ..X a D U tXtX9X9XuXtX                      ",
"aXyXtXtX).-XyXtXiXtXuXgXjXjXkXjXjXjXjXzXlXkXzXzXjXlXxXzXlXgXjXjXjXjXuXqXE %X..g 4 9 9 > o $ g 0.$X:XuX0XuX0X                    ",
"jXyXtX9X&X;XuX9XiXiXtXgXzXgXlXkXjXjXfXjXkXkXlXjXjXjXxXxXlXgXgXgXgXgXuXpXC J.H.I [ K w $ ( , # @ l.<X:XuX9XuX                    ",
"gXiXtX:XL.=XuXuXiXyXtXuXpXjXjXkXjXjXfXfXjXkXjXjXzXjXxXxXxXjXjXgXgXgXiXiX%XJ.%Xk.w L q $ # 0.k.J.F &X0X9XpX9X9X    2.            ",
"pXiXuX=X0XK.9XuXiXuXpXtXuXuXjXgXkXfXjXfXgXfXjXjXzXjXxXxXlXjXjXpXpXpXuXpXyXq.$XL.I o o # @ 5 l.l.} $XyXiXuX9X0X                  ",
"iXiXiXtX=X_.-XuXuXuXuXtXyXuXiXpXkXfXjXgXpXkXjXjXjXgXxXkXlXjXgXgXpXpXuXpXyXpXk.%Xk.> f 2 . F H.k.K.=XuXtXuXtX0X                  ",
"gXuXuX9X$X_.L.tXuXuXuXuXuXyXiXyXiXiXjXiXpXuXpXfXjXjXlXzXlXpXpXpXpXpXuXpXuXsXtXH.K.1 2 9 X k._._._.=X9XuXuX                      ",
"tXtX0X=XK.$X$X9XtX9XuX9XtXtXtXiXiXyXuXpXpXuXtXpXpXjXkXzXlXuXpXpXuXtXuXtXtXpX:X=XK.# # X o U.&X&X&X0X9Xz.                        "
};
