/* XPM */
static char *chuu1747753177[] = {
/* columns rows colors chars-per-pixel */
"64 64 253 2 ",
"   c #060604",
".  c #0B0705",
"X  c #050B04",
"o  c #0A0C06",
"O  c #0B0E08",
"+  c #061304",
"@  c #0A1405",
"#  c #041905",
"$  c #0B1A05",
"%  c #0A1408",
"&  c #0C1B08",
"*  c #131B05",
"=  c #181B07",
"-  c #15150D",
";  c #121C09",
":  c #271D09",
">  c #182403",
",  c #14220B",
"<  c #16240E",
"1  c #1B240B",
"2  c #26250A",
"3  c #38270A",
"4  c #282915",
"5  c #332C18",
"6  c #2D3416",
"7  c #393418",
"8  c #1A3926",
"9  c #313026",
"0  c #44290A",
"q  c #562C0B",
"w  c #56320B",
"e  c #472A14",
"r  c #532D12",
"t  c #46371C",
"y  c #573817",
"u  c #672A0B",
"i  c #712E0F",
"p  c #66360D",
"a  c #683B14",
"s  c #783916",
"d  c #473628",
"f  c #583924",
"g  c #703723",
"h  c #314138",
"j  c #4F4610",
"k  c #684319",
"l  c #774619",
"z  c #74541F",
"x  c #584526",
"c  c #514933",
"v  c #6A4625",
"b  c #7A4B25",
"n  c #785123",
"m  c #664A34",
"M  c #724E38",
"N  c #372D54",
"B  c #2A3273",
"V  c #364C67",
"C  c #7D5A4D",
"Z  c #78614C",
"A  c #6B6269",
"S  c #8A2E19",
"D  c #883115",
"F  c #97361C",
"G  c #A1321F",
"H  c #8A3825",
"J  c #933A2A",
"K  c #A73825",
"L  c #B9342B",
"P  c #C43B30",
"I  c #82431E",
"U  c #884925",
"Y  c #954B28",
"T  c #835129",
"R  c #8B542B",
"E  c #97562C",
"W  c #875937",
"Q  c #965734",
"!  c #9B5B33",
"~  c #A2482B",
"^  c #A7572C",
"/  c #B64637",
"(  c #A65B36",
")  c #B45332",
"_  c #90623D",
"`  c #A7643B",
"'  c #B7653C",
"]  c #EB453D",
"[  c #C1643C",
"{  c #855746",
"}  c #95574D",
"|  c #B55549",
" . c #996945",
".. c #846656",
"X. c #946B50",
"o. c #A86947",
"O. c #B76A46",
"+. c #B9744A",
"@. c #A76F59",
"#. c #B77556",
"$. c #926F69",
"%. c #B87967",
"&. c #AB7572",
"*. c #D14F4C",
"=. c #C95747",
"-. c #D4564A",
";. c #CC5A54",
":. c #E45B55",
">. c #C36A46",
",. c #C6764B",
"<. c #C77957",
"1. c #D57B54",
"2. c #E77358",
"3. c #DF5F67",
"4. c #DA6467",
"5. c #CA7B65",
"6. c #D2756A",
"7. c #EE7070",
"8. c #75BB6E",
"9. c #BBA458",
"0. c #B78365",
"q. c #B18372",
"w. c #CA8358",
"e. c #D8855C",
"r. c #DA925D",
"t. c #E68A5B",
"y. c #C68868",
"u. c #D88864",
"i. c #C48378",
"p. c #DA8E71",
"a. c #CA9375",
"s. c #D9967A",
"d. c #E58969",
"f. c #E7966C",
"g. c #F08D70",
"h. c #E69878",
"j. c #D7A37C",
"k. c #EFA57A",
"l. c #A83AA1",
"z. c #A26CA4",
"x. c #DB5F91",
"c. c #F17981",
"v. c #8348C0",
"b. c #F272E1",
"n. c #5F87DC",
"m. c #B1898C",
"M. c #B691A9",
"N. c #A99BBA",
"B. c #C68786",
"V. c #D38E8C",
"C. c #C89489",
"Z. c #D89986",
"A. c #CC9B98",
"S. c #D69B94",
"D. c #E69C84",
"F. c #EE908F",
"G. c #D9A68C",
"H. c #CCA396",
"J. c #DBAB99",
"K. c #E9A688",
"L. c #F5AD8A",
"P. c #E8A898",
"I. c #F3AC95",
"U. c #E8B499",
"Y. c #F4B499",
"T. c #D19AA3",
"R. c #F39EBC",
"E. c #CBA5A9",
"W. c #D6A9A7",
"Q. c #DDB3A8",
"!. c #C8A7B9",
"~. c #D9ABB6",
"^. c #DAB6BC",
"/. c #E2ABA6",
"(. c #F5ADAF",
"). c #E5B3A3",
"_. c #E8B5A9",
"`. c #ECBBAC",
"'. c #F3B8A7",
"]. c #E1ACB6",
"[. c #E8B9B6",
"{. c #E3BCBB",
"}. c #F3C59C",
"|. c #DFDBA8",
" X c #EFC3AB",
".X c #F3C1A9",
"XX c #E7C4B7",
"oX c #EDC2B3",
"OX c #EBC3BC",
"+X c #EECABD",
"@X c #F3C5B7",
"#X c #F5D5BA",
"$X c #9C9AD2",
"%X c #C7B7CE",
"&X c #DDBAC6",
"*X c #E4BCC3",
"=X c #E9BCC5",
"-X c #EFBED3",
";X c #FC9AEB",
":X c #D9A5E3",
">X c #F9A9ED",
",X c #AFD1FB",
"<X c #B3DAFD",
"1X c #ACEBFD",
"2X c #D9C4D8",
"3X c #E6C3C6",
"4X c #EAC4C4",
"5X c #EDCDC3",
"6X c #E4C3CB",
"7X c #EACBCC",
"8X c #F2CAC5",
"9X c #EED1C6",
"0X c #E7D1CE",
"qX c #EED3CC",
"wX c #F4D7C7",
"eX c #F1D4CC",
"rX c #E7C5D3",
"tX c #EACDD3",
"yX c #E6CCDA",
"uX c #EBCCDB",
"iX c #F0C7D9",
"pX c #ECD3D3",
"aX c #EED9D4",
"sX c #EBD3DC",
"dX c #E9D5DC",
"fX c #F1D7D1",
"gX c #F0D9D3",
"hX c #F7D7D8",
"jX c #D6F3C5",
"kX c #F4E9C6",
"lX c #EAECD3",
"zX c #D5CCFC",
"xX c #CED0F1",
"cX c #D8D4F1",
"vX c #DBD4FD",
"bX c #EBD4E2",
"nX c #EAD6E6",
"mX c #ECDAE4",
"MX c #EBDDEA",
"NX c #F1D7E3",
"BX c #EDC8F4",
"VX c #E8DCF5",
"CX c #CDE8FB",
"ZX c #EDE5E6",
"AX c #ECE2ED",
"SX c #EFF0E9",
"DX c #ECE4F2",
"FX c #EBE9F5",
"GX c #E2E7FD",
"HX c #ECEDFA",
"JX c #F5E9F8",
"KX c #EAFAF8",
"LX c #F4F5FA",
/* pixels */
".   .   . . . . . . . . . . . . . . . . . . . . . . o O   O   O < o O o o o o   X .   . X . X     X . . . . . X . . X . . . . . ",
".     . . .   . . . . . . . . . . . . . . .   .     X . X X 1 % o o   o O o o O o . . X .   . o . .   . .   . o . . . o X . o . ",
". . . . . .   . . . .   . . . . . . . . . X X . X 2   + X 4 + Z m c 4 & X o O o o O O   . . X . . . . X . . o . X X . . X . X . ",
"      . . . . . .   . . . . . . . . .   . k 2 W z W y a n _ +.k.).XX$.+ , % 6 o . O O   o X . X o X o . X . o . . . . X . . X . ",
". . . .   . . . . . . . . . . . .     2 %.R b e w ` 0 l k E z +.G.wXkX9X_.7 + % o o o O . O O   o o O o o o   O o . o . X o . X ",
". . . . . . . . . . . . . . . .   X  .+.^ ! l r k ` w y ` w W w.r._ J. Xu.wXq.& o @ o @ O O O . @ o o o o o   o o o o o . . o o ",
". .   .   . . . . . . . . . . .   ^ y a h.` Y #.W E r I U Y ( l +.o.>.y..Xj.w.U.1 o O O O O O O o o o o o o o o o o . o o o o . ",
"    . . . . . . . . . . . . . . u.r.Z.y.5.( Q ~ ' l ( 8Xa.E E 0.` }.! k.9XZX#Xu.r.. . O o O O O . o @ o o @ O o o o @ . @ o o o ",
". . . . . . . . . . . . . X   hX,.t @.s.P.D.>.o.' >.O.<.,.E ` I U +.'.Y.}.LXK.K.+.r.> X . X % O O @ o O O o @ . @ O . @ O O O O ",
". . . . . . . . . . . . . .   .X`.C.P.s.'.h.h.d.D.d.>.) d.E ' h.h.9Xa.y.wX.Xj.K.+.y.1.X % & % % O o o O o o o O @   O O o O O o ",
". . . . . . . . . . . .   . ZXe.@.{._.4XD.OX>.D.@X7.[.t.u..Xd.s h.G.K.KXY.K.k.u.w.` +.#.+ % o o O o o o o o O O O O O O O @ o O ",
". . . . . . . . . . . . . 9 SX^.V.[.Z.7XP.F.f.AXK.U.ZXg.u.@XL.@Xe.U.U.`.p.<.s.' r.,.R +.b $ o o o O O o o O O o . O O O o o O o ",
". . . . . . . . . . . . o U.H.C.OXbX_.sX4XsXg.I.P.P.K.8XI.d.K.Y.<.( gXZ.` E ! k.+.+.w.! +.+ $ o O o o @ O O O O o o o O O O @ O ",
". . . . . . . . . . . O E. X{.A.=XbX{.pXOX[.h.MXd.OX'.wX'.1.@XwXoXL.@XfX1.! o.a e.( ` ` ! , o o o O o O O O O O O O o o o o O O ",
". . . . . . . . . .   O U.s._.W.3XsXP.NXmXqXP.'.'.@XZXJX@XpXI.8X`.hXf.<.s.w.k E k w.( ' E m + X O @ O o O O O o o O o O O o . O ",
". . . . . . . . . .   . a.O.C.Q.tXdX_.pXAX_.sXK.'.'.[.dXLX`.h.gXP./.1.ZXO.! I z l #.l p ! Z + + . o o O O O o O O o O . O O O O ",
". . . . . . . . . . . - Q y.i.[.bXAXU.sXAXi.`.5.D.P.6.(.hXZX(.oX`.`.I.<.s.O.z R l U ,.l R G.9 O @ @ O O @ O . O O O O O O O O O ",
". . O . . . . . .   O ..o.,.E.{.tX=XZ.dXAX{.P.S.) V.S.B.O.6.tXp.SXpX;.h.oX( a l k v l ' U #.+ + o O O O . O - . O O O O O . O O ",
". . . . . . . .   O   5 a +.Q.Q./.rX].FXNXiX/././.I.8XAXJXD.aX[.<.[.p.D.`.oXE R w k a a l y.@ @ @ O . O . @ O . O . O O o o . O ",
". . . . . . . .   .   1 v R { %.M 5.Z.AXtXhX=X[.'.=XP.VXFX0X'.P.I.K.K.OXZ._.E p k l l y.l ! + @ @ @ o O O O O O O O O O O . . = ",
". . . . . . . - . X o X 0 y C.W.S.C.A.bXAXtX[.[.} &.4 A =XNXAXMXDX2.wX~ T.6.O.U a 3XaX-.8X^ 6 + @ o O o O O O O . . . O O @ O O ",
". . . . . . . . . o . t k t ].=XtX3XB.rXFXAX&X4.xXM 9 A S.~.JXJXHXZX[ 2.@.=X>.>.^ 1.NXtX[.! < % % @ O O o O @ O o = @ O O o O . ",
". . . . . . . . . . o 7 n = 6.B.4.mX~.&XFXHX-X} cXcXm -X-XMXMXFXJXAXdXd.s./.6.u.K.ZXLXmXKXU m $ @ @ = O o O O o O o O O O O O O ",
". . . . . . . . . o o 1 R h = cXm , *X&XDXDXnXrXB.B.~.nXMXMXMXJXFXMXAXK.s Q.K.I.@X=.5XAXVXY K.= wX. O O O o O O o o O O . O O O ",
". . . . . . . . . . O O b 2 2 N.xXT.*XbXDXDXMXMXuXBXMXNXiXNXDXDXAXNXbXNX) >.@XfX[.LX-XNXHXaX#XQ.t 1X8 O o O O o o o o O O O O O ",
". . . . . . . . . . . O 7 3 ..A.W.uXE.MXFXDXDXbXnXbXuXNXNXNXJXVXMXNXbXsX[.^ +XZXrXHXE.LXMX0X#XhXV wXkX@ O O o O o - O o O O O O ",
"- . . . . . . . . O O O ; b &.-XuXuXM.bXAXAXHXMXbXbXNXuXNXVXMXMXNXbXsXtX].' `.`.FX-XFX4X}.GXSXkXKX&.; % o O O O O O o O O O . O ",
". . . . . . . . . . O . O 3 ~.-XiXuX*XbXMXmXMXMXNXbXbXNXVXVXNXNXsXNXuXrX=Xs ' OXAX`.rX$.kXFX#X' ' a [ @ @ O @ o o O O o O O O O ",
". . . . . . . . . o X o @ y ].iXiXuXiXMXmXMXNXFXnXMXNXnXVXDXNXuXsXbXsXtX4XY ) pXdXmX^.2XGXn._ o.Y ) [ ' @ o o o O O O O O O O O ",
". . . . . . . . . X . . @ X A.iXuX-Xm.yXS.C.mXAXnXnXNXMXDXMXNXbXuXbXsXrXOX( ' *XtXy 3 2 JX1Xt E Y Q ^ g.t.2 o @ O O O O O . O O ",
". . . . . . . . . . . X . 4 ..rXuXV.v 5.[.uXuXMXVXMXMXMXDXMXNXMXbXbXsX7X{.@.,.:XN.zXt & , # 2 T +.I Y t.[ f.m o O O O O O O O O ",
". . . . . . . . . X   . . o 2 *XuXuX&X&X6XMXMXVXDXDXVXDXDXMXMXNXmXbXuX4X[.VX@.&.xXzX{ < & # o.R ' Y ^ [ t.k.K.. O O O O . O O O ",
". . . . . . . . . . . . . o @ W.uXyX&XBXrXnXnXMXMXVXDXDXDXAXMXMXNXsXtXOX/.e m.zXvXGXc , $ , o.a Y ^ [ h.k.f.Y...o O O o O O . O ",
". . . . . . . . o X . . . . O $.=X*XT.c.F.c.7.=XmXnXMXMXDXMXZXmXmXtX4X{.W.vXxXM.M.vXzX5 7 c Q ` ` I f.L.I.1.f.0.O O o O o @ O O ",
"o . . . . . . X . . . . . . & = E.~.} | P J L *.;.E.nXMXMXMXmXmXpX7X{._.@.vXz.,Xz.9 2 M , _ E E 1.K.k.Y.'.hXP.W o @ O o O o o O ",
". . . . . . X . .   . . . . o > $.~.6.3.7.=XR.R.iXnXMXMXMXmXmXmXpX4X`.S.W JXzXzXvXvX< $.4 W T L.h.u.u.^ Y.d.=X#.o o o O o O O o ",
"  . . . . . . .   . .   . . o * 2 E.=X4.F.R.(.bXnXAXMXMXmXmXmXpX4X).V.#.7XvXvXzXVXzX, 4 f R W '.,.` Y E ^ ' <.o.. O O O O O O o ",
". . . . . . . . . . . . . . o @ 2 Z ~.C A.T.~.bXVXVXDXDXmXmXtXOX).y.o.5X5Xw b vX$X$ 6 4 x  .K.( ^ w U I ( ^ #.K.o O O O o O O O ",
". . . . . . . . . . . . . . o o = 2 m.%XrXdXnXMXDXDXAXMXbXpX[.P.+.y.9XeX8XOXS.w b 7 Z ; , 7 <.y.^ Y p l I ^ s...O o O . O O o O ",
"O . . . . . . X . . . . X . . o * = x E.rXyXbXDXDXMXmXtX4X).a.` s.OXgXfXeX@X).! s.4 x $ < % v E p I w I l U Q O O o O O O O O O ",
". . . . . . . . .   . . . o . 2 : * * $.&XyXdXbXbXyX4X`.Z.+.! s.@XgXfXfXeX5XoX`.K.y x 4 , # & x ~ l l b Y T % o O O O . = o o O ",
". . . . . . . . . X X . o X . O 2 * $ : &.^.6X6X{.J.#.` E ! p. XeXgXgXpXqX9X5X.XU. .7 , , , & 1 : C E N N @ O O O @ O O . o O o ",
". . . . . . . . . . o o X o o 3 : = * @ $ M  . .n z n n n j.@X9XaXaXgXgX8X9X5X+X X0.y 7 & & & + DXxX<X$XGX@ O O . O O @ O O o O ",
". . . . . . . X X . o . . X X 3 y : 3 @ @ + + # t k j z s. X9X9XgXaXaXeXwX9X9X9X+Xp.2 , + < & + | S.<XCXn.c @ % O O O . O O O O ",
". . . . . . . . . . . o X 2 x.M e * 3 @ @ @ @ @ + j v a.`.9XqXaXaXpXgXgX9XwX9X9X+X).< , 1 # # & GX<XCXGX<X+ % o % o o o O O o @ ",
". . . . . . . . . .   d %.M : = @ + X o @ @ @ @ + 3  .s. X9XwXfXwXgXgXgXeXwX9X9X9X`.m t $ % @ cXGX} { 5 <X+ o % % o @ o O O o O ",
". . . . . . . . . 9 } M } %.M e % @ @ o O o @ o @ @ _ a.U.5XqX9XeXgXgXgXeXwX5XqX9X+XZ.= % & # 3 m F.%X,Xe * + @ @ @ @ @ @ @ - @ ",
". . . . . . . . . c @.y g U %.{ 0 * & @ @ @ o @ & % x 0.G.XX9XfXgXeXfXpXfX9XqXeXeX5XU.4 , 4 $.Y.2.F.=.*.s 0 % @ o @ @ @ o @ @ o ",
". . . . . . o o . > # x.D p p q 3 2 2 2 @ o O @ @ @ 7 0.G.`.5X0XqXwXeXgXgXqXwXeXqX9X`.m & = ;.6.F.2.:.7.| y : O O % @ @ % @ @ O ",
". . . . . . . . . % kX+ U q u 0 3 3 2 * o @ @ @ @ @ ; @.a.).5X9X9XqXeXgXwXqXqXqXeX9X`.V.& m 2.I.-.g.F.6.6.g r : % % * @ @ @ @ @ ",
". . . . . . . . . o . ;X$ g w 0 3 = X o o @ @ O @ O @ 0.a.J.+X9XeXeXgXaXfXqXfXqXqX9XOXP., y ;.-.=./ *.7./ ;.e @ - @ @ @ @ * @ @ ",
". . . . . . . . o o @ X b.9.u p 0 + @ o X @ @ @ @ @ & q.a.C.+X5XqXqXqXaXqXwXqXpX9X9X8X/.@.b ~ ) | J F ;.J g e 4 @ @ @ @ @ @ @ O ",
". . . . . . . o o   O .   |.>Xb.B @ o o O O @ @ @ % + Z.0.j._.+X9XqXqX5X5X5X5X0XqXqXqXXXZ.r d G D D i u s f = - @ % % % @ @ $ @ ",
". . . . . . . .     O % . 2 b.N v.X o @ O @ @ @ % % # J.a.a.Q.XX[.{.4X^.lXKXlX0XqXqXwX9X).f @ ) ) i u r 3 = & & % # % % @ @ $ @ ",
". . . . . . . . . O - . . - ;XR.l.@ . O O @ @ @ O @ @ G.j.0.5XpX7X6X7X6X4X3XW.KXdXqXqXpX+XZ.6 7 D J F H % 9 & + # @ & % % @ @ @ ",
". . . . . . . O   . . . . r S G F.o @ % @ @ @ @ * @ # }.E.OXdXmXmXbXpXpX7X0X3X{.KXZXqXeX7X_.@ @ W &X!.!.2 % @ @ % @ % % % & @ @ ",
". . . . . . . . O . .   o K S i 7.h @ @ @ @ @ @ # > lX^.yXdXnXZXmXZXNXmXsXpXpX6X{.U.lX0X0XXXA.^.Q $.N.cX+ & @ @ # @ # % % + & + ",
". . . . . . . X . .   & u K K D J X.t @ @ + @ @ 1 E.0XyXdXnXZXAXAXMXAXAXdXNXbXsXtX^.|.0X5X5X{.y &XMXA 4 %XA + @ @ @ % % @ @ @ @ ",
". . . . . . . . . . @ i F L ] L P 7.&.% $ @ @ $ E.6XyXnXMXMXAXAXAXZXAXAXMXmXsXmXdXtX^.KXXX5XXX9 : e $.%X,X@ @ @ $ % % % @ # @ $ ",
". . . . . o . . . o r -.] P 7.7.7.4.M y @ @ @ C &X6XyXnXAXAXZXFXDXAXAXAXMXmXdXmXdX0X3XW.SXXX{.H.K F.:.K P : $ % @ @ & @ & @ @ $ ",
". . . . . . . .   H g i S :.L J Y Y Y 5 # # # E.3X2XmXmXAXVXAXFXFXDXAXAXZXmXdXdXdXdX2X{.KXQ.XXQ.| 7.P P 7.L 4 % & @ @ @ @ @ $ $ ",
". . . . O   . . :   5 J i g u i u | f ; $ # jXQ.6XyXnXMXZXFXGXFXFXDXZXMXMXnXmXdXdXdX0X^.H.{.XXQ.| c.P P P 3.F 5 $ $ @ @ @ @ $ $ ",
". . . . .       . O ;X>X|.z.u r = $ $ + $ jXj E.6XyXdXMXAXFXGXZXFXZXDXMXZXmXnXnXdXyX0X6XH.SXXX[.3.*.c.JXc.4.g ;.= & $ & $ & & & ",
". . . . .   o   o   JXCX>X>Xi g & $ + $ 8.jX$.^.6X2XnXMXAXFXFXGXFXAXZXMXMXmXdXnXdX0X0X3XJ.SX[.{.*.3.G F S J =.;.; & & $ $ & & , "
};
