/* XPM */
static char *Screenshot_2025_05_20_at_17_18_56_1_png1747754407[] = {
/* columns rows colors chars-per-pixel */
"64 64 32 1 ",
"  c #0A0E07",
". c #0A0F08",
"X c #0A1506",
"o c #071907",
"O c #0B1907",
"+ c #091408",
"@ c #071C09",
"# c #0B1D0A",
"$ c #0B2107",
"% c #0E210D",
"& c #0E280A",
"* c #12250C",
"= c #14290E",
"- c #1B2B0E",
"; c #0F2310",
": c #122512",
"> c #182710",
", c #162913",
"< c #1B2B15",
"1 c #1E2C1A",
"2 c #1F3016",
"3 c #1E3219",
"4 c #202E16",
"5 c #212E1C",
"6 c #213017",
"7 c #24311E",
"8 c #29341E",
"9 c #2C381E",
"0 c #263321",
"q c #2A3422",
"w c #2D3A23",
"e c #323B2A",
/* pixels */
"+X+X++++++X+X++@%#+X +XXXXXXOXXXXoXO ++++XXXXXX X X X   X X     ",
"+++++++OoXXX++###+XX++XXXXX+OXXXOXOXo+++XX XX  XXXX  X XX+     .",
"++++X#o#oOOXXXX##+  XXOO++++++++XXX OX+++XXXXX XXXXXXXXXXXXXX.X ",
"+++++:##@#XO@X##o+oXoXOX+++++++OOXXXX@X+X++XXXXXX+XXXOX+XXXXXX. ",
"+++XO%##$@+##O$#OXXXXOX+++XXX+O+++ +##X++XXOOXOX XX XXo#OOXXXX. ",
"+++O###%#oo##@%%#X+XOX++XOOXXXXX++++###XOXX+XXXXXXXX X oXXOXXX  ",
"+++O##O%######%###oXXO+++XOOOXOO+++X#+##X+X++X+XXXXXXoX .XXXX  X",
"+++o#####X%:##%#$O@O#O+X+OX@#Xo#OXX#@##*#O+++O#XXXXX  X X. X   X",
"XXXX###;%#;:%####ooo#;#+X##%OXX@oOOO#####+XX+#+XO+ X X++XX++X XX",
"OXXO#o+;;:::;##;%o#+o:#+o####O##@@OX+#o###o#+++#oO+XXXX+XX+++XXX",
"o###%#+#;::;;;+%##ooo%#oo####%####$###;######o#+OOX@OX+XXX+X+OXO",
"%#######%::;##%#%###%%#####%#%#*;%##;#;*%#oX+#o++#O@#O+#O#XOOOOO",
"%#######;::##;##;%###%;###%#*##O##*###*####o#%##%;%#########O@Oo",
"#####;:::::####;#;%#;##;###%$O#$O#$O######%##;#;;;:::########o@#",
"#######;;;#######o%####;;###O*#*$O$$OO*###%%;#%%##:,:##########@",
"######+#;#;#%##oo#o###;:%%###O#O##O#OO@#@#%###%%+##;:#;###%#####",
"##O###O##+##%#@#@O#@@#*:;####OO######O#########%##o%###%###;####",
"##%####O#########OO@###>:############@#@####*%%###o##%%#%#######",
"#%###*###:%#O######@##;,*######O#####O@O###*%;*############%####",
"##O%#####%%#@###$##O#;;,##O#########OOO@##%%%%##o###############",
"#########;#%####%#@@+%;:######O#O##O@O######%@#@#o##%####O%%%###",
"#%%##*####;#######$@o;#;%###+O######@OO#*O###o@##%o%;##O+#####%#",
":%%##%####%####;;;%%##;#%%########*#O######Oo###%#######+#O#####",
";#%####*:#%###;*;;;%;:::;#%%%#####%%*$O##O@@#O@o#o##############",
"%####;%;;%;###%;;%%@#;:,:;;#;%###O######@#oo#@@##############%##",
"#;#####%%#%%;#;#%%@%#:;;#####%%############oo#o###%*##%#O###%;;%",
"#:%#%####;#;;;;;%%;;:#%#;#;#####%##%###O#@o##o#####$o@#####%;##%",
"###:;%#####;;::;%;::;;####;#%######O####o#ooo#o#######%#%%%##;##",
"####:;#####%;;%%@;;;;;%%;%################oo######%#%#%%;;%o;###",
"####%##%#;:::;##;;;%%;#:#;####%##########o#######%%:#%;;;;;%#%#o",
"##X###%;;;;::;#%%;;%#;;#*####;####%##%#%####O##%;;;%;%;:;;;%##o#",
"#####;#:;;#:;:;#%#%%;###;;:;###;#%%#%%%#%##;#####::::;##;#;;%###",
"##%%;;#;;:;%;;;;;###;###;;1:;##:*#%%##%%%#::::;#;;;:*#######;%##",
"###%::#;;;###;;;#;;%;##%##;::##:>#%####%;##:,:;##;;;#@#####%;###",
";#;%:;###;:;:::;#;;:##o%@###;##########%###:11;%#+#####@O@###%##",
";;##;#%##%#:######;,#%##@@@########;#%######;;%%#######@o##%*%##",
";;%##%##;;#%;####%#:;#%%#####+###+%#%:%########;;####@#Ooo##;###",
"::;:;;:%;:;;;;;;;##;%%%#;#;#####::;:>:%########;###%@@#O#######o",
":;#;%#%%;::;;;######%%%;:::;;#:.;::;;#%##%;#;#++o##%#@###@##@O#O",
";;###%::%;:%;;#####;%%;:::::::1:,1:>;;;:;;#;::;:##;###$$%%%$#@%#",
"%#%%%%;%;%%;;;;%;#;;##;;:::::11511111>11::::.>:.;#:#.::>,,:,:;%;",
";%%#%%;;;;%#%%@#%:;;;;:1:1::11111111111151111:1>:15:1:1>11<<>:1:",
"#;%##%#:;:::,1111<1<::<151115555511111555511111155155511<1111151",
"##%%#%#;:::,1555500111515555555555551555555551555555555151111111",
";;:,,11555555555055055505551555155555555555555551555115111111111",
"1505557755555585555500515551551555555515555555551555111115115111",
"55055755055550055555555155551555555555515555555515511511511111>1",
"555555505055q085055055501555550055505555555555555155155551111111",
"5505000005000050055505q5q55q550505055555555051551551555555555551",
"5505551511,3::15505050555555155555555555500555555555555555555551",
"01:1,:;;;;;;;;:::000q5551155511111::;:11551115515055550505551115",
"e05,:,,1:;:;:::15500q5qq055511,;:::511::11:155550505005q55551151",
"051,,131,,100111000qq077511:,:;;;::05%;<<:115:15505q505550505050",
"5077000e51111:110000e00050051,,::::;##:5:;;%%%:<55q555q50550q050",
"5015500000111115100qee0000000051555qq555555555550005q5qq000q0005",
"55,155000001,:,1150qq81,:<,51:150000qqqqqqqqq0550q5qq555770q0q05",
"261<:1535112<&**:10qwq1<,,:<1070550q0qqqqqqq8qqqqq8888480886885>",
",67>*,,,3,***%%#*55<q77251517q05:10116wwqwwq98888qw8q85665-454<=",
"1-,%=,;&;&%&$%%%*,,:*22<>>41161>;:<<1>70q088q88q8wqq55441>**-=**",
",&;,=*&=<,&%%%%%*,:%*,=**:*,*:**:::*=1515064888898484>*--**$*>>*",
"*;=,&===<,&;&=2,1==&*&*$**#$$=#*=*$$>1---<4418888684-***-**&*>21",
"%*,&&3===332<=,*<-=,**&**$@$*$***&&*****=*>4<<48886>*$*$O$=*6888",
"&-2=&==,&w3w9**&&**=**=*&*&#&&==&&=*$$*****>-=$4-44-**-$$-6-2<28",
"&===-=3,&w393==%&&&&*$>--**<7*$**&**$**-**---$*->44***-$$=6-**<1"
};
