/* XPM */
static char *Screenshot_2025_05_20_at_22_05_13_1_png_1_1747772353[] = {
/* columns rows colors chars-per-pixel */
"64 64 248 2 ",
"   c #160203",
".  c #3B0401",
"X  c #2D0307",
"o  c #460200",
"O  c #4C0402",
"+  c #5B0201",
"@  c #570500",
"#  c #5A1600",
"$  c #640401",
"%  c #6B0402",
"&  c #6C0A02",
"*  c #680805",
"=  c #740403",
"-  c #7C0503",
";  c #750A02",
":  c #7B0A03",
">  c #7D0409",
",  c #7D0C08",
"<  c #771704",
"1  c #830403",
"2  c #8B0503",
"3  c #830A03",
"4  c #8D0A04",
"5  c #830508",
"6  c #870909",
"7  c #940503",
"8  c #9B0502",
"9  c #940904",
"0  c #9B0902",
"q  c #970909",
"w  c #841402",
"e  c #8D1503",
"r  c #8D1A04",
"t  c #951605",
"y  c #8A1715",
"u  c #A40501",
"i  c #AB0602",
"p  c #A40A03",
"a  c #AB0A03",
"s  c #A20809",
"d  c #B30502",
"f  c #BB0502",
"g  c #B40B02",
"h  c #BB0B03",
"j  c #B5070A",
"k  c #AA1706",
"l  c #B51400",
"z  c #BD1302",
"x  c #BD1B03",
"c  c #BB170A",
"v  c #962605",
"b  c #8C2706",
"n  c #A82805",
"m  c #B82506",
"M  c #A53407",
"N  c #C30B04",
"B  c #CB0B04",
"V  c #C60705",
"C  c #D10A05",
"Z  c #C31403",
"A  c #CD1303",
"S  c #C51C02",
"D  c #CB1C03",
"F  c #C81809",
"G  c #D31403",
"H  c #D31C03",
"J  c #D81B07",
"K  c #C61A11",
"L  c #C42202",
"P  c #CC2302",
"I  c #C52B01",
"U  c #CC2A02",
"Y  c #CB250B",
"T  c #D32302",
"R  c #DB2503",
"E  c #D42C03",
"W  c #DB2D02",
"Q  c #D42B09",
"!  c #DB260A",
"~  c #CC3802",
"^  c #D53402",
"/  c #DC3403",
"(  c #D43A03",
")  c #DB3B03",
"_  c #DB3709",
"`  c #E22C03",
"'  c #E32908",
"]  c #E43404",
"[  c #E33B03",
"{  c #E93B04",
"}  c #E53A0A",
"|  c #E63608",
" . c #F63D03",
".. c #F0300E",
"X. c #AA4206",
"o. c #BA4D10",
"O. c #DC4203",
"+. c #DB4C02",
"@. c #D94708",
"#. c #DD540B",
"$. c #CC550A",
"%. c #E44404",
"&. c #EC4406",
"*. c #E44B04",
"=. c #EB4B03",
"-. c #E44409",
";. c #EC450A",
":. c #E44C0C",
">. c #EB4B0A",
",. c #F24D0A",
"<. c #F24804",
"1. c #E45404",
"2. c #EB5404",
"3. c #EB5A04",
"4. c #EB550C",
"5. c #ED5B0A",
"6. c #E45A09",
"7. c #F15306",
"8. c #F25B04",
"9. c #F15409",
"0. c #F25C0C",
"q. c #FB5404",
"w. c #EC5C13",
"e. c #E95616",
"r. c #F25D13",
"t. c #FA4511",
"y. c #EC6305",
"u. c #EC630B",
"i. c #ED6B0A",
"p. c #EC6A07",
"a. c #F36307",
"s. c #F3640B",
"d. c #FB650E",
"f. c #F9690A",
"g. c #F3720C",
"h. c #EC6415",
"j. c #ED6C15",
"k. c #EB6D1C",
"l. c #E8651B",
"z. c #F36414",
"x. c #F46B15",
"c. c #FA6D13",
"v. c #F3651A",
"b. c #F16B1B",
"n. c #FB6919",
"m. c #EC7418",
"M. c #F47216",
"N. c #F3731A",
"B. c #F37B1D",
"V. c #FC761A",
"C. c #E85F2A",
"Z. c #DF703D",
"A. c #E96926",
"S. c #F66D23",
"D. c #EB7B26",
"F. c #EC732C",
"G. c #ED7A2A",
"H. c #EA7322",
"J. c #FB7324",
"K. c #F37A23",
"L. c #F2732B",
"P. c #F37D2C",
"I. c #F87928",
"U. c #EC7B33",
"Y. c #EA7837",
"T. c #F37933",
"R. c #EC6E39",
"E. c #DD6849",
"W. c #E8794A",
"Q. c #EA7447",
"!. c #D97E6E",
"~. c #EC832C",
"^. c #EE842B",
"/. c #F38325",
"(. c #F2832D",
"). c #FB872C",
"_. c #ED8435",
"`. c #EB8C35",
"'. c #EC843B",
"]. c #ED8A3B",
"[. c #E78936",
"{. c #F38535",
"}. c #F08E3D",
"|. c #F78935",
" X c #EF903A",
".X c #EA8112",
"XX c #EB8B43",
"oX c #E88846",
"OX c #F68B46",
"+X c #EB9244",
"@X c #EF954D",
"#X c #F2944B",
"$X c #E98755",
"%X c #EA9755",
"&X c #F79756",
"*X c #F28B51",
"=X c #DF886E",
"-X c #E98765",
";X c #EB9B66",
":X c #E28E78",
">X c #E49E7A",
",X c #E99A74",
"<X c #F29871",
"1X c #EAA97D",
"2X c #E8A37A",
"3X c #F0A66A",
"4X c #DF9184",
"5X c #E59884",
"6X c #E69793",
"7X c #DCA692",
"8X c #E1AC8B",
"9X c #E7A789",
"0X c #E5A89A",
"qX c #EAB59A",
"wX c #EDB185",
"eX c #D8B5A9",
"rX c #DBBFBB",
"tX c #D7ADA8",
"yX c #E5B6A9",
"uX c #E3BBB8",
"iX c #E2B8B5",
"pX c #E1ADAD",
"aX c #E5C2BE",
"sX c #DFB9C0",
"dX c #E1B9C0",
"fX c #DDC3C4",
"gX c #DDC5CB",
"hX c #DDCACC",
"jX c #DCCAC4",
"kX c #DCC6D3",
"lX c #DDCAD4",
"zX c #DAC9D7",
"xX c #DDD2DA",
"cX c #E1C5CC",
"vX c #E1CACD",
"bX c #E4C6C5",
"nX c #E2CCD3",
"mX c #E1CEDA",
"MX c #E7C9D2",
"NX c #E3D1D4",
"BX c #E4D3DB",
"VX c #E8D5DC",
"CX c #E9D4D6",
"ZX c #E9D6E4",
"AX c #ECD9E4",
"SX c #E7D7E5",
"DX c #E3CCE1",
"FX c None",
/* pixels */
"FXFXFXFXFXFXFXFXFXFXFXFXFXFXFXFXFXFXFXFXFXFXFXFXFXFXFXFXFXFXFXFXFXFXFXFXFXFXFXFXFXFXFXFXFXFXFXFXFXFXFXFXFXFXFXFXFXFXFXFXFXFXFXFX",
"FXFXFXFXFXFXFXFXFXFXFXFXFXFXFXFXFXFXFXFXFXFXFXFXFXFXFXFXFXFXFXFXFXFXFXFXFXFXFXFXFXFXFXFXFXFXFXFXFXFXFXFXFXFXFXFXFXFXFXFXFXFXFXFX",
"FXFXFXFXFXFXFXFXFXFXFXFXFXFXFXFXFXFXFXFXFXFXFXFXFXFXFXFXFXFXFXFXFXFXFXFXFXFXFXFXFXFXFXFXFXFXFXFXFXFXFXFXFXFXFXFXFXFXFXFXFXFXFXFX",
"FXFXFXFXFXFXFXFXFXFXFXFXFXFXFXFXFXFXFXFXFXFXFXFXFXFXFXFXFXFXFXFXFXFXFXFXFXFXFXFXFXFXFXFXFXFXFXFXFXFXFXFXFXFXFXFXFXFXFXFXFXFXFXFX",
"FXFXFXFXFXFXFXFXFXFXFXFXFXFXFXFXFXFXFXFXFXFXFXFXFXFXFXFXFXFXFXFXFXkXzXhXgXkXlXFXFXFXFXFXFXFXFXFXFXFXFXFXFXFXFXFXFXFXFXFXFXFXFXFX",
"FXFXFXFXFXFXFXFXFXFXFXFXFXFXFXFXFXFXFXFXFXFXFXFXFXFXFXFXFXFXFXcXlXzXiX9X+X2XrXkXzXhXFXFXFXFXFXFXFXFXFXFXFXFXFXFXFXFXFXFXFXFXFXFX",
"FXFXFXFXFXFXFXFXFXFXFXFXFXFXFXFXFXFXFXFXFXFXFXFXFXZXZXAXAXdXMXkXzX-XH.oX].].oXC.fXkXgXkXkXkXzXFXFXFXFXFXFXFXFXFXFXFXFXFXFXFXFXFX",
"FXFXFXFXFXFXFXFXFXFXFXFXFXFXFXFXFXFXFXFXFXZXZXZXZXcX:X0X:X%.E.6Xe.e.S.F.F.F.A.@.#.h.A.W.0XfXgXzXlXlXFXFXFXFXFXFXFXFXFXFXFXFXFXFX",
"FXFXFXFXFXFXFXFXFXFXFXFXFXFXFXFXFXFXFXFXVXSXgX!.W.R.F.l.e.( ~ I ( _ 9.=.=.=.J.~ ~ O.6.H._.~.>X,X0XkXmXFXFXFXFXFXFXFXFXFXFXFXFXFX",
"FXFXFXFXFXFXFXFXFXFXFXFXFXFXFXFXFXFXFXVXlX$XY.#.@.e.e.) ^ ( #.z.L R { ` / r.&XO.I ^ w.k._.(.H.+.k.,XzXzXFXFXFXFXFXFXFXFXFXFXFXFX",
"FXFXFXFXFXFXFXFXFXFXFXFXFXFXFXFXCXBXDXBX-XT.L.T.I @.S.#.m =.) 2.P F r.) D <.,.) g } &.0.x.b.O.6._.~.9XkXmXmXFXFXFXFXFXFXFXFXFXFX",
"FXFXFXFXFXFXFXFXFXFXFXFXFXFXFXBXBXtXF.l.U.L.v.>.E c w.V.P ).z.Z g U z.3.x.T T P Z T E ] %.*./ 1.i.D.[.uXmXxXnXFXFXFXFXFXFXFXFXFX",
"FXFXFXFXFXFXFXFXFXFXFXFXFXFXFXBXeXv.e.) 4.-.;.W U u :.b.W { &.8 1.-.c.[ 0.T z.l g U T R E Q P [ 4.N.P.$X4XpXgXlXFXFXFXFXFXFXFXFX",
"FXFXFXFXFXFXFXFXFXFXFXFXFXFXNXBXA.w.@.) E R W =.n.r.-.9.H j D z.U A ] H h W a.2.u &.I g _ _ D / &.0.s.~ @.h.,XkXzXFXFXFXFXFXFXFX",
"FXFXFXFXFXFXFXFXFXFXFXFXCXDXxX5XO.-.E T D Z N 5.8.D R J C f Q ) f.d H f.d A &.<.8 W I Z c.s.d R &.s.) m @.k.*XyXnXFXFXFXFXFXFXFX",
"FXFXFXFXFXFXFXFXFXFXFXBXBXgXpXC.:._ U @.@.Y Z d.7.G f C C V i G f d h J d f G T 2 G a g a.l j f ' =.x L ^ 1.L.,XnXFXFXFXFXFXFXFX",
"FXFXFXFXFXFXFXFXFXFXVXCX:XF.l.O.) _ P ^ #.7.n.W ' C V B C V j N f g u d ..i B t.7 N Y Q 0.l d h F L u x / +.6.aXNXFXFXFXFXFXFXFX",
"FXFXFXFXFXFXFXFXFXFXCX7XF.h.:.^ ) ( ~ S -.%.` B C C V f V C u h d 0 0 i d 8 d f 7 h &.) =.x u D ] d P >.G.U.U.-XkXlXFXFXFXFXFXFX",
"FXFXFXFXFXFXFXFXFXFXVXW.w.-.[ B.H.k.J.W q.] B f V V V f d p 7 i p 9 9 8 i p p p 8 h Z H c.m 7 F ) d ` =.j.D.U.'.3XlXFXFXFXFXFXFX",
"FXFXFXFXFXFXFXFXFXFXZX5X:._ v.A.+.3.x./ H B B f f N V 8 9 9 1 1 2 2 1 4 2 2 2 9 d ' f A  .8 8 >.l f W _ h.U.D.K.I.lXFXFXFXFXFXFX",
"FXFXFXFXFXFXFXFXFXAXSXiX) E J.b.z.0.&.] f g N f % a 2 5 2 - - q 4 2 7 2 = 4 2 9 j i d h } k i q.7 g D >.z.w.O.+.9XvXFXFXFXFXFXFX",
"FXFXFXFXFXFXFXFXAXZXDXC._ T W [ >.W J. .B f f u u 0 1 t 3 - - k 1 4 5 5 4 2 2 7 N 9 8 g T 7 <.l 8 g E ^ I l ~ A.kXlXBXFXFXFXFXFX",
"FXFXFXFXFXFXFXFXZXxXZ._ U g z [ c.] G V B N d 7 0 7 t 9 4 5 = = n = 1 r = n 1 3 7 1 Y u 0 p g } a.T >.%.@.U O.#.F.uXBXDXFXFXFXFX",
"FXFXFXFXFXFXFXZXxXW.v.( I g 0.} ] A N h f d 8 9 2 n n - = & = = = * $ $ = 3 6 - 9 - p 8 ..p d [ S T ;.S.}.`.#.u._.OXyXZXFXFXFXFX",
"FXFXFXFXFXFXFXZX=Xe.O.I A.I.| D N j a g u 2 7 2 1 t = 5 % = * * % ; - ; ; - % & > 6 8 g H 0 ] u d T / r. X#X(.6.m.T.&XmXFXFXFXFX",
"FXFXFXFXFXFXBXzXY.h./ U %.9.` | } h i u 2 1 2 = = 3 - = = = * , ; v % & r : m - 2 2 N u > 0 i c *.d Q 5.|.&XD.+.#.l.OXvXFXFXFXFX",
"FXFXFXFXFXFXSX-XOXL.>./ 9.J.;.Z N j d g 7 > 1 w : 1 : % 3 @ O + O o , . 3 = = % 2 2 9 1 s x u R 8 P *.3./.).+.j.U.9XaXnXFXFXFXFX",
"FXFXFXFXFXFXgXl.F.h._ E U Q A N j d i a 2 1 5 n r = % & * ; O # < b b % 3 = * 4 2 q 2 S W } Y 8 Z &.x.).).O.+.~.%XNXFXFXFXFXFXFX",
"FXFXFXFXFXrXoXA.*._ [ 0.U -.H N J F p u 4 1 e > = = v & o .       o $.% * = t = 4 1 s D i L 2 p T ^ 8.).).#.p.[.+XaXBXFXFXFXFXFX",
"FXFXFXFXrX7X[.A.*./ U L / c.;.J f f i i 0 2 2 t e % r b # .   X o X.r e = $ = = 2 7 Z 8 8 1 s B %.x.%.V.V.O.p.^.`.].uXFXFXFXFXFX",
"FXFXFXFXjXeXU.#.@.T.J.=./ W E h g d u p 2 4 k * y = + v $ O # < X.M ; $ r , & % 2 8 p 9 a 7 h R 3.U Q 0.5.@.u./.~.+XwXnXFXFXFXFX",
"FXFXFXFXjXeXk.+.L :.e.r.%.Q Z E i u u 8 > = 0 * & v $ w w M $.& r M t = - $ % 8 1 1 1 f <.p u h g f ] %.U -.1.6.i.+XwXnXFXFXFXFX",
"FXFXFXFXlX7XF.h.+.I x l i u l S ] ! a u 7 = 0 > < ; w % e ; r : v , ; & + % 1 : 4 i g i u Z 8 d C ` 9.c.6.E ) 1.p.(.yXBXFXFXFXFX",
"FXFXFXFXNXfXU.k.>.^ 6.%.>.E P %.Y a p 8 0 1 0 o.w w ; 3 w t ; t : - = k 5 5 k 0 9 d  .i g | a N G ` 7.n.g.^ 3.g./.2XnXBXFXFXFXFX",
"FXFXFXFXFXNXoXF.*.E S r.I.7.[ L E l a u u 0 8 = 4 = = & : % : + & + % % k 1 8 s 1 p j x P a j C J | 9.a.*.^ 3.^.+XvXBXFXFXFXFXFX",
"FXFXFXFXFXCX,Xj.O./ S l P S u Z u u U d d 8 k 9 q m ; + , 6 1 % . 3 % - 2 g 0 2 p s Y Z N i N G ' { =.0.~ -.y.(.%XNXFXFXFXFXFXFX",
"FXFXFXFXFXFXmXMXbX<XS g d g E <.F i z a p 2 2 0 4 1 t % - k = = - , - 7 2 d W l 9.2 u / ,.f B R ] &.7.) ) 1.M.|.3XnXFXFXFXFXFXFX",
"FXFXFXFXFXFXFXBXuX} / Q D T d.P u | p 0 7 0 1 5 4 q 1 2 9 2 % 3 > - = , 2 Z P 8 0 u h f f % q B C 8 B / -.h.*XqXCXFXFXFXFXFXFXFX",
"FXFXFXFXFXFXFXVXE.4.>.] ^ U =.E d E W z u 7 9 0 9 0 7 2 - 4 2 5 K 2 7 u 2 p 8 Z z j &.] N B B 8 } { B M.}.}.iXCXFXFXFXFXFXFXFXFX",
"FXFXFXFXFXFXFXMXh.U.v.*.E Z [ / T D h L W D P i 0 p i 7 3 a 0 1 2 2 A z l A G u g N ] 7.{ 7 ] 9.0.a.=.y.uXCXCXFXFXFXFXFXFXFXFXFX",
"FXFXFXFXFXFXFXuXG.{.G.4.} *.K.d./ { ;.] ) c Y Z 0 g u u 1 4 1 f g 7 g 9 2 H q.d h ` n.&X*.T [ 2.K.`.G.M.uXuXFXFXFXFXFXFXFXFXFXFX",
"FXFXFXFXFXFXFXiX'.'.'.L.4.T.&XI.&.R g 2 7 u u l 8 8 Z u d p 2 8 i h T 7 j f f V C G  .OX) E =.8.B.M.1X}.}.uXFXFXFXFXFXFXFXFXFXFX",
"FXFXFXFXFXFXFXvX8XyXY.*X5Xl.OXn.^ z u u -./ u i D D h U Q h 4 d ' ] l i ] R V G ` ] | q [ 7 2.y.8X1X1XqX}.iXFXFXFXFXFXFXFXFXFXFX",
"FXFXFXFXFXFXFXFXxXNXF.kX[ _ / T S h d _ [ l W T 4.k 0 7 [ D 1 S q.d j g 8.W G { { 7.c.H / 8.a.m._.}.1Xa.1XuXFXFXFXFXFXFXFXFXFXFX",
"FXFXFXFXFXFXFXFXFXvXyX6X4.4.%.=.] Y ] a.Q Q >.W h g p 8 { d 8 d N B F N f B ` 9.a.x.|.) [ 3.B.OX}.}.y.}.uXuXFXFXFXFXFXFXFXFXFXFX",
"FXFXFXFXFXFXFXFXFXFXMX$XU.F.S.u./ P W H f f f _ &.| d u } d B G H ] ] Y N P W 0.K.|.|.) =.a.B.}.}.}.}.uXuXFXFXFXFXFXFXFXFXFXFXFX",
"FXFXFXFXFXFXFXFXFXFXNX>XoXoXoX5._ >._ W W J ` s.c.z h f B A ] { } 0.,.h H W { P U K.5.*.2.p.(.M.y.}.uXnXFXFXFXFXFXFXFXFXFXFXFXFX",
"FXFXFXFXFXFXFXFXFXFXNXyX+XoXD.y.M.*.[ =.{ &.[ E N f J J H H <.n.c.I.9.Z D &.5.R.&X=.2.a.m.XX X}.8XvXnXFXFXFXFXFXFXFXFXFXFXFXFXFX",
"FXFXFXFXFXFXFXFXFXFXFXFX2XH.m.~.x.^ 3.I.z.x.[ z Z R &.[ { [ d./.|.).%.[ ) *.N.U y.}.|.9X].2XM.N.vXvXFXFXFXFXFXFXFXFXFXFXFXFXFXFX",
"FXFXFXFXFXFXFXFXFXFXFXFXlX9X[.m.6.4.u.%X].B.^ } ] &.z.9.8.0.7.z.M.*.[ y.p.p.B.oX}.y.M./.y.}.}.vXvXFXFXFXFXFXFXFXFXFXFXFXFXFXFXFX",
"FXFXFXFXFXFXFXFXFXFXFXFXnXvXjX[./.B.j.`.'.1.5.0.=.w.{.{.P.(.N.~ / [ @.p./..Xm.1XgXnX1XN.y.1XhXvXFXFXFXFXFXFXFXFXFXFXFXFXFXFXFXFX",
"FXFXFXFXFXFXFXFXFXFXFXFXFXFXzX>X`._.|.qX2XK.~.(.K.3.L.#X@X@Xh.) *.2.y.g.;X%X1XfXvXhXvXuXuXvXnXFXFXFXFXFXFXFXFXFXFXFXFXFXFXFXFXFX",
"FXFXFXFXFXFXFXFXFXFXFXFXFXFXFXzXwX0XaXvXbX%X]. X`.2.2.a.@X3X*.3.3.g.g.|.gXgXgXhXFXFXFXvXvXvXFXFXFXFXFXFXFXFXFXFXFXFXFXFXFXFXFXFX",
"FXFXFXFXFXFXFXFXFXFXFXFXFXFXFXnXnXMXvXnXNXeX`. X^.B.x.Q.gXnX9XN.g.^./.yXhXFXFXFXFXFXFXFXFXFXFXFXFXFXFXFXFXFXFXFXFXFXFXFXFXFXFXFX",
"FXFXFXFXFXFXFXFXFXFXFXFXFXFXFXFXFXFXFXFXNXvX%X+X+X#X;XbXnXFXmXiX8X8XiXjXcXFXFXFXFXFXFXFXFXFXFXFXFXFXFXFXFXFXFXFXFXFXFXFXFXFXFXFX",
"FXFXFXFXFXFXFXFXFXFXFXFXFXFXFXFXFXFXFXFXFXFXbX8X3XqXbXbXFXFXFXvXgXbXvXFXFXFXFXFXFXFXFXFXFXFXFXFXFXFXFXFXFXFXFXFXFXFXFXFXFXFXFXFX",
"FXFXFXFXFXFXFXFXFXFXFXFXFXFXFXFXFXFXFXFXFXFXMXNXvXvXFXFXFXFXFXFXFXFXFXFXFXFXFXFXFXFXFXFXFXFXFXFXFXFXFXFXFXFXFXFXFXFXFXFXFXFXFXFX",
"FXFXFXFXFXFXFXFXFXFXFXFXFXFXFXFXFXFXFXFXFXFXFXFXFXFXFXFXFXFXFXFXFXFXFXFXFXFXFXFXFXFXFXFXFXFXFXFXFXFXFXFXFXFXFXFXFXFXFXFXFXFXFXFX",
"FXFXFXFXFXFXFXFXFXFXFXFXFXFXFXFXFXFXFXFXFXFXFXFXFXFXFXFXFXFXFXFXFXFXFXFXFXFXFXFXFXFXFXFXFXFXFXFXFXFXFXFXFXFXFXFXFXFXFXFXFXFXFXFX",
"FXFXFXFXFXFXFXFXFXFXFXFXFXFXFXFXFXFXFXFXFXFXFXFXFXFXFXFXFXFXFXFXFXFXFXFXFXFXFXFXFXFXFXFXFXFXFXFXFXFXFXFXFXFXFXFXFXFXFXFXFXFXFXFX",
"FXFXFXFXFXFXFXFXFXFXFXFXFXFXFXFXFXFXFXFXFXFXFXFXFXFXFXFXFXFXFXFXFXFXFXFXFXFXFXFXFXFXFXFXFXFXFXFXFXFXFXFXFXFXFXFXFXFXFXFXFXFXFXFX",
"FXFXFXFXFXFXFXFXFXFXFXFXFXFXFXFXFXFXFXFXFXFXFXFXFXFXFXFXFXFXFXFXFXFXFXFXFXFXFXFXFXFXFXFXFXFXFXFXFXFXFXFXFXFXFXFXFXFXFXFXFXFXFXFX",
"FXFXFXFXFXFXFXFXFXFXFXFXFXFXFXFXFXFXFXFXFXFXFXFXFXFXFXFXFXFXFXFXFXFXFXFXFXFXFXFXFXFXFXFXFXFXFXFXFXFXFXFXFXFXFXFXFXFXFXFXFXFXFXFX",
"FXFXFXFXFXFXFXFXFXFXFXFXFXFXFXFXFXFXFXFXFXFXFXFXFXFXFXFXFXFXFXFXFXFXFXFXFXFXFXFXFXFXFXFXFXFXFXFXFXFXFXFXFXFXFXFXFXFXFXFXFXFXFXFX"
};
