/* XPM */
static char *Screenshot_2025_05_20_at_21_22_18_1_png1747770489[] = {
/* columns rows colors chars-per-pixel */
"64 64 198 2 ",
"   c #454339",
".  c #48483F",
"X  c #514E3E",
"o  c #59543F",
"O  c #373B46",
"+  c #7A3B4D",
"@  c #4D5047",
"#  c #5A5A4A",
"$  c #5C4D51",
"%  c #565A54",
"&  c #4B4B44",
"*  c #635A4C",
"=  c #5F6352",
"-  c #6D6E5C",
";  c #6E6756",
":  c #79685A",
">  c #6E745F",
",  c #79745E",
"<  c #686A63",
"1  c #706F63",
"2  c #6E7169",
"3  c #7E7866",
"4  c #7D7F75",
"5  c #847466",
"6  c #837D69",
"7  c #8C786C",
"8  c #93796D",
"9  c #977E75",
"0  c #E75575",
"q  c #7B857F",
"w  c #85826E",
"e  c #848472",
"r  c #888575",
"t  c #898B79",
"y  c #96877A",
"u  c #768698",
"i  c #8A8A83",
"p  c #939583",
"a  c #9D918D",
"s  c #9B9A89",
"d  c #9B9A89",
"f  c #949F91",
"g  c #A9888A",
"h  c #A79B89",
"j  c #B89587",
"k  c #A19C90",
"l  c #9CA191",
"z  c #A4A18F",
"x  c #A3A392",
"c  c #ACAC9D",
"v  c #A6A79A",
"b  c #B6A49A",
"n  c #B9A59B",
"m  c #B1AD9A",
"M  c #B3A992",
"N  c #AEB09F",
"B  c #B6B19E",
"V  c #8C9DB5",
"C  c #8EA3BE",
"Z  c #8EA2B7",
"A  c #91A6BC",
"S  c #93AABD",
"D  c #A6ABA1",
"F  c #AAACA4",
"G  c #BBABA2",
"H  c #BDA6AB",
"J  c #B5AFA0",
"K  c #AFB2A3",
"L  c #ABB2AC",
"P  c #B3B3A6",
"I  c #BAB3A3",
"U  c #B5B4AC",
"Y  c #BBB5AE",
"T  c #B5B9AB",
"R  c #BBBAAC",
"E  c #A2B6BC",
"W  c #BBB4B3",
"Q  c #BCBCBB",
"!  c #B8BAB3",
"~  c #C78EA2",
"^  c #F990AE",
"/  c #FC9DB8",
"(  c #C3AEAB",
")  c #C2BBAE",
"_  c #D0B8AC",
"`  c #CAB6B4",
"'  c #CCBBBF",
"]  c #C6B9B9",
"[  c #D9BEBD",
"{  c #BCC2B5",
"}  c #BDC1BC",
"|  c #C6C3B5",
" . c #CCC3B0",
".. c #C4C2BB",
"X. c #CFCABF",
"o. c #CAC3BC",
"O. c #97ADCA",
"+. c #95ABC4",
"@. c #96B1C6",
"#. c #9CB2D3",
"$. c #A2B4D4",
"%. c #A0B5DA",
"&. c #A6BCDE",
"*. c #A8BBD5",
"=. c #A6BEE5",
"-. c #D4BBC1",
";. c #F7B1CE",
":. c #BDC3C1",
">. c #AAC2E6",
",. c #ACC4EC",
"<. c #B8C7EF",
"1. c #B2C5F4",
"2. c #B5CAF4",
"3. c #B8C7F9",
"4. c #B4CBFB",
"5. c #BBCDFB",
"6. c #BBCBF3",
"7. c #BBD1FE",
"8. c #C3C4C4",
"9. c #CEC2C5",
"0. c #C6C9C5",
"q. c #C3C4CC",
"w. c #C7CBCC",
"e. c #C8CBCC",
"r. c #CAC5C8",
"t. c #D2CBCE",
"y. c #DBCBCF",
"u. c #D5C6CA",
"i. c #CEC5D3",
"p. c #D0C5D3",
"a. c #D2CBD4",
"s. c #DCCAD5",
"d. c #D4CBDB",
"f. c #DCCEDA",
"g. c #D8C6D0",
"h. c #CED2D2",
"j. c #D4D3D5",
"k. c #DAD3D3",
"l. c #D8D7DA",
"z. c #D8D3CB",
"x. c #E1C5CF",
"c. c #E3CDD3",
"v. c #EBCED2",
"b. c #E1CDDB",
"n. c #E1C4D2",
"m. c #F1CFDA",
"M. c #EBD3D4",
"N. c #E5D3DC",
"B. c #EAD3DB",
"V. c #EFD8DC",
"C. c #F6D7DB",
"Z. c #CED7EF",
"A. c #DBD8E3",
"S. c #C6CCFC",
"D. c #C3D4FE",
"F. c #CBD4FE",
"G. c #C6DAFE",
"H. c #CCDCFE",
"J. c #C0D2F4",
"K. c #D2DEFE",
"L. c #DADEFE",
"P. c #ECD3E4",
"I. c #E6DDE7",
"U. c #ECDBE6",
"Y. c #EED7E9",
"T. c #E5D8E6",
"R. c #F4D5E5",
"E. c #F5DAE4",
"W. c #F4DCED",
"Q. c #FADDEB",
"!. c #F8D8E6",
"~. c #F5DBF1",
"^. c #FCDEF3",
"/. c #FBDEF8",
"(. c #CFE0FF",
"). c #D4E3FE",
"_. c #DBE6FE",
"`. c #D7E8FE",
"'. c #DDE9FE",
"]. c #DBE2E8",
"[. c #EAE0EA",
"{. c #E2E6FE",
"}. c #E3ECFE",
"|. c #E9EEFE",
" X c #E9E6FB",
".X c #F6E1F4",
"XX c #FCE2F5",
"oX c #F4E3FD",
"OX c #FDE5FA",
"+X c #FDEAFC",
"@X c #F3ECFA",
"#X c #E7F0FE",
"$X c #EDF2FE",
"%X c #F3F6FE",
"&X c #FDF4FD",
"*X c #F6F9FE",
"=X c #FBFCFE",
"-X c None",
/* pixels */
"-X-X-X-X-X-X-X-X-X-X-X-X-X-X-X-X-X-X-X-X-X-X-X-X-X-X-X-X-X-X-X-X-X-X-X-X-X-X-X-X-X-X-X-X-X-X-X-X-X-X-X-X-X-X-X-X-X-X-X-X-X-X-X-X",
"-X-X-X-X-X-X-X-X-X-X-X-X-X-X-X-X-X-X-X-X-X-X-X-X-X-X-X-X-X-X-X-X-X-X-X-X-X-X-X-X-X-X-X-X-X-X-X-X-X-X-X-X-X-X-X-X-X-X-X-X-X-X-X-X",
"-X-X-X-X-X-X-X-X-X-X-X-X-X-X-X-X-X-X-X-X-X-X-X-X-X-X-X-X-X-X-X-X-X-X-X-X-X-X-X-X-X-X-X-X-X-X-X-X-X-X-X-X-X-X-X-X-X-X-X-X-X-X-X-X",
"-X-X-X-X-X-X-X-X-X-X-X-X-X-X-X-X-X-X-X-X-X-X-X-X-X-X-X-X-X-X-X-X-X-X-X-X-X-X-X-X-X-X-X-X-X-X-X-X-X-X-X-X-X-X-X-X-X-X-X-X-X-X-X-X",
"-X-X-X-X-X-X-X-X-X-X-X-X-X-X-X-X-X-X-X-X-X-X-X-X-X-X-X-X-X-X-X-X-X-X-X-X-X-X-X-X-X-X-X-X-X-X-X-X-X-X-X-X-X-X-X-X-X-X-X-X-X-X-X-X",
"-X-X-X-X-X-X-X-X-X-X-X-X-X-X-X-X-X-X-X-X-X-X-X-X-X-X-X-X-X-X-X-X-X-X-X-X-X-X-X-X-X-X-X-X-X-X-X-X-X-X-X-X-X-X-X-X-X-X-X-X-X-X-X-X",
"-X-X-X-X-X-X-X-X-X-X-X-X-X-X-X-X-X-X-X-X-X-X-X-X-X-X-X-X-X-X-Xx P { | -X-X-X-X-X-X-X-X-X-X-X-X-X-X-X-X-X-X-X-X-X-X-X-X-X-X-X-X-X",
"-X-X-X-X-X-X-X-X-X-X-X-X-X-X-X-X-X-X-X-X-X-X-X-X-X-X-X-X-X-Xp t t , M  .N -X-X-X-X-X-X-X-X-X-X-X-X-X-X-X-X-X-X-X-X-X-X-X-X-X-X-X",
"-X-X-X-X-X-X-X-X-X-X-X-X-X-X-X-X-X-X-X-X-X-X-X-X-X-X-X-X-X-Xo q u z.) ) B 2 -X-X-X-X-X-X-X-X-X-X-X-X-X-X-X-X-X-X-X-X-X-X-X-X-X-X",
"-X-X-X-X-X-X-X-X-X-X-X-X-X-X-X-X-X-X-X-X-X-X-X-X-X-X-X-X-X} h.X.M P c z T R D -X-X-X-X-X-X-X-X-X-X-X-X-X-X-X-X-X-X-X-X-X-X-X-X-X",
"-X-X-X-X-X-X-X-X-X-X-X-X-X-X-X-X-X-X-X-X-X-X-X-X-X-X-X-X-X..T R y v c x f M l.-X-X-X-X-X-X-X-X-X-X-X-X-X-X-X-X-X-X-X-X-X-X-X-X-X",
"-X-X-X-X-X-X-X-X-X-X-X-X-X-X-X-X-X-X-X-X-X-X-X-X-X-X-X-XU :.0.c x d m d v ! v 8.-X-X-X-X-X-X-X-X-X-X-X-X-X-X-X-X-X-X-X-X-X-X-X-X",
"-X-X-X-X-X-X-X-X-X-X-X-X-X-X-X-X-X-X-X-X-X-X-X-X-X-X-X-XQ } l { N x { d L ! T U q.-X-X-X-X-X-X-X-X-X-X-X-X-X-X-X-X-X-X-X-X-X-X-X",
"-X-X-X-X-X-X-X-X-X-X-X-X-X-X-X-X-X-X-X-X-X-X-X-X-X-X-X].} :.0.:.h.].l.k.a.a.8.e.q.0.-X-X-X-X-X-X-X-X-X-X-X-X-X-X-X-X-X-X-X-X-X-X",
"-X-X-X-X-X-X-X-X-X-X-X-X-X-X-X-X-X-X-X-X-X-X-X-X-X-X-Xw.9.R ] T z.V.c.M.C.C.z.U j.A.-X-X-X-X-X-X-X-X-X-X-X-X-X-X-X-X-X-X-X-X-X-X",
"-X-X-X-X-X-X-X-X-X-X-X-X-X-X-X-X-X-X-X-X-X-X-X-X-X-Xw.o.Y o.I c.E.Q.XXXXOXQ.E.H H T.I.-X-X-X-X-X-X-X-X-X-X-X-X-X-X-X-X-X-X-X-X-X",
"-X-X-X-X-X-X-X-X-X-X-X-X-X-X-X-X-X-X-X-X-X-X-X-X-Xe.l.F o._ g.B.E.W.XX+X+XXXQ.V.[. .[.1 -X-X-X-X-X-X-X-X-X-X-X-X-X-X-X-X-X-X-X-X",
"-X-X-X-X-X-X-X-X-X-X-X-X-X-X-X-X-X-X-X-X-X-X-X-XE :.| F ) r.s.R.W.XXOX&X&X+XXXQ.M.H U.X.-X-X-X-X-X-X-X-X-X-X-X-X-X-X-X-X-X-X-X-X",
"-X-X-X-X-X-X-X-X-X-X-X-X-X-X-X-X-X-X-X-X-X-X-X-XP j.W z H g.P.U.W.XXOX&X&X+XXX^.E.z. .1 -X-X-X-X-X-X-X-X-X-X-X-X-X-X-X-X-X-X-X-X",
"-X-X-X-X-X-X-X-X-X-X-X-X-X-X-X-X-X-X-X-X-X-X-X-Xp e.T r Q f.f.Y.W.XXXXXX+X+XOXOXXXH l.I.-X-X-X-X-X-X-X-X-X-X-X-X-X-X-X-X-X-X-X-X",
"-X-X-X-X-X-X-X-X-X-X-X-X-X-X-X-X-X-X-X-X-X-X-X-Xp w.T r OXOXd.Y.W.Q.^.OXXX+XOXOXXXM.j. X-X-X-X-X-X-X-X-X-X-X-X-X-X-X-X-X-X-X-X-X",
"-X-X-X-X-X-X-X-X-X-X-X-X-X-X-X-X-X-X-X-X-X-X-Xf r e.U  .j n j  .X.Q.^.XXR. .j b b | H q.-X-X-X-X-X-X-X-X-X-X-X-X-X-X-X-X-X-X-X-X",
"-X-X-X-X-X-X-X-X-X-X-X-X-X-X-X-X-X-X-X-X-X-X-Xp v Q e OXOXa H OX` s.W.XXB.OXH a OXc.H q.Y -X-X-X-X-X-X-X-X-X-X-X-X-X-X-X-X-X-X-X",
"-X-X-X-X-X-X-X-X-X-X-X-X-X-X-X-X-X-X-X-X-X-X-X-Xw W P : O 3.O *Xv.] E..Xn.3.O *XO : M.e  .-X-X-X-X-X-X-X-X-X-X-X-X-X-X-X-X-X-X-X",
"-X-X-X-X-X-X-X-X-X-X-X-X-X-X-X-X-X-X-X-X-X-X-X-Xe F T XXG g -.$ g.-.~.+Xm.$ p.~ G +XH ) M.-X-X-X-X-X-X-X-X-X-X-X-X-X-X-X-X-X-X-X",
"-X-X-X-X-X-X-X-X-X-X-X-X-X-X-X-X-X-X-X-X-X-X-X-X-Xq W a.P.P.Y.~./.s.OX+XOXY.W.^.OXG C.X. .-X-X-X-X-X-X-X-X-X-X-X-X-X-X-X-X-X-X-X",
"-X-X-X-X-X-X-X-X-X-X-X-X-X-X-X-X-X-X-X-X-X-X-X-X-X-XJ p.G ^.OXOX~.i.~.+XOXOXOX+XOX+X@Xq. .-X-X-X-X-X-X-X-X-X-X-X-X-X-X-X-X-X-X-X",
"-X-X-X-X-X-X-X-X-X-X-X-X-X-X-X-X-X-X-X-X-X-X-X-X-X-X> d.s.!.OX^.P.-.E.OXXX^.OXOXXXG z.Y X.-X-X-X-X-X-X-X-X-X-X-X-X-X-X-X-X-X-X-X",
"-X-X-X-X-X-X-X-X-X-X-X-X-X-X-X-X-X-X-X-X-X-X-X-X-X-Xi d.u.P.^.^.-.G R.XXXXW.XXOXOXOX/ r W -X-X-X-X-X-X-X-X-X-X-X-X-X-X-X-X-X-X-X",
"-X-X-X-X-X-X-X-X-X-X-X-X-X-X-X-X-X-X-X-X-X-X-X-X-X-Xe % p.f.~.Q.P.a ` -.XX.X^.XXOXH j.W q.-X-X-X-X-X-X-X-X-X-X-X-X-X-X-X-X-X-X-X",
"-X-X-X-X-X-X-X-X-X-X-X-X-X-X-X-X-X-X-X-X-X-X-X-X-X-X; % d.d.b.s.^.b./.OXOXXX^.XXOXG  .t.Y -X-X-X-X-X-X-X-X-X-X-X-X-X-X-X-X-X-X-X",
"-X-X-X-X-X-X-X-X-X-X-X-X-X-X-X-X-X-X-X-X-X-X-X-X-X-X< .   i.f.u.+ =X*X=X+ ( XXOXF p K Y  .-X-X-X-X-X-X-X-X-X-X-X-X-X-X-X-X-X-X-X",
"-X-X-X-X-X-X-X-X-X-X-X-X-X-X-X-X-X-X-X-X-X-X-X-X-X-XX * . r.p.s.P.0 ^ / ;.~..XH r k h r X.-X-X-X-X-X-X-X-X-X-X-X-X-X-X-X-X-X-X-X",
"-X-X-X-X-X-X-X-X-X-X-X-X-X-X-X-X-X-X-X-X-X-X-X-X-X- - *.i < i.q.B.W W Y.OXOXoXe U z h Y 1 -X-X-X-X-X-X-X-X-X-X-X-X-X-X-X-X-X-X-X",
"-X-X-X-X-X-X-X-X-X-X-X-X-X-X-X-X-X-X-X-X-X-X-X-X-X# # K.< ; 6 9.i.Y.Q.~.OX/.Y p.t.I X.r M.-X-X-X-X-X-X-X-X-X-X-X-X-X-X-X-X-X-X-X",
"-X-X-X-X-X-X-X-X-X-X-X-X-X-X-X-X-X-X-X-X-X-X-X-X- 3 @ K.F.* 3 5 9 d.P.~.' M.r H H t.1 1 X.-X-X-X-X-X-X-X-X-X-X-X-X-X-X-X-X-X-X-X",
"-X-X-X-X-X-X-X-X-X-X-X-X-X-X-X-X-X-X-X-X-X-X-Xt w & J.'.}.%X: 5 8 9 y G M.v._ =X%X( H Y r -X-X-X-X-X-X-X-X-X-X-X-X-X-X-X-X-X-X-X",
"-X-X-X-X-X-X-X-X-X-X-X-X-X-X-X-X-X-X-X-X-X-X-X6 2 6.$X#X$X$X=X5 7 8 n M.G v.=X=X=X%XH t.1 M.-X-X-X-X-X-X-X-X-X-X-X-X-X-X-X-X-X-X",
"-X-X-X-X-X-X-X-X-X-X-X-X-X-X-X-X-X-X-X-X-X-X%X*X*X*X%X*X$X$X=X=Xg ` m.C.m.=X=X=X=X=X=XH t.X.-X-X-X-X-X-X-X-X-X-X-X-X-X-X-X-X-X-X",
"-X-X-X-X-X-X-X-X-X-X-X-X-X-X-X-X-X-X-X*X%X%X=X*X&X*X*X*X%X$X*X=X=X=XW.%X=X=X=X=X=X=X=X=X=XX.-X-X-X-X-X-X-X-X-X-X-X-X-X-X-X-X-X-X",
"-X-X-X-X-X-X-X-X-X-X-X-X-X-X-X-X-X-X*X=X=X=X*X*X*X%X=X<.*X%X=X=X=X=X$X=X=X=X=X=X=X=X=X=X*X*X2 -X-X-X-X-X-X-X-X-X-X-X-X-X-X-X-X-X",
"-X-X-X-X-X-X-X-X-X-X-X-X-X-X-X-X-X*X*X=X=X=X=X=X=X*X*X=X=X=X=X*X=X=X*X=X{.=X=X=X=X=X=X=X=X%X*X-X-X-X-X-X-X-X-X-X-X-X-X-X-X-X-X-X",
"-X-X-X-X-X-X-X-X-X-X-X-X-X-X-X|.=X=X=X=X=X*X*X=X*X=X&X=X<.*X=X=X=X=X$X=XL.S.=X=X=X=X=X=X=X%X*X%X-X-X-X-X-X-X-X-X-X-X-X-X-X-X-X-X",
"-X-X-X-X-X-X-X-X-X-X-X-X-X-X#X%X=X=X*X=X=X=X=X*X=X*X=X=X<.*X=X=X=X=X=X=X=XL.L.=X=X=X=X=X=X%X*X%X%X-X-X-X-X-X-X-X-X-X-X-X-X-X-X-X",
"-X-X-X-X-X-X-X-X-X-X-X-X-X-X#X}.*X=X*X=X*X*X=X*X=X=X*X=X{.&X=X=X=X=X=X=X=X=XZ.|.=X=X=X=X*X%X*X*X%X%X-X-X-X-X-X-X-X-X-X-X-X-X-X-X",
"-X-X-X-X-X-X-X-X-X-X-X-X-X}.{.|.}.*X*X*X=X*X=X=X*X=X*X=X=X=X=X=X=X*X=X=X=X=X=X=X=X=X=X*X=X%X%X*X%X%X-X-X-X-X-X-X-X-X-X-X-X-X-X-X",
"-X-X-X-X-X-X-X-X-X-X-X-X-X}.{.#X#X$X*X*X=X*X*X&X*X=X*X=X=X=X=X&X=X=X=X=X=X=X=X=X=X=X=X=X*X%X%X*X%X%X-X-X-X-X-X-X-X-X-X-X-X-X-X-X",
"-X-X-X-X-X-X-X-X-X-X-X-X_.'.|._.H.}.$X=X*X=X%X*X*X&X*X=X=X=X%X=X=X=X=X=X=X=X=X=X=X=X=X=X=X%X%X%X%X$X%X-X-X-X-X-X-X-X-X-X-X-X-X-X",
"-X-X-X-X-X-X-X-X-X-X-X-X}.}.}.#X*XF.|.%X%X*X*X*X=X*X*X=X=X=X=X%X=X=X=X=X*X*X*X=X*X*X=X=X*X$X%X%X$X$X%X%X-X-X-X-X-X-X-X-X-X-X-X-X",
"-X-X-X-X-X-X-X-X-X-X-X).(.{.{.).|.}.).}.%X%X*X*X*X=X=X%X=X=X&X%X=X=X=X=X&X%X*X=X=X*X=X*X*X$X%X$X$X%X%X$X-X-X-X-X-X-X-X-X-X-X-X-X",
"-X-X-X-X-X-X-X-X-X-X-X_.(.%X}.$X|.{.}._.}.$X*X*X=X*X=X*X%X=X=X*X=X=X%X=X=X%X%X%X*X*X*X*X%X$X%X%X$X$X$X$X$X-X-X-X-X-X-X-X-X-X-X-X",
"-X-X-X-X-X-X-X-X-X-XG.{.(.).%X_.}.`.|.$X}.|.@X*X%X*X%X=X=X*X=X=X=X=X=X=X*X%X%X&X*X%X*X*X$X$X%X%X$X#X#X$X#X-X-X-X-X-X-X-X-X-X-X-X",
"-X-X-X-X-X-X-X-X-X-XG.)._.}._.%X).3._.#X$X|.|.%X%X*X*X*X=X=X=X*X=X=X=X=X*X%X%X*X*X%X%X*X$X%X%X$X#X$X#X#X#X$X-X-X-X-X-X-X-X-X-X-X",
"-X-X-X-X-X-X-X-X-X-XH._.'.}.|.).}.2.6.H.$X%X%X$X%X=X%X%X*X%X%X=X%X=X=X=X%X%X%X%X%X%X%X%X#X%X%X#X#X$X}.}.#X}.#X-X-X-X-X-X-X-X-X-X",
"-X-X-X-X-X-X-X-X-XH.K.).}.{.{.{.K.*.$.,.<.}.}.$X%X%X=X=X%X%X*X%X%X=X=X=X%X%X%X%X%X_.*X=X*X*X$X#X#X}.}.}.}.}.'.}.-X-X-X-X-X-X-X-X",
"-X-X-X-X-X-X-X-X-X(.H.).}.'._._.D.Z V #.2.H.%X#X$X%X%X%X%X%X%X%X=X%X%X=X$X$X@X%X|.$X*X=X*X*X%X}.`.'._.}.}.}.}.'.-X-X-X-X-X-X-X-X",
"-X-X-X-X-X-X-X-X'.H.).).'.{.#X}.D.u u =.2.D.'.'.|.%X%X%X%X*X%X$X=X=X*X=X$X%X$X@X$X$X=X*X=X*X%X#XK._.H._.'.}.'.'.-X-X-X-X-X-X-X-X",
"-X-X-X-X-X-X-X$.).#X).).'.K.).H.+.-X-X&.,.5.G.).}.|.$X%X%X$X%X$X*X=X*X*X}.}.}.#X|.#X*X%X%X%X$X}.D.5.D.).`.'.'.'.-X-X-X-X-X-X-X-X",
"-X-X-X-X-X-X-X=XG.'.}.#X{.'.).K.-X-X-X#.>.4.G.(.).}.}.$X$X$X%X$X=X*X=X*X|.|.}.#X#X_.%X$X#X$X}.@.3.D.7.D.H.`.`.'.-X-X-X-X-X-X-X-X",
"-X-X-X-X-X-X-X$.`.`.'.#X#X$X#XK.-X-X-X#.>.>.4.H.K.)._.}.}.|.|.#X=X*X*X*X}.#X|.}.'.$X%X#X#X#X).+.$.H.).D.G.H.(.(.'.-X-X-X-X-X-X-X",
"-X-X-X-X-X-X-X-Xn ).}.}.'.).H.5.-X-X-XO.&.>.2.D.G.K.).'.'.).).K.}.%X$X|._._.K.).).|.#X}.#X}.S -XS %.`._.G.G.(.'.'.`.-X-X-X-X-X-X",
"-X-X-X-X-X-X-Xj +Xv.n Z._.H.G.-X-X-X-XC &.=.7.4.1.G.).K.}.}._._.#X).$XK.H.H.K.K.H.2.}.}.}.).-X-XA #.1.5.(.'.`.`.`.`.-X-X-X-X-X-X",
"-X-X-X-X-X-X-Xn v.+XOXn n -X-X-X-X-X-XA &.#.7.4.1.D.K._.Z.}.}.).}.}.)._.).).).H.H.H.).).'.).-X-X-X#.=.7.G.(.).).G.T -X-X-X-X-X-X",
"-X-X-X-X-X-Xn v.+XOX+Xv.-X-X-X-X-X-X-X-X-XO.7.4.7.7.G._.(.G.{.'.}.#X'.H.).K.H.G.(.H.(.G.(.).-X-X-XC =.4.7.G.7.D P U P -X-X-X-X-X"
};
