/* XPM */
static char *hyeju_classic_1_png1747768767[] = {
/* columns rows colors chars-per-pixel */
"64 64 222 2 ",
"   c #12161D",
".  c #13191F",
"X  c #161B23",
"o  c #1A1D25",
"O  c #1A1F29",
"+  c #141A24",
"@  c #201F25",
"#  c #1B2126",
"$  c #1D222C",
"%  c #19222C",
"&  c #1E2631",
"*  c #1F2832",
"=  c #1D2A3A",
"-  c #22252D",
";  c #2B2A2E",
":  c #27262C",
">  c #31272B",
",  c #312827",
"<  c #222631",
"1  c #232A34",
"2  c #2B2C34",
"3  c #262D39",
"4  c #2A2F3B",
"5  c #282731",
"6  c #322E32",
"7  c #2B323D",
"8  c #28313A",
"9  c #33343D",
"0  c #38373A",
"q  c #463B39",
"w  c #563434",
"e  c #58423B",
"r  c #604A3F",
"t  c #2C3442",
"y  c #2E3944",
"u  c #2E3C4B",
"i  c #293444",
"p  c #333643",
"a  c #333A45",
"s  c #3A3B45",
"d  c #343D4B",
"f  c #3A3F4B",
"g  c #303749",
"h  c #343E51",
"j  c #373E55",
"k  c #473C42",
"l  c #36414E",
"z  c #3B424E",
"x  c #364253",
"c  c #3B4353",
"v  c #3E4954",
"b  c #3E4A5B",
"n  c #3A4659",
"m  c #3F4F62",
"M  c #464348",
"N  c #564948",
"B  c #424553",
"V  c #434A55",
"C  c #4B4B54",
"Z  c #434C5C",
"A  c #4C4D5C",
"S  c #40475B",
"D  c #4D535D",
"F  c #46515F",
"G  c #55535A",
"H  c #534C53",
"J  c #69595A",
"K  c #6C5349",
"L  c #7D6458",
"P  c #444E62",
"I  c #4A4E64",
"U  c #445264",
"Y  c #4B5464",
"T  c #45556B",
"R  c #4C546B",
"E  c #4D5A6E",
"W  c #4C5A67",
"Q  c #515663",
"!  c #515B6A",
"~  c #595A68",
"^  c #4C5C73",
"/  c #4D5975",
"(  c #515E74",
")  c #454D71",
"_  c #7F5E65",
"`  c #5C646F",
"'  c #536175",
"]  c #5A6373",
"[  c #54647B",
"{  c #5B667C",
"}  c #796B68",
"|  c #636B7B",
" . c #646A75",
".. c #766C72",
"X. c #6E767E",
"o. c #787379",
"O. c #676467",
"+. c #86726D",
"@. c #CA5877",
"#. c #E55374",
"$. c #9D817E",
"%. c #96837D",
"&. c #5B6B83",
"*. c #5E6C8A",
"=. c #646E82",
"-. c #656C88",
";. c #697287",
":. c #697494",
">. c #737B99",
",. c #696F92",
"<. c #737CA1",
"1. c #A37F87",
"2. c #8D7C87",
"3. c #EE6C95",
"4. c #E95B85",
"5. c #73829B",
"6. c #7986A6",
"7. c #7E8CB4",
"8. c #96888E",
"9. c #878A98",
"0. c #938990",
"q. c #A58B87",
"w. c #A5999A",
"e. c #A99294",
"r. c #B6A19E",
"t. c #848AA8",
"y. c #8C96A6",
"u. c #868DB5",
"i. c #8B94B4",
"p. c #8B94B8",
"a. c #9296BE",
"s. c #949BBA",
"d. c #AC9EA7",
"f. c #B39EA4",
"g. c #B7A5A8",
"h. c #BBADB6",
"j. c #B7ACAF",
"k. c #C6A8AD",
"l. c #C6ADB7",
"z. c #C9B2B7",
"x. c #D2B5BA",
"c. c #D7BABA",
"v. c #D1AEB4",
"b. c #969DC6",
"n. c #8E96C4",
"m. c #99A5C7",
"M. c #9BA6D4",
"N. c #A4AACD",
"B. c #A5ABD3",
"V. c #A6B3D2",
"C. c #ADB3DB",
"Z. c #ACB2D5",
"A. c #B5BCDD",
"S. c #B8B9D8",
"D. c #B6BEE2",
"F. c #CAB7C3",
"G. c #DBBCC4",
"H. c #D2BDCA",
"J. c #DDBDCB",
"K. c #D3BBC6",
"L. c #D4BED1",
"P. c #EEB4CA",
"I. c #BBC3DE",
"U. c #BDC4E4",
"Y. c #BBC6E8",
"T. c #D9C1CD",
"R. c #C3C7DD",
"E. c #DCC3D3",
"W. c #D9C6D7",
"Q. c #E3C5CB",
"!. c #E3C4D3",
"~. c #E5CCDC",
"^. c #ECCDDD",
"/. c #E9C9D5",
"(. c #F2CAD9",
"). c #EBD0DF",
"_. c #F7D7DF",
"`. c #C2C5E3",
"'. c #C3CAE5",
"]. c #C9CCE8",
"[. c #CDD3EB",
"{. c #C9D2EA",
"}. c #D3D4EB",
"|. c #D5DAED",
" X c #DADBED",
".X c #D8D6E9",
"XX c #DBDEF1",
"oX c #D3D8F2",
"OX c #CDD0ED",
"+X c #E9CEE1",
"@X c #F3CFE1",
"#X c #EDD3E3",
"$X c #E4DCED",
"%X c #F3D4E4",
"&X c #F9D4E5",
"*X c #F4D9E7",
"=X c #F5DBEA",
"-X c #FADCEB",
";X c #F6D7E8",
":X c #DEE2EE",
">X c #DEE1F4",
",X c #E3E2EE",
"<X c #E9E6EF",
"1X c #F6E2EE",
"2X c #F9E2ED",
"3X c #E5E5F3",
"4X c #E9E6F3",
"5X c #E6E9F4",
"6X c #EDECF5",
"7X c #EDEEF8",
"8X c #E2E3FC",
"9X c #F2EEF5",
"0X c #F7E9F3",
"qX c #EEF0F5",
"wX c #EEF1F9",
"eX c #F2F1F7",
"rX c #F4F4FA",
"tX c #F9F6FC",
"yX c #F7F9FC",
"uX c #FBFCFE",
"iX c #FDF2F7",
"pX c None",
/* pixels */
"pXpXpXpXpXpXpXpXpXpXpXpXpXpXpXpXpXpXpXpXpXpXpXpXpXpXpXpXpXpXpXpXpXpXpXpXpXpXpXpXpXpXpXpXpXpXpXpXpXpXpXpXpXpXpXpXpXpXpXpXpXpXpXpX",
"pXpXpXpXpXpXpXpXpXpXpXpXpXpXpXpXpXpXpXpXpXpXpXpXpXpXpXpXpXpX> X.1 pXpXpXpXpXpXpXpXpXpXpXpXpXpXpXpXpXpXpXpXpXpXpXpXpXpXpXpXpXpXpX",
"pXpXpXpXpXpXpXpXpXpXpXpXpXpXpXpXpXpXpXpXpXpXpXpXpXpXpXpXpXpX= # % 7 pXpXpXpXpXpXpXpXpXpXpXpXpXpXpXpXpXpXpXpXpXpXpXpXpXpXpXpXpXpX",
"pXpXpXpXpXpXpXpXpXpXpXpXpXpXpXpXpXpXpXpXpXpXpXpXpXpXpXpXpXG = X.& l m pX7 > V pXpXpXpXpXpXpXpXpXpXpXpXpXpXpXpXpXpXpXpXpXpXpXpXpX",
"pXpXpXpXpXpXpXpXpXpXpXpXpXpXpXpXpXpXpXpXpXpXpXpXpXpXpXpX> [ l % v l 8 , l . * b pXpXpXpXpXpXpXpXpXpXpXpXpXpXpXpXpXpXpXpXpXpXpXpX",
"pXpXpXpXpXpXpXpXpXpXpXpXpXpXpXpXpXpXpXpXpXpXpXpXpXpXpX> X [ y % l l 8 * i X.= 7 E pXpXpXpXpXpXpXpXpXpXpXpXpXpXpXpXpXpXpXpXpXpXpX",
"pXpXpXpXpXpXpXpXpXpXpXpXpXpXpXpXpXpXpXpXpXpXpXpXpXpXE ^ { l l l ` y 7 y l v y 8 l | pXpXpXpXpXpXpXpXpXpXpXpXpXpXpXpXpXpXpXpXpXpX",
"pXpXpXpXpXpXpXpXpXpXpXpXpXpXpXpXpXpXpXpXpXpXpXpXpX;.n n G ' U u W ` X.9.y.D 7 a l T &.pXpXpXpXpXpXpXpXpXpXpXpXpXpXpXpXpXpXpXpXpX",
"pXpXpXpXpXpXpXpXpXpXpXpXpXpXpXpXpXpXpXpXpXpXpXpXl b &.l ' | D C ..o.j.j.X. .9 l Z W [ pXpXpXpXpXpXpXpXpXpXpXpXpXpXpXpXpXpXpXpXpX",
"pXpXpXpXpXpXpXpXpXpXpXpXpXpXpXpXpXpXpXpXpXpXpXpXa l b F l V r.z.Q.~.$X).z.+.G { | { &.:.pXpXpXpXpXpXpXpXpXpXpXpXpXpXpXpXpXpXpXpX",
"pXpXpXpXpXpXpXpXpXpXpXpXpXpXpXpXpXpXpXpXpXpXpX7 < Z 7 = v r.T./._.*X1X*X).c.e.M ' ] { &.pXpXpXpXpXpXpXpXpXpXpXpXpXpXpXpXpXpXpXpX",
"pXpXpXpXpXpXpXpXpXpXpXpXpXpXpXpXpXpXpXpXpXpXpX9 3 n 3 1 w.z./.#X#X*X1X0X0X).x.M l W [ ^ ;.pXpXpXpXpXpXpXpXpXpXpXpXpXpXpXpXpXpXpX",
"pXpXpXpXpXpXpXpXpXpXpXpXpXpXpXpXpXpXpXpXpXpXv & v l %  .h.T.~.#X*X1X2X0X0X1X).K.6 v U F *.pXpXpXpXpXpXpXpXpXpXpXpXpXpXpXpXpXpXpX",
"pXpXpXpXpXpXpXpXpXpXpXpXpXpXpXpXpXpXpXpXpXpX0 < * & 7 8.T.W.#X*X#X*X1XiXiX1X*X^.o.D c W ' pXpXpXpXpXpXpXpXpXpXpXpXpXpXpXpXpXpXpX",
"pXpXpXpXpXpXpXpXpXpXpXpXpXpXpXpXpXpXpXpXpXpX< % V l l w.W.#X#X;X*X*X1X0X0X0X2X*Xg.D V a W | pXpXpXpXpXpXpXpXpXpXpXpXpXpXpXpXpXpX",
"pXpXpXpXpXpXpXpXpXpXpXpXpXpXpXpXpXpXpXpXpXpXo - $ z z j.W.*X#X%X*X*X*X*X*X#X1X*XT.0 | u y V pXpXpXpXpXpXpXpXpXpXpXpXpXpXpXpXpXpX",
"pXpXpXpXpXpXpXpXpXpXpXpXpXpXpXpXpXpXpXpXpXM X # 4 p V N q.$.+.v.+X#X*XG.k.1.+.k.$.G y v 7 A pXpXpXpXpXpXpXpXpXpXpXpXpXpXpXpXpXpX",
"pXpXpXpXpXpXpXpXpXpXpXpXpXpXpXpXpXpXpXpXpX; $ $ < 9 ~ e.k.l.%X(.G.#X;X(.P.c.v./.~.J p C 1  .pXpXpXpXpXpXpXpXpXpXpXpXpXpXpXpXpXpX",
"pXpXpXpXpXpXpXpXpXpXpXpXpXpXpXpXpXpXpXpXpX- $ 2 t ( 2.+.q k n.P.G.=X2X!.K 5 a.q e.+.6 9 < G pXpXpXpXpXpXpXpXpXpXpXpXpXpXpXpXpXpX",
"pXpXpXpXpXpXpXpXpXpXpXpXpXpXpXpXpXpXpXpX~ 5 # s j k h.F.v.x.J.@XE.*X-X-XJ.J.;X@X;Xl.7 M l M pXpXpXpXpXpXpXpXpXpXpXpXpXpXpXpXpXpX",
"pXpXpXpXpXpXpXpXpXpXpXpXpXpXpXpXpXpXpXpXH 5 O 2 2 k 2.J.%X*X-X;XE.;X-X0X1X-X=X-X;XE.2 ~ 5 G pXpXpXpXpXpXpXpXpXpXpXpXpXpXpXpXpXpX",
"pXpXpXpXpXpXpXpXpXpXpXpXpXpXpXpXpXpXpXpX0 - - 5 Z 0 0.~.&X=X1X@Xx.-X2X-X0X1X0X2X;X^.0 0.7 a pXpXpXpXpXpXpXpXpXpXpXpXpXpXpXpXpXpX",
"pXpXpXpXpXpXpXpXpXpXpXpXpXpXpXpXpXpXpXpXs < 4 7 c 4 ..J.&X-X-XE.x.-X-X&X&X-X2X2X;X^.. G G c 9.pXpXpXpXpXpXpXpXpXpXpXpXpXpXpXpXpX",
"pXpXpXpXpXpXpXpXpXpXpXpXpXpXpXpXpXpXpXpX9 s V - I C H l.(.&X-X$.r._.&X-X^.&X-X-X&XJ.- ; ;.7  .pXpXpXpXpXpXpXpXpXpXpXpXpXpXpXpXpX",
"pXpXpXpXpXpXpXpXpXpXpXpXpXpXpXpXpXpXpXpX7 - ` V W 1 M g./.;X;X/.G.c.;X2X-X%X&X&X@Xx.% 2 o.V ~ pXpXpXpXpXpXpXpXpXpXpXpXpXpXpXpXpX",
"pXpXpXpXpXpXpXpXpXpXpXpXpXpXpXpXpXpXpXpX9 $ D p | c s 8.H.^.H.J.#.3.P.J.2X;X%X&X~.< + z C f ] pXpXpXpXpXpXpXpXpXpXpXpXpXpXpXpXpX",
"pXpXpXpXpXpXpXpXpXpXpXpXpXpXpXpXpXpXpXpX2 ~ B B !  .$ ..F./.1.L 4XuXyX@.w J.;X#XE.X o s G z f pXpXpXpXpXpXpXpXpXpXpXpXpXpXpXpXpX",
"pXpXpXpXpXpXpXpXpXpXpXpXpXpXpXpXpXpXpXpX6 ~ D p j ( p M e.Q.^.@.#.3.#.3.P.*X%X~.1 a # s A 7 B pXpXpXpXpXpXpXpXpXpXpXpXpXpXpXpXpX",
"pXpXpXpXpXpXpXpXpXpXpXpXpXpXpXpXpXpXpXpXs Q Y : 4 p d   J g.T.T.@.4.4.P.&X;X~.w.o < $ M O.d Y pXpXpXpXpXpXpXpXpXpXpXpXpXpXpXpXpX",
"pXpXpXpXpXpXpXpXpXpXpXpXpXpXpXpXpXpXpXpXp A 5 $ 9 A d 5 . O.h.~.#X;X;X2X&X@Xg.q < % 2 N R 1 V pXpXpXpXpXpXpXpXpXpXpXpXpXpXpXpXpX",
"pXpXpXpXpXpXpXpXpXpXpXpXpXpXpXpXpXpXpXpX2 B o c 7 4 d s : ; } z.%X%X-X2X_.w.%.: < 1 0 k d 1 c | pXpXpXpXpXpXpXpXpXpXpXpXpXpXpXpX",
"pXpXpXpXpXpXpXpXpXpXpXpXpXpXpXpXpXpXpXQ 2 V 1 1 o < 7 Q 5 6 q } l.+X^.E.%.z.e.2 : 6 > 6 c 1 l A pXpXpXpXpXpXpXpXpXpXpXpXpXpXpXpX",
"pXpXpXpXpXpXpXpXpXpXpXpXpXpXpXpXpXpXpXp 1 d 7 . O < 2 % 2 , w N K } +.q.c.c.+., : > ; Y h 3 j H pXpXpXpXpXpXpXpXpXpXpXpXpXpXpXpX",
"pXpXpXpXpXpXpXpXpXpXpXpXpXpXpXpXpXpXpXt 1 a t < - 4 5 $ Y N q r K L q.x.Q.v.+., 5 @ t A j 3 f =.pXpXpXpXpXpXpXpXpXpXpXpXpXpXpXpX",
"pXpXpXpXpXpXpXpXpXpXpXpXpXpXpXpXpXpXy.z l z $ z < f c f 6.A.e r K $.v.G.c.k.} m.o f f j d 4 R | pXpXpXpXpXpXpXpXpXpXpXpXpXpXpXpX",
"pXpXpXpXpXpXpXpXpXpXpXpXpXpXpXpXpXV.z c d Z 3 o < 2 4 { C.U.0X+.q.k.Q.G.G.j.<XM.t A p ! j B z ! pXpXpXpXpXpXpXpXpXpXpXpXpXpXpXpX",
"pXpXpXpXpXpXpXpXpXpXpXpXpXpXpXpXpXm.Y c 3 n x = O 1 p A C.'.3XuXk.Q././.W.uX5XV.B Y 1 t f i 4 ! s.pXpXpXpXpXpXpXpXpXpXpXpXpXpXpX",
"pXpXpXpXpXpXpXpXpXpXpXpXpXpX5XXX9XR c n y ^ ^ 3 c + 5 R p.'. XeXuXQ./.9XuXuX4Xn.2 p R t 3 5 Z l .XU.pXpXpXpXpXpXpXpXpXpXpXpXpXpX",
"pXpXpXpXpXpXpXpXpXpXpXpXpXrXyXrXY.f u ^ P U P 3 f X t s.B.M.6.XXiXqXuX XuXyXqXB.A R V c c 4 x P [.5.pXpXpXpXpXpXpXpXpXpXpXpXpXpX",
"pXpXpXpXpXpXpXpXpXpXpXpXpXrXyXyXy ' E T h P U $ S O 4 t.>X|.oX.XtXtXuXuX|.yX6Xs.D { c S Z c F F i.P wXyXpXpXpXpXpXpXpXpXpXpXpXpX",
"pXpXpXpXpXpXpXpXpXpXpXpXrXyXuXV.l b T l T T y % B 5 O :.u.A. XyXrXrXuXuXD.tX}.I / I R t ~ Z E c 6.5.i.wXpXpXpXpXpXpXpXpXpXpXpXpX",
"pXpXpXpXpXpXpXpXpXpXpXpX,XyX3Xd U u [ n x U l o g & O `.Z.].tX,XuXuXuXuX.XA 2 k c p 4 7 a 3 x n { a.3XeXyXpXpXpXpXpXpXpXpXpXpXpX",
"pXpXpXpXpXpXpXpXpXpXpX>XeXuXu.l ^ T T ^ Y 8 * $ 4 5 < .XN.rXtXuXeXeXeXuX$XH g i X . 3 X s . = Y ] [.<X9XuXpXpXpXpXpXpXpXpXpXpXpX",
"pXpXpXpXpXpXpXpXpXpX[.5XwXR.E T n T T ' u 3 d $ $ 4 ~ N.`.4XrXuXuXuXuX6XN.b.n.k - o O - 5   % ( m I.oXeXyXyXpXpXpXpXpXpXpXpXpXpX",
"pXpXpXpXpXpXpXpXpXpX'.5X7X>X/ ^ m n T v 3 O = % < 4 ,.OX<X3XuXuXuXuXuX9X X}.S.c O : - O 4 o $ P b V.Y.7XyXyXpXpXpXpXpXpXpXpXpXpX",
"pXpXpXpXpXpXpXpXpXpXY.>X7X[.' ^ *.b u h $ & + 3 & g p.R.4X4XtXuXuXuXuXeX6XeXn.R 5 5 o X - - < 4 y :.<.qXeXyXpXpXpXpXpXpXpXpXpXpX",
"pXpXpXpXpXpXpXpXpXpX{.XX5XA.m x m u b a $ 7 $ $ & d `.].4X9XuXuXuXuXuXyX6X6XZ.R < . $ X - $ o X c T m.wXtXyXpXpXpXpXpXpXpXpXpXpX",
"pXpXpXpXpXpXpXpXpXpXOX:X5Xi.n h i = y 3 $ + 1 $ 3 k 3X3X6XyXuXuXuXuXuXuXyX3XD.<.- - $   O O - O l b B.yXeXyXpXpXpXpXpXpXpXpXpXpX",
"pXpXpXpXpXpXpXpXpXpX[.:X3X5.u y 8 8 8 % $ $ $ < 1 R 3XeX6XuXuXuXuXuXuXuXtX3XD.-.: o $   X $ % $ * l 6.6XrX9XeXpXpXpXpXpXpXpXpXpX",
"pXpXpXpXpXpXpXpXpXpXY.>X:Xm i x $ i = < 7 $ X < p t.8X3X4XuXuXuXuXuXyXuXyX4XC.6.< $ o o o 4 O & % % 7.6X9XrXwXpXpXpXpXpXpXpXpXpX",
"pXpXpXpXpXpXpXpXpXpXY.|.wX&.% d X 7 i 1 - $ o - 3 .X6XtX6XuXuXuXuXuXuXuXrX9XA.>.8 #     o O $ 7 o :.y 6X9XeXeXeXpXpXpXpXpXpXpXpX",
"pXpXpXpXpXpXpXpXpXpXI.|.5X6.% * X F 7 7 2 - X $ P  X6XrXeXuXuXtXyXuXuXuXyX9X`.C.< 5 X O o @ O 7.* =.z 3X7XeXeX7XpXpXpXpXpXpXpXpX",
"pXpXpXpXpXpXpXpXpXpX{.|.].i.7 1 % $ c a 5 - - X >.3X9XtXeXuXtXyXuXuXyXuX9X6XS.U.5 4 3 4 $ O o M.* x $ 3X6XqXeXrXpXpXpXpXpXpXpXpX",
"pXpXpXpXpXpXpXpXpXpX{.>X>Xm.c * % c i l 1 1 4 X t.$XrXuXtXuXyXyXuXuXuXuX6XyX3XD.$ P d O # % o Y.* 7 7 4X6XeXeX7X7XpXpXpXpXpXpXpX",
"pXpXpXpXpXpXpXpXpXpX[.5X:XY.d X a i f x 1 4 d < i..XtXtXyXuXuXuXuXuXyXuXyXeX9XN.< >.p O # % = u.1 i g 6X9XeXeXeX7XpXpXpXpXpXpXpX",
"pXpXpXpXpXpXpXpXpXpX[.5X XN.c + u Z 8 a & 3 y B -.9XtXtXuXuXtXyXuXuXeXuXtXrX6Xt.& a.t $ & 1 1 6.V h < :X6X7X5X7X7XpXpXpXpXpXpXpX",
"pXpXpXpXpXpXpXpXpXV.3X5X5Xm.3 + + u O p * 7 U c u.<XeXyXuXtXuXtXuXuXuXyXuXwXqX=.;.b.f 7 & $ t n h { u 3XwXwX6XwXeXpXpXpXpXpXpXpX",
"pXpXpXpXpXpXpXpXpX>X5XwXwX'.P t # * $ y 7 7 4 ( Z.9XeXiXuXyXrXrXyXuXuXrXuXwX5Xd >.N.d b d x u &./ i oX7XrXuXwXyXyXwXpXpXpXpXpXpX",
"pXpXpXpXpXpXpXpXpX3X5XwX7X>X:.1 o . . O 4 4 7 p.].<X9XrXrXtXtXyXyXyXyXuXyXeX6Xn B.,.3 = W / t *.x j 7X6XwXyXwXwX7XwXpXpXpXpXpXpX",
"pXpXpXpXpXpXpXpXpXR.wXqXwX7XA.y p B # $ f 7 - u.].4X6X9X9X9XeX9XyXyXuXuXyX9X].I U.7 x 4 c U n [ [ ].3XwXwXwXwXwX7X>XpXpXpXpXpXpX",
"pXpXpXpXpXpXpXpXpXpXpX8.d.h.9.y.j ( 7 O s a X -.R.$X6X9X9X9X9X6X6XwX5XyX.X].;.p.B.g 4 7 b.R O =.OX}.4X4X.XW.W.H.pXpXpXpXpXpXpXpX",
"pXpXpXpXpXpXpXpXpXpXpXw.j.K.W.F.M k s . O : 5 B.`..X3X$X4X9XrXrXyXuX>X3X5XoXt .X:.t + $ n.>.3 t.8Xh.L.W.W.E.T.H.pXpXpXpXpXpXpXpX",
"pXpXpXpXpXpXpXpXpXpXpXw.j.F.L.+XL.J q @ Q 5 ! U.`.}.3X.X}.}. X5X3XqX7X3X XN.-.B.E < < `.Z.y.% 8X$XF.L.L.W.T.H.H.pXpXpXpXpXpXpXpX",
"pXpXpXpXpXpXpXpXpXpXpXw.g.l.H.L.~.F.J M 5 f b.].`.}.,X4XXX4X.X.X3X7X7X$X].| C.S 9.7 ) R.D.t $ XXd.l.H.H.T.H.H.F.pXpXpXpXpXpXpXpX"
};
