/* XPM */
static char *_29483ab5c934a09a0626ae1e9629b1dMamkGB9eILR2xxRc[] = {
/* columns rows colors chars-per-pixel */
"61 64 230 2 ",
"   c None",
".  c #1A1D1F",
"X  c #34332D",
"o  c #323532",
"O  c #562D29",
"+  c #50433C",
"@  c #3F3C4A",
"#  c #37444C",
"$  c #474B47",
"%  c #585C5A",
"&  c #4A5050",
"*  c #695A51",
"=  c #6C6C5E",
"-  c #786757",
";  c #78765E",
":  c #55666C",
">  c #636A68",
",  c #697469",
"<  c #777967",
"1  c #677675",
"2  c #727B77",
"3  c #77626B",
"4  c #A04A52",
"5  c #847879",
"6  c #89726E",
"7  c #D06079",
"8  c #F0486D",
"9  c #798379",
"0  c #8E867C",
"q  c #998376",
"w  c #6A7D85",
"e  c #767A8C",
"r  c #C2758B",
"t  c #E86D94",
"y  c #F06898",
"u  c #7C8C8D",
"i  c #798686",
"p  c #7F8895",
"a  c #7F9094",
"s  c #828E8A",
"d  c #868A85",
"f  c #968B85",
"g  c #88938A",
"h  c #94938B",
"j  c #95988B",
"k  c #838B96",
"l  c #849394",
"z  c #8C9A94",
"x  c #85939C",
"c  c #8D9C9D",
"v  c #889799",
"b  c #919D9E",
"n  c #9E9B9A",
"m  c #969A94",
"M  c #A79C98",
"N  c #B99A93",
"B  c #AB8D90",
"V  c #95A29C",
"C  c #9AA498",
"Z  c #A3A09D",
"A  c #8C9BA2",
"S  c #8996A8",
"D  c #919EA2",
"F  c #919DAB",
"G  c #989DA1",
"H  c #8A99B3",
"J  c #939FB5",
"K  c #8EA0A7",
"L  c #94A3A5",
"P  c #99A6A2",
"I  c #94A4AA",
"U  c #99A6A9",
"Y  c #9CAAAB",
"T  c #9EA8A5",
"R  c #93A4B3",
"E  c #9CACB3",
"W  c #9DADBA",
"Q  c #97A8B4",
"!  c #9FB1B6",
"~  c #9FB1BE",
"^  c #8FA0B1",
"/  c #A5A2A2",
"(  c #A2ACAC",
")  c #ADAAA9",
"_  c #A7A8A5",
"`  c #B2ABAB",
"'  c #BDABA7",
"]  c #AAB2AD",
"[  c #A7B3AB",
"{  c #A0AEB4",
"}  c #A7ACB6",
"|  c #B8AEB1",
" . c #A4B3B5",
".. c #ABB6B5",
"X. c #A4B3BC",
"o. c #A9B6BC",
"O. c #ACBABC",
"+. c #ABB8B7",
"@. c #BBB2B5",
"#. c #BCB5BA",
"$. c #B4BCBC",
"%. c #B4B7B7",
"&. c #B0B9AD",
"*. c #E5819D",
"=. c #F097B8",
"-. c #C3B7BD",
";. c #C8B6B9",
":. c #DAB6B7",
">. c #C4ADA9",
",. c #B5C1BF",
"<. c #9BAAC6",
"1. c #9FB0C2",
"2. c #A3ADC4",
"3. c #A3B3C4",
"4. c #AAB7C3",
"5. c #A7B8C1",
"6. c #ABBAC4",
"7. c #A5B3CB",
"8. c #ACBCCB",
"9. c #AAB5CB",
"0. c #B3BDC3",
"q. c #B2BDCA",
"w. c #BCBECA",
"e. c #A5B4D2",
"r. c #ACBCD4",
"t. c #ACBADA",
"y. c #A8B6D5",
"u. c #B0BFDA",
"i. c #B5BFD2",
"p. c #B7BEE2",
"a. c #AEBEE0",
"s. c #C6BCC4",
"d. c #CABDC5",
"f. c #C9BBC5",
"g. c #D6BDC9",
"h. c #DDBFD7",
"j. c #EABDCD",
"k. c #AEC0C7",
"l. c #BCC3C5",
"z. c #B4C2CC",
"x. c #BCC5CC",
"c. c #B7C4C6",
"v. c #AFC0D4",
"b. c #B5C4D3",
"n. c #BBC5D2",
"m. c #BCCAD5",
"M. c #B4C2DA",
"N. c #BAC4DC",
"B. c #BDCADC",
"V. c #BFD0DA",
"C. c #B5C2E3",
"Z. c #BCC6E5",
"A. c #BCCAE4",
"S. c #BCC8E9",
"D. c #C3C4CB",
"F. c #C8C5CC",
"G. c #D3C1CC",
"H. c #DBC4CC",
"J. c #D5C3C4",
"K. c #C5CBD4",
"L. c #CACAD1",
"P. c #C3CCDC",
"I. c #CACEDD",
"U. c #C1C7DA",
"Y. c #DDCAD5",
"T. c #DCCCD9",
"R. c #D7C9D7",
"E. c #C5D2DC",
"W. c #CCD3DB",
"Q. c #C8D2D5",
"!. c #D5D5DF",
"~. c #E3C7CC",
"^. c #E4CCD1",
"/. c #E2CCDB",
"(. c #EACDDB",
"). c #E9CCD4",
"_. c #E6D0DC",
"`. c #F5D3DA",
"'. c #C3CCE4",
"]. c #C3CDE9",
"[. c #C8CCE7",
"{. c #C6D2E5",
"}. c #CAD3E4",
"|. c #C5D2EB",
" X c #CBD4EC",
".X c #CDD9ED",
"XX c #CDD9E5",
"oX c #D2D3E4",
"OX c #D3DAE4",
"+X c #DBDAE4",
"@X c #D1D6EB",
"#X c #D3DAED",
"$X c #DBDDED",
"%X c #D9D3E4",
"&X c #CEDBF2",
"*X c #CCD6F0",
"=X c #D4DDF0",
"-X c #D9DEF1",
";X c #E4D3E3",
":X c #ECD4E3",
">X c #E7DAEA",
",X c #F2D5E4",
"<X c #F4D9E7",
"1X c #F5DBE9",
"2X c #F9DDEB",
"3X c #F9D7E7",
"4X c #DDE2ED",
"5X c #D6E0EC",
"6X c #D5E1F3",
"7X c #DCE3F3",
"8X c #DFE4F8",
"9X c #EBE5EE",
"0X c #F6E1EC",
"qX c #FAE2EE",
"wX c #E2E5F3",
"eX c #E5E9F5",
"rX c #ECECF5",
"tX c #ECEEF8",
"yX c #E7E9F6",
"uX c #FBE6F1",
"iX c #F1EFF6",
"pX c #FBEAF3",
"aX c #F7E6F0",
"sX c #EFF0F6",
"dX c #EDF1FA",
"fX c #F1F1F7",
"gX c #F4F4FA",
"hX c #F8F7FC",
"jX c #F7FAFD",
"kX c #FBFCFE",
/* pixels */
"                                                                                                                          ",
"                                                                                                                          ",
"                                                                                                                          ",
"                                                                                                                          ",
"                                                        z.q.OX$XOX+X7XU.                                                  ",
"                                                    I.q.m.5.D.+Xm.Q.W.W.}.#XOX                                            ",
"                                                I.q.Q.5.n.x.C $.6.K.l.K.#XOXx.                                            ",
"                                                8.x.E.5.O.o.$.%.v.l.L.I.W.x.K.P.                                          ",
"                                              b.E L E v b.{ O.l.R $.K.I.x.I.E.OX                                          ",
"                                              L  .Y i I z 4.0.l.E z x.c.n.m.E $X#X                                        ",
"                                              P x { L L k 2 ( ( o.T ( q.0.F.$Xq.7X$X                                      ",
"                                            ! 6.q.c.x.q.D.K.L.L.I.;X;Xs.D.#.+XOX4X}.                                      ",
"                                          r.k.P.q.}.$Xf -./.^.,X0XpX2Xg.%X!.#.$X$X}.wX                                    ",
"                                          B.#X6.OXn.M ;.J.(.<X2XqXpXpX,XG.>X+XL.4XQ.}.                                    ",
"                                          B.B.E I./ @.H./.,X2X2XqXpXpXqX,X;X9X0.n.K.W.                                    ",
"                                          b.z.D.!./ ;.Y.(.3X2XqXqXpXpXuX3X_.>Xw.n.}.W.                                    ",
"                                          6.I z.L.n G.;X:X1XqXqXuXuXpXuXqX:X>X!.D U.L.7X                                  ",
"                                        b.q.l L L.` ;.' H.:X2X2XqX2X2X0X0X1X>X` W.,.] OX                                  ",
"                                        B.$.O.F %.%.;.H.;.N g.1X1XY.N N :.~.oX:Xc.f h K.                                  ",
"                                        n.b E Y ( ) 6 $ @ ).~.<X2X`.~.* 3 (.:X>XD.h 0 [                                   ",
"                                        ..c { k m -.6 7.i S g.1XuX(.2.$ $XB <XqXJ.* ; < OX                                ",
"                                        U P D 9 | G.g.>.g././.2XuXaXh.j.j.<XqX2X:.> < < x.                                ",
"                                      b. .( v & @.G.(.(.,X,XT.0XpXuX2X,X1XqXqX1X`.i h 0 $.                                ",
"                                      m.5Xu 1 $ m d.,X3X3X:XG.2XuXuXuXqXqX2XqXT.d.D.j g 0.                                ",
"                                      '.z.i v & = #.(.3X3X;XG.0XpXqX2XqXqXqX3XJ.+.E C &.D.                                ",
"                                    M.n.Q.u c $ . @.g.,X1XM J.2XqXqX1X2XqX2X<X%.U 0.[ l.oX                                ",
"                                    .XX.4XX.( % . ` -./.,XT.f | 0XqX2X2X2X1X1X] 2 x.P 4X7X                                ",
"                                    -X}.$.m.o.> o M @.g.Y.T.R.2XqXqX2X2X2X2X_.2 %.n.9 ( OXb.                              ",
"                                  }.x.6.] K.p Y $ o ) s.d.O 4 7 *.r Y.1X2X:X$ 9 9 oXP.j z.7X X                            ",
"                                  M.$Xn.z i X.o.% o 0 ` d.| 8 t y =._.:X:X;.i < = b I.q.T b }.'.                          ",
"                                  }.n.( 9 : s L 4.% X M -.G._ t =.:X<X,XY.;.& I , E z 6. .&.q.N.                          ",
"                                  }.c.P V z o.x X.# x * Z d.:X,X2X2X<XY.~.>.: W o.9 u  .Y Y ..{.                          ",
"                                  K.+.[ C , V 6.O.I W % * #.G.(.:X:X' ).^.kXtXw b X.9 2 s L m x.N.                        ",
"                                u.U.%.[ g 2 g E Y u.7.7.+ - - 6 q ' ^.~.kXkXhXA.: v 2 c V U  .E .X                        ",
"                                M.N...] T  .P 6.k Z.'.Z.C.* - f ;.~.^.kXkXkXkX Xu b l V 9 ..m.[.Z.wX                      ",
"                                &XM.6.K.x.K. .5.s  X=X7XwXhXB ;.H.~.hXkXkXkXkXN.U 1 v 2 z I o.N. XB.                      ",
"                                A.].B.4.q.x Q Y ( wX7XwXtXhXkXg.g.kXkXkXkXkXfXN.v ( s g c m P M.wX X=X                    ",
"                            dXgX$XwX.X8.n.T n.v z wXrXwXrXgXkXkXkXkXkXkXkXkXjXr.}.x.C ,  . .i 3.9..X{.                    ",
"                        tXgXtXfXjX-XB.}. .P.4.g x.p.fXyXeXgXjXkXsXkXhXkXkXkXkX7X2.3.A E 1 5.6.E 8.A. X{.                  ",
"                      tXjXgXyXjXgX'..Xo.b.A ( 0.Z.gXtXfXrXtXkXrXkXhX'.kXkXkXhXrXN.N.B.'.r.x A u A  X{.b.#X                ",
"                    7XgXhXhX7XhX XM.P.x W F U.{.7XrX'.eXgXgXkXkXjXkXhX[.kXkXhX9XrXu.} P.2.w I X.8.c .XE..X                ",
"                  7X7XrXfXtX$X=Xb.#X}.6.W P.@X5X%XfXhXp.rXkX$XkXkXkXjX$X$XgXjXhXfX$X2.9.b.1 S D 4X#XX.{.b.}.              ",
"                   X7X-XgXfX'.}.m.I.i #XI.U.-XU.rXhXhX'.gXjXhX[.gXkXjXgXhXfXhXhXfXyXF N.m.! m.A U.7Xu.6. X].P.#X          ",
"                  A.fXtXhXoXE.b.#Xx.m.m.n.I.}.7XiXhXjXjXjXhXkXjXwXgXjXfXkXgXhXhXfXfXS N.W l k.6.B.rX7X9.wXM.7Xb.B.        ",
"                |.#XjXtXN.5.I !  .c., P.6.6.}.$XiXhXhXhXjXjXjXkXjXjXkXhXjXfXhXhXfXfXe.b.6.1 c ! '.eXwXM.#XwXN.}.          ",
"                 X=X XtX4XA c x  .c.g XXY q.-X9XgXhXhXhXhXhXhXkXkXjXhXjXjXfXhXhXfXfXr.V.8.i L I m.dXwXb.OX4X X.X{.        ",
"                |.=XwXeX$Xo.A  .T A s X.U x.n.gXhXkXhXhXhXhXjXkXkXjXiXkXhXiXhXhXiXrX1.z.5.u 1 L E wX7Xq.wX-X7X X=X        ",
"                A.wXrX7XtX6.K I ..6.V ..b.E }.jXhXjXjXjXgXgXhXjXkXjXiXhXhXtXgXhXfXwXQ E E c c  .3.4X].'.8X4XwX$X6X        ",
"                A..XfXeXrXb.W { Y L $.m.Q 6.q.wXhXjXjXhXhXfXjXkXkXjXgXjXgXrXfXhXtXwXF x E K 9 E X.5.].@X7X7X7X8X|.        ",
"               X].=XtXwXtX9.a E 5.8.Y 6.c x n.m.gXhXjXhXhXfXhXkXgXjXhXjXgXtXiXhXfXwXZ.W S E E I z.9.M.#XwX7X7X XA.        ",
"              7X].7XtXtX#XM.E X.o.9.6.6.1 z.6.n.gXjXhXhXhXfXhXjXhXhXhXgXtXyXfXgXgXwX#X<.3.6.o.v l E A.=X#X7X7X X*X        ",
"              7X.X7XeXtX$X[.3.W B.I b.X.Q E o.E tXhXhXfXgXhXfXjXjXjXhXfXrXrXtXgXsXrX-X#X7.3.3.6.l s U N. X#X7X|. X        ",
"              ].=X#XwXwXwX[.M.R X.A b.6.u.W b.o.fXjXfXiXfXfXgXjXjXhXgXtXrXrXgXfXrXgXrXeX].C.v.I 3.z a A.=X-X#X|.A.        ",
"            6X7X7X X7X$XtX XN.9.Q v m.L t.1.X.l iXjXfXgXtXgXfXjXjXhXgXtXtXrXgXfXtXgXdXtX.X7XZ.A.W b.s ].{.#X].A.          ",
"            |.#XeX=X-XwXrX XZ.R 7.A 5.o.Z. X6.L wXjXfXtXtXtXgXjXwXjXfXeXtXrXgXfXgXgXgXdX7X.XS.3.3.A A #X X].&X].          ",
"            |. X7X7XeXfXtX XZ.S Q Q I 5.A.N.A 8.gXhXjXfXtXtXgXjX7XgXwX7XtXtXtXtXtXdXdXtX7X|.Z.A 3.A X.=X.X X X X          ",
"            r. X7X=XwXdXtX@X{.H Q 7.{ 6.A.*XA P.tXgXgXgXtXrXgXjXjXeXyX4XeXrXrXeXtXdXtXtXwX|.C.Q ~ L 3. X.X6X6X&X          ",
"                k }.rXgXwX=XA.H ~ e.6.3.-X3.3.B.wXrXtXgXrXtXtXhXjXdXtX#XwXwXwXwXeXtXeXeX7X*X1.y.Q 3.Z..X6X6X=X            ",
"                d < - 6 #X@XC.H Q 8.N.7.Z.M.3.|.wXwXwXwXtXeXeXgXgXtXrX=X7XwX7X7X7XeXeX7X8XM.C.Q <.t.].|.&X=X=X            ",
"                m ) @.s.s.s.h w c o.9.3.3.t.6..X4XwX7X-X7X7X-X7XtXtX-X=X7X7X7X-X7XeXeX7XA..X7.^ S C.Z.|.A.#Xn             ",
"                m _ @.;.d.d.h w I W 1.Q 9.e.9.|.#X#X$X#X-X7X7XeX=XrX.X X.X.X[. X X.X}.=X.X#X Xe i G _ } | ` /             ",
"                h Z | s.G.s.h w D I x R 7.y.y.*X.X{.{. X.X@X7XrX#X=X=X'. X].Z.'.].C..X=X{.#X].e d n / ` | ` /             ",
"                h Z ` -.d.-.f w c F k F e.a.C.=X#X#X.X{.{.[.]..X.X.XZ.|. X].Z.C.A.C.S. X=X#X].<.d n n ` ` ` /             ",
"                h M ` s.d.| f 1 p F S J e.t.'.7XeXwX7X=X.X.X@X7X7X=X#X'. X X].C.S.C.a.|.|.Z.y.S 5 h n _ ) / M             "
};
