/* XPM */
static char *starry_1_png_2_1747777387[] = {
/* columns rows colors chars-per-pixel */
"64 64 231 2 ",
"   c black",
".  c #0E1C0C",
"X  c #121C07",
"o  c #131D0C",
"O  c #1A1D0C",
"+  c #0F1C12",
"@  c #131D12",
"#  c #1B1E11",
"$  c #331D0E",
"%  c #291C18",
"&  c #15210B",
"*  c #1B240D",
"=  c #132C0F",
"-  c #182A08",
";  c #1D2B0C",
":  c #0B2312",
">  c #0D2E10",
",  c #162212",
"<  c #1B2413",
"1  c #142C13",
"2  c #1D2B12",
"3  c #162E19",
"4  c #1B2D1A",
"5  c #1C3115",
"6  c #113518",
"7  c #1D321C",
"8  c #22250D",
"9  c #2A260B",
"0  c #242B0B",
"q  c #37290C",
"w  c #3A3304",
"e  c #222512",
"r  c #2B2512",
"t  c #232B13",
"y  c #2A2B14",
"u  c #23271A",
"i  c #2C231A",
"p  c #242A1A",
"a  c #2B2C1A",
"s  c #332512",
"d  c #392519",
"f  c #233113",
"g  c #2B3217",
"h  c #23321B",
"j  c #2C331A",
"k  c #2A3A1E",
"l  c #333315",
"z  c #32351C",
"x  c #333B1C",
"c  c #3B381C",
"v  c #2B1922",
"b  c #3A1A26",
"n  c #0A2F26",
"m  c #162C27",
"M  c #09362A",
"N  c #1C3824",
"B  c #03323C",
"V  c #2B2723",
"C  c #3B2728",
"Z  c #243422",
"A  c #283723",
"S  c #263D23",
"D  c #2B3C22",
"F  c #333B22",
"G  c #353C26",
"H  c #273A36",
"J  c #4F0808",
"K  c #551806",
"L  c #451B16",
"P  c #5B1914",
"I  c #671C0A",
"U  c #6D0117",
"Y  c #741416",
"T  c #44220E",
"R  c #532309",
"E  c #4A2818",
"W  c #543114",
"Q  c #6E2B17",
"!  c #470C22",
"~  c #521823",
"^  c #4C1D33",
"/  c #6D0628",
"(  c #6F2635",
")  c #2A4419",
"_  c #364416",
"`  c #0B492C",
"'  c #1A4428",
"]  c #0F4638",
"[  c #0B543A",
"{  c #2A4223",
"}  c #334326",
"|  c #384429",
" . c #3A5728",
".. c #254634",
"X. c #3A4938",
"o. c #355A38",
"O. c #3D7A38",
"+. c #4E4818",
"@. c #774B0D",
"#. c #454B2C",
"$. c #444B33",
"%. c #464F38",
"&. c #485537",
"*. c #4F5634",
"=. c #784D2C",
"-. c #43662A",
";. c #57673A",
":. c #6A793D",
">. c #003A55",
",. c #043863",
"<. c #761D4E",
"1. c #15544A",
"2. c #3D5849",
"3. c #0A7354",
"4. c #317051",
"5. c #016F68",
"6. c #326C6C",
"7. c #465441",
"8. c #4D5B44",
"9. c #515D50",
"0. c #476447",
"q. c #5A764E",
"w. c #4D6F53",
"e. c #586757",
"r. c #66714C",
"t. c #5A6A67",
"y. c #4B716B",
"u. c #537776",
"i. c #6C776E",
"p. c #647573",
"a. c #9F0008",
"s. c #8B2C16",
"d. c #A41533",
"f. c #A23F3C",
"g. c #B5621F",
"h. c #BB5C26",
"j. c #C15133",
"k. c #883156",
"l. c #9F3677",
"z. c #E63561",
"x. c #A64D52",
"c. c #CC706A",
"v. c #D96678",
"b. c #E6616C",
"n. c #3A875B",
"m. c #0B8861",
"M. c #3C9074",
"N. c #76934C",
"B. c #4C8A77",
"V. c #5A8877",
"C. c #559670",
"Z. c #65876E",
"A. c #4CFD5F",
"S. c #5BFF6D",
"D. c #CC9C57",
"F. c #F5A572",
"G. c #036E8D",
"H. c #007EA4",
"J. c #B03797",
"K. c #EF6F82",
"L. c #F279AC",
"P. c #E43FFF",
"I. c #EA6CD1",
"U. c #DD5EF3",
"Y. c #FB5CFF",
"T. c #568994",
"R. c #608392",
"E. c #6FB391",
"W. c #71ABB7",
"Q. c #77C4A2",
"!. c #1B91C5",
"~. c #6EB7FD",
"^. c #8C9E80",
"/. c #95A793",
"(. c #FB979A",
"). c #FFA69E",
"_. c #D289B2",
"`. c #F394B2",
"'. c #DCA1B3",
"]. c #E4A5AC",
"[. c #F8A4BD",
"{. c #F0CD97",
"}. c #EBF6AF",
"|. c #AF8CCE",
" X c #B4B8DB",
".X c #BB95EE",
"XX c #BE84F9",
"oX c #A998F8",
"OX c #B59AF9",
"+X c #A3AAFF",
"@X c #CD98CE",
"#X c #D897C4",
"$X c #D798D7",
"%X c #F290CC",
"&X c #F399D4",
"*X c #CFB0D7",
"=X c #E7ACC8",
"-X c #FBACD6",
";X c #F3B1D3",
":X c #C299E9",
">X c #DA94EC",
",X c #C999FC",
"<X c #FB8CE8",
"1X c #FA9EE7",
"2X c #E78DF3",
"3X c #FA8CFF",
"4X c #F899FA",
"5X c #D9A8FB",
"6X c #D4B1FB",
"7X c #F9A6E8",
"8X c #F0B8E7",
"9X c #ECAAF4",
"0X c #F9A4F8",
"qX c #F6B7F9",
"wX c #9EDDE5",
"eX c #BCFFFF",
"rX c #D1C9CF",
"tX c #FDCFD7",
"yX c #CBEECA",
"uX c #F0ECD3",
"iX c #D1CCF3",
"pX c #FAD6F0",
"aX c #F6D6FA",
"sX c #CBFFFA",
"dX c #D3F2F4",
"fX c #FFEDE5",
"gX c #E5F5E8",
"hX c #F6E7FC",
"jX c #EAFEFC",
"kX c #F3FEFF",
"lX c #FDF8FA",
/* pixels */
"                                                                                                                                ",
"                                                                                                                                ",
"                                                                                                                                ",
"        iX                                                                                                                      ",
"        8X                                            1X0X                                            P.                        ",
"                                                                                                              $X:X              ",
"                                                                                                              ,XkXXX            ",
"                +X|.                      0X                                                                    OX              ",
"                oX|.                    >X4X*X                rX=X                                                              ",
"                                        1X3X,X                                    (.                                            ",
"                            Y.                                                  `.b.I.            9X                            ",
"                                                                                  I.              4X                            ",
"                                                A.                                                                              ",
"                                                        : 3 B ,.>.m                                                             ",
"                                                  : : n ` ] G.!.H.M M 1                                                         ",
"                                                7 7 D ` 1.5.wXjXsX1...5 Z 7                                                     ",
"                                7X          3 k D } } ..[ 4.gXjXsXo.G ) ) k D h                                                 ",
"                                          h h D F F D H [ o.yXgXwX-.E F x } | x k                                               ",
"                                        f k D D A A a A 4 ) N./.N._ z D g j G &.&.{                             =X0X            ",
"          tXqX7X                      g z x j h u a r i a W g.g.@.W a a f 0 t | *.q.                            &X              ",
"          0X6X                      a j x z g a i u 9 r k +.F.{.D.W w 2 ; * t g $.r.0...                                        ",
"                                  < z c l g y u e 8 r 8 y f.}.uX{.+.c f f 2 2 2 p &.r.;.N 7X<X                                  ",
"                        +X,X      p z l g p < u u t 9 u g w Y =.+.W 0 y t ; t t 2 2 #.;.$.h                                     ",
"                                  A F z l p u < u u 0 * 9 q J U K T 9 0 f ; t t t 2 x #.&.D                                     ",
"                                < j z j a , , < 4 < < t r b U / P 8 e V e 0 t 2 2 < 2 5 } } 5                                   ",
"                                y j j f < @ @ @ @ # # u a <.U.I.J.^ d 8 8 * e 2 ; * & , 7 D 5       pX                          ",
"                              < t j y 2 # # @ @ @ , # u i l.qXaX$X<.~ u * * * * * & O , N Z 2                                   ",
"        A.                    < 2 t < , + # # @ , < , v ! v.lXlXaXh.Y # & & < * & * & * 4 N 3 <                                 ",
"                            o 2 f < @ @ @ . . o < p u v ! z.pXpX[.s.I ; < , O # & * * < 4 Z 4 ,                                 ",
"                        9X  & 2 f , + + . o . O t t e % v d.c.c.x.P L C h 2 O # @ & < O < A Z ,                                 ",
"                      3XaX  * ; 5 & + + @ O O O y l t i u d K K L i i l k h < O # O < O < Z p ,               tX                ",
"                      2XhX#X& 5 5 1 : + + X X X g y $ 0 s E P P L L b l x f % O O O O # < N Z 1                                 ",
"                            & ; 5 < + . + X X o 0 t y s C ~ k.k.( C C 0 l g 8 O O o o * u 5 N m                                 ",
"                            & - = > : : o X : & & * 2 i ^ J.iXiX|.Q P i y t 8 O O * & 8 p A A 4                                 ",
"          -X                  = > = , , . . + & X o O 8 ! :XfXlX XQ K e e < O o o * * t g ..A 3                                 ",
"                              = 6 1 , , . o . , X X o % ! #XlXhX_.Q K 9 O # O O o 0 t g x X.D 7                                 ",
"                              7 ' ' 1 , & , , & O O - 9 T a.b.K.j.R T 0 e < * e * y j x X.7.S 1                                 ",
"                                } m.` 2 5 2 < < < * O 9 9 E Y I R q r y t 8 8 u y a | #.0.2.h                                   ",
"                                qXm.3.' - 2 - * ; 8 - 9 9 d T $ s r 0 t y e e t a z $.%.e.2.t                                   ",
"                                  2.C.M.` 1 ; 2 ; 9 - - - r s q r r s r e t y g l G 8.e.9.A                                     ",
"                    &X              Z.E.C.' M ; 2 ; ; ; 0 9 9 0 0 y t ; a a z c z $.e.e.%.                                      ",
"                  4XqX&X              E.Q.4.' 5 1 - ; 0 0 0 - 8 * r y f g x F F F $.r.e.|                 2X(.                  ",
"                  8X*X                  E.E.B.N 7 { G $.*.r.Z.i.*.#.) x c c | | $.8.9.%.>X                0X6X                  ",
"                                          C.B.6...{ ' -.:.yXkXjX^.;. ._ #.$.7.7.&.7.G                     `..X                  ",
"                                            w.T.u.y.o.O.-.yXlXkX/.;.o. .e.t.e.8.7.G                                             ",
"                                              w.V.u.y.4.n.rXkXkX/.q.w.e.p.p.t.%.                                                ",
"                                                ..2.u.T.T.lXgXsXW.R.u.t.e.8.|                                                   ",
"                                  9X                H 6.y.R.dXwXT.u.9.2.G                                             -X        ",
"                                  2X                    M 1.6.1.H Z i     4X                                          <X        ",
"            [.                                                                                                                  ",
"            b.%X                                                                                                                ",
"          %XL.L.                                                                  tX-X                                          ",
"                                                              $X                                                                ",
"                                                            rX;X*X                                                              ",
"                                                            eX8X3X                                      0X%X5X                  ",
"                                                                                                          5X<X                  ",
"                    <XpX$X                    [.                              #X                                                ",
"                                            ).[.#X                          oX~. X                                              ",
"                                            ].@X'.                          OXOX,X              8X                              ",
"                                                                              *X                                  S.            ",
"                                                                                                                                ",
"                                                                                                                                ",
"                                                                                                                                ",
"                                                                                                                                "
};
