/* XPM */
static char *starry_1_png_17_1747942571[] = {
/* columns rows colors chars-per-pixel */
"64 64 234 2 ",
"   c black",
".  c #0E1C0D",
"X  c #131D0C",
"o  c #1A1D0C",
"O  c #121C07",
"+  c #0F1C12",
"@  c #131D12",
"#  c #1B1E11",
"$  c #291C18",
"%  c #331D0E",
"&  c #15210B",
"*  c #1B240D",
"=  c #1D2B0C",
"-  c #182A08",
";  c #0B2312",
":  c #0D2E10",
">  c #162212",
",  c #1B2413",
"<  c #142C13",
"1  c #1D2B12",
"2  c #1B2D1A",
"3  c #162E19",
"4  c #1C3115",
"5  c #1D321C",
"6  c #113518",
"7  c #132C0F",
"8  c #22250D",
"9  c #242B0B",
"0  c #2A260B",
"q  c #37290C",
"w  c #222512",
"e  c #2B2512",
"r  c #232B13",
"t  c #2A2B14",
"y  c #2C231A",
"u  c #242A1A",
"i  c #2B2C1A",
"p  c #23271A",
"a  c #332512",
"s  c #392519",
"d  c #233113",
"f  c #2B3217",
"g  c #23321B",
"h  c #2C331A",
"j  c #2A3A1E",
"k  c #333315",
"l  c #32351C",
"z  c #333B1C",
"x  c #3B381C",
"c  c #3A3304",
"v  c #2B1922",
"b  c #3A1A26",
"n  c #0A2F26",
"m  c #162C27",
"M  c #09362A",
"N  c #1C3824",
"B  c #03323C",
"V  c #2B2723",
"C  c #243422",
"Z  c #263D23",
"A  c #2B3C22",
"S  c #283723",
"D  c #333B22",
"F  c #353C26",
"G  c #273A36",
"H  c #3B2728",
"J  c #551806",
"K  c #451B16",
"L  c #5B1914",
"P  c #4F0808",
"I  c #671C0A",
"U  c #700A16",
"Y  c #44220E",
"T  c #532309",
"R  c #4A2818",
"E  c #543114",
"W  c #6E2B17",
"Q  c #470C22",
"!  c #521823",
"~  c #4C1D33",
"^  c #6D0628",
"/  c #6F2635",
"(  c #2A4419",
")  c #364416",
"_  c #0B492C",
"`  c #1A4428",
"'  c #0B543A",
"]  c #0F4638",
"[  c #2A4223",
"{  c #334226",
"}  c #384429",
"|  c #3A5728",
" . c #254634",
".. c #3A4938",
"X. c #355A38",
"o. c #3D7A38",
"O. c #376031",
"+. c #4E4818",
"@. c #774B0D",
"#. c #454B2C",
"$. c #444B33",
"%. c #464F38",
"&. c #485537",
"*. c #4F5634",
"=. c #57673A",
"-. c #43662A",
";. c #6A793D",
":. c #784D2C",
">. c #003A55",
",. c #043863",
"<. c #792644",
"1. c #761D4E",
"2. c #15544A",
"3. c #3D5849",
"4. c #0A7354",
"5. c #317051",
"6. c #016F68",
"7. c #326C6C",
"8. c #4D5B44",
"9. c #465441",
"0. c #515D50",
"q. c #476447",
"w. c #5A764E",
"e. c #586757",
"r. c #4D6F53",
"t. c #66714C",
"y. c #5A6A67",
"u. c #537776",
"i. c #4B716B",
"p. c #6C776E",
"a. c #647573",
"s. c #9F0008",
"d. c #8B2C16",
"f. c #A23F3C",
"g. c #A41533",
"h. c #B5621F",
"j. c #BB5C26",
"k. c #C15133",
"l. c #883156",
"z. c #9F3677",
"x. c #E63561",
"c. c #A64D52",
"v. c #D96678",
"b. c #CC706A",
"n. c #E6616C",
"m. c #3A875B",
"M. c #0B8861",
"N. c #3C9074",
"B. c #76934C",
"V. c #4C8A77",
"C. c #578F74",
"Z. c #70AB7F",
"A. c #65876E",
"S. c #39FD4B",
"D. c #4CFD5F",
"F. c #5BFF6D",
"G. c #E1A165",
"H. c #007EA4",
"J. c #036E8D",
"K. c #B03797",
"L. c #FF5680",
"P. c #EF6F82",
"I. c #F279AC",
"U. c #E43FFF",
"Y. c #EA6CD1",
"T. c #DD5EF3",
"R. c #568994",
"E. c #608392",
"W. c #56A284",
"Q. c #6FB391",
"!. c #71ABB7",
"~. c #77C4A2",
"^. c #1B91C5",
"/. c #6EB7FD",
"(. c #8C9E80",
"). c #95A793",
"_. c #FB979A",
"`. c #FFA69E",
"'. c #D289B2",
"]. c #F394B2",
"[. c #DCA1B3",
"{. c #F8A4BD",
"}. c #E4A5AC",
"|. c #A0C087",
" X c #F0CD97",
".X c #EBF6AF",
"XX c #AF8CCE",
"oX c #B4B8DB",
"OX c #BE84F9",
"+X c #A998F8",
"@X c #B59AF9",
"#X c #BB95EE",
"$X c #D596C5",
"%X c #D798D7",
"&X c #CD98CE",
"*X c #F399D4",
"=X c #F290CC",
"-X c #CFB0D7",
";X c #E7ACC8",
":X c #FBACD6",
">X c #F3B1D3",
",X c #C299E9",
"<X c #C999FC",
"1X c #DF8FE6",
"2X c #FB8CE8",
"3X c #FC9EE9",
"4X c #E78DF3",
"5X c #FA8CFF",
"6X c #F899FA",
"7X c #D9A8FB",
"8X c #D4B1FB",
"9X c #F5A3EF",
"0X c #ECAAF4",
"qX c #F7A2F6",
"wX c #F6B5F6",
"eX c #F0B8E7",
"rX c #BCFFFF",
"tX c #9EDDE5",
"yX c #D1C9CF",
"uX c #FDCFD7",
"iX c #CBEECA",
"pX c #F0ECD3",
"aX c #D1CCF3",
"sX c #F6D6FA",
"dX c #FAD6F0",
"fX c #CBFFFA",
"gX c #D3F2F4",
"hX c #E5F5E8",
"jX c #F6E7FC",
"kX c #EAFEFC",
"lX c #F3FEFF",
"zX c #FDF8FA",
"xX c #FFEDE5",
"cX c None",
/* pixels */
"                                                                                                                                ",
"                                                                                                                                ",
"                                                                                                                                ",
"        aX                                                                                                                      ",
"        eX                                            9X9X                                            U.                        ",
"                                                                                                              1X,X              ",
"                                                                                                              <XlXOX            ",
"                +XXX                      qX                                                                    @X              ",
"                +XXX                    1X6X-X                yX>X                                                              ",
"                                        3X5X<X                                    _.                                            ",
"                            cX                                                  ].n.Y.            0X                            ",
"                                                                                  Y.              6X                            ",
"                                                D.                                                                              ",
"                                                                                                                                ",
"                                                                                                                                ",
"                                                                                                                                ",
"                                cX                    > > , , 3 3 m 3 m <                                                       ",
"                                                4 4 4 3 2 u u N N C [ [ Z g 2                                                   ",
"                                            g A { Z C N C C C 5 2 A { ..%.3.3.S                                 ;XqX            ",
"          uXcXcX                          N &.&.{ g 5 2 2 2 , , , u h z ..0.e.0.#.}                             *X              ",
"          qX8X                           .=.=.#.2 , , * , o o , , * r t ) $.&.e.e.e.&.                                          ",
"                                        q.t.#.) 1 > & & , , * o o * * r k F $.8.e.t.0.F     2X                                  ",
"                        cX<X        [ w.t.&.2 , * * & & & o o o o * * r r h l F $.$.8.&.F                                       ",
"                                  g %.=.$.r = 1 1 = * & & o o # o o O & w r i i l D $.8.9.                                      ",
"                                g ( &.} f r r 9 1 = * * o # o o o O o o , w r h l F } 8.8.%.                                    ",
"                                A ..F 9 r 2 r r r , 8 , # o # w $ 8 o o , 8 r t l D x 9.e.y.}       dX                          ",
"                              N D ( f 9 * = 4 r r = * X > 3 d f d r , # , 8 w r h l ) %.y.p.8.                                  ",
"        D.                    g A z f r 1 9 r 9 9 w * & 1 d j x k t w o 8 w t w i h x #.e.a.e.F                                 ",
"                            3 2 ( D ( l p d e 9 V 8 t 8 1 V k k q y w 0 9 t 9 t = d k ) X.e.a.3.                                ",
"                        0X  n  .) x z k k R 9 0 w s ! U I K V b s L J J Y e 9 a r t ( | O.0.u.0.w                               ",
"                      5XsXm ] ' 9.+.) ) R +.c c w ~ <.f.d.W V K H W W W J q t e r t } t.8.w.R.y.u             uX                ",
"                      4XjX>.H.rXfXtXB.@.G. XE J ^ K.&XjX].c.K K / XXoX'.k.T a e 8 9 *.(.).).!.E.G                               ",
"                          ,.^.fXkXhX|.h. XpXW U ^ Y.sXzXdXb.T L l.aXzXjXn.W Y q 9 w p.kXlXlXfXtX2.                              ",
"                          >.J.tXhXiXB.h.G..XW P ^ T.wXjXxXb.J L 1.aXxXjXn.U Y a 0 - A.lXlXzXkXgX7.                              ",
"          *X              2 _ 6.5.O.( E :.f.c a ! 1.z.v.x.g.Y H E K.@X$Xs.R s t 0 0 B.iXpXiXxXE.2.                              ",
"                          ; M 2._ ' g d j d t 0 e $ % b Q v u a H ~ ! Q s e 0 = 9 9 #.;.o.5.R.7.M                               ",
"                            n _ ] G S y p 8 p 8 w , u v v v y t a y 9 $ 0 0 0 - = 9 #.O.o.m.R.7.                                ",
"                            ; j { A V t 0 e 0 r * $ > > , w r % t 1 O o O 8 8 - = 9 { [ X.i.a.G                                 ",
"                            ; 5 { F h u y 8 p u , > > , r 9 q f r * O O o & 8 9 = * Z Z 7.u.3.                                  ",
"                              4 Z D S u p w i u , @ @ > , r t e = * O O & , = = = 1 N  .u.u. .                                  ",
"                    *X          j Z A f p p w , > @ @ @ @ o o O o & . > & , * 1 = 2 N 7.V.i.                                    ",
"                  4XwX*X        2 g j j f t u u , @ @ # . X @ O O . ; . > * = = 6 ` V.V.r.                4X_.                  ",
"                  wX-X            g j k k f u u > > @ # X . o O O . . > < 1 4 4 _ 7.W.C.                  9X8X                  ",
"                                    g l l l k f i , # . @ . @ + . X . X & 4 - _ W.|.Q.                    =X#X                  ",
"                                      f h x l l h i r 3 @ + @ + + . & > , 4 _ N.~.Z.                                            ",
"                                        t l l D z g r , @ + + ; + ; > * 3 _ 4.C.C.                                              ",
"                                          , u h h h f r , > & : < : 7 6 _ 4.M.q.                                                ",
"                                  0X            , r r 4 r r 4 4 1 7 : 6 N }                                           :X        ",
"                                  4X                , , 1 1 1 1 - - 7 3 5 6X                                          2X        ",
"            {.                                          o * X & & &                                                             ",
"            n.=X                                                                                                                ",
"          =XI.I.                                                                  uX:X                                          ",
"                                                              %X                                                                ",
"                                                            yX>X-X                                                              ",
"                                                            rXeX5X                                      qX=X7X                  ",
"                                                                                                          7X2X                  ",
"                    2XdX%X                    {.                              $X                                                ",
"                                            `.{.$X                          +X/.oX                                              ",
"                                            }.&X[.                          @X@X<X              eX                              ",
"                                                                              -X                                  F.            ",
"                                                                                                                                ",
"                                                                                                                                ",
"                                                                                                                                ",
"                                                                                                                                "
};
