/* XPM */
static char *pipi_1_png_1_1747776082[] = {
/* columns rows colors chars-per-pixel */
"64 64 95 2 ",
"   c black",
".  c #7CA9ED",
"X  c #7EACF4",
"o  c #77A9FC",
"O  c #7CABFA",
"+  c #79C9EE",
"@  c #7FC7F6",
"#  c #7ECBF5",
"$  c #7ECCFA",
"%  c #7BD1F7",
"&  c #80A8EF",
"*  c #9FBCEF",
"=  c #81ABF5",
"-  c #80ABF9",
";  c #97AAF6",
":  c #96ABFD",
">  c #99ABFD",
",  c #94BDFF",
"<  c #A9A0F7",
"1  c #FA8FC2",
"2  c #EE96C3",
"3  c #E79BC1",
"4  c #F193C1",
"5  c #FD91C2",
"6  c #FB9EC9",
"7  c #F3A2C7",
"8  c #F5A4CA",
"9  c #FEAFD3",
"0  c #F4A1DC",
"q  c #F9A1DE",
"w  c #F3B4D2",
"e  c #FBB5D6",
"r  c #F4B8D3",
"t  c #FBB8D5",
"y  c #FEB5D9",
"u  c #F9A2E0",
"i  c #F6BDFB",
"p  c #FBBDFD",
"a  c #9FC1EA",
"s  c #82C6F4",
"d  c #81C9F3",
"f  c #82CCFA",
"g  c #88C9FB",
"h  c #9FC1F2",
"j  c #99C4FB",
"k  c #86DDFF",
"l  c #8BDDFF",
"z  c #96D6FC",
"x  c #99D6FA",
"c  c #93DBFD",
"v  c #9BDAFD",
"b  c #A4C0EF",
"n  c #A4C1F5",
"m  c #A5C3FC",
"M  c #B7C7FF",
"N  c #B9C7FE",
"B  c #B5C8FF",
"V  c #BAC9FF",
"C  c #A1DCFD",
"Z  c #B6E6FE",
"A  c #B9E5FF",
"S  c #D9CED6",
"D  c #FBC5DC",
"F  c #FDE9D5",
"G  c #FEEADB",
"H  c #FECAE6",
"J  c #FFC6E9",
"K  c #FFDAE6",
"L  c #FFDAEC",
"P  c #F9C1F7",
"I  c #F6C0FF",
"U  c #FBC0FD",
"Y  c #FEDBF1",
"T  c #FDD6FE",
"R  c #FCD8FD",
"E  c #DDEAFE",
"W  c #FBEDE2",
"Q  c #FEF6EB",
"!  c #FEF8E8",
"~  c #E2EBF7",
"^  c #E9EBF6",
"/  c #E5E6FE",
"(  c #E8E6FE",
")  c #E2EAFD",
"_  c #E9EBFD",
"`  c #F1E6FD",
"'  c #E1F2FE",
"]  c #EEF7FE",
"[  c #E6FFFF",
"{  c #EDF9FE",
"}  c #F2FAF2",
"|  c #FAF9F2",
" . c #F4F6FE",
".. c #F8F6FF",
"X. c #F3F9FE",
/* pixels */
"                                                                                                                                ",
"                                                                                                                                ",
"                                                                                                                                ",
"                                                                                                                                ",
"                                                                                                                                ",
"                                                                                                                                ",
"                      Q                                                                                                         ",
"                    Q S Q                                       Q                           Q                                   ",
"                      Q                                       7 Q 6                       Q S Q                                 ",
"                                                            8 { { X.                        Q                                   ",
"                                                            8 X.X...8                                                           ",
"                                                          r X.X...X...5                                                         ",
"                                                          r ..X.X.L ..7                                                         ",
"                                                        r ....G  .p X.{                                                         ",
"                                Q                       w  .G F  .I P ] 2                                                       ",
"                              Q S Q                   9 ..X.F F ^ U p  .X.4                                                     ",
"                                Q                     w  . .F Q  .T p X.{ 3                             Q                       ",
"                                                    e ]  .F G Q X.R U p ..X.1                         Q S Q                     ",
"                                                    w  . .F Q Q  .R T i X.{ 5                           Q                       ",
"                                                  w  . .G F Q Q ] R T p i ]  .4                                                 ",
"                                                  e ..X.F Q Q ! ] R T R p { X.1                                                 ",
"                                                  ] ..G W Q Q ! ] T T R p p ] [ H                                               ",
"                                                9  .G W W Q Q ! ] R T T T p U X.0 H                                             ",
"                                                 . .W Q | Q Q Q ] R T R T T p ..X.u H                                           ",
"                                            D H X.X.G Q Q Q Q Q ] R T R R T p ....H H H                                         ",
"                                          H X.X.{ ..G G Q Q Q Q ] R T R R I p ..X.X.X.H H                                       ",
"                                         . .X.e e ] X.F Q Q Q ! ] R R R T p ..} > > } X.H H                                     ",
"                                    X.{ ..y e r y y ..G F Q Q !  .R T R U p X.> : ; > > X.H H                                   ",
"                              H H ..X.X.e e e y e y X.{ G G Q Q X.T T i p | } ; : : ; > : ..H H H                               ",
"                            H ] .. .L L Y L L t e e e { X.W Q ! X.T T i X.X.> ; ; ; V B M = = X.H H                             ",
"                        H X. .X.L L L L L L L L L e y e ..{ F G ..i i ....: : > N N N N N N = Q Q H H H                         ",
"                    J L { ..L L L L L L L L L L K K y y y ..X.G X.i  . .: : : V N N N N N N N = > = X.H H H                     ",
"                  H Q ........X...........X.............................................................X.Q H                   ",
"                    n ....f g f f f f $ f f $ $ f f f f f d ..| ......... X X O ............X X X . X.X.H H                     ",
"                      b m ..E ) $ % f c c l c c c f f f f c ..C ..s ....X = = = , , , , , , = = = X.( H                         ",
"                            n ) ) _ % f k l l k l f f # v ..C Z ..C s ..# = = = , , , , , = o ..) H                             ",
"                                a ) ) ) s % k k l $ $ f ..C C Z ..C C d ..& = = , , , X = Q ( ..H                               ",
"                                    n ) ` % f $ # $ f X...C Z Z ..C C C ....X = X O . Q ! Q ..q                                 ",
"                                      h ( ` ( f # f ..C C Z Z Z ..C C C d ..X = - X Q ! u q                                     ",
"                                        * m ( ^ ~ f X.x A Z Z Z ..C C C C d X.! ! Q ! q                                         ",
"                                            n j ) ) v Z A A Z Z ..C C C C d s ..Q q q                                           ",
"                                              n _ X.C A A A Z Z ..C C C C C d Q q                                               ",
"                                                n ) C z Z Z A Z ..C C C C @ s Q q                                               ",
"                                                h _ ( l z A Z Z ..C C C # $ / ..q                                 Q             ",
"                                                  n ) ) x Z Z Z ..C C v s ( ..q                                 Q S Q           ",
"                                                    n _ z z Z Z ..C C s + _ ..q                                   Q             ",
"                      Q                               n ) v A A ..C C @ ( ..q                                                   ",
"                    Q S |                               ) c z Z ..C s s E ..q                                                   ",
"                      !                                 n ( x A ..C d ^ ..u                                                     ",
"                                                          ..z z ..d d ....u                                                     ",
"                                                          n ..c ..s d ..q                                                       ",
"                                                            ) c ..s ' q                                                         ",
"                                                            < E ....Q                                                           ",
"                                          |                   < Q Q                                                             ",
"                                        Q S !                   Q H                         Q                                   ",
"                                          Q                     Q                         | S Q                                 ",
"                                                                                            Q                                   ",
"                                                                                                                                ",
"                                                                                                                                ",
"                                                                                                                                ",
"                                                                                                                                ",
"                                                                                                                                ",
"                                                                                                                                ",
"                                                                                                                                "
};
