/* XPM */
static char *purple_cloud_1_png1747773481[] = {
/* columns rows colors chars-per-pixel */
"64 64 63 1 ",
"  c #220036",
". c #230037",
"X c #250038",
"o c #2D073F",
"O c #270541",
"+ c #2D0740",
"@ c #2E0C45",
"# c #340E47",
"$ c #340F47",
"% c #3A154B",
"& c #3C184D",
"* c #442254",
"= c #452355",
"- c #462456",
"; c #432C8A",
": c #48318F",
"> c #543F93",
", c #543F94",
"< c #6B59B8",
"1 c #6E5CB9",
"2 c #7262BC",
"3 c #7765BD",
"4 c #7866BE",
"5 c #7C6CBF",
"6 c #6276BE",
"7 c #7F6EC1",
"8 c #7F70C1",
"9 c #8161A7",
"0 c #8465A9",
"q c #8567AA",
"w c #8172C2",
"e c #8273C3",
"r c #6B87D2",
"t c #6C88D2",
"y c #738DD4",
"u c #758ED4",
"i c #758ED5",
"p c #7B93D6",
"a c #7E96D8",
"s c #8098D8",
"d c #8198D8",
"f c #8299D9",
"g c #BAA5C0",
"h c #AAA4DB",
"j c #AFAADD",
"k c #B0A8DB",
"l c #B4AFDF",
"z c #C4B0CA",
"x c #CDBCD2",
"c c #DBCADF",
"v c #FAC9D6",
"b c #FFC9D5",
"n c #FFCFDA",
"m c #DDCDE1",
"M c #DDCEE1",
"N c #DECEE1",
"B c #DECEE2",
"V c #DFD0E3",
"C c #E0D1E3",
"Z c #FAF8FB",
"A c #FFF8F9",
"S c white",
"D c None",
/* pixels */
"DDDDDDDDDDDDDDDDDDDDDDDDDDDDDDDDDDDDDDDDDDDDDDDDDDDDDDDDDDDDDDDD",
"DDDDDDDDDDDDDDDDDDDDDDDDDDDDDDDDDDDDDDDDDDDDDDDDDDDDDDDDDDDDDDDD",
"DDDDDDDDDDDDDDDDDDDDDDDDDDDDDDDDDDDDDDDDDDDDDDDDDDDDDDDDDDDDDDDD",
"DDDDDDDDDDDDDDDDDDDDDDDDDDDDDDDDDDDDDDDDDDDDDDDDDDDDDDDDDDDDDDDD",
"DDDDDDDDDDDDDDDDDDDDDDDDDDDDDDDDDDDDDDDDDDDDDDDDDDDDDDDDDDDDDDDD",
"DDDDDDDDDDDDDDDDDDDDDDDDDDDDDDDDDDDDDDDDDDDDDDDDDDDDDDDDDDDDDDDD",
"DDDDDDDDDDDDDDDDDDDDDDDDDDDDDDDDDDDDDDDDDDDDDDDDDDDDDDDDDDDDDDDD",
"DDDDDDDDDDDDDDDDDDDDDDDDDDDDDDDDDDDDDDDDDDDDDDDDDDDDDDDDDDDDDDDD",
"DDDDDDDDDDDDDDDDDDDDDDDDDDDDDDDDDDDDDDDDDDDDDDDDDDDDDDDDDDDDDDDD",
"DDDDDDDDDDDDDDDDDDDDDDDDDDDDDDDDDDDDDDDDDDDDDDDDDDDDDDDDDDDDDDDD",
"DDDDDDDDDDDDDDDDDDDDDDDDDDDDDDDDDDDDDDDDDDDDDDDDDDDDDDDDDDDDDDDD",
"DDDDDDDDDDDDDDDDDDDDDDDDDDDDDDDDDDDDDDDDDDDDDDDDDDDDDDDDDDDDDDDD",
"DDDDDDDDDDDDDDDDDDDDDDDDDDDDDDDDDDDDDDDDDDDDDDDDDDDDDDDDDDDDDDDD",
"DDDDDDDDDDDDDDDDDDDDDDDDDD......DDDDDDDDDDDDDDDDDDDDDDDDDDDDDDDD",
"DDDDDDDDDDDDDDDDDDDDDDDDD.........DDDDDDDDDDDDDDDDDDDDDDDDDDDDDD",
"DDDDDDDDDDDDDDDDDDDDDDD...bbbbSS.........DDDDDDDDDDDDDDDDDDDDDDD",
"DDDDDDDDDDDDDDDDDDDDDDD...bSSSSS.........DDDDDDDDDDDDDDDDDDDDDDD",
"DDDDDDDDDDDDDDDDDDDDDDD.SSSSSSSSSSS.......DDDDDDDDDDDDDDDDDDDDDD",
"DDDDDDDDDDDDDDDDDDDDDD.cSSSSSSSSSccrhcSSSS..DDDDDDDDDDDDDDDDDDDD",
"DDDDDDDDDDDDDDDDD..DDD.cccSSSSSSccchhcccSS.=&DDDDDDDDDDDDDDDDDDD",
"DDDDDDDDDDDDDDDD......;cccSSSSSVccchhjccVVxgoDDDDDDDDDDDDDDDDDDD",
"DDDDDDDDDDDDDD...hh.;;ccccSSSSSccccShhcccMMz.DDDDDDDDDDDDDDDDDDD",
"DDDDDDDDDDDD...hhhh;;SMcSSSSSSSShhSSShhhCfr6.DDDDDDDDDDDDDDDDDDD",
"DDDDDDDDDD...cSSSSch..cMSSSSSSSShhSShrrfr.....DDDDDDDDDDDDDDDDDD",
"DDDDDDDDD.cccSSSSShh.hccccScSSSSShhhhr..=SSSS..DDDDDDDDDDDDDDDDD",
"DDDDDDDDD.cccSSSSShhhhccccScSSSSShhhhp.X.SSSS..DDDDDDDDDDDDDDDDD",
"DDDDDDDDD.bnSSSSSSSbbbhcccMccSSSShhrdaSSSSSSSSr.......DDDDDDDDDD",
"DDDDDDDDD.bbbbSSSSScZShhhhhjhhhhhhSrd$SSSSSZcSrrr.......DDDDDDDD",
"DDDDDDDD.bSAbbSSSScccchhhhhruhhrSSSrrSSSSSSSScSrrccSSSS...DDDDDD",
"DDDDDDDD.SSSSSScccccccSrrrrrryrSSSSrrcSScSSSSccrrccSSSSS..DDDDDD",
"DDDDDDDD.SSSSSScccccccrrrrrrrrtrrrrrrcSScSSSSccrrccSSSSS..DDDDDD",
"DDDDDDDD.SSSSrSSScccccrrcccccrrrrrrrccSSSSSSScchhhcSSSSccc.DDDDD",
"DDDDDD..SSbnSrrrrrrrrrrcSSSSScccrrrcccSSSScVSchhbhccZSccbbb..DDD",
"DDD....rrSbvcchhhrrhhhccccchhhhccrrrhccccccccchhbhhcccccbbbhh..D",
"DD.....rrSbvcchhhrrrhhSSScSSSShhccurhccccccccchbbhhcbcccccbhh9..",
"D..0SSccrSrZchrrrrrSlhSSSSSSSShhcccrrrrcccccchhbbhhcbbbbbrrh<9..",
"..9SSSScrrrrrrrrrrrccccSSSSSSSSSScc<rrrrhhhhhhr<<hhrrrrrrtr7...D",
".9hScSSShcchrrrcrrrrSSSSSw-1<SSSSccc<<rrrrrrrrr<<<<hhrrrrww%..DD",
"..hhhhcSccrrrrccccrrrrSS<3..<cSccccc<<rrrrrrrr<<<.<h2rrr<8...DDD",
"D.999cccc9999cSSSccccrrrrr..<cccccc<<rr3<<<<<<<<<.<h2<<w7<..DDDD",
"D...9999q9.@999SSSSSScrrr....;;;c;;rrr<.,;;:<<;;;.<<<<w<...DDDDD",
"DDD......+...999cSSSSScw.......;;;r<;....>;;;;;.......X..DDDDDDD",
"DDDDDDDDDDDD....ccccq3w....D....<<<.......$O;;;........DDDDDDDDD",
"DDDDDDDDDDDDDD....ww0c....DDDDD.......DDD.........DDDDDDDDDDDDDD",
"DDDDDDDDDDDDDDD...... ...DDDDDDDD...DDDDDDD......DDDDDDDDDDDDDDD",
"DDDDDDDDDDDDDDDDDD.....DDDDDDDDDDDDDDDDDDDDDDDDDDDDDDDDDDDDDDDDD",
"DDDDDDDDDDDDDDDDDDDDDDDDDDDDDDDDDDDDDDDDDDDDDDDDDDDDDDDDDDDDDDDD",
"DDDDDDDDDDDDDDDDDDDDDDDDDDDDDDDDDDDDDDDDDDDDDDDDDDDDDDDDDDDDDDDD",
"DDDDDDDDDDDDDDDDDDDDDDDDDDDDDDDDDDDDDDDDDDDDDDDDDDDDDDDDDDDDDDDD",
"DDDDDDDDDDDDDDDDDDDDDDDDDDDDDDDDDDDDDDDDDDDDDDDDDDDDDDDDDDDDDDDD",
"DDDDDDDDDDDDDDDDDDDDDDDDDDDDDDDDDDDDDDDDDDDDDDDDDDDDDDDDDDDDDDDD",
"DDDDDDDDDDDDDDDDDDDDDDDDDDDDDDDDDDDDDDDDDDDDDDDDDDDDDDDDDDDDDDDD",
"DDDDDDDDDDDDDDDDDDDDDDDDDDDDDDDDDDDDDDDDDDDDDDDDDDDDDDDDDDDDDDDD",
"DDDDDDDDDDDDDDDDDDDDDDDDDDDDDDDDDDDDDDDDDDDDDDDDDDDDDDDDDDDDDDDD",
"DDDDDDDDDDDDDDDDDDDDDDDDDDDDDDDDDDDDDDDDDDDDDDDDDDDDDDDDDDDDDDDD",
"DDDDDDDDDDDDDDDDDDDDDDDDDDDDDDDDDDDDDDDDDDDDDDDDDDDDDDDDDDDDDDDD",
"DDDDDDDDDDDDDDDDDDDDDDDDDDDDDDDDDDDDDDDDDDDDDDDDDDDDDDDDDDDDDDDD",
"DDDDDDDDDDDDDDDDDDDDDDDDDDDDDDDDDDDDDDDDDDDDDDDDDDDDDDDDDDDDDDDD",
"DDDDDDDDDDDDDDDDDDDDDDDDDDDDDDDDDDDDDDDDDDDDDDDDDDDDDDDDDDDDDDDD",
"DDDDDDDDDDDDDDDDDDDDDDDDDDDDDDDDDDDDDDDDDDDDDDDDDDDDDDDDDDDDDDDD",
"DDDDDDDDDDDDDDDDDDDDDDDDDDDDDDDDDDDDDDDDDDDDDDDDDDDDDDDDDDDDDDDD",
"DDDDDDDDDDDDDDDDDDDDDDDDDDDDDDDDDDDDDDDDDDDDDDDDDDDDDDDDDDDDDDDD",
"DDDDDDDDDDDDDDDDDDDDDDDDDDDDDDDDDDDDDDDDDDDDDDDDDDDDDDDDDDDDDDDD",
"DDDDDDDDDDDDDDDDDDDDDDDDDDDDDDDDDDDDDDDDDDDDDDDDDDDDDDDDDDDDDDDD"
};
