/* XPM */
static char *yves_classic_1_png1747764007[] = {
/* columns rows colors chars-per-pixel */
"64 64 236 2 ",
"   c #05060A",
".  c #0B0B0E",
"X  c #07070B",
"o  c #130D0E",
"O  c #0D0D12",
"+  c #110F12",
"@  c #160C18",
"#  c #0E1015",
"$  c #131115",
"%  c #1A1515",
"&  c #15141A",
"*  c #1B161A",
"=  c #1C191C",
"-  c #1C1917",
";  c #14100F",
":  c #211817",
">  c #211619",
",  c #231C1C",
"<  c #241819",
"1  c #31171E",
"2  c #2B221E",
"3  c #34211D",
"4  c #1D1B22",
"5  c #191A27",
"6  c #241D23",
"7  c #271E29",
"8  c #211934",
"9  c #242124",
"0  c #2B2324",
"q  c #24222A",
"w  c #2C242C",
"e  c #2B2A2C",
"r  c #302523",
"t  c #322824",
"y  c #332B2B",
"u  c #382C2B",
"i  c #382828",
"p  c #3D322F",
"a  c #2C2B32",
"s  c #282532",
"d  c #342C32",
"f  c #372D38",
"g  c #343135",
"h  c #3C3335",
"j  c #34333C",
"k  c #3B353C",
"l  c #3D393D",
"z  c #2F323A",
"x  c #43322D",
"c  c #443735",
"v  c #433A35",
"b  c #443A3B",
"n  c #4B3C3D",
"m  c #493836",
"M  c #513E37",
"N  c #4D1E2E",
"B  c #54453C",
"V  c #4A423F",
"C  c #363541",
"Z  c #3B3542",
"A  c #3D3B43",
"S  c #3B3D4A",
"D  c #302F46",
"F  c #423B43",
"G  c #4A3E43",
"H  c #443A47",
"J  c #483E55",
"K  c #4A434A",
"L  c #484348",
"P  c #534344",
"I  c #53454A",
"U  c #594A48",
"Y  c #4D4A53",
"T  c #494757",
"R  c #544B56",
"E  c #585358",
"W  c #634C4A",
"Q  c #68534E",
"!  c #645455",
"~  c #6B5B5A",
"^  c #65585A",
"/  c #725B57",
"(  c #494A67",
")  c #5A4C64",
"_  c #5D5B69",
"`  c #585666",
"'  c #575975",
"]  c #4E4F6C",
"[  c #645B65",
"{  c #655E7B",
"}  c #5B6677",
"|  c #68636A",
" . c #72636B",
".. c #7C6B6C",
"X. c #746465",
"o. c #636274",
"O. c #6A6878",
"+. c #736C7B",
"@. c #776A73",
"#. c #73717D",
"$. c #6F6059",
"%. c #E93B69",
"&. c #85726C",
"*. c #836E73",
"=. c #867171",
"-. c #8A7574",
";. c #88767B",
":. c #947D7D",
">. c #8C696E",
",. c #9B5163",
"<. c #D14D71",
"1. c #5C6D88",
"2. c #656885",
"3. c #6C7487",
"4. c #75748C",
"5. c #7A7586",
"6. c #757895",
"7. c #766D8E",
"8. c #847886",
"9. c #847895",
"0. c #897687",
"q. c #EC6992",
"w. c #7A869D",
"e. c #7D86A7",
"r. c #98868B",
"t. c #878598",
"y. c #9A8C94",
"u. c #A89698",
"i. c #B79B9A",
"p. c #AD8C8E",
"a. c #B9A29D",
"s. c #8189AB",
"d. c #8888A9",
"f. c #938AA8",
"g. c #9F94AB",
"h. c #8D92B5",
"j. c #8A94B8",
"k. c #9598BC",
"l. c #8B91B2",
"z. c #A99AA4",
"x. c #AD9BB2",
"c. c #9DA2BD",
"v. c #B7A4A8",
"b. c #B8A5B5",
"n. c #EB879D",
"m. c #F288AD",
"M. c #C6AAA9",
"N. c #C6AEB5",
"B. c #CBB2B7",
"V. c #D6BABB",
"C. c #DCBDBC",
"Z. c #D7B7B7",
"A. c #D0B3AF",
"S. c #F4A4BC",
"D. c #E8B4BA",
"F. c #DB8FA7",
"G. c #DCC6BB",
"H. c #979DC4",
"J. c #A59DC3",
"K. c #9CA3CA",
"L. c #9EA4D0",
"P. c #A7A6CB",
"I. c #A6ABD4",
"U. c #AAACD4",
"Y. c #A4A7D4",
"T. c #B6AED3",
"R. c #ADB3D9",
"E. c #B3B5DB",
"W. c #BBBDDE",
"Q. c #BBB4D5",
"!. c #B9ABC5",
"~. c #B9BEE2",
"^. c #C8B3C3",
"/. c #D5BAC4",
"(. c #C4B7D1",
"). c #C3BEE2",
"_. c #F8AED0",
"`. c #BEC1E2",
"'. c #C6C2DB",
"]. c #CAC4DC",
"[. c #D9C5D8",
"{. c #D8C2CF",
"}. c #E3C4C5",
"|. c #EBCBCC",
" X c #EAC6C6",
".X c #F2CBCD",
"XX c #F1C7CD",
"oX c #F3D2CE",
"OX c #E7CBD7",
"+X c #F2CDD4",
"@X c #F8CFDA",
"#X c #F5D2D4",
"$X c #F9D3D5",
"%X c #F4D3DB",
"&X c #FAD4DB",
"*X c #FBDADC",
"=X c #F6D8DC",
"-X c #C3C4E2",
";X c #CCCBE4",
":X c #CDCCE9",
">X c #C6C7E5",
",X c #D3CCE4",
"<X c #D3CBEB",
"1X c #D4D4EA",
"2X c #DBD4EB",
"3X c #DBDAEE",
"4X c #D7D5E7",
"5X c #DAD9F1",
"6X c #D4D0ED",
"7X c #E2DEEE",
"8X c #E5DBEA",
"9X c #FBDCE3",
"0X c #FBDDEA",
"qX c #F6D6E2",
"wX c #E4DAF3",
"eX c #DDE2F3",
"rX c #E3E1EE",
"tX c #E9E4EE",
"yX c #EDEAEE",
"uX c #FCE1E6",
"iX c #FBE3ED",
"pX c #F7E4EC",
"aX c #E4E4F2",
"sX c #E9E6F2",
"dX c #EDEBF4",
"fX c #EDECF9",
"gX c #F0EEF6",
"hX c #FCEBF3",
"jX c #F2EEF9",
"kX c #FBE7F2",
"lX c #F2F1F6",
"zX c #F5F4FA",
"xX c #F6F9FE",
"cX c #FCFCFE",
"vX c #FBF4F9",
"bX c None",
/* pixels */
"bXbXbXbXbXbXbXbXbXbXbXbXbXbXbXbXbXbXbXbXbXbXbXbXbXbXbXbXB ..b B t z @.g.bXbXbXbXbXbXbXbXbXbXbXbXbXbXbXbXbXbXbXbXbXbXbXbXbXbXbXbX",
"bXbXbXbXbXbXbXbXbXbXbXbXbXbXbXbXbXbXbXbXbXbXbXbXbXbXo.5.@.t.X.Y z j j l ^ w.bXbXbXbXbXbXbXbXbXbXbXbXbXbXbXbXbXbXbXbXbXbXbXbXbXbX",
"bXbXbXbXbXbXbXbXbXbXbXbXbXbXbXbXbXbXbXbXbXbXbXbXU 3._ _ | E L l S e z g I ^ t.bXbXbXbXbXbXbXbXbXbXbXbXbXbXbXbXbXbXbXbXbXbXbXbXbX",
"bXbXbXbXbXbXbXbXbXbXbXbXbXbXbXbXbXbXbXbXbXbXbXW z #.` _ Y Y Y l l S q l b I ..f.bXbXbXbXbXbXbXbXbXbXbXbXbXbXbXbXbXbXbXbXbXbXbXbX",
"bXbXbXbXbXbXbXbXbXbXbXbXbXbXbXbXbXbXbXbXbXbXbXl A a a j R e l E ..E g g d G O.8.bXbXbXbXbXbXbXbXbXbXbXbXbXbXbXbXbXbXbXbXbXbXbXbX",
"bXbXbXbXbXbXbXbXbXbXbXbXbXbXbXbXbXbXbXbXbXbXbXX.L q s b Y E ;.v.v.B.u./ b K +.5.[ bXbXbXbXbXbXbXbXbXbXbXbXbXbXbXbXbXbXbXbXbXbXbX",
"bXbXbXbXbXbXbXbXbXbXbXbXbXbXbXbXbXbXbXbXbXbXbXE O.a A R  .z.V.}.|.+X.X.X:.-. .O.0.z.bXbXbXbXbXbXbXbXbXbXbXbXbXbXbXbXbXbXbXbXbXbX",
"bXbXbXbXbXbXbXbXbXbXbXbXbXbXbXbXbXbXbXbXbXbXv l S 4 y #.z.N.|.#X#X$X$X$XoXa.0.@.8.;.bXbXbXbXbXbXbXbXbXbXbXbXbXbXbXbXbXbXbXbXbXbX",
"bXbXbXbXbXbXbXbXbXbXbXbXbXbXbXbXbXbXbXbXbXy , = 6 4 v 8.N.}.+X&X%X0XhX0X9X#Xi.;.=.r.bXbXbXbXbXbXbXbXbXbXbXbXbXbXbXbXbXbXbXbXbXbX",
"bXbXbXbXbXbXbXbXbXbXbXbXbXbXbXbXbXbXbXbXB t h j e $ ! z.V.|.+X&XiXkXcXvXhXiXA.i...r.y.bXbXbXbXbXbXbXbXbXbXbXbXbXbXbXbXbXbXbXbXbX",
"bXbXbXbXbXbXbXbXbXbXbXbXbXbXbXbXbXbXbXbXh X.9 j 5 - Q v./.+X&X9XiXhXzXcXhXkX9X/.>...u.bXbXbXbXbXbXbXbXbXbXbXbXbXbXbXbXbXbXbXbXbX",
"bXbXbXbXbXbXbXbXbXbXbXbXbXbXbXbXbXbXbXbXg i 9 g 9 2 / B.}.+X%XqXiXhXhXcXhXkX0X Xi.-.y.bXbXbXbXbXbXbXbXbXbXbXbXbXbXbXbXbXbXbXbXbX",
"bXbXbXbXbXbXbXbXbXbXbXbXbXbXbXbXbXbXbXbX2 b $ k y g ~ &.b / =./.9XiXkXkX%Xb.=.H o./ r.bXbXbXbXbXbXbXbXbXbXbXbXbXbXbXbXbXbXbXbXbX",
"bXbXbXbXbXbXbXbXbXbXbXbXbXbXbXbXbXbXbXbX9 v 9 d e W ! v.}.+X%X|.@X&XiXiX*XqX0X&X#XW -.bXbXbXbXbXbXbXbXbXbXbXbXbXbXbXbXbXbXbXbXbX",
"bXbXbXbXbXbXbXbXbXbXbXbXbXbXbXbXbXbXbXv h y   e > / :.A./.8 %XkX*X$XiX*X%XXXB.8 #XW &.N.bXbXbXbXbXbXbXbXbXbXbXbXbXbXbXbXbXbXbXbX",
"bXbXbXbXbXbXbXbXbXbXbXbXbXbXbXbXbXbXbXu h 2 X y , [ i.>.8 T cX7.%X.XhX9X X8 6.cX8 / / t.bXbXbXbXbXbXbXbXbXbXbXbXbXbXbXbXbXbXbXbX",
"bXbXbXbXbXbXbXbXbXbXbXbXbXbXbXbXbXbXbX% t &   a r *./.B.i.q.S.0X9XC.iXuX9XXX%XS.+X/.~ 0.bXbXbXbXbXbXbXbXbXbXbXbXbXbXbXbXbXbXbXbX",
"bXbXbXbXbXbXbXbXbXbXbXbXbXbXbXbXbXbXp = v X . e 1 ;./.@X%X8X0X0X&XC.0XuX0X0X0XiX0X%XU *.bXbXbXbXbXbXbXbXbXbXbXbXbXbXbXbXbXbXbXbX",
"bXbXbXbXbXbXbXbXbXbXbXbXbXbXbXbXbXbXP # u . X = w Q ^.@XqXkXvXhXXXZ.9XiX0XhXkXiXkX0Xn 0.bXbXbXbXbXbXbXbXbXbXbXbXbXbXbXbXbXbXbXbX",
"bXbXbXbXbXbXbXbXbXbXbXbXbXbXbXbXbX3.P % w X X = H G B.@X0XlXhXiX XA.*X0X9XiXkXhXiX0Xc 0.bXbXbXbXbXbXbXbXbXbXbXbXbXbXbXbXbXbXbXbX",
"bXbXbXbXbXbXbXbXbXbXbXbXbXbXbXbXbX[ : k & X X 0 I I v.XX9XiX9X$XA./.*XuX&X$X&XiXiX9XK *.bXbXbXbXbXbXbXbXbXbXbXbXbXbXbXbXbXbXbXbX",
"bXbXbXbXbXbXbXbXbXbXbXbXbXbXbXbXbXV = h $     5 I G u.}.&X9X&X$Xp.,. X.X$X9XXX&X0XqX7 *.bXbXbXbXbXbXbXbXbXbXbXbXbXbXbXbXbXbXbXbX",
"bXbXbXbXbXbXbXbXbXbXbXbXbXbXbXbXbXu & G O X X q R b 0.A.+X.XXXXX|.#X&X9X9X*X|. X&Xf w ;.bXbXbXbXbXbXbXbXbXbXbXbXbXbXbXbXbXbXbXbX",
"bXbXbXbXbXbXbXbXbXbXbXbXbXbXbXbXbXv * 4 & X X 7 o.E -.}.$X*XN ,.<.q.S.q.n.8 &X$X&X* w ;.bXbXbXbXbXbXbXbXbXbXbXbXbXbXbXbXbXbXbXbX",
"bXbXbXbXbXbXbXbXbXbXbXbXbXbXbXbX_ e y 4 O O O 4 _   ..B.#X9XD.<.cXcXcXcXF.&X*X*X/.j b *.bXbXbXbXbXbXbXbXbXbXbXbXbXbXbXbXbXbXbXbX",
"bXbXbXbXbXbXbXbXbXbXbXbXbXbXbXbXE = V O O & O q ) O r u.C.oXoXS.%.q._.m.S.uX*XoX& Z H ;.bXbXbXbXbXbXbXbXbXbXbXbXbXbXbXbXbXbXbXbX",
"bXbXbXbXbXbXbXbXbXbXbXbXbXbXbXbXV g = $ O X 6 e [ 5 2 X.v.G.|.|.}.n.n.#XuX*X$X@ , f b :.bXbXbXbXbXbXbXbXbXbXbXbXbXbXbXbXbXbXbXbX",
"bXbXbXbXbXbXbXbXbXbXbXbXbXbXbXbXV P 9 q #   C d [ 9 2 m ..u.V.#X$X%X0XuXpX*XG X w Z G ..bXbXbXbXbXbXbXbXbXbXbXbXbXbXbXbXbXbXbXbX",
"bXbXbXbXbXbXbXbXbXbXbXbXbXbXbXbXt u - e #   j k  .d r m B ! p. X$XqXvX0XuX#.4 O b F X.=.Q bXbXbXbXbXbXbXbXbXbXbXbXbXbXbXbXbXbXbX",
"bXbXbXbXbXbXbXbXbXbXbXbXbXbXbXbXV 2 ; # & X C K ^ L 3 m B U B v.}.&X*X9Xu.H O d f y ..=.v bXbXbXbXbXbXbXbXbXbXbXbXbXbXbXbXbXbXbX",
"bXbXbXbXbXbXbXbXbXbXbXbXbXbXbXbXu - y # # # . e H D m x M M M W :.B.M.a.W 7 s 0 0 n ..-.h bXbXbXbXbXbXbXbXbXbXbXbXbXbXbXbXbXbXbX",
"bXbXbXbXbXbXbXbXbXbXbXbXbXbXbXbXt ; & X # # j g R T.gXP B W / p.}.}.M.p.r 6.J w e P ..&.v bXbXbXbXbXbXbXbXbXbXbXbXbXbXbXbXbXbXbX",
"bXbXbXbXbXbXbXbXbXbXbXbXbXbXbXbX* 5 S # O #   F [ T.2XsXgXp.M.G.oXV.a.Q 3 6X{ R q P =.&.a B bXbXbXbXbXbXbXbXbXbXbXbXbXbXbXbXbXbX",
"bXbXbXbXbXbXbXbXbXbXbXbXbXbXbX> e . . # # 6 & s  .].2X7XsXcXiX X XZ.>.3 8X7.5.H K E ~ / u t bXbXbXbXbXbXbXbXbXbXbXbXbXbXbXbXbXbX",
"bXbXbXbXbXbXbXbXbXbXbXbXbXbXv 0 4 & # a # . & s @.<X4XrXtXzXzXcXcXv.vXtXhX,X6.H Y ^ ..Q r v bXbXbXbXbXbXbXbXbXbXbXbXbXbXbXbXbXbX",
"bXbXbXbXbXbXbXbXbXbXbXbXbXbX= e O . 4 5 D O . T  .3X].sXjXjXzXcXcXcXcXcXE.8X' ( = X.X.W 0 : m bXbXbXbXbXbXbXbXbXbXbXbXbXbXbXbXbX",
"bXbXbXbXbXbXbXbXbXbXbXbXbX6 4 5 5 5 5 5 O & O # 5.7XtXdXgXlXzXzXgXcXcXzXQ.J.).H 4 ^ ! x y e v bXbXbXbXbXbXbXbXbXbXbXbXbXbXbXbXbX",
"bXbXbXbXbXbXbXbXbXbXbXbXH 6X,X).( 5 = e   O O O [ 8XgXgXlXlXlXgXcXcXcXcX2XL.2.{ & ^ ^ x r & 2 ^ bXbXbXbXbXbXbXbXbXbXbXbXbXbXbXbX",
"bXbXbXbXbXbXbXbXbXbXbX4XtX8XdX6X3.9 # 5 X # O s  .2X).lXgXlXlXzXlXcXcXcXkX).7.) & ^ V u u = ; L bXbXbXbXbXbXbXbXbXbXbXbXbXbXbXbX",
"bXbXbXbXbXbXbXbXbXbXaXgXgXgX7Xk.9 q q X O X O & ;.sX].U.gXzXcXcXcXcXcXcXzX).J.O.q U P u t + $ h bXbXbXbXbXbXbXbXbXbXbXbXbXbXbXbX",
"bXbXbXbXbXbXbXbXbXaXdXgXvXtXtXo.9 = X X O O O #  .8XjX,X].4XcXcXcXcXcXcXvX2X<X{ 7  .% < 2 $ $ % bXbXbXbXbXbXbXbXbXbXbXbXbXbXbXbX",
"bXbXbXbXbXbXbXbXbXdXzXdXrXlX'.a = $ # & O . X 5 &.4XjXsXsXcXcXcXcXcXcXvXvX<XJ.9.c ^ % : , - X = > K bXbXbXbXbXbXbXbXbXbXbXbXbXbX",
"bXbXbXbXbXbXbXbXbXaXlXfXsXaXf F 2 . 4 # O O $ O W 8XzXjXlXxXcXcXlXcXcXcXvXQ.T.f.L c + > < - $ O O b bXbXbXbXbXbXbXbXbXbXbXbXbXbX",
"bXbXbXbXbXbXbXbX3X3XzXrX7XQ.4 w * # = O O O * O n wXzXvXvXvXcXcXcXcXcXcXvX(.<X9.4.3 + > - % = * = = ^ fXbXbXbXbXbXbXbXbXbXbXbXbX",
"bXbXbXbXbXbXbX3XeXfXdXlX`.6.p c.= 4 # $ # O & # x <XjXvXzXzXcXxXcXlXcXcXcX[.wXJ.t.0 $ = - ; = , + ; 0 ].bXbXbXbXbXbXbXbXbXbXbXbX",
"bXbXbXbXbXbXbXaX].xX4XdXk.R t.c.= = = * & @ 5 # i ] zXzXzXvXvXlXlXcXcXcXcX7X2XQ.5.= $ * % % + % = + - ) zXbXbXbXbXbXbXbXbXbXbXbX",
"bXbXbXbXbXbXbXrX1XxXtX>XP.0 6.h.& * $ 5 = $ $ O , ' dXzXxXcXxXzXcXcXcXcXcXtX8XT.8.r @ 0 % % % + - X . v xXbXbXbXbXbXbXbXbXbXbXbX",
"bXbXbXbXbXbX( aXsXdXtXI.Y.C t.I.L * & & & $ $ . + f 4XzXzXvXcXxXcXcXcXlXcXcX(.J.{ 7 @ & - . ; . ; = - y 9.zXbXbXbXbXbXbXbXbXbXbX",
"bXbXbXbXbXbX] rXxX3XaXK.k.` ` k.w.% + & $ & . $ $ b J.lXfXzXxXxXzXzXdXcXcXvXwXJ.P.f $ * % . % - ; - - O [ jXbXbXbXbXbXbXbXbXbXbX",
"bXbXbXbXbXbXc.aXcX3X1XE.~.[ 5.k.w.& & + + $ O * $ = H jXzXzXzXlXlXlXlXxXxXvXT.h.,XZ + , ; . o + = , ; 4 r dXbXbXbXbXbXbXbXbXbXbX",
"bXbXbXbXbXbX5XeXcXrX-XR.>XE t.e.w.4 $ $ & $ + * & & k >XzXzXxXzXzXzXzXxXxXcXfXf.7XJ & - - ; $ ; - - = 9 k aXrXbXbXbXbXbXbXbXbXbX",
"bXbXbXbXbXbX>X1XxXdXW.-X`.o.w.l.w.: * $   o * d 6 T 7 [ fXzXxXvXxXzXcXzXcXxXxX-XjX) % - % $ % > $ - - 9 q 9.lXbXbXbXbXbXbXbXbXbX",
"bXbXbXbXbXbX4X1XdXdX-XW.W.O.e.w.w.: = - . o S > j 7 4 T ).zXxXxXcXxXxXxXcXzXlX[.sXT @ * - + @ % - $ 3.= 5 ` fXlXbXbXbXbXbXbXbXbX",
"bXbXbXbXbXbX3X1X3XzX-X>X`.#.j.3._ < h * % + F A [ ( H s d.jXxXcXcXxXxXcXcXcXcX].zX5.* = % % : . - % C * G K lXlXbXbXbXbXbXbXbXbX",
"bXbXbXbXbXbX5X1X3XlX;X;XU.#.s.s.S 2 f # > % > s.Y d.2.T ( wXkXxXcXcXcXcXcXcXxXdX2XR w 7 , ; > + $ $ u q L H zXxXbXbXbXbXbXbXbXbX",
"bXbXbXbXbXbX5X1XfXaXrX>XR.[ w.j.E 0 e _ , * 7 P.2.h.H.O.] k.sXvXxXcXcXxXcXcXxXvX<XH b O.i , 0 + > & j d S E fXxXbXbXbXbXbXbXbXbX",
"bXbXbXbXbXbX1X:XdXlXfX-XI.b j.j.` a w s & : > 4.;XH.R.I.I.Q.lXxXcXxXcXxXcXcXcXzXJ.J t.j.P > y 6 = q H K D | jXvXbXbXbXbXbXbXbXbX",
"bXbXbXbXbXbX1X>X1XzXlXE.P.h h.K.T A g T 6 0 d 2.P.P.].eXsXlXxXxXxXxXcXxXxXcXcXyXg.f.R.E.U f f Z a a T o.( 7.jX).bXbXbXbXbXbXbXbX",
"bXbXbXbXbXbXeXeXeXcXcX;XR.Y e.L.3._ T l k 9 r o.P.;XrXrXdXlXzXxXxXxXcXcXcXcXxXfX3X,XrX;X+.[ H H Z S (  .#...[.OXbXbXbXbXbXbXbXbX",
"bXbXbXbXbXbX1X5XaXcXcXaXI.h.s.I.e.4.o.Y 3.` k 4.`.4XeXeXfXlXzXxXxXzXxXxXxXcXcXxXzXzXlX3XP.5.^ 4._ 3.e.r.z.y.[.OXbXbXbXbXbXbXbXbX",
"bXbXbXbXbXbXeX5XaXcXcXaX:XY.I.E.I.} ` e.w.K.( R.-XaXsXeXsXzXxXzXxXzXlXzXcXcXcXcXxXzXlX3X1X'.1XW.H.j.J.z.b.(.OX2XbXbXbXbXbXbXbXbX",
"bXbXbXbXbXbXbXbXx.!.cXfX2X~.W.-Xe.1.} s.L.R.`.`.`.1XeXrXsXzXzXzXxXxXlXgXzXcXcXcXxXxXzXdXfXlXsX1XP.;XaX5.^./.,X/.bXbXbXbXbXbXbXbX",
"bXbXbXbXbXbXbXbXy.y.z.z.z.1X:X;X1.1.e.K.R.R.~.:X-X-XaXeXfXlXzXlXzXxXxXgXdXcXcXcXcXlXzXlXlXzXfXaXlXaXeXx.^.(.[.[.bXbXbXbXbXbXbXbX",
"bXbXbXbXbXbXbXbXu.v.N.b.N.^.^.b.} 1.k.k.R.~.`.>X-X>X3XaXlXlXlXgXfXxXxXzXgXzXcXcXcXzXlXlXlXlXlXlXlXfXaX^.N./.[.[.bXbXbXbXbXbXbXbX"
};
