/* XPM */
static char *starry_1_png_8_1747936879[] = {
/* columns rows colors chars-per-pixel */
"64 64 224 2 ",
"   c #000000",
".  c #05060A",
"X  c #0B0B0E",
"o  c #08070C",
"O  c #130D0E",
"+  c #0D0D12",
"@  c #110F12",
"#  c #160C18",
"$  c #0E1015",
"%  c #131115",
"&  c #1A1515",
"*  c #15141A",
"=  c #1B161A",
"-  c #1B191C",
";  c #1C1917",
":  c #14100F",
">  c #231C1C",
",  c #221818",
"<  c #31171E",
"1  c #2B221E",
"2  c #34211D",
"3  c #1D1B22",
"4  c #191A27",
"5  c #251E26",
"6  c #211934",
"7  c #242124",
"8  c #2B2324",
"9  c #24222A",
"0  c #2C242C",
"q  c #2B2A2C",
"w  c #332B2B",
"e  c #342827",
"r  c #2C2B33",
"t  c #282532",
"y  c #342C32",
"u  c #362D39",
"i  c #3C3335",
"p  c #34333C",
"a  c #3B353C",
"s  c #393539",
"d  c #363234",
"f  c #443A3B",
"g  c #463936",
"h  c #47352F",
"j  c #4D1E2E",
"k  c #54443C",
"l  c #4B413F",
"z  c #3D3B43",
"x  c #393744",
"c  c #302F46",
"v  c #423B43",
"b  c #463B45",
"n  c #483E55",
"m  c #61326C",
"M  c #494349",
"N  c #574847",
"B  c #4B4756",
"V  c #544B56",
"C  c #585358",
"Z  c #645455",
"A  c #68595A",
"S  c #6A5350",
"D  c #494A67",
"F  c #5A4C64",
"G  c #5A5867",
"H  c #525370",
"J  c #645B65",
"K  c #6B4E7A",
"L  c #5B6677",
"P  c #68636A",
"I  c #7C6B6C",
"U  c #736468",
"Y  c #676576",
"T  c #766B76",
"R  c #73717D",
"E  c #6F6059",
"W  c #E6752F",
"Q  c #E77B39",
"!  c #A41250",
"~  c #A4134F",
"^  c #C7274C",
"/  c #C72A4E",
"(  c #F13644",
")  c #E93B69",
"_  c #945568",
"`  c #85726C",
"'  c #887477",
"]  c #947D7D",
"[  c #896C72",
"{  c #AB435B",
"}  c #F14754",
"|  c #D04C6E",
" . c #F25561",
".. c #E77F40",
"X. c #6F974C",
"o. c #39FD4B",
"O. c #6EE272",
"+. c #E3B33E",
"@. c #F88C39",
"#. c #ED8744",
"$. c #F4A559",
"%. c #A0CE55",
"&. c #BAF06E",
"*. c #F7E375",
"=. c #284081",
"-. c #1C7391",
";. c #1C768F",
":. c #646785",
">. c #6C7487",
",. c #787488",
"<. c #767894",
"1. c #776C8B",
"2. c #5B618C",
"3. c #847886",
"4. c #86778F",
"5. c #EC6992",
"6. c #E43FFF",
"7. c #1BAFBC",
"8. c #7A869D",
"9. c #4694B4",
"0. c #7D86A7",
"q. c #2EC985",
"w. c #50EF9E",
"e. c #77E7BE",
"r. c #55EFA1",
"t. c #1AC7D1",
"y. c #57CAC7",
"u. c #64CDCA",
"i. c #878598",
"p. c #99898F",
"a. c #A89798",
"s. c #B69B9A",
"d. c #AD8C8E",
"f. c #B9A29D",
"g. c #8589AA",
"h. c #9F94AB",
"j. c #8B93B6",
"k. c #9598BC",
"l. c #8E8EAF",
"z. c #A99AA4",
"x. c #AD9BB2",
"c. c #9DA2BD",
"v. c #B7A4A8",
"b. c #B8A5B5",
"n. c #F08C9C",
"m. c #F288AD",
"M. c #C8AEB5",
"N. c #CCB2B7",
"B. c #D8BABA",
"V. c #C9ACAB",
"C. c #F0A9BB",
"Z. c #DB8FA7",
"A. c #DCC6BB",
"S. c #979DC4",
"D. c #A997C9",
"F. c #9CA3CA",
"G. c #9EA4D0",
"H. c #A7A6CB",
"J. c #A7ABD4",
"K. c #B8B7DA",
"L. c #B3AFD1",
"P. c #B691F6",
"I. c #B9BEE2",
"U. c #D999CE",
"Y. c #ED93CD",
"T. c #C8B3C3",
"R. c #D5B8C2",
"E. c #CAB5D7",
"W. c #F0ABD0",
"Q. c #CF95ED",
"!. c #F793F3",
"~. c #CFB6EE",
"^. c #F2A7F1",
"/. c #BEC1E2",
"(. c #81E8C3",
"). c #C9C3DC",
"_. c #D9C5D8",
"`. c #D8C2CF",
"'. c #E8C7C8",
"]. c #F2CACD",
"[. c #E7CBD7",
"{. c #F4CDD5",
"}. c #F5D2D3",
"|. c #F9D3D5",
" X c #FAD5DB",
".X c #FBDADC",
"XX c #F5D3DB",
"oX c #F3D2CE",
"OX c #C3C4E2",
"+X c #CCCBE4",
"@X c #C9C9E7",
"#X c #D3CBE7",
"$X c #D4D4EA",
"%X c #DBD4EB",
"&X c #DBDAEE",
"*X c #D7D5E7",
"=X c #DAD9F1",
"-X c #D3D1E9",
";X c #E2DEEE",
":X c #E5DBEA",
">X c #FBDCE3",
",X c #FBDDEA",
"<X c #F8D6E3",
"1X c #EBD6F4",
"2X c #DDE2F3",
"3X c #EAE4ED",
"4X c #E5E3EE",
"5X c #FBE3ED",
"6X c #FBE1E7",
"7X c #E4E4F2",
"8X c #E9E6F2",
"9X c #EDEBF4",
"0X c #EDECF9",
"qX c #F0EEF6",
"wX c #FCEBF3",
"eX c #F2EEFA",
"rX c #FBE7F2",
"tX c #F2F1F6",
"yX c #F5F4FA",
"uX c #F6F9FE",
"iX c #FCFCFE",
"pX c #FBF4F9",
"aX c #EEFFFF",
"sX c None",
/* pixels */
"                                                        k I g k q p Y z..                                                       ",
"                                                    P ,.T i.P N p s d z C 8.                                                    ",
"                                                N ,.G G P C M s z q p d N C i.                                                  ",
"        -X                                    Z p R G G V B V z p z 9 z l N I h.                                                ",
"        W..                                   a x r r p V q s C T A s d r b Y i.                      6.                        ",
"                                              U B 9 r a B C ' v.v.N.a.A f M T T J                             Q.Q.              ",
"                                              C Y r z V U z.B.'.'.].].'.] ' T Y 3.z.                          Q.aXP.            ",
"                P.D.                      ^.g a z 3 w R z.M.'.XX}.{.|.|.oXs.] T 3.'                             P.              ",
"                P.D.                    Q.w > - 3 5 g 3.M.'.].|. X,XrX5X,XoXs.] ' p.                                            ",
"              y.  .       w.            k e d p 9 % Z z.N.[.{.>XrXrXiXwXwX6XV.s.U p.p.                                          ",
"          r.q.r.q.q.    q.q.t.7.        i U 8 p - > S v.B.{.XX>X5XwXuXiXwX5X>XR.[ I a.            ^.                            ",
"          e.u.q.X.&.    w.w.t.7.-.      i e 5 d 9 1 A N.'.{. X<X5XwXwXiXpXwX,X'.s.' p.          . ^.                            ",
"        y.y.9.(.%.&.X.X.%.r.7.7.7.-.    1 f % s w w A ` f E [ R.<X5XwXrX Xx.[ v Y N p.                                          ",
"        9.-.X.+.W W +.*.%.O.7.-.=.=.    3 g 5 y 8 Z A v.'.{.{.'.}..X5X5X<X>X,X|.].S '                                           ",
"          =._ W W ..+.+.+.-.-.=.2.    g i w . w , E ] ] s.R.N.,X<X|.5X.X.X].V.R.a.N ` M.                                        ",
"          =.^ W W W +.W W X.-.=.=.    w i 1 . e 5 E a.[ :X:.6 a.XX].wX.X'.3X:.6 [ ] E p.                                        ",
"          =.m ( ( ^ W #.^ ^ 1.m sX    & e & . q < [ R.N.s.4.W.,X.X'.5X6X6XW.XXC.{.s.N 4.                                        ",
"            m ! ( ( ( ( ( } m m     i = i X X q 8 [ R.XX>X<X,X,X|.B.,X6X5X,X,X5X<XB.] 3.                                        ",
"            m m ^ ^ ( ( / K m       N @ w X o - 0 S R.<X,X5XwXwX].B.>X5X6XwX5X5XrXN.z.[                         W.^.            ",
"          >XsXsX! ( (  ./ m       >.N % q o . - b b M.{.,XwXwXrXW.V..X6X>X5X5XpX,XR.I 3.                        Y.              ",
"          ^.^.  / ( ( ^ (         A = a * o X 5 N N b.].<X5X5X.XB.A.|.6X X|. XrX5XN.g [                                         ",
"                  / ( ( ^         M , g % . . 3 N b a.R. X>XXX|.d._ '.].}..X].{.,XR.N ' Y.^.!.                                  ",
"                    ! ! sXQ.      w * f + . . 7 B f ] M.}.].'.].oXoX}..X.X X[.'. Xs.e ]                                         ",
"                          .       g * 5 * . + 5 Y V ' '.|..Xj { | 5.m.m.m.6 |.|. XR.0 '                                         ",
"                                L q w - + + + 3 G . I N.}..XC.| iXiXiXiXZ. X X.XR.p a '                                         ",
"                                C & k + + * + 9 G X e a.B.oXoXC. .5.W.m.C.6X.XoX% x b '             ,X                          ",
"                            r.  l w.* % + o 3 r J 3 > E v.A.'.oXR.n.5.}.6X.X|.# 5 u f ]                     w.      w.          ",
"        o.                e.r.;.q.q.7.9 # . p y J 9 2 g I a.A.|.{. XrX5X5X.Xb X 8 v b I                 w.q.w.-.  q.q.t.7.      ",
"                        9.9.+.*.%.q.7.6 $ . p s P u 2 g k Z a.A.|.>XpX5X6XT 4 X f b U [ S             y.y.9.%.%.X.%.w.7.7.      ",
"                      . ^.m Q #.*.X.2.$ 4 o x M A M 8 h k N N v.'.|..X>Xa.M + w y w I ` f             9.-.X.$.. *.%.O.7.=.9.    ",
"                      !.1Xm ( W #.^ D + + $ o q b c f h h h k k ] M.V.f.Z t r 5 8 b I ' i               =._ @...+.+.-.-.=.      ",
"                      !.eXU.^ ( ( K + . $ + c u V L.rXN k S _ d.'.'.f.d.< <.n 0 8 N I ` g               =.( ( ( Q W _ m =.      ",
"                              ^ / 4 x $ + * . x J L.$X8XtXd.V.A.'.B.f.S < #XY V 0 N ` ` w k               m ( @.( }  .m         ",
"                              & q o $ $ + 5 % t T ).%X:X9XpX5X'.'.B.` 2 ,X1.4.x M C A A w e                 ^ ( (  .K _         ",
"          Y.                g 9 4 * $ r $ o 4 t T -X-X3X3XyXyXiXiXv.tX3XpX#X<.x B Z I S 2 i R.~.            ! ( ( ^ m           ",
"                            - r + X 4 4 p + o M U %X).8XqXqXyXiXiXiXiXiXK.1XH D - U U N 8 > f                 | ( ^             ",
"                          3 3 4 4 4 3 4 + * + * 3.:X7X8XqXtXyXyXtXiXiXyXL.D.E.c 4 Z A h w q g                   !               ",
"                        b $X#XE.D 4 - q . + + + J :X9XeXqXqXtXqXiXiXiXiX:XG.:.Y * A Z h 8 * 1 A                                 ",
"                      &X3X:X8X#X>.7 * 3 . $ X t P %XE.uXqXyXyXyXtXiXiXiXqXOX1.H * A k e w ; + l                                 ",
"                    4XqXqXqX8Xk.7 9 9 . + o X 4 ' 3X+XJ.9XyXiXiXiXiXiXiXeXE.H.T 9 N N w w % & i                                 ",
"                  7X9XqXpX3X4XY 7 - X o + + + $ U 3XeX+X).%XiXiXiXiXiXiXpX*X#XY 5 U # , 1 % & ;                                 ",
"                  9XyX9X4XtX).r - % % $ + o + - [ :XeX3X8XiXiXiXiXiXiXpXtX#XH.3.v Z & , > & o * , n       !.n.                  ",
"                  7XtXtX8X7Xu a - + 3 $ o + $ + N :XyXeXpXiXiXiXtXiXiXiXyXE.D.g.n f : , > & % % O g       ^.~..                 ",
"                &X&XyX&X;XK.5 0 - % - + + + 3 + f ;XyXpXyXyXiXiXiXiXiXiXpXE.%Xl.,.2 @ , ; & ; - - - A 9X  Y.P.                  ",
"              &X&XtX0XtX/.<.i k.- 3 * $ $ + * $ h #XeXpXyXiXiXyXpXtXiXiXiX_.%XD.i.> % = , % - - + $ 2 ).                        ",
"              7X).iX$X9Xk.V i.c.- * 3 * * # - % 0 D eXpXyXyXyXtXyXiXiXiXiX:X%XE.,.> % - & & @ & ; % ; G uX                      ",
"              7X$XuX4X@XH.8 8.l.* = * - - * * + > Y qXyXyXiXiXyXiXiXiXiXiX3X:XL.3.5 # 8 & & & : ; o X h iX                      ",
"            D 7X8X9X9XJ.F.x i.J.M = * * * % + X % y #XeXyXuXiXuXiXiXiXyXiXiXE.S.Y 5 # = & X : X : = - w 4.pX        . W.        ",
"            H &XiX*X2XG.k.G C k.8.& @ * % * X @ $ f H.qX9XyXyXuXyXyX9XiXiXpX%XH.H.u % - & X % , : ; ; + J eX          !.        ",
"            c.7XiX&X-XK.I.L 3.j.8.= * @ % @ + & % - b eXyXyXyXyXtXtXeXyXuXpXL.l.+Xx % > : X : @ = > % 3 e 9X                    ",
"            =X2XiX4XOXK.@XV i.0.8.- % % * % @ = * & a ~.yXyXyXyXyXyXyXiXiXiX9Xl.:Xn = & ; % @ @ ; ; ; 3 p 7X4X                  ",
"          U.+X$XuX9XK.OX/.P 8.j.8., - % . O = u 1 B 7 G 0XyXiXyXuXyXuXpXiXuXiXOXqXF % & & & = , % ; > 7 9 4.tX                  ",
"            $X$X9X9X/././.R 0.8.8.> - ; + O b , p 9 3 B E.uXuXiXuXuXuXuXiXyXtX_.8XB # = , @ : & ; & >.- 4 G 0XtX                ",
"            &X$X&XyXOX@X/.Y j.>.G ; s ; % % x x G D z 0 g.yXuXiXiXuXuXiXiXiXiX).pX,.- - & & , X ; % x * M b tXtX                ",
"            &X$X2XtX+X+XJ.R 0.g.z 1 u * > & , g.B g.Y B D 1XqXuXiXiXiXiXiXiXiXqX:XV 5 5 > O , @ & % w 9 M b uXuX                ",
"            =X$X9X4X2X+XJ.J 0.j.C e 7 G > = 5 F.:.k.S.:.H k.7XpXuXiXuXiXiXiXpXpX@Xb f :.e > 5 @ & * a y x C 0XuX                ",
"            $X-X0X9XtXOXJ.b j.j.C p q t = ; , <.+XS.L.J.J.K.tXuXiXiXiXuXiXiXiXyXc.n i.j.b > e 5 - 9 z N c P 0XyX                ",
"            $X@X$XyXtXL.G.i j.F.B z r B > 8 u Y F.H.+X2X9XtXyXaXuXuXiXuXuXiXiX9Xz.l.L.K.N u u f r t D Y D >.0X_.                ",
"            2X2X2XiXiX+XJ.V 0.G.>.G B z x 7 8 Y H.#X4X7X9XqXyXuXuXuXuXiXiXiXuX9X%X+X4X+X1.J b v x z B P R I `.[.  . .           ",
"            $X&X2XiXiX8XJ.j.0.J.8.8.L B >.G a 1.I.*X&X7X9XtXyXuXuXyXuXuXuXiXiXuXiXyX9X&XF.R J 4.L >.0.p.x.p._.[.  O.            ",
"            &X=X4XiXiX7X-XJ.J.K.G.L H 0.0.S.D J.OX7X8X7X8XtXuXyXuXyXtXyXiXiXiXiXuXyXyX&X-X).$XK.j.j.F.a.b.R.[.#X                ",
"                x.L.uXaX$X/.K./.0.L L 0.G.J.@X/./.$X4X2X8XyXuXyXuXuXtX0XyXiXiXiXuXyXyX9X9XtX9X-XJ.#X8X1.L.R._._.                ",
"                p.a.z.z.h.-X-X@X2.L 0.F.J.I.I.@X@XOX7X2X0XtXyXqXyXuXuXtX9XiXiXiXuXyXyXtXyXtX9X0X9X7X7Xb.T.`._._.                ",
"                a.z.M.b.M.T.T.b.L 8.k.k.J.I./.@X/.OX&X7XtXtXtX0XtXuXuXyXtXyXiXiXiXyXtXtXtXyXtXtX0X9X2XT.b.`._._.                "
};
