/* XPM */
static char *starry_1_png_5_1747936096[] = {
/* columns rows colors chars-per-pixel */
"64 64 242 2 ",
"   c #000000",
".  c #05060A",
"X  c #08070C",
"o  c #0B0B0E",
"O  c #130D0E",
"+  c #14100F",
"@  c #0D0D12",
"#  c #110F12",
"$  c #160C18",
"%  c #0E1015",
"&  c #131115",
"*  c #1A1515",
"=  c #1C1917",
"-  c #15141A",
";  c #1B161A",
":  c #1C191C",
">  c #211817",
",  c #211619",
"<  c #241819",
"1  c #231C1C",
"2  c #31171E",
"3  c #2B221E",
"4  c #34211D",
"5  c #1D1B22",
"6  c #191A27",
"7  c #241D23",
"8  c #271F29",
"9  c #211934",
"0  c #242124",
"q  c #2B2324",
"w  c #24222A",
"e  c #2C242C",
"r  c #2B2A2C",
"t  c #302523",
"y  c #322824",
"u  c #332B2B",
"i  c #382828",
"p  c #382C2B",
"a  c #282532",
"s  c #2C2B32",
"d  c #342C32",
"f  c #362D39",
"g  c #343135",
"h  c #363234",
"j  c #3C3335",
"k  c #34333C",
"l  c #3B353C",
"z  c #3D393D",
"x  c #4D1E2E",
"c  c #43322D",
"v  c #443735",
"b  c #433A35",
"n  c #443A3B",
"m  c #4A3A38",
"M  c #513E37",
"N  c #4A423F",
"B  c #54453C",
"V  c #302F46",
"C  c #393744",
"Z  c #3D3B43",
"A  c #423B43",
"S  c #433946",
"D  c #4A3E43",
"F  c #483E55",
"G  c #484348",
"H  c #4A434A",
"J  c #544747",
"K  c #5D4A44",
"L  c #53454A",
"P  c #4B4756",
"I  c #544B56",
"U  c #585358",
"Y  c #634C49",
"T  c #68534E",
"R  c #645455",
"E  c #65585A",
"W  c #6B5B5A",
"Q  c #725C58",
"!  c #6F6059",
"~  c #494A67",
"^  c #4E4F6C",
"/  c #5A4C64",
"(  c #585666",
")  c #5D5B69",
"_  c #575975",
"`  c #645B65",
"'  c #655E7B",
"]  c #5B6677",
"[  c #68636A",
"{  c #746465",
"}  c #72636B",
"|  c #7C6B6C",
" . c #636274",
".. c #6A6878",
"X. c #766B76",
"o. c #73717D",
"O. c #E93B69",
"+. c #9B5163",
"@. c #85726C",
"#. c #836E73",
"$. c #8E6971",
"%. c #867171",
"&. c #8A7574",
"*. c #88767B",
"=. c #957D7D",
"-. c #D14D71",
";. c #39FD4B",
":. c #5BFF6D",
">. c #5C6D88",
",. c #646785",
"<. c #776C8B",
"1. c #6C7487",
"2. c #787488",
"3. c #767894",
"4. c #897687",
"5. c #847886",
"6. c #847895",
"7. c #EC6992",
"8. c #E43FFF",
"9. c #FB5CFF",
"0. c #7A869D",
"q. c #7D86A7",
"w. c #98868B",
"e. c #878598",
"r. c #9A8C94",
"t. c #AD8C8E",
"y. c #A79697",
"u. c #AA999A",
"i. c #B69B9A",
"p. c #B9A29D",
"a. c #8189AB",
"s. c #8888A9",
"d. c #938AA8",
"f. c #9F94AB",
"g. c #8B91B2",
"h. c #8B93B6",
"j. c #9598BC",
"k. c #A99AA4",
"l. c #AD9BB2",
"z. c #9DA2BD",
"x. c #B7A4A8",
"c. c #B8A5B5",
"v. c #F08C9C",
"b. c #DB8FA7",
"n. c #F288AD",
"m. c #CAADAB",
"M. c #C2AEB6",
"N. c #CDAEB5",
"B. c #CEB3B6",
"V. c #C8B0B9",
"C. c #D6BABB",
"Z. c #DABABA",
"A. c #F4A4BC",
"S. c #E8B4BA",
"D. c #DCC6BB",
"F. c #979DC4",
"G. c #A59DC3",
"H. c #B28AD3",
"J. c #9CA3CA",
"K. c #9EA4D0",
"L. c #A7A6CB",
"P. c #B9ABC5",
"I. c #A4A7D4",
"U. c #A6ABD4",
"Y. c #AAACD4",
"T. c #B6AED3",
"R. c #ADB3D9",
"E. c #B3B5DB",
"W. c #BBBDDE",
"Q. c #B691F6",
"!. c #B9BEE2",
"~. c #A3AAFF",
"^. c #D999CE",
"/. c #ED93CD",
"(. c #C8B3C3",
"). c #D4B4C0",
"_. c #D6BCC5",
"`. c #CAB5D7",
"'. c #F0ABD0",
"]. c #CF95ED",
"[. c #F793F3",
"{. c #CFB6EE",
"}. c #F8A7E6",
"|. c #F3ABF3",
" X c #BEC1E2",
".X c #D8C2CF",
"XX c #C6C2DB",
"oX c #CAC4DC",
"OX c #D9C5D8",
"+X c #E3C4C5",
"@X c #EAC6C6",
"#X c #EBCBCC",
"$X c #F1C7CD",
"%X c #F2CBCD",
"&X c #F6D3CE",
"*X c #E7CBD7",
"=X c #F3CDD4",
"-X c #F8CFDA",
";X c #F5D2D3",
":X c #F9D3D5",
">X c #F4D3DB",
",X c #FAD5DB",
"<X c #F6D8DC",
"1X c #FBDADC",
"2X c #C3C4E2",
"3X c #C6C7E5",
"4X c #CCCBE4",
"5X c #CDCCE9",
"6X c #D3CBE7",
"7X c #D7D5E7",
"8X c #D3D1E9",
"9X c #D4D4EA",
"0X c #DBD4EB",
"qX c #DBDAEE",
"wX c #DAD9F1",
"eX c #E5DBEA",
"rX c #E2DEEE",
"tX c #F8D6E3",
"yX c #FBDCE3",
"uX c #FBDDEA",
"iX c #E4DAF3",
"pX c #F5D2F6",
"aX c #DDE2F3",
"sX c #E3E1EE",
"dX c #EAE4ED",
"fX c #EDEAEE",
"gX c #FBE1E7",
"hX c #FBE3ED",
"jX c #E4E4F2",
"kX c #E9E6F2",
"lX c #EDEBF4",
"zX c #EDECF9",
"xX c #FBE7F2",
"cX c #F0EEF6",
"vX c #FCEBF3",
"bX c #F2EEFA",
"nX c #EEFFFF",
"mX c #F2F1F6",
"MX c #F5F4FA",
"NX c #FBF4F9",
"BX c #F6F9FE",
"VX c #FCFCFE",
/* pixels */
"                                                        B @.b B y k ..k.                                                        ",
"                                                    [ 2.} 0.} P k k k z E 0.                                                    ",
"                                                G 2.( ) [ ` G l Z r k g J E e.                                                  ",
"        7X                                    R k o.( ) P L P z k Z w z N L | d.                                                ",
"        }.                                    z Z g s k P s z U X.U l g s D ..5.                      8.                        ",
"                                              { G w s z P U =.x.x.B.y.Q n G X.2.{                             ].].              ",
"                                              U ..s Z L } u.C.+X#X%X%X@X=.&.} ..4.k.                          Q.nXQ.            ",
"                ~.H.                      |.b z C 5 u 2.k.M.#X:X=X:X:X:X&Xp.4.X.5.*.                            Q.              ",
"                Q.H.                    ].i 1 : 5 7 v 5.V._.=X:X,XuXvXhXuX:Xi.&.*.w.                                            ",
"                                        B y g k r & R k.Z.#X=XyXhXxXVXxXvXuXm.i.| w.r.                                          ",
"                            9.          p { 0 l 5 = R x.Z.=X>XyXhXvXVXVXvXhXyX_.@.| y.            |.                            ",
"                                        j i 0 k 0 0 Q V.#X=X1XtXhXvXvXVXNXxXyX@Xi.&.r.          . [.                            ",
"                                        0 n & l u h W @.S Q $.).tXhXvXxX>Xc.%.S  .K w.                                          ",
"                                        0 b 7 d q T R x.@X%X=X#X:X1XhXhX1XtXuX,X:XY *.                                          ",
"                                      b j p . u = Q =.B.u._.N.uXtX:XhX1X<X%XB.Z.y.Y @.(.                                        ",
"                                      p j q o y 7 Q y.$.dX,.9 u.>X%XvX1X_.hX,.9 $.=.W 4.                                        ",
"                                }.    * y - . r 8 #.Z.N.i.t.'.yXgXS.hXgXgX'.>XA.=Xu.K 4.                                        ",
"                                    j = v X o r 2 *.C.-XtXtXuXuX:XZ.gXgXxXuXuXhXuX).=.4.                                        ",
"                                    J % p o X : e R ).-XpXhXxXvX=XZ.yXhXhXvXhXhXhXB.k.#.                        '.|.            ",
"          gX|.}.                  1.J * e o . : D D N.-XuXxXvXxX@Xm.1XgX1XhXhXNXhX).| 4.                        /.              ",
"          |.|.                    E = l & . o 0 L D x.=XyXhXyX:XB.D.,XgX>X:X,XhXhXB.B #..                                       ",
"                                  G > j & . . 5 I D y._.,XyX,X:Xt.+.@X%X:XyX$X,XuX).Y #./.}.[.                                  ",
"                        ~.].      p - D @ . X w I n =.B.=X%X$X$X%X%X>XyXtX1X#X@X,Xi.e *.                                        ",
"                          .       b ; 7 % . @ 8  .I &.+X:X1Xx +.-.7.'.7.v.9 <X:X,X).e *.                                        ",
"                                ) r u 5 % @ o 5 ) . #.B.:XyXS.-.VXVXVXVXb.,X1X1X).C l %.                                        ",
"                                U : N @ @ - @ w / o t y.C.&X&XA.O.7.'.n.A.gX:X&X- C A &.            pX                          ",
"                                N u : & @ X 5 r ` 5 3 ! x.D.#X#XC.v.v.&XgX1X:X& 1 f D *.                                        ",
"        ;.                      N J 0 w @ . C d ` w 3 m | u.C.:X:X,XuXuXhX1XS o e S m |                                         ",
"                                u p = r % . k l [ d t m B T t.+X:XtXNXhXgXo.5 o n D { %.T                                       ",
"                        |.      N 3 & % - X C G E G 4 c B K K x.+X:X1X<Xu.S # d f u | %.b                                       ",
"                      [.pX      y 1 r % % % @ r S V m M m M M Y =.N.m.i.R 8 s 7 q n | &.j                     :X                ",
"                      [.bX^.    y + = . % % g d I T.cXD B Y Q t.+X+Xm.t.2 3.F e e J | @.v                                       ",
"                                = 6 C % @ & X C ` T.7XkXbXt.m.D.&XD.p.T 2 0X' I 8 L @.@.r B                                     ",
"                              * s X @ % % 7 - w } XX0XiXkXMXgX@XD.C.$.i eX<.3.Z G E E Q p i                                     ",
"          /.                b r 5 - % s % X 6 a X.8X7XkXdXMXVXVXVXx.NXdXvX6X<.S I U | T q b `.{.                                ",
"                            5 s @ o 6 6 k % X P } 0XXXkXcXcXMXVXVXVXVXVXE.eX_ ~ - | { K q > M                                   ",
"                          , 5 6 6 6 6 6 @ - @ & 5.eXjXlXcXmXMXMXmXVXVXMX`.j.{.Z - W E c u u b                                   ",
"                        S wX5X`.~ 6 : r . @ @ @ ` eXlXbXmXmXmXcXVXVXVXVX8XK.,. .- E E c q - 3 E                                 ",
"                      7XeXeXkX8X1.0 % 6 . % @ s [ 0X`.BXcXmXmXMXmXVXVXVXzX`.<./ - W N p p : O G                                 ",
"                    jXcXbXcXkXj.0 0 0 X @ X X - *.dX3XY.cXbXVXVXVXVXVXVXMXXXI.X.w J J p y # & j                                 ",
"                  jXlXcXNXdXdX .w : o X @ @ @ % } eXbX4XoX0XVXVXVXVXVXVXVX0X6X' 8 } * < 3 + - =                                 ",
"                  lXMXlXsXmXXXr 5 & & % @ X @ : #.0XbXdXfXVXVXVXVXVXVXNXMX6XG.4.S R * < 1 ; o - < F       [.v.                  ",
"                  jXmXmXkXjXf A 3 o 5 % @ o % @ Y eXMXbXmXVXVXVXmXVXVXVXNXT.T.6.F v # , 1 = & % o b       |.{..                 ",
"                qXqXMXqXrXE.7 e - & : @ @ @ 5 @ m rXMXNXVXNXVXVXVXVXVXVXBX`.6Xd.2.4 # < > & = : : = E kX  /.].                  ",
"              qXqXcXlXMX X0.j f.1 5 & & @ % % $ c 6XbXVXMXMXVXMXNXmXVXVXVXOX0XG.e.3 & = = # : 1 & # 3 oX                        ",
"              jXoXVX9XlXj.I e.z.: - 5 - - @ 5 & e ^ NXbXMXVXMXmXMXVXVXVXVXsX0X`.2.= & ; * * # & : & = / BX                      ",
"              jX9XBXdX3XJ.e 0.g.- - % 5 5 & - @ 1 ' cXmXVXVXVXMXVXVXVXVXVXdXeXT.5.8 # q * * * O = X # b BX                      ",
"            ~ jXkXlXkXI.I.l e.U.S : - - - & # o & f 6XbXMXMXBXVXBXVXVXNXVXVX`.F.' e $ ; = o O O & = : y 6.BX          '.        ",
"            ^ sXBXqXjXJ.j.( ( j.0.= # - & - o & & n G.mXlXMXMXMXMXMXlXVXVXMXiXG.L.f & = * o & = # = = % ` mX          [.        ",
"            z.jXVXqX9XE.!.` 2.j.0.- - # $ # @ ; & ; S bXMXmXMXBXmXcXbXMXVXNXT.g.4Xl & 1 + O O # = = & 5 i fX                    ",
"            wXaXVXsX2XR.3XU e.q.0.: & % - - o ; - * C 2XMXBXMXMXMXMXMXVXVXVXbXd.rXF ; * = + & + = = = 5 l iXsX                  ",
"          ^.4X9XBXlXW.2X X[ 0.g.0.> ; & . O = g 7 P 8 ` zXMXBXBXBXBXBXMXVXVXMX2XbX/ - ; * & ; = & = 1 0 w 6.mX                  ",
"            9X9XlXlX XW. Xo.q.0.0.> : = o O S , k 8 5 P `.BXMXVXBXBXBXBXVXMXmXOXkXI $ ; = O $ * = * 1.: 6 / cXmX                ",
"            qX9XqXmX3X3X X..g.1.) > l = - $ Z Z ` ~ S a a.bXMXVXVXBXBXVXVXVXVXoXMX2.: ; < * * O ; * C - G G zXmX                ",
"            qX9XsXmX4X5XU.o.q.g.Z q d - : * : a.P s.,.P ~ iXxXVXVXVXVXVXVXVXVXcXeXI 8 8 1 + ; $ & & u w G G MXBX                ",
"            wX9XzXjXsX4XU.) q.g.U y e ( 1 = 7 L.,.j.F. ._ h.kXVXBXVXVXBXVXVXVXNX3XS A ..i , 7 # < & l d C U zXBX                ",
"            9X8XjXmXlX2XU.n h.h.( k e r - = , 3.4Xj.R.U.Y.W.mXBXVXBXVXBXVXVXVXMXG.F e.F.n , u 7 : a S H V [ bXvX                ",
"            9X3X9XMXmXE.U.j g.J.P C s P 7 t p ,.G.L.4XsXkXmXMXBXBXBXBXVXBXVXVXfXk.d.R.R.K l j S s s P  .~ 1.zX6X                ",
"            aXaXaXVXVX4XY.P a.K.1.( P z l q e  .U.4XsXjXlXmXMXBXBXBXBXBXVXVXVXlXqX4XsX4XX.` G S l C ~ } o.| OX*X                ",
"            9XqXjXVXVXjXY.g.a.U.q.3.[ P ,.( l 2. X7XaXjXjXmXMXBXBXMXBXVXBXVXVXBXMXMXmX0XG.<.( 2.] 1.q.w.k.r.OXOX  :.            ",
"            aXwXsXVXVXkX5XI.U.E.K.] P q.q.F.~ R.2XjXjXjXjXMXBXMXBXMXlXMXVXVXVXVXBXMXmXrX5XXX8XW.h.h.G.k.l.(.*X*X                ",
"                l.P.VXmX0X XW. Xh.>.] g.J.R.3X X X9XjXjXkXmXMXMXBXBXmXzXMXVXVXVXBXBXMXlXmXmXfX8XY.4XkX2.(._.6XOX                ",
"                r.r.k.k.f.8X8X5X>.>.q.J.R.R.!.3X3X2XaXaXzXMXMXmXMXBXBXmXzXVXVXVXBXmXMXmXmXMXzXlXmXjXjXl.(.`..XOX                ",
"                y.x.M.c.V.(.(.c.] >.j.j.R.!. X3X X3XqXjXmXmXmXmXmXBXBXMXmXMXVXVXVXMXmXmXmXMXmXmXzXzXaX(.(._.OXOX                "
};
