/* XPM */
static char *a35cc97369dd4ecbf81b02f60026adb8Ib1dw2i6zS3usA6s[] = {
/* columns rows colors chars-per-pixel */
"64 46 233 2 ",
"   c None",
".  c #363D32",
"X  c #35453A",
"o  c #4A4A3F",
"O  c #1C4741",
"+  c #194957",
"@  c #254D46",
"#  c #244B4C",
"$  c #2C4C4B",
"%  c #2A4746",
"&  c #334B4B",
"*  c #384B46",
"=  c #2B514B",
"-  c #265249",
";  c #34514A",
":  c #3D534D",
">  c #284C55",
",  c #344E58",
"<  c #2D5452",
"1  c #2C545C",
"2  c #285959",
"3  c #345353",
"4  c #3B5454",
"5  c #34535D",
"6  c #345A5B",
"7  c #3C5C5C",
"8  c #3D5755",
"9  c #34615E",
"0  c #1F4C60",
"q  c #245C6B",
"w  c #285966",
"e  c #365B67",
"r  c #2A5E73",
"t  c #275F72",
"y  c #2D616A",
"u  c #326263",
"i  c #3D6B6C",
"p  c #386666",
"a  c #2A6374",
"s  c #376779",
"d  c #3B7073",
"f  c #454B4B",
"g  c #48544C",
"h  c #585447",
"j  c #445454",
"k  c #425C5E",
"l  c #4B5B5B",
"z  c #485755",
"x  c #545C54",
"c  c #5B5C56",
"v  c #545757",
"b  c #534E53",
"n  c #6B584B",
"m  c #655B57",
"M  c #745D5A",
"N  c #54625E",
"B  c #5C625A",
"V  c #6A645A",
"C  c #74645A",
"Z  c #7C655B",
"A  c #796555",
"S  c #435D62",
"D  c #495A65",
"F  c #535E63",
"G  c #515C6E",
"H  c #436161",
"J  c #4C6565",
"K  c #496969",
"L  c #566465",
"P  c #5A6767",
"I  c #5A746B",
"U  c #446775",
"Y  c #576974",
"T  c #487676",
"R  c #577477",
"E  c #646663",
"W  c #646A64",
"Q  c #6B6B69",
"!  c #756C64",
"~  c #6C716C",
"^  c #72726C",
"/  c #7C736A",
"(  c #797165",
")  c #667375",
"_  c #757A7C",
"`  c #797875",
"'  c #866859",
"]  c #906B59",
"[  c #87765D",
"{  c #836B62",
"}  c #8B6D61",
"|  c #896E6B",
" . c #8B7465",
".. c #8B746D",
"X. c #877869",
"o. c #957D65",
"O. c #98746B",
"+. c #8A7572",
"@. c #837B72",
"#. c #8B7A72",
"$. c #887B78",
"%. c #957B75",
"&. c #967874",
"*. c #996968",
"=. c #A67C6A",
"-. c #A37973",
";. c #AE7168",
":. c #AB7556",
">. c #728A7A",
",. c #7CA57F",
"<. c #89827A",
"1. c #99867B",
"2. c #91836E",
"3. c #A28375",
"4. c #A8867A",
"5. c #A6877C",
"6. c #B98A77",
"7. c #AE8771",
"8. c #D68F6D",
"9. c #1F7089",
"0. c #2C6B8B",
"q. c #366B84",
"w. c #2D768B",
"e. c #35789A",
"r. c #306E94",
"t. c #3879A1",
"y. c #4C7287",
"u. c #627982",
"i. c #747B83",
"p. c #7D7C83",
"a. c #757E90",
"s. c #897E82",
"d. c #937B80",
"f. c #28809B",
"g. c #3382A5",
"h. c #7B8588",
"j. c #7B8A97",
"k. c #738A95",
"l. c #4387A5",
"z. c #7090AA",
"x. c #8B8786",
"c. c #9B8C8C",
"v. c #9D8882",
"b. c #868C97",
"n. c #85939D",
"m. c #9C9393",
"M. c #909189",
"N. c #A48D85",
"B. c #AD8C84",
"V. c #A78C89",
"C. c #A4948C",
"Z. c #AD938B",
"A. c #A69588",
"S. c #A69A97",
"D. c #B39D97",
"F. c #B49389",
"G. c #BAA49D",
"H. c #B4A398",
"J. c #8995A4",
"K. c #959AAB",
"L. c #8B9CB1",
"P. c #949DB5",
"I. c #B39DA2",
"U. c #87A1BA",
"Y. c #93A3BD",
"T. c #9BA5B7",
"R. c #9DA3AE",
"E. c #ABA5AB",
"W. c #BCA5A4",
"Q. c #BBA8A9",
"!. c #A5ACBE",
"~. c #AAABB8",
"^. c #B4ACB5",
"/. c #AAB2BE",
"(. c #B9B4B2",
"). c #C79C8D",
"_. c #C2A49F",
"`. c #C3A6A3",
"'. c #C3A9AA",
"]. c #C4A9A8",
"[. c #C6B1AC",
"{. c #C5ABB1",
"}. c #C9B6B3",
"|. c #D1BABE",
" X c #D1AFB0",
".X c #D4C1BF",
"XX c #909EC5",
"oX c #9CABC5",
"OX c #9CADCA",
"+X c #96A9C4",
"@X c #9DB1CB",
"#X c #95B7CB",
"$X c #9DB5D2",
"%X c #89A3C1",
"&X c #A4ADC3",
"*X c #A7AEC7",
"=X c #ACB4C5",
"-X c #A4B3CC",
";X c #ACB5CC",
":X c #ADB8CF",
">X c #A7B4C5",
",X c #B2B6CB",
"<X c #B4BACC",
"1X c #B9B9C7",
"2X c #A5B5D1",
"3X c #ABB6D1",
"4X c #ACBBD4",
"5X c #A5B8D8",
"6X c #B3BCD2",
"7X c #B9BED2",
"8X c #B3BEDA",
"9X c #ABBFE1",
"0X c #C9B7C3",
"qX c #BAC0CC",
"wX c #BCC2D5",
"eX c #B6C2DB",
"rX c #BCC4DB",
"tX c #B9C7D8",
"yX c #AEC0CE",
"uX c #B8C8E3",
"iX c #D8C8CE",
"pX c #C4C4D4",
"aX c #C2C6DD",
"sX c #C4CADC",
"dX c #CCCAD9",
"fX c #D0C8D2",
"gX c #E5D1DB",
"hX c #C3CDE6",
"jX c #CCD2E6",
"kX c #D2D5E7",
"lX c #EDDBE0",
"zX c #EBE8F4",
"xX c #F9F6F6",
/* pixels */
"                                                                                                                                ",
"                                                                                                                                ",
"                                                                                                                                ",
"                                                                                                                                ",
"                                                                                                                                ",
"                                                                                                                                ",
"                                                                                                                                ",
"                                                                                                                                ",
"                                                                                                                                ",
"                                                                                                                                ",
"                                                                                                                                ",
"                                                                                                                                ",
"                                                                                                                                ",
"                      D.M.S.S.F.                                      x._ _ `                                                   ",
"                      M.m.Z.C.H.                |.(.                D._ Q.D._           ).k U e                                 ",
"                    C.` 1.Q.N.N.5.            }.G.[.(.              ` c.|.'._         m ~.^.I.7                                 ",
"                    ` ^ x.N.[.W.A.          Q.G.G.|.[.qX          B.D.W.].#.) )       S.) S.Q.k l                               ",
"                    ^ ^ Q.`.W.].<.          W. X`.G.C.Q.          1.`.D.`.{.P P       iX{.E.7 = H                               ",
"                    ^ E C.Z.).G.#.          5.`.'.0XZ.}.          ~ c.-.W.C.L P     O.D.V.c.Q.# S                               ",
"                    W E E.1.'.` /           <.`._.`.@.1.          P L D.#.L l L     W s.Z.W.$ 7 4                               ",
"                    L N 6XpXZ.x.`  .      3.1.1.Z.( <.N.          N b.V.pXF J J   8.dXS.6.~.- 4 :                               ",
"                  $X+XY.>XwXrX!.W X.    xXv.#.sXdXS.( v.        @.F oXdXpXY S 7   P 7XkXzXL.= 4 $                               ",
"                +X-X6X3XS 3X6X&Xx ( lXwX6X~ Q 1XjX=X/ #.    pX~.! V -X6X8XJ.7 4 eXtX5X6XjXwXJ.4 =                               ",
"                +X&X:X6X@X2X-X@Xx 2.L.7XR.E B 1XrX,X! ! gX  dXo.o.<X2X3XrX+XD 7 rXoXeXeXuX4XoX= O :                             ",
"                +X-X-X&X4X5 2X3Xn.c T.7X$.W ~ n.-XoXE ^ N.  0Xo. .aXeXeXrXuXk 4 3XeX#XuXuXuX9X& @ :                             ",
"                oX-X-X1X6X6 4X4X:XV =X7X^ P B <.<XwXp.W 1.  0X[ E.rXrXsXaXeXwX4 5 rX< uXhXhXhXi.3 $     xX8Xc.                  ",
"                oX;X;X!.;X< ;X&X<X~.:X<X<Xn.aX,X,XsX=XN @..X/.D &XyXpXwX,XP.4 3 , tX3 rXaXjXaX~.$ 8   zX2XT.  C                 ",
"                -X-X-X,X3X$ ,XyX;X=X:X6X<X6X!.7X7XrX=XP V gX,X1Xj ,XpXaXsXwXL H wXaX=XrXhXkXuX/.7 : 8X4X:X    n                 ",
"                oX3X&X;XT.<X=X:X6Xk 3X6X=X=Xn.wX7XrXE.j iXiX7X7X^.~.pX1XsX7X<X7 wXrXaXR hXjXuXrXO sX4XoX                        ",
"                @X-XOX%.b.@.K.n.s.5X3X6X-X<XK.tXyX@XZ.F.C.3X<X,XE.<.1X1XpXqX=X!.7XrXJ.>.kXjXaXaX!.*X&X                          ",
"                OX&XoXf G & j.J.<.m.3X4X3Xs s s y.g./ 3.1.R.<X=Xc ~ ~ ^ K l K e 6XrXv z g M m b j                               ",
"                -X-X-Xg Y % Y 3 v.V.T.;XY.t q q.q.e U s     ,X=Xj I I K R R K 6 L.rXx *.;.m l &.4                               ",
"                Y.;X-X` J.3 J.D { C.  3X2Xq w 0.q.3 e 5     =XK.S K K p R T i p L.rX: C ;.c b Z &                               ",
"                OXoX+XZ d.N &.X o &.  &X-Xz.q w.0.> > e     ,X&XJ J 7 3 i p 6 2 U.8X* -.*.v z M * <                             ",
"                OXoXOXE b.h.b.4 ! 4   T.-X+Xr w.e.t 5 q.    7XT.e J ,.7 p p 6 p 2 3Xf ..M l 4 v ; @                             ",
"                  oXOXU.F J J # ! P   @X;X2Xe w.l.e., U     ;Xk < >.6 $ < 6 u p 9 eXg M f j j f & *                             ",
"                  Y.oX%Xj.% b.% h h   u.&X3Xr 0.g.t.# y.D   G # 2 n.p > 2 1 T i 6 eX: m % * ; : % l                             ",
"                  +XY.XXk.# j.Y c E   r Y.4X-Xq f.e.< e 1   T.< 6 J < @ = w d w u uXf c @ % = @ L l                             ",
"                u.@X+X-XD = F N . 8 7 2 k.4X@Xr r.t.> e 1   &X# & I i < u y u w S pXv x < : @ ; B g                             ",
"                b P.OX$Xj.@ h.i.Y X g q 9.%.%.a r.e.> 1 ,   %.z < F H < u y i y % O.z x = & % - m D                             ",
"                R k m v.V X P i.h.z i.0 0.!  .w 0.e.0 > >   O.: # H 2 $ 2 2 u.2 h =.x B - < z < j                               ",
"                * a.M } ] 4 8 c h A   + a 7 { w 0.e.1 f          .@.j @ 2 2 R z     -.B.o.  X.V.v.                              ",
"                    h C @.` V {  .      V +.1.+.h '  .          { .. .n ..B.F.5.    =.4.3.  %.N.<.                              ",
"                    / +.#.| V ' }         ..%.#.n Z {              .} ] #.Z.B.3.    7.4.3.  3.N.%.                              ",
"                      ..&.+.C ' ]         { &.%.Z Z {             ' ' :...B.4.      7.6.=.  3.B.X.                              ",
"                      #.%.+.Z }           C ....! ' A             Z ' ;.&.B.4.      6.6.7.] 4.3.                                "
};
