/* XPM */
static char *starry_1_png_16_1747937910[] = {
/* columns rows colors chars-per-pixel */
"64 64 237 2 ",
"   c black",
".  c #2B201E",
"X  c #524658",
"o  c #625D70",
"O  c #39FD4B",
"+  c #4CFD5F",
"@  c #5BFF6D",
"#  c #85798D",
"$  c #FF5680",
"%  c #FE5E82",
"&  c #EC6084",
"*  c #EF7AA1",
"=  c #F275A3",
"-  c #E96CBA",
";  c #F879B6",
":  c #F67CBF",
">  c #E43FFF",
",  c #EC6BC2",
"<  c #F370C7",
"1  c #FB7ACE",
"2  c #6EB7FD",
"3  c #79C7FF",
"4  c #A49C9C",
"5  c #9294A1",
"6  c #9992A9",
"7  c #989ABA",
"8  c #FB979A",
"9  c #FFA69E",
"0  c #DC80AC",
"q  c #E381AE",
"w  c #F595A4",
"e  c #FF8BBE",
"r  c #DCA1B3",
"t  c #E4A5AC",
"y  c #F4A1B9",
"u  c #F8A5BE",
"i  c #FDA6BF",
"p  c #F9C69F",
"a  c #B083CA",
"s  c #AF8DD3",
"d  c #B486D3",
"f  c #AFA8C2",
"g  c #A6ACD3",
"h  c #8682F0",
"j  c #9F88F6",
"k  c #A392E4",
"l  c #BB95EE",
"z  c #BA9DEB",
"x  c #B88AF2",
"c  c #BC88F6",
"v  c #BF81FB",
"b  c #AD91F1",
"n  c #A697FC",
"m  c #A79FFC",
"M  c #B89EF2",
"N  c #BB9AF5",
"B  c #B499F9",
"V  c #B19BFD",
"C  c #A4AAF8",
"Z  c #C883CB",
"A  c #CC9DCC",
"S  c #D092C0",
"D  c #D695C5",
"F  c #D09BC4",
"G  c #DF9AC0",
"H  c #DA9CCB",
"J  c #D594D7",
"K  c #DC9ED0",
"L  c #D396DE",
"P  c #ED83C1",
"I  c #F384C8",
"U  c #ED9CC7",
"Y  c #F19FCD",
"T  c #FF9CC9",
"R  c #FA8DDD",
"E  c #E690DB",
"W  c #F49DD0",
"Q  c #F194D8",
"!  c #C7A4D7",
"~  c #CCA9D0",
"^  c #DCAAD2",
"/  c #D2B7D7",
"(  c #D8BADE",
")  c #EDADC5",
"_  c #E0AACA",
"`  c #F7AAD7",
"'  c #FFAED4",
"]  c #F3B1D3",
"[  c #DF8FE6",
"{  c #C497E3",
"}  c #CC81F9",
"|  c #C69EF7",
" . c #CC93FF",
".. c #C999FF",
"X. c #D59AF1",
"o. c #DD91F9",
"O. c #DF91FC",
"+. c #FF8DE2",
"@. c #F68DEA",
"#. c #FB89ED",
"$. c #F79EE5",
"%. c #FD9EE3",
"&. c #FB9DEE",
"*. c #E68DF3",
"=. c #E18CF5",
"-. c #EF8EF2",
";. c #F48AFF",
":. c #F68AFF",
">. c #FF8BFF",
",. c #FA8EFF",
"<. c #F191F5",
"1. c #F198F3",
"2. c #FF94FF",
"3. c #FF96FF",
"4. c #FF98FF",
"5. c #FD9EFD",
"6. c #FC9FFF",
"7. c #CEAFEF",
"8. c #CFACF7",
"9. c #DEADF7",
"0. c #D4A2FF",
"q. c #D3ADFB",
"w. c #D9B6FF",
"e. c #F0A2EF",
"r. c #FBA3EF",
"t. c #E3B9EF",
"y. c #F3B5E0",
"u. c #FABAE5",
"i. c #ECA7F5",
"p. c #EAAEF2",
"a. c #EEAAF5",
"s. c #F7A0F2",
"d. c #F3A5F6",
"f. c #FAA0F9",
"g. c #FFAAFF",
"h. c #F2B2F0",
"j. c #F4B7F0",
"k. c #F8B7F5",
"l. c #ABC4EB",
"z. c #B9C0E2",
"x. c #BEFFFF",
"c. c #CACBDE",
"v. c #CDC8DF",
"b. c #DEC8D1",
"n. c #D5C3D8",
"m. c #FFD7CF",
"M. c #FAC0D9",
"N. c #FFD7DE",
"B. c #C1C9E3",
"V. c #CFD5E0",
"C. c #CBD1E9",
"Z. c #CBD0EB",
"A. c #CED0EE",
"S. c #D0D1E7",
"D. c #D2D3E7",
"F. c #D4DBEC",
"G. c #DCDCED",
"H. c #DFDFED",
"J. c #DCDEF0",
"K. c #DEDFF1",
"L. c #E5DFEA",
"P. c #F5CEF1",
"I. c #F5D9F3",
"U. c #F5D5FB",
"Y. c #DFE1EE",
"T. c #D7E1F2",
"R. c #D9E0F0",
"E. c #DAE0F1",
"W. c #DBE0F1",
"Q. c #DAE1F1",
"!. c #DDE1F3",
"~. c #DDE4F1",
"^. c #DEE5F2",
"/. c #DFE6F3",
"(. c #DAE4F6",
"). c #E1E1EE",
"_. c #E1E3EF",
"`. c #E7E5EF",
"'. c #E9E3ED",
"]. c #E0E2F1",
"[. c #E1E5F3",
"{. c #E2E4F3",
"}. c #E0E6F3",
"|. c #E3E6F3",
" X c #E5E5F0",
".X c #E4E4F1",
"XX c #E5E5F1",
"oX c #E5E7F1",
"OX c #E7E5F3",
"+X c #E5E7F2",
"@X c #E6E7F2",
"#X c #E6E6F3",
"$X c #E7E2F5",
"%X c #E2E5F4",
"&X c #E3E5F5",
"*X c #E0E7F5",
"=X c #E2E6F5",
"-X c #E1E5F6",
";X c #E3E7F6",
":X c #E5E7F4",
">X c #ECE7F3",
",X c #E8E7F4",
"<X c #ECE7F4",
"1X c #E7E8F3",
"2X c #E6EAF3",
"3X c #E3E8F4",
"4X c #E7EAF4",
"5X c #E7E9F6",
"6X c #E7EAF7",
"7X c #E6EBF7",
"8X c #EAE9F2",
"9X c #E8E9F4",
"0X c #E9E9F4",
"qX c #E9EAF5",
"wX c #E8EBF5",
"eX c #EAEBF4",
"rX c #EEEAF5",
"tX c #EEEBF6",
"yX c #E9ECF6",
"uX c #E9ECF7",
"iX c #EEEFF8",
"pX c #F0EDF5",
"aX c #F1EEF6",
"sX c #F1EFF9",
"dX c #F2EDFB",
"fX c #F6EEFF",
"gX c #EEF1F9",
"hX c #EEFFFF",
"jX c #F0F1F6",
"kX c #F1F3F7",
"lX c #F2F3F7",
"zX c #F2F1F8",
"xX c #F3F1F9",
"cX c #F1F2F8",
"vX c #F1F1FA",
"bX c #F2F4F8",
"nX c None",
/* pixels */
"                                                                                                                                ",
"                                                                                                                                ",
"                                                                                                                                ",
"        V.                                                                                                                      ",
"        y.                                            %.r.                                            >                         ",
"                                                                                                              L {               ",
"                                                                                                              v hXc             ",
"                m s                       f.                                                                    N               ",
"                b d                     [ 1.(                 n.)                                                               ",
"                                        &.,. .                                    w                                             ",
"                            nX                                                  0 & :             i.                            ",
"                                                                                  <               6.                            ",
"                                                +                                                                               ",
"                                                                                                                                ",
"                                                                                                                                ",
"                                                                                                                                ",
"                                nX                                                                                              ",
"                                                                              2.                                                ",
"                                                                                                                _ 6.            ",
"          N.nXnX                                                  :.j.                                          U               ",
"          s.9.                                                                                                                  ",
"                                              ;                                         E $.+.                                  ",
"                        nX..                  ,                                                                                 ",
"                                                                                                                                ",
"                                                                                                                                ",
"                                                                                                    P.                          ",
"                                                                                                                                ",
"        O                                                                                                                       ",
"                                                                                                                                ",
"                        a.                                z                 2.                                                  ",
"                      :.U.                              } 3 h                                                 m.                ",
"                      *.fXG                             M a Z                                                                   ",
"                                                                                                                                ",
"                                                                                                                                ",
"          W                                                                                 ^ 7.                                ",
"                                            o.                                                                                  ",
"                                                                                                                                ",
"                                                                                                                                ",
"                                g.                                    p                                                         ",
"bX                                                                  q % T                                                       ",
"xXxX                Y                                               1 - F                                                       ",
"tXkX              <.k.Q                           q.                                                      -.8                   ",
"aXlX              h.~                             k j                                   X.                e.w.                  ",
"dXkXkX                                          O.C x                                                     P l                   ",
").4XxX                                                                                                                          ",
"'.iXdX                                                                                                                          ",
"'.tXiX                                                                                                                          ",
">XrXgX9X                          p.                                                                                  `         ",
">XeXeX9X                          =.                                      4.                                          #.        ",
"`.gX#XwX    T                                                                                                                   ",
".X,X9X4X    $ I                                                                                                                 ",
"eXH.4X4X6XH * =                                                                   M.'                                           ",
"S..X#X.X6X                                                    K                                                                 ",
"`.eXY.4X4X                                                  b.] /                                                               ",
".X1X=X.X=X=X                                                x.t.>.                                      d.e 8.                  ",
".X.X#X=X=X/.                                                                                              0.@.                  ",
"$XL.W./.=X~.        R I.J                     u                               S                                                 ",
"# S.).{.!.=X!.                              9 y D                           n 2 l.                                              ",
". 6 H.K.=X~.3X                              t A r                           B V |               u.                              ",
"f X A.W.~.uX-X(.                                                              !                                   @             ",
"5 o c.4X4X4X/.T.                                                                                                                ",
"7 g S.6X3X3X/.T.                                                                                                                ",
"z.z.F.~.3X3X                                                                                                                    ",
"C.Z.!.!.4                                                                                                                       "
};
