/* XPM */
static char *chuu_classic_1_png_1_1747763069[] = {
/* columns rows colors chars-per-pixel */
"77 80 233 2 ",
"   c #1C1618",
".  c #241B1C",
"X  c #2C1D1C",
"o  c #231817",
"O  c #321D1C",
"+  c #2C221F",
"@  c #32231E",
"#  c #3B241E",
"$  c #1E1C22",
"%  c #271F22",
"&  c #2C2324",
"*  c #2B262A",
"=  c #292729",
"-  c #322424",
";  c #3B2524",
":  c #3D2925",
">  c #342A2B",
",  c #3C2C2B",
"<  c #372728",
"1  c #332E33",
"2  c #3A2F33",
"3  c #3A3438",
"4  c #362F2E",
"5  c #1E2025",
"6  c #442A26",
"7  c #432D2A",
"8  c #4C2C29",
"9  c #512F2A",
"0  c #44322D",
"q  c #4B322D",
"w  c #453127",
"e  c #54342E",
"r  c #59322F",
"t  c #422E31",
"y  c #443333",
"u  c #4B3433",
"i  c #43363A",
"p  c #443C3D",
"a  c #4B3B3C",
"s  c #4B3836",
"d  c #553633",
"f  c #543A35",
"g  c #543B3B",
"h  c #5B3D3B",
"j  c #5C3A34",
"k  c #633C35",
"l  c #623C3A",
"z  c #481923",
"x  c #5D423B",
"c  c #57433E",
"v  c #63433C",
"b  c #6B443D",
"n  c #66453A",
"m  c #744A3E",
"M  c #3E3C42",
"N  c #493E42",
"B  c #573E40",
"V  c #6A3D47",
"C  c #4A4349",
"Z  c #554344",
"A  c #5B4344",
"S  c #52464C",
"D  c #554A4C",
"F  c #5C4A4C",
"G  c #5D4846",
"H  c #5B4D53",
"J  c #554C54",
"K  c #5B5155",
"L  c #59545B",
"P  c #4B4A57",
"I  c #634443",
"U  c #654A44",
"Y  c #6C4A45",
"T  c #644C4B",
"R  c #6B4D49",
"E  c #6A4643",
"W  c #744B44",
"Q  c #7A4B44",
"!  c #744D49",
"~  c #69524D",
"^  c #7C544C",
"/  c #77544A",
"(  c #674D54",
")  c #6A5253",
"_  c #65575A",
"`  c #7B5A53",
"'  c #735559",
"]  c #775857",
"[  c #7B685C",
"{  c #675B64",
"}  c #785C63",
"|  c #68626A",
" . c #7A6664",
".. c #676A76",
"X. c #766B76",
"o. c #7A7274",
"O. c #5E6168",
"+. c #83544D",
"@. c #825552",
"#. c #835A54",
"$. c #865B5B",
"%. c #8A5351",
"&. c #87635C",
"*. c #92625E",
"=. c #81705B",
"-. c #8A5D63",
";. c #886667",
":. c #956967",
">. c #897368",
",. c #96786B",
"<. c #896A72",
"1. c #956B74",
"2. c #867579",
"3. c #9A7477",
"4. c #A47577",
"5. c #9B8576",
"6. c #94816E",
"7. c #A4897D",
"8. c #7D7983",
"9. c #746F8A",
"0. c #877A87",
"q. c #997986",
"w. c #A97D84",
"e. c #DB7695",
"r. c #F077A5",
"t. c #E6779A",
"y. c #7D83A2",
"u. c #88849C",
"i. c #988994",
"p. c #968A8C",
"a. c #A78887",
"s. c #B38889",
"d. c #A99586",
"f. c #AA8A96",
"g. c #A89997",
"h. c #B59995",
"j. c #B39192",
"k. c #B8A298",
"l. c #AEA098",
"z. c #979AB9",
"x. c #8E90A8",
"c. c #B998A3",
"v. c #A996A9",
"b. c #BCA6A3",
"n. c #B8A7B7",
"m. c #B7ACAD",
"M. c #C29C9E",
"N. c #CAA796",
"B. c #C39DA7",
"V. c #D198AD",
"C. c #F494BA",
"Z. c #EF8DB2",
"A. c #C4AAA4",
"S. c #C6A9AA",
"D. c #CFB2AB",
"F. c #CAB4BA",
"G. c #D6B7BA",
"H. c #CFAEAF",
"J. c #ECAABF",
"K. c #DDC1BD",
"L. c #A9A5C4",
"P. c #B6B7D9",
"I. c #B0B0CD",
"U. c #A3A0C2",
"Y. c #C7B8C8",
"T. c #DABDC3",
"R. c #D6B8C4",
"E. c #C5BCD9",
"W. c #E9B7C9",
"Q. c #DEAFD4",
"!. c #BDC3E4",
"~. c #D9C3CB",
"^. c #C7C3DC",
"/. c #D9C7D6",
"(. c #DED1D9",
"). c #E3C3CD",
"_. c #E9C8C9",
"`. c #E3CCD4",
"'. c #EBCBD5",
"]. c #E4CCDB",
"[. c #EBCEDB",
"{. c #E5C5D3",
"}. c #EBD1DC",
"|. c #F2D3DD",
" X c #F3D5DB",
".X c #F2CDD4",
"XX c #C5CBE4",
"oX c #C8CAE6",
"OX c #CCD3EB",
"+X c #C9D1E8",
"@X c #D2D5EB",
"#X c #D5DAED",
"$X c #DBDCED",
"%X c #D8D5E7",
"&X c #DBDDF1",
"*X c #D6DBF1",
"=X c #D8CFE4",
"-X c #E7CDE2",
";X c #EED3E3",
":X c #E2DDEC",
">X c #E9D6E8",
",X c #F3D5E4",
"<X c #F9D6E5",
"1X c #F5D9E5",
"2X c #FADAE5",
"3X c #F5DCEA",
"4X c #FADCEA",
"5X c #F4D6E8",
"6X c #ECD6ED",
"7X c #DEE0EE",
"8X c #DDE2F2",
"9X c #E3E2ED",
"0X c #EAE3EF",
"qX c #F7E2ED",
"wX c #FAE2ED",
"eX c #E3E5F3",
"rX c #E9E6F2",
"tX c #E6E9F4",
"yX c #EBEBF5",
"uX c #EDEEF8",
"iX c #E5ECF9",
"pX c #F1EEF6",
"aX c #F1EEF9",
"sX c #FAE7F2",
"dX c #EFF1F6",
"fX c #EFF0F9",
"gX c #F1F2F6",
"hX c #F5F4FA",
"jX c #F8F6FC",
"kX c #F7F9FB",
"lX c #FCFCFD",
"zX c #FDF0F7",
"xX c None",
/* pixels */
"xXxXxXxXxXxXxXxXxXxXxXxXxXxXxXxXxXxXxXxXxXxXxXxXxXxXxXxXxXxXxXxXxXxXxXxXxXxXxXxXxXxX! 1.:.;.2.n.xXxXxXxXxXxXxXxXxXxXxXxXxXxXxXxXxXxXxXxXxXxXxXxXxXxXxXxXxX",
"xXxXxXxXxXxXxXxXxXxXxXxXxXxXxXxXxXxXxXxXxXxXxXxXxXxXxXxXxXxXxXxXxXxXxXxXxXxXxXxX:.@.1.@.` Z o._ K ] / w.B.xXxXxXxXxXxXxXxXxXxXxXxXxXxXxXxXxXxXxXxXxXxXxXxX",
"xXxXxXxXxXxXxXxXxXxXxXxXxXxXxXxXxXxXxXxXxXxXxXxXxXxXxXxXxXxXxXxXxXxXxXxXxXxXY Q $.1.! A ( S D 0.i.o.( R ;.:.xXxXxXxXxXxXxXxXxXxXxXxXxXxXxXxXxXxXxXxXxXxXxX",
"xXxXxXxXxXxXxXxXxXxXxXxXxXxXxXxXxXxXxXxXxXxXxXxXxXxXxXxXxXxXxXxXxXxXxXxX/ m j b R ] I I ( K J K | _ _ ~ I #.3.:.xXxXxXxXxXxXxXxXxXxXxXxXxXxXxXxXxXxXxXxXxX",
"xXxXxXxXxXxXxXxXxXxXxXxXxXxXxXxXxXxXxXxXxXxXxXxXxXxXxXxXxXxXxXxXxXxXxXx n n : 0 +.` ) ) F F F F D { A F v v Q b s.xXxXxXxXxXxXxXxXxXxXxXxXxXxXxXxXxXxXxXxX",
"xXxXxXxXxXxXxXxXxXxXxXxXxXxXxXxXxXxXxXxXxXxXxXxXxXxXxXxXxXxXxXxXxXxXR e v w ;.*.Y f A A A B y A G ~ T Y x ! n +.$.xXxXxXxXxXxXxXxXxXxXxXxXxXxXxXxXxXxXxXxX",
"xXxXxXxXxXxXxXxXxXxXxXxXxXxXxXxXxXxXxXxXxXxXxXxXxXxXxXxXxXxXxXxXxXxXf v u ' :.$.k E d g A B V A R U c A I h ! +.! :.xXxXxXxXxXxXxXxXxXxXxXxXxXxXxXxXxXxXxX",
"xXxXxXxXxXxXxXxXxXxXxXxXxXxXxXxXxXxXxXxXxXxXxXxXxXxXxXxXxXxXxXxXxXv h r <.w.^ / ` ;.E v / W ` W &.n g v U R @.k ;.@.:.xXxXxXxXxXxXxXxXxXxXxXxXxXxXxXxXxXxX",
"xXxXxXxXxXxXxXxXxXxXxXxXxXxXxXxXxXxXxXxXxXxXxXxXxXxXxXxXxXxXxXxXI q r f <.1.$.+.b.! R E %.@.:.@.%.E k E E e V $.+.:.:.xXxXxXxXxXxXxXxXxXxXxXxXxXxXxXxXxXxX",
"xXxXxXxXxXxXxXxXxXxXxXxXxXxXxXxXxXxXxXxXxXxXxXxXxXxXxXxXxXxXxXxXI x l ] -.^ -.3.w.$.W Q *.:.1.-.*.l b +.+.W +.1.$.$.Q ] xXxXxXxXxXxXxXxXxXxXxXxXxXxXxXxXxX",
"xXxXxXxXxXxXxXxXxXxXxXxXxXxXxXxXxXxXxXxXxXxXxXxXxXxXxXxXxXxXxXo.I n u ) ' q.w.F.0.h.@.$.1.s.w.4.*.m m +.+.:.-.f.0.1.V *.xXxXxXxXxXxXxXxXxXxXxXxXxXxXxXxXxX",
"xXxXxXxXxXxXxXxXxXxXxXxXxXxXxXxXxXxXxXxXxXxXxXxXxXxXxXxXxXxXxXT v 8 ) E } $.3.j.<.f.v.w.c.H.V.4.4.+.Q :.3.1.<.1.0.j.1.*.xXxXxXxXxXxXxXxXxXxXxXxXxXxXxXxXxX",
"xXxXxXxXxXxXxXxXxXxXxXxXxXxXxXxXxXxXxXxXxXxXxXxXxXxXxXxXxXxXxXx x A W I &.m A.:.w.;.! f.F.Q.H.v.j.3.-.1.a.f.1.q.{ ;.1.b ( xXxXxXxXxXxXxXxXxXxXxXxXxXxXxXxX",
"xXxXxXxXxXxXxXxXxXxXxXxXxXxXxXxXxXxXxXxXxXxXxXxXxXxXxXxXxXxX0.K 7 f n W ^ :.j.W T.^ %.:.H.,XB.q.4.q.w.w.j.<.<.' <.U $.W / xXxXxXxXxXxXxXxXxXxXxXxXxXxXxXxX",
"xXxXxXxXxXxXxXxXxXxXxXxXxXxXxXxXxXxXxXxXxXxXxXxXxXxXxXxXxXxX_ C : j j ` / h.>.s.).^ :.4.B.3XB.<.4.%.1.<.M.Q @.@.#.E / b &.xXxXxXxXxXxXxXxXxXxXxXxXxXxXxXxX",
"xXxXxXxXxXxXxXxXxXxXxXxXxXxXxXxXxXxXxXxXxXxXxXxXxXxXxXxXxXxXg.c c j v ] &.7.,.T.R.E j.w.G.W.R.4.h.Q k *.s.b :.` v Y Y v :.xXxXxXxXxXxXxXxXxXxXxXxXxXxXxXxX",
"xXxXxXxXxXxXxXxXxXxXxXxXxXxXxXxXxXxXxXxXxXxXxXxXxXxXxXxXxXxXb.L w x _ ] ,./ 3.s.A.j c.a.|.4XR.M.B.*.k :.:.+.+.Q m n v q :.xXxXxXxXxXxXxXxXxXxXxXxXxXxXxXxX",
"xXxXxXxXxXxXxXxXxXxXxXxXxXxXxXxXxXxXxXxXxXxXxXxXxXxXxXxXxXxXk.H n / p. .] j.G.b.3.&.s.a.'..XG.A.4.f.Y :.h.;.4.W n n x x &.xXxXxXxXxXxXxXxXxXxXxXxXxXxXxXxX",
"xXxXxXxXxXxXxXxXxXxXxXxXxXxXxXxXxXxXxXxXxXxXxXxXxXxXxXxXxXxXb.[ 7 >.g.S.~.T._..X).G.T.{.,X<X X{.a.j.U g [ $.^ b b e ~ H xXxXxXxXxXxXxXxXxXxXxXxXxXxXxXxXxX",
"xXxXxXxXxXxXxXxXxXxXxXxXxXxXxXxXxXxXxXxXxXxXxXxXxXxXxXxXxXxXG.&.I g.R.F.G.H.G._..X'.).{.|.2X2X`.~.G.j.[ &.R U Y n e ~ Z xXxXxXxXxXxXxXxXxXxXxXxXxXxXxXxXxX",
"xXxXxXxXxXxXxXxXxXxXxXxXxXxXxXxXxXxXxXxXxXxXxXxXxXxXxXxXxXxX~.] [ n.]./.;.M lX= 1 {.].{.|.2X,X{.~.).`.`. XK.! ~ j v ' |  XxXxXxXxXxXxXxXxXxXxXxXxXxXxXxXxX",
"xXxXxXxXxXxXxXxXxXxXxXxXxXxXxXxXxXxXxXxXxXxXxXxXxXxXxXxXxXxX(.T i.~.].}.-XXXXXD XXL.{.`.2X4X1X].`.'..XK.).}.].R v [ ] g.N.xXxXxXxXxXxXxXxXxXxXxXxXxXxXxXxX",
"xXxXxXxXxXxXxXxXxXxXxXxXxXxXxXxXxXxXxXxXxXxXxXxXxXxXxXxXxX{ m.[ i./.;X,X4X5XR.R.W.[.,X[.4X4X4X].H.= lXL = H.].F.Y a.4.S.xXxXxXxXxXxXxXxXxXxXxXxXxXxXxXxXxX",
"xXxXxXxXxXxXxXxXxXxXxXxXxXxXxXxXxXxXxXxXxXxXxXxXxXxXxXxXG F 3 a.i.].,X1X4XwX2X1X6X5X5X|.4X4X4X1X{.n.| +Xm.= R.;X;.>.:..XxXxXxXxXxXxXxXxXxXxXxXxXxXxXxXxXxX",
"xXxXxXxXxXxXxXxXxXxXxXxXxXxXxXxXxXxXxXxXxXxXxXxXxXxXxX, { K 1 d.d.-X,X<X3XsXqX4X4XqX2X5X4XwX2XwX-X/.F.W.[.5X1X1XY.;.4.xXxXxXxXxXxXxXxXxXxXxXxXxXxXxXxXxXxX",
"xXxXxXxXxXxXxXxXxXxXxXxXxXxXxXxXxXxXxXxXxXxXxXxXxX* s Z S P 3 = a.(.<X,X3XsXsXsXsX4X5X6XsXwX4XwXwX2X6X6X4X4X4X1X(.4.<.xXxXxXxXxXxXxXxXxXxXxXxXxXxXxXxXxXxX",
"xXxXxXxXxXxXxXxXxXxXxXxXxXxXxXxXxXxXxXxXxXxXxXxXM y & = = C 1 = Z (.,X4X1X4XsXqX4X2X|.4XzXwXwXwXsXwX4XqX4X4X4X5X~.k.<.xXxXxXxXxXxXxXxXxXxXxXxXxXxXxXxXxXxX",
"xXxXxXxXxXxXxXxXxXxXxXxXxXxXxXxXxXxXxXxXxXxXxXs < * , 1 C = M   Z /.;X,X4X4X4X5X<X<X<X4XzXsX2XwX4XwXsXqXqX4X4X1Xm.o.;.xXxXxXxXxXxXxXxXxXxXxXxXxXxXxXxXxXxX",
"xXxXxXxXxXxXxXxXxXxXxXxXxXxXxXxXxXxXxXxXxXxXxX* & s * M = 2 1 N X ^.].,X4X<X{.5X.X'.|.<X4XwX2X<X4X4XqXqX3X4X4X6XG.` v 1.xXxXxXxXxXxXxXxXxXxXxXxXxXxXxXxXxX",
"xXxXxXxXxXxXxXxXxXxXxXxXxXxXxXxXxXxXxXxXxXxXy & y * & X 2 M P M . /.-X-X-XR.;X5X,X~.b.~.|.h.<X).,X<X2X4X4X4X5X(.x + O n ,.xXxXxXxXxXxXxXxXxXxXxXxXxXxXxXxX",
"xXxXxXxXxXxXxXxXxXxXxXxXxXxXxXxXxXxXxXxXxXxXf 0 4 * = & 3 X.S 3 p /.].[.[.T.).[.<X<X6XS.b.5X'.2X,XT.5X4X4X4X5X- 4 + , f %.h.xXxXxXxXxXxXxXxXxXxXxXxXxXxXxX",
"xXxXxXxXxXxXxXxXxXxXxXxXxXxXxXxXxXxXxXxXxXxX* < &   = * t L 3 = & v./.;X<X|.V %.e.Z.W.4XsX2X2X4X}.{.).5X5X;X(.* 3 $ D Z A 3.xXxXxXxXxXxXxXxXxXxXxXxXxXxXxX",
"xXxXxXxXxXxXxXxXxXxXxXxXxXxXxXxXxXxXxXxXxXs < -   % - > 1 3 3 > J 3 /.(.qX XW.V.lXR.e.t.Z.Z.Z..X'.F.D.`.}.-X= > 3 M $ { J f &.xXxXxXxXxXxXxXxXxXxXxXxXxXxX",
"xXxXxXxXxXxXxXxXxXxXxXxXxXxXxXxXxXxXxXxXxX> y - & > & > & 1 1 + q 5 p./. X X1Xr.r.lXzXlXlX1XlXz V._. X'.}.`.= = C O.1 = D 4 n xXxXxXxXxXxXxXxXxXxXxXxXxXxX",
"xXxXxXxXxXxXxXxXxXxXxXxXxXxXxXxXxXxXxXxXxXp 0 * * * & $ 1 = = 8XeXy.g.Y.].;X1XT.r.Z.W.C.Z.Z.Z.W. X X|.[.(.= * @ Z | 4 K 4 , s >.xXxXxXxXxXxXxXxXxXxXxXxXxX",
"xXxXxXxXxXxXxXxXxXxXxXxXxXxXxXxXxXxXxXxXxX_ q a - & 1 1 % % I.yXO.z.l.7.~.}.1X}.W.r.C.C.C.C.W.2X2X}.`.~._ . - < , F p K 2 * y >.xXxXxXxXxXxXxXxXxXxXxXxXxX",
"xXxXxXxXxXxXxXxXxXxXxXxXxXxXxXxXxXxXxXxXxXxX0 y > < > = > M tXI.y.u.k.5.g.(.;X3X X'.T.G._. X X1X1X`.K.D +   * : 0 4 c _ i + < ` xXxXxXxXxXxXxXxXxXxXxXxXxX",
"xXxXxXxXxXxXxXxXxXxXxXxXxXxXxXxXxXxXxXxXxXxXu y > - > i 2 @XtXI.y.d.m.l.6.Y.].1X4XwX4X4XqX2XwX1X}.G.+ 3 . + - , : 4 M K _ + , xXxXxXxXxXxXxXxXxXxXxXxXxXxX",
"xXxXxXxXxXxXxXxXxXxXxXxXxXxXxXxXxXxXxXxXxXxX, 7 y < a C I.tXtXjX6.b.G.A.5.6.~.,X4XwXwXwXwXwXqX`.m.c   L & + + 0 : w ~ _ 2.: 0 xXxXxXxXxXxXxXxXxXxXxXxXxXxX",
"xXxXxXxXxXxXxXxXxXxXxXxXxXxXxXxXxXxXxXxXxXxXa s Z S g a gXfXyXhXl.D.K.K.h.5.,./.;X2X2XwX2X X_.d.[ = . L = .   & 0 : 0 v F D 0 xXxXxXxXxXxXxXxXxXxXxXxXxXxX",
"xXxXxXxXxXxXxXxXxXxXxXxXxXxXxXxXxXxXxXxXxXxX, i X...rXfXhXhXfXhXkXD.K._.D.7.6.6.5.}.}.].}.l.l.d.x.I.. L { O   7 : q w x o.o.T xXxXxXxXxXxXxXxXxXxXxXxXxXxX",
"xXxXxXxXxXxXxXxXxXxXxXxXxXxXxXxXxXxXxXxXxXc c #XhXjXjXjXkXhXfXlXkXkX_._.K.A.5.6.6.5.7.d.d.k.7.=.%XOX- N L - ; % 0 w : c ~ _ p.xXxXxXxXxXxXxXxXxXxXxXxXxXxX",
"xXxXxXxXxXxXxXxXxXxXxXxXxXxXxXxXxXxXxXxXiXfXkXkXhXhXjXkXkXjXgXlXlXlXlX.X.XK.k.7.6.6.5.7.7.d.5.=.hXeX- : _ 8 9 , c c c c x x 2.xXxXxXxXxXxXxXxXxXxXxXxXxXxX",
"xXxXxXxXxXxXxXxXxXxXxXxXxXxXxXxXxXxXkXlXyXhXjXkXlXlXlXkXkXjXhXlXlXlXlXlX_._.G.M.7.5.5.7.d.d.7.=.lXrXP.T y y B 8 s ] n c s f 4.xXxXxXxXxXxXxXxXxXxXxXxXxXxX",
"xXxXxXxXxXxXxXxXxXxXxXxXxXxXxXxXhXgXhXkXjXjXlXjXlXhXlXlXjXhXlXlXlXlXlXlXlX_.K.D.A.k.h.l.k.k.d.2.lXuX$XF 0 j T ' ' 3  .>.c U xXxXxXxXxXxXxXxXxXxXxXxXxXxXxX",
"xXxXxXxXxXxXxXxXxXxXxXxXxXfXhXhXhXjXzXkXjXlXlXjXhXlXjXlXkXlXlXlXlXlXlXlXlXlXK.G.D.D.A.b.N.k.j.lXjXgX$XP.( d B { _ S _ c U U /.xXxXxXxXxXxXxXxXxXxXxXxXxXxX",
"xXxXxXxXxXxXxXxXxXxXfXdXgXgXhXzXjXjXjXkXlXlXjXlXhXjXjXjXlXjXkXlXlXlXlXlXlXlXlX~.D.D.A.A.k.k.g.lXhXaX@X%X{ u T X.X.B Z a T :.v.9XrXhXxXxXxXxXxXxXxXxXxXxXxX",
"xXxXxXxXxXxXxXxXxXeXhXhXjXjXhXjXlXjXlXlXlXkXjXlXlXlXlXlXkXlXlXlXlXlXlXlXlXlXlXlXF.D.D.D.A.b.lXlXjXaX$X:XrXh U K 8.N 3 6 3 U >.p.rXuXgXxXxXxXxXxXxXxXxXxXxX",
"xXxXxXxXxXxXxXxXxXtXkXlXhXjXlXlXlXlXlXlXlXlXlXlXlXlXlXlXlXlXlXlXlXlXlXlXlXlXlXlXlXlXK.G.T.lXlXlXjXtXrXrXaX-.A X.3 N t , % i ' E.f.*XzXaXxXxXxXxXxXxXxXxXxX",
"xXxXxXxXxXxXxXxXxXyXfXlXhXlXlXlXlXlXlXlXzXlXlXlXlXlXlXlXlXlXlXlXlXlXlXlXlXlXlXlXlXlXlX`.gXlXlXlXjXrXyXyX0XE.g 0.H N < - - > 8.T Y.-XjXaXxXxXxXxXxXxXxXxXxX",
"xXxXxXxXxXxXxXxXtXfXrXkXjXjXlXlXlXlXlXlXlXlXlXlXlXlXlXlXlXlXlXlXlXlXlXlXlXlXlXlXlXlXrXkXlX%XlXlXhXyXgXaXaX^.R ( H i & N + 4 C ] n.oX/.aXgXxXxXxXxXxXxXxXxX",
"xXxXxXxXxXxXxXtXeXyXdXrXlXlXlXjXlXlXlXlXjXlXlXlXlXlXlXlXlXlXlX0XlXlXlXlXlXlXlXlXlXlXhXgXyXrXoXlXkXhXhXyXrX:Xi.g S N > L - * - < I Y.rXpXjXhXxXxXxXxXxXxXxX",
"xXxXxXxXxXxXxX$X9XrXjXrXlXlXlXlXjXlXlXlXlXlXzXlXlXlXlXlXlXlXlXlXlXlXlXlXlXlXlXlXlXhXhXjXlXjXOX^.hXkXhXgX0X0XE.V ..J M ..& . * : 7 n.=XaXhXhXxXxXxXxXxXxXxX",
"xXxXxXxXxXxXxX@X7XrXhXhXyXlXlXlXlXzXlXlXlXkXlXlXlXlXlXlXlXlXlXlXlXlXlXlXlXlXlXlXgXhXkXlXyXjXaXE.gXhXhXgX9XyXL.B | { L | + + - X ; i w.tXhXgXxXxXxXxXxXxXxX",
"xXxXxXxXxXxX#X@X$XyXgXhX$XlXlXlXlXlXlXlXkXlXlXlXlXkXlXlXlXlXlXlXlXlXlXlXlXlXlXlXlXlXlXgXhXpXjXrX+XzXhXhXyXpXI.B { 0.K L & + @ X : g Y.rXyXuXxXxXxXxXxXxXxX",
"xXxXxXxXxXxX8X#X7XrXhXjXyXlXlXlXlXlXjXlXlXlXkXlXlXlXlXlXlXlXlXlXjXlX%XlXlXlXlX:XlXlXlXlXlXjXhXjXrXoXhXjXpXpXY.I H { ..S C + & X O 7 :X:XrXfXuXxXxXxXxXxXxX",
"xXxXxXxXxXxX$X&XfXrXhXhXpXlXlXlXlXkXlXlXhXlXkXlXlXjXlXlXlXlXlXlXjXlXhXlXlXlXlXgXhXjXlXlXjXjXjXjXjXpX+XjXaXpXI.h I ' L H N & - O ; f.9X0X9XyXyXxXxXxXxXxXxX",
"xXxXxXxXxX#X*X&XgXdXpXjXhXzXlXlXlXlXjXlXhXlXlXkXlXlXlXlXlXlXlXlXjXlXlXhXlXlXrXlXlXlXuXjXlXjXlXlXlXhXjXzX9XsXE.d 9 B J Z O.> - : 6 I.rXrX9XgXuXxXxXxXxXxXxX",
"xXxXxXxXxX@X@X*XhXyXhXhXjXkXlXlXlXjXjXjXlXjXkXlXlXlXlXlXlXlXlXlXjXjXlXjX%X:XlXlXlXlXlXlXkXjXlXjXlXjXhXjXzXpXE.9 u 9 H u ..N > 7 0 rXpX:X9XpXyXxXxXxXxXxXxX",
"xXxXxXxXxX#XOX$XgXeXpXhXhXgXlXlXlXjXkXlXjXjXjXkXlXjXlXlXlXlXlXlXjXlXlXjXlXlXlXlXlXlXlXlXjXjXhXjXlXjXaXjXhXgXc.d 8 8 A 7 | ..J g v pXyX:X%XgXgXyXxXxXxXxXxX",
"xXxXxXxXOX#X*XuXuXrXgXgXgXyXjXlXkXjXlXlXlXkXlXjXjXjXlXlXlXjXlXlXlXjXlXlXjXkXlXlXlXhXlXlXjXjXhXlXlXhXzXgXzXaX' d 6 e 0 6 N C X.Z v.tXyX:X=XgXyXyXxXxXxXxXxX",
"xXxXxXxX8XOX#XhXpXeXyXjXjX7XjXlXlXlXjXkXlXlXhXgXjXjXjXlXlXlXlXlXlXkXjXjXlXlXlXlXlXlXlXlXlXjXjXlXjXhXhXgXjXaXB d 6 8 < ; a Z  .D =XrX9X$X9XuXrXiXxXxXxXxXxX",
"xXxXxXxXeX@X#XhXyXrX:XgXhX:XuXhXlXjXjXlXlXhXlXjXjXjXjXlXzXlXlXlXkXlXlXlXjXlXjXlXlXlXlXlXjXjXjXjXjXhXhXhXzXaXd ; e 6 6 ; ; u R ^ yXyX7X9XpX7XyXtXxXxXxXxXxX",
"xXxXxXxXOX$XeXhXrXyXrXeXhXyXyXgXkXjXjXjXjXjXlXjXjXjXjXjXlXkXlXkXlXhXlXjXlXjXlXlXlXlXlXlXjXjXjXjXjXhXjXgXaXv.t 6 6 # 7 - ~ d l L.yXrX:XeXyXrXtXtXyXxXxXxXxX",
"xXxXxX8X#X#XtXgXhXyX$XhXrXpXrXpXhXjXlXjXlXjXjXjXhXjXjXjXlXjXjXjXjXlXhXhXlXjXjXlXlXlXlXlXjXjXjXjXjXhXjXhXyX-.6 , k 8 d : s d h oXyX=XrXrX#XtXtXtXyXxXxXxXxX",
"xXxXxX@X#X#XyXhXrXhXyXyXhXeXeXdXgXhXhXjXhXjXjXjXjXhXjXjXjXjXkXjXlXjXjXlXjXjXkXhXlXlXlXlXjXhXhXjXhXgXgXgXrXl 6 O ; 6 n r F , R =XyX:X9X#XrXtX9XrXiXxXxXxXxX",
"xXxXxX@X7X#XyXkXyXeXhX9XpXpX9XrXgXjXhXhXhXjXhXlXhXhXjXjXhXlXjXjXlXlXjXjXhXjXjXjXlXlXlXlXkXhXhXhXhXfXhXgX6Xr V , & 6 8 8 g y ) &XrX$X$XeXeXyXtXtXeXxXxXxXxX",
"xXxX+X@X@X@XyXdXdXtXrX$XpXhX:XyXrXgXjXhXhXhXlXhXjXhXhXhXhXhXjXjXjXkXlXjXjXlXhXjXlXlXlXlXhXhXhXhXhXdXhXgXrX@.9.; 7 j r ] ) S 8 ( %X&XrXyXtX:XeXtXiXeXxXxXxX",
"xXxXOX*X*X@XrXgXyXyX9XyXuXtX$XrXyXyXaXaXaXjXhXhXhXhXkXhXhXhXjXhXjXkXjXjXjXjXjXhXlXlXlXlXjXkXkXhXhXfXgXuX:XW E.; 6 h 9 ;._ 0.< j n.*X$X:XeXtXeXeXiX8XxXxXxX",
"xXxX+XOX#X#XtXgXgXpXyX:XrXrX$XeXtXyXaXyXuXhXhXhXjXhXhXhXgXjXhXlXjXhXhXjXjXhXkXhXlXlXlXlXjXjXjXgXgXhXgXgXrXW L.d g 8 B ] <.N D 6 } f.8XrXtXeXeXeXeX8XtXxXxX",
"xXXX+XOXeX#XtXfXgXrXrXeXtXrX*X:XtXtXuXyXtXuXaXjXhXkXhXhXhXhXhXhXjXkXkXjXkXhXkXkXlXlXlXlXhXhXgXgXdXgXaXaXrX! !.9.7 e f a Z X.0 # T ( ' &X:XeX8XeXeXeXeXxXxX",
"xXOX+X$X#XeX&XuXaXyXeXeXeXeX@X*XrXtXtXtXtXtXaXhXhXhXhXhXhXhXgXhXjXjXhXjXjXhXhXgXlXlXlXlXhXfXgXgXgXgXaXuXrXV Y.^.l E g ) g A O & i t ) I @XeX8XeX8X8X8XxXxX",
"xXOXOX*X&X#X$XfXgXuXrXeX&XiXP.*XtXtXyXyXtX9XdXdXgXhXgXkXhXdXgXdXhXjXhXkXjXhXgXdXlXjXlXjXfXfXgXfXfXdXfXrX:XL.n.OX0.V H % 6 : 0 X O 2 t q x.eX&XeX&X8X8X8XxX",
"@XOX@X@XeX8X8XyXfXhXrXeX8X8XoX*XeXrXeXtXtX9XtXdXhXgXkXhXhXdXgXgXgXhXkXhXhXhXgXhXlXlXlXlXlXfXhXgXaXdXfXtXaXeX1.n.!.{ B B d 6 6 X y i.X u F OX&XiXrXeXiX8XxX",
"OX8X8X8XtX8XtX8XuXgXtXrX8X&XP.OX8XyXtXtXyXtX7XyXyXgXgXgXhXgXgXdXuXgXgXjXgXgXkXhXkXlXlXlXlXfXfXgXhXgXdXyXuXrX0.>XE.P.{ ; 6 6 O # D u.z.L.y L 8X8XiXtXtXiXxX",
"OX8X8X#X8XtXiX8XuXiXyXtX8XOXP.I.8XtXtXtXtXyX$XtXtXtXgXhXgXgXgXdXfXyXfXgXkXdXdXhXkXlXjXjXjXdXgXuXuXgXgXiXuXeXuX] z.oXx.u @ 8 @ o , y.x.z.S { 8XiXtXiXiX8X8X",
"OX8X8XiXiX#XiXtXyXtXtXuXtX$X@XP.#XtXtXiXtXtX7XeXtXtXyXyXdXgXdXdXgXyXhXuXdXhXdXhXkXlXhXlXlXgXhXdXuXuXuXyXyXyXyX*XV P.I.{ % d o o : U.z.z.x.u.8XtXiX&XiX8X8X",
"OXOX8X8X8XiXfXgXfXyXtXyXtXtX+X!.P.eXtXtXtXyXtX7XtXyXyXyXdXdXgXdXuXuXuXyXdXgXgXgXhXlXlXkXhXyXfXfXyXuXiXtXeXyXtXdXoX!.0.9.u < #   2 P.!.!.!.z.7X8XiXeXeXxXxX",
"OX*X8X8XiX8XkXgXiXyXtXtX8X&XXXXX!.*XeXeXtXtXeXtXtXyXtXtXyXyXyXgXuXuXyXtXuXuXgXgXyXlXkXhXjXtXuXaXfXiXyXtX$XtXtXtXeXE.U.9.% ; d + P !.+X!.+X*X*X7XeXiXxXxXxX",
"OXOX*X8X8X8XiXiXtXeX8X&X#X@X!.oXOX+XeX8X8XtX7X8XeXeXtXtXtXyXtXyXyXyXtXtXtXtXyXuXgXkXhXjXjXtXfXiXiXyXtXtXeXtXtXyXeX*X!.9.  # q X 8.!.+X@X!.*X8X^.g.xXxXxXxX"
};
