/* XPM */
static char *Screenshot_2025_05_20_at_19_08_51_1_png1747760976[] = {
/* columns rows colors chars-per-pixel */
"80 80 250 2 ",
"   c #1E2E2D",
".  c #1D3A37",
"X  c #2D262B",
"o  c #27282A",
"O  c #2C2A2D",
"+  c #332429",
"@  c #33252C",
"#  c #312A2E",
"$  c #29332F",
"%  c #262C33",
"&  c #2C2D32",
"*  c #332D33",
"=  c #362C35",
"-  c #253334",
";  c #2C3335",
":  c #233A36",
">  c #2C3936",
",  c #25353B",
"<  c #2C353B",
"1  c #253C3C",
"2  c #2C3B3C",
"3  c #323235",
"4  c #373336",
"5  c #32353B",
"6  c #3A353C",
"7  c #323B3D",
"8  c #3A3B3F",
"9  c #40353B",
"0  c #1D4439",
"q  c #284D35",
"w  c #23433D",
"e  c #284738",
"r  c #2C423D",
"t  c #244A3C",
"y  c #32423E",
"u  c #30493E",
"i  c #1E3E40",
"p  c #253C41",
"a  c #2D3C42",
"s  c #2C3A44",
"d  c #333943",
"f  c #333D43",
"g  c #393C43",
"h  c #413C41",
"j  c #1E4A45",
"k  c #1F5B49",
"l  c #254443",
"z  c #2C4344",
"x  c #254A44",
"c  c #2C4B45",
"v  c #25444A",
"b  c #2D454A",
"n  c #264A4A",
"m  c #2C4C4B",
"M  c #334344",
"N  c #3A4344",
"B  c #324A45",
"V  c #3B4A46",
"C  c #34444A",
"Z  c #3A454B",
"A  c #334B4C",
"S  c #3B4B4C",
"D  c #245344",
"F  c #2C5344",
"G  c #25544B",
"H  c #2C534C",
"J  c #295B48",
"K  c #2C5A4C",
"L  c #335244",
"P  c #385745",
"I  c #33534C",
"U  c #3B534C",
"Y  c #325A4C",
"T  c #3B5B4C",
"R  c #2D4D51",
"E  c #334D51",
"W  c #3C4D52",
"Q  c #3A4B56",
"!  c #2D5453",
"~  c #265856",
"^  c #2C5B53",
"/  c #2D5B5A",
"(  c #335353",
")  c #3A5454",
"_  c #345B54",
"`  c #3B5B55",
"'  c #335559",
"]  c #3B555A",
"[  c #345B5A",
"{  c #3C5C5A",
"}  c #2A624D",
"|  c #37644C",
" . c #2D6255",
".. c #2A6758",
"X. c #2D645B",
"o. c #356355",
"O. c #3B6354",
"+. c #356A54",
"@. c #3C6B53",
"#. c #34635B",
"$. c #3B625B",
"%. c #346B5C",
"&. c #3C6B5C",
"*. c #39725B",
"=. c #2F5966",
"-. c #385D63",
";. c #2B6565",
":. c #366566",
">. c #3C6462",
",. c #346B62",
"<. c #3C6C63",
"1. c #3B6B6A",
"2. c #3B7365",
"3. c #30726E",
"4. c #3B7769",
"5. c #3A7776",
"6. c #41424B",
"7. c #414C4C",
"8. c #41584B",
"9. c #414953",
"0. c #424D53",
"q. c #435354",
"w. c #435C55",
"e. c #42555A",
"r. c #425B5B",
"t. c #4B5858",
"y. c #515E5C",
"u. c #4B694D",
"i. c #436354",
"p. c #43635C",
"a. c #4B635B",
"s. c #446B5B",
"d. c #496958",
"f. c #53675D",
"g. c #477557",
"h. c #44735C",
"j. c #4B725D",
"k. c #55745D",
"l. c #475C62",
"z. c #446462",
"x. c #4A6563",
"c. c #446B64",
"v. c #4A6C64",
"b. c #47656A",
"n. c #446C6A",
"m. c #4B6D6B",
"M. c #536B63",
"N. c #586866",
"B. c #536B6A",
"V. c #437464",
"C. c #4B7363",
"Z. c #447B64",
"A. c #4B7B63",
"S. c #44736B",
"D. c #4B736C",
"F. c #447A6D",
"G. c #4B7B6C",
"H. c #527364",
"J. c #567767",
"K. c #5C756B",
"L. c #527B6B",
"P. c #5B7D6B",
"I. c #476D71",
"U. c #546D73",
"Y. c #4C7372",
"T. c #447B72",
"R. c #4D7C73",
"E. c #447778",
"W. c #537473",
"Q. c #537B73",
"!. c #5B7977",
"~. c #547B7A",
"^. c #64786B",
"/. c #657976",
"(. c #3C8378",
"). c #788F5F",
"_. c #4B856C",
"`. c #54846B",
"'. c #57876C",
"]. c #5B846D",
"[. c #498576",
"{. c #548473",
"}. c #5A8374",
"|. c #548A73",
" X c #5B8B74",
".X c #53847B",
"XX c #59897B",
"oX c #4B907C",
"OX c #5C9279",
"+X c #668767",
"@X c #6F936E",
"#X c #759367",
"$X c #648374",
"%X c #628B74",
"&X c #62847C",
"*X c #698779",
"=X c #6C8C7C",
"-X c #718C7B",
";X c #63957C",
":X c #699679",
">X c #759777",
",X c #72A57C",
"<X c #829964",
"1X c #90A876",
"2X c #5A7C83",
"3X c #6B7D80",
"4X c #478784",
"5X c #5B8983",
"6X c #4E9B84",
"7X c #5A9785",
"8X c #648C84",
"9X c #688887",
"0X c #738B83",
"qX c #778988",
"wX c #679787",
"eX c #6C9382",
"rX c #6C9C84",
"tX c #739383",
"yX c #789A88",
"uX c #748C92",
"iX c #6B9A94",
"pX c #779994",
"aX c #6DA186",
"sX c #78A48A",
"dX c #6EAB96",
"fX c #77A695",
"gX c #818B8E",
"hX c #849B8B",
"jX c #869A97",
"kX c #86A787",
"lX c #94AD8D",
"zX c #87A997",
"xX c #8BB698",
"cX c #95B59A",
"vX c #A6B88A",
"bX c #A2BB97",
"nX c #899EA2",
"mX c #8BAAA7",
"MX c #95AAA6",
"NX c #85B6A5",
"BX c #99B8A8",
"VX c #99B3B0",
"CX c #A4B6AB",
"ZX c #A7BBB7",
"AX c #98C49E",
"SX c #A7C5B5",
"DX c #AEBCC0",
"FX c #B2CDC9",
"GX c #C6D7D7",
"HX c #C9E5DE",
/* pixels */
"A b s C C s b b ( R c m I A E l b C a A a f Z b z l ( ( ' { ` l A m m z.>.v l ! E ] E , 1 > 2 7 g 5 5 5 g W r.m.8XS.n m V 2 2 z m _ { / / R E E R E R R R / / / ",
"z C s f f s M p b A z m ) S A p W z s b s f f b C b m A A A C z z z b m x l n R ( ] m 0 l 1 1 7 7 5 5 d d s W z.8X~.#.( ) f > 2 A ' { [ ! R E E Q ' ' E E ! ' =.",
", f f f f < f a a 2 M M M z Z M C s Z , C f d M C C M z a p b S A s l m c b m x n l j 0 G t z 1 2 - < d f M 2 b.mX9X~.{ r 2 * g S I H H n m m m R ' v E E ' ' ~.",
"f f - f 2 f 2 2 a 2 z 2 2 2 a s f C f Z f f f d 2 M s f f s f s f C C z b m l v G G k ..#.^ $.) a < s , s > a qXHXZXmX8X: % 4 6.!.m.( H A ( A A E ! ' E E v p { ",
"M M B f 7 y 7 2 2 7 7 < 2 2 7 M 7 M f C f f f < , a C s d f d s s C C A ( ( m l H _ 2.4.4.T.~.x.z . 1 x ) A f 0XGXFXFXmXx.d & g /./.! c c z z ) ] ( ( ' E z i b ",
". r.0Xt.z r 2 a 2 2 < 2 5 2 N S 7 M f s f f f s s f f f f f f d s s S ) ) x.$.w H S.[.[.oXR.D.{ b b r.` !.K.y.y.qXZXVXZXmX/.s d ) y.I r r r 2 V M z E Q ) ] E E ",
"w U tXuXa.z : > M N 7 f 5 > y 7.M 7 s f s s s a f f f g g f f C C s Z A ] p.p.l x S.7XoX7X5Xz.l p ] 9X( D.H.a.t./.MX3X!.2X9Xl.s N B y e > 7 4 7 2 , C b b b E C ",
"c l { W.) z r y z M 2 N f > 2 7 2 f f Z s , C f s f C f s d f f M s s A B.m w G x c.7XdXNXW.m a z B.9X. l U U y./.nX/.b.-.~.2XR 2 N > 7 3 3 3 3 3 < s z A E b b ",
"^ m H D x c c c z z z M r 7 7 f 2 2 s Z < f s f s f f d d d d 5 < d d Z /.N S z B c =XBXhXN > 2 s qX3Xs 2 < S qX3X3XpX8X>.~.uX] r 2 5 ; 6 6 ; ; 5 < a R z.' n I ",
"X.K ^ ! x m n n n F H S M M 2 2 2 a f f d d d f s f f f d < 3 d 5 5 5 f 0.B w.S U L f.*XM.3 > ; B *XU.p s 8 > qXMXuX5X~.>.b.W.{ M < 5 3 6 7 5 ; $ > z R -._ _ ! ",
"^ G K ! H ( H H ^ H ) ` U f 2 2 7 2 C < g Q g d d < d f < < , f f < < > M y q.S B B > /.^.> > a a ] x.E 1 > A N.qXVX8X/ _ #./ ' C < d 6 6 = d & % 7 M ! { [ { ` ",
"} ~ ~ K ^ K H ^ _ D x ( A 2 2 f 2 s Z 5 d f f d 5 d f f s s z a f f , < 7 7 S 7.V S V /./.7 ; > r A { ] b m x.r.E pXpX[ G [ ! >.S & = # = 4 8 < ; 8 Z r.-.) ( _ ",
"%...J G G ^ _ &.<.o.H m z 2 2 f f B f g d < < f d d d f z m m z f M 2 2 7 2 7.Z S 7.U S V g f 1 l ( ' ! ] b.Y.{ A { n.b.$.:.1.<.B % % o & < 7 2 < g 0.B.{ ] ) I ",
"(.....%. . .S..XR.2.$._ z r M f C B s C d d < d d 3 d C E ( c.{ 2 2 2 7 2 7 S 2 f y A 2 > 7 2 z I m m ! >.~.n.n { A ( W.8XwX7X5X1 % 5 , , s 1 s s f l.B.q.) ) S ",
"2.....V.|.&.V.XX2.V.V.! z a B f C z a C a s f a f < C E m m n.v.B 2 > 2 ; 7 7 f M C M M z > 2 1 m { [ ! c.n.R j { ' b W.pX7XiXiXA . : 1 ) ( x n v s g 9.B M S S ",
"&.<.+.<.5XV.%.%.J S.&.x r 1 M f A M l C z z s s z b l ( m D.S.A 2 : > 2 < 7 7 < 2 2 r B 7 < M A m D.~._ ! m v l x.U.R b.Y.[ E.5X( 1 z z.D.n./ R R s % 5 ; ; 2 N ",
"&.&.V.c.C.c.+.J J *.J H z 1 f 1 A z m A m C W l m n ! _ n Y.S.l r > 7 5 ; < 7 2 a 1 r y 2 2 S U L Q.pX5Xz.l l A ) -.R ' ' ! ! ' ` m ( c.n.1.E.-.R s p & & O > 7 ",
"C.T L.~.s.V.2.%.*.k G x 1 - , > B m m E m ) { m G D #.>.! ( m 1 > > 7 > ; 5 2 2 , z S r 7 y y r ) p.!.J.I 1 z A m m ( R v R R R E ) m ( 5XfX4X1.U.Q % X * 3 O ; ",
"s.Y &XtX!.wX;X&.*._.&.0 z r 2 r A I m H m { { ( ^ ~ ,. .#.[ I z r > > ; < 2 r 2 1 r.B.U r >   e U U A l 1 2 A z A m A R E v b b s z b C Y.iX1.=.2X-.s d * & & 3 ",
"( ( /.*X$XeXsXOX|._.2.+.t x c w S H Y Y { ` I ( $.2.4.2...#.j 2 7 7 y r r . I ( w z.W.I t 0 e . e M N f f f 7 z A c z b m b v v C f g d g -.I.2X2X2Xb.s % 3 @ * ",
"{ _ a.p.8.P j.`.OX|._.Z.} j G x I c D.pXW.` c x I K V.[..XS.l : 3 y 8.r Y ( !.Q.l n _ O.o.J | T r y 7 f f C f z z m c C C b M s C C Z 9.l.uX2X5.5.5.1.R , % % = ",
".XD._ . . e q J g.;X_.|.G.o.o.J <.$.Q.fXD._ H z t t #.G.S.D.$.r - : L H.eX}.fXyXo._ &.2.|.oX|. Xi.u z A z f N z z z m b C M f s z b Q e.l.9X4X2X5.5.:.=.p s & 5 ",
"~.<.H w t c s.i.s.`.;XOX|.2.....S.F._ _ m K H I c e x o.8X&X$.c M e.I &XfXrXrXiX}.D.Q.Z.7XdXdXaXs.c B I b a B z l x m c z M 2 < 1 ! l.' R =.E.E.5.4X3.=.R p . p ",
"v._ I t c F L.%X`.@.;X;XOX4...k ,.4.Y.1.D.G.V.O.B c t Y fX&X` S U zXH.O.C.tXeXsXBX XS._.OX7XrXZ.F F I c m z C b m ! ^ K G c z z j _ b./ ' ' ;.;.3.=.=.3.=.~ v ' ",
"{ ) Y I F Y %X:X:X'.%X:XOX*.*...4.T.1.n.S.[.XXL.v.O.x s.8XC.p.c z MXyXi.s.eX=XzXBXtX{.7X_.|.&.0 t w c H n m a x ` <.,.,...+.} J K ! [ ^ ! G ~ =.;.~ ;.3.;.~ =.2X",
"r B c F Y *.'.'.AXxXkXsXxXOX*.[.7X5.~ #.X.*.V.G.Q.` x $.$.Y F L - 8.^.u.J.].:XyX-XyXNXwXR.F.G 0 0 . c _ _ >.l l { R.[.[.(.(.2...^ $.,.! ~ / ~ / =.~ ;.5.5.3.3.I.",
"r B c K q @.@._.AX,X#XAXcX:X_.wXXX,.~ ~ X.D ^ $.$.( K G Y ` V t.u u k.P u i.P.$Xd.yXzXF.G.<.D 0 l l H #.1.S.m . ) v.S.oX6X7X6X2.p.[ Y.<./ -.' R =.~ ;.5.4X4X4X3.",
"c t o.{._.| g.@XlX1Xu.lXAXxXzXrX%.~ ..^ #._ Q.9XD.$.n.n r.w.0XhXK.hX-X| q A.=X:Xd.C..X<.F.#.^ l . x [ ;.,.,._ m 2 z _ <.oXdXNXpX&Xn.Q.1.~ R [ ' =.;.3.4X4X(.5.:.",
"F &._.wXwX'.+X).<XvXvXvXbXAXCX%Xo.K } } ,.r./.zXMXmXuXW.R M gXMXhXcXsX].| :X:X`.Y s.A.V.2./ >.G ! [ ,.;.;.;./ W f 3 > w O.;XmXZXCXqXn.>.[ v n Q 1.I.2XE.(.3.3.;.",
"H.fXrX_.OX:X@X#X).<XvXvXlXbXzXP.C.V.@.(. X=X^.a.pXFXDXnXz M t.M.tXP.P >X'.,XaX'.@.j.%.,.,.<.2.#.1.1.,.~ ;.~ ~ A 6.g 5 ; y S f.qXnXr.. $.m.E p C -.1.2X4X4X5.5.3.",
"jXGXxXJ g.:X,X#X).<X1X1XlX>XK.@.&.'.aX,X,XsXkX^.t.CXGXMXm z B T L q q %X:XrXkXsXg.| %.X.#.%.%.&.S.I.E.-.=.=./ E Z 5 6 * # 6 g t.y.7 1 i.N.S d s b -.3.1.:.1.I.-.",
"yXHXBXJ | @X,X#X#X1X1X1X1X@Xi.K Z.|.'.aXOX>XAXCX^.gXGX^.z L U Y t t q | i.:XxX%X| h.o.~ ^ o.&.s._ 1.9XiX2X' R s C f 8 O o 3 5 8 7 2 2 S q.N 5 , , v -.=.~ R / R ",
"K.zXhX*X%X>X>X1X#X+X).).@XcX=X| %X;X} |.`.sXhXhXcXBXcXu T v.O.x F T F F t :XBX@.Y A._ K G J @.s.F H n.9X2X-.E i s b 7 % 2 V ) Z > 2 y r 5 > 5 ; 2 m -.[ R n R n ",
"B u a.hXMX/.a.k.u.u q 8.-XxXzX:XXXZ.o.V.V.%XH.U /.SXkXu C.rXiX{.s.C.C.Y i.}.].t Y C.h.$.J Y j.A.g.F 0 I { ] ' b v ] b.m m x.W.] > > 2 > ; > > ; f E ' ( R E ( E ",
"w.f.8.f.^.y 8.u P P L | -XyXyXzXyX8XS.G #.[ L P 8.^.k.| '.NXNX;Xs.p.@.j.%XXXL.w u ` Q.G.*.%XsXaX>XA.F F c b ' m . >.iXR.-.#.Q.W.M - 7 > ; $ 3 > a A Q ] -.Q Q C ",
"^.K.7.h y.N.t.t.d.s.P j.d.f.-X-X$XwX.Xj ^ ( p.P u k.'.'.|.aXwX| O.@.C.sXzXsX:Xi.T I G.OX'.rXaXfXaX XA.&.D Y ' ( j R.5XT.X.j S.8XT w $ ; 3 > ; > C m E ] ] C p s ",
"S Z 5 N ^.ZXCXqX$XzXO.L i.d.P.k.c i.c.! ^ H W.M.k.zXtX'.Z.Z.V.@.| k.;XOXwXOXg.Y T L Y G.G.G. XrX;X|.OXwX|.V.p.c.$.5XwXX.k :.,.<.{ c 1 ; > N 7 z m E R C s s p s ",
"W y.7.V N.bXZXCXBXSXC.t ^.-XK.8.: u c _ ! v.mXyX-X>Xj. XZ.@.Z.| @._.OX|.@.h.| t I S I w Y s.| '. XOXOXrXfXrXC.o.K ,.E.T.E.oX,. .K _ S - < f z x m R R E s p s d ",
"g N.q.y f.k.^.hXzXMXP.i.u.8.u y $ : : _ c 8XVXB.I ` H L.G.| h.@.} _.aXOX*.&.@._ I ( ` S U i.| s.A.'.`. XaX;X`.'.&.D G S..X[.4.,.#.! I A f 2 l v R ' R C b p s s ",
"d 0.7.8.t.P k.>X-Xu.j.].u 7.u.7.V t.a.L q H.!.U 1 E ` O.;Xh.P +.} '.OX}  .V.&._ R b A q.S z B u i.A.@.h._.*.Z.OX.Xo.^  .T.4.4.4.,.^ { q.2 r m R / ' ' ' E b C C ",
"< f q.B.K.U d.^.kX+Xg. X| >XjXf.f.hXBX!.v.$.O.z._ c Y Y zXsXg.q *.OX[.} _.4.,.[ n b s 1 1 : : l v.}.C.{.|.%.} &.G.V.#.#.,.4.,.4.1.#.G b C b E / ' / ] =.E b A M ",
", Q ( b.W.( f.i.*X>X@XkX>XsXcXK.f.*XSXCXo.O._ _ I J s.yXzXxX+XJ OXoX4.4.5.,.#.$.E b l 1 1 l x m >.~.~.5X.X .#./ _ ^ ^ ..%.X.;.2.[ _ m R m m R E ' ' E ' E R b a ",
": z n H _ c T d.k.k.@XxXxXyXkX*Xf.8.hXzXY O.Y H H L XXBXsXxX'.| S.%.2.T.T.5X.Xn.' m l l c l 1 Y { D.c.,.X./ #.$.` ( G ! ~ ! J ^ ( ! R R b s n Q E ' ' R R b z s ",
"2 T &.K J Y I L F u.j.%X].s.j.K.f./.-XJ.s.p.` Y _ _ 8XH.i.;Xj.s.o.c.4...4.5X[.[ ( { v.A ) !.W.p.( H G G ^ o.I ( { I c H _ G m H ! ( E E C s b A ] Q E R b s a s ",
"k.%Xg.k ^ K F w T =Xj.P O.O.Y M.H.K.f.k.C.p.U $.p._ V.&.o.&.o.K v.Q.>.^  .,.S.[ ! ( { ` z.9X9XW._ H K K ! K ( A z r z c F H m z b m A C C f s s C A b b s s s C ",
"lX,X|.+.+.%.G.p.p.K.p.Y s.Y s.i.M.f.J.yX0Xp.` $X8X! H #.R.{.{.V._ _ 0 G ^ ^ S.>./ [ ( $.p.x.m.p.n n m G K _ H c r z c z c A I c b b z C f f < - s 2 , , , 2 f f ",
"@Xj.@._.|.5XA.Y U ) O.D.V.<.S.v.a.k.*XBXBX0X/.zXQ.K n ^ F..X5X5XY 0 x H H H c.c.! / ! A m I ( ( H x ! ^ _ H H m z B z c m r.A A b z C C f 5 ; ; 2 > % 2 s f s 8 ",
"k.| J +.|.rXK.` w.Y w.z.c.n.v.v.w.w.M.yXCXBX0Xm.H G G X.S.F..XXX&.! o.$.H _ n.~.c.m l 1 w p z A A A { c.$._ I L M M z c T v.` r z b C g f 5 5 5 5 5 < C C 7 N f ",
"k.A.k.@.P H.tXH.e c I _ >.Y.,.z.x.p.i.J.-XMX/.w H K ^ X./ ~ 2.S.G.5XD._ ` { { W.U.! A z w z 1 z A ` { z.z.I B U N 1 r S _ M.x.z l z s f 7 5 5 3 3 7 y 7.S M N 2 ",
"k.%X'.A.i.w.P.a.L c ` ` c.S.&._ z.` w.a.K./.w.Y o._ #. .k J %.&.pXNX<.` _ p.A ] { m A A A z M 1 A A l c A c r M 5 2 y r c w.w.c b z 2 7 5 3 5 4 > 4 7 B S A V C ",
"H.A.].k.e e L a.x.p.w.( #.#.>.n m c ` U i.T L _ $.%. . .J  .&.&.dXFXiXD.z.] . 1 ) b ) x.w.A q.A p z A 1 1 1 ; < ; 8 y 2 w V 2 : M a f 2 5 5 3 & 3 3 3 r B M 2 2 ",
"`.h.].yXi.e e w.` L c H { ( $.x c z I A U Y &.#...%.F.[.*.R.G.{..XwX&Xv.L w . 1 z b e.z.{ A z.e.b z z 2 s f 3 5 3 5 ; ; 2 V > > N 1 r w < ; @ + + O O > 2 M M z ",
"`.Z.g.sXsX}.k.T c w . 0 $.T l w l l m A H ..,.,.4.oX7X[.#.#.{ !.~.v.p._ A c r 1 1 z A ( ( m { A z s s a s d < 5 5 3 O ; > N > ; 7 M r e 1 $ @ + + @ O ; z C c m ",
":X:X`.h.A.].tXJ.L x.I . r.$.w l . x ' E [ X.} X.4.(.oX..X.&._ ` I t ) z.I c m w c A ( A A ( ] A A E C C M f 5 d & & ; 3 ; y > > y u F I r o * + X o - r ( ` I H ",
"fX;X X@.q q g.P.L -XMXp.I { ( m l n [ ! / ~ ..4.[.5... .^ $.H l c ( 8X!.' ( H m H n { E z m A E e.Q f C s f 5 g < 5 3 > > y y y u L F ` L - & # O 3 y x _ _ I H ",
":XJ.j.`._.| `.`.e T B.M A ) ] x n R [ [ / / ,.5.5.F.#.G n /.W.x.p.` 9Xv.` ' ! m ! n m M 1 s , S W S C M M 2 < g 7 8 8 7 7 y y e w.Q.A.@.Y e $ $ & y U K c.V.p.` ",
"a.H.i.`.rX:XxXP.: e y S A r.x.v R ! >.>.1./ ~ :.E.1.! { ( r.l././.E A v x Y.b.[ / v i s s C 2 Z 2 f N M C < ; 5 8 d 7 7 2 M u : Y %XrX8X&.F r > > N ) $.~.XXv.I ",
"*XtX:X$Xk.].sXP.e e S q.2 l.E m ! ' [ =./ / / :.>.[ ( I r , M q.A b E p i z.Y.I.! >.R b M s s 5 < 5 2 8 N > ; 5 5 < 2 y r U B e F |.OXV.F F I B c z F ` p.p.I w ",
"qXjXtXyX].| i.P.u.r $ 2 > , . s E ( n R / ~ ~ ' ! -.E C 2 - > 7 1 C W U.9XU.U.>.' 5XU.r.s d s 5 3 5 ; 5 3 ; ; O > y 7 2 r H H O.Z.'.*.t t J _ H F c m Y c c c r ",
"V y.f.-XhXw.a.*X^.U > ; > % , l m R ! ( -.R v ' b M f f 2 7 > 7 , Z , 3XmXpXB.l.l.z.b.l.z < d 5 6 6 3 3 3 * 5 O 6 7 7 B c c D.&XwX X| J } *.T.2.#.K c B 1 B A ) ",
"z y V 8.t.7.-X0XM.B 7 N 2 < B A A I ( { ' R n b p s < 7 5 7 > h 5 d h jXjXgXU.f ( E ] E s d d 5 4 6 = * 4 3 # # 5 7 > M I H Q..Xh.A.^ K 2..X.XS.:.G n C 2 a l G ",
"c M y 7 $ t.-XgXB.r N y q.y.V M S A m m R b b p s < ; 8 5 5 > y g d l.ZXGX3Xs C 2 ] ] A b d 3 = * 4 O * 4 = # 5 > 5 z w m _ V.2.D J Y V.F.%.....#.G ( 0.1 z x ` ",
"u B y u r c a.r.` z V I -X/.B B ) ) ' n R b A z M y 2 7 7 N 7 2 ; < 6.DXDXt.f s C W z M Z 7 O & @ * # o O & 5 > r B n _ [ #.$.[ [ ` [ _ _ K _ &.[ G x z z l m { ",
"> r L c c c I A L c c ) /.f.2 N Z C ' R R z S B r r > > 2 C M 2 f 7 6.gXN.7 % C /.r.M N f ; & O X X X + o 6 N C M c x n z.R.m.{ H ( m n x m n I _ ! ( E z l m m ",
"e B c c ` ` O.H H m U L M - $ > 5 < W C A Z q.S 2 y y - - C 0.e.e.9.0.t.Z 6.2 7./.q.M 7 7 < O @ X * @ 4 & 6 N V z c m ( >.m.p.E m A I m m ] I m m m A E ) l p m ",
"r B L c c I _ c c x L M $ ; 3 X O O g d f 7 7.V > 2 M 2 2 f s f l.e.Z 0.q.Z 7 7 7 % 5 2 5 ; O o X = X # 4 * 6 C M B ` Y m I m A A A A A A A z M z M B z W A m m ",
"2 V I c c _ O.x x H u M y $ X o % = d = 8 7 y 5 7 C > 2 f s C E ] e.C C S 7 N 2 ; $ 2 5 g 6 = = * # X X 3 & ; 7 2 c I m ) q.A M z z M Z W S C C s < s v b ( ( b ",
"y 1 c A _ [ $.x F { v.N.N $ # X = = = = 6 7 8 > N S f C s s s d W E s W f d 8 ; 3 3 7 N N g 8 6 = # * * 4 # O > 2 2 B r B B > f 7 2 2 C g f f f , % , p m A E m ",
"N.x.m c c { s.c c p.!.^.y o o O = = X * 3 5 5 ; > s f Z C , C Z Q f s f f < < 3 3 ; & < d g g 9 4 * # # @ # 3 > ; r L c y 2 2 y 7 < 2 f f f f f s s s s m E ' ( ",
"/.nXB.c z A A z 1 z M y $ o O # * X % & < 3 & ; s C C E C p f s f f < < Z 5 & = 3 # & & = 6 6 g * # # # # @ # 3 $ 2 q.a.w.B M N > < > < f M f s f C b E ' E ' ( ",
"s b.E a 1 z a 7 7 ; $ $ 3 # + + X # & & & ; 5 f S E b b B C C d 5 d 5 , g Z 6 g 3 = & 3 3 & 3 3 4 # O o o # # O ; y 8.x.w.z V M 2 5 2 2 a a s s C Q ] ' E R ! R ",
"Q e.W W s f f ; 5 5 * # = @ + + @ = = * < d 7 , C l.] C S C 7 < 5 d 5 & 5 g d d = X & & & = = 4 # 3 # # + + # O ; S ^.0XH.u B 2 7 y 2 > 2 z s l b ( ] / R R ! R ",
"Q -.Q E e.9.d & 5 5 h = X + + + # 6 4 3 d Z Z f b A ( b C 2 2 5 6 3 5 5 < 5 d = & * = 5 & & & ; 3 4 3 O @ # # # $ $ 8.u.8.: r r 2 2 2 > 2 1 z b v R ] [ ' R n R ",
"' v v C f Q < & & h 9 @ + + X X = & 6 g g Z f , C C A W Z C f g g 6 5 5 3 g d d d d g & 5 < & 2 y 7 7 3 # # # # # 4 3 7 8 > > 7 y y y M a a C A R R R E ' E n R ",
"I.2XU.l.e.l.Q & ; O = @ o X X o 3 6 5 5 g f < s C z C C W f d g d 6 5 5 g 9.g d d d 5 5 5 2 < > N C f N 5 + @ + # 3 & 7 y 5 ; 7 N M a 2 f M C b E b n E ! ( E m ",
"] U.2XU.U.nXjX5 o & & X o & * ; ; 6 5 & 8 d , s C z C A C f , < 5 < & 5 d g d d g % % 8 7 7 N A S z < N > + = = # & O O 5 ; ; 7 2 2 2 f 2 C C m A E b R b E A z ",
"Q s v R e.uXjX9.5 7 > o   o 5 8 7 5 3 5 d 5 d d s b A z C z d < d 5 & 5 & 5 f g g d d d s 1 S W I S C Z > O = 4 3 3 7 8 & & ; 5 7 s d < d f M M A A m C b b C s ",
"C s s s s Q t.f N N S N./.t.f s g ; 3 g 5 d < d s C C 1 s C s f d d < 5 , < d f d s d s M s A ) ) e.{ M < 5 o * y y N N < < f f f f s < 2 s 2 M z z M M z M a d ",
"s f s s s f Q f N M a.pXjXqXt.& < d 5 3 g d f f C N C s s S C 2 g g % % 5 5 8 < 5 g f f Z q.e.e.W A S M M 7.g > N N N M z 7 2 f Z 5 3 < 5 < 7 a M M r , s f 5 < ",
"f Q s s s Q C f 2 7 S U p ) t.C   % d d < s f C f M s M C 9.W f g d 5 , 3 3 5 ; 6 5 < 2 f C Z d > , 2 , f 7.N 7 7 y M M B f f N 7.g < 3 5 ; ; < 2 M B C C 7 8 < "
};
