/* XPM */
static char *Screenshot_2025_05_20_at_18_18_12_1_png1747757952[] = {
/* columns rows colors chars-per-pixel */
"80 80 255 2 ",
"   c #3D1703",
".  c #3A3609",
"X  c #3B330F",
"o  c #48380A",
"O  c #55340A",
"+  c #483B15",
"@  c #583B17",
"#  c #70370F",
"$  c #663B18",
"%  c #5A3C23",
"&  c #6D3B2D",
"*  c #46430C",
"=  c #56510E",
"-  c #494717",
";  c #574818",
":  c #56551A",
">  c #67471A",
",  c #734B13",
"<  c #635819",
"1  c #6C6617",
"2  c #4C4B25",
"3  c #574B25",
"4  c #545324",
"5  c #53502F",
"6  c #585628",
"7  c #5B5B2B",
"8  c #5B5A34",
"9  c #694827",
"0  c #784A28",
"q  c #675829",
"w  c #775629",
"e  c #6A4935",
"r  c #784A35",
"t  c #675A36",
"y  c #775837",
"u  c #5D6231",
"i  c #676628",
"p  c #776F2F",
"a  c #666537",
"s  c #776838",
"d  c #795448",
"f  c #686844",
"g  c #786847",
"h  c #777647",
"j  c #777854",
"k  c #744977",
"l  c #B01404",
"z  c #8F3307",
"x  c #B1320C",
"c  c #A12A15",
"v  c #C91607",
"b  c #CC3012",
"n  c #E3331A",
"m  c #D6372A",
"M  c #E5342C",
"N  c #8D4A15",
"B  c #B44C15",
"V  c #8D6B0E",
"C  c #AE6F18",
"Z  c #864828",
"A  c #895528",
"S  c #914D31",
"D  c #865837",
"F  c #975838",
"G  c #B14E2A",
"H  c #AA5939",
"J  c #B65738",
"K  c #886639",
"L  c #907032",
"P  c #AE6D36",
"I  c #CA4A19",
"U  c #CE5618",
"Y  c #C94827",
"T  c #D74629",
"R  c #D74737",
"E  c #C85031",
"W  c #C85739",
"Q  c #D85437",
"!  c #E54C38",
"~  c #CA6B37",
"^  c #8F3A5C",
"/  c #E1394A",
"(  c #8B4F4E",
")  c #895846",
"_  c #98594A",
"`  c #965859",
"'  c #A65947",
"]  c #B3564C",
"[  c #886746",
"{  c #976949",
"}  c #887748",
"|  c #916E50",
" . c #986958",
".. c #887854",
"X. c #997656",
"o. c #A96748",
"O. c #B86A47",
"+. c #A67849",
"@. c #B87948",
"#. c #A86A58",
"$. c #BA6859",
"%. c #A77756",
"&. c #B77959",
"*. c #94546B",
"=. c #A8576A",
"-. c #966F65",
";. c #A77A68",
":. c #B97868",
">. c #AE7070",
",. c #D95747",
"<. c #D1554E",
"1. c #EE514E",
"2. c #E55848",
"3. c #E95957",
"4. c #C96749",
"5. c #D8654A",
"6. c #C87649",
"7. c #D37647",
"8. c #C76858",
"9. c #DA6757",
"0. c #CA7758",
"q. c #D87458",
"w. c #E86B55",
"e. c #E66559",
"r. c #D35D6E",
"t. c #EA5A69",
"y. c #C76A63",
"u. c #D86B66",
"i. c #C77768",
"p. c #D57567",
"a. c #C87975",
"s. c #D77676",
"d. c #E86866",
"f. c #F46A67",
"g. c #E77668",
"h. c #F37469",
"j. c #EB6B75",
"k. c #F26C75",
"l. c #E97878",
"z. c #F47779",
"x. c #7C8554",
"c. c #978729",
"v. c #B08739",
"b. c #958954",
"n. c #BB8747",
"m. c #A78558",
"M. c #B28C50",
"N. c #B99657",
"B. c #948C6F",
"V. c #A78667",
"C. c #B78A68",
"Z. c #A98677",
"A. c #B09073",
"S. c #B89777",
"D. c #B2A573",
"F. c #CB8950",
"G. c #C78858",
"H. c #C79859",
"J. c #CDA15C",
"K. c #C78866",
"L. c #D78768",
"P. c #C99869",
"I. c #D5976B",
"U. c #C88877",
"Y. c #D78777",
"T. c #CA9A77",
"R. c #D59779",
"E. c #E78579",
"W. c #EF8778",
"Q. c #C9A778",
"!. c #D0A570",
"~. c #B57189",
"^. c #AC6193",
"/. c #CC758C",
"(. c #E97A86",
"). c #F47B84",
"_. c #ED7590",
"`. c #D57AA9",
"'. c #B59486",
"]. c #B48B9B",
"[. c #B7AB92",
"{. c #B9B5A8",
"}. c #C68688",
"|. c #D78687",
" X c #C79988",
".X c #D99788",
"XX c #D09696",
"oX c #E98887",
"OX c #F4888A",
"+X c #E7948A",
"@X c #F1958A",
"#X c #EA8997",
"$X c #F38A96",
"%X c #E89698",
"&X c #F39799",
"*X c #C9A688",
"=X c #D7A786",
"-X c #CBB58C",
";X c #C7A797",
":X c #D7A899",
">X c #C7B599",
",X c #DAB59A",
"<X c #E8A896",
"1X c #E5A59C",
"2X c #CF96A8",
"3X c #EA8BA6",
"4X c #ED8FAD",
"5X c #EB98A7",
"6X c #F299A6",
"7X c #EA99B5",
"8X c #CDAAAC",
"9X c #D9A8A7",
"0X c #C9B7A7",
"qX c #D9B8A7",
"wX c #CABAB6",
"eX c #D9BAB5",
"rX c #E9A6A9",
"tX c #F3A5AB",
"yX c #EAA8B7",
"uX c #F2A9B6",
"iX c #ECB7B0",
"pX c #E7B7B8",
"aX c #BDC1B6",
"sX c #CDC1AB",
"dX c #C9C4B7",
"fX c #D7C4BA",
"gX c #E5C0AC",
"hX c #E3C5BB",
"jX c #E99AC2",
"kX c #D8B9C4",
"lX c #EAA8C4",
"zX c #F0ADC6",
"xX c #EBB9C4",
"cX c #DACAC6",
"vX c #D0CCC8",
"bX c #D9D2CC",
"nX c #DCD8D7",
"mX c #E7C8C8",
"MX c #E3CCCC",
"NX c #E6D3CC",
"BX c #E9CDD2",
"VX c #E7D6D6",
"CX c #EAD3D4",
"ZX c #E5DBDB",
"AX c #ECDADC",
"SX c #F1D3D4",
"DX c #E4E1DD",
"FX c #DEDFE1",
"GX c #EADCE3",
"HX c #F3DDE3",
"JX c #ECE2E4",
"KX c #EAE5E8",
"LX c #F1E6E8",
"PX c #F2E5EC",
"IX c #F1ECF2",
/* pixels */
"p i j | h : : a : : = - u 4 {.4 . - - 2 - * J U ~ L.~ F.n.J.c.V n.L f sXD.V.dXKXDXb.,XqX,X,X!.H.N.v.n.N.M.p p = . 7 * . :X>.6 6 2 2 - * b.* qXD g t hX9X{ w s { ",
"= = 4 #.nXb.p : u u p p p nX{.: 4 2 2 - - . + 6.6.G.7.I.F.n.C J.n.m.: u aXdXDXbXKXDX,X,X,X!.!.H.n.n.N.v.D.c.} 2X3 g s * q 6 DXc.- - - - i A.>X; + : o eXcXpXO.}.",
"* 6 | s vXFXbXB.4 a i h u h u B.aXx.* - - - w P 6.~ ~ n.G.F.v.J.H.bX-XnXx.x.KXDXKXDX=X,X,X!.!.N.N.J.J.v.v.V NXDXi ~.C.o u < p IX: = - - S.8Xh L %.* P o qXwX'.a.",
"= : 4 | h p h u 7 7 {.a u u 7 u 2 u u f 5 5 - - q.7.7.F.F.F.H.!.v.bXvXDXFXvXp FXDXDXQ.Q.!.J.!.!.J.J.J.v.L b.A 0X8X}.< f a i = 1 IXx.= a } |.K a h eX.X. 3 XX3 ..",
"p p 6 a a h f a x.D.a vXb.u u u j u 5 2 - - + * w P P v.n.v.C n.aX{.b.vXFXFXKXx.{.FXnXH.P.R.=XQ.m.;.v.1 V.mXnX[.-.B.: 4 u a i 1 1 : - u 7 XXpXb.i pX1X. . . u /.",
"L i 4 i a dX-.nXnXbXFXKXKXD.u u u u 5 5 5 u 8 4 4 * p n.P G.G.L 2 x.{.x.u vXKXDXB.p nXnXI.P.P.H.}.2Xm.0XS.nXm.'.. 7 4 - u a [.p : : 4 u a eX'.1 h } %.y . . +XG ",
"p p i [ ;XS.d 8 {.[.e JXdXKXFXm.2 2 5 5 2 - - 2 7 j : - G.=X+.: 6 6 6 7 u 8 u aXFX[.7 V.sXP n.n. XKXPXKXX.K : : = : u : 8 u 4 6 y 4 : 4 8 4 7 K h 7 } { . . f.- ",
"p = F X.JXJXt t u 8 a aXJXnXf 8 8 5 2 2 5 u f u h u [.nXDXL K 7 2 - 4 u 6 2 u u 6 7 8 a dXC.n.GXKXfXIXbX7 = 9X4 s 7 6 * - . . ; : - * 4 7 : 4 xX9Xp - , o . Q z ",
"m.D D dXKX*Xr t a u i i a u 7 4 8 8 f a | :Xh 8 4 i B.dXvX[.{.dXD.7 7 a u u u 4 2 u 8 2 5 6 d ~.q ..p 4 ; 6 g 2 t 6 - - 4 ; * * ; ; - - : = ; K 1 Q q X.9X+XH O ",
"rXZ 9X5XcXcXq ) - a : u u vXK.dXs h dXnX0XB.6 8 {.nXvX>XdX{.nXbX'.S.5 6 u 4 2 4 u u 2 2 8 8 - d 2X2 5 a a } NXDX0Xm.I.B D.} x.* X : ; q i 7.J } M.b.p kXXXY.P o.",
"+X9XrXY.rX:.9X:X9XC.7 2 4 : 6 i nXP 0XvXb.6 u f [ bXnXvXX.%.A.[ } 2 8 6 : : aXB.7 6 7 u f 2Xu 2 2 t 7 2 4 4 h p vXnXbXKX@.+.q - * - w = 3 w.n.c.w.Y.c.+.'.5.'.H ",
"2.%XE.oX%X.X%X%X+X9XL L : 2 6 a b.0X..f 5 u sX[ X.nXsXnXV.B.K 4 2 8 8 6 vXFXaXvXFXaXu 5 8 4 4 u 2Xg 8 2 * - 4 6 : 4 b.DXh b.X.+.w h s q ; v.N.D.N.L , w L xX|.- ",
"oX,.R +Xg.w.oXoXrXY.:XL p 6 - 2 6 {.vX2 8 bXfXZ.vX0XbXnXFXL y 8 8 5 {.bXD.nXFXFXD.vXFXnXp 7 f vXD.: 4 4 5 : - 4 @.= = A.| j K s y 8 e w 7.D.-Xb.b.p G D.M.L V.. ",
"2.b ! w.Q T E.1X1X.X.XL c.p a 7 2 e '.'.GXZXS.g B.{.B.B.B.a 6 7 6 4 : i a t '.[.aXf [.KXIXnXf '.wX'.K b.h f 2 A i.A 2 '.A.'.: m.; 2 $ G -X{.c.D.D.-Xv.Q.N.L K . ",
"b Q b 2.Q 5.E g.q.+XK. XL 1 < y - d r t t 7 b.wXvXbX..s V.9 {.[.m.K X.FXDXdXFXnXb.{.sXx.< p aXu a 8 B.IXKXsX: K - A.- X ; ; D [.L o i [.c.>X-X-X>X-Xp Q.N.S.C.w ",
"Y b 5.Y ,.w.9.E.5.rX9X6.i i s h s  Xq = MXD {.;.eXF D wXZ.) nXFXw V.w [.{.0XFXb.b.nXDXDXvXB.{.dXX.[.6 : '.A.0XfX..[.b...'.X.q 5 W y : -X>X>Xb.-X-X-XN.N.N.eX9XL ",
"Y Q q.x R b Y T E.:XrX4.< 1 1 1 5XpXzXL zXi.{.MXxXuXrX.X{ K s u y 9 [ w q q a w L D.nXZX0XfXqXA GXbX{ [.A.q ; fXDXsXb.L A.q o - 9 J s.Q.-X>XD.K -XQ.D.N.N.v.6.L ",
"W J q.+Xx E Y 7.g.E 4.@.O.mX1X< xXuXtXtXpXlX1 xX&XtXxXyXyX[ 9 g /.| K y ; s }.q w {.A...cXH nXC.m.X.'.S.V...bX} : ..{.} rXrX< K.9.t.3.M.-X;XQ.s.%XN.Q.N.N.@.E L ",
"@.x z U Q E Y Y E g.R.Y.xXxXpXtXuXtXW.&XuXuXOXuX&XW.zXzXyXxXq XX4 6 - ; ; y >.q : 1 [.KXJXmXeXnX[.nXA m.vXD Z.0XcXvX[.. %Xf.3.g.k.3.t.<.P.4XuXyX7XXXN.M.M.m.P A ",
"z x .Xx B 5.2.x ,.w.+X.XpX&XtXtXtXtX&Xz.6XOX3.6X6Xh.tXzXh.yXlXxX< s q : > ; q q 7 a i p {.ZX.XXX8XF L L , C.S.dXJXKXbXb.oX5.R #Xt.m t.t.j.j.#X3X3X5Xu u M.P L F ",
"~ B l z q.E Y 4.9.:XxXuXiXtXuXtX1.z.OXn ).OXf.f.).OXz.).tX6X6X3XrX1Xs i i s ; [ a t 1 eXrXY.s.7X3X`.XX9XF , [.qXKXa A.0 d.&XoX$Xj.#Xm Q 7Xt._.3X(.#X7 8 u X..X@.",
"C B b b Q Y Q e.g.pXxXpXiXuX&X&X).f.f.1.3.h.f.).).OXz.6X$X3.uXuXuX$.~.| i *.>.a s > , oXrXyX6X4X#XyXlX#Xg.E.&.{.7 6 l.uX#Xk.3.Y &X6XuXuXOXzXOXzX(.(., 7 u u %.&.",
"x x l Q T Y T 3.Q Y.tXiXtX&Xh.1.f.f.n 1.&Xm 1.1.M 1.3.k.$XOXOX&X6X8.a.y F 1 i = 1 = y %X%XpX3X#Xj.d.j.#XoXoXg.N j g.e.5X).3.(.,.b OX! Q I uX3.zXt.3X3.3 8 u u g ",
"l v v b 5.9.Q 5.h.xXmXtX&X&Xf.W.f.1.pXg.T h.v v $Xn n 1.z.k.k.6XyX5X6X>.2X- 7 : 1 : = %XyXtXyX$Xl.d.3X#X#XoXl.g.G l.j.$Xm 6XpXoXE.uXW.f.5.tX,.7X/ 4Xt.- z t 7 4 ",
"4.b l T x 2.,.9.q.xXxXtX$XOXf.3.n 2.R Y +XQ l.I mXw.W.! ! f.k.f.&X7X$.) >.9 - >.+ y  X%XuXrXuXOX3._.4X7X#Xl.l.p.,.d.d.,.lXOXW.b z %X%X$XtX6XuXOXM #X9., t ; D ; ",
"x I b e.T e.Q ,.rXpXrXOXOXW.f.M T e.iXl w.U # l l iXE.5.! ).z.z.W.g.iX%X5 2 q > [ r &X%XtX&X6X#X#X#X7XlX3Xl.e.d.9.u.3.#Xf.tX%Xg.d.h.3.oXOXz.uX1.#Xd.j.$ G 0 t 6 ",
"R.n g.e.w.w.g.q.%XiXtX@XOXh.h.v Q G l c 7.~ x B tXl I @XtXn z.z.OX&XiX@XO 9 o Z =.y rX%X5X&XoXtXe.yX3X7X7X/.e.9.<.j._.f.yX5.I e.4.(.1.6XOXtXuXf.3Xd.).* w > ; a ",
"2.3.l.l.p.q.%X.XxXxXyXW.@XW.M ! 3.B b x F.I.I.g.~ ~ l oXW.1.k.f.tXtXE.1 1 B.* > > + rX5XrX&X%XiX7X%X#X_.`.j.<.W - u.,.g.d.,.E.z.T b m @X5XuX$X&XoX(.kX{ > { y - ",
"d.e.h.5.+X+X X:XpXpXuXOXOXOXe.n MX,.l N R.C v.!.~ x v 9.2.b M $Xg.@XE.pXp 1 p b.3 q a.5XuXtX6X%XoX@X#X2.b 3.<.E O <.,.g.d.e.g.<.Y R s.2.f.).%X5X(.o.[ y y 9 4 a ",
"w.p.R.E.L..Xw y xXpXpX&X&X@Xe.rXg.v l m R.J.n.H.U b l n ,.m 1.).6X@XrXrX1 p 1 i 1 p y &XtXtX%X&XoXoX#X3.l.r.3XBXCXCXMXs.W.oX9., p.; A G d.#Xl.l.%XM.A _ _ ; f f ",
"+XE..X1X&.{ S.AXqXxXuX&X&XtXh.M b l l Y b U ~ ~ x v v n uXM k.).OXtXpX+X, ; * a < = w +X%XrX6XrX@X%X#Xw.#Xj._ mXCXBXCXmXxXxXO.8.hXD.G A ' 9.u.u.{ $.F G Z j j j ",
"9XR.0.i.K.+.LXLXeXpXrX@X6X&X).z.@XT x ! n v I ~ l M 2.T T tX1.1.).W.%X9 B B > = O w 8X:.#X5XE.6X5XrXz.k.u.z.xXBXBXBXpXMXyX%X%Xg.Z.KXJ N 0 x _ '.VXfXC.Q 2 2 j x.",
"L.4.0.$. XPXIXPXPXiXpXyXW.$Xl.z.f.hXv v v l b v v v m h.! 3.f.OXw.&XrX, A.9 %  ., w w r ) oXrX#X5X#Xg.s.Y mXmXpXBXmXmXpXmXzX@X&X: ; ! P W H D F Z.T ;XG 6 2 - X ",
"O.$.O.AXPXPXPXPXU.=.iXiX+XE.@XOXz.w.w.M tXe.v v v n @Xn W.w.W.g.g.rXyXq }.q - G | F H G 3 D %XoXrXoXg.MXmXBXBXmXmXSXSXBXmXxXiX%X, > H G F 0 '.;X#.GXGXqXw 2 - 2 ",
"4.cXPXPXPXCXZXGXJXHXGX>.+X+X&XtXOXh.&X! h.v 2.n @Xf.@XOXz.OXg.W.h.pX&.a t 8 >.e ` & 8.G t '.; oX%XoX).9.BXBXSXiXSXSXSXSXSX<XiX] Z Z S Z J _ 1.XX{ U.-XIXm.-.3 K ",
"MXGXGXPXPXKXPXGXGXMX>X| i.rXuXtX&X$XOX@Xz.1.2.2.h.tXtXh.W.h.rXrX+X.XY 7 4 6 >.D ; *.] 0.> GX;.*.( oXp.-.NXBXmXmXY.SXCXtX&XmXqXA A H F O.w & N 9 G ~.IXA.[.>XNX{ ",
"'.[.V.-XNXAX*XJXVXGX<XR.eX.XpXpXz.@X&X@X&X6X@X@XtX&X&X&.OXE.+X%XrXa n y a 2X( e ` =.0 % >.'.` ( _ D y mXBXBXmXgXI.hXiXSXmXSXmXH }.H Q %.7 s q ; r 9 [ 0X{ '.<XI ",
"KXKXJXLXPXPXJXPXCXMXPX4.|.MXmXLXiXE.E.+XW.@X@X@XiXrXE.} s i a a u a u y t w }.t { e ^ ` t [ IXBXDXL K | cXBXCXhXmXSXBXBXSXSXBXH $.B - 0 P S :.6.* o - $ o B = n ",
"ZXZXqXPXPXPXPXJXPXPXHX.Xi.R.DXKXJXJXDXo.C.Y.AXLXPXPXIXIXLX[.L u 7 7 o.z w a d y =.` *.) y mXAXAXAXIXVX[.].NXCXBXSXSXBXSXSXxX8.3.Q E = h.o.` o.E.N y 2XO I b B o ",
"JX0.yXAXAXJXPXiXPXmXGX+.C.bXZXJXqX+.} nXsXZXKXIXIXIXnXVXNXAXAXu : 4 < , x d =.C.S.%.) Z.V.[ -.9X7 7 7 6 7 BXBXCXmXSXSXSXBXmX3 > H T Z T E z.tX; ; 3 $.T 3.n O O ",
"ZXhXKXBXPXqXAXPXPXVXeXGXZ.0Xf s V.cX'.;.AXHXPXJX-XKXO.KXPXPXp u 7 : 4 A w : ;...h 9 q q _ ` ( #.#.[.KX>Xg mXMXBXSXCXVXxXpX+Xq.F G x ] w 4.2.2.#.#.o /.*.; A T I ",
"bXXXwXkXGXGXGXGXKXZX..[.f y '.` 0XfX| ;XZXbX>XGXCXAXi.BX,.K.7 8 5.P } h q : : < [ y | MX( K | KXcXGX>.GXGXcXcXBXCXmXmXMXcXD ,.9 S B W 9 e 3 9 5 0 w [ $ o 4.W c ",
"U.i.$.$.i.a.i.$.o.-.s b.h [ eXbXbX{ NXcXNXDXJXZX] NX' ` cXNX[.s q = < *.D VXKXPX] bX#._ _ A.GXGX0Xy { y } GXBXMXMXNXMXcX9 y o 3 J +X<.( & & @ }.| 9 ( ) o O $ S ",
"i.i.8.$.a.a.a.$.#.' y ..ZXcXbX .K MXK.S.bXAXX.].8XeXA...h a i i o.q.Z >.o.;X>X9XGXKXIXeXeXwX` bXA.V.dXKXVX XK.;XX.-.w > F ~ t 9 + 3 @ d % % )  .9 9XZ O Z o X Z ",
"s.a.$.$.:././.U.:.#. .kXJXJXS.cXDXKXL DX| NXVXC.h h p p s X.LXLXP O.H '.0 Q.n.eX=.nX>.FX9 eX X;XFXPX0X[.JXGXCX0.W A F Z 0 o ~.r._ ` % e % 9 @ 9  .b x _ :.O X X ",
":.y.<.8.] $.y.i.y.#.'.GXqXGXJXJXdXL KXJXPXB.p p p L V.DX2 8 NX}.wXnX&.S.S.y U.C.Z.-.S bX0 kX*.vXZ.IXeXwXbXwX} &.& H 2.0 r H ] @ Z.( e r % ( % 9 V.G G 0  .& + 0 ",
"<.G ] u.$.] $.$.y.$.U.mXZ.bXGX5.L fXKX[...s D.mX:X=.;.E 5 5 ] E wXKXGX>.'.;X0X;.XX*X .cX_ ) r ;XD { ;.Q.fXg q 3 > F F r >.<.D + O & r 3 @ e [.8XS }._ Z & # ) Z ",
"$.<.<.s.r.$.] $.y.y.CXfXW ZXC.%X XGXV.[ 0XrXJXhXeX( z XX_ 2 9 S -.A X.qX>XqX X;X;.S.>.~.~.# 0 ) 0XbXfXwX[.7 y F ; ; 0 & % 9 ' @ @ ;.0 ) D r -.}.F & $ N # O & $ ",
"G /.8.8.8.8.] ] m $.pX%XJXxXMXeXW A.[ eXeXyXp.yX+XO.pXxXxX- H Z S.%.[ [.>XsXsXsX>XQ.F ) Z F G c wXX.'., ; ; [ 0 > + + d -.Z 2X) r ( % e ;.) Z d 9 H ) & 0 0 0 $ ",
"r.8.u.s.y.<.] G ] y.kXp.GX9XxX9X9X5XpX1XrXpXpX&XE.pXyXpXpXo m R.cXZ KX0 [.{.D.[.>X[.S r 0 & ( z  .c U.}., 9 0 O D 9 -.y vXr 9 g ( ( >.l.i.O.& O e Z $ % Z =X0 $ ",
"a.a.p.y.8.4.b c c #X9XyXGX%XoX%X.XoXoXrXT E.#XQ 3.OX+X1XrX:X# T. XC.n.K sXD.b.c.[.A.# ;XZ.'.-.wXF H S.nXe @ 2XeX( #.>.[ S ;.-.r S e *.a.o.O._ S I.I.+X0 A J.J.~ ",
"s.i.Y.s.8.i.$.c <.rXeX9XE.&Xw.5.m +Xb 2.W.h.oXm ! (.z.W.9X.X. :X*XP.M.b.D.D.b.b.p b.P N X.m.n.-.( GX0X] ;X .9 F 3 wX0XY # y cX'.>.C.<.#X$ J H P I.I.F.,Xn.H.J.J.",
"Y.i.|.U.a.i.$.] 9.yX1XrXw.e.oX! <.l c l.l R 1.e.! w.d.&X3XXXK.P.*.K.m.} b.b.b.c.L n.P 6.P X.v.[ ].2X( =.'.8X3 D y  .Z.% | X y & ` y.i.% S H U.I.!.F.=XgX,XJ.!.J.",
"|.U.p.|.u.G 8.<.R a.|.rXw.e.3.t.l l 3Xg.oX3.%X&X5Xn t.k.#XG.K.XXT.:.F & b.c.c.c.U ~ B B k _ P ^.d >.( Z kXy Z., %.> @  .9X8XkX% r ) '.& R.qXfX=Xn.n.<X!.gXgXJ.!.",
" Xy.Y./.b <.8.p.yX] p.d.d.).3.l l / m s.:Xl |.4..XyX9.(.5XG.~ R.>.` =.i 1 V +.C ~ ~ B F.B R.P ` i.P _ ^.; ) 3 d ; + X % (  .'.# `.% ) O T.H.F.eX,XI.<XgXgX!.!.!.",
"AXbXi.s.4.J 8.s.W :X9Xj.$X3.m l 1.<.Y m 3.kXE.E xX2.M ).E.S.m.D.] & [ +.L = B =X~ ~ U ~ U.i.*.R.S F . ` r ` r ^.+ + o *.) 0 _ lX0 B >.0 L.F.n.:X,XI.,XgX!.,X!.!.",
"VXZXDXi.;X:.ZXZXHXcX%XoX9.d.b t.3X] rXm 6X(.l <.v rX#XoX0.-XD.!.r.w R m D 0 P.Y.L.6.C L.kXF =.' 8X> , -.MXD  .X e '.@ e -.>.[ & e 0 J N L.eXfXhX<XI.R.gX,XgX,X!.",
"g h cX#.VXo.eXZXZXhXE.%X#X(.M b ,.l yXXX<.v #Xl / &X,.T.Q.G.N.H.M C.G XXD ^ O.# O.P J /.MX&.P # -.L A  .;.+ o r g % D X d X ) =.$ N O.0.K.I.P.G.I.U F.<XgX,XgX,X",
"f f f NXNXfX;XbXP.fX:XcX#X6Xj.3.v b l l._.j.e.<.m oXw.R.N.N.M @.R P }.=.F %.H H L.G..XrX$.kX+.L V 0.H ;X( Z.X & ( =.9 o 9 ` }. .Z Z o.@ K..XQ.I.~ ~ F.<X,X!.gXJ.",
"B.B.B.X.b.m.m.*XL.4.cXeX4.3X#Xl.2.d.b l.M 9.,.6Xk.9XY.U.L.K.K.P.8.,.%._ H :.O.*.4.O.N F.G T.@.V , G.P ) ^.` ) ` ~. .r ( 9 ` *X| Z.z y &.R.=X=XL.L.!.I.I.J.=XQ.J.",
"j j f [.bXNXV.NX:XhX&.M.X.&XoXd.t.6Xe.l.! R p.E.l.:XQ.F.F.Q.-X!.N.K.+.n.N 2XC.{ H o.V N L.F.v.V I.|.&.( >.d '.O O 9 d >.' Q.P.1X5XyXoXrXrXtXuXzX7.7.!.I.v.v.Q.H.",
"f f &.eXZXeX-XNXAXAXNXhXDXfXs.#XoXoXl.j.#Xd.T.Q.R.<.G.+.P.T.=XQ.U.:.D., , G z q.7.7.H L.L.F.C .X*.=.bXS @ 0 ;.D -.=.@ ;X*X*XyXyXyXlX4XOX6XtXzXzX6XW.E.Y.C V J.F.",
"B.>.eX~ wXU.qXNXNXCXNXeXS.0.JX|.9.oXE.l.yXm.8Xx T._ 6.H P.=X=XT.T.P.Q.P ~ 7.@.z C # B 6.6.V U.R.>._ _ d d ~.D D S XX9 y C.yXxXyX7X4X#Xd.z.3X).#X$X5X6X5X|.P.P H.",
":.'.eX}.2XQ B R.-XNXbX~ E.o.S.w Z 3 5 |.%.kX9.j.L.^ i.F n.&.P.T.P.N.P.L 6.7.P P # 6.6.6.6.H Z ~.( &  X^.>.( kX( 0 ( > w E.lXlX7X_._.1.m 5X#XuX<X6XtX7XrX%XI.N.1 ",
" XU. XL.Y W 7.BXNXCXDXL.pXK.D w t 5 t AX7.y.3.:XP.T.a.=.0.0.o.m.P N.L *.F 0.6.( =.# F.@.L b.F *.^.d cX^.$.Z & _ 0 >.m.I..X7X3X(.1.t.l.3X6XtX7X).)._.4X4X4X@.s t ",
" XCXAXAXhXbXY.4.fX<XY.F.NX6.H q 8 d ZX+XF o.:X,XR.g.a.( &.u.G.P P.-XP `.i.>.] =.1.9., v.M.M.:.y ` X.e >.^.( Z C.wXV.@.G.XX3Xt.m #X3X3X3X_.uX3X_.4XjX4X$X3X} X d ",
" XCX.XC.mXMX:XNXAXm <X5.q.I R e F G.fXq.BXK.AXAX=XW O.:.'.-.d +.H.@.:.3 J ' S P h.2.N A , { ~.( e ; [ d 2X/.;.@ 9 ( w G.#Xk./ 4Xt.t./ oXv j._.1._._.jX7X5X+ % X ",
":XVX,.MXeXVXCXeXbXiXE AXV.g e t y LXAXL.O.7.GXgXhXmXAXP.b.c.L y q.N Z 0 h.e.M S Q.P.K.m.S.X.y 0 $ 9 *.& 9 /.9 =.#.Z L oX(.).1.4Xm j.(.v `.t.1.4Xt.4XjX4X3X|.2 2 ",
"AXAXCXAXVXAXAX1X<.eXmXBXK g 2 d 8.GXAXMXL.q.mXmXK.L.=.$.:Xw < #.^.; q 3 K.q.DXK.K.G C.%.;XMXS.d eX9 > O O ;X` 9 & Y.oXoX$X$Xd.4Xf.v _._.4X  3X! m _._.4X3X#X_.+ ",
"AXAXAXS.VXCX:X~ eXeX9XB y g t f eXBXAXmXL.HXJXY.:X5.6.8.{ F _ + ~.S f.%XLXAX9X%.K.:.&.#.e [ D y 0 y K $ ) ( @ e 9 %X+X#X#X4Xk.l t.b _.M jXc # 1.3.)./ 3XlXoX3X|.",
"CXMXVXBXNXqX<XCXp.W .X4.}.o.a g .XO.mXHXPXJXq.VXqXR.9.4.~./.a.8.0 r :XrX:XNX$.5X2.hXR.R.O.T.d r AX .> X 2 Z.0 >.XXoX%X6X6X4Xk.b k.v _.M `.B # l 3Xz._._.lX(.oX3X",
"MXMXVXAXCXAXAXK.i.G E %Xp.L y 4.E mXAXBXpXNXMXpX4.HX0X;.>.@ g.9.P CXVXmXGX=Xi.SXp.1XJXIXSX=X&.PX.X> 9 s X % @ |.#X9XrXrX5X6X_.b oXb / v t._.(.8.t.4X4X3X7X/.#X3X",
"%.NX[.AXAXHXAXVX X,X+.Z a.,.g.) rXCXW fX&.P.HXmXBXHX..].` S b +.LX<XLXLX,X.XJXAXqX5.AXO.mXHXmX:XD 0 %.CX3 % $.|.5X7X5XrXyXtX#X,.&Xb m %Xb _._.lXt.`.t._._.(.#X#X",
"CXVXMXAXAXAXAXAXVXb 4.e.4.u.q.i.B <X4.CXAXNXU.*XBX1Xa -.kX].] GXPXLXLXh.eXL.cX9XNXSXHXqXd r  X X;.V.D U.+.3 |.7XrXyXoX%XyXuX5Xd.5X3.3.m ! T 1.1._.t.k.3XE.l.l.lX",
"AXAXAXAXqXiXMXhXCXqX$.u.9.K w r H L..XGXAXeXNX>.MXL.f 8 _ r |.GXPXT HXAXpXQ q.#.8XSX3.U.hXC.r LX%.AX+.e ;X' %X5X2X5Xj.yXlXxXuXl.6XOXzXl.6X).#X3X(.(.k.oXoX%X#X_.",
"AXSXAXAXNXgXhXNXhXNXE.8.J 2 F 4.MXBX+XMXVXXX0X:XVX*X&.y.g.CXcXAXHXmXGXAXU.<.r./.9XkXpX` ;XC.` mX'.;.;.D T.|.5X2X#X(.d.oXuXzXyX#X,.).uX6X3X$X_._.<.5.q.s.9X9X;X% ",
"MX[.CXVXAXAXmXcX7.E w.U.u.G ,.8Xi.SX7.d.U.;XhXMXAX'.Y.;.p.:.1XGXHXVXHXLXBXHXa.PXGX%.X.Z.%.AX` ( `  .0 ( ;X%X7X5X#Xl.$XoX(.oX5XOX3.lX%XlXlXlXlXlX7Xl.y.u.y.j j 5 ",
"MX XVXMXqXAXAXBXmXqXg.G a.m m 4.p.A iX&.=X1XMXMXNX,.J o._ ;XC.hX4.PXKXmX2XBXHXHXJ ZXA.Z Z.eX-.) ` ( d 8XD yXrX7X5X(.(.b j.d.%X#X(._.$X#XzXlXjXlXlXyX3X<.o.X X X ",
"GXAXVXAXAXGXAXAXAXhXcX4.8.! 4.3.u.NXC.A &.eXT.AXHX'.d :.4.DXGXHXeX.Xs./.=./.>.eX].;Xw _ ` X.` ;.( (  .8X{ %X9XyX3Xl.,.l.l.z.oXd.3X&X4X6XtX7XlXlXlXlX7X(.+ 2 2 5 ",
"CXVXAXAXAXcXSXZXVXAXfX,.5.0. XS.+.cX:XVX>.~.[.:X:.X.0XR.CXSXY.eXpXGX9.C.8X$.~.P P F F Y.:X4.)  .) D V.;.VX5X7X7X#X#X2.j.d.2.OXoX,.yXrX5X6X$XlXlXlX7X3X|.D 2 2 5 "
};
