/* XPM */
static char *Screenshot_2025_05_20_at_18_21_53_1_png1747758161[] = {
/* columns rows colors chars-per-pixel */
"80 80 256 2 ",
"   c #2F3908",
".  c #292E23",
"X  c #631C23",
"o  c #6D322F",
"O  c #324909",
"+  c #285803",
"@  c #385806",
"#  c #2E5219",
"$  c #336A05",
"%  c #396805",
"&  c #465612",
"*  c #456907",
"=  c #487707",
"-  c #567808",
";  c #516912",
":  c #4B7715",
">  c #577817",
",  c #6A7416",
"<  c #5C5328",
"1  c #546B2C",
"2  c #597B25",
"3  c #677927",
"4  c #706F31",
"5  c #697A3A",
"6  c #293D75",
"7  c #612657",
"8  c #70356A",
"9  c #6D4A52",
"0  c #546A4F",
"q  c #70734C",
"w  c #525D66",
"e  c #735774",
"r  c #6F6C71",
"t  c #91351C",
"y  c #E80E11",
"u  c #EB1F29",
"i  c #9D6317",
"p  c #8E7433",
"a  c #E85F19",
"s  c #9A2D5B",
"d  c #EF0C50",
"f  c #E32452",
"g  c #EE0B70",
"h  c #F12D70",
"j  c #8A744F",
"k  c #A2635A",
"l  c #8A5473",
"z  c #8B7170",
"x  c #E46162",
"c  c #598307",
"v  c #508809",
"b  c #588616",
"n  c #658818",
"m  c #6C9210",
"M  c #79A315",
"N  c #5B8726",
"B  c #5A8533",
"V  c #678926",
"C  c #768D29",
"Z  c #699628",
"A  c #789928",
"S  c #688A38",
"D  c #768938",
"F  c #6A9436",
"G  c #769838",
"H  c #77A531",
"J  c #6F8B4F",
"K  c #788A47",
"L  c #779846",
"P  c #7A9956",
"I  c #7BA44E",
"U  c #788C6B",
"Y  c #779D65",
"T  c #86A718",
"R  c #899631",
"E  c #A49A24",
"W  c #8AA832",
"Q  c #CF9603",
"!  c #D1AF0B",
"~  c #DAB607",
"^  c #E8B909",
"/  c #DFB231",
"(  c #DAC206",
")  c #EBCC0C",
"_  c #EDD030",
"`  c #869947",
"'  c #8F8E51",
"]  c #879958",
"[  c #AA934B",
"{  c #87A648",
"}  c #87A559",
"|  c #94AD53",
" . c #AAAB54",
".. c #8E8C6E",
"X. c #899868",
"o. c #969A69",
"O. c #969977",
"+. c #AB9570",
"@. c #89A764",
"#. c #96A86A",
"$. c #98A776",
"%. c #94B070",
"&. c #AEAD70",
"*. c #A7A879",
"=. c #A8B777",
"-. c #C99658",
";. c #DFA45E",
":. c #CC9071",
">. c #F4B374",
",. c #AFC273",
"<. c #EED153",
"1. c #D9C96C",
"2. c #EDD370",
"3. c #2D389B",
"4. c #31519B",
"5. c #545F95",
"6. c #75528F",
"7. c #776A8F",
"8. c #7154AF",
"9. c #7968B0",
"0. c #2358CE",
"q. c #6360C9",
"w. c #F31289",
"e. c #EA309D",
"r. c #F13194",
"t. c #895594",
"y. c #B25F96",
"u. c #8C748F",
"i. c #876699",
"p. c #885AA8",
"a. c #8967A9",
"s. c #9469AB",
"d. c #9277AD",
"f. c #8869B7",
"g. c #9669B5",
"h. c #9877B7",
"j. c #A87CAD",
"k. c #A679BB",
"l. c #EF4D91",
"z. c #F054AF",
"x. c #E073A3",
"c. c #865DC6",
"v. c #8869C5",
"b. c #9779C5",
"n. c #9472D0",
"m. c #A67CC8",
"M. c #A97CD1",
"N. c #F278C6",
"B. c #739093",
"V. c #6A8ADE",
"C. c #94938E",
"Z. c #AC988F",
"A. c #9AA587",
"S. c #9BAC92",
"D. c #A7A888",
"F. c #AAB688",
"G. c #B6B188",
"H. c #A8A996",
"J. c #B7AA9A",
"K. c #AAB697",
"L. c #B6B798",
"P. c #978BB2",
"I. c #A992B2",
"U. c #9BA5A7",
"Y. c #A9A7A7",
"T. c #B7ABA9",
"R. c #ABB0AF",
"E. c #B9B8A8",
"W. c #B8AAB8",
"Q. c #B9B7B6",
"!. c #D09190",
"~. c #F1948B",
"^. c #C9B293",
"/. c #EFAA95",
"(. c #CE95B1",
"). c #EB8DB1",
"_. c #C6B7A6",
"`. c #CDAFB3",
"'. c #C6B8B7",
"]. c #F0B2AF",
"[. c #9BC087",
"{. c #B7C494",
"}. c #BBC4A8",
"|. c #BDC2B8",
" X c #C6C696",
".X c #ECD190",
"XX c #F1E293",
"oX c #C8C8A8",
"OX c #C8C5B8",
"+X c #D5C7B9",
"@X c #D2D0B3",
"#X c #EED2B0",
"$X c #EFE1B1",
"%X c #9B85CA",
"&X c #9992D1",
"*X c #A989C7",
"=X c #B489CA",
"-X c #AB95C8",
";X c #B696CB",
":X c #A989D6",
">X c #B48DD7",
",X c #AA94D5",
"<X c #B797D7",
"1X c #B7ADCC",
"2X c #BCB6C6",
"3X c #B8A6D7",
"4X c #8D9AEC",
"5X c #B698E4",
"6X c #B6ABE6",
"7X c #C998D0",
"8X c #ED90CE",
"9X c #C9A9C8",
"0X c #D6A8CC",
"qX c #C7B8C7",
"wX c #D6B8CA",
"eX c #C6A7DA",
"rX c #CAB9D7",
"tX c #D7BAD8",
"yX c #E9B2D0",
"uX c #EB91E1",
"iX c #C8AAE4",
"pX c #CBB6E7",
"aX c #CFB2E9",
"sX c #D5B9E7",
"dX c #ECB8E7",
"fX c #C9C7C7",
"gX c #D7C9C8",
"hX c #D7D5C9",
"jX c #CCC5D5",
"kX c #D7C8D8",
"lX c #CCD2D4",
"zX c #DBD4D9",
"xX c #F0CCCC",
"cX c #E7C9D9",
"vX c #E7D7DA",
"bX c #E2D5DD",
"nX c #F6D5DC",
"mX c #EDE2CD",
"MX c #DAC8E5",
"NX c #D7C9EE",
"BX c #DDD2E3",
"VX c #DBD6E7",
"CX c #E5CAE6",
"ZX c #E2D4E4",
"AX c #EBD7E4",
"SX c #E4DAE4",
"DX c #E4D3EB",
"FX c #EAD4EB",
"GX c #E5DAEA",
"HX c #EBDCEC",
"JX c #F4DAE6",
"KX c #EBCEF1",
"LX c #EAD8F3",
"PX c #EBE1EA",
"IX c #F5E2EC",
"UX c #F1E3F3",
/* pixels */
"; ..p 1 U 5 R ..^.^.-.[ #.E.Q.BXE.ZXgXZXbXzXfXNXJ X.$.J J 5Xv.8.c.8.w 0 M.8.n.5XC.Y > ] O.] O.8.n.iX].5Xn.5XM.aXpX,XcXFXJXJXIXJXJX:X3XI.kXkXqXjXtXVXrXBXzXgXGXzX",
"[ q 4 ..$.4 4 #.OX>.-.*.F.fXE.VXD.DXDXgXGXbXkXrXrX5 A.fX..1 1 O & < < 0 c.8.n.5XU.q ; K o.K 1X8.n.0X/.#XiX>XM.M.UXFXJXJXJXJXJXJXJXIXqXkXkXMXMXVX1X`.rXMXqX'._.BX",
"Z.5 4 q q 4 R j fXR.E.[ ' A.1XW.fXVXGXZXzX.XBXOXQ.I.VXf.z A.1 1 & < r 8.c.8.n.:XP.1 & C P J C.9.c.v.,X>X:XM.:XMXCXvXnXnXnXnXJXJXJXJXIXJXkXMXLXMXNXMXsXDXBXJ.L.^.",
"D.5 1XsXC...v.n.n.5X>XE.R O.2XjX3XpXLXHXhX<. XvXgXBXtXr ; 5 q O < 5.5.c.q.c.q.n.b.,   , X.U ] ..; @ n.6.7.f.pXJXJXJXIXJXJXJXnXJXIXJXJXUXUXLXKXKXkXtXsXLXDXBXkXW.",
"Q.' -XsXsXsXn.c.v.M.M.A.o.GXDXMX3XDXFXHXkX<.1.PXSXkXC.4 < < q & & 9 5.8.3.6   6.9 < O , 3 fXH.O.*.& V > 4 C.p JXJXJXIXUXnXJXnXnXJXIXnXIXJXcX0X=XMXrXKXLXkXCXT.MX",
"C.iXiXsXLXaX:XGXVXM.b.lXI.vXSXxXrXbXSXbXbXmXvXSXHX'.z '.z 9 t.0 9 n.8.7 8 7     @ ; ; n lXOXX.O.X.] K A.D $.C.ZXLXJXnXJXnXnXnXnXnXJXJXIXJXCXI.=XrX9XrXrXkXqXJ.kX",
"'.NXiX<X>Xf.iXFXGXOXDX3Xb.hXhX#XgXvXSXbXZXbXvXvXHXFXbXSXSXm.v.f.c.<Xn.n.  7     & * , , U 5 D R.G 3 A.Q.#.] 1X4XCXcXnX]./.yXxXnXxXJXnXAXJXFX+.I.1XtXwXqXNXqXqXNX",
"eX9X`.h.%X,XZXSXGX+XZXrXC.gX1.! 1.#XzXbXbXbXvXGXvXSXzXzXzX5X5XdX+X:Xn.n.q &     ; @ ; - U H.Q.H.} D T.Q.R 4 ..5X;XcX].JX].;.nX].JXnXxXnXJXCXu.*X*XJ.J.E.I.^.1X3X",
"iXNX2X-Xu.ZXbXzX+X+XBXHXPXzX<./ ~ <.BXvXzXfXSXSXhX+X/.gXgX5X>Xn.n.p.v.0 B.e # O   @ @ - ' R.'.2XJ.R.Q.fX' Y U.6X6XcXyXxXxXxX].yXxXJXJXIXIXIXz >X>XQ.o.' C.E.Q.C.",
":X<X:X+.' cX+X.X<.PXSXPXGXGX^.1.zXSXVXGX_.o.bXvX/ / ! ! ^.s.b.f.i.3 4 6.8.c.n.8.w % * , ` '.E.jXjXJ.L.'., J S.d.%XpX-XxX].GXIXIXIXyX/.yXxXJXkX=X1XW.$.O.=.{.L.lX",
"*Xv.-XPX`.-.@X2.1.xXzXbXSXSXhXxXbXzXSXBXD.E.bXgX/ #XQ ! gXvXZXVXY.& # 9.8.c.v.q.v.+ C.H.R fX .wXjX^.fXlXjX3 L 2X6XiXaXz ^.UX].vXnX/.~.~./.FXCXMX1XqXT.' %.F.$.2X",
",XkXOXZXPXPXPX#XvXHXPXHXPXIXPXmXvXSXgXPX'.H.zXzXzXGX.X'.zXSXDXkXT.4 8.8.-.! ! v.c.0 N $.C L.&.fX_.&.fXlX2XR.S.R.Y.%X%XC.wX`.].].].'.]./.).wXsXMXtX1XMXBXqXH.C.1X",
"KX1XR.' _.BXHXSXvXvXIX,.PXPXPXIXvXvXVXGXQ.2XqXSXGXgX+X+XkXzXkXZXkX5 %Xb.+.^ ~ &Xn.7.P C %.R L.OX^.G.fXkXU.fXGXC.X.-X5XR.J.yXgXnXyXJXnXcXNXDXKXsXqXqXCXMXBXY.W.Q.",
"KXiXI.KXUXUXSXbXbXvX'.,.,.IXIXmXvXzXbXZX#.2XE.SXZXbXvXAXbXbXDXZXVX'.] u.rXtXZ.jX&XU V }.$.X.OXT.1XNXNXrXQ.GXGXQ.U.-X3X@.D kXcXCXAXAXZXMXNXNXpXW.Y.Y.qXMXrXW.'.jX",
"aXMXT.DXZXHXhXoX@XhXmX,.,.,.@XoX&.J.&.zX| R G.ZXSXvXnXPXSXqXcXcXfX` ] A.zXtX3XBXVXBX$.R.- fXlXq.>XiX,X-XBXVXlXkXzXlX1XO.4 O.T.9XMXwXY.6XsXKXpXrXZ.Y.lXtXrXBXrXo.",
":X;XZ.`.kXBXgXhXhX{.oXW M M T  .F.{ |.o.n K T E.bX_.PXnXnXAXSX(.R X.S OXkXZ.2XMXBXBXqXq m (.,X[ Q 9 i.MXkXgX_.zXZXzXzXC.q P jXDXLXZX:XaXNXNX3XNXeXNXkX2XW.MX2Xp ",
"h.;XeX-XL.G.&.| OX XoXoXW T W M W | P ] O.%.W #.zX+XAXFXAXP.j & K.C 2  X+X' qXzXVXkXrXJ C.f.t.i 7 9 C.D.G.`.#XhXgXgX+XA.' ] X.2XBXY.,XiX3XaXiXrX1X9XMXVXT.J.qXz ",
"NXsX6XaX.._.T T { *. X@XW &.W T m M lX` PX} | =.%.UXD.W.rXa., & #.L.; 1.! / zXZXkXrXjXC.H.p.7.C.Y.E.D.F.,.@X X^.@X+X'.X.X.F.F.E.Y.jX,X:XaXpX9X1XW.D.U R.+Xj qXY.",
"6X5X5X' & }.M M M W ^.oX+X XW  .M m [.o.H.{ | | } 6X..K.a.e r C.; { : E.! ! +XcXzXZX`.U.A 2 '.`.+X3 - &.@XoX@X[ &.&.` U K A.U.U.VXrXb.3X-X,XE.qX' U.X.Q.T.E.O.C.",
":Xn.%X' , J.K.M M | {. X@XR &.@X[.|.} F.{ I J @.K 7.H.D.C.9 q ; &.] VXVX/ }. .gXkXzXo.O.m - #.&.*.- H ,.,. X X&.| *.E.q C.S.L pXLXrX-X3XrXC.Y.qXT.Y.OX'.kXW.MXD.",
"3X,XNXsX<XrX@X=.@X@X{. X=.,.F.}.{.fXZ }.$.@.q I i !  XH.I...3 Q.fXSXZXzXgX1.1.kXgXJ.R Z - - } { ; - | T W ,.@X .G.V 5 q C.Q.S.3XrXI.T.P.H.U.I.;X-XH.fXzXkXT.rXlX",
"I.f.b.6X<X,XF.}. XoX,.,.c C W hX&.|.S G E.R.X.V T ! ~ lXCXKXAXDXSXVXZXZXgXgX+XlXE.A oXD.* - @.@.@ W W =.M m W L.VXY.5 X.pXpXNXpXP.Z.+.#.+.-XC.I.I.H.lXzXkXMXW.fX",
"8.8.f.<X%X&XC.L.*.V %.%.J R.m @X=.| }.S.A.zXX.w Q ! FXJXCXFXCX8XZXzXzXkXbXkXzXfX+XA W * % c * % = m W %.@X&.,.+XjXjX1 C.,Xn.b.P.Y.Z.E.I +.p o.K.G.jXD.fX2XzXC.T.",
"v.c.%XpXv.v.U.F.; - ` =.o.jXK $.=.G K.V R.Q.` 6.6.9XJXKXcXuX8X8XuX8XHXSXSXgXbXGXvX#.A = * #.Z * F.H =.,.T E _._.jXMXS 1XO.9.b.Y...O.L.F.;.[ kX'.T.2XJ.vX@XZ...jX",
":X8.5.%XNX3XZ.K.| ; D ` F.zXfX> K @.G V |.S.N r *XdXKXdXdXN.uXN.dX8XN.FXAXIXHXVXD.=., * = A $.K.m  .{.oX@X .E _.qXlX5 7.O.8.:XS.O.' #.fX&.`.fXMXMXJ.mX_.OXZ.U.rX",
"b.8.C.LXKXkX+.L.F.D K H.{ |.R.2 > R.X.F.Z lX$.= KXLX8XyXuXz.8XdXKXKX8XdXLXHXGXBXJ.n &.+ L A } m m m W G.hX_.qX'.qXkXJ 8.L 9.n.H.3Xm K.hX' D.W.rXW.=.vXZ.2XT.S.z ",
"I.| kX^.+.^.&.L.G.] $.X.D H A.X.K #.Q.@.Z @.n J KXKXN.w.N.w.dXyXu y r.N.CXyXBXMX| =.> @ oXm | R R T F.bXvX_._.'.qXrX..b.C.9.6XA.6XlXo.hX| V A.C.C.F.@X{ $.OXU.j ",
"..R.ZXZ.^._.`._.G.L.*.'.kXzXm @.MXA.Y.] b I =.F } KXLXr.z.g dX~.].x h ).8XCXp OX=.{ #.zXL.m - ' AXcXAXAXJXnXJXgX[ $.C.6X&Xd.C.Q.9XMX9XfXkXL.:.* ..{.}.D.` fXU.Q.",
"7.W.zXZXW.o.G.E K.E. .rXrX2XfXc L C.PXH }.%.H H X.Z.UXw.g e.dXx.].#Xh d ).dX:.= I @Xv S oXR cXAXAXnXnXJXJXnXJXJXcXC.B.,X&XP.7.eXiXrX9X+X8X0Xp O.DX}.O.Q.fXR...j ",
"%X5X3XpXpX3XZ.O.2X_.zXzX3XQ.E.H oX}.{.H %.%.v N 5 `.k x.r.g yX).yXyXl.l.N.0XyX#.| H P @.R SXAXJXJXxXnXJXJXnXnXnXJXZ.P.b.%Xf g e.e.x.(.8Xz.g g 9XBXoXE.H.OXH.q W ",
"9.P.:XpXNXsXpXrX1XE.jXMXjX@X{.OXhX@X@XH M b v $ 2 > KX8XKXz.w.dXdX).N.).l.uXyX` I {.@.1XBXGXIXCXJXnXnXnXJXnXxXnXnXJXC.C.f l.l.g r.).KXz.g g x.aX).oXfXqXfXO.R.' ",
"lXrXsXaX:XNXNXaX&X1X1XrX1X{.{.@X@XhX@X{.| $ b =.* & k LXl.z.h z.8X8XdX).l.yXyX[ I b J H...LXUXdXnXJXnXnXyXnXJXnXnXUX_.;.x h z.x uXu dXr.w.w.g g z.L.H.H.zXO.2XC.",
"FX%Xb.f.*XsXNXiXP.%XY.#.S.zXoXhXhXhX@XK.} N H + : 3 ..dXl.x d z.g z.e.w.w.8XyX^.$ v { L `.`.LXxXcXnXnXnXnXIXJXyXnXUXIX/.hX2.mXnX/.u u r.g w.r.h g -.].H.zXp qXK ",
"DX3X9.9.9.v.,Xf.eXrXF.|.GX| hXmXmXK.Q.R.H v Z v % * 9XdXKXnXf d l.N.N.uXdXKXdXR v I Z c FXHXJXcX].~.nXnXnXIXIXJXJXIXIXnX$X_ _ <..X;.;.).x d l.f g g dXDX`.j ..6X",
"*Xg.g.u.b.9.f.rXI.1XE.|.|.Z hXvXoXL lXv H Z v I E.% X.q KXKXyXx h g ).x.).7XCX'.K.M G D.'.HXIXAXyX].KX].nXxXxX.XxXnXmXXX$X<.XX2.XX2.<..Xa y y y f d g ~.k C.q.9.",
"f.a.P.=X* 7.2XjXqXqXE.U.Q.K.hXlXF.A.S.$ m $ b v R.% P D.dXdXx.LX).8Xx.yXyXFXcX} | H = G LXFXFXJXJXJXxX].nX/./ >..XxXXX$X$X2._ _ _ ) ) XX#Xu y y f r.w.l.x j , , ",
"9.7.q r ; &XpXjXH.1XpXQ.Q.hXhXlXK.S.A.%.m + = @.2 : A.U.Z.(.cXwXCXFXCXDXKX!.cX{.=.b c V MXW.CXLXJXIXxXJX#XxX>..X2.$XXX2.$X2._ 2.) _ $X$XmXa u u g ).h d z.k 4 q ",
"H.d.P.' &X3X&X&X,X,X,X3XW.hXlX2XX.$.J H I $ $ $ $ L %.r m o.I.wX!.tXx.(.tXtX=.; | = c Z #.F Z.+.CXIXvXnX/.JX#X/.2.<.XX) 2._ _ _ XX<.XXmX$XxXx d g uXd h w.N.x n ",
"|.%XC.P.-X-X-Xh.b.v.%X1XP.lXY.Y.VX@.A.H {.,.H N + F N U m ..Z.Z.J.+.] OXF V F Z } = c V = S.{.C ].]./././.#X>.<.<.^ $X_ _ <.) _ 2.XX2.mXmX#X;.h e.N.l.g dXdXg -.",
"P u.u.I.&X%Xb.&Xv.&X8.7.fXjXrXkXY.P } N %.@X$ $ H Z + : M * % {.L.D K.b Z Z H L + c H M = I { F.wX].oX/./..X.X/.<.<.mX) 2.) XX$X2.) ) $X$X#X>.d g g uXd d d g w.",
"L 1 1 W.,XpXn.,X9.%X7.r U R.U.Y.P J @.@.} H H % n Z + B H I G = =.] E.#.{ =.b %.[.H I { - V L.L.C o.yX#X#X[ E vX2.XX#X_ mX<._ ) ) ^ ^ mX$XxXx y d d d d f e.e.g ",
": % : * %X,X%X,Xr u.5.U @.L + N B B K %.Y M F =.= = + S W c bX .G.E.xX_.m I v F K.b { } c v {.oXX.V ' T ] ;._ <.$X<.XX2.2.<._ _ ) ^ $XXX$XmXa f y y 8Xy u y g 5X",
"2 U r B.9.:X9.%XL L B.Y fXY + > c b A.F.F m [.} P b $ K W W `.+X&.vXcXxX}.{.H $ + - W ` M v oXoXc * * M T W ( ( .XmX) XX) XX) ) ) _ ^ mXmX>.a y u u w.u r.h g y ",
"B.9.9.q.a.m.C.1 = S Z } Y %.%.OXzXP R.; B m @.A E.UXK LX| xXxXxX#X].nXyXc v $     : M H c : m @X X` G OXT W ! ^ ) JXmX_ ) ) XX) ) / $X$X_ .X#Xa f x.uXdXu l.d h ",
"P.&X&X%X# * r q * b N N Z S.b b E.Y P = { { I $.{.&.AXCXW dX#X]./.yXnXxXE.H m O   $ = A c = v X.+XoXK.D ; T E ~ ~ ^ mXvX) ( _ _ ) ~ ) ) ) .X$XmXx yXu f f g f h ",
"U.&X&X5.7.$ $ 5 1 V fXL v $ + K.c } : #.K.| S @.C Z.^.cXE ].].xX].].yXcXvX].xX} O % + n m $ $ 5 _.}.H.* ; C T ~ ! ~ ^ ^ XX_ ) mX_ ( <.$X$X$X$XmXXX#XhXoX^.g y y ",
"|.K.%Xq 0 : @ > A.= S.}.v $ + E.X.} V L.] W F > AX/.].].E 1.yX].xXcX/.]./.AXcXSX% *   c c % * A.E.Z.@ @ @  .E Q ~ ^ ^ ^ ~ .X^ ~ ( ) ( ~ _ #X$XnX:.hXgXfXfX|.C.a ",
"A.H.u.H.% v = % J J v U.v $ + S $.I = L K.Z $ L ` =.' o.[ | yX/.;.)./.].yX^.!.k * % + + - c L }...@ @ @ @ O W R Q ! Q ! ~ 1._ ^ ~ ~ ~ ~ <.XX>.:.P fXfXOXfX|.S.A.",
"Z.O.E.OX: v % : + Z = ,.%.Y L $ N Y % : E.m $ %.v H G P &.m ].`.-.[ [  .^.cXwXcX3 % + ; > K.Q.sX9X& @ O   + + T M Q ^ Q Q _ #XQ ! ~ 1..X#X.Xa o.D E.R.}.|.OXR.R.",
"'.L L.E.$.v > % $ n = b M : B v v Y $ * F M % @.2 S.V H P C ^.:.i , r D - p gXcXq # U r Q.kXNXsXiXiXO O O O O n cX, i Q Q Q _ ~ ! / T.T T | }.#.2 E.R.}.|.OXOX}.",
"UXD L fX|.S * % % $ : b Z + B I B I $ $ [.H J VXDX} BXGXJXR - m n C.;XW.; O < 1Xd.; 2 qXtXiXdXsXrX9 O O O 1 q fXkXi @X/ ! ! ! ! 1.jXBX$X,.| W | }.K.}.|.Q.OXfX|.",
";.$.D 2 U : > * 1 C.S : L N $ fX}.%.% b F I lXVXzXlXBXzXAXW c c , P.=X=X- ; ;X;Xu.4 eXaX7X7X7XM.eXg.d.u.1X*X*Xq wX, fXfX{. X! ! 1.zXbX].+.:.F.%.} K.fXOXOXfXlXfX",
"^ ;.j , = K P A.C.P.@Xb b = F |.fX@.B % 2 VXZXBXPXGXzXZXOX` +X; j *Xh.d.;X;XeXt.=XsXsXsXeXm.g.g.7XiX>X-X=X<X*XNXZ.' vX`.+X+X^.^.+X'.i s u t p J 5 ' zXkXbXhXfXfX",
">._ / C '...g.=XR.1XhX{.N [.Y v @.A.J : N GXLXUXkXzX_.E._.*.3 I.s.;Xj.p.s.g.b.iXeX<X7XCX5Xg.t.5Xm.<X<X=X*X7XiXg.s.+XcXgX X`.&.+XgX`.E t i t i U.X.D.FXJXHXHXIXSX",
">.]./.cXMXC.*Xb.M.3X+XL.F > v %.} Z J N n VXBXkXZXPXGXzXOXD., u.=Xg.p.eX*Xm.>X7Xm.c.n.M.p.7 :X=Xb.>Xm.m.m.eXiXp.s.i.kXgXgX'.`.AXFXZXE k x t x VXCXLXAXtXFXJXAXIX",
"~.).AXcXFXR.C.P.GXVXgXSXlXP = v = S b J = qXkXkXSXHXGXZXqX#., P.;Xh.s.g.>XM.M.p.p.g.n.c.iX7X=XiX>X<X>X>Xk.=X>X*Xa.t.P.+XxXwXfXwXkX`.A k t ).9XwXSXAXAXCXtXtXAXFX",
").wXAXCXCXW.'.VXZXBX+XvXvXK - % $ Z @.$ F Y C.FXHXSXVXVXE.OX, ;X<X=Xt.p.:X>X=X8.f.M.n.7Xk.m.KXiXiXiXCXm.7Xp.iXaX*Xi.s.-X_.^.wXwXqXq V | i k 9XcXFXcXFXHXwXdXcXFX",
"]./.AXCXkX4 +.CXAX_.^.gX*.> * n $.b S $.2 I fXSXZX+XkXkXD.+.p s.<X;Xb.5X>XiXh.*X<XiXeX>XKXiXaX7Xv.DXKXCXp.=XsXg.*X*Xr I.T.J.J.r # + v Y H %.9XZXkXCXFXDXMXLXKXsX",
"x 9X).tXKX*.GXFXIXvX^.hX'.F  .L L b J.O.A.K.2XZXGXVXMXBXT.[ d.m.k.<XM.:XaXiXm.iX5X7XtXKXDXCX7XiXMXCXk.sXM.M.sXg.*Xk.< < K 1 @ O + N N V.0.W.9XMXtXCXkXKXkXCXCXNX",
":.x.FXUXIXFXdXJXLXCXzXzXhXzX>.xXPX].].JXSXPXC.VXCXkX9X`., I.:Xb.m.:X>XiXaXg.=XiX7XsXaXeX7Xm.M.8 t.t.k.m.iX7Xg.m.b.v.&Xr 0 B.w & $ ,.4XV.0.CXtX7XsX(.LXKXkXCXCXtX",
"[ !.AXnXAXLXFX;./.LXDXcXgXhXcX].].].yXxXHXcX'.q 9X(...O.& m.M.n.b.c.7Xv.p.p.g.k.aX7X=Xg.s.k.=X7Xt.t.g.M.k.a.b.:Xb.f.v.b.. w w B.B.0.4X4XtXMXwXCX9X9XMXtX`.^.CXyX",
"o.LXFXAXcXCX~.x LXCXcXcXzXxX].xX]./.].].gXkX`.T.; I ; Y.O :X*Xg.M.5X:Xg.g.7 t.g.NX;Xk.p.m.7XiX=Xt.g.y.M.j.:Xp.=X*X-Xf.v.# 0 0 U 6 3.V.4X-X9X9XZ.rX9X7XAXKX^.tXtX",
"+.W.HXUXLXAX].:.GXLXJX/.~.a a /./.a ].].MXCXfX'.* L 3 I.k.m.<Xm.aXm.f.g.f.X 7XM.p.*Xm.t.k.7X=X=Xg.7XaX7Xv.<XiXdX;XsXeXb.# + # 6 3.0.0.0.4X(.rX`.J.0XtXUXtXDXMXx.",
"gXyXdXtXwXDXDXCXCX0XdXyXa a ;.a a a ;.wXkXqXjXT.T.C W.>Xm.>Xn.iXiXs.t.p.c.6.*Xm.m.k.t.p.iXsX6.t.m.6.p.>XCX<XKX9.MXsXaX,Xb.0 # 4.q.0.0.q.VX1XtX9XwX!.9XtX9X9X(.x.",
"sXCXDXLXDXCXCXkX(.x.(.;.a a -.:.:.v > qXwX`.H.Z.' V Z.>Xa.p.iX5Xf.g.6.%Xh.iXb.>Xm.*Xt.=Xg.p.t.k.7Xp.h.<X*X9.5X6.aXMXiX7Xp.pX&Xq.4.0.V.&X6X} T.Z.(.!.(.(.9XsX:.yX",
"0XyXdXtXwXwX`.tX!.+.&.&. .[ ^.' v = = = O.- 5 2 : 2 @.D.i.X t.f.f.6.p.tX7Xq m.6.a.p.s.p.t.8 s.=Xk.f.d.6.7 7 6.6.rXiXeXiXs.*X9.4.V.0.4.4XS.%.R [. .} J.*.R `.tX].",
"yX!.:.CXLXgXwXtXCX^.^.&.#.G.Z.n %.%.m m qXY.J Y U.J S %.Z.t.p.6.7 8 I.kXNXjXU.P.8.6.sX<Xn.7 n.l t.8 iX6X:X6.:Xv.f.b.eXaXg.6 4.5.[.S.Y Y F P Z c { V { A R 4 /.:.",
"cX!.x kXtXtXCXcXZ.G.G.G.&.E.+X@XoX@XF.} qXqXK - $ I } %.H.i.6.*Xg.3XkXi.j.(.fXqX:X8 =X>XM.7 8 7 X s.iXf.6.P.sX,Xa.b.*Xa.5.6 5.w 5.B.0 Y %.2 = F 2 L R W & @ +.&.",
"CX`.+.x.sX9XW.O.$.* V D C ` %.v F = D.o.O.#.X.> L P S 0 t.I.t.%XI.C.t.s.7 8 y.`.=Xk.p.rXt.I.6.X 7 9 t.s.7.sXNXsXd.%X%X<Xs.4.5.U.w U %.@.1 S L Q.jX#.} I @ @ ; &.",
"0X`.`.(.!.(.z C : : % P > F ] * S lX] $.2 T.Z.S : P 5 i.i.E.H.E.t X T.P.p.8 j.y.s s s m.s.=X,X6.s.a.a.P.-XsXg.p.a.i.P.<X< + B.4.X.] $.] S b tXkXGXkXBXK.D @ * ` ",
"E sXwX-.9XwX} Z Y J $ J 2 N % - * }.} CXJ.9X9XJ.$.Y } P.P.Q.E. Xj o I.=X*Xs.=Xl X X p.7 7 7 X f.m.%X6.g.5Xe h.9.-X-X<Xb.@ % N o.$.G.&.*.] m rXkXDXcXGXkX*.} = v ",
"+.tX0X`.9X`.] L J b L 2X'.Q.'.R.* Q.kX`.tX(...* } S.l l Q.hXK.oXL.d.iXeXiX=Xs.t.7 s m.7Xl p.p.g.*X6.s.,X6.6.8 e 8 6.a.& > - - *.K.D.o.#.] n 0XCXCXZXFXzX+X{ } = ",
"sX:.rXMX0X0XtXS @.N W.'.'.fXjXrXH.qXkXZXcXZ.O.L Z % 1 U ..fX}.OXL.C.s.s.s.8 I.t.h.h.l 7Xj.8 6.<Xa.9.n.8 i.6.1X9 t.6.w = b - = D O.' U } | ` tXFXcXAXGXtXm m W = ",
"x.jXtX(.y.(.eXP P 2 rXfXT.qXrXjXMXjXgXSXZXkX: v V N P J ; *.{.oXOXe h.i.i.t.t.I.l s p.g.e a.*XI.o X o t.a.I.a.e i.* #.- - @ = qXDXFXzXG.#.W `.MXMXLXDX*.{ Z c G ",
"!.x 7X0XtX7X0XZ G 2X2XjXjX2X, rXjXMXkXGXBXrX= % S v J J 1 Y {.} u.%Xd.8 X a.i.1Xt o X X i.I.*Xl X X 6.P.*Xd.7.u.* = % * = ] - E.9XtXCXDXZXkX_.`.CXKXKX*.=.M % * ",
"' * p (.0X0X7XG kXjX2XrXjXZ.X.E.rXBXDXzXkXT.$ : % = J : oXI A.{.@ *X-Xd.i.7.o o o X X l t l k o l X 9 6.9.i.7.r ; = $ % % *.L H.`.rXwXwXCXAXhX!.).wXDXOXn 2 % = ",
"V = = = n K F J jXrXQ.Q.R.@.#.S.'.jXkXkXR.J % N % $ : %.L F.b }.K.% -X;XP.l r 9 o < o I.l I.o s l 9 l l u.P.a.q '.: $ v + @.> L 9X9XwXtXFXHXZX^.+.`.MXDXO.> - b ",
"B V I [.G % : % = H.A.H.Q.fXjXVXjXT.`.T.E.E.] * : v : K.{ $.}.F }.Z #.7.j 9 9 9 9 X 9 u.I.I.9 7 s I.I.l e 4 @ G.+X= $ + + b = V ^.9X9XDXCXtXcXoXkXHXKXKXHX..- '.",
"F L F $ X.* : = V b Q.E._.fX`.kXkX*.O.*.o.] % : $ v P K.= I * H K.= > =.' r e 9 o o l o 9 e o X p z -X&   # @ _.+.= : + $ b % n K I.CXCXcXDXkX' cXCXMXCXMX..- qX",
"Y I J $ % : I N L [.OX'.W.zXgXkXSXO.% * % 2 + $ $ % I fXb } = { $.OX: v * 9 9 e p z z z X t < k @ - > O O % $ D.n @ : + = b = I T.MXDXtXMXCXcXCXCXMXtX' O., o.9X"
};
