/* XPM */
static char *Screenshot_2025_05_20_at_18_10_23_1_png1747757624[] = {
/* columns rows colors chars-per-pixel */
"80 80 256 2 ",
"   c #110501",
".  c #161702",
"X  c #280402",
"o  c #380502",
"O  c #331702",
"+  c #1A2101",
"@  c #282703",
"#  c #372803",
"$  c #2C3602",
"%  c #383702",
"&  c #450402",
"*  c #4B0202",
"=  c #530502",
"-  c #5C0501",
";  c #5A0A03",
":  c #4F1705",
">  c #640502",
",  c #6B0502",
"<  c #670B03",
"1  c #760A03",
"2  c #6A1703",
"3  c #771604",
"4  c #701615",
"5  c #482603",
"6  c #562805",
"7  c #493702",
"8  c #583703",
"9  c #692703",
"0  c #782703",
"q  c #673804",
"w  c #783606",
"e  c #723515",
"r  c #722B2D",
"t  c #3A4603",
"y  c #3C5504",
"u  c #4A4A08",
"i  c #564905",
"p  c #4A5703",
"a  c #555905",
"s  c #684806",
"d  c #774806",
"f  c #665706",
"g  c #775709",
"h  c #745317",
"j  c #586706",
"k  c #556310",
"l  c #70700D",
"z  c #784E2E",
"x  c #756C2F",
"c  c #702350",
"v  c #796F45",
"b  c #870804",
"n  c #980902",
"m  c #861A06",
"M  c #981603",
"N  c #821812",
"B  c #A60901",
"V  c #B11303",
"C  c #862604",
"Z  c #8C2C03",
"A  c #962904",
"S  c #883805",
"D  c #993705",
"F  c #943B04",
"G  c #8F3216",
"H  c #AC2B07",
"J  c #A63905",
"K  c #B73B04",
"L  c #8A3129",
"P  c #B53226",
"I  c #CB1503",
"U  c #CB2904",
"Y  c #C63904",
"T  c #D63A07",
"R  c #E43509",
"E  c #E6372F",
"W  c #884705",
"Q  c #984704",
"!  c #8D550F",
"~  c #995606",
"^  c #A34304",
"/  c #A34B03",
"(  c #AB4B04",
")  c #A94608",
"_  c #B54905",
"`  c #A45405",
"'  c #AB5403",
"]  c #AC5C04",
"[  c #A75908",
"{  c #B75707",
"}  c #B45B04",
"|  c #AF5115",
" . c #906B0B",
".. c #AB6507",
"X. c #B56303",
"o. c #BB6404",
"O. c #B96809",
"+. c #AF6F11",
"@. c #B96914",
"#. c #B87319",
"$. c #8C542D",
"%. c #AF572D",
"&. c #8E6C30",
"*. c #AF6E2A",
"=. c #BA7729",
"-. c #B97838",
";. c #C64707",
":. c #D54D0D",
">. c #C65905",
",. c #E94F0F",
"<. c #C46B04",
"1. c #C76807",
"2. c #D56806",
"3. c #C9730A",
"4. c #D57708",
"5. c #C56B15",
"6. c #D56618",
"7. c #C97617",
"8. c #D47A16",
"9. c #EA7006",
"0. c #D1542C",
"q. c #E7522A",
"w. c #C87A27",
"e. c #D47B28",
"r. c #D26D31",
"t. c #C97A36",
"y. c #E96936",
"u. c #B63A48",
"i. c #8E504D",
"p. c #AF534C",
"a. c #90704D",
"s. c #AE704F",
"d. c #9D5C6B",
"f. c #AE736D",
"g. c #D05B4C",
"h. c #F1564F",
"j. c #CF724C",
"k. c #EA6F51",
"l. c #D16C69",
"z. c #EF746D",
"x. c #75881F",
"c. c #738D50",
"v. c #92900B",
"b. c #A69908",
"n. c #A09B21",
"m. c #B78735",
"M. c #D78909",
"N. c #D88219",
"B. c #EA8A0A",
"V. c #DFA11C",
"C. c #D78427",
"Z. c #D0852E",
"A. c #CA8337",
"S. c #D78639",
"D. c #E59133",
"F. c #948C52",
"G. c #B88447",
"H. c #AB8856",
"J. c #B98657",
"K. c #AEB05B",
"L. c #91956E",
"P. c #B29071",
"I. c #8FA573",
"U. c #B1A976",
"Y. c #CA8848",
"T. c #D88A46",
"R. c #CE914B",
"E. c #DA924B",
"W. c #C78B58",
"Q. c #D78B55",
"!. c #CB9359",
"~. c #D89659",
"^. c #DC955B",
"/. c #E5884D",
"(. c #E4934B",
"). c #E49858",
"_. c #E6A353",
"`. c #C68D64",
"'. c #D5896A",
"]. c #CB9667",
"[. c #CC956B",
"{. c #D79966",
"}. c #D39B6B",
"|. c #CB9A74",
" X c #D29D73",
".X c #D99B75",
"XX c #EF8A6F",
"oX c #E59C66",
"OX c #E79878",
"+X c #D8A26B",
"@X c #CBAA78",
"#X c #D8A477",
"$X c #DBAA7C",
"%X c #E4A26A",
"&X c #E3A474",
"*X c #E7A87A",
"=X c #EFAA7A",
"-X c #D6C871",
";X c #B76F8E",
":X c #D67389",
">X c #B3988C",
",X c #96A48D",
"<X c #B2B18F",
"1X c #BCB8AC",
"2X c #D0938A",
"3X c #F4948F",
"4X c #C6A688",
"5X c #DCAC82",
"6X c #D9A986",
"7X c #C7AA95",
"8X c #D0B394",
"9X c #D5B499",
"0X c #E6AB87",
"qX c #E8B387",
"wX c #E4B38B",
"eX c #F2AD92",
"rX c #E4B492",
"tX c #E8B897",
"yX c #EABC9B",
"uX c #E597A9",
"iX c #CFB8AD",
"pX c #D5B8A8",
"aX c #F3AAAC",
"sX c #EABCA3",
"dX c #E8BBA5",
"fX c #F4B6AB",
"gX c #F6B6B7",
"hX c #B3C8A3",
"jX c #C7C897",
"kX c #FCD88C",
"lX c #EBC19D",
"zX c #C7C8B5",
"xX c #D0CDB0",
"cX c #D8C7B9",
"vX c #EAC3A7",
"bX c #EEC7B8",
"nX c #D8E3BB",
"mX c #F2B4C5",
"MX c #D9CAC4",
"NX c #CBD1C6",
"BX c #D6D7C8",
"VX c #DBDAD4",
"CX c #E7CBC6",
"ZX c #E6D6CB",
"AX c #E5DAD5",
"SX c #F6D2D4",
"DX c #DAE2C8",
"FX c #DCE4D6",
"GX c #EDE5CE",
"HX c #E6E4DC",
"JX c #E4DFE2",
"KX c #E8E7E3",
"LX c #ECECEA",
"PX c #F3EAE8",
"IX c #F1EFED",
"UX c #F6F3F5",
/* pixels */
"0.K . # O 7 8 $ !.s 6 + 5 @ 3.M.M.M.M.B.B.Y 2.kX9.nXB.9.B.B.@ 6  .o &.SXgX| ! d | 9 [ 6 ..W 5 ! q -.7 6 q 6 # g s.KXZXP.VX<X7X1X3Xs.E j.5.XXj.0XJ.aXgXG.P.s.v.x ",
"D S : 7 q @ 7 h 8 &.v c.# f M.M.2.M.>.M.>.B.4.B.B.B.B.2.>.s $ f g SX7 XXk.] ` [ 7.{ X.] r.X ~ d 8 f a.$.O 9 O h g HXLXPXz.IXP.F.s.H.H.7X:Xj.j.6Xk.-.P.SXx x v f.",
"w P.: 7 ,Xa.8 v 7 &.x x k NXFXV.M.M.3.M.2.B.2.M.M.;.H M.>.@ W d ~ ).t.o.{.6.{ / _ ) J { 6.{ e.O.=.f u ! 5 h J.$.H.jXjXU.XXp.aX&.p.[.*.aX3Xk.q.j.*.!.`.j.,XF.g a.",
"a.b 8 h v 6 # x x v ,Xc.zXhXFXNXUXUXM.M.1.4.B.B.;.:.2.] 8 ~ O.Q Q ( _ ) { { ^ A D D K J w 1.} 1..XW.5 4X# # m.8 a.FXxXz.SXXX3Xh.! j.cXy.l.aXt.7 s $.i k.[ H.uXgX",
"I.i ~ $.&.x h v s % 7 1X,XNXc.NXIXLXLXnXxXM.{ 4.W ..1.r.] 3.K C C J J J J A C M 1 Z A S ` [ ` 7.A.).3Xd @ u + +.h xXDXnXh.3Xz.k.rXcXjXU.j ;.a.G.@.Q  . .~  .y.$X",
"x x q $.! 6 % I.h z ,X,Xx L.FX,Xy c.LXLXnX&.~ 0.IX8X0X` ^ 6.9._ >.H A m J - A ; 3 Z 3 ^ <.O.S 5.7.Q.t.0X&.# % &.g FXnXLX>X,.&.8Xz.3X|.@X$XJ.hX$X<XU.Q. .h ~ i *.",
"q q 8 hXhXv d.q x g.k.k.0.FXy y @ $ nXDXU.DXR D SX~ ] F A Y :.9.H D 2 G & & ) & Z ' O.' } 5.T.} ] t.'.Q.tXa.7 f >XFXLXLXUXhX>.:.4XoX! K LX;.aXIXDXLXzX@.F. .U.h ",
"mXi.;Xu L.l.3Xx 7 s A 0.J '.j.f . @ $ % v.oXq.k.oX] Q 0 , K A b 1 m 1 1 A - * w D ' S X.{ C.A.S.w.w.] Q.'.dX%.;X&.zXxXnXHXs g q.<X .aXaXZ.E.:.@.F.0XH.HX<X! K.).",
"q d.c c :Xz.3Xf.<Xf P P K z.g.%.$.8 Z 0.q.z.r.,.[ F { ) H J > > * = m m 3 e.m : ) ` { ` S.X.Z.%...5.&X} OX'.rXh f L.jXcX! Q.h.q.jXaXQ.K e.UX5.@XH.].!.LXKXFXDXjX",
"P.}.j.c h.;X| 3X8 | | J H l.g.g.p.m.s | 0.y.q.>.Q Z J A D H - - * * < A | D 9 ; & @.[ 2 Q W [ &X-.w./.S.@..XQ.gX|.DXk.J.bXT 3XrXrX&.k.cX .jXv.y.DXE.FX6XLX@XDXU.",
"MXH.g.r b b K :Xd F J C G g.p.%.g.z 6 w S k._ ' 3 - M > 2 A m > * o * L J ' 3.>.S F C.] Q ] w.Q Q.@.t.T.w.r.Q.{..X'.l.z.W D T T /.XXz.Z  . .,Xl jX-.DXnXzXl a.hX",
"HXAXU.C c z.0.l.q v %.$.2X%.! Z %.L = O 2Xr.Q - < 1 A , m > 3 - > - * - Z ' ' o.{ F S } Z [ Q +.Y.' / w.w.O.t.Y.t.oXq.k.q.A z.z.q.g.:.i y t j x.j jXU.FX~  .x.x.",
"AXGX8X| ;.g.l.p.1Xc.c.FXNXa.z W 9 P.@ 6 '.[ m * > < 3 3 D 3 F S w ; 0 - ^ Q / ' } 0 [ X.O./ 7.5.Q Y.O.t.7.O.A.w.t.5.dXq.K h.b D uXu.h.# @ @ p j j l. .hXx c.I.FX",
"vXxX8Xv 0.b l.uXhXFXFXhXI.a.a U.%.l.h $.@.1 & 1 1 < Q F w [ [ *.~ *.Q w C { } D 1.O.^ ` [ ; <.=.Q O.e.o.Q ` ..8.w.T.A.fXaXY 0.h.R z.z.*.p k k t x.6Xs.U.p I.hXA.",
"-XvX@X; | | 0.r.<Xc NXzXc.DXxXx x d.;XSXQ , ; * ; 9 W ..j.R.{..X{.'.~.Y.#.Q ' 5.1.' 1.] 1.~ } O.+.] ] A.] / O.A.T.T.T.).U q.z.eXE H +.h.k $ f  .L.j a p x.c.,XzX",
"xX8Xr Q ) D ) c.FX<XDXIX&.FX>Xa.6 r f.=.J < o = d ..W.`..X.X0X2X0X*X.XQ.t.[ { O.3.' / @.O.T.w o.Z.@.w.5./ ` -.] S.7.Q.'.z.h.k.R %.y. .XX# a R U B._.p y x.y k j ",
"4XF.l.f.2 I.L.VXhX{ VXJXHXhXxXa.r s.q Q Z 1 e ~ -.`.}.6X6X0X0XrX0X0XOX.XQ.=.<.{ 4.<.@.5.oXO.0 @.` ~ X.7.X.X.X.F <.S.S./.S.0.z.aX0.r.t @ s B 9 I ,.B.jXx.v.y y j ",
"`.h d.i.& 0 L.BXf.Q U.f.) NX1Xi nXx 0X` M X S s.W. X.X0X6XrXrXrXeXrX0X0X.XY.X.O.8.3.] O...7.~ N.O.Q @.7...7.~ F 1.~.w.S.~.k.3X2XNX% @ i R ,.n I 9.-XzXv.x.p p @ ",
":X$.i.NX>XNXNXVXe a.uXL.v s a.W s.4XZ.S < ; ..R.}.#X6XrXrXdXtXeXdXrXrX0X$X^.5.<.<.X.o.3.e.A.[ 5.@.O.e.7.w.O.[ ) X.S.{.Q.E.{.3Xp.UXu % % s B ,.n I B.<Xx.x.t  .# ",
"0.<XNXd.VXJX1XiX;X;Xe a.JXAX| q g.cX#.0 1 w G.!. X5X6XrXdXtXdXdXfXdXdXtXrXOXY.<.X.1.8.3.@.w.Z.7.~ [ X...O.e.7.O.5.Q.(.7.e.&Xt.! 7Xa t . ,.R 9.U B.B.U.j L.l k UX",
"g.G 6 f.NXi.zX$.d.4 1XG [ ! @Xs.k.U.O.m C -.J.]..X6X9XrXtXsXsXsXdXsXdXtXtX0X^.w.3.X.<.8.7.Z.e...[ O.Q ] ..1.O.@.| 1.T.w.T.).).CX6XgXAX@ } I ,.B.b.@XI.j ,Xc.PXUX",
"uXd.;XP.1XVX;XLX,X$.MXiX$.s w a.S 1.X.C o G.!.#X6X6XrXtXdXsXdXdXsXsXsXsXyX0XOXA.<.8.3.o.' O.e.Q O...3.] A.S.e.1.{ 8.Q.^.T.T.oXpXUXZXs a j # n.v.n.a c.j y x.GXUX",
":XE U 2 P.a.e d.z L VXs.F.8 8 i.q ..o.A o J.]. X6X0XrXtXdXsXvXvXvXvXsXsXtXrX0X^.<...o.8.N.<.e./ X.O.] W t.Z.w.7.' 1.T.~.' T./.Y.HXUXl a % F.t k F.p Z.j y F.9XUX",
":X:Xp.VX6 zXa.KX0 i.x <Xz z d.>Xa...] C ; J.|.6X6XrXrXtXdXsXdXvXvXvXfXsXyXrX0X{.3.X.O.8.Q } 7.W @.X.S O.T.t.S.Z.Q E.w.T.T.E.oXT.j t F.j j % $ j t a.p x.j F.&.UX",
":Xz.g.0.<XMXJXJXP.W JX>Xd.MXs.>XKX#...A X J.@X$X5XrXrXyXdXdXvXvXbXvXsXsXyXeXrX*XT.O.' o.O.] w.7.S ~ N.O.S.A.S.=.O.] @.{.).~.).qX7 $ v.i F.p % <Xl d p j p F.[.7X",
"z.z.IXLXiXMXLX) s.q &.>XiXKXiXKX! O.` F X J.|.@X#X6XrX9XyXvXvXvXvXdXsXsXrX#X}.{.m.O.O.o.<.] 3.e./ ` ~ 3.W ).A.O.7...S.Q.T.O.(.%X#.K f *.x.p i u % % t t p x 3Xd ",
"MXl.IXLXVXd.UXz iXJXIXUXKXs.&.2Xs.X.[ > w ~ ~  .+.A.A.wXyXvXvXvXbXdX5X{.w.t.5.O.O.O.4.4.} 1.Q <.w ` 3...3.7.+.] S.3.X.t.T.Z.&X*XT.{ d &.f iXl j t t + y y 8 $ @ ",
"CXCXp.JXP.r >Xf.x VXiX'.|.| r.ZXa.+.Q 1 W *.w.#.+.*.+.Y.9X9XvXvXvX5X}.e.w.@.w.T.A.t...<.3.3.( 4.e./ 3.O.#.7.#.O.@.X.} Z.oX^.Q.qX%Xi 7 % t $ $ + . . +   x . . t ",
"MXiXiX_ S MX1XNXJXJXHX6.Q | %.P.5XO.` 3 =.{.{.+X+X!.~.!.$XrXvXvXvXwX5X*X#X#X+X{.^.^.3.o.4.<.{ ' S.Q Q C.7.N.T.C.C.@.Q S.{.&X(.%X0XA.  7 # .     l p + @ ,X. p % ",
"iXmXMXh ! AXP.VXiXs.cX| s.PXi.PX4X..O.Z Y.R.S.A.Y.^.#X+X}.5XtXvXtXwX0X.X#XS.e.8.1.2.} } <.3.o.{ S.S.Q N.] M.O.D.o.3...O.&X&X} 0X*X{.0.q @ $ y t j k a . I.k JXUX",
"iXiXd.q w KX$.l.<XH.f.f.JXpXP.P.m...X.( w.7.6 O ~ W {..X{.$XyXvXlXwX5X0Xt.Z ' 5 : 3 ( D Q 2.o.1.} Z.[ O.S...M.N.3...{ F E.qX).).&XoX5 : B 7 d V VX+ #   c.AXLXVX",
"iXiXW 7X3 LXiXP.P.s.f.J.iXJXMXPXvX..3./ [ Z o 7X5 X S ~.!.}.yXdXtXwX#XQ.} d 8 X o X = A { 1.M.2.^ T.T.( <.7.O.N.3.o.Q O.T.+X0X).*XoX# 8 - f a a.cX7   # ,XH.KXcX",
"s d H.<X$.zXw ^ G -.H.KXv AXPXJX*...4./ 2 : ! vX: o o Q.W.!.wXtXrX5X}.1.( pXW   o ]., 0 Z { 4.4.1.C.)./ 3.C.N.3.X.3.} O.[ {.*XN.E.qX+XS ! F.&.: x s.  @ L.KXl NX",
"KXLXp.i.f.L G.*.<X4X>XiXAXVXpX|.+.O.4.S X.~ F J.1.2 1.t.Y.Y.0XqX0X5X#XS.5.W Z.s.+.D < Q Z 1.>.1.D.3.^.| X.7.] o.O.3.Q { 7.oX&X{.E.qX^.u %.q.0 0._ ;.} p x F.U.U.",
"FX4X>Xf.L l.7XKXs.KXLXL.LXKXcX@X~ O.M.Q w.m.w.Y.` A.Q.`.Y.Y.&X*X&X*X#XOX{.Y.A.T.e.e.| 1.{ [ 5.1.N.4.(.~.{ <.#.3...3.` w Q R.+X&XC.%X&Xf x A B ) uXaX9 X . i P.h ",
"<Xq $.r i.w VXcXBXPXLXLXMXAX| 6.Q ..1.3 S.T./.oXoX.X{.~.Y.Y.OXOX).%X%X&XOXoX.XoX&XoXoXD.>.{ _ 2.B.N.8._.Q X.O.(.C.<.Q / 4.C.%XoXS.).%XY.7 j uX0.uX! F.P.$ &.a.BX",
"s d 7X| i.iX$.4XH.LXKXNXVXs.6X-.W w ] ' /.).).).).oX{.Q.A.Q.0XoXoX_.XXoX&X&X&X&X=X%X%X).4.>.( >.1.8.<.(.X.{ 3.O.{.N.Q ` W ' Y.*X~.~.~.}.u p F.Y HX9XJ.a.z P.>XMX",
"h h g 7XL.BXf.<X>X1XJXL.LXNXZXG.W ~ } w.(./.).).).oXQ.T.A.}.0XoXoXoX=X=X&X=X&X=X=X=X=X_./.1.{ { >.4.8.N.(.( <.N.S.7.2 C ' Q E.E.0X%X&X+X% t k H.! &.a.tXP.g P.q ",
"6 H.<XKXd.i.-.BX>Xr.MXIXAXZXJ.9X[ o.{ e.).oXoX).oXoX).Q.Y. XrX).).%X0XqX=X=X=X=X=XqXeX=X_.e.{ ^ >.>.8.<.).{ 2.o.S.).D C { ] N.{._.).oX+X .u f 2 j.IXi 8 g &.%.SX",
"&. .HXAXH.s.d.) Y JXiXLXKXz.9Xt.` ` 0 t.).%XoX%XOX&X}.Q.Y.0XrX{.E.).qX0X0XeXqX0XqX=XeX=X=X(.1.<.>.2._ 4.D.W { o.N.E.T.D Q S O.Z.qX$XE.%X!.7 l 6 a.5 &.AXv 8 f.0 ",
" .f LXLXa.7X: MXr.-.MX%.ZXSXCXdXQ D D 2 ~.{.&X=X0X0X#XY. XrXtX%XT.T.{.0XqXqXeXqXeXeXeXqX=X_.3.Q / 2.>.2.M.] { 4.7.O.D./ ) ^ 8.E.~.S.(.).~.5 &.H.p.z >XKXH.7 7 8 ",
"s 7XLXxXKXs.P.AXp.>.dXf.( z.SXKX/ _ 1 * Q.{.&X0XqXrX0XW.+XyXlXtX*XoX^.qXtXeXtXeXkXeXeXkX=XoXZ.Q _ 3.2.A 1.<._ 1.8.M.O.D.3 ^ ' <.A._.E.6X^.-.9 s 7 e f.f.IXd $.2X",
"7Xf.GXJ.MXPXVX_ AXMX9XS %.2X7XbX{ C 1 * Y.{.&X0XrXtX6X{.W.#X*X+X+XqX).0XrXyXyXyXlXlXyXeXqX).Z.~ J >.2.D _ D._ 3.3.M.2 C.^ D { 8.T.*XE.&X%X0X3X3XUX&.KXHX! 7 8 e ",
"iXAXLXZXP.KXs.p.KXLXQ 0.k.pX3XQ.Z A A * w ~.#XqXrXyXrX}.Y.R.~.*X*X{.oXqXtXyXyXlXlXlXlXqX=X).t.W C D 2.>.J D.) B.<.4.6 ' S ' ( o.Z._._.).~.&X3XeXaXUXi HXe e O o ",
"a.PXIXP.KX1XJ.AXMXy.r.3XeXf.PXSXG J A ; * W.&X0XwXrXwX6X{.+X%XqXqX&XqXrXlXyXlXyXlXlXlXqX=X).w.Q C J 1.J 1 o.^ 2.D.3./ D Q Z 3 ' e.E.(.~.oX).3XaXaXl.k q h j.q r.",
"PXZXKXpXa.pX$.CX4XcXLX>XfXGXPX-.A 1 A - & Y.{.$X0XwX5X6X|.#X].&X*X5XqXrXtXlXyXlXvXvXlXlX%X(.=.0 3 ;._ >.K @.J <.M.C.{ D N.J _ J 3.' %X(.*X).aXaXmXaXIXO '.'.D h.",
"1X>XJXAXAXJXMXs.AXZX,.'.9XgXPX*X1 D m , & = {.$X0X5X6X X4.2.D.y.).%XqXtXtXlXlXlXlXlXlX=X%XQ.] S A >.J 2.J ( 3 <.3.C.0 Q B.F Z J { 3.(._.T.%XeXgXfXuX8 9 { S & @.",
"PX<XAXPXPXKXJXP.cXgXk.ZXSXPX'.0.H J 1 1 = * R.{.5X5X}.7.T I ,.T T ,.*XrXtXlXlXlXvXvXeXqX{.Z.Q Q J ;.J 2.( S _ 2.4.N.' 2 N.) 3 >.4.C.S.T.(.{.eXgXfXmXuX= # [ Q > ",
"cXKXAXUXPXAXH.iX'.XX@.XXSXh.%.q.m J - N > * S ].$X$X~.;.B !  X4X].M I 2.wXlXyXlXlXlXqX%X~.5.S S _ ) J B.4.Z _ 2.<.C.F Z 3.C 2 ) _ 4.8.E.Z.oXeXeXgXmXl.. 9 w %.'.",
"AXAXZXiXKXPX<X! >X5.k.AX0.3XwX0.A 3 C , - * & !.$X$X{., n V n n n n B b t.qXlXlXlXrXqX+XY.] S A J D 9.9.>.) D 4.<.<.] { <.2 Z J ' } w.).0XE.*XeXgXmX  & : o 3X0 ",
"8Xa.PXLXPXPXF.d &.8X'.Y q.;.}.6.OXZ A 1 = = - %.].#X#X>.:.U ;.R ,.:.:.2.$XtX-XyXlXqX+XQ.#.Q D ) A m 2.9.D Z Z 4.D.8.0 / } < C < ' 1.T.4.S.).E.fXj.s % X   X o k.",
"! pXPXPXPXxXjXJ.ZXZX:.XXfXj.t.R ,./.m - > = & , !.+X#X].>.9.,.2.9.9.(.&XqXtXlXlXqX$X~.A.X.W 3 J J >.9.D.D _ D <.M.7.} } 5.< J _ 9.1.C.3.(.E.&XT.&.% @ u . : q S ",
"NXiXPXy.VXAXZ jXcXF 3Xk.q._ q.k.j.'.~ C , * * = *.!.+X#X+X].R.~.Q..X*XwXwXlXwXlX$X+XS.+.~ 3 A Z J >.>.2.0 ^ ( { 4.| F ' F 2 J Q ( ( 1.3.D./.).OX .k a i & : $.m ",
"LXAXxXP.GXL.iX|.HXAX'.LX{ KXOXk.;.*XpX~ 1 > & - = !.].+X$X5XwXwXrXtXtXyXlXwXwX$X%XE.Z...S 0 m _ A >.4.{ J < _ { X.! Z 1./ Z D C ^ <.` (.D.(.(.OXgX6   _ i @ I ; ",
"cXxXxXW Q $.U.eXHXzXVXy.h.9Xq.J -.ZX@X!.' > > & 3 & {.+X5XwXwXtXdXdXsXyXlXlXqX$X~.A...W 9 C m _ { >.4.J 3 G _ 5.M.3 3 ' S 0 ) D ( 4.8.5.3.oX).=X0Xh X s A u ,.'.",
"{.@.w h <Xv.v.!.f &.cXU.KXy.}.q.dXCX6XGX=.1 - * L = -.].$X5XrX9XlXlXlXyXlX=X$X~.A.O.W W F / A D J >.B.Z C J >.4.3.= ' 8.} = D ) D 1.4.3.D.*X(.XX3XgXS T J s # U ",
"pX0X_ HXK.nXjX-XK.AXa.BXq.9XXXAXbXcXoXt.!.Q , * > & * W.+X$XwXrX9XtXlXlX$X&X~.Z...! ~ ` ' { _ >.2.>.) m , > ) 4.} < < 3.3.^ ) | F ( 4.e.N.S.).oXOXeX>.# T i a   ",
"l l l x.b.jX-Xb.n.! F.jXz.SX;.r.XXGXeXbXT.( m > = 4 ; o R.+X$X5X5XwX$XqX%X~.m.......b.<.+.J m J >.;.D C m C ) { 1.2 A / { Q ( >.) ( 1.e.` (.qXS.(.3XaX# # & V q ",
"! t.zX}.v.b.b.x.l c.l x.LXIXXXz.XX'.eXXXk.' J , - & * o X Y.+X+X$X$X+X~.T.b.m.#.m.A.Z.m.X.F m >.{ >.A - < 3 4.1.8.G ; ' ` Q 0 ^ 5.^ 4.C.5.S.).).=XT.g # ! = < R ",
"mXAXIXBXHX+Xv.K. .nXv.U.v.H.Q.XXfXXXeXXX5.{ 3 1 1 * * & X   m.~.A.m.R.R.Y.A.A.Z.A.A.Z.Z.+.' ( ) _ 9.> m 0 > ( <.1.) L ; 0 S A 2.) >.4.3.w.e.).^.=XXXfXfXCXfX= R ",
"3XPXFXLX8 nX1XhXKXDXK.K.@XXXuX3Xz.z.y.q.6.2.A > , = & o X   *.].!.R.!.!.~.!.R.R.!.R.R.R.X.{ ) C J 0 m Z Z ) 1.' [ = = , Q 2 Z 2.1.D 1.1.S.7.).E.oX0XaXfXbXbXbXaX",
"PXFXKXxXBXnXKXzXnXGXb.b.fXXXq.R ,.,.,.H :.k.J 1 - L * o   X d ~.+X!.!.+X{.~.~.!.+X!.~.R.X._ { D J A < 1 S Z 8.1.| 2 2 4 { >.{ < } 7.1.1.8.t.5.).{.oXfXfXfX3XSXaX",
"xXLXPXLXLXKXHXVXBXKXn.b.b.h.,.U U R B ,.V T ;.< = * - &   X 8 ].@X+X].+X+X+X+X+X+X+X{.!.` ( / C { - m Z & 2 2.D.[ = C > D ) / D ( ' ) N.8.S.Q /.).oXyXbXfXgX3XeX",
"7.#XKXLXIXKXBXFXj.dXPXP. .q.,.y.B b E U H :.Y , G = o X a.7 g !.@X+X#X+X+X#X+X+X+X+X+X!.' 7.F C _ = , Z = 5.1.S.X.D 4 - 3 { F D ( O.} O.5.e.7.D.E.%XyXvXbXbXgXSX",
"O.6.|.IXVX{ 6.H  .v.0XXXXXq.U V XXK _ XXb :.:.M > = o X H.H. .].#X#X$X#X$X#X$X@X$X+X+XA.' 1.D D ) - > 0 ) G } A...> > - m 3 >.2.- 3.3.3.7.<.S.` )._.tXvXbXCXSXSX",
"1.1.HXHX .l  . .h.z./.3Xz.q.I H A A n b XXM M M - * X f.H.z ..!.@X#X$X$X$X$X$X$X$X+X+XR.X.<.) >.D 4 < D D { 8.O.S C = 1 1 Q ' Q ) <.{ 8.1.e.S.8.Z.%X*XeX).yXSXSX",
"w.X.q q q W AX:.,.z.k.aXz.,.I H 3 ~  .2.K 0.:.H - * & P.P.W *.J.#X$X$X$X$X$X$X$X$X$X@XR.} ` 2.D 1 < 1 } 0 Q 7.7.0 < 4 , b 3 = ' _ ( 4.<.8.1.Z.T.S.+X).8.*XfXCXSX",
"k.Z D ZXzX' :.0.SXKXeXXXy.q.y., 1 Q g 8.K >.n y.b & = P.P.d m.G.@X5X$X5X5X5XqX$X$X$X#X!.@.t.>.0 2 > m ) / 3 e.w.J * - , N H G ` D 3 7.3.M.} S.T.Z.~.+X*XOXqXeXCX",
"} S A B xX( _ :.t.PXXX/.:.V B Y , 9 O.0 b >.:.K H * 2 P.H.W m.m.#X$X6X5X5X5X$X$X$X$X$X X+.} 1.3 > C > / D F 1.e.; - - , 1 b , 0 X.< { 8.1.o.3.w.T.T.qXbXCXbXsXfX",
"H CXW Z M pXT U R ZXT z.q.T U r.b , n n M 6.;.k.M :.H.9Xd W &.G.}.#X#X6X5X$X$X$X$X$X#X|.O.5.o.D < 3 m >.F F 8.t.S 1 G , > A N 2 1.} S ] e.>.o.8.T.S.lXZXSXAXSXSX",
"U E mXH z.V R AXF.1XBXXXz.:.K B n b n b K M q.1 M +.P.8X .W -.m.}.].].#X@X$X@X#X#X}.!.4Xw.' 1.D 3 m 3 { F } 5.(.S ! , > 1 , 1 3 0 Q / >.S.o.<.D.T.T.0XbXbXAXJXmX",
"1 wXT U K XX3XK 8XM KXg s.>.Y n M :.H b M U ; #.s.G.|.4XcX>X>XNX8XcXR.].{.@X X XVXpXJ.4XQ o.1.) Z 1 1 1.; { o.] W 0 > > > 1 H M | <.O.' C.o.<.O.S.w.%XsXeXmXSXiX",
"1XhXFXhX_ r.9XBXQ.y.k.J &.UXzX{ | ) K ] *.-.s.G.A.*.4XpXiXP.7XZX9X4XA.W.].W.W.!.pX4XcX..) ` 1.1 N m 3 1.J 1.Q ~ Q 0 G > , , A A 0 ^ Q } S 8.` 8.7.A.w.#. .# 2 , ",
"<XNXB n H H M 0.1Xq J s H &.0 { *.-.j.-.=.#...~ ! ~ ~ pX4X@XiX7XcX-.-.P.8XG.8XpX9X9X~ Q ' Q 6.D C N J { Q ] +.` S > 2 1 > 1 1 A m C 9 [ X.C.C.<.N.A.t.+.8 5 i o ",
"J zX%.T A iXM ;.KX<XB =.=.t.j.Q.'.{.'.W.W.Y.J.Y.m.G.G.7X2XpX7X9XiXiXcXcX|.MXO.-.`.W.W.+.{ N.Q ) 3 m _ ( _ 1.X.W Q F F S 1 N 1 ^ J Z D.3.' 1.W 5.3.e.A.m.X 5 7 7 ",
"7Xk.Y n M T A / -.j.W.W.W.W.!.[.}.|.}.W.W.`.[.|.].].!.!.iXcX9XpXpX8XsXpX4Xt.].}. X X XQ 1.1.C A Z S C Q ' w...[ ..W ~ ~ ].1 1 1 D K ( / 3.{ } 4.o.e.w.=.o 8 : 8 ",
"aXq.j.V K J U.j.G.W.W.`.].'.'.}.}.'.[.`.`.[.|. X@X X[.|.{.9XiXR.R.{.{.].pX].}.#X X X XQ 1.9.0 ) m Z F 1.o./ ] Q ~ ~ [ pXHX0X, 1 Z A A e.{ } 3.( 3.8.t.T.q X : s ",
"JXJXK 1 n -.s.W.W.`.`.[.}.].}.[.[.`.W.`.`.[.|. X2X#X X X#X].{.{.}.}.[.].{.}.#X#X6X#X6XQ 0 4.Z D S D J O./ W W W ~ ` [ MX! -.m , C ) D F T.(.e.] X.X.7.#.=.z 9 w ",
"KXK H %.*.J.`.`.`.[.[.|.[.|.}.].[.`.J.`.`.|. X X#X X X X}.}.[.].}..X].}.}. X.X2X$X.X XQ C } ) ) 3 / S Q D S S W ~  XcX .t.W.t.> 1 _ ( A /.Q./.e.e.} w.Z.5.d O 8 ",
"zXJX-.> G.`.[.[.|.[.|.[.].[.`.`.`.J.[.`.[.|.|.|. X|.[.}.[.[.}.{.}.{.}.{.}..X X X6X X{.Q Z 6.Z 0 ^ 1./ ` 2 0 S W ~ cXtXj.`.W.[.G N , 1.( | eX~.oXS.} 3.S.@.8 X o "
};
