/* XPM */
static char *Screenshot_2025_05_20_at_18_37_28_1_png1747759106[] = {
/* columns rows colors chars-per-pixel */
"80 80 240 2 ",
"   c #687719",
".  c #6B7B1B",
"X  c #717F1D",
"o  c #6E7C24",
"O  c #717F22",
"+  c #727F29",
"@  c #6D8116",
"#  c #6E841D",
"$  c #72831E",
"%  c #768A1D",
"&  c #6E8421",
"*  c #748523",
"=  c #758925",
"-  c #798A25",
";  c #75842B",
":  c #79872C",
">  c #758A2A",
",  c #7B8B2C",
"<  c #7B9428",
"1  c #7C932D",
"2  c #758333",
"3  c #788637",
"4  c #7D8C32",
"5  c #79863C",
"6  c #7C8C3C",
"7  c #7D9232",
"8  c #7E9932",
"9  c #7F9438",
"0  c #7B8741",
"q  c #7B8B44",
"w  c #7D8D4C",
"e  c #7D9043",
"r  c #7D934C",
"t  c #7F9151",
"y  c #81952E",
"u  c #85992A",
"i  c #83992D",
"p  c #828E34",
"a  c #828E3C",
"s  c #829334",
"d  c #8A9537",
"f  c #839A34",
"g  c #899D35",
"h  c #85933B",
"j  c #89943C",
"k  c #869C3B",
"l  c #8A9C3C",
"z  c #919A3F",
"x  c #8AA12F",
"c  c #8CA236",
"v  c #87A13A",
"b  c #8DA33C",
"n  c #93A736",
"m  c #91A53C",
"M  c #94AA3C",
"N  c #99AC3C",
"B  c #9CB13D",
"V  c #828E45",
"C  c #859243",
"Z  c #8B9544",
"A  c #879946",
"S  c #8C9B43",
"D  c #84944C",
"F  c #8B964A",
"G  c #85994D",
"H  c #8D9A4C",
"J  c #909746",
"K  c #929D46",
"L  c #939C4C",
"P  c #818E51",
"I  c #839453",
"U  c #8A9753",
"Y  c #859A54",
"T  c #8C9A54",
"R  c #859759",
"E  c #869A5B",
"W  c #8B9C5C",
"Q  c #939D53",
"!  c #999E53",
"~  c #939E5B",
"^  c #9A9F5A",
"/  c #8CA543",
"(  c #8CA344",
")  c #8EA34A",
"_  c #91A543",
"`  c #95AB44",
"'  c #9AAD45",
"]  c #92A44C",
"[  c #99A64E",
"{  c #94AA4B",
"}  c #9AAD4A",
"|  c #9DB143",
" . c #9DB24C",
".. c #8EA353",
"X. c #8EA35A",
"o. c #94A353",
"O. c #99A455",
"+. c #95AA53",
"@. c #9AAD54",
"#. c #95A35B",
"$. c #9BA35C",
"%. c #96AA5A",
"&. c #9CAB5B",
"*. c #9DB253",
"=. c #9DB05D",
"-. c #A1AE4E",
";. c #A3B444",
":. c #A9B947",
">. c #A3B44B",
",. c #A9B64B",
"<. c #A6BA4E",
"1. c #ABBB4C",
"2. c #A1A858",
"3. c #A1AA5D",
"4. c #A3B452",
"5. c #A6BA51",
"6. c #ABBC52",
"7. c #A4B35C",
"8. c #AAB65B",
"9. c #B2BE54",
"0. c #8D9D60",
"q. c #929E62",
"w. c #939F67",
"e. c #95A264",
"r. c #9BA464",
"t. c #96A964",
"y. c #9DAA63",
"u. c #96A36A",
"i. c #9BA56C",
"p. c #9DAA6C",
"a. c #9FB065",
"s. c #9CA672",
"d. c #9DA973",
"f. c #9FA978",
"g. c #A1A564",
"h. c #A2AB63",
"j. c #A1A66B",
"k. c #A4AC6C",
"l. c #A9AF6C",
"z. c #A4B264",
"x. c #AAB663",
"c. c #A7BA61",
"v. c #ACB965",
"b. c #A5B26B",
"n. c #AAB56B",
"m. c #ADBA6B",
"M. c #B1BB6D",
"N. c #A1A776",
"B. c #A4AB74",
"V. c #A9AD73",
"C. c #A4AC7B",
"Z. c #A9AD7B",
"A. c #A6B174",
"S. c #ACB274",
"D. c #AEB972",
"F. c #A5B17B",
"G. c #ABB37C",
"H. c #AEB97D",
"J. c #B3BD74",
"K. c #B2B47C",
"L. c #B4B878",
"P. c #B4BD7B",
"I. c #AFC04F",
"U. c #AEC054",
"Y. c #AFC059",
"T. c #B3C255",
"R. c #B4C25B",
"E. c #B9C55D",
"W. c #BCC85F",
"Q. c #B6C562",
"!. c #BAC563",
"~. c #BDC966",
"^. c #BCC769",
"/. c #BDC96B",
"(. c #B8C475",
"). c #B6C17C",
"_. c #BAC27D",
"`. c #C0CA67",
"'. c #C1CB6D",
"]. c #C2CC74",
"[. c #C5CE7B",
"{. c #C9CF7A",
"}. c #C7D07D",
"|. c #C9D07E",
" X c #A6AE81",
".X c #AAAF82",
"XX c #ACB384",
"oX c #ACB685",
"OX c #ADB58A",
"+X c #B3B683",
"@X c #B8B781",
"#X c #B3BA85",
"$X c #B9BB86",
"%X c #B2B68B",
"&X c #B4BB8B",
"*X c #BBBD8C",
"=X c #B4B790",
"-X c #B6BB92",
";X c #BBBD93",
":X c #BCBD99",
">X c #BFBFA0",
",X c #C2BF91",
"<X c #C0BFA0",
"1X c #B6C182",
"2X c #BCC384",
"3X c #B7C18D",
"4X c #BCC38C",
"5X c #BDC393",
"6X c #BCC397",
"7X c #C1C685",
"8X c #C9CF81",
"9X c #C1C68B",
"0X c #C4C98C",
"qX c #C7D081",
"wX c #CAD284",
"eX c #CDD48B",
"rX c #C2C494",
"tX c #C4C994",
"yX c #C4C59B",
"uX c #C8C69C",
"iX c #C5C99B",
"pX c #CACA9D",
"aX c #C4C4A3",
"sX c #C8C6A7",
"dX c #C7C8A0",
"fX c #CBCBA3",
"gX c #CDCBAB",
"hX c #D0CEA5",
"jX c #D1CEAB",
"kX c #D1D0A7",
"lX c #D2D1AB",
"zX c #CDCBB3",
"xX c #D2CDB4",
"cX c #D3CEB9",
"vX c #D5D2B4",
"bX c #D6D2BB",
"nX c #D9D5B8",
"mX c #DAD5BC",
"MX c #DCD6C1",
"NX c #DDD8C2",
/* pixels */
"> = < 1 8 < 8 8 8 8 8 / 8 r M 8 ) ) +.O.3.8.n.L._.,X7X9X0X0X0X0X7X7X[.P.P.J.M.M.n.m.n.z.a.%.+.o.) ) ) ) ) ) o.o.%.X.X.X.X...) A A k S k h 9 7 > 2 & o o .     o ",
"= = > > < < 8 8 8 8 8 / / 8 8 / ( ] O.@.z.z.J.K.7X7X9X9XtXtX0X0X7X_.7X_._.L.M.v.n.n.b.z.z.&.+...) ) A ( ( ) ..o.%.%.%.+.+.) ) ( ( S k 9 9 9 7 > & & o .         ",
"> > > < 8 8 8 8 8 8 8 8 / v / / ) { @.3.x.n.J.[.7X9X9X0XtX0XtX0X0X2X[._.].J.M.M.m.c.n.c.a.y.&.+.) ) ) ( ) ) ) +.+.+.+.+.+.] ( ( b v v 8 8 1 , = & # .           ",
"< > < < 8 8 8 8 8 8 8 / / r / { { } 3.7.x.M.J.P.2X7X9X9X0X0X0X0X0X[.$X_.,X^.M.M.m.c.m.b.z.a.&.+.+.) ( ( ( ( { { +.+.@.@.} ` ` / m v v 8 1 > > = # @ @           ",
"8 8 8 8 8 8 8 8 8 8 8 { / r { { +.@.7.7.c.m.).(.2X7X0X0X0X0X0XwX0X7X7X2XP.P.J.M.(.b.c.a.a.=.%.%...) ) / / ` { `  . .*. .} } ' ` M b v v 8 < < % & # @ @   . X X ",
"8 8 8 8 < 8 8 8 ` 8 { 8 { { { { @.*.7.7.m.(.).).2X2X7X0X0X0X0X0X0X7X7X7X[.L.J.J.b.b.b.a.=.=.%.%.+.{ ) / ` {  . . . . .>. . .| | | M M n x x < % % # @ @ @ @ % $ ",
"r r / 8 8 8 8 8 8 ` / ` { { *.{ *.=.x.c.m.J.).).2X2X7X7X0X0X0X0XtX0X7X7X2X_._.J.b.Q.c.=.=.%.%.+...{ ) { { {  . .4.<.5.<.<.<.<.:.B B B B n x u u < % % % % % - % ",
"8 / / ` 8 8 / M 8 / { 8 { { { *.*.7.8.m.m.(.).(.2X2X7X9X4X0X0X0X8X0X7X9X7X2X_.J.D.Y.a.=.=.+.+.+.+.{ { / {  . . .<.5.6.U.I.I.I.I.I.I.I.B B N n x i < u < u % % - ",
"/ / / / / / v M B / / / B `  . .*.c.Y.b.).).).1X2X2X4X4X5X5XeX5X0X0XtX9X4X2X1X).(.c.a.=.=.%.+.{ +.{ { {  . . .<.6.U.U.R.R.R.E.T.T.T.T.1.:.:.B B n n x u u u u u ",
"../ ..{ { ` / / M ` / ` | `  . .5.c.Y.).).).1X1X2X2XeX2XeXeX5X6XtXtXtX0X4X1X1X).(.a.a.%.t.%.%.+.+.{  .{  . .U.U.U.T.R.E.W.~.`.~.`.W.W.W.T.I.:.:.;.B N x d u u u ",
"/ ../ +.+.{ ` / ` ` ` ` `  . .*.*.c.c.D.).).1X1X4X2X5XeX5X5XiXeXpXtXtXtX5X3X1X).D.b.a.%.%.%.+.+.{ {  . .5.5.I.U.U.R.E.W.`.`.'.'.'.'.{.'.W.W.T.I.:.:.;.N n n n u ",
"/ ..{ +.+.*.{ { { ` ` ` `  . .*.c.c.(.(.).).1X3X4X5X5X5X6XeXiX6XiXtXiXrX6X3X1X).A.a.%.y.%.+.%.+.+.*.*.5. .5.I.U.R.E.E.~.'.'.].].{.{.{.{.{.`.`.W.E.9.,.;.B N n d ",
"{ +.+.{ *.*.{ { ` ` ` `  .`  . .c.c.Q.D.(.1X3X2X4X5X5X5XeXiXiXfXiXiX6X6X5X3XoXA.b.a.t.X...+.+.{ +.*.*.*.U. .U.U.R.W.~./.'.].{.{.|.|.wX|.8X|.{.].`.W.9.1.;.B N n ",
"+.+.@.%.%.@.@.{  .{  .` {  . .*.=.c.b.).1X1X2X3X4X4X5X5X6X6XiXiXiXtX6X3X3X1XH.A.t.t.X.........{ +.*.*.*. .I.U.U.R.~./.].{.{.{.|.wX|.wXeXwX8X{.{.'.`.E.9.:.;.N N ",
"%.+.%.@.@.*.*.{ {  .`  .{  . .*.c.c.c.H.(.1X1X2X2X5X5X5X6X6X6X6X6X6X5X3X3XF.F.d.t.t.X.X.) ) ....+.*.*.5. .I.U.T.Q.~./.].}.|.|.|.wXwXeXwXwXwX8X{.'.`.E.9.,.:.;.N ",
"+.+.%.%.=.=.%.*. .{  . .{ {  .*.a.c.c.c.H.).1X1X3X4X5X5X6X6X6X6X5X3X3XoXoXF.f.p.u.t.X.X.......) ..*.*.*.U.I.U.R.Q./.].].}.|.wXwX8XeXeXeXeXeX{.].].`.W.9.,.,.;.N ",
"%.%.&.%.=.*.&.@.*.} } } } ' @.@.&.=.z.b.D.).H.1X3XoX3X3X3X3X6X3X3X3XoXoXoXf.d.d.u.t.t.X.X.........+.*.*.5.5.Y.Y.~./.].].}.qXeXeXeXeXeXeXeXeX|.].].^.!.9.1.:.:.;.",
"%.%.&.&.=.=.*.@.O.} ` ' } ] { @.&.=.a.b.A.A.F.F.).oX3X#X3X3X&X3X3XOXoXoXF.F.F.d.u.u.t.X.X.....+.{ +. .*.5.5.Y.Y.Q./.].].qXeXeXeXeXeXeXeXeXeX[.[.].^.!.9.1.,.;.;.",
"O.%.&.&.=.+.+.@.{ ` ` ` ` ] { +.%.=.a.a.b.A.F.F.oXoX#X#XOX&X-X&XOXOXoXoX XF.f.f.d.d.t.t.t.%.X.X.%.*.*.*.5.5.U.Y.Q.~.].}.qXwXwXeXeXeXeXeXeXqX[.].'.`.E.9.1.,.;.>.",
"+.+.%.+.@.@.@.{ { ` ` ` ` ] [ +.&.y.t.a.p.b.A.F.F.oXoXoXOXOXOXOX-XOXoXoXoX X X XF.f.d.p.t.t.%.X.+.r *.{ 5.5.U.Y.Q.~.].].qXqXeXeXeXeXeXeX8XqX[.].`.!.E.9.,.,.,.;.",
"..+.+.+.+.{ { { ` _ _ / _ _ ] +.t.t.t.d.p.A.d.F.F. X XXXOXOXOXOXOXOXOXOXOX XoX X XF.d.p.p.t.y.%.+.+.{  . .*.U.Y.Q.Q./.[.}.qXqXeXeXeX8XeX8X[.].].^.!.9.9.9.,.,.-.",
"o.o.] ] ) / _ / _ m b m ( ] { o.%.t.t.t.t.d.d.F.f.C. XXX XOX XOXOXOXOXOXOXoXoX XF.F.F.d.B.p.t.%.c.r { {  . .<.U.Q.Q./.].}.}.qXwXeX8X8X8X8X[.[.'.^.E.9.9.,.,.,.4.",
") ) ) ) ( ( b b m b m l _ _ ] o.%.t.t.u.d.d.d.d.f. X X X X XOXOXOXOX-X-XOX&XoXoXoXF.F.F.B.p.p.y.%.%.{ {  . . .<.Y.Q.Q.].].].qXqXqXqX8X7XqX].].`.!.E.9.,.,.,.-.-.",
"( ( ( v l v v b b c g m l _ ] o.X.X.u.t.t.t.d.F. Xf. X X X.X.XOXOXOXOX-X-X&X3XoXoXoXH.H.F.A.b.y.=.%.*.{ ` `  .<.U.Y.Q.Q./.].].}.qX[.[.[.].].'.`.v.9.9.,.-.-.-.2.",
"S k k k k k k f g f g g m _ L ..X.#.e.u.s.s.s.f.f.C. X X.XOXOXXX-XOX-X-X6X-X-X3X&X&X#X#XG.F.A.A.b.y.+.@.{ `  .| 5.5.U.Q.Q.Q./.].(.].].]./.^.^.M.v.9.,.>.-.-.@.2.",
"k 9 k k k 8 f f f y f g l S S L X.X.q.e.u.u.s.u.f.f. X X.X.XOXOXOX-X-X-X-X3X6X3X3X&X#X#XoXH.H.A.A.z.y.=.{ { `  . . .<.U.U.Q.Q.Q.^.^.^.^.!.!.9.9.9.,.,.;.-.} @.&.",
"s s 9 f 8 k 8 7 y f f d k j S A T T W q.w.r.w.s.s.f.f. XOXOXOX&X-X3X-X-X6X3X-X3X3X#X#X&X1X#XA.S.b.p.p.&.*.{ { ` { B  . .<.U.U.U.R.Q.R.R.9.T.9.9.,.,.-.' ' [ $.y.",
"8 8 8 9 9 8 7 1 1 , y f s d k j A H W W q.w.w.i.s.f.C. XXXoXOX%X-X-X3X3X-X3X3X3X3X&X3X1X#XH.H.A.b.z.z.h.&.*.} ` { M M B B | <.<.6.6.6.6.6.8.,.5.>.>.' ' [ O.#.r.",
"4 7 8 7 9 7 7 , , 1 7 7 9 f s s A A U T W q.q.r.s.s.C.Z.XXoX%X&X&X&X;X*X3X3X3X3X&X&X#X&X#XH.H.S.A.l.b.h.a.=.*.*.` ` M ` B B | | ;.;.<.>.>.>.>.;.-.} ' _ ] ] $.r.",
", 7 7 7 7 7 7 7 4 4 7 7 7 4 s s h h F F T ~ r.q.i.s.B.F.G.XX+X&X&X*X*X*X3X3X3X&X$X&X#X#X#X#XH.H.H.H.S.n.b.c.a.7. . .| M M M M M N ` ' | | ' ` ` ` m m z S ] ~ r.",
", , 1 > > , > 7 1 7 , 7 4 , 7 s h h C A T Q ~ e.i.j.B.Z.XXXX#X&X*X*X3X*X*X*X-X&X$X#X#X#X#X#X#X#X#XH.#XH.F.A.D.c.c.5. .` B M M v M n c M b n b b v l l j F S ~ r.",
"> > > > = = > > , , , > , < , , 4 p h h F L ~ ~ r.j.B.V.G.+X#X&X&X*X*X*X*X*X3X&X*X#X*X*X1X&X*X1X#X&X&X1X3X1X1X).).c.5.<.B M M M M c c c c v g f f f 9 d h Z Q q.",
"= = & * * = = > , , : : p % y p : p p p F J Q ~ r.j.V.A.Z.K.%X@X*X$X*X*X*X,X*X*X*X$X*X*X*X*X6X5X5X5X5X5X5X4X3X2X).J.v.8.,.| N M M b b c v f f 8 8 7 7 s h Z Q #.",
"& = & * $ * = > > : : : + p X + p p p p j F J ~ r.j.k.V.K.+X+X@X#X*X*X*X,X;X,X4X*X,X9X*X5XrX6XyXuXyXrXrXtX6X5X5X4X).J.c.5.>.| N M n b c c i 8 1 1 8 7 7 h Z Q $.",
"# # # # $ * = ; > , - : p X : p : p p p j j J ! $.r.k.V.Z.K.K.@X#X$X$X*X*X,X9X,X,X,X,XrXrXuXdXiXiXiXyXyXyX5XtX5X4X2X).m.8.>.| ' N M n b x f i 1 8 , 7 4 s A Q $.",
"# # $ $ . # * ; > ; * p * p : : : : p p a a J J $.g.k.V.Z.S.K.K.@X#X$X*X*X;X9X;XrXrXrXuXuXuXuXdXdXuXyXrXrXyXrXrXrX2X2XP.m.>.| ' ` m m c f i 8 < 1 1 1 7 h Z Q ~ ",
"& # # # $ * * = > > > ; : : p p p p p : a j J ! ! $.g.k.V.V.K.K.XX+X$X$X*X,X9X,XrXrXuXuXdXdXdXdXdXyXyXrXyXrXtXrX9X4X2XP.J.7.>.' N m m g g i i < 1 , , 1 d h L #.",
"% # $ $ % = * = > ; > : : : : : : : : p p a j J ! ^ g.g.j.V.V.V.K.+X@X@X*X*X,XrXuXuXhXfXfXfXdXdXyXyXyXyXyXtXrXrXrX4X3X#XJ.8.4.} -.m m m g i f < < 1 y y f j H #.",
"# # $ % * $ * = = > = - p - p : : : : p p j j J L ! 2.g.l.l.V.V.S.K.@X@X*X*XrXyXpXfXfXfXfXfXaXuXdXdXuXyXyXrXtXrXrX5X4X2XL.v.7.-.-.' ' n b f i i 8 y 1 1 f d F o.",
"* * % * * * * = = = = : - : * : p : p 4 p p j J J L ^ g.j.j.V.V.K.S.K.@X$X,X,XuXfXgXgXgXgXfXsXdXdXdXiXuXiXtXpXyXrXrXrX9XP.M.8.8.-.} } ` n g g y i < y y s f l S ",
"= * * = = * * = = > > > , : - : : p 4 4 p p d J ! J ^ g.g.j.V.V.S.K.K.K.,X,X,X<XhXhXhXhXfXfXfXdXfXdXfXiXpXiXiXiXiXiXtX5X2XJ.M.8.,.-.-.' ' z g f i y y y y f l S ",
"= = & = * = = * > > 4 > , : p , p : p , p p d J J ! ^ ^ g.l.V.V.K.K.K.@X@X,X,X<XuXsXgXgXgXfXsXdXiXfXiXdXfXiXfXiXpXpXiXtXtX2XP.M.8.8.8.2.-.M c g f y y 1 y f l S ",
"1 , > = * = * = > > 4 , , , , , p p p p p p d J ! ^ g.^ g.g.j.V.V.K.K.@X@X,X,X,XuXhXsXsXsXuXdXuXdXdXfXdXfXfXfXfXfXfXfXiXtX9X7XP.M.v.8.3.-.' m c g f f y y f k l ",
"7 , , = = * * - = , 4 4 y p p p p p p p p p j J ! ^ ^ g.g.g.j.V.V.K.K.K.@X@X,X,X,X,X<X<XdXuXaXaXdXfXdXfXfXfXfXfXhXkXfXfXpXrX,X[.L.M.M.x.2.[ [ z v d f y f f k l ",
"1 7 < > = * = = : , 1 1 , s s s s p s p p p j J Q ^ ^ ^ g.g.j.B.j.V.K.K.K.@X@X,X,X<X<X<X<X,XyXyXdXdXsXdXfXfXfXkXkXkXhXhXpXtX0X,X2XP.L.b.x.2.O._ b l l f f f k k ",
"7 , , = = * = - : , p s d d h h d s p 4 p p j S Q ^ ^ ^ ^ g.j.j.j.j.V.V.K.Z..X@X@X,X,X,X,X<XyXyXiXdXsXfXgXfXgXkXlXkXkXhXpXpXrX0X4X2XP.J.n.h.2.[ ] m l d f g l l ",
"1 , , > - - - - 1 y d l S l F j h h p s p p j F ! ^ ^ ^ g.j.j.j.V.j.V.V.Z.Z.Z.K.+X@X=X=X,X,X,XyXyXdXfXfXfXkXlXlXlXkXkXfXhXpXuXtXrXrX4X$XP.S.b.&.O.[ ( l l k k l ",
"7 1 1 , < , : y s k Z S S L ] S S Z h d d s j F ~ ^ ^ g.j.g.j.j.j.V.V.j.V.j.Z.Z.Z..X%X@X*X;X:X,XyXiXdXfXkXhXlXlXlXkXhXhXpXpXfXfXfXiXiXrX5X$X#XS.h.$.] ( l v k v ",
"f y s s 8 1 y d S S L ] L [ o.O.O.o.K Z Z Z F L Q ~ $.$.g.g.g.g.j.j.B.j.N.j.V.Z.Z.Z.XX+X%X*X;X;X6XrXuXfXhXhXjXkXkXhXhXgXfXgXgXhXgXgXfXdXiXyX5X&XG.h.O.] l k l k ",
"f s s d d d j S S ] ] O.O.O.&.y.y.r.#.L H H L Q ~ ~ q.^ q.r.r.g.j.j.j.j.j.g.j.N.Z.V.Z.+X+X%X$X*X;X5XyXdXhXhXhXfXhXfXhXkXjXkXlXlXxXjXkXdXdXuXrX;X$XXXj.O.] l k S ",
"d j j l J K L ] ] o.O.&.$.2.h.y.y.g.$.! L L Q Q ! #.^ r.#.^ q.^ g.g.g.i.j.i.i.j.B.V.V.Z.+X+X&X&X*X;XrXuXpXpXpXpXhXhXhXlXvXvXvXvXvXjXjXjXfXdXyX:X;X&XG.k.O.) S S ",
"l l S S ] ] o.o.O.O.O.$.3.3.3.h.y.h.y.O.] L L Q Q ! #.~ ^ ^ ^ ^ g.w.i.g.i.w.g.j.k.k.j.B.Z.XX#X&X*X*XrXyXpXpXpXpXhXhXlXlXvXvXnXvXnXvXcXjXgXgXaXyX;X&X#XF.i.+.] ( ",
"l z _ ] O.O.O.O.O.$.2.3.h.h.3.h.h.y.h.$.O.O.! L Q o.~ o.~ ! ~ ~ ^ q.w.g.r.r.i.g.j.j.j.j.C.G.oX#X#X&X;XrXrXuXuXpXkXlXnXnXnXnXmXnXnXnXnXxXxXgXsX<X:X-X%XXXV.r.Q S ",
"S _ ] O.&.O.O.&.&.$.3.3.h.h.3.h.g.y.y.$.O.O.L ! ! Q o.Q ! T H L ~ ^ w.q.g.w.w.g.r.i.i.i.p.V.G.+X#X$X*X9XrXrXpXpXlXlXnXnXmXmXmXmXMXnXbXnXxXxXsX<X6X;X&XXXC.p.%.L ",
"K _ [ O.O.O.&.O.$.&.3.3.3.3.3.h.h.h.h.$.O.O.! K L ] ! o.Q L F H T ~ ^ q.q.q.r.q.r.r.i.r.j.V.G.XX+X&X*X,XrXtXfXhXkXnXnXnXNXNXNXNXMXnXbXbXvXxXsXsXaX:X=X%XF.p.r.Q ",
"[ [ O.O.O.O.&.&.2.2.2.3.h.3.3.3.3.h.3.2.$.^ 2.L L L L T H H H F Q T ~ ^ q.^ q.q.q.r.r.i.i.p.G.XX+X#X*X,XrXpXhXhXkXnXnXnXNXNXNXmXMXMXMXbXcXxXzXsXaX;X=X%XZ.B.y.o.",
"-.3.2.@.$.&.&.2.3.&.2.&.3.2.3.3.3.2.2.2.^ ! ! ! ! L ! ! J J j Z F F U T Q U ^ ~ ~ q.w.q.g.i.B.V.K.+X*X,XrXpXfXjXlXnXnXNXNXNXNXNXMXMXMXMXzXzXzX<X<X,X=X.X.Xj.g.~ ",
"3.3.3.3.3.3.g.g.h.h.h.$.3.g.h.3.3.2.2.$.O.O.! ! L L J J j j a a Z C Z C J F F U Q ~ ! ! ~ $.y.B.G.+X#X4XrXuXfXjXvXnXnXNXNXNXNXNXMXMXMXzXMXcXzXsX<X<X=X%XZ.N.w.~ ",
"3.z.3.h.h.h.h.k.h.k.h.h.l.h.h.h.h.3.3.$.! L K K J J J z j p p p p a V a Z C F F F L F F F L $.r.A.S.+X$X,XuXfXhXlXvXnXNXMXMXNXNXMXMXMXMXzXzXzX<X<X:X=X%X.XN.w.^ ",
"l.h.l.l.b.l.l.h.k.V.b.l.h.h.k.l.l.h.h.&.[ K z z z z j a j p p p p p p p a a C V C F C C Z H Q #.y.V.K.@X,XrXaXhXvXvXnXnXMXmXMXMXMXMXcXcXcXzXsXsX<X:X=X.XC.N.w.~ ",
"h.z.l.l.l.n.S.S.S.b.b.k.l.b.l.l.k.h.y.$.! z d d j p p p p p p p p : : p : p V V C C C h Z F H ~ r.k.S.@X*X,XpXhXjXlXnXnXmXmXMXmXMXcXcXcXzXzXzXsX<X:X=X.XN.s.q.~ ",
"l.l.l.n.S.S.S.S.S.S.k.k.k.k.k.l.l.l.g.$.J z d d p p p : : : + * ; : + 2 + 3 : a a a a a j Z Q ~ r.y.V.K.$X9XrXuXhXjXxXnXbXbXbXmXMXzXcXcXzXzXzXsX<X:X%X.XN.w.q.U ",
"l.l.S.S.S.S.S.V.S.S.k.l.h.j.l.l.l.h.g.#.L z d p p p p : : : * * O O + + + a 5 p 6 a a a h H L o.$.y.k.K.$X,XrXrXuXhXjXxXnXnXbXbXcXMXzXzXzXzXzX<X>X:XOXN.N.q.q.T ",
"l.l.S.S.L.S.S.n.S.S.S.l.b.l.l.l.l.h.r.! J j a p p p : : * * O O * + + 3 + + 5 + a a a h j Z Q Q $.$.l.S.K.$X,XrXuXuXfXgXjXjXcXcXzXMXzXMXzXzXzX<X:X=X.XN.w.q.U U ",
"l.V.S.V.L.L.V.S.S.n.S.S.l.l.l.l.h.y.$.Q S j h h 4 , : * * * O + O ; ; 2 2 2 3 5 a V a a Z S L L ! 2.h.S.K.#X*X9XrXyXuXaXfXjXxXxXxXzXzXzXzXsXsX>X:XOX Xu.w.0.W U ",
"S.S.S.S.S.S.S.S.S.S.S.K.S.V.V.k.g.$.o.H H h h 7 , = - * * O O % * + + 3 2 2 5 + 0 a V C S F K K ! O.h.B.G.oX$X*X4XrXrXyXaXsXsXsXgXgXzXsXsXaX>X:X=X.Xs.w.w.0.W U ",
"V.S.V.S.V.L.S.S.S.S.S.S.S.A.k.k.r.$.^ H F j h 7 , = * X O % O $ + O + + 5 + 0 0 V V C C Z S K L ! O.g.k.G.K.@X&X*X;X:XrX<XyXyXyXaXaXaX<X>X>X:XOXOXC.i.w.0.W W U ",
"V.V.V.S.S.S.S.S.S.G.S.V.V.V.V.h.h.r.$.~ H h p 4 : - O * X X $ X + + 0 0 0 0 0 w V V V F H H L L [ O.r.l.A.G.+X&X*X*X;X5X;X:X:X:X:X:X:X:X:X=XOXOX Xf.u.w.w.0.W U ",
"V.l.V.V.V.V.S.V.l.V.l.B.V.k.j.g.g.r.r.~ H h p 4 p * - O % X % X + + 3 + 0 0 w w P P D F U H H o.! o.$.y.V.A.XX+X&X&X*X;X;X-X;X;X;X=X=XOX=XOX X XN.s.i.w.w.0.~ Q ",
"V.V.Z.V.S.V.V.j.B.V.j.k.j.r.g.g.r.r.~ Q H h s p - - * * + O O X + + + 0 0 w w t P P I U U F H T Q o.#.$.y.V.S.H.#X#X&X&X-X-X%X&X=X%X%XOX X X X Xs.i.u.u.w.q.q.W ",
"B.V.V.j.j.V.V.j.j.j.k.k.k.i.g.g.r.q.! Q H h h 4 p + : : + O O O + + + + 0 w P I P P I Y U G H H A H Q #.$.p.V.G.G.XXXXoX%XoXOXoXXX.XOX X XN.f.s.s.u.u.w.w.q.q.X.",
"V.V.V.V.Z.B.V.V.V.k.B.V.B.j.j.w.r.r.~ H Z h h 6 p : : : : - O O + + 0 0 V w P P I I U R Y Y Y H G A S H o.$.p.B.V.C.G.G.G.XX XF..X XN. XN.s.s.s.i.u.u.u.w.q.e.q.",
"N.V.N.V.N.Z.Z.Z.Z.Z.Z.V.Z.V.j.i.r.q.~ H A C h a a 4 4 4 2 > ; ; 2 2 3 q w w t P I I Y Y Y G Y Y G A A A H #.r.p.p.B.C.F.F.F.Z.F.C.B.N.N.N.s.s.s.s.w.i.w.w.0.w.X.",
"V.Z.V.Z.V.Z.V.N.Z.V.Z.Z.N.Z.V.N.i.q.~ H F C C C V 6 4 4 , 3 2 2 2 q q q w t I t T I T E ..Y Y Y T Y G A Y ..#.e.p.p.B.d.f.B.C.C.N.C.N.N.s.s.s.i.w.i.i.w.u.w.0.u.",
"N.V.V.N.Z.Z.Z.Z.Z.Z.Z.Z.K.Z.N.N.j.q.T T C C C V C V 6 6 6 > 3 q r q t t w t t R R Y Y Y Y R E Y Y G G A H ..W q.e.e.i.p.d.B.B.f.B.d.B.d.N.s.s.s.s.w.w.w.u.u.w.w.",
"Z.Z.Z.N.Z.Z.N.Z.Z.Z.Z.+X.X.X.XZ.N.r.~ U F D D D D V e 6 e 6 q q t t t t t t E R I R Y E Y R E t Y Y Y G H T W X.e.e.u.i.p.d.f.B.f.f.C.N.s.N.s.i.s.s.s.s.u.u.u.u.",
"V.N.N.Z.Z.Z.N.Z.Z.Z..X.X+XZ.Z.Z.N.i.~ Q F D Y I ..r r r r q q r t t t t t t t 0.E E E E E R t E ..t ..t ..r W X.q.q.u.u.i.p.d.N.d.B.B.d.N.d.s.B.s.s.u.s.u.u.d.d.",
"Z.Z.Z.Z.Z.N. XZ..X.X.X%X.X.X.XZ.j.N.q.~ U Y U U t r ..r r r r r t t t t t w.t t E E E T E E 0.E t X.t ..Y Y T W q.q.u.e.i.i.N.d.d.f.N.B.d.p.s.s.s.s.s.s.s.s.u.d.",
"Z.Z.Z.N.Z..XN..X.X%X.X.X=X.X.XZ.N.s.w.~ X.E t.t X.t t t t r r r t t t t w.t t 0.0.t E E E E W W E E X.t Y G Y Y W q.e.e.i.i.p.s.B.d.d.i.s.i.i.i.s.s.u.s.s.s.s.f.",
"Z.Z.Z..X.XZ..X.X.X.X.X%X+X.X.X.XB.N.i.w.0.0.X.t.t X.t t t t t t t u.t t u.t 0.t 0.0.0.0.E 0.0.W X.t t X.G G G G ..E e.e.e.i.i.i.p.i.i.i.i.i.i.B.s.s.f.s.d.d.s.d."
};
