/* XPM */
static char *Screenshot_2025_05_20_at_19_04_35_1_png_1_1747760845[] = {
/* columns rows colors chars-per-pixel */
"80 80 256 2 ",
"   c #100504",
".  c #291215",
"X  c #34282A",
"o  c #551312",
"O  c #6E1516",
"+  c #661F22",
"@  c #513432",
"#  c #723034",
"$  c #5F4136",
"%  c #6C453C",
"&  c #4C3E40",
"*  c #773845",
"=  c #5D4747",
"-  c #744D4A",
";  c #776974",
":  c #7A747C",
">  c #8A1D2B",
",  c #8D2E35",
"<  c #8C453E",
"1  c #90374C",
"2  c #993B48",
"3  c #A8384A",
"4  c #9A3E62",
"5  c #974648",
"6  c #9A4658",
"7  c #905350",
"8  c #A54959",
"9  c #B74958",
"0  c #AB5455",
"q  c #946659",
"w  c #955567",
"e  c #A94C66",
"r  c #B44C65",
"t  c #A95869",
"y  c #B75769",
"u  c #AB5A76",
"i  c #B85C75",
"p  c #936D70",
"a  c #AC6B6D",
"s  c #B66578",
"d  c #BC647C",
"f  c #B57777",
"g  c #C3535B",
"h  c #C65869",
"j  c #C45B76",
"k  c #C6657B",
"l  c #CB6C79",
"z  c #B88477",
"x  c #C38B75",
"c  c #7C7682",
"v  c #7D7884",
"b  c #BA5C80",
"n  c #847D8B",
"m  c #8A7888",
"M  c #957788",
"N  c #937E91",
"B  c #B96885",
"V  c #A8768D",
"C  c #B87689",
"Z  c #BB7997",
"A  c #C46B83",
"S  c #C76B87",
"D  c #D06E89",
"F  c #C7758A",
"G  c #CB728B",
"H  c #D4758B",
"J  c #D26D91",
"K  c #C47593",
"L  c #CC7592",
"P  c #C87997",
"I  c #CC7C9C",
"U  c #D37B94",
"Y  c #D87A96",
"T  c #D37D9C",
"R  c #E27791",
"E  c #D27EA2",
"W  c #85828C",
"Q  c #89848E",
"!  c #8B8593",
"~  c #8C8995",
"^  c #8C8A97",
"/  c #988696",
"(  c #918E9A",
")  c #94929E",
"_  c #9A949E",
"`  c #B98986",
"'  c #A6869A",
"]  c #B78E92",
"[  c #BAA19E",
"{  c #9695A2",
"}  c #9996A4",
"|  c #9998A7",
" . c #9B9BA6",
".. c #9D9DAA",
"X. c #9F9FB0",
"o. c #BB8AA4",
"O. c #A29DAB",
"+. c #A999A9",
"@. c #B197AC",
"#. c #B897AA",
"$. c #9EA0A7",
"%. c #9DA0AC",
"&. c #9DA2B1",
"*. c #A2A2AE",
"=. c #ABA1AE",
"-. c #A5A5B2",
";. c #AAA5B4",
":. c #A6A9B5",
">. c #AAAAB6",
",. c #A8A9B8",
"<. c #ABACBA",
"1. c #B7A8BA",
"2. c #B2B0BA",
"3. c #C4898A",
"4. c #CA849A",
"5. c #D98797",
"6. c #D4829D",
"7. c #DB839D",
"8. c #CC9490",
"9. c #C69A97",
"0. c #E5859C",
"q. c #C8A599",
"w. c #D3A896",
"e. c #CC84A3",
"r. c #CA89A7",
"t. c #D484A4",
"y. c #DA85A4",
"u. c #D989A6",
"i. c #D38CAB",
"p. c #DC8CAB",
"a. c #C598A9",
"s. c #D993AA",
"d. c #D98EB2",
"f. c #C999B4",
"g. c #DC93B4",
"h. c #D896B7",
"j. c #DD9BBC",
"k. c #E58AA5",
"l. c #E38CAC",
"z. c #E491AC",
"x. c #EA95AC",
"c. c #F290AB",
"v. c #E48DB3",
"b. c #E392B3",
"n. c #EA94B3",
"m. c #E998B7",
"M. c #E494BB",
"N. c #E39BBC",
"B. c #EB9BBC",
"V. c #F49AB7",
"C. c #F29CBC",
"Z. c #C9AAA7",
"A. c #D7A7A9",
"S. c #CDB3AA",
"D. c #D6B5AA",
"F. c #C7A5BA",
"G. c #DAA7B9",
"H. c #CEB5B3",
"J. c #D8BAB6",
"K. c #E8BBAD",
"L. c #E8A4BC",
"P. c #F6A2BD",
"I. c #E3B7B9",
"U. c #DFC3AE",
"Y. c #DAC4BA",
"T. c #E4C6BB",
"R. c #BBAFC1",
"E. c #DC9DC2",
"W. c #E49DC3",
"Q. c #EC9CC3",
"!. c #F39DC5",
"~. c #C8ABC2",
"^. c #DBA7C6",
"/. c #D3B2C9",
"(. c #E4A2C3",
"). c #ECA3C3",
"_. c #ECA4CA",
"`. c #E7A9C8",
"'. c #ECABCC",
"]. c #F3A4C4",
"[. c #F7A8C5",
"{. c #F3A5CB",
"}. c #F4ABCC",
"|. c #FAABCC",
" X c #EAB4CB",
".X c #F6B5CC",
"XX c #E8ABD2",
"oX c #EDACD2",
"OX c #F4ACD3",
"+X c #F7AAD5",
"@X c #FAADD3",
"#X c #ECB4D4",
"$X c #EAB9D6",
"%X c #EEB5DA",
"&X c #F4B3D4",
"*X c #FCB3D5",
"=X c #F3B9D4",
"-X c #FCBAD5",
";X c #F4B4DB",
":X c #FCB5DC",
">X c #F4BBDC",
",X c #FCBBDC",
"<X c #EEBCE2",
"1X c #F4BCE2",
"2X c #FDBDE3",
"3X c #FBBCE6",
"4X c #DBC6C3",
"5X c #DFD2CC",
"6X c #E4CBC5",
"7X c #E7C9C8",
"8X c #F4CACB",
"9X c #E6D4C7",
"0X c #E5D3CB",
"qX c #EBD3CC",
"wX c #E9CBD5",
"eX c #F3C3DD",
"rX c #F8C7DA",
"tX c #EBD4D2",
"yX c #E8D6D5",
"uX c #ECDAD4",
"iX c #EDDCDB",
"pX c #F5D8D7",
"aX c #F4DCDB",
"sX c #EEE2DB",
"dX c #F4E2DD",
"fX c #F9E4DD",
"gX c #EBC9E4",
"hX c #F5C3E4",
"jX c #FCC3E4",
"kX c #F4CCE4",
"lX c #FDCBE5",
"zX c #F5C4EA",
"xX c #FCC5EB",
"cX c #F5CBEC",
"vX c #FCCAED",
"bX c #F9D7E8",
"nX c #FCD3ED",
"mX c #FACAF3",
"MX c #FCCCF2",
"NX c #F6D5F4",
"BX c #FDD3F4",
"VX c #FCDBF5",
"CX c #FDD4F9",
"ZX c #FDDBFB",
"AX c #EEE5E4",
"SX c #F5E4E2",
"DX c #FAE4E3",
"FX c #F6EBE5",
"GX c #FAECE6",
"HX c #F8E9EA",
"JX c #FBEDEA",
"KX c #F7F0E8",
"LX c #FBF1ED",
"PX c #FDE8F4",
"IX c #FDF3F2",
"UX c #FEF8F3",
/* pixels */
"} | { } ..O.{ { ( ~ Q ~ O.-.-.&.&.X.&.&.&.| | { { | | X.X.X.+.+.| X.| | ) ..-.-.;.-.-.;.-.-.-.-.-.:.<.<.2.R.R.R.<.:.>.>.-.<.2.>.$._ _ ) $.:.:.*.$.:.-.&.| ) ^ ) ",
"{ } } | ..O.{ } ( ( Q ^  .-.-.-.&...| ..X.X.' ' ' @.+.;.,.X.X.+.@.X.O.' ' O.;.;.;.X.X.;.;.-.-.-.-.>.<.2.<.R.R.<.R.<.>.;.=.<.2.<.*._ _ $.*.:.:.*._ $.:.:.$.{ ) ) ",
") { } | O.-. .} { ( ! ) ..-.-.&.X.&.&...@.~.f.(.Q.f.@.;.@.X.1.1.1.1.f.#.f.f.#.#.@.;.@.@.+.;.%.;.-.:.2.2.1.R.~.~.R.R.2.;.-.>.<.2.>._ _ $.*.:.:.*. .:.:.&.$._ { ) ",
"{ } | | O.-.} } { ( ! ^ | -.&.&.X.&.| a.e.j.E.j.d.M.r.E.~.~.^.E.E.d.E.d.W.y.S E E d.E.E.F.F.1.;.-.*.2.r.i.W.'.'.XX/.$XR.>.2.>.>.2.*.*.*.>.:.:.$.$.*.:.:.&.$.( ( ",
"{ } | O.X.O.} O.) ( ~ ^ | &.-.&...%.#.E j.d.2X+X@XM.d.E.XXE.W.Q.W.!.Q.Q.W.v.J E v.v.!.!.E.W.E.~.1.1.' Y !.@XOX+XoXOX#X#X/.F.<.<.>.*.*.>.2.:.>.*.$.&.<.:.&.*. .) ",
"{ } | O.X.O...| | ( ~ ^ | &.*.-.+.o.P i.'.M.*X{.Q.d.W.E.E._._.:X!.+X+X!.Q.Q.v.v.E !.v.v.Q.W._.XX Xh.B L C.@X@X+X+XoXoXoX'./.;.:.>.*.*.>.2.:.*.-.$.-.<.:.:.:.%.%.",
"{ { | X.X.=.O... .) ^ ^ | %.X.;.o.P g.OXQ.b.d.h.h.W.E._.XXoX:XXX+X+X:X3X{.!.!.@X!.+X!.W.!.+XW.Q.XXoXM.!.B.+XjX2X>X;XhXOXXX>XXX1.<.:.*.:.2.:.-.-.$.:.<.<.:.:.:.&.",
"} { | O.X.X...| $.{ ^ ( } %.%.o.P E i.Q.I M.h.j.W.E.W.+X+X3XXX+X+X+X3X{.:X:X3X:X+X+X+X+XQ.Q.oX+XoX;X'.M.!.3X1X1X1XzX1X;XQ.=X%X^.>.2.&.:.2.<.-.*.$.-.<.<.>.:.:.&.",
"} { |  .O.*.O. . .{ ^ ) | ..@.a.e.I B.d.I Q.j.E.^._.2XoX3XxX2XxX3X3X+X+X3XoX3X3X+X+X3X3X{.+X{.{.+X;X3X3XQ.3X3X3XMXvXhX;X{.&X%X%XR.;.*.-.2.<.;.*.&.<.<.R.,.,.,.,.",
"} { { | ....|  . .{ ( ( | +.Z b.4.p.].t.M.W.^.1XXXMXjXxXxX3XxX1X<X3X<X3X3X;XxXmX3X+X3X:X+X3X3X:X3X:X<X3X3XE.3X3XxXvX3X2X:XXX>X>XXX1.=.-.2.<.-.*.&.<.<.<.,.,.,.&.",
"{ ) | } } ^ }  .{ { ^ ( O.#.Z P t.t.K r.^.f.^.1X1X1XMXMXxXmXvXxXmXmX3X3XxXxXMXxX3X3X3X3X+X3X3X:X+X3X1X3X3Xi.+X;XxXMX1X2X3XoX;X#XE./.;.:.2.<.;.*.$.&.<.<.,.<.,.,.",
"^ ^ | | ^ Q )  .| } ) ( +.o.i.i.d.T l.d.d.E.XX3X1XzXmXzXmXxXmXCXmXCX3X3XMXMXmXmX3X3X3XxX:X3X3X3X3X3X3X3XzX3XZ 3XMXMXxX3X>XXX;X;X;X X~.>.<.<.;.*.$.<.<.<.<.<.,.&.",
"~ ~ } } ~ W ( _ O.} ~ _ f.e.j.j.d.y.I r.f.>X'.XX%XMX>XzXMXxXmXmXmXCXZXZXNXZXmXMX<X3X3XxX<X3X3XmX3X3XxX3X3XmXMXE.MXmXcX1X2X'.+X,X#X^.#XR.>.2.>.$.&.:.:.<.,.,.,.,.",
"^ ~ ( ) ~ W ~ _ } } ) @.C j.j.N.v.p.t.e.r.`.oX>XhXxX>XmXvXmXCXBXmXCXCXCXZXZXCXzXxXMXxXxX3XmXmXzXxXmXxXmXzX3X3X^.xXxXMXxXjX+XOX1X'.%X$X~.2.2.>.&.$.:.:.<.,.,.<.,.",
"~ ! / ( ! W W ( } { } Z 4.L.i.s.p.K I r.XXXXXX#XlX;X1XMXcXNXmXbXmXCXmXNXCXZXCXzXMXcXmXmXmXmXzX3XCXmXmX3XxXmXmXmXzXMXBXmXxX&X2X>X;X#X1X/.2.2.:.&.%.:.:.<.<.<.:.:.",
"~ Q ~ ~ Q : n ( | ) ' g.e.g.j.M.e.I Z 4.h.d.(.W.2X#XvXvXBXCXBXmXZXCXBXNXZXZXmXCXCXCXCX1XmXmXmXCXCXCXmXmXCXmXmXmX1XMXmXxXMX;XxXhX;Xj.$XwX~.2.:.&.$.<.<.<.<.<.<.:.",
"~ Q ^ ~ W W W ~ _ ) ' r.h.s.g.m.Z L P 4.g.d.d._.OX;X>X1XBXnXvXBXZXNXmXZXZXCXmXmXNXZXmXCXmXmXmXZXZXCXCXCXCXCXBXmX<XzXMX<XMX%XvXvX:X'.$X$X/.R.>.*...<.<.2.,.,.,.:.",
"W W ~ ~ ! ( ! Q ! ' V N.I s.d.C K P t.e.g.t.i.).'.jX%XxXhXzXcXBXCXZXZXZXZXNXZXZXZXCXNXZXmXV CXZXCXmXNXCXmXBXBXBXBXmXxX<XxXxXCXMX1X`.#X$X/.R.2.....<.2.<.R.,.,.&.",
"n n ~ ~ ^ ^ W v W M o.p.P u.u.S K B K i.t.I t.}._.rXhXvXBXmXVXZXCXNXZXZXNXCXZXZXZXCXZXCXzX XZXNXgXCXCXCXcXmXBXBXmXxXhX1XxXxXMXMXjX'. X>X/.R.2.*.%.<.R.<.<.R.<.-.",
"Q W ! ^ ^ W p : / V &XT K u.t.s P i K u.I P m.i.,X;XhXnXvXgXCXNXZXZXPXZXNXZXPXZXBXNXVXnXwX=XcXVXmXCXCXNXBXmXCXBXmXmX1X<XxXMXmXxXvX#X#X>X/.R.<.O.$.<.<.<.:.<.<.-.",
"^ ! ^ ^ W : : v m  X).6.U P L y P u s y.s u.i.m.,X&XvXjXkXvXCXBXNXVXZXNXCXZXZXZXNXVXeXiXrXrX=XCXmXCXNXNXCXmXBXmXxXmX1X;XxXxXxXMXlX#X$X>X$X~.-.O. .:.<.>.<.<.,.-.",
"^ W ^ ^ ^ : : : F.lXi.6.y.y.T k G B s T B I g.).&X>XvXjXcXVXcXgXZXZXNXPXPXPXNXNXPXlXwXpXpXbX XNXmXCXNXCXmXmXmXmXzX1X%XxXvXMXzX3XvX#X%X&X%XH.-.O. .:.<.>.>.<.<.*.",
"W v W ^ ^ v : p lXh.i.I 7.A I B S e y K U S y.L.N.lXhX=XnXhXhXmXPXNXVXNXNXNXZXPXwXpXaXaXpXnXG.ZXgXmXNXCXmXBXmXMXCXmX;XxX1X3XCX<XvX1X%X>X/.~.-. .$.-.:.<.<.<.<.%.",
"W v n W ^ v p iX^.4.t.T T B A A B y i A i 7.n.P.).).).jX#X$XbXZXZXNXNXZXPXVXNXiXbXDXDXDXpXnXG.ZXmXCXmXCXcXmXcXCXCXMXhXMXzX3XmXMXzXnX$X&X#XF.:.}  .-.>.<.>.<.:...",
"v v ! ^ ! m bXwXo.e.t.I L A d S S k i y y R G c.C.p.*X&X>XnXkXgXNXZXgXNXPXbXrXH.Z.7XbXJX8XVXL.CXCXBXMXBXhXMXMXBXCXmXhXxXMXxX3XxXMXvX$XXX#X/.=.%.$.*.:.,.:.>.<...",
"v v ! v n eXeXf.o.g.t.p.U S B k S G i y l k l H G |.).eX$X>XkXbXZXgXbXVXZ.F.H.J.6X#.a.] 9.lXG.BXCXMXmXvXxXlXMXMXmXmXxXzXMXjXhXmX3XcXhX>X$X#X+.O.$.*.*.:.:.>.<.O.",
"v c v v gXgXV #.V s.p.p.P 6.d y G G A k r g 8 H V.'.2X XnXnXnXhXgXbXwX7XwXqXtXtXpXDXDXaX8X.X4.CXMXzXCXxXxXxXxXMXmXmXjXXXMXxX2X;X<XkXBX$X`.`.R...$. .%.-.-.-.>. .",
"c c n R.bX/.#./ V u.p.6.B I T d G l i k.c.0.0.U |.-X&XeXoXlX] =XpX7XbXfXuXpXqXtXpXaXHXDXDX8XG.ZXmXzXMXvXMXxXxXvXMXmX;Xo.mXzX;XOXxXhXvX1X^.XXF.-. .....*.-.-.-...",
"c c / bXkX' / / o.e.[.t.T y.6.6 S k l D i a s s 5.s s a.8X.X3.9.T.dXSXaXiXyXH.0X4X4X2.aXpX8X XBXBXxXmX1XMXxXcXzXxXMXr.%XMXmXjX+X,XxXlX>X#X;X$X@.O.*.*.*.-.-.-...",
"c c +.VXwX' / ' o.[.I u.I z.6.U d s G h g > # @   @ . . @ q.J.w.9XFXHXSXuXJ.; . X     0X8XI.8XvXvXhXCXhXxX3XxXcXmXMXg.vXMX3XxXW.2X3XhX;XXXd.G.f.+.| .. .| -.....",
"c : @.kX1.! ' M  Xp.m.t.t.b.l.A F s 5.h 0 , @ X . a.X ; X Z.J.] 6XHXPXHXpX& =.X   X #.X . I.rXvXvXhXcXzXxX1XMXmXmXmX{.MX3X<XmXoX,X2X>XXXoX(.+XW.#. . .....-...| ",
"c / F.$X' ' ' #.i.'.N.K p.l.6.u F d k.G 5 5 q q q - = [ [ Z.4XZ.iXLXIXPXDXtX[ p m - S.] qXbXJ.lXMXcXjXcXjX3XxXzXCXxX+XxXxX1XmX<XMX>X3X%X`.^.w '.(.1.&.-.-.-.X.| ",
"m / ~.#.+.+.a.f.(.Q.y.t.b.b.T F U s z.0.0 t ` ` ` 4XwX4XqX0X/.H.DXLXIXIXDXiXF.yX4XyXwXtXDXiX7XrXlXzXlXjX1XhXxXMXMX#X+XxX3X;XMXxXmX%XjX%X#Xj._.}.g.~.-.,.,.-.X...",
"c / ~.@.@.F.o.h.N.y.k.y.L.m.4.B G k 5.z.a a q.S.S.6XwX0XiXaX4XH.JXIXIXIXLXSXiXiXyXiXAXAXJXIXpXlXjXhXlX>XxXMXxXMXjXE.oXMX3X;XxXxX1X%XvX`.(.'. Xd.b.`.1.,.,.-.X.X.",
"; / #.f.#.o.o.j.).t.k.C.|.[.I x.5.G t n.H 0 [ J.4X0XyXyXiXuXH.0XPXUXPXIXIXHXHXHXAXHXJXIXIXJXaX X=X,XjX&XxXmXmXBXxXr.3XmX2X1X1XvXxXBXnXm.b.&X'.oXP E G.R.,.-.-.*.",
"; n @.^.F.o.Z (.N.C.u.b.|.).6.k.S H B z.5.t 9.A./.qXiXyXuX6XS.aXUXUXIXJXIXJXHXHXHXPXLXIXJXHXDXs.,XrXjX&XhXmXmXBXxX(.hXMX2XjX1XzXhXvXh.L l.(.h.>X!.E E.R.R.,.-...",
": c m XXF.e.d.#X[.{.L l.OXm.m.z.k k.S x.5.a 8.Z.T.wXyXiX0XY.Z.sXUXUXIXKXKXJXIXLXIXLXPXLXJXDXfX4.*X,XL.:XvXMXmXmX:X&XMXMXhXjXjXjX>XMX].p.7.).=X(.W.Z ).~.1.>.-.X.",
"c c m ^.^.Z ).i.N._.b.m.{.|.t.n.L 7.i 5.L.F f A.J.wXiXdXuX] Y.FXIXIXIXKXKXIXIXIXIXJXJXJXJXDXpX9.-X,Xm.&XxXMXmXCX;X2XcXvX>X:X;XxX2X>XE z.4 :X&X`.}.M.)./.1.<.-.*.",
": ! m f. XZ ].W.'.,Xt.E !.y.V.v.y V.l k }.u.f A.G.0XbXsXsXZ.S.sXPXIXJXAXHXLXLXPXIXPXIXJXDXbXpXx.-X-XF ,XBXzXmXCX2XMXxXxX,XoX+X2X3X,XG |.p.jX'.oXN.j.W.^.1.<.>...",
"; n N @.jXr.g.!.W.W.n.T |.C.v.v.T k.j l z.L.t ` I.wXiXFXdXY.K.pXHXFXp dXAXLXLXIXIXJXPXPXDXfXpXI..Xx.V.eXmXmXmXCX:XjXmXjX,X'.OX&XxXM.E g._.2X#X,XW.&XN.'.2.1.,.-.",
"v ! n N XXe.W.v.*X{.n.Y :Xn.l.Y L Y 0.k V.L.f f A.wXaXSXsXqXp z J.dXGX6XKXIXJXLXLXPXLXPXfXDXdX8X|.# |.xXBXMXCXmX@X;XMX2X,X}.'.`.MXN.v.}.(.&XjX>X2Xg.j.'.~.;.X.X.",
"c ( N N G.K y.E '.W.].r *Xn.c.R H y.C.S 5.L.4.s 9.6XpXsXaX4X` q.uXaXSXGXJXIXIXIXPXLXLXJXGXGXpXT.0.# rXlXBXMXMXMX@X(.hXjX,X!.&X&XvX).C.}.>X$X1X3X1Xm.OX^.~.1.1.-.",
"c N N ' V U S M.N.P @X3 |.].R i k.6.n.i 6.L.x.8 3.J.qXaX5X[ ` D.qXDXJXJXLXIXIXJXJXJXLXHXGXGXfXw.o # rXMXBXMXCXMX}.s hX,XoXM.*X>XmXOXg.jX#X`.E.vXj.@X2X^.R.R.;.X.",
"v n ) V p K E Q.3XM.jX1 P.].A > V.n.C.d p.'.}.f x Z.J.7XY.` F f  X8XwXLXHXKXHXLXLXIXIXHXKXfX9X$ o a =XBXCXMXCXMX*XL 2X1X`.n.&X2XvXW.:XjXjX'.h.hXg.}.2X^.R.1.;.X.",
"v n N M w t J g.lX'.lXb i l.S L !.[.v.u 7.L.=Xk.5 3.D.J.J.f l z 3.D.[ ] pXfXHXKXIXLXLXFXSXaXU.o o C lXvXVXMXCXMX,XY }.lX-XB.:X2XvXhX1XBXlX&Xi.%XM.Z 3X~.@.R.,.O.",
"v v N ' m w G B lXj.VXY A *XB C.{.Q.y.Y b.`.=XA.l l 8.U.S.f 0 O o o o + u 9.4XFXKXHXKXAXpXK.7 + o b.BXcXvXcXBXvX=X7.u.#X*X'.|.1X(.xXBXCXcX$XB %XB.B 3X^.1.1.R.;.",
"v ^ ^ N N 7 1 F >XE.cXn.M.*XE B.&XM.i i m.m.&X=X5.8 a 8.8.f 5.x =X X8XlXHXaXSXSXGXDXsXtXT.a q o , -XVXVXCXcXCXxX.XG Y 2X*XjX!.>X2X>XhXmXBXg.A xX(.f.<X^.f.+.1.;.",
"v v n N ' s + F kX>XBX}.g.C.@Xp.*X@Xi k T 7.L.=XL.a > 0 l q h T.bXbXDXPXiXuXFXdXfXiXqXK.a x 0 O a .XVXBXvXnXVXhX.X0.8 OX2X*Xh.:XoX+XhXNXvXe.B =X$Xh.hX$X1.;.,.;.",
"v ^ ( v m Z # u #XhXkXjX.Xu 2XN.Q.xXp.L k.7.m.).&Xu.k O , 0 5 < f 8.Z.Y.uXfXfXfXsX9Xw.w.w.x < < s.wXbXZXnXNXCXvX*X8 k.!.,XM.,X|.&X+XOXBXjXE.jX$XjXh.].eX#.R.1.;.",
"v N v v m ' * + ] cX>XlXn.1 jXQ.b.3X}.P C.Y p.B.*Xb.7.5 o # 7 # , q T.fXfXfXFXGX9Xw.U.U.U.x 7 , A.eXVXVXnXVXBXeXB.i.E i :XN.*Xm.{.,XOX&XnXvX1XG.<X>X# ).$X#.1.+.",
"v v n v m V w + u ,XjXjX!.H }.vXW.G.{.G x.7.Y y.i.b.F 8 2 - J.# ` aX5X9XuXfXuXU.U.Y.T.9XU.x 7 0  XkXVXVXVXNXnX>X'.,XS C.N.*X:X[.n.=XjXlX>XxX=XW.>XeXd.K '.^.;.O.",
"v v n c m M p 1 D E xX`.@Xk.L.vX2X>XoXg.L k.j S l.M.7.F # 6X8X+ J.tX5Xz q.z ] U.U.9XuXT.U.z 5 5.rXPXVXNXVXNXvX;X-Xt k :X_.{._.|.g.!.2XvXPXBXBXr.vXMXXXe.Z {.#.+.",
"c ( n m N M V u K 6 jXh.*XV.s mXMX2X).{.6.l.y k S y.P.9.rXaX8X# Y.aXFXI.fXqXU.Y.uXuX9X9XU.x < 3.rXbXVXVXVXVXlX;X|., l 2XjX_.@X+X*X+X:XvXcXZX#X$XlXXX`.W.r.Z f.@.",
"c N N ' ; V e i 1 6.,X_.:X[.6 &XBX,XM.:XOXC.D 2 Y E 6.tXbXpXf # 9X0XsXJ.sXFXiX0XsX9X9X9XU.z # q.bXPXnXPXVXNXlX,Xk.k k #XlX'.[.{.+X=XlXcXvXV lX#X>X$XcXh.P T I 1.",
"N N +.c m Z S A t T L.{.:X].r d.MXjXZ ,XxX2XB.d i 4.I.fXbXI.o T.4XsXKXpXsXsXsXuXT.sX9X9XD.f a rXVXVXVXbXVXnXlXrXC.j L &X#XjX[.v.*X2XvXBXVXnX>X>XeX&X>X`.W.p.u o.",
"m Z o.XXv.b D j B L Z |.:X[.1 6.xXhXv.&X).2XOX].S C 8XHXqX0 o Y.sXLXUXLXdXsXuXsXsX9X9X9XD.f a wXbXnXVXPXbXnXeX-XR c.v.rXB.OX!.E @X(.lXBXcXvXcXeX$X'._.'.XXg.Z V ",
"i.!.&X&X!.t.7.6.K K e.{.'.l.U t lXlXQ.,X).j.|.P.s.I.fXdXZ.o w.5XKXLXUXIXKXKXLXFXHX9X9X9XD.f 0 kXkXVXPXbXgXvX'..Xh 3 d b.B .Xv.c.k.M.OX`.cXcXXXnXzXoXj.(.*X:Xr.a.",
"L b.>XrX XC F y.B S L p..Xm.s.1 >XeXy.;X+XOXy.z.` dXaXaXZ.z S.5XFXLXIXLXUXUXLXsXFX0X0XY.S.f a rXbXNXZXkXVXlXr.@Xc.y k.K S -XE C.K |.-XjXjXzX>X#XhX#Xh.j.'.&X{.Z ",
"0.s.V M w V e.u.Z Y G l.}.n.}.B xXjXB jXOX&XC.H ` fXdXaXS.S.Y.sXFXLXLXIXUXUXUXsXsX5X0XyXw.z f lXlXbXVXNXBXnX(._.c.R l.{.Y ,X}.n.l.u.K }.vXvX3X_.1X:XI `.L.'.}.W.",
"8 U e.u a i.u t.L 6 A u *Xg.e.3X3XvXb ;X}._.[.5.f 9XpX5XH.Y.9XuXSXKXJXLXLXLXLXLXLXJXiXSXS.9.9.=XeXnXgXVXBXh.2X.Xc.i J &Xx.b.:Xe.{.[.*X:X&XN.B.u.).:Xe.K ].-X].M.",
"i.] r.B K B 6 6.u.z.7.i u.g.p.jX1X;Xe.Z P.B.0.S 7 D.7XY.Y.Y.5XsXFXKXJXKXLXLXKXLXIXIXiXyXY.9.s. XeXvXnXVXvXjX>X:XR S d.@XP.l.,Xi.i !.3X3X>XoXB.|.I *XN.L k 1 * k.",
"V V o.u s t e U b.I Y L T *Xy..X>Xj.rXy 8 L.5.S t w.Y.Y.Y.4X5XsXSXGXFXJXGXLXLXKXKXJXIXLXJ.Z.s. XlXnXVXnX%X1X1X@XB.6 |.:X{.l.rXP j D r S t.s.T x.x.'.d.j.m.g.y.4 ",
"F.#.s.5 t U e S b.v.Z F i [.y.].,X`.P.y 0 6 0.F y z H.Y.Y.Y.9XdXGXGXJXGXGXGXLXJXIXIXIXLXJ.q.s.).lXcXBXcXMXlXxX+X,XL.b c.|.g.oXp.3 9 O 9 h 9 2 h r C.Q.E M.3XOX'.",
"V V 6 7 7 A k j x.p.B k.k z.L j.rX-Xu.i , 2 U 7.0 % S.S.Y.4XqXfXGXGXGXKXGXJXLXFXLXLXIXHXS.3.s.*XlXlXcXxXcXxXxX,X,XY R Y -Xm.'.u.3 h > 9 > h 9 9 R C.M.B.g.d.,X(.",
"C w 6 6 y y j k r ].}.].d D l.].&XI 7.8 3 2 8 k y o z U.Y.Y.sXsXGXGXGXGXGXLXLXJXLXLXJXuXD.8.s..X1XlXxXcXvXMXxX>XM.E [.|.p.M.;Xu [.|.m.L S t , h r V.d.v.OX_.K v.",
"4.t 5 k l y 3 l Y J N.i.C.k.T Q.}.t Y i 2 5 , 0 0 O q q.Y.5XuXFXGXGXGXLXGXLXKXGXKXJXaX6XJ.9.3.,X&X1XhXXXxXmXxX:X|.m.@X{.M.v.:XA [.{.;XxXlX*XA 2 y e L E Q.j.|.@X",
"5.y a D D r , l U !.N.d.|.Y d l.u.6 0.y 8 8 , # , O # ] U.9XfXGXGXGXLXJXLXGXFXKXJXaXT.Y.J.3.3.-X>X1XjXxXBXMXxXz.k.v.!.3X{.!.,X3 C.k.@X>XcXzX%X+Xk.8 E l.Q.Q.:Xu.",
"p # i S J y S C.S b.N.+Xi.l.U C.y.i l y A ,X2X4.y , O q.9XuXfXFXGXLXGXGXGXKXKXFXaXY.Y.T.H.8.5.j.=X.XjXxXMXlX2XK D [.!.+X*X!.:Xc.R D d [.vXxXlX:X+X{.C.E W.oXoXM.",
"p - F j S j 3 Y Q.}.}.@X,XB H k.n.i k.K &XjXrXU 0 , O S.9XdXGXfXGXLXGXLXGXFXKXaX7XJ.6XT.D.3.F [.,X).,XMXCXhX,XT R R !.+X*X!.!.R k.Y i ].,X%X`.2Xd.E E p.u d.Q.M.",
"- * s j S R r k S i.lXV ).Y R n.U B G C.$X-X8 0 , > 5 H.uXfXGXGXGXGXGXKXFXFXGX7XD. X7X6XD.3.F =XrX-X,XBXvXcX,Xn.i J Q.!.@XK *XY V.@X!.m.B _.xX%Xg.m.T A G B._.*X",
"@ p s y 7.Y S y t.[.}.j.lXT r Y k.&XK z.s.1 y t , , z 9XsXfXGXGXJXLXLXJXKXJXI.A.A.I.6X7XJ.x 3.}.].g.&XvXvXjX,X].E R V.E E |.R k.!.n.{.,XjXvX^.(.:X].b.B B e.jXQ.",
"@ w w S k D K B t K .XhXjX|.y A y t.*Xl.t 9 y t 5.< S.qXdXfXLXGXJXKXLXJXJXtX9.A.G.I.8X6XD.8.5..XB.L.jXhXBXvX,X{.c.A V.|.3XE 0.5.B i.:XjX_.jX2XjXr.n.Q.y.m._.|.7.",
"= - q 6 y k 5.6.-XL.4.BXcXjXt d S 7.rXs.y y k z.5 f T.uXfXGXGXGXKXKXLXLXpX` s.A.A.A.8X6XK.w.3.P.m.}.$XlXvXhX>X|.m.V.G ].%XjX].y.V.*X|.N.Z G.lX>XL.g.u.T T n.8 6 ",
"@ = @ t 1 l n.4.N.`.rXcX^.cX[.d x.6 -X.XH 6.3.k 0 w.6XsXFXHXJXKXGXLXGXJX4.x.s.G.I.K. X6XT.w.f x.y.L.eXvXvXBXjX|.n.@X].n.k.N.'.[.T E *XjXcXBXBXvX>X{.M.M.b.l.# 3 ",
"@ % @ - - F B f 4.'.>XcXZXcX,XL.5.8 u.-XG x.y , + U.5XsXGXGXGXKXGXJXJXpXu.B.A.L.L.I.8X6XT.K.x h k  XeXrX>X;X;XB.T :X*Xb.w s 5.s.V.j , k.|.].h.G..X'.[.).Z 2X=X4.",
"@ % - % @ # 6 F x.[.`.lXkXnXvXL.d H G P.s e # 5 a Y.sXsXFXGXKXGXGXLXJXI.s.I..XG.I. X7X6X8XT.w.8 A.VX'.xXvXjXOXl.T @X(.+ * 6 0 h l h > 2 2 s [.[.L.L.z.P.P P ).&X",
"X % - % $ - , 1 k.3.6 ).&XeXmXhXU R h l 5.c.l 5 9.0XuXDXGXJXGXKXGXGXuXI.N.=X`.I.I.7X8X7XqXT.I.` nX=X,XlXnXlX:X[.V.|.C t w 1 y l g 3 g 0.R x.s w s.1 5.A 5.6.b.B.",
"= % q - % $ f ` P.i C.K s.h.xX1X-X2 9 l D 2 y q q.qXfXGXGXKXGXLXGXGXpXs. X X=XlX X7X6X8X7X6XJ.9.a.jXBXnXBX#X,XB.p.|.B.1 B i e k 9 g 3 0.B.-X-XrXw t d s l k.|.3X",
"= $ - q q % % z C [..XG.eXeXf.L.rXk.> g H l t z Y.sXfXGXGXGXLXGXGXfXI.i..X.X=X XrX7XI.pXtX0X7XlX$XNXBXCXBX1X}.|.|.{.|.!.V.P.}.).J 3 > 9 x.].a.r.i.4.F 6 d H L.rX",
"; $ q q z q % 7 s x.] $XlXvXlXlX[.0.i > , , % q.9XdXGXGXGXGXLXGXfXfX.X.XrX XlXrXrX7XpXqXqXwX7XH.VXVXBXnXvX2X:XOX{.m.[.n.!.|.>XxXmXjX, c.].}.>XvXbXlXL.P i D 4..X"
};
