/* XPM */
static char *yves_classic_1_png_1_1747764934[] = {
/* columns rows colors chars-per-pixel */
"80 80 234 2 ",
"   c #06050A",
".  c #0B0A0E",
"X  c #07060A",
"o  c #110C0E",
"O  c #0D0D12",
"+  c #070B12",
"@  c #120F13",
"#  c #160E17",
"$  c #0E1118",
"%  c #141114",
"&  c #1B1515",
"*  c #14141A",
"=  c #1B161A",
"-  c #1C191C",
";  c #1B1817",
":  c #15100F",
">  c #231B1C",
",  c #25191A",
"<  c #27211E",
"1  c #35251E",
"2  c #1C1C22",
"3  c #1A1723",
"4  c #0E1338",
"5  c #231D23",
"6  c #261D27",
"7  c #1D202E",
"8  c #232124",
"9  c #2B2323",
"0  c #24232A",
"q  c #2B242B",
"w  c #2C292D",
"e  c #342B2B",
"r  c #3A2E2C",
"t  c #362A24",
"y  c #3A312D",
"u  c #2C2B33",
"i  c #292735",
"p  c #332B33",
"a  c #352C36",
"s  c #343136",
"d  c #3C3333",
"f  c #35323B",
"g  c #3C333C",
"h  c #3D393A",
"j  c #2E313A",
"k  c #413534",
"l  c #453A35",
"z  c #4B3C3B",
"x  c #463A38",
"c  c #533C36",
"v  c #452D2D",
"b  c #4A413D",
"n  c #57453D",
"m  c #3D3A43",
"M  c #393744",
"N  c #392F50",
"B  c #443B44",
"V  c #473B47",
"C  c #4C3D4C",
"Z  c #3F434F",
"A  c #4C4244",
"S  c #44424C",
"D  c #4C464C",
"F  c #564948",
"G  c #4A4756",
"H  c #564D56",
"J  c #585258",
"K  c #58514C",
"L  c #644E49",
"P  c #63534E",
"I  c #6A5B5B",
"U  c #655758",
"Y  c #765D5C",
"T  c #624858",
"R  c #73625D",
"E  c #4D4C65",
"W  c #5B5A64",
"Q  c #5A5666",
"!  c #5B5C77",
"~  c #524D65",
"^  c #645B64",
"/  c #6C5F76",
"(  c #5A667B",
")  c #696269",
"_  c #736465",
"`  c #796968",
"'  c #62637C",
"]  c #686776",
"[  c #736C7B",
"{  c #776B75",
"}  c #7A7279",
"|  c #A33F57",
" . c #ED3F6C",
".. c #8E4963",
"X. c #86716D",
"o. c #897779",
"O. c #927878",
"+. c #816A6C",
"@. c #CB496A",
"#. c #D65779",
"$. c #5A6982",
"%. c #696B87",
"&. c #6C7389",
"*. c #797587",
"=. c #796D91",
"-. c #787996",
";. c #716F8D",
":. c #797FA3",
">. c #8B7C84",
",. c #867E96",
"<. c #967C95",
"1. c #EF6E96",
"2. c #F07AAA",
"3. c #E4618A",
"4. c #77839C",
"5. c #7C88A4",
"6. c #988585",
"7. c #87829A",
"8. c #978996",
"9. c #9B949C",
"0. c #8F8891",
"q. c #A38988",
"w. c #A38F93",
"e. c #A79497",
"r. c #B59C99",
"t. c #BBA29D",
"y. c #888AA9",
"u. c #958BA8",
"i. c #8792AA",
"p. c #868CB5",
"a. c #8C92B5",
"s. c #8B97B7",
"d. c #939ABC",
"f. c #9797BA",
"g. c #9B90B0",
"h. c #A99AA5",
"j. c #B49DA8",
"k. c #A39ABB",
"l. c #93A1BE",
"z. c #B8A5AA",
"x. c #B9A8B4",
"c. c #F48BB3",
"v. c #C4A9A9",
"b. c #C2AEB7",
"n. c #CBB3B7",
"m. c #D7B9BA",
"M. c #D1AEAF",
"N. c #E1BABC",
"B. c #D09A9F",
"V. c #DBC2BC",
"C. c #E2C3BE",
"Z. c #979BC4",
"A. c #8F98C0",
"S. c #A59DC3",
"D. c #94A3C4",
"F. c #9CA5C9",
"G. c #9FA6D2",
"H. c #A8A5C8",
"J. c #B5ABC9",
"K. c #ABADD4",
"L. c #A4A9D3",
"P. c #B5ADD2",
"I. c #ABB2D7",
"U. c #B7B6D9",
"Y. c #AAB0CD",
"T. c #BABDE1",
"R. c #C9B5C6",
"E. c #D7BBC6",
"W. c #C2BCDC",
"Q. c #C5B9D9",
"!. c #CDB5C8",
"~. c #E5B9C2",
"^. c #C5BEE3",
"/. c #BEC1E1",
"(. c #DDC3C7",
"). c #C8C4DB",
"_. c #DAC4D4",
"`. c #DBC7D8",
"'. c #D7D4DF",
"]. c #E4C5C4",
"[. c #ECCBCC",
"{. c #E7C5C8",
"}. c #F3CCCE",
"|. c #EDD0CF",
" X c #EDCCD2",
".X c #E6C8D9",
"XX c #F3CCD2",
"oX c #F4CEDB",
"OX c #F6D2D4",
"+X c #F9D3D5",
"@X c #FAD4DB",
"#X c #FBDADC",
"$X c #F5D6DA",
"%X c #F4D2CE",
"&X c #C3C5E3",
"*X c #CCCBE5",
"=X c #C9C8E5",
"-X c #D3CCE7",
";X c #D4D2E6",
":X c #D4D4EA",
">X c #DBD6EA",
",X c #D6D9EC",
"<X c #DBDBED",
"1X c #DCD5E6",
"2X c #DCDCF1",
"3X c #CED1E8",
"4X c #E2DCED",
"5X c #E2D7E7",
"6X c #FBDCE3",
"7X c #FBDDEA",
"8X c #F7D7E3",
"9X c #E3DDF2",
"0X c #F0CFE0",
"qX c #DFE1EE",
"wX c #DDE1F3",
"eX c #E4E2EE",
"rX c #EAE6EE",
"tX c #FCE1E6",
"yX c #FBE3ED",
"uX c #E5E4F1",
"iX c #E9E5F2",
"pX c #EDEBF4",
"aX c #ECEAF9",
"sX c #FBE6F0",
"dX c #F1EEF6",
"fX c #FCEAF3",
"gX c #F1EEF9",
"hX c #F2F1F6",
"jX c #F5F4FA",
"kX c #FAF6FB",
"lX c #F6FAFD",
"zX c #FCFDFE",
"xX c #FAF4F6",
"cX c None",
/* pixels */
"cXcXcXcXcXcXcXcXcXcXcXcXcXcXcXcXcXcXcXcXcXcXcXcXcXcXcXcXcXcXcXcXcXcXcXcXcXcXcXcXcXcXcXcXcXcXcXcXcXcXcXcXcXcXcXcXcXcXcXcXcXcXcXcXcXcXcXcXcXcXcXcXcXcXcXcXcXcXcXcX",
"cXcXcXcXcXcXcXcXcXcXcXcXcXcXcXcXcXcXcXcXcXcXcXcXcXcXcXcXcXcXcXcXcXcXcXcXcXcX] D j u m cXcXcXcXcXcXcXcXcXcXcXcXcXcXcXcXcXcXcXcXcXcXcXcXcXcXcXcXcXcXcXcXcXcXcXcXcX",
"cXcXcXcXcXcXcXcXcXcXcXcXcXcXcXcXcXcXcXcXcXcXcXcXcXcXcXcXcXcXcXcXcXcXW ] ^ J ^ J S 7 f j s cXcXcXcXcXcXcXcXcXcXcXcXcXcXcXcXcXcXcXcXcXcXcXcXcXcXcXcXcXcXcXcXcXcXcX",
"cXcXcXcXcXcXcXcXcXcXcXcXcXcXcXcXcXcXcXcXcXcXcXcXcXcXcXcXcXcXcXW W ] W ] J K p A j 0 j m d D U cXcXcXcXcXcXcXcXcXcXcXcXcXcXcXcXcXcXcXcXcXcXcXcXcXcXcXcXcXcXcXcXcX",
"cXcXcXcXcXcXcXcXcXcXcXcXcXcXcXcXcXcXcXcXcXcXcXcXcXcXcXcXcXcXf J Z M V D G W B a s W h 0 g z g H cXcXcXcXcXcXcXcXcXcXcXcXcXcXcXcXcXcXcXcXcXcXcXcXcXcXcXcXcXcXcXcX",
"cXcXcXcXcXcXcXcXcXcXcXcXcXcXcXcXcXcXcXcXcXcXcXcXcXcXcXcXcXh } j f ~ M J S q M K ^ ^ G 8 a a K _ } cXcXcXcXcXcXcXcXcXcXcXcXcXcXcXcXcXcXcXcXcXcXcXcXcXcXcXcXcXcXcX",
"cXcXcXcXcXcXcXcXcXcXcXcXcXcXcXcXcXcXcXcXcXcXcXcXcXcXcXcXH A Q G f G f p A I 6.w.v.e.6._ y x V T [ *.cXcXcXcXcXcXcXcXcXcXcXcXcXcXcXcXcXcXcXcXcXcXcXcXcXcXcXcXcXcX",
"cXcXcXcXcXcXcXcXcXcXcXcXcXcXcXcXcXcXcXcXcXcXcXcXcXcXcXK F b J M 0 f S J } e.z.m.E.E.[.m.e.U ^ H [ ,.cXcXcXcXcXcXcXcXcXcXcXcXcXcXcXcXcXcXcXcXcXcXcXcXcXcXcXcXcXcX",
"cXcXcXcXcXcXcXcXcXcXcXcXcXcXcXcXcXcXcXcXcXcXcXcXcXcX` f F M ) m 0 8 { } e.n.E.XXXX}.}.OX}.t.O.` *.] { cXcXcXcXcXcXcXcXcXcXcXcXcXcXcXcXcXcXcXcXcXcXcXcXcXcXcXcXcX",
"cXcXcXcXcXcXcXcXcXcXcXcXcXcXcXcXcXcXcXcXcXcXcXcXcXcXF h F h 7 0 w d [ 9.b.E.[.OXOX@X+X+XOX}.v.q.+.} >.cXcXcXcXcXcXcXcXcXcXcXcXcXcXcXcXcXcXcXcXcXcXcXcXcXcXcXcXcX",
"cXcXcXcXcXcXcXcXcXcXcXcXcXcXcXcXcXcXcXcXcXcXcXcXcXcXK e d - s u e J 8.z.m.[.XXoX@X7X7X7XyX6X+XM.v.+.o.>.cXcXcXcXcXcXcXcXcXcXcXcXcXcXcXcXcXcXcXcXcXcXcXcXcXcXcXcX",
"cXcXcXcXcXcXcXcXcXcXcXcXcXcXcXcXcXcXcXcXcXcXcXcXcXcX9 ) x Z s 0 8 _ j.E.{. X+X@X7XsXkXkXfXsXyX|.m.>.` X.8.cXcXcXcXcXcXcXcXcXcXcXcXcXcXcXcXcXcXcXcXcXcXcXcXcXcXcX",
"cXcXcXcXcXcXcXcXcXcXcXcXcXcXcXcXcXcXcXcXcXcXcXcXcXcX9 < q M 8 5 e _ z.m.[.+X@X6XyXfXkXkXxXxXyX7Xm.t.+.{ w.cXcXcXcXcXcXcXcXcXcXcXcXcXcXcXcXcXcXcXcXcXcXcXcXcXcXcX",
"cXcXcXcXcXcXcXcXcXcXcXcXcXcXcXcXcXcXcXcXcXcXcXcXcXd d A u S 3 = l _ n.E.[.$X6X6XyXfXzXzXzXfXyX7X#Xm.O.X.0.cXcXcXcXcXcXcXcXcXcXcXcXcXcXcXcXcXcXcXcXcXcXcXcXcXcXcX",
"cXcXcXcXcXcXcXcXcXcXcXcXcXcXcXcXcXcXcXcXcXcXcXcXcXy b d 2 j - > Y +.M.].[.oX#X7X7XfXxXfXzXkXfXyX7X{.t.Y o.cXcXcXcXcXcXcXcXcXcXcXcXcXcXcXcXcXcXcXcXcXcXcXcXcXcXcX",
"cXcXcXcXcXcXcXcXcXcXcXcXcXcXcXcXcXcXcXcXcXcXcXcXcX; t - - p 8 & U =.n._.R.R.!.{.6X8XyXfXyX7XE.P [ P { Y _ cXcXcXcXcXcXcXcXcXcXcXcXcXcXcXcXcXcXcXcXcXcXcXcXcXcXcX",
"cXcXcXcXcXcXcXcXcXcXcXcXcXcXcXcXcXcXcXcXcXcXcXcXcX8 y > $ e e 8 C P [ K P [ P v.[.6X7XsX7X$XXX8X6X@X[.F Y w.cXcXcXcXcXcXcXcXcXcXcXcXcXcXcXcXcXcXcXcXcXcXcXcXcXcX",
"cXcXcXcXcXcXcXcXcXcXcXcXcXcXcXcXcXcXcXcXcXcXcXcXn y < @ * u > t c w.m.{.}.XX8X7X@X@X6XfX6X6XOX@X@X+X+Xq.+.O.cXcXcXcXcXcXcXcXcXcXcXcXcXcXcXcXcXcXcXcXcXcXcXcXcXcX",
"cXcXcXcXcXcXcXcXcXcXcXcXcXcXcXcXcXcXcXcXcXcXcXcXd h d 2 . e 2 F n t.M.=.i Q E 7X6XOX#XsX6X$X~.N E C N.q.L X.cXcXcXcXcXcXcXcXcXcXcXcXcXcXcXcXcXcXcXcXcXcXcXcXcXcX",
"cXcXcXcXcXcXcXcXcXcXcXcXcXcXcXcXcXcXcXcXcXcXcXcXB r x . $ e < I U h.E i `.zX4 E +X{.+XfX#X{.E 4 kX`.C m.1 X.cXcXcXcXcXcXcXcXcXcXcXcXcXcXcXcXcXcXcXcXcXcXcXcXcXcX",
"cXcXcXcXcXcXcXcXcXcXcXcXcXcXcXcXcXcXcXcXcXcXcXA 5 l d   . 5 , Y O.m.v.<.=.`.~.0X@XN.OXyX7X$X~.{.0X=.~.oXv Y cXcXcXcXcXcXcXcXcXcXcXcXcXcXcXcXcXcXcXcXcXcXcXcXcXcX",
"cXcXcXcXcXcXcXcXcXcXcXcXcXcXcXcXcXcXcXcXcXcXcXF % w % O . = , T j.~.XXXX.XXXoX0X8X~.[.yXtXyX8X0X8X7X8X8Xv J cXcXcXcXcXcXcXcXcXcXcXcXcXcXcXcXcXcXcXcXcXcXcXcXcXcX",
"cXcXcXcXcXcXcXcXcXcXcXcXcXcXcXcXcXcXcXcXcXcX) F & d O X   8 , V x.~.oX7X7XyXsXfX@Xm.[.tXtX7XsXyXsX7XyX7XC L cXcXcXcXcXcXcXcXcXcXcXcXcXcXcXcXcXcXcXcXcXcXcXcXcXcX",
"cXcXcXcXcXcXcXcXcXcXcXcXcXcXcXcXcXcXcXcXcXcXK y - r %   O 9 = r j.~.oX7XsXxXxXfX}.m.[.tXtX7XsXsXsXsXyXyXT U cXcXcXcXcXcXcXcXcXcXcXcXcXcXcXcXcXcXcXcXcXcXcXcXcXcX",
"cXcXcXcXcXcXcXcXcXcXcXcXcXcXcXcXcXcXcXcXcXcXA & 2 9 O   X 8 5 6 x.E.XX8XsXkXsXyX~.v.}.#XtX#X7XsXfXxXyXyXT _ cXcXcXcXcXcXcXcXcXcXcXcXcXcXcXcXcXcXcXcXcXcXcXcXcXcX",
"cXcXcXcXcXcXcXcXcXcXcXcXcXcXcXcXcXcXcXcXcXcXk < b % .   ; w F , h.n.XX8XsXsX7X@XM.{.}.tXtX#X+X+X7XfXyXyXC ^ cXcXcXcXcXcXcXcXcXcXcXcXcXcXcXcXcXcXcXcXcXcXcXcXcXcX",
"cXcXcXcXcXcXcXcXcXcXcXcXcXcXcXcXcXcXcXcXcXcXr - k $ O   8 u H r O.j.XX@X6X6X6X+Xt.N.v.+X#X#XtX{.+X6X7X7XV C cXcXcXcXcXcXcXcXcXcXcXcXcXcXcXcXcXcXcXcXcXcXcXcXcXcX",
"cXcXcXcXcXcXcXcXcXcXcXcXcXcXcXcXcXcXcXcXcXcXd - k @ .     0 U I ^ r.~.OX@XXX}.[.}.].q.{.@X#X#X@Xm.+X6X@Xg F cXcXcXcXcXcXcXcXcXcXcXcXcXcXcXcXcXcXcXcXcXcXcXcXcXcX",
"cXcXcXcXcXcXcXcXcXcXcXcXcXcXcXcXcXcXcXcXcXA < 8 = #       i Q w Y e.n.[.+X[.[.{.}.}.tXXX6X#X#XXX{.{.OX(.6 J cXcXcXcXcXcXcXcXcXcXcXcXcXcXcXcXcXcXcXcXcXcXcXcXcXcX",
"cXcXcXcXcXcXcXcXcXcXcXcXcXcXcXcXcXcXcXcXcXb % h * O . +   a ! $ U w.].+X6X..v | #.3.1.c.2.1...N.}.+X+Xg g ^ cXcXcXcXcXcXcXcXcXcXcXcXcXcXcXcXcXcXcXcXcXcXcXcXcXcX",
"cXcXcXcXcXcXcXcXcXcXcXcXcXcXcXcXcXcXcXcXcXl * l * * . .   q [ + ` 6.m.%XtX#X3.4 zXzXzXzXzX4 B.7X#X#X[.= a ^ cXcXcXcXcXcXcXcXcXcXcXcXcXcXcXcXcXcXcXcXcXcXcXcXcXcX",
"cXcXcXcXcXcXcXcXcXcXcXcXcXcXcXcXcXcXcXcX] d 8 & @ O . O   i ] i @ >.v.V.+X+XC.@. .3.2.c.c.1.#X#X#X|.# 3 p _ cXcXcXcXcXcXcXcXcXcXcXcXcXcXcXcXcXcXcXcXcXcXcXcXcXcX",
"cXcXcXcXcXcXcXcXcXcXcXcXcXcXcXcXcXcXcXcXK < A 0 $ X $ 2 O g [ i . e 6.M.{.|.%XV.#.#.2.2.1.#XtX#X+XB . f x ^ cXcXcXcXcXcXcXcXcXcXcXcXcXcXcXcXcXcXcXcXcXcXcXcXcXcX",
"cXcXcXcXcXcXcXcXcXcXcXcXcXcXcXcXcXcXcXcXK < b % 0 O   0 $ D { # o t b w.v.(.|.|.[.~.C.}.+XtXtX6Xn.- 9 q H ) cXcXcXcXcXcXcXcXcXcXcXcXcXcXcXcXcXcXcXcXcXcXcXcXcXcX",
"cXcXcXcXcXcXcXcXcXcXcXcXcXcXcXcXcXcXcXcXh h > . j *   8 3 J { i % t l n w.z.(.+X+X@X7XyXsXyX#X(.6   5 q a O.cXcXcXcXcXcXcXcXcXcXcXcXcXcXcXcXcXcXcXcXcXcXcXcXcXcX",
"cXcXcXcXcXcXcXcXcXcXcXcXcXcXcXcXcXcXcXcXy K ; ; % * X 6 * H ^ 0 < t b n P 6.v.[.+X@XsXfXyXyX|.G 3 O a B A o.cXcXcXcXcXcXcXcXcXcXcXcXcXcXcXcXcXcXcXcXcXcXcXcXcXcX",
"cXcXcXcXcXcXcXcXcXcXcXcXcXcXcXcXcXcXcXW < 1 - $ O O O i $ D C q t t l n n L w.v.|.@XtX6XyXOXa N . q B F F >.cXcXcXcXcXcXcXcXcXcXcXcXcXcXcXcXcXcXcXcXcXcXcXcXcXcX",
"cXcXcXcXcXcXcXcXcXcXcXcXcXcXcXcXcXcXcXJ U < - w O $ . i j D V x k v v l n b n R x.].OX+X].U 5 $ . 5 9 q Y X.cXcXcXcXcXcXcXcXcXcXcXcXcXcXcXcXcXcXcXcXcXcXcXcXcXcX",
"cXcXcXcXcXcXcXcXcXcXcXcXcXcXcXcXcXcXcXn 1 ; o 2 $ * @ G $ k D T.~ v l c c n n R r.V.v.M.q.L # ,.O 5 B & _ o.X.cXcXcXcXcXcXcXcXcXcXcXcXcXcXcXcXcXcXcXcXcXcXcXcXcX",
"cXcXcXcXcXcXcXcXcXcXcXcXcXcXcXcXcXcXJ d , - * O $ O . q # a ^ y.).rXn n L Y O.t.C.|.t.v.6.1 6 ^.V H e V _ ` X.cXcXcXcXcXcXcXcXcXcXcXcXcXcXcXcXcXcXcXcXcXcXcXcXcX",
"cXcXcXcXcXcXcXcXcXcXcXcXcXcXcXcXcXcXK l ; ; O + 2 $ O * * D H ^.W.<XdXQ.q.r.v.C.%X|.t.t.L , J.Q.Q m u x ` } ` A cXcXcXcXcXcXcXcXcXcXcXcXcXcXcXcXcXcXcXcXcXcXcXcX",
"cXcXcXcXcXcXcXcXcXcXcXcXcXcXcXcXcXcXd < . . . + 2 + $ O i G J -X-X>X5XrXjXE.].C.|.C.t.X.t S.=.-X] f f 9 I o._ l A cXcXcXcXcXcXcXcXcXcXcXcXcXcXcXcXcXcXcXcXcXcXcX",
"cXcXcXcXcXcXcXcXcXcXcXcXcXcXcXcXcX4.y w $ - X ; i + = + * G ) U.Q.<XeXrXgXjXzXfX[.C.q.n aXfX5XQ.;.V j d P o.n l , cXcXcXcXcXcXcXcXcXcXcXcXcXcXcXcXcXcXcXcXcXcXcX",
"cXcXcXcXcXcXcXcXcXcXcXcXcXcXcXcXcX] t w O   2 * $ $ X O - G ) S.).9XuXiXgXhXzXzXzXxXxXxX4XuXfXg.y.E m 9 K ` I t r l cXcXcXcXcXcXcXcXcXcXcXcXcXcXcXcXcXcXcXcXcXcX",
"cXcXcXcXcXcXcXcXcXcXcXcXcXcXcX4.4.e u u $ + $ 8 7 2 + * * Q H 3X'.<XiXgXhXjXkXlXzXzXkXkXzXU.dXiXC N f s I R P d & k cXcXcXcXcXcXcXcXcXcXcXcXcXcXcXcXcXcXcXcXcXcX",
"cXcXcXcXcXcXcXcXcXcXcXcXcXcX5.4.W u - 3 $ 0 - * 7 j O O * % / aXgX<XpXpXgXjXkXxXkXzXzXzXkXQ.H.fX! M - A o.K F k o b l cXcXcXcXcXcXcXcXcXcXcXcXcXcXcXcXcXcXcXcXcX",
"cXcXcXcXcXcXcXcXcXcXcXcXcXG.5.&.0 N T.a.%.j 2 2 8 O $ * % O ^ uXhXjXgXgXgXhXhXhXzXzXxXzXzX5Xk.p.7.' - z R U l l * 9 K cXcXcXcXcXcXcXcXcXcXcXcXcXcXcXcXcXcXcXcXcX",
"cXcXcXcXcXcXcXcXcXcXcXcXY.i.' -XiX2X2X3X( 0 * $ 0 O O O * O { H.4XhXhXhXgXhXhXpXrXzXzXzXzXrXU.p.=.%.2 z 6.r 1 e - o e F cXcXcXcXcXcXcXcXcXcXcXcXcXcXcXcXcXcXcXcX",
"cXcXcXcXcXcXcXcXcXcXcXF.Y.eX'.dXeXrX1Xk.] w - 0 X   O X O 3 _ Q.H.P.jXaXxXjXkXzXzXzXzXzXzXgX-XS.-.,.i H I t t 1 % . % e cXcXcXcXcXcXcXcXcXcXcXcXcXcXcXcXcXcXcXcX",
"cXcXcXcXcXcXcXcXcXcXcXaXuXqXhXdXdXrX1Xy.8 s & $ O + *   $ # U Q.uXP.K.jXhXhXzXzXzXzXzXzXzXjX4XH.Z.[ M _ b , , < @ % ; b K cXcXcXcXcXcXcXcXcXcXcXcXcXcXcXcXcXcXcX",
"cXcXcXcXcXcXcXcXcXcXqXeXgXgXpXhXhXpXU.E q 8 w . + $ O X O # I W.eXiXP.).'.zXzXzXzXzXzXzXzXzX7XS.^.,.i { c & 1 <   $ % : P J.cXcXcXcXcXcXcXcXcXcXcXcXcXcXcXcXcXcX",
"cXcXcXcXcXcXcXcXcXl.qXeXiXhXgX4XlXkXf.f m w . O O $ X X X a ` 5XpXpXeX;XzXzXzXxXzXzXzXzXzXzX9XP.S.<.k F A : ; , - o - ; e K hXcXcXcXcXcXcXcXcXcXcXcXcXcXcXcXcXcX",
"cXcXcXcXcXcXcXcXcXwX<XuXpXpXdXpXpXrXi q & $ @ $ O O O X . % L 1XpXhXrXxXzXzXzXzXhXzXxXzXzXzXiXQ.H.g.V F r & & , ; $ O * . l H.rXcXcXcXcXcXcXcXcXcXcXcXcXcXcXcXcX",
"cXcXcXcXcXcXcXcXD.eX,XeXhXgXiXiX;XH.> ) w ; 0 % O O . .   3 l -XhXhXhXhXjXzXlXzXzXzXzXzXzXzX9XQ.P.g.' v q & & , ; ; o @ . > b <XpXcXcXcXcXcXcXcXcXcXcXcXcXcXcXcX",
"cXcXcXcXcXcXcXcXI.<X:XuXdXkX<XeX*XV 9 3 - ; $ $ $ $ O O X $ x =.xXjXhXkXkXjXlXlXzXhXzXzXzXzX-XQ.^.S.;.v - . & & : ; - ; $ X y u.pXlXcXcXcXcXcXcXcXcXcXcXcXcXcXcX",
"cXcXcXcXcXcXcXD.;X4X;XjX,XkXiX&XL.w } y.< $ $ - * % $ O O . v %.iXjXkXkXlXxXkXkXlXzXzXzXkXlX8XJ.-XP.%.t & . & , : % % 8 o @ 9 c iXlXzXcXcXcXcXcXcXcXcXcXcXcXcXcX",
"cXcXcXcXcXcXcXl.:XuX&XjXrX4XpXF.Y.6 J Y.* - 2 2 * * O O % % , Q rXxXjXkXkXlXhXjXxXzXzXzXzXzXkXQ.J.Q.u.6 @ . & & % - % - o $ o y y.kXjXcXcXcXcXcXcXcXcXcXcXcXcXcX",
"cXcXcXcXcXcXcXs.:XuX<XpXhX:X;XF.-.a ^ -.- - * 8 3 * $ . $ = 5 B iXjXjXkXkXzXjXjXkXlXjXzXzXlXzXQ.>XP.7.e o % ; < % % . ; % X - < K jXkXcXcXcXcXcXcXcXcXcXcXcXcXcX",
"cXcXcXcXcXcXD.l.2XpXaXeXzX;X/.F.Q ^ ^ i.- - * 8 = * % . % @ = i ^.dXdXjXlXlXzXlXlXzXkXzXzXxXzXQ.Q.P.k.B # = . ; : : - o % * % O r gXjXjXcXcXcXcXcXcXcXcXcXcXcXcX",
"cXcXcXcXcXcXl.s.2XaXhX,XkX-XL.L.G ) *.i.M 8 - u * @ O * @ . % q %.iXgXjXlXkXzXkXlXzXzXzXlXzXzX1X^.S.=.] & % & & . % . . ; % ; - t =.jXlXcXcXcXcXcXcXcXcXcXcXcXcX",
"cXcXcXcXcXcXD.i.,XdXzX:XdX*XF.A.~ } i.l.( w 2 - * % % * . : @ 0 g eXhXpXjXjXkXlXjXjXlXzXzXzXzX5XP.T.g.y.* * % - o $ % ; o ; & 2 O J pXkXlXcXcXcXcXcXcXcXcXcXcXcX",
"cXcXcXcXcXcXD.d.:XeXzXwX:X*XU./.( [ 7.f.i.u % & $ * % . . % @ % d Y.hXjXdXxXjXhXjXhXhXkXlXlXlXlXS.Q.-Xu.= * ; ; % ; ; : ; % % ; - 9 ;XkXpXcXcXcXcXcXcXcXcXcXcXcX",
"cXcXcXcXcXcXF.4.3XeXlXpX*X/.T.&X^ *.i.i.s.< ; 0 . @ * @ o - % % g Q uXkXjXlXjXjXjXhXhXhXlXlXzXzXS.k.-Xy.5 @ : ; % $ ; : ; % > % f p =.jXeXkXcXcXcXcXcXcXcXcXcXcX",
"cXcXcXcXcXcXl.$.:X2XlXjX3X/./.=X~ } 4.i.i.; - - % . O @ & # = 5 > V P.jXjXjXjXlXjXjXlXjXzXzXzXkXQ.S.iXP.q & : ; % o ; % : : > : 8 > 7.pXhXjXcXcXcXcXcXcXcXcXcXcX",
"cXcXcXcXcXcXD.5.,X:XjXjX3XU.&X=XS *.-.5.i.; - - &   % ; : D p 5 = 3 *.sXjXjXlXlXlXlXlXlXlXzXzXhXhX;XrX).q # % > : & o , & = > , - 5 B 1XhXhXcXcXcXcXcXcXcXcXcXcX",
"cXcXcXcXcXcXD.5.<X:XuXkX,X/./.3XM *.-.y.4.- < - % % : & m q S i D 5 ;.J.jXlXlXlXlXlXlXlXzXzXzXzXrX4XrXH.6 & & & # o & & % % e f % i V ).xXdXcXcXcXcXcXcXcXcXcXcX",
"cXcXcXcXcXcXs.s.<X,X,XlX,X&X&XU.a } s.%.] < & 5 = * % % ' , W E 3 N i ,.9XkXzXzXlXzXlXlXkXzXzXkXhX4XpXu.> 8 ; & : & & o % % - ~ - D m aXjXdXjXcXcXcXcXcXcXcXcXcX",
"cXcXcXcXcXcXs.d.,X,X<XhX4X=X*XU.g 4.s.-.M d % = & & - % G %.W y.-.M a y.9XkXlXzXzXzXlXzXzXzXzXzXpX1XiX-.= > > , , : , o & & > *.8 j Q J.hXlXkXcXcXcXcXcXcXcXcXcX",
"cXcXcXcXcXcXD.y.,X:XuXwXgX=X*XI.m ,.y.p.S f % u * = & @ f s.m a.-.! N ! K.>XjXkXzXlXzXzXzXzXzXzXkX4X-X{ a d C 9 , # & o > - = m * Z G P.lXlXlXcXcXcXcXcXcXcXcXcX",
"cXcXcXcXcXcXD.s.3X:XiXpXgX&X=XI.5 7.5.a.J j : W S & = & g K.y.-.s.Z.%.! ;.-XjXkXlXzXzXlXzXlXzXzXkXdX*XQ ^ J ! g , , ,   > 0 = S s N ^ f.lXlXlXcXcXcXcXcXcXcXcXcX",
"cXcXcXcXcXcXD.D.3X:XuXhXiX<X=XK.3 4.y.d.G S % p M & > , g y.&XZ.T.L.G.L.H.-XlXlXzXlXlXzXzXlXzXzXzXkXP.^ V 7.Z.D , , 6 % ; f q G s M J u.gXxXlXcXcXcXcXcXcXcXcXcX",
"cXcXcXcXcXcXD.,X3X*X<XpXjXuXU.I.i -.d.A.N G h > i = , 5 9 -.K.P.U.-X;X9XpXjXlXlXzXzXzXlXlXjXzXzXlXiXH.! / y.L.J 9 9 a 6 , G j 5.H N ~ =.jXdX).cXcXcXcXcXcXcXcXcX",
"cXcXcXcXcXcXF.,XwX,X3XuXkXhXI.I.%.;.s.G.%.H S x Q 5 , , a G Z.*X).wXuXpXhXjXlXlXlXlXlXlXlXlXzXzXjXuXW.U.W.P.U.^ V k B k 0 V i a.%.Z m 9..X`.`.cXcXcXcXcXcXcXcXcX",
"cXcXcXcXcXcXD.2X,XwXwXzXzXzX:XL.A.W p.L.p.Q V ' S C a 9 k ;.d.9X<XuXuXpXpXjXjXlXjXlXzXlXzXzXzXxXlXjXuX4XiXuX*X7.^ V C G V S a L.} { H x.`.`._.cXcXcXcXcXcXcXcXcX",
"cXcXcXcXcXcXF.,X,X,XwXzXzXzXuXI.L.&.A.I.p.S E ' H -.-.0 V -.T.:XuXqXuXuXhXjXjXlXlXdXlXkXlXzXzXzXzXlXhXkXjXpX:XY.y./ y.-.%.$.! P.e.J.{ R..X`.`.cXcXcXcXcXcXcXcXcX",
"cXcXcXcXcXcXcX2X,XqXqXlXzXlXuX*XI.F.G.T.I.G ;.-.5.5.s.5.$.I.&X=XuXpXuXuXpXlXlXjXlXlXdXhXlXlXzXzXzXzXkXjXjXjX<X*X-X=X).P.s.F.I.,X8.j.,.E.`.`.`.cXcXcXcXcXcXcXcXcX",
"cXcXcXcXcXcXcXcXcX).,XlXzXlXaX:X/.T.U./.I.$.5.;.A.G.D.L.L.=X/.&XuXuXqXpXdXjXlXjXlXlXlXdXdXlXlXzXzXzXlXlXjXhXuXuXdXdXuX-XK.U.<XpX] !.x.E..X-X`.cXcXcXcXcXcXcXcXcX",
"cXcXcXcXcXcXcXcXcX9.0.6.o.8.2X2X=X=X&X=X5.$.5.$.s.L.I./.=X=X&X/.qXwXuXuXdXjXjXjXjXlXlXjXpXdXkXzXzXlXlXjXdXhXpXhXjXgX<XeXuX,XeXeX,.R.E.^..XE.`.cXcXcXcXcXcXcXcXcX",
"cXcXcXcXcXcXcXcXcX9.0.h.z.x.x.z.k.x.3X:X$.$.s.s.G.L.I.I./.3X&X&XqXuXwXpXjXjXjXdXjXlXlXlXhXpXhXzXzXzXlXjXjXjXdXdXhXhXaXgXhX,XuX*Xb.R.!.E.-X.XE.cXcXcXcXcXcXcXcXcX",
"cXcXcXcXcXcXcXcXcX9.9.j.x.x.n.R.R.!.R.x.$.$.;.s.D.I./.I./././.=XaXqXuXpXjXhXjXpXiXlXlXlXjXhXrXzXzXzXlXlXkXhXhXjXjXjXdXhXhXuXuX*X!.x.R.!..XQ.E.cXcXcXcXcXcXcXcXcX"
};
