/* XPM */
static char *starry_1_png_19__1_png_1_png1747948256[] = {
/* columns rows colors chars-per-pixel */
"64 64 231 2 ",
"   c black",
".  c #0E1C0C",
"X  c #141D0C",
"o  c #1A1C0C",
"O  c #121C07",
"+  c #0F1C11",
"@  c #131D12",
"#  c #1B1E11",
"$  c #291D17",
"%  c #311E0F",
"&  c #15210B",
"*  c #1B240D",
"=  c #1D2B0C",
"-  c #172C09",
";  c #0B2612",
":  c #152212",
">  c #1B2413",
",  c #142C12",
"<  c #1C2B12",
"1  c #1A2D1A",
"2  c #162E19",
"3  c #0F3210",
"4  c #1D331D",
"5  c #173317",
"6  c #0F200F",
"7  c #23250D",
"8  c #2A250C",
"9  c #242C0B",
"0  c #292608",
"q  c #392A0C",
"w  c #222512",
"e  c #2B2512",
"r  c #242A13",
"t  c #2A2C14",
"y  c #2C231A",
"u  c #242A1A",
"i  c #292C1A",
"p  c #252719",
"a  c #342311",
"s  c #382519",
"d  c #243113",
"f  c #2B3217",
"g  c #23321A",
"h  c #2C331A",
"j  c #2B3A1D",
"k  c #333416",
"l  c #31351C",
"z  c #333C1C",
"x  c #3B3C1D",
"c  c #3D321B",
"v  c #3A3304",
"b  c #2B1922",
"n  c #3A1A26",
"m  c #0A2F26",
"M  c #162C27",
"N  c #09362A",
"B  c #1B3623",
"V  c #03323C",
"C  c #382320",
"Z  c #243522",
"A  c #2C3C22",
"S  c #283822",
"D  c #343B21",
"F  c #353B26",
"G  c #273B36",
"H  c #312827",
"J  c #54000C",
"K  c #551805",
"L  c #511810",
"P  c #671C0A",
"I  c #700A16",
"U  c #44220E",
"Y  c #522408",
"T  c #512E15",
"R  c #712614",
"E  c #450B21",
"W  c #531E32",
"Q  c #441C34",
"!  c #79002E",
"~  c #6F2635",
"^  c #304416",
"/  c #1A4428",
"(  c #0C4B35",
")  c #2B4122",
"_  c #334226",
"`  c #384428",
"'  c #3B572A",
"]  c #244634",
"[  c #3B4938",
"{  c #375A3D",
"}  c #3B7135",
"|  c #5A4010",
" . c #7D5403",
".. c #454B2C",
"X. c #454B33",
"o. c #464F38",
"O. c #4A5639",
"+. c #4F5634",
"@. c #52693F",
"#. c #43662A",
"$. c #6A793D",
"%. c #784D2C",
"&. c #003A55",
"*. c #043863",
"=. c #792644",
"-. c #761D4E",
";. c #17544E",
":. c #3D5849",
">. c #0A7354",
",. c #357E4F",
"<. c #306A52",
"1. c #3F6F75",
"2. c #2F6E6A",
"3. c #425342",
"4. c #4C5A43",
"5. c #4A5441",
"6. c #4E5D58",
"7. c #535C47",
"8. c #476447",
"9. c #5A764E",
"0. c #556454",
"q. c #586859",
"w. c #4F725A",
"e. c #456963",
"r. c #5A6B67",
"t. c #4E7B7C",
"y. c #537A6F",
"u. c #6B756E",
"i. c #657672",
"p. c #657149",
"a. c #9F0008",
"s. c #8B2C16",
"d. c #A23F3C",
"f. c #A41533",
"g. c #BB5C26",
"h. c #C15133",
"j. c #8B325C",
"k. c #9F3677",
"l. c #E63561",
"z. c #A64D52",
"x. c #CC706A",
"c. c #3A875B",
"v. c #0B8861",
"b. c #3C9074",
"n. c #76934C",
"m. c #4C8A78",
"M. c #529F7C",
"N. c #598971",
"B. c #65876E",
"V. c #70AB7F",
"C. c #39FD4B",
"Z. c #4CFD5F",
"A. c #5BFF6D",
"S. c #CC9C57",
"D. c #F5A572",
"F. c #007EA4",
"G. c #036E8D",
"H. c #AD3696",
"J. c #FF5680",
"K. c #EF6F82",
"L. c #F279AC",
"P. c #E43FFF",
"I. c #EA6CD1",
"U. c #DD5EF3",
"Y. c #578793",
"T. c #608392",
"R. c #56A284",
"E. c #75B994",
"W. c #60A88B",
"Q. c #71ABB7",
"!. c #77C4A2",
"~. c #1B91C5",
"^. c #6EB7FD",
"/. c #8C9E80",
"(. c #95A793",
"). c #FB979A",
"_. c #FFA69E",
"`. c #C190AC",
"'. c #DB88B7",
"]. c #F394B2",
"[. c #DCA1B3",
"{. c #F8A4BD",
"}. c #E4A5AC",
"|. c #A0C087",
" X c #FFCB9E",
".X c #EBF6AF",
"XX c #AF8CCE",
"oX c #A998F8",
"OX c #B59AF9",
"+X c #BD8AF5",
"@X c #D897C4",
"#X c #D798D7",
"$X c #CD98CE",
"%X c #F399D4",
"&X c #F290CC",
"*X c #CFB0D7",
"=X c #E7ACC8",
"-X c #F8AED5",
";X c #C299E9",
":X c #C999FC",
">X c #DF8FE6",
",X c #FC9EE9",
"<X c #E78DF3",
"1X c #FA8CFF",
"2X c #F899FA",
"3X c #F98BEC",
"4X c #D9A8FB",
"5X c #D4B1FB",
"6X c #F5A3EF",
"7X c #ECAAF4",
"8X c #F9A4F8",
"9X c #F2B7EB",
"0X c #91D3DB",
"qX c #BAFFFF",
"wX c #A2E0E9",
"eX c #C1D0C4",
"rX c #DAC5D4",
"tX c #FDCFD7",
"yX c #F0ECD3",
"uX c #D1CCF3",
"iX c #FFDEEF",
"pX c #F6D6FA",
"aX c #CBFFFA",
"sX c #CEEFF2",
"dX c #E4F4E5",
"fX c #F8EAFE",
"gX c #EFFFFA",
"hX c #FAFAFB",
"jX c #FFEDE5",
"kX c #C0F5CE",
"lX c None",
/* pixels */
"                                                                                                                                ",
"                                                                                                                                ",
"                                                                                                                                ",
"        uX                                                                                                                      ",
"        9X                                            ,X8X                                            P.                        ",
"                                                                                                              >X;X              ",
"                                                                                                              :XgX:X            ",
"                oXXX                      8X                                                                    OX              ",
"                oXXX                    >X2X*X                rX=X                                                              ",
"                                        ,X1X:X                                    ).                                            ",
"                            lX                                                  ].x.I.            7X                            ",
"                                                                                  I.              2X                            ",
"                                                Z.                                                                              ",
"                                                                                                                                ",
"                                                            & & * & X X                                                         ",
"                                                      5 , 3 - = 9 < < < > >                                                     ",
"                                lX                  _ / 5 3 - p.4.p.@.X.) ` r >                                                 ",
"                                                8.v.A _ _ ......o.X...` _ D D z 5 u 1                                           ",
"                                              N.M.Z S u 5 , z 1 = p h r 9 h l D _ _ ( g                         =X8X            ",
"          iXlXlX                            V.E.Z B B : , < * 9 = r < * * d A A x { qXqXh                       %X              ",
"          6X7X                            F.!.S Z 1 > : & * < < < r < < 9 p i l ^ kXaXgXwXB                                     ",
"                                        N.qX4 Z > o > * * * * < t r < d d r k c n.n.dXdXdX) 4                                   ",
"                        lX:X          w.m.Z B > * > * * & & * r r r 9 t d x T S. .(.n.kX<.( g 5                                 ",
"                                    w.Y.z S p o o * o & & & > * * 7 u 9 9 T | S. Xg.n.^ ( ] ] Z                                 ",
"                                  ] N.A _ g > # o o X # # o > : * 7 o 8 q q T yXD.D.T g h G _ A 2                               ",
"                                  :.A :.z h r * o * # o o # : & & e n W 8 K I R .X%.j i Z u F _ 4 :                             ",
"                                G i.3.X...f 9 * o o o * > < t > 8 I =.W H.! J J v t e p y y h A A ;                             ",
"        C.                      2.[ 6.6._ h > * O o o w h j j H K d.g.;XI.U.I 8 0 i 8 e i i u A B 3                             ",
"                              N 1.6.0.O.` t t X o o > t k z c y R s.].hXpXU.-.e 0 7 0 7 7 p i h A m ;                           ",
"                        7X    ;.T.X.0.7...f > w o o > r k q H s $ z.iXiXfXk.y y p r p r w p u h h ( M                           ",
"                      1XpX    2.sX0.q.7.F r p < > X w * y C C s U Y x.jXl.n y p # * u u > p t l l G.V         tX                ",
"                      <XfX@X  ;.0Xq.q...h l r 7 7 w $ $ K L Q ~ L Y K f.E E b # # : > : > p f k z ~.*.                          ",
"                              G T.7.o.D l h t 8 7 7 9 K K s.XXj.j.L s s b b w : # @ @ : : u p k l F.&.                          ",
"                              u r.5.` D D l w r r t 8 U R `.fXuXuX~ s u $ e > p # @ @ @ : 1 l l E.N M                           ",
"          %X                  p 6.3.4.` D l f r e t 8 a h.`.fXjXH.H.s 9 a r t * # @ @ @ : i h D ] m                             ",
"                                [ 3.4.3._ T h d e a e L K D.fX@X+XQ p e a f t r o + o # : i l l g 1                             ",
"                                F :.q.r.o.x k d r t 8 a R I a.@XE 9 y < 8 f t * . X X @ < r f h Z                               ",
"                                  ` u.q.w.^ k ) t 7 9 a U a U U $ $ o * * * & O o . . + : > f j 4                               ",
"                                8X` 7.i.' ' ' ..O.9 9 0 a a 0 0 o X O O & & O O . @ + + @ r e.A                                 ",
"                                    q.u.9.' @./.+.u.& 8 0 = 0 0 * o * O . 6 6 O + + + + > { ) g                                 ",
"                    %X                [ t.r.8.(.sXB.B.t 9 9 = = 9 > * & . 6 . X + + ; : } c.j                                   ",
"                  1X9X%X              0.r.Y.(.hXhXgX9.+.9 - - 9 = * > : : @ . : + . 2 ; ,.)               3X).                  ",
"                  9X*X                  r.Y.aXhXhXyX$.#...- = = < * * * : # : @ : 3 1 eXhX                6X5X                  ",
"                                          0XsXgXeXc.} #.) ) - d = = - < 5 X > & , , - gX                  &XOX                  ",
"                                            ` T.Y.c.c.{ / ] 4 5 / 2 3 - - < 2 ( , 3 Q.                                          ",
"                                                1.Y.e.m.e.] 2.B / <.M.( b.>.>./ t.Y.                                            ",
"                                                  G 4 0.O.9.2.m.W.!.!.E.M.r.v.u.t.                                              ",
"                                  7X                  , 1 1 1 4 4.4.4.4.q.u.                                          -X        ",
"                                  <X                                      2X  F                                       3X        ",
"            {.                                                                                                                  ",
"            l.&X                                                                                                                ",
"          %X].L.                                                                  tX-X                                          ",
"                                                              #X                                                                ",
"                                                            rX-X*X                                                              ",
"                                                            qX9X1X                                      8X&X4X                  ",
"                                                                                                          4X3X                  ",
"                    3XiX#X                    {.                              @X                                                ",
"                                            _.{.@X                          oX^.wX                                              ",
"                                            }.$X[.                          OXOX:X              9X                              ",
"                                                                              *X                                  A.            ",
"                                                                                                                                ",
"                                                                                                                                ",
"                                                                                                                                ",
"                                                                                                                                "
};
