/* XPM */
static char *starry_1_png_18_1747944268[] = {
/* columns rows colors chars-per-pixel */
"64 64 234 2 ",
"   c black",
".  c #0E1C0D",
"X  c #131D0C",
"o  c #1A1D0C",
"O  c #121C07",
"+  c #0F1C12",
"@  c #131D12",
"#  c #1B1E11",
"$  c #291C18",
"%  c #331D0E",
"&  c #15210B",
"*  c #1B240D",
"=  c #1D2B0C",
"-  c #182A08",
";  c #0B2312",
":  c #0D2E10",
">  c #162212",
",  c #1B2413",
"<  c #142C13",
"1  c #1D2B12",
"2  c #1B2D1A",
"3  c #162E19",
"4  c #1C3115",
"5  c #1D321C",
"6  c #113518",
"7  c #132C0F",
"8  c #22250D",
"9  c #242B0B",
"0  c #2A260B",
"q  c #37290C",
"w  c #222512",
"e  c #2B2512",
"r  c #232B13",
"t  c #2A2B14",
"y  c #2C231A",
"u  c #242A1A",
"i  c #2B2C1A",
"p  c #23271A",
"a  c #332512",
"s  c #392519",
"d  c #233113",
"f  c #2B3217",
"g  c #23321B",
"h  c #2C331A",
"j  c #2A3A1E",
"k  c #333315",
"l  c #32351C",
"z  c #333B1C",
"x  c #3B381C",
"c  c #3A3304",
"v  c #2B1922",
"b  c #3A1A26",
"n  c #0A2F26",
"m  c #162C27",
"M  c #09362A",
"N  c #1C3824",
"B  c #03323C",
"V  c #2B2723",
"C  c #243422",
"Z  c #263D23",
"A  c #2B3C22",
"S  c #283723",
"D  c #333B22",
"F  c #353C26",
"G  c #273A36",
"H  c #3B2728",
"J  c #551806",
"K  c #451B16",
"L  c #5B1914",
"P  c #4F0808",
"I  c #671C0A",
"U  c #700A16",
"Y  c #44220E",
"T  c #532309",
"R  c #4A2818",
"E  c #543114",
"W  c #6E2B17",
"Q  c #470C22",
"!  c #521823",
"~  c #4C1D33",
"^  c #6D0628",
"/  c #6F2635",
"(  c #2A4419",
")  c #364416",
"_  c #0B492C",
"`  c #1A4428",
"'  c #0B543A",
"]  c #0F4638",
"[  c #2A4223",
"{  c #334326",
"}  c #384429",
"|  c #3A5728",
" . c #254634",
".. c #3A4938",
"X. c #355A38",
"o. c #3D7A38",
"O. c #376031",
"+. c #4E4818",
"@. c #774B0D",
"#. c #454B2C",
"$. c #444B33",
"%. c #464F38",
"&. c #485537",
"*. c #4F5634",
"=. c #57673A",
"-. c #43662A",
";. c #6A793D",
":. c #784D2C",
">. c #003A55",
",. c #043863",
"<. c #792644",
"1. c #761D4E",
"2. c #15544A",
"3. c #3D5849",
"4. c #0A7354",
"5. c #317051",
"6. c #016F68",
"7. c #326C6C",
"8. c #4D5B44",
"9. c #465441",
"0. c #515D50",
"q. c #476447",
"w. c #5A764E",
"e. c #586757",
"r. c #4D6F53",
"t. c #66714C",
"y. c #5A6A67",
"u. c #537776",
"i. c #4B716B",
"p. c #6C776E",
"a. c #647573",
"s. c #9F0008",
"d. c #8B2C16",
"f. c #A23F3C",
"g. c #A41533",
"h. c #B5621F",
"j. c #BB5C26",
"k. c #C15133",
"l. c #883156",
"z. c #9F3677",
"x. c #E63561",
"c. c #A64D52",
"v. c #D96678",
"b. c #CC706A",
"n. c #E6616C",
"m. c #3A875B",
"M. c #0B8861",
"N. c #3C9074",
"B. c #76934C",
"V. c #4C8A77",
"C. c #578F74",
"Z. c #70AB7F",
"A. c #65876E",
"S. c #39FD4B",
"D. c #4CFD5F",
"F. c #5BFF6D",
"G. c #E1A165",
"H. c #007EA4",
"J. c #036E8D",
"K. c #B03797",
"L. c #FF5680",
"P. c #EF6F82",
"I. c #F279AC",
"U. c #E43FFF",
"Y. c #EA6CD1",
"T. c #DD5EF3",
"R. c #568994",
"E. c #608392",
"W. c #56A284",
"Q. c #6FB391",
"!. c #71ABB7",
"~. c #77C4A2",
"^. c #1B91C5",
"/. c #6EB7FD",
"(. c #8C9E80",
"). c #95A793",
"_. c #FB979A",
"`. c #FFA69E",
"'. c #D289B2",
"]. c #F394B2",
"[. c #DCA1B3",
"{. c #F8A4BD",
"}. c #E4A5AC",
"|. c #A0C087",
" X c #F0CD97",
".X c #EBF6AF",
"XX c #AF8CCE",
"oX c #B4B8DB",
"OX c #BE84F9",
"+X c #A998F8",
"@X c #B59AF9",
"#X c #BB95EE",
"$X c #D897C4",
"%X c #D798D7",
"&X c #CD98CE",
"*X c #F399D4",
"=X c #F090CE",
"-X c #CFB0D7",
";X c #E7ACC8",
":X c #FBACD6",
">X c #F3B1D3",
",X c #C299E9",
"<X c #C999FC",
"1X c #DF8FE6",
"2X c #FB8CE8",
"3X c #FA9EE7",
"4X c #E78DF3",
"5X c #FA8CFF",
"6X c #F79AF9",
"7X c #D9A8FB",
"8X c #D4B1FB",
"9X c #F5A3EF",
"0X c #ECAAF4",
"qX c #F7A2F6",
"wX c #F6B5F6",
"eX c #F0B8E7",
"rX c #BCFFFF",
"tX c #9EDDE5",
"yX c #D1C9CF",
"uX c #FDCFD7",
"iX c #CBEECA",
"pX c #F0ECD3",
"aX c #D1CCF3",
"sX c #F6D6FA",
"dX c #FAD6F0",
"fX c #CBFFFA",
"gX c #D3F2F4",
"hX c #E5F5E8",
"jX c #F6E7FC",
"kX c #EAFEFC",
"lX c #F3FEFF",
"zX c #FDF8FA",
"xX c #FFEDE5",
"cX c None",
/* pixels */
"                                                                                                                                ",
"                                                                                                                                ",
"                                                                                                                                ",
"        aX                                                                                                                      ",
"        eX                                            9XqX                                            U.                        ",
"                                                                                                              %X,X              ",
"                                                                                                              OXlXOX            ",
"                +XXX                      qX                                                                    @X              ",
"                +XXX                    1X6X-X                yX>X                                                              ",
"                                        3X5X<X                                    ].                                            ",
"                            cX                                                  I.P.I.            0X                            ",
"                                                                                  Y.              6X                            ",
"                                                D.                                                                              ",
"                                                                                                                                ",
"                                                                                                                                ",
"                                                          y i G 2.7.2.M                                                         ",
"                                cX                    F ..0.i.E.tXgXE.7.7.G                                                     ",
"                                                  } 8.e.a.u.R.!.fXkXzXR.R.a.3. .                                                ",
"                                                %.y.p.a.e.r.y.).hXzXyXm.m.i.u.V.i.                              ;XqX            ",
"          uXcXcX                            { 8.8.y.e.e.X.O.=.).lXzXyXo.o.X.i.u.V.r.                            *X              ",
"          qX8X                            F &.8.8.9.$.| ) | =.(.kXlXiX;.-.[ `  .7.V.C.                                          ",
"                                        &.0.&...} x R } k ( #.*.p.A.w.*.#.[ ( 5 ` V.Q.Q.=X9X2X                                  ",
"                        cX<X          } e.e.%.D D D l h d d t w w - 0 9 9 9 - , 2 ` 5.~.Z.                                      ",
"                                      $.t.e.$.l l l i f 1 9 t 8 0 0 0 9 = = = = , 6 ` W.Q.A.                                    ",
"                                    F e.e.8.F h h t w w t a e 0 q a r = = = 9 = = 4 7 _ N.C.5.                                  ",
"                                  r 3.0.*.#.l t t w w t 9 t t a % Y s 0 0 - * = * * 4 = ` 4.M.      dX                          ",
"                                  5 3.0.#.} f r r 8 8 r r e 0 T I U E q 0 = * , , * 1 4 4 _ 4.{                                 ",
"        D.                      < Z %...{ h r * w , * w 9 Y J j.P.n.s.s 0 & o * > > > X 7 < _ [ 5                               ",
"                                3 Z ..A i r w & o o o w $ J d.'.jXzX'.Q o O O O & + > . X < 7 6 7                               ",
"                        0X      2 Z { h r = * O o @ , w * J W oXzXxX<X! 0 o O O X ; . . > * 4 : :                               ",
"                      5XsX      m C Z u , * * o o # w t $ R W XXaXaXK.~ y = * o & . . X . ; : : - &           uX                ",
"                      4XjX$X    2 C 5 , o o X o o 8 f k q s H / l.l.! s y t r 8 & O O + + . < 4 = &                             ",
"                                > 5 5 , o 8 o , o * f z k b K K L L K s 9 % h t o O O + @ + < = 1 &                             ",
"                                , g C , * o X # o , d j k V b K T L % $ y r k t o X O + + + < 4 1 &                             ",
"          :X                    > C C 2 > # & X $ o 1 g H K W c.b.v.g.$ $ w t 8 o X X + + + # r 1 X                             ",
"                                > 2 C u > * & & o X > , w J d.[.dXxXx.b v , 1 , + X X @ + @ , r 1 X                             ",
"                                , 3 N 2 > * o & * , > o 8 U f.jXzXzXv.b v , , , @ # # @ > , 9 g ,                               ",
"                                  3 C g , & * * * * * * e ! <.&XsXwXz.$ p # @ @ @ @ @ , r r g r ,                               ",
"                                  4 S g , > * , = , = 8 0 s ~ K.Y.T.1.y p # > @ @ @ > , g h h r                                 ",
"                                  4 { { 1 1 * 1 1 r 9 r V w t L ^ ^ K e w , , 2 > > , t h l h ,                                 ",
"                    *X              A &.#.) , 1 9 r 1 r 9 0 c P U P s 0 8 r p p w p u k l D h                                   ",
"                  4XwX*X            g &.=.#.1 1 r r 1 d t 9 c E W W c y , 0 r p p , u k l D u             4X_.                  ",
"                  wX-X                N q.t.&.r , r 1 9 f R +. XxX.X:.t 0 e w w w t f l x l ,             9X8X                  ",
"                                         .q.t.$.h r * = r k E G. XG.W h p 0 y p u f h l l r               =X#X                  ",
"                                            t.=.} 9 = d f f d h.h.j.E d r t i i h h z l t                                       ",
"                                            [ &.&.} f f j f ) B.|.B.( 1 C i S S A A j g                                         ",
"                                              g [ } z z x ) +.tXkXiXO.' G A F A A g g                                           ",
"                                  0X            g A A D ( { X.fXzXhX5.'  .{ { A j 3                                   :X        ",
"                                  4X                5 C 5  .' rXkXtX6.' _ Z 5 N                                       2X        ",
"            {.                                          2 M M H.^.J.] M n ; +                                                   ",
"            n.=X                                            m >.,.>.m ;                                                         ",
"          =XI.I.                                                                  uX:X                                          ",
"                                                              %X                                                                ",
"                                                            yX>X-X                                                              ",
"                                                            rXeX5X                                      qX=X7X                  ",
"                                                                                                          7X2X                  ",
"                    2XdX%X                    {.                              $X                                                ",
"                                            `.{.$X                          +X/.oX                                              ",
"                                            }.&X[.                          @X+X<X              eX                              ",
"                                                                              -X                                  F.            ",
"                                                                                                                                ",
"                                                                                                                                ",
"                                                                                                                                ",
"                                                                                                                                "
};
