/* XPM */
static char *starry_1_png_19__1_png1747947492[] = {
/* columns rows colors chars-per-pixel */
"64 64 225 2 ",
"   c black",
".  c #0E1C0C",
"X  c #131D0C",
"o  c #1A1D0C",
"O  c #121C07",
"+  c #0F1B12",
"@  c #131D12",
"#  c #1B1E11",
"$  c #271B18",
"%  c #3E1E19",
"&  c #311B0A",
"*  c #15220B",
"=  c #1B240D",
"-  c #1D2B0C",
";  c #182C09",
":  c #0B2311",
">  c #162212",
",  c #1B2413",
"<  c #142C13",
"1  c #1C2B12",
"2  c #1B2D1B",
"3  c #172E19",
"4  c #1E321C",
"5  c #163317",
"6  c #132C0F",
"7  c #22250D",
"8  c #242B0B",
"9  c #292509",
"0  c #33290D",
"q  c #232513",
"w  c #2B2512",
"e  c #232B13",
"r  c #2A2B14",
"t  c #2C2419",
"y  c #242A1B",
"u  c #2A2D1A",
"i  c #21261B",
"p  c #332413",
"a  c #382619",
"s  c #233113",
"d  c #2B3217",
"f  c #23321A",
"g  c #2B341A",
"h  c #2A3A1E",
"j  c #333215",
"k  c #32361C",
"l  c #323B1C",
"z  c #3B3C1D",
"x  c #3B301C",
"c  c #3A3304",
"v  c #281B21",
"b  c #3A1A26",
"n  c #0A2F26",
"m  c #162C27",
"M  c #09362A",
"N  c #1B3623",
"B  c #03323C",
"V  c #292722",
"C  c #2C3C22",
"Z  c #263622",
"A  c #333C22",
"S  c #303B28",
"D  c #393D23",
"F  c #273A36",
"G  c #3B2728",
"H  c #4A0F04",
"J  c #54000C",
"K  c #561706",
"L  c #461D15",
"P  c #5B1914",
"I  c #671C0A",
"U  c #741517",
"Y  c #6D0117",
"T  c #44210E",
"R  c #502F0F",
"E  c #65251A",
"W  c #6F301A",
"Q  c #470C22",
"!  c #4E1E2D",
"~  c #6D0628",
"^  c #2F4417",
"/  c #0B4B2D",
"(  c #1A4428",
")  c #0E4738",
"_  c #294324",
"`  c #334226",
"'  c #374329",
"]  c #3B572A",
"[  c #244534",
"{  c #3A593C",
"}  c #364F32",
"|  c #3D7837",
" . c #376031",
".. c #5A4010",
"X. c #424F1F",
"o. c #7D5403",
"O. c #454B2C",
"+. c #444B33",
"@. c #4B4F34",
"#. c #485537",
"$. c #545737",
"%. c #45522A",
"&. c #5A6A39",
"*. c #6A793D",
"=. c #003A55",
"-. c #043863",
";. c #761D4E",
":. c #792644",
">. c #15544A",
",. c #3D5849",
"<. c #2E6C54",
"1. c #337350",
"2. c #016F68",
"3. c #326C6C",
"4. c #4A5741",
"5. c #4E5D58",
"6. c #476447",
"7. c #516A43",
"8. c #5A764E",
"9. c #576758",
"0. c #4C7059",
"q. c #436760",
"w. c #5B6B65",
"e. c #4E7B7C",
"r. c #52756D",
"t. c #647573",
"y. c #69726F",
"u. c #657149",
"i. c #9F0008",
"p. c #8B2C16",
"a. c #B5621F",
"s. c #C15133",
"d. c #883156",
"f. c #9F3677",
"g. c #E63561",
"h. c #D96678",
"j. c #CC706A",
"k. c #3A875B",
"l. c #0B8861",
"z. c #76934C",
"x. c #548D76",
"c. c #65876E",
"v. c #70AB7F",
"b. c #39FD4B",
"n. c #4CFD5F",
"m. c #5BFF6D",
"M. c #F5A572",
"N. c #007EA4",
"B. c #036E8D",
"V. c #B03797",
"C. c #FF5680",
"Z. c #EF6F82",
"A. c #F279AC",
"S. c #E43FFF",
"D. c #DD5EF3",
"F. c #F370C7",
"G. c #558994",
"H. c #608392",
"J. c #76B993",
"K. c #71ABB7",
"L. c #77C4A2",
"P. c #1B91C5",
"I. c #6EB7FD",
"U. c #8C9E80",
"Y. c #95A793",
"T. c #FB979A",
"R. c #FFA69E",
"E. c #D289B2",
"W. c #F394B2",
"Q. c #DCA1B3",
"!. c #F8A4BD",
"~. c #E4A5AC",
"^. c #A0C087",
"/. c #F0CD97",
"(. c #EBF6AF",
"). c #AB90C5",
"_. c #B28AD3",
"`. c #BE84F9",
"'. c #A998F8",
"]. c #B59AF9",
"[. c #BB95EE",
"{. c #B4B8DB",
"}. c #D897C4",
"|. c #D798D7",
" X c #CD98CE",
".X c #F399D4",
"XX c #F290CC",
"oX c #CFB0D7",
"OX c #E7ACC8",
"+X c #F8AED5",
"@X c #C299E9",
"#X c #C999FC",
"$X c #DF8FE6",
"%X c #FC9EE9",
"&X c #E78DF3",
"*X c #FA8CFF",
"=X c #F899FA",
"-X c #F98BEC",
";X c #D9A8FB",
":X c #D4B1FB",
">X c #F5A3EF",
",X c #ECAAF4",
"<X c #F9A4F8",
"1X c #F6B5F6",
"2X c #F0B8E7",
"3X c #BBFFFF",
"4X c #99D6EB",
"5X c #C1D0C4",
"6X c #DAC5D4",
"7X c #FDCFD7",
"8X c #CBEECA",
"9X c #F7F0D6",
"0X c #CFC4FC",
"qX c #D2D0EE",
"wX c #FFDEEF",
"eX c #F6D6FB",
"rX c #C7FFF5",
"tX c #D3F2F4",
"yX c #E4F4E5",
"uX c #F6E7FC",
"iX c #EAFEFC",
"pX c #F2FEFF",
"aX c #FDF9FB",
"sX c #FFEDE5",
"dX c None",
/* pixels */
"                                                                                                                                ",
"                                                                                                                                ",
"                                                                                                                                ",
"        qX                                                                                                                      ",
"        2X                                            >X>X                                            S.                        ",
"                                                                                                              |.@X              ",
"                                                                                                              `.pX`.            ",
"                '._.                      <X                                                                    ].              ",
"                '._.                    $X=XoX                6XOX                                                              ",
"                                        >X*X#X                                    T.                                            ",
"                            dX                                                  A.Z.F.            ,X                            ",
"                                                                                  F.              =X                            ",
"                                                n.                                                                              ",
"                                                                                                                                ",
"                                                            * * 7 * X X                                                         ",
"                                                      5 ; 6 6 - - e 1 1 , ,                                                     ",
"                                dX                  ' ( 5 6 6 ; 1 - s e 4 e e ,                                                 ",
"                                                | l._ ` ^ _ C g l j l , 8 d g g Z y ,                                           ",
"                                              x.G./ [ C A Z y u d d k j k A g g A k k r                         OX<X            ",
"          7XdXdX                            v.J.2.) F C V u y u q d y u j k g g d k z g u                       .X              ",
"          <X:X                            N.L.yX<. .5 Z w w y q i , i y u , u e 8 e e l g f                                     ",
"                                        x.3XrXpX8X^ 4 r r w q q r , , > @ # e > @ q 1 s l l f                                   ",
"                        dX#X          0.x.{ rXyX^.z...h f q 9 t i 2 > @ @ @ @ . @ + > 1 g C f 5                                 ",
"                                    r.x.k X.%.z.a.a.M.W r u 2 w , , > @ @ # . X + @ : < f C C Z                                 ",
"                                  [ x.A A z ^ x o./.(.(.c q 7 q $ > @ @ @ @ X X X + + + < Z C S 5                               ",
"                                  ,.C k l l j x R /.9XU J i w 2 2 # , , , X X X . @ + : : < A ` 4 >                             ",
"                                F t.' A d s u j ......J J i.;.w i v > q e * o O . + X + > < < _ C :                             ",
"        b.                      3.G.D ' 7 1 t s s R H K ~ D.;.f.b v , q r 0 * X O . X . > > ( [ / n                             ",
"                              n 3.#.#.e e = 8 u u 8 r P V.eX1Xh.g.Q v e e d r * * + . X . , / / >.n :                           ",
"                        ,X    >.H._ $.g e 1 1 s 8 y w ! |.eXaXwXg.v y t p 7 8 = * + : > > 3 3 <.2./ 2                           ",
"                      *XeX    3.tX8.} +., e - 1 e y a ! ;.eXwXwXh.% V p p w = X O * @ X 1 ; ( yX4XB.B         7X                ",
"                      &XuX}.  <.4X#.@.q e e e e 7 7 t U U p.~.j.R K a a a t o O O X > - - 3 / iXiXP.-.                          ",
"                              F H.7.u.2 1 8 1 q = = = 7 K E E L P K d.V.! e e . o X , = - < ( rX3XN.=.                          ",
"                              y w.7.O.l , 1 1 - 7 * X , V L b % L d.0X0X[.Q $ 9 = - 1 - 1 5 <.#.J.M m                           ",
"          .X                  t 5.#.%.< < = = = = , > f f j b L G ).0XsXaXE.a 9 - = e - 6 1 ( ` [ M                             ",
"                                } #.` e > * = * # o = f l j j a E ).{.uXaXi.L w 9 - - - , 1 N _ 2 3                             ",
"                                S ' ` 4 # X = = X # # # d d 0 t K W E.s.Z.U 0 a ; ; 8 8 ; 4 3.C f                               ",
"                                  4.C N Z > > = = o o , = d r , K K K s.U p T r 8 8 8 ^ _ [ r.C N                               ",
"                                <X' 3 4 2 > > , o o o o 7 t # q w T T 0 p & 0 9 w 8 @.O.( 0.q._                                 ",
"                                    3 3 Z , = o o o o o X # = # 7 8 9 r w w 7 8 ; 8.$.*.| { ^ 4                                 ",
"                    .X                2 Z Z > # o X > o o o X , 7 w 8 w w r 7 e c.c.8X&.&.k.(                                   ",
"                  &X1X.X              ' y Z N , o = = = O o q q 7 e w u e r r $.tXpXpX5X1._               =XT.                  ",
"                  1XoX                  S N 4 e e , 8 8 7 = e 1 q 8 q u s w ] &.U.pXaX5XaX                >X:X                  ",
"                                          #.N C g f d d e g u e u u d j s j ] &.Y.Y.pXiX                  XX[.                  ",
"                                            O.Z S C +.` D k k k k k D z z ^ %. .8.K.K.                                          ",
"                                                C 4.+.5.#.+.D +.k A D D @.9.] 0.e.G.                                            ",
"                                                  2 f 9.#.9.9.+.k ' O.4.w.w.t.y.e.                                              ",
"                                  ,X                  < 2 2 2 2 4.4.4.4.9.y.                                          +X        ",
"                                  &X                                      =X  S                                       -X        ",
"            !.                                                                                                                  ",
"            h.XX                                                                                                                ",
"          XXA.A.                                                                  7X+X                                          ",
"                                                              oX                                                                ",
"                                                            6X+XoX                                                              ",
"                                                            rX,X*X                                      <XXX;X                  ",
"                                                                                                          ;X-X                  ",
"                    -XwX|.                    OX                              }.                                                ",
"                                            R.!.}.                          '.I.{.                                              ",
"                                            ~. XQ.                          ].].#X              2X                              ",
"                                                                              oX                                  m.            ",
"                                                                                                                                ",
"                                                                                                                                ",
"                                                                                                                                ",
"                                                                                                                                "
};
