/* XPM */
static char *starry_1_png_19__1_png_1_1747947635[] = {
/* columns rows colors chars-per-pixel */
"64 64 225 2 ",
"   c black",
".  c #0F1C0B",
"X  c #131D0C",
"o  c #1A1D0C",
"O  c #131C07",
"+  c #0F1C12",
"@  c #131D12",
"#  c #1B1D11",
"$  c #2A1B19",
"%  c #351C0E",
"&  c #1C2A07",
"*  c #15220B",
"=  c #1B240D",
"-  c #1D2A0C",
";  c #142E0B",
":  c #1C310F",
">  c #0B2312",
",  c #0D2E10",
"<  c #162312",
"1  c #1B2413",
"2  c #142C12",
"3  c #1D2B12",
"4  c #172E19",
"5  c #1B2D1A",
"6  c #1C3115",
"7  c #1D321D",
"8  c #113518",
"9  c #0F200F",
"0  c #22250D",
"q  c #252C0B",
"w  c #29260C",
"e  c #36280C",
"r  c #232512",
"t  c #2B2612",
"y  c #232A13",
"u  c #2A2B14",
"i  c #2C241A",
"p  c #242A1B",
"a  c #2B2C19",
"s  c #252719",
"d  c #342413",
"f  c #392518",
"g  c #243113",
"h  c #2B3317",
"j  c #23321B",
"k  c #2C331A",
"l  c #273A1F",
"z  c #333315",
"x  c #32351C",
"c  c #333B1B",
"v  c #3C381C",
"b  c #3A3304",
"n  c #2A1A22",
"m  c #0A2F26",
"M  c #162C27",
"N  c #0B372C",
"B  c #1E3625",
"V  c #03323C",
"C  c #2B2723",
"Z  c #382320",
"A  c #243421",
"S  c #263D23",
"D  c #2C3C22",
"F  c #273924",
"G  c #333B22",
"H  c #363D26",
"J  c #273A36",
"K  c #3E2A30",
"L  c #54000C",
"P  c #561706",
"I  c #451B16",
"U  c #55160E",
"Y  c #741517",
"T  c #6C0B14",
"R  c #532309",
"E  c #503F11",
"W  c #4F2D13",
"Q  c #702C17",
"!  c #521823",
"~  c #531E32",
"^  c #43142A",
"/  c #79002E",
"(  c #6F2635",
")  c #304419",
"_  c #0B4B2D",
"`  c #1B4529",
"'  c #114036",
"]  c #0B543A",
"[  c #0D4B39",
"{  c #2A4223",
"}  c #334225",
"|  c #38452A",
" . c #3B572A",
".. c #264633",
"X. c #3B4936",
"o. c #355A38",
"O. c #3D7C38",
"+. c #376031",
"@. c #424F1F",
"#. c #454B2C",
"$. c #444B33",
"%. c #404E3C",
"&. c #4A5637",
"*. c #4A532D",
"=. c #56673B",
"-. c #6A793D",
";. c #784D2C",
":. c #003A55",
">. c #043863",
",. c #761D4E",
"<. c #105443",
"1. c #17544E",
"2. c #3D5849",
"3. c #0A7052",
"4. c #317051",
"5. c #326E6C",
"6. c #425342",
"7. c #4A5440",
"8. c #4D5A43",
"9. c #4E5D58",
"0. c #535C47",
"q. c #4B624A",
"w. c #5A6858",
"e. c #567050",
"r. c #65714B",
"t. c #5A6A67",
"y. c #4E736E",
"u. c #6C776E",
"i. c #647475",
"p. c #9F0008",
"a. c #A23F3C",
"s. c #9D2027",
"d. c #B5621F",
"f. c #BB5C26",
"g. c #C15133",
"h. c #883156",
"j. c #9F3677",
"k. c #A64D52",
"l. c #D96678",
"z. c #CC706A",
"x. c #E6616C",
"c. c #3A875B",
"v. c #0B8861",
"b. c #3C9074",
"n. c #76934C",
"m. c #4C8A77",
"M. c #55907A",
"N. c #65876E",
"B. c #39FD4B",
"V. c #4CFD5F",
"C. c #5BFF6D",
"Z. c #CC9C57",
"A. c #036E8D",
"S. c #007EA4",
"D. c #B03797",
"F. c #FF5680",
"G. c #EC6084",
"H. c #F279AC",
"J. c #E43FFF",
"K. c #E068DB",
"L. c #F370C7",
"P. c #568994",
"I. c #608392",
"U. c #73BA95",
"Y. c #77C4A2",
"T. c #1B91C5",
"R. c #6EB7FD",
"E. c #95A793",
"W. c #FB979A",
"Q. c #FFA69E",
"!. c #C190AC",
"~. c #DB86B5",
"^. c #F394B2",
"/. c #DCA1B3",
"(. c #F8A4BD",
"). c #E4A5AC",
"_. c #A0C087",
"`. c #F0CD97",
"'. c #EBF6AF",
"]. c #B28AD3",
"[. c #BE84F9",
"{. c #A998F8",
"}. c #B59AF9",
"|. c #BB95EE",
" X c #B4B8DB",
".X c #D897C4",
"XX c #D798D7",
"oX c #CD98CE",
"OX c #F399D4",
"+X c #F290CC",
"@X c #CFB0D7",
"#X c #E7ACC8",
"$X c #F8AED5",
"%X c #C199EB",
"&X c #C999FC",
"*X c #DF8FE6",
"=X c #FC9EE9",
"-X c #E78DF3",
";X c #FA8CFF",
":X c #F899FA",
">X c #F98BEC",
",X c #D9A8FB",
"<X c #D4B1FB",
"1X c #F5A3EF",
"2X c #ECAAF4",
"3X c #F9A4F8",
"4X c #F6B5F6",
"5X c #F0B8E7",
"6X c #BBFFFF",
"7X c #9EDDE5",
"8X c #DAC5D4",
"9X c #FDCFD7",
"0X c #FFE0DE",
"qX c #E8F2CD",
"wX c #D2CCF5",
"eX c #F6D6FA",
"rX c #FFDEEF",
"tX c #D7FCFD",
"yX c #E4F4E5",
"uX c #F5E6FC",
"iX c #E8FDFD",
"pX c #F2FEFF",
"aX c #FDF7FA",
"sX c #D6E7C5",
"dX c None",
/* pixels */
"                                                                                                                                ",
"                                                                                                                                ",
"                                                                                                                                ",
"        8X                                                                                                                      ",
"        5X                                            =X3X                                            J.                        ",
"                                                                                                              *X%X              ",
"                                                                                                              &XpX[.            ",
"                {.].                      3X                                                                    |.              ",
"                {.].                    *X:X@X                8X#X                                                              ",
"                                        =X;X&X                                    ^.                                            ",
"                            dX                                                  ~.G.H.            2X                            ",
"                                                                                  L.              3X                            ",
"                                                V.                                                                              ",
"                                                                                                                                ",
"                                                            O O = * @ X                                                         ",
"                                                      7 2 ; ; - q m.m.y.M.6.                                                    ",
"                                dX                  v.M.U.U.Y.4.m.5.5.y.y.y.y.P.                                                ",
"                                                ` 3.3.3.b._ ' ` _ B ..` y.o.c.P.aXI.<                                           ",
"                                              8 2 4 _ 5 ; ; 2 8 6 y l S ` O.O.c.aXpX7Xr                         #X:X            ",
"          0XdXdX                          ; ; 2 4 < 1 6 6 : & 3 3 - & ) #.-.=.qXaXpXtXP.t.                      OX              ",
"          3X,X                            : , , < < O * < = = 0 3 - - q q &.sXpXaXaXE.P.9.9.                                    ",
"                                        6 : 3 > + X + X < < 0 3 - - - & q w N.pXtXE.e.e.y.u.j                                   ",
"                        dX&X          3 6 < > + + X + + + * * = - - & q w w & u.*.=.=.+.w.w.w.5                                 ",
"                                    3 y < + + + . O > * + O O o = w w & u w q q &. . . . .i.i.A                                 ",
"                                  ..y 1 < @ + @ . . O X * O O O 0 f d f R w 0 0 u ) x )  .t.w.G 8                               ",
"                                  2.h y @ X @ . o O O = * = o y 0 I p.Y % % w d y u g v $.&.t.%.7 <                             ",
"                                J i.h y < @ @ @ o = * u y t 5 1 ! .Xx.x.Q P u w d - x x H %.&.7.&.>                             ",
"        B.                      5.h h j r + # + X O u z d t d ~ %X%XuXuXf.e e u t y u a G #.$.7._ m                             ",
"                              N 5.G x j 1 # # # X 1 y u u y d W D.wXaX!.!.R w u y t y x x G X.0.<.N >                           ",
"                        2X    <.Z G x s < < @ @ < 3 y r $ s f I ,.wXwX XY P q q y r r u x z &.w.0.' 4                           ",
"                      ;XeX    5.x x z z < < @ @ @ 1 < n n n I U ! h.( Q P P $ = 1 0 r u k H $.w.w.A.V         9X                ",
"                      -XuX#X  1.x x z s p 1 1 @ < # n n ^ s.l.P R ! K Z U r r * # 1 3 u x H 8.w.iXT.>.                          ",
"                              J k c k h r r s 1 # # s $ G.0X0Xz.R i I f d u u < O o r y h #.&.w.$.S.:.                          ",
"                              a x c u a s s s r = t r j.j.uXrX/.k.Z i z c z y r o o * u h X.$.w.] N M                           ",
"          OX                  r l c k s 1 r r w 0 t t ,.4XeXuXuXs.I C z c h 0 o o o 1 q h } q.2.J N                             ",
"                                X.l D a s s t p t w ^ T K.K.oXa.Y 3 C j j # # o o * = = h $.%.6.6 4                             ",
"                                H F D l s u t 0 a b L L / D.~ ! Y 0 1 < 3 $ o * o * = r k G X.S A                               ",
"                                  l D k a i i A ;.'.Y T P q ~ f i = * * * # # o o # o y 1 ..{ D B                               ",
"                                3X| } H H A e E Q '.qX@.E e r p = = = 1 # o X o o = # 1 F F S S                                 ",
"                                    7 } .._ z @.f.`.Z.`.W u q C y - y = = * * 1 1 < 1 B A B ) j                                 ",
"                    OX                _ [ ] o.n._.d.Z.W W s a y y y r 3 = = * = < 3 A A j &.l                                   ",
"                  -X4XOX              | <.4.yXyX_.n.E z z j q 3 y q 3 = = * * 1 p 5 A p e.{               -XW.                  ",
"                  4X@X                  <.7XyXiX7X@.) z a y - 3 y q 3 3 = < 1 7 5 A 5 q.                  1X<X                  ",
"                                          A.tX6Xo.@.v D g g = y 1 3 3 3 3 5 < 7 l 2 e...                  +X|.                  ",
"                                            S.6X] } v c h h q h k y 5 *.*.*.} } &.$.B                                           ",
"                                              N ..6 ) D c | H | $.r.r.r.=.j D } D j                                             ",
"                                                  3 B D S S F B B A p 5 2 5 6 6                                                 ",
"                                  2X                  2 5 7 M 5 < < < < <                                             $X        ",
"                                  -X                                      :X                                          >X        ",
"            (.                                                                                                                  ",
"            x.+X                                                                                                                ",
"          +XH.H.                                                                  9X$X                                          ",
"                                                              .X                                                                ",
"                                                            8X5X@X                                                              ",
"                                                            tX5X;X                                      3X+X,X                  ",
"                                                                                                          ,X>X                  ",
"                    >XrXXX                    #X                              .X                                                ",
"                                            Q.(..X                          {.R. X                                              ",
"                                            ).oX/.                          }.}.&X              5X                              ",
"                                                                              @X                                  C.            ",
"                                                                                                                                ",
"                                                                                                                                ",
"                                                                                                                                ",
"                                                                                                                                "
};
